G04 #@! TF.GenerationSoftware,KiCad,Pcbnew,(5.1.12)-1*
G04 #@! TF.CreationDate,2024-06-07T21:14:04+03:00*
G04 #@! TF.ProjectId,CaliperPCB,43616c69-7065-4725-9043-422e6b696361,rev?*
G04 #@! TF.SameCoordinates,Original*
G04 #@! TF.FileFunction,Legend,Top*
G04 #@! TF.FilePolarity,Positive*
%FSLAX46Y46*%
G04 Gerber Fmt 4.6, Leading zero omitted, Abs format (unit mm)*
G04 Created by KiCad (PCBNEW (5.1.12)-1) date 2024-06-07 21:14:04*
%MOMM*%
%LPD*%
G01*
G04 APERTURE LIST*
%ADD10C,0.150000*%
%ADD11C,0.120000*%
%ADD12C,0.200000*%
%ADD13C,0.127000*%
%ADD14O,1.700000X1.700000*%
%ADD15R,1.700000X1.700000*%
%ADD16C,0.500000*%
%ADD17R,0.650000X1.220000*%
%ADD18R,0.650000X1.060000*%
%ADD19C,0.100000*%
%ADD20R,2.000000X2.400000*%
%ADD21O,1.000000X1.600000*%
%ADD22C,0.650000*%
%ADD23O,1.000000X2.100000*%
%ADD24R,0.300000X1.450000*%
%ADD25R,0.600000X1.450000*%
G04 APERTURE END LIST*
D10*
X123960095Y-93924380D02*
X123960095Y-92924380D01*
X124198190Y-92924380D01*
X124341047Y-92972000D01*
X124436285Y-93067238D01*
X124483904Y-93162476D01*
X124531523Y-93352952D01*
X124531523Y-93495809D01*
X124483904Y-93686285D01*
X124436285Y-93781523D01*
X124341047Y-93876761D01*
X124198190Y-93924380D01*
X123960095Y-93924380D01*
X125293428Y-93400571D02*
X125436285Y-93448190D01*
X125483904Y-93495809D01*
X125531523Y-93591047D01*
X125531523Y-93733904D01*
X125483904Y-93829142D01*
X125436285Y-93876761D01*
X125341047Y-93924380D01*
X124960095Y-93924380D01*
X124960095Y-92924380D01*
X125293428Y-92924380D01*
X125388666Y-92972000D01*
X125436285Y-93019619D01*
X125483904Y-93114857D01*
X125483904Y-93210095D01*
X125436285Y-93305333D01*
X125388666Y-93352952D01*
X125293428Y-93400571D01*
X124960095Y-93400571D01*
X126483904Y-92972000D02*
X126388666Y-92924380D01*
X126245809Y-92924380D01*
X126102952Y-92972000D01*
X126007714Y-93067238D01*
X125960095Y-93162476D01*
X125912476Y-93352952D01*
X125912476Y-93495809D01*
X125960095Y-93686285D01*
X126007714Y-93781523D01*
X126102952Y-93876761D01*
X126245809Y-93924380D01*
X126341047Y-93924380D01*
X126483904Y-93876761D01*
X126531523Y-93829142D01*
X126531523Y-93495809D01*
X126341047Y-93495809D01*
D11*
X177724000Y-105156000D02*
X177724000Y-98298000D01*
X181026000Y-105156000D02*
X177724000Y-105156000D01*
X181026000Y-98298000D02*
X181026000Y-105156000D01*
X177724000Y-98298000D02*
X181026000Y-98298000D01*
D10*
X178160714Y-99783761D02*
X178303571Y-99831380D01*
X178541666Y-99831380D01*
X178636904Y-99783761D01*
X178684523Y-99736142D01*
X178732142Y-99640904D01*
X178732142Y-99545666D01*
X178684523Y-99450428D01*
X178636904Y-99402809D01*
X178541666Y-99355190D01*
X178351190Y-99307571D01*
X178255952Y-99259952D01*
X178208333Y-99212333D01*
X178160714Y-99117095D01*
X178160714Y-99021857D01*
X178208333Y-98926619D01*
X178255952Y-98879000D01*
X178351190Y-98831380D01*
X178589285Y-98831380D01*
X178732142Y-98879000D01*
X179160714Y-99831380D02*
X179160714Y-98831380D01*
X179398809Y-98831380D01*
X179541666Y-98879000D01*
X179636904Y-98974238D01*
X179684523Y-99069476D01*
X179732142Y-99259952D01*
X179732142Y-99402809D01*
X179684523Y-99593285D01*
X179636904Y-99688523D01*
X179541666Y-99783761D01*
X179398809Y-99831380D01*
X179160714Y-99831380D01*
X180113095Y-99545666D02*
X180589285Y-99545666D01*
X180017857Y-99831380D02*
X180351190Y-98831380D01*
X180684523Y-99831380D01*
X178779761Y-101386142D02*
X178732142Y-101433761D01*
X178589285Y-101481380D01*
X178494047Y-101481380D01*
X178351190Y-101433761D01*
X178255952Y-101338523D01*
X178208333Y-101243285D01*
X178160714Y-101052809D01*
X178160714Y-100909952D01*
X178208333Y-100719476D01*
X178255952Y-100624238D01*
X178351190Y-100529000D01*
X178494047Y-100481380D01*
X178589285Y-100481380D01*
X178732142Y-100529000D01*
X178779761Y-100576619D01*
X179684523Y-101481380D02*
X179208333Y-101481380D01*
X179208333Y-100481380D01*
X180017857Y-101481380D02*
X180017857Y-100481380D01*
X180589285Y-101481380D02*
X180160714Y-100909952D01*
X180589285Y-100481380D02*
X180017857Y-101052809D01*
X178136904Y-102131380D02*
X178755952Y-102131380D01*
X178422619Y-102512333D01*
X178565476Y-102512333D01*
X178660714Y-102559952D01*
X178708333Y-102607571D01*
X178755952Y-102702809D01*
X178755952Y-102940904D01*
X178708333Y-103036142D01*
X178660714Y-103083761D01*
X178565476Y-103131380D01*
X178279761Y-103131380D01*
X178184523Y-103083761D01*
X178136904Y-103036142D01*
X179041666Y-102131380D02*
X179375000Y-103131380D01*
X179708333Y-102131380D01*
X179946428Y-102131380D02*
X180565476Y-102131380D01*
X180232142Y-102512333D01*
X180375000Y-102512333D01*
X180470238Y-102559952D01*
X180517857Y-102607571D01*
X180565476Y-102702809D01*
X180565476Y-102940904D01*
X180517857Y-103036142D01*
X180470238Y-103083761D01*
X180375000Y-103131380D01*
X180089285Y-103131380D01*
X179994047Y-103083761D01*
X179946428Y-103036142D01*
X178613095Y-103829000D02*
X178517857Y-103781380D01*
X178375000Y-103781380D01*
X178232142Y-103829000D01*
X178136904Y-103924238D01*
X178089285Y-104019476D01*
X178041666Y-104209952D01*
X178041666Y-104352809D01*
X178089285Y-104543285D01*
X178136904Y-104638523D01*
X178232142Y-104733761D01*
X178375000Y-104781380D01*
X178470238Y-104781380D01*
X178613095Y-104733761D01*
X178660714Y-104686142D01*
X178660714Y-104352809D01*
X178470238Y-104352809D01*
X179089285Y-104781380D02*
X179089285Y-103781380D01*
X179660714Y-104781380D01*
X179660714Y-103781380D01*
X180136904Y-104781380D02*
X180136904Y-103781380D01*
X180375000Y-103781380D01*
X180517857Y-103829000D01*
X180613095Y-103924238D01*
X180660714Y-104019476D01*
X180708333Y-104209952D01*
X180708333Y-104352809D01*
X180660714Y-104543285D01*
X180613095Y-104638523D01*
X180517857Y-104733761D01*
X180375000Y-104781380D01*
X180136904Y-104781380D01*
X182071904Y-89322380D02*
X182690952Y-89322380D01*
X182357619Y-89703333D01*
X182500476Y-89703333D01*
X182595714Y-89750952D01*
X182643333Y-89798571D01*
X182690952Y-89893809D01*
X182690952Y-90131904D01*
X182643333Y-90227142D01*
X182595714Y-90274761D01*
X182500476Y-90322380D01*
X182214761Y-90322380D01*
X182119523Y-90274761D01*
X182071904Y-90227142D01*
X182976666Y-89322380D02*
X183310000Y-90322380D01*
X183643333Y-89322380D01*
X183881428Y-89322380D02*
X184500476Y-89322380D01*
X184167142Y-89703333D01*
X184310000Y-89703333D01*
X184405238Y-89750952D01*
X184452857Y-89798571D01*
X184500476Y-89893809D01*
X184500476Y-90131904D01*
X184452857Y-90227142D01*
X184405238Y-90274761D01*
X184310000Y-90322380D01*
X184024285Y-90322380D01*
X183929047Y-90274761D01*
X183881428Y-90227142D01*
X185548095Y-89322380D02*
X186119523Y-89322380D01*
X185833809Y-90322380D02*
X185833809Y-89322380D01*
X186357619Y-89322380D02*
X187024285Y-90322380D01*
X187024285Y-89322380D02*
X186357619Y-90322380D01*
X188738571Y-90322380D02*
X188405238Y-89846190D01*
X188167142Y-90322380D02*
X188167142Y-89322380D01*
X188548095Y-89322380D01*
X188643333Y-89370000D01*
X188690952Y-89417619D01*
X188738571Y-89512857D01*
X188738571Y-89655714D01*
X188690952Y-89750952D01*
X188643333Y-89798571D01*
X188548095Y-89846190D01*
X188167142Y-89846190D01*
X189071904Y-89322380D02*
X189738571Y-90322380D01*
X189738571Y-89322380D02*
X189071904Y-90322380D01*
X191405238Y-89370000D02*
X191310000Y-89322380D01*
X191167142Y-89322380D01*
X191024285Y-89370000D01*
X190929047Y-89465238D01*
X190881428Y-89560476D01*
X190833809Y-89750952D01*
X190833809Y-89893809D01*
X190881428Y-90084285D01*
X190929047Y-90179523D01*
X191024285Y-90274761D01*
X191167142Y-90322380D01*
X191262380Y-90322380D01*
X191405238Y-90274761D01*
X191452857Y-90227142D01*
X191452857Y-89893809D01*
X191262380Y-89893809D01*
X191881428Y-90322380D02*
X191881428Y-89322380D01*
X192452857Y-90322380D01*
X192452857Y-89322380D01*
X192929047Y-90322380D02*
X192929047Y-89322380D01*
X193167142Y-89322380D01*
X193310000Y-89370000D01*
X193405238Y-89465238D01*
X193452857Y-89560476D01*
X193500476Y-89750952D01*
X193500476Y-89893809D01*
X193452857Y-90084285D01*
X193405238Y-90179523D01*
X193310000Y-90274761D01*
X193167142Y-90322380D01*
X192929047Y-90322380D01*
D11*
X194216000Y-90910000D02*
X181546000Y-90910000D01*
X194216000Y-88690000D02*
X194216000Y-90910000D01*
X181546000Y-90910000D02*
X181546000Y-88690000D01*
X181546000Y-88690000D02*
X194216000Y-88690000D01*
D10*
X145570476Y-85742380D02*
X145570476Y-84742380D01*
X145951428Y-84742380D01*
X146046666Y-84790000D01*
X146094285Y-84837619D01*
X146141904Y-84932857D01*
X146141904Y-85075714D01*
X146094285Y-85170952D01*
X146046666Y-85218571D01*
X145951428Y-85266190D01*
X145570476Y-85266190D01*
X146760952Y-84742380D02*
X146951428Y-84742380D01*
X147046666Y-84790000D01*
X147141904Y-84885238D01*
X147189523Y-85075714D01*
X147189523Y-85409047D01*
X147141904Y-85599523D01*
X147046666Y-85694761D01*
X146951428Y-85742380D01*
X146760952Y-85742380D01*
X146665714Y-85694761D01*
X146570476Y-85599523D01*
X146522857Y-85409047D01*
X146522857Y-85075714D01*
X146570476Y-84885238D01*
X146665714Y-84790000D01*
X146760952Y-84742380D01*
X147522857Y-84742380D02*
X147760952Y-85742380D01*
X147951428Y-85028095D01*
X148141904Y-85742380D01*
X148380000Y-84742380D01*
X148760952Y-85218571D02*
X149094285Y-85218571D01*
X149237142Y-85742380D02*
X148760952Y-85742380D01*
X148760952Y-84742380D01*
X149237142Y-84742380D01*
X150237142Y-85742380D02*
X149903809Y-85266190D01*
X149665714Y-85742380D02*
X149665714Y-84742380D01*
X150046666Y-84742380D01*
X150141904Y-84790000D01*
X150189523Y-84837619D01*
X150237142Y-84932857D01*
X150237142Y-85075714D01*
X150189523Y-85170952D01*
X150141904Y-85218571D01*
X150046666Y-85266190D01*
X149665714Y-85266190D01*
X193835714Y-103422380D02*
X193835714Y-104231904D01*
X193883333Y-104327142D01*
X193930952Y-104374761D01*
X194026190Y-104422380D01*
X194216666Y-104422380D01*
X194311904Y-104374761D01*
X194359523Y-104327142D01*
X194407142Y-104231904D01*
X194407142Y-103422380D01*
X194835714Y-104374761D02*
X194978571Y-104422380D01*
X195216666Y-104422380D01*
X195311904Y-104374761D01*
X195359523Y-104327142D01*
X195407142Y-104231904D01*
X195407142Y-104136666D01*
X195359523Y-104041428D01*
X195311904Y-103993809D01*
X195216666Y-103946190D01*
X195026190Y-103898571D01*
X194930952Y-103850952D01*
X194883333Y-103803333D01*
X194835714Y-103708095D01*
X194835714Y-103612857D01*
X194883333Y-103517619D01*
X194930952Y-103470000D01*
X195026190Y-103422380D01*
X195264285Y-103422380D01*
X195407142Y-103470000D01*
X195835714Y-103898571D02*
X196169047Y-103898571D01*
X196311904Y-104422380D02*
X195835714Y-104422380D01*
X195835714Y-103422380D01*
X196311904Y-103422380D01*
X197311904Y-104422380D02*
X196978571Y-103946190D01*
X196740476Y-104422380D02*
X196740476Y-103422380D01*
X197121428Y-103422380D01*
X197216666Y-103470000D01*
X197264285Y-103517619D01*
X197311904Y-103612857D01*
X197311904Y-103755714D01*
X197264285Y-103850952D01*
X197216666Y-103898571D01*
X197121428Y-103946190D01*
X196740476Y-103946190D01*
X186457619Y-104422380D02*
X186124285Y-103946190D01*
X185886190Y-104422380D02*
X185886190Y-103422380D01*
X186267142Y-103422380D01*
X186362380Y-103470000D01*
X186410000Y-103517619D01*
X186457619Y-103612857D01*
X186457619Y-103755714D01*
X186410000Y-103850952D01*
X186362380Y-103898571D01*
X186267142Y-103946190D01*
X185886190Y-103946190D01*
X186886190Y-103898571D02*
X187219523Y-103898571D01*
X187362380Y-104422380D02*
X186886190Y-104422380D01*
X186886190Y-103422380D01*
X187362380Y-103422380D01*
X187743333Y-104374761D02*
X187886190Y-104422380D01*
X188124285Y-104422380D01*
X188219523Y-104374761D01*
X188267142Y-104327142D01*
X188314761Y-104231904D01*
X188314761Y-104136666D01*
X188267142Y-104041428D01*
X188219523Y-103993809D01*
X188124285Y-103946190D01*
X187933809Y-103898571D01*
X187838571Y-103850952D01*
X187790952Y-103803333D01*
X187743333Y-103708095D01*
X187743333Y-103612857D01*
X187790952Y-103517619D01*
X187838571Y-103470000D01*
X187933809Y-103422380D01*
X188171904Y-103422380D01*
X188314761Y-103470000D01*
X188743333Y-103898571D02*
X189076666Y-103898571D01*
X189219523Y-104422380D02*
X188743333Y-104422380D01*
X188743333Y-103422380D01*
X189219523Y-103422380D01*
X189505238Y-103422380D02*
X190076666Y-103422380D01*
X189790952Y-104422380D02*
X189790952Y-103422380D01*
D11*
X127702000Y-86868000D02*
X127702000Y-85538000D01*
X127702000Y-85538000D02*
X129032000Y-85538000D01*
X127702000Y-88138000D02*
X130302000Y-88138000D01*
X130302000Y-88138000D02*
X130302000Y-85538000D01*
X130302000Y-85538000D02*
X140522000Y-85538000D01*
X140522000Y-90738000D02*
X140522000Y-85538000D01*
X127702000Y-90738000D02*
X140522000Y-90738000D01*
X127702000Y-90738000D02*
X127702000Y-88138000D01*
X159582500Y-93917258D02*
X159582500Y-93442742D01*
X158537500Y-93917258D02*
X158537500Y-93442742D01*
X147315000Y-98469420D02*
X147315000Y-98750580D01*
X146295000Y-98469420D02*
X146295000Y-98750580D01*
X140929420Y-98960000D02*
X141210580Y-98960000D01*
X140929420Y-99980000D02*
X141210580Y-99980000D01*
X136050580Y-96820000D02*
X135769420Y-96820000D01*
X136050580Y-95800000D02*
X135769420Y-95800000D01*
X183210000Y-98749420D02*
X183210000Y-99030580D01*
X184230000Y-98749420D02*
X184230000Y-99030580D01*
X178050000Y-90100000D02*
X180710000Y-90100000D01*
X178050000Y-90100000D02*
X178050000Y-97780000D01*
X178050000Y-97780000D02*
X180710000Y-97780000D01*
X180710000Y-90100000D02*
X180710000Y-97780000D01*
X180710000Y-87500000D02*
X180710000Y-88830000D01*
X179380000Y-87500000D02*
X180710000Y-87500000D01*
X155092500Y-93917258D02*
X155092500Y-93442742D01*
X154047500Y-93917258D02*
X154047500Y-93442742D01*
X155035742Y-98032500D02*
X155510258Y-98032500D01*
X155035742Y-96987500D02*
X155510258Y-96987500D01*
X155575500Y-93442742D02*
X155575500Y-93917258D01*
X156620500Y-93442742D02*
X156620500Y-93917258D01*
X157075500Y-93442742D02*
X157075500Y-93917258D01*
X158120500Y-93442742D02*
X158120500Y-93917258D01*
X145660000Y-101957500D02*
X145660000Y-100197500D01*
X142590000Y-100197500D02*
X142590000Y-102627500D01*
X132480000Y-99294420D02*
X132480000Y-99575580D01*
X133500000Y-99294420D02*
X133500000Y-99575580D01*
D12*
X148580000Y-103822500D02*
G75*
G03*
X148580000Y-103822500I-100000J0D01*
G01*
D13*
X151139000Y-100622500D02*
X151139000Y-102022500D01*
X150280000Y-100622500D02*
X151139000Y-100622500D01*
X148021000Y-100622500D02*
X148880000Y-100622500D01*
X148021000Y-102022500D02*
X148021000Y-100622500D01*
D11*
X171280000Y-91240000D02*
X171280000Y-88790000D01*
X168060000Y-89440000D02*
X168060000Y-91240000D01*
D12*
X134635000Y-105515000D02*
G75*
G03*
X134635000Y-105515000I-100000J0D01*
G01*
D13*
X134515000Y-103110000D02*
X134515000Y-99210000D01*
X139565000Y-103110000D02*
X139565000Y-99210000D01*
D11*
X130318742Y-109488500D02*
X130793258Y-109488500D01*
X130318742Y-108443500D02*
X130793258Y-108443500D01*
X125733500Y-96022742D02*
X125733500Y-96497258D01*
X126778500Y-96022742D02*
X126778500Y-96497258D01*
X142070000Y-100897500D02*
X142070000Y-102297500D01*
X141370000Y-102997500D02*
X140770000Y-102997500D01*
X140070000Y-102297500D02*
X140070000Y-100897500D01*
X140770000Y-100197500D02*
X141370000Y-100197500D01*
X141370000Y-100197500D02*
G75*
G02*
X142070000Y-100897500I0J-700000D01*
G01*
X140070000Y-100897500D02*
G75*
G02*
X140770000Y-100197500I700000J0D01*
G01*
X140770000Y-102997500D02*
G75*
G02*
X140070000Y-102297500I0J700000D01*
G01*
X142070000Y-102297500D02*
G75*
G02*
X141370000Y-102997500I-700000J0D01*
G01*
X175687742Y-93320000D02*
X176162258Y-93320000D01*
X175687742Y-94365000D02*
X176162258Y-94365000D01*
X147327500Y-101799758D02*
X147327500Y-101325242D01*
X146282500Y-101799758D02*
X146282500Y-101325242D01*
X144087500Y-97507258D02*
X144087500Y-97032742D01*
X143042500Y-97507258D02*
X143042500Y-97032742D01*
X144477500Y-97032742D02*
X144477500Y-97507258D01*
X145522500Y-97032742D02*
X145522500Y-97507258D01*
X142640000Y-97410580D02*
X142640000Y-97129420D01*
X141620000Y-97410580D02*
X141620000Y-97129420D01*
D12*
X197968333Y-91105000D02*
G75*
G03*
X197968333Y-91105000I-100000J0D01*
G01*
D13*
X198568333Y-100355000D02*
X198568333Y-94355000D01*
X192568333Y-94355000D02*
X198568333Y-94355000D01*
X192568333Y-100355000D02*
X192568333Y-94355000D01*
X198568333Y-100355000D02*
X192568333Y-100355000D01*
D12*
X185584334Y-103605000D02*
G75*
G03*
X185584334Y-103605000I-100000J0D01*
G01*
D13*
X184784334Y-94355000D02*
X184784334Y-100355000D01*
X190784334Y-100355000D02*
X184784334Y-100355000D01*
X190784334Y-94355000D02*
X190784334Y-100355000D01*
X184784334Y-94355000D02*
X190784334Y-94355000D01*
D11*
X146642500Y-89352258D02*
X146642500Y-88877742D01*
X147687500Y-89352258D02*
X147687500Y-88877742D01*
X148752500Y-86133000D02*
X146467500Y-86133000D01*
X146467500Y-86133000D02*
X146467500Y-87603000D01*
X146467500Y-87603000D02*
X148752500Y-87603000D01*
X199101500Y-96022258D02*
X199101500Y-95547742D01*
X200146500Y-96022258D02*
X200146500Y-95547742D01*
X200134000Y-98749420D02*
X200134000Y-99030580D01*
X199114000Y-98749420D02*
X199114000Y-99030580D01*
X123746000Y-96119420D02*
X123746000Y-96400580D01*
X124766000Y-96119420D02*
X124766000Y-96400580D01*
X175687742Y-95860000D02*
X176162258Y-95860000D01*
X175687742Y-96905000D02*
X176162258Y-96905000D01*
X182390000Y-86950000D02*
X182390000Y-85620000D01*
X182390000Y-85620000D02*
X183720000Y-85620000D01*
X184990000Y-85620000D02*
X192670000Y-85620000D01*
X192670000Y-88280000D02*
X192670000Y-85620000D01*
X184990000Y-88280000D02*
X192670000Y-88280000D01*
X184990000Y-88280000D02*
X184990000Y-85620000D01*
D12*
X118130000Y-98320000D02*
G75*
G03*
X118130000Y-98320000I-100000J0D01*
G01*
D13*
X116630000Y-97350000D02*
X116630000Y-93790000D01*
X112830000Y-97350000D02*
X112830000Y-93790000D01*
X116630000Y-91570000D02*
X116630000Y-91850000D01*
X112830000Y-91570000D02*
X112830000Y-91850000D01*
X116630000Y-99570000D02*
X116630000Y-99290000D01*
X112830000Y-99570000D02*
X112830000Y-99290000D01*
X116630000Y-91570000D02*
X112830000Y-91570000D01*
X116630000Y-99570000D02*
X112830000Y-99570000D01*
D11*
X111666000Y-107805000D02*
X117416000Y-107805000D01*
X111666000Y-104205000D02*
X111666000Y-107805000D01*
X117416000Y-104205000D02*
X111666000Y-104205000D01*
X161548000Y-82714000D02*
X152148000Y-82714000D01*
X152148000Y-88514000D02*
X152148000Y-86514000D01*
X152148000Y-84614000D02*
X152148000Y-82714000D01*
X161548000Y-88514000D02*
X161548000Y-86514000D01*
X161548000Y-84614000D02*
X161548000Y-82714000D01*
X134312742Y-94142500D02*
X134787258Y-94142500D01*
X134312742Y-93097500D02*
X134787258Y-93097500D01*
X120135420Y-100720000D02*
X120416580Y-100720000D01*
X120135420Y-99700000D02*
X120416580Y-99700000D01*
X119679420Y-104720000D02*
X119960580Y-104720000D01*
X119679420Y-103700000D02*
X119960580Y-103700000D01*
X145037500Y-87452742D02*
X145037500Y-87927258D01*
X146082500Y-87452742D02*
X146082500Y-87927258D01*
X123396000Y-99800000D02*
X122106000Y-99800000D01*
X123396000Y-99350000D02*
X123396000Y-99800000D01*
X123846000Y-99350000D02*
X123396000Y-99350000D01*
X130616000Y-99350000D02*
X130616000Y-99800000D01*
X130166000Y-99350000D02*
X130616000Y-99350000D01*
X123396000Y-106570000D02*
X123396000Y-106120000D01*
X123846000Y-106570000D02*
X123396000Y-106570000D01*
X130616000Y-106570000D02*
X130616000Y-106120000D01*
X130166000Y-106570000D02*
X130616000Y-106570000D01*
X183197500Y-96022258D02*
X183197500Y-95547742D01*
X184242500Y-96022258D02*
X184242500Y-95547742D01*
X114953258Y-102787500D02*
X114478742Y-102787500D01*
X114953258Y-103832500D02*
X114478742Y-103832500D01*
X167750000Y-90805580D02*
X167750000Y-90524420D01*
X166730000Y-90805580D02*
X166730000Y-90524420D01*
X132015580Y-106612500D02*
X131734420Y-106612500D01*
X132015580Y-107632500D02*
X131734420Y-107632500D01*
X119555000Y-106555580D02*
X119555000Y-106274420D01*
X118535000Y-106555580D02*
X118535000Y-106274420D01*
X111830000Y-95710580D02*
X111830000Y-95429420D01*
X110810000Y-95710580D02*
X110810000Y-95429420D01*
X171553000Y-90524420D02*
X171553000Y-90805580D01*
X172573000Y-90524420D02*
X172573000Y-90805580D01*
X174166000Y-90805580D02*
X174166000Y-90524420D01*
X173146000Y-90805580D02*
X173146000Y-90524420D01*
X118720000Y-95419420D02*
X118720000Y-95700580D01*
X117700000Y-95419420D02*
X117700000Y-95700580D01*
X116481580Y-108190000D02*
X116200420Y-108190000D01*
X116481580Y-109210000D02*
X116200420Y-109210000D01*
X168210000Y-86728420D02*
X168210000Y-87009580D01*
X169230000Y-86728420D02*
X169230000Y-87009580D01*
X113231580Y-108190000D02*
X112950420Y-108190000D01*
X113231580Y-109210000D02*
X112950420Y-109210000D01*
X170110000Y-86728420D02*
X170110000Y-87009580D01*
X171130000Y-86728420D02*
X171130000Y-87009580D01*
D10*
X159552380Y-96165666D02*
X159076190Y-96499000D01*
X159552380Y-96737095D02*
X158552380Y-96737095D01*
X158552380Y-96356142D01*
X158600000Y-96260904D01*
X158647619Y-96213285D01*
X158742857Y-96165666D01*
X158885714Y-96165666D01*
X158980952Y-96213285D01*
X159028571Y-96260904D01*
X159076190Y-96356142D01*
X159076190Y-96737095D01*
X159552380Y-95689476D02*
X159552380Y-95499000D01*
X159504761Y-95403761D01*
X159457142Y-95356142D01*
X159314285Y-95260904D01*
X159123809Y-95213285D01*
X158742857Y-95213285D01*
X158647619Y-95260904D01*
X158600000Y-95308523D01*
X158552380Y-95403761D01*
X158552380Y-95594238D01*
X158600000Y-95689476D01*
X158647619Y-95737095D01*
X158742857Y-95784714D01*
X158980952Y-95784714D01*
X159076190Y-95737095D01*
X159123809Y-95689476D01*
X159171428Y-95594238D01*
X159171428Y-95403761D01*
X159123809Y-95308523D01*
X159076190Y-95260904D01*
X158980952Y-95213285D01*
X147147142Y-96332857D02*
X147194761Y-96380476D01*
X147242380Y-96523333D01*
X147242380Y-96618571D01*
X147194761Y-96761428D01*
X147099523Y-96856666D01*
X147004285Y-96904285D01*
X146813809Y-96951904D01*
X146670952Y-96951904D01*
X146480476Y-96904285D01*
X146385238Y-96856666D01*
X146290000Y-96761428D01*
X146242380Y-96618571D01*
X146242380Y-96523333D01*
X146290000Y-96380476D01*
X146337619Y-96332857D01*
X146337619Y-95951904D02*
X146290000Y-95904285D01*
X146242380Y-95809047D01*
X146242380Y-95570952D01*
X146290000Y-95475714D01*
X146337619Y-95428095D01*
X146432857Y-95380476D01*
X146528095Y-95380476D01*
X146670952Y-95428095D01*
X147242380Y-95999523D01*
X147242380Y-95380476D01*
X146337619Y-94999523D02*
X146290000Y-94951904D01*
X146242380Y-94856666D01*
X146242380Y-94618571D01*
X146290000Y-94523333D01*
X146337619Y-94475714D01*
X146432857Y-94428095D01*
X146528095Y-94428095D01*
X146670952Y-94475714D01*
X147242380Y-95047142D01*
X147242380Y-94428095D01*
X140937142Y-98012857D02*
X140984761Y-98060476D01*
X141032380Y-98203333D01*
X141032380Y-98298571D01*
X140984761Y-98441428D01*
X140889523Y-98536666D01*
X140794285Y-98584285D01*
X140603809Y-98631904D01*
X140460952Y-98631904D01*
X140270476Y-98584285D01*
X140175238Y-98536666D01*
X140080000Y-98441428D01*
X140032380Y-98298571D01*
X140032380Y-98203333D01*
X140080000Y-98060476D01*
X140127619Y-98012857D01*
X140127619Y-97631904D02*
X140080000Y-97584285D01*
X140032380Y-97489047D01*
X140032380Y-97250952D01*
X140080000Y-97155714D01*
X140127619Y-97108095D01*
X140222857Y-97060476D01*
X140318095Y-97060476D01*
X140460952Y-97108095D01*
X141032380Y-97679523D01*
X141032380Y-97060476D01*
X141032380Y-96108095D02*
X141032380Y-96679523D01*
X141032380Y-96393809D02*
X140032380Y-96393809D01*
X140175238Y-96489047D01*
X140270476Y-96584285D01*
X140318095Y-96679523D01*
X135237142Y-95347142D02*
X135189523Y-95394761D01*
X135046666Y-95442380D01*
X134951428Y-95442380D01*
X134808571Y-95394761D01*
X134713333Y-95299523D01*
X134665714Y-95204285D01*
X134618095Y-95013809D01*
X134618095Y-94870952D01*
X134665714Y-94680476D01*
X134713333Y-94585238D01*
X134808571Y-94490000D01*
X134951428Y-94442380D01*
X135046666Y-94442380D01*
X135189523Y-94490000D01*
X135237142Y-94537619D01*
X136189523Y-95442380D02*
X135618095Y-95442380D01*
X135903809Y-95442380D02*
X135903809Y-94442380D01*
X135808571Y-94585238D01*
X135713333Y-94680476D01*
X135618095Y-94728095D01*
X136570476Y-94537619D02*
X136618095Y-94490000D01*
X136713333Y-94442380D01*
X136951428Y-94442380D01*
X137046666Y-94490000D01*
X137094285Y-94537619D01*
X137141904Y-94632857D01*
X137141904Y-94728095D01*
X137094285Y-94870952D01*
X136522857Y-95442380D01*
X137141904Y-95442380D01*
X182657142Y-99532857D02*
X182704761Y-99580476D01*
X182752380Y-99723333D01*
X182752380Y-99818571D01*
X182704761Y-99961428D01*
X182609523Y-100056666D01*
X182514285Y-100104285D01*
X182323809Y-100151904D01*
X182180952Y-100151904D01*
X181990476Y-100104285D01*
X181895238Y-100056666D01*
X181800000Y-99961428D01*
X181752380Y-99818571D01*
X181752380Y-99723333D01*
X181800000Y-99580476D01*
X181847619Y-99532857D01*
X182752380Y-98580476D02*
X182752380Y-99151904D01*
X182752380Y-98866190D02*
X181752380Y-98866190D01*
X181895238Y-98961428D01*
X181990476Y-99056666D01*
X182038095Y-99151904D01*
X182752380Y-97628095D02*
X182752380Y-98199523D01*
X182752380Y-97913809D02*
X181752380Y-97913809D01*
X181895238Y-98009047D01*
X181990476Y-98104285D01*
X182038095Y-98199523D01*
X155082380Y-96165666D02*
X154606190Y-96499000D01*
X155082380Y-96737095D02*
X154082380Y-96737095D01*
X154082380Y-96356142D01*
X154130000Y-96260904D01*
X154177619Y-96213285D01*
X154272857Y-96165666D01*
X154415714Y-96165666D01*
X154510952Y-96213285D01*
X154558571Y-96260904D01*
X154606190Y-96356142D01*
X154606190Y-96737095D01*
X154510952Y-95594238D02*
X154463333Y-95689476D01*
X154415714Y-95737095D01*
X154320476Y-95784714D01*
X154272857Y-95784714D01*
X154177619Y-95737095D01*
X154130000Y-95689476D01*
X154082380Y-95594238D01*
X154082380Y-95403761D01*
X154130000Y-95308523D01*
X154177619Y-95260904D01*
X154272857Y-95213285D01*
X154320476Y-95213285D01*
X154415714Y-95260904D01*
X154463333Y-95308523D01*
X154510952Y-95403761D01*
X154510952Y-95594238D01*
X154558571Y-95689476D01*
X154606190Y-95737095D01*
X154701428Y-95784714D01*
X154891904Y-95784714D01*
X154987142Y-95737095D01*
X155034761Y-95689476D01*
X155082380Y-95594238D01*
X155082380Y-95403761D01*
X155034761Y-95308523D01*
X154987142Y-95260904D01*
X154891904Y-95213285D01*
X154701428Y-95213285D01*
X154606190Y-95260904D01*
X154558571Y-95308523D01*
X154510952Y-95403761D01*
X155106333Y-99320380D02*
X154773000Y-98844190D01*
X154534904Y-99320380D02*
X154534904Y-98320380D01*
X154915857Y-98320380D01*
X155011095Y-98368000D01*
X155058714Y-98415619D01*
X155106333Y-98510857D01*
X155106333Y-98653714D01*
X155058714Y-98748952D01*
X155011095Y-98796571D01*
X154915857Y-98844190D01*
X154534904Y-98844190D01*
X155439666Y-98320380D02*
X156106333Y-98320380D01*
X155677761Y-99320380D01*
X156542380Y-96165666D02*
X156066190Y-96499000D01*
X156542380Y-96737095D02*
X155542380Y-96737095D01*
X155542380Y-96356142D01*
X155590000Y-96260904D01*
X155637619Y-96213285D01*
X155732857Y-96165666D01*
X155875714Y-96165666D01*
X155970952Y-96213285D01*
X156018571Y-96260904D01*
X156066190Y-96356142D01*
X156066190Y-96737095D01*
X155542380Y-95308523D02*
X155542380Y-95499000D01*
X155590000Y-95594238D01*
X155637619Y-95641857D01*
X155780476Y-95737095D01*
X155970952Y-95784714D01*
X156351904Y-95784714D01*
X156447142Y-95737095D01*
X156494761Y-95689476D01*
X156542380Y-95594238D01*
X156542380Y-95403761D01*
X156494761Y-95308523D01*
X156447142Y-95260904D01*
X156351904Y-95213285D01*
X156113809Y-95213285D01*
X156018571Y-95260904D01*
X155970952Y-95308523D01*
X155923333Y-95403761D01*
X155923333Y-95594238D01*
X155970952Y-95689476D01*
X156018571Y-95737095D01*
X156113809Y-95784714D01*
X158062380Y-96165666D02*
X157586190Y-96499000D01*
X158062380Y-96737095D02*
X157062380Y-96737095D01*
X157062380Y-96356142D01*
X157110000Y-96260904D01*
X157157619Y-96213285D01*
X157252857Y-96165666D01*
X157395714Y-96165666D01*
X157490952Y-96213285D01*
X157538571Y-96260904D01*
X157586190Y-96356142D01*
X157586190Y-96737095D01*
X157062380Y-95260904D02*
X157062380Y-95737095D01*
X157538571Y-95784714D01*
X157490952Y-95737095D01*
X157443333Y-95641857D01*
X157443333Y-95403761D01*
X157490952Y-95308523D01*
X157538571Y-95260904D01*
X157633809Y-95213285D01*
X157871904Y-95213285D01*
X157967142Y-95260904D01*
X158014761Y-95308523D01*
X158062380Y-95403761D01*
X158062380Y-95641857D01*
X158014761Y-95737095D01*
X157967142Y-95784714D01*
X143238095Y-103419880D02*
X143238095Y-104229404D01*
X143285714Y-104324642D01*
X143333333Y-104372261D01*
X143428571Y-104419880D01*
X143619047Y-104419880D01*
X143714285Y-104372261D01*
X143761904Y-104324642D01*
X143809523Y-104229404D01*
X143809523Y-103419880D01*
X144714285Y-103419880D02*
X144523809Y-103419880D01*
X144428571Y-103467500D01*
X144380952Y-103515119D01*
X144285714Y-103657976D01*
X144238095Y-103848452D01*
X144238095Y-104229404D01*
X144285714Y-104324642D01*
X144333333Y-104372261D01*
X144428571Y-104419880D01*
X144619047Y-104419880D01*
X144714285Y-104372261D01*
X144761904Y-104324642D01*
X144809523Y-104229404D01*
X144809523Y-103991309D01*
X144761904Y-103896071D01*
X144714285Y-103848452D01*
X144619047Y-103800833D01*
X144428571Y-103800833D01*
X144333333Y-103848452D01*
X144285714Y-103896071D01*
X144238095Y-103991309D01*
X133377142Y-97232857D02*
X133424761Y-97280476D01*
X133472380Y-97423333D01*
X133472380Y-97518571D01*
X133424761Y-97661428D01*
X133329523Y-97756666D01*
X133234285Y-97804285D01*
X133043809Y-97851904D01*
X132900952Y-97851904D01*
X132710476Y-97804285D01*
X132615238Y-97756666D01*
X132520000Y-97661428D01*
X132472380Y-97518571D01*
X132472380Y-97423333D01*
X132520000Y-97280476D01*
X132567619Y-97232857D01*
X133472380Y-96280476D02*
X133472380Y-96851904D01*
X133472380Y-96566190D02*
X132472380Y-96566190D01*
X132615238Y-96661428D01*
X132710476Y-96756666D01*
X132758095Y-96851904D01*
X132805714Y-95423333D02*
X133472380Y-95423333D01*
X132424761Y-95661428D02*
X133139047Y-95899523D01*
X133139047Y-95280476D01*
X148918095Y-103304880D02*
X148918095Y-104114404D01*
X148965714Y-104209642D01*
X149013333Y-104257261D01*
X149108571Y-104304880D01*
X149299047Y-104304880D01*
X149394285Y-104257261D01*
X149441904Y-104209642D01*
X149489523Y-104114404D01*
X149489523Y-103304880D01*
X150441904Y-103304880D02*
X149965714Y-103304880D01*
X149918095Y-103781071D01*
X149965714Y-103733452D01*
X150060952Y-103685833D01*
X150299047Y-103685833D01*
X150394285Y-103733452D01*
X150441904Y-103781071D01*
X150489523Y-103876309D01*
X150489523Y-104114404D01*
X150441904Y-104209642D01*
X150394285Y-104257261D01*
X150299047Y-104304880D01*
X150060952Y-104304880D01*
X149965714Y-104257261D01*
X149918095Y-104209642D01*
X168898095Y-92332380D02*
X168898095Y-93141904D01*
X168945714Y-93237142D01*
X168993333Y-93284761D01*
X169088571Y-93332380D01*
X169279047Y-93332380D01*
X169374285Y-93284761D01*
X169421904Y-93237142D01*
X169469523Y-93141904D01*
X169469523Y-92332380D01*
X169850476Y-92332380D02*
X170469523Y-92332380D01*
X170136190Y-92713333D01*
X170279047Y-92713333D01*
X170374285Y-92760952D01*
X170421904Y-92808571D01*
X170469523Y-92903809D01*
X170469523Y-93141904D01*
X170421904Y-93237142D01*
X170374285Y-93284761D01*
X170279047Y-93332380D01*
X169993333Y-93332380D01*
X169898095Y-93284761D01*
X169850476Y-93237142D01*
X136268095Y-105062380D02*
X136268095Y-105871904D01*
X136315714Y-105967142D01*
X136363333Y-106014761D01*
X136458571Y-106062380D01*
X136649047Y-106062380D01*
X136744285Y-106014761D01*
X136791904Y-105967142D01*
X136839523Y-105871904D01*
X136839523Y-105062380D01*
X137268095Y-105157619D02*
X137315714Y-105110000D01*
X137410952Y-105062380D01*
X137649047Y-105062380D01*
X137744285Y-105110000D01*
X137791904Y-105157619D01*
X137839523Y-105252857D01*
X137839523Y-105348095D01*
X137791904Y-105490952D01*
X137220476Y-106062380D01*
X137839523Y-106062380D01*
X129913142Y-110688380D02*
X129579809Y-110212190D01*
X129341714Y-110688380D02*
X129341714Y-109688380D01*
X129722666Y-109688380D01*
X129817904Y-109736000D01*
X129865523Y-109783619D01*
X129913142Y-109878857D01*
X129913142Y-110021714D01*
X129865523Y-110116952D01*
X129817904Y-110164571D01*
X129722666Y-110212190D01*
X129341714Y-110212190D01*
X130294095Y-109783619D02*
X130341714Y-109736000D01*
X130436952Y-109688380D01*
X130675047Y-109688380D01*
X130770285Y-109736000D01*
X130817904Y-109783619D01*
X130865523Y-109878857D01*
X130865523Y-109974095D01*
X130817904Y-110116952D01*
X130246476Y-110688380D01*
X130865523Y-110688380D01*
X131484571Y-109688380D02*
X131579809Y-109688380D01*
X131675047Y-109736000D01*
X131722666Y-109783619D01*
X131770285Y-109878857D01*
X131817904Y-110069333D01*
X131817904Y-110307428D01*
X131770285Y-110497904D01*
X131722666Y-110593142D01*
X131675047Y-110640761D01*
X131579809Y-110688380D01*
X131484571Y-110688380D01*
X131389333Y-110640761D01*
X131341714Y-110593142D01*
X131294095Y-110497904D01*
X131246476Y-110307428D01*
X131246476Y-110069333D01*
X131294095Y-109878857D01*
X131341714Y-109783619D01*
X131389333Y-109736000D01*
X131484571Y-109688380D01*
X127713333Y-96692380D02*
X127380000Y-96216190D01*
X127141904Y-96692380D02*
X127141904Y-95692380D01*
X127522857Y-95692380D01*
X127618095Y-95740000D01*
X127665714Y-95787619D01*
X127713333Y-95882857D01*
X127713333Y-96025714D01*
X127665714Y-96120952D01*
X127618095Y-96168571D01*
X127522857Y-96216190D01*
X127141904Y-96216190D01*
X128570476Y-96025714D02*
X128570476Y-96692380D01*
X128332380Y-95644761D02*
X128094285Y-96359047D01*
X128713333Y-96359047D01*
X140286666Y-103352380D02*
X140286666Y-104066666D01*
X140239047Y-104209523D01*
X140143809Y-104304761D01*
X140000952Y-104352380D01*
X139905714Y-104352380D01*
X140762857Y-104352380D02*
X140762857Y-103352380D01*
X141143809Y-103352380D01*
X141239047Y-103400000D01*
X141286666Y-103447619D01*
X141334285Y-103542857D01*
X141334285Y-103685714D01*
X141286666Y-103780952D01*
X141239047Y-103828571D01*
X141143809Y-103876190D01*
X140762857Y-103876190D01*
X142286666Y-104352380D02*
X141715238Y-104352380D01*
X142000952Y-104352380D02*
X142000952Y-103352380D01*
X141905714Y-103495238D01*
X141810476Y-103590476D01*
X141715238Y-103638095D01*
X172367142Y-94292380D02*
X172033809Y-93816190D01*
X171795714Y-94292380D02*
X171795714Y-93292380D01*
X172176666Y-93292380D01*
X172271904Y-93340000D01*
X172319523Y-93387619D01*
X172367142Y-93482857D01*
X172367142Y-93625714D01*
X172319523Y-93720952D01*
X172271904Y-93768571D01*
X172176666Y-93816190D01*
X171795714Y-93816190D01*
X173319523Y-94292380D02*
X172748095Y-94292380D01*
X173033809Y-94292380D02*
X173033809Y-93292380D01*
X172938571Y-93435238D01*
X172843333Y-93530476D01*
X172748095Y-93578095D01*
X173652857Y-93292380D02*
X174271904Y-93292380D01*
X173938571Y-93673333D01*
X174081428Y-93673333D01*
X174176666Y-93720952D01*
X174224285Y-93768571D01*
X174271904Y-93863809D01*
X174271904Y-94101904D01*
X174224285Y-94197142D01*
X174176666Y-94244761D01*
X174081428Y-94292380D01*
X173795714Y-94292380D01*
X173700476Y-94244761D01*
X173652857Y-94197142D01*
X147427380Y-105050357D02*
X146951190Y-105383690D01*
X147427380Y-105621785D02*
X146427380Y-105621785D01*
X146427380Y-105240833D01*
X146475000Y-105145595D01*
X146522619Y-105097976D01*
X146617857Y-105050357D01*
X146760714Y-105050357D01*
X146855952Y-105097976D01*
X146903571Y-105145595D01*
X146951190Y-105240833D01*
X146951190Y-105621785D01*
X147427380Y-104097976D02*
X147427380Y-104669404D01*
X147427380Y-104383690D02*
X146427380Y-104383690D01*
X146570238Y-104478928D01*
X146665476Y-104574166D01*
X146713095Y-104669404D01*
X147427380Y-103621785D02*
X147427380Y-103431309D01*
X147379761Y-103336071D01*
X147332142Y-103288452D01*
X147189285Y-103193214D01*
X146998809Y-103145595D01*
X146617857Y-103145595D01*
X146522619Y-103193214D01*
X146475000Y-103240833D01*
X146427380Y-103336071D01*
X146427380Y-103526547D01*
X146475000Y-103621785D01*
X146522619Y-103669404D01*
X146617857Y-103717023D01*
X146855952Y-103717023D01*
X146951190Y-103669404D01*
X146998809Y-103621785D01*
X147046428Y-103526547D01*
X147046428Y-103336071D01*
X146998809Y-103240833D01*
X146951190Y-103193214D01*
X146855952Y-103145595D01*
X144127380Y-95086666D02*
X143651190Y-95420000D01*
X144127380Y-95658095D02*
X143127380Y-95658095D01*
X143127380Y-95277142D01*
X143175000Y-95181904D01*
X143222619Y-95134285D01*
X143317857Y-95086666D01*
X143460714Y-95086666D01*
X143555952Y-95134285D01*
X143603571Y-95181904D01*
X143651190Y-95277142D01*
X143651190Y-95658095D01*
X143222619Y-94705714D02*
X143175000Y-94658095D01*
X143127380Y-94562857D01*
X143127380Y-94324761D01*
X143175000Y-94229523D01*
X143222619Y-94181904D01*
X143317857Y-94134285D01*
X143413095Y-94134285D01*
X143555952Y-94181904D01*
X144127380Y-94753333D01*
X144127380Y-94134285D01*
X145482380Y-94956666D02*
X145006190Y-95290000D01*
X145482380Y-95528095D02*
X144482380Y-95528095D01*
X144482380Y-95147142D01*
X144530000Y-95051904D01*
X144577619Y-95004285D01*
X144672857Y-94956666D01*
X144815714Y-94956666D01*
X144910952Y-95004285D01*
X144958571Y-95051904D01*
X145006190Y-95147142D01*
X145006190Y-95528095D01*
X145482380Y-94004285D02*
X145482380Y-94575714D01*
X145482380Y-94290000D02*
X144482380Y-94290000D01*
X144625238Y-94385238D01*
X144720476Y-94480476D01*
X144768095Y-94575714D01*
X142577142Y-95017857D02*
X142624761Y-95065476D01*
X142672380Y-95208333D01*
X142672380Y-95303571D01*
X142624761Y-95446428D01*
X142529523Y-95541666D01*
X142434285Y-95589285D01*
X142243809Y-95636904D01*
X142100952Y-95636904D01*
X141910476Y-95589285D01*
X141815238Y-95541666D01*
X141720000Y-95446428D01*
X141672380Y-95303571D01*
X141672380Y-95208333D01*
X141720000Y-95065476D01*
X141767619Y-95017857D01*
X141767619Y-94636904D02*
X141720000Y-94589285D01*
X141672380Y-94494047D01*
X141672380Y-94255952D01*
X141720000Y-94160714D01*
X141767619Y-94113095D01*
X141862857Y-94065476D01*
X141958095Y-94065476D01*
X142100952Y-94113095D01*
X142672380Y-94684523D01*
X142672380Y-94065476D01*
X141672380Y-93732142D02*
X141672380Y-93113095D01*
X142053333Y-93446428D01*
X142053333Y-93303571D01*
X142100952Y-93208333D01*
X142148571Y-93160714D01*
X142243809Y-93113095D01*
X142481904Y-93113095D01*
X142577142Y-93160714D01*
X142624761Y-93208333D01*
X142672380Y-93303571D01*
X142672380Y-93589285D01*
X142624761Y-93684523D01*
X142577142Y-93732142D01*
X195891427Y-98091904D02*
X195939046Y-97949047D01*
X195939046Y-97710952D01*
X195891427Y-97615714D01*
X195843808Y-97568095D01*
X195748570Y-97520476D01*
X195653332Y-97520476D01*
X195558094Y-97568095D01*
X195510475Y-97615714D01*
X195462856Y-97710952D01*
X195415237Y-97901428D01*
X195367618Y-97996666D01*
X195319999Y-98044285D01*
X195224761Y-98091904D01*
X195129523Y-98091904D01*
X195034285Y-98044285D01*
X194986666Y-97996666D01*
X194939046Y-97901428D01*
X194939046Y-97663333D01*
X194986666Y-97520476D01*
X195034285Y-97139523D02*
X194986666Y-97091904D01*
X194939046Y-96996666D01*
X194939046Y-96758571D01*
X194986666Y-96663333D01*
X195034285Y-96615714D01*
X195129523Y-96568095D01*
X195224761Y-96568095D01*
X195367618Y-96615714D01*
X195939046Y-97187142D01*
X195939046Y-96568095D01*
X188110761Y-98043904D02*
X188158380Y-97901047D01*
X188158380Y-97662952D01*
X188110761Y-97567714D01*
X188063142Y-97520095D01*
X187967904Y-97472476D01*
X187872666Y-97472476D01*
X187777428Y-97520095D01*
X187729809Y-97567714D01*
X187682190Y-97662952D01*
X187634571Y-97853428D01*
X187586952Y-97948666D01*
X187539333Y-97996285D01*
X187444095Y-98043904D01*
X187348857Y-98043904D01*
X187253619Y-97996285D01*
X187206000Y-97948666D01*
X187158380Y-97853428D01*
X187158380Y-97615333D01*
X187206000Y-97472476D01*
X188158380Y-96520095D02*
X188158380Y-97091523D01*
X188158380Y-96805809D02*
X187158380Y-96805809D01*
X187301238Y-96901047D01*
X187396476Y-96996285D01*
X187444095Y-97091523D01*
X148727142Y-89582380D02*
X148393809Y-89106190D01*
X148155714Y-89582380D02*
X148155714Y-88582380D01*
X148536666Y-88582380D01*
X148631904Y-88630000D01*
X148679523Y-88677619D01*
X148727142Y-88772857D01*
X148727142Y-88915714D01*
X148679523Y-89010952D01*
X148631904Y-89058571D01*
X148536666Y-89106190D01*
X148155714Y-89106190D01*
X149679523Y-89582380D02*
X149108095Y-89582380D01*
X149393809Y-89582380D02*
X149393809Y-88582380D01*
X149298571Y-88725238D01*
X149203333Y-88820476D01*
X149108095Y-88868095D01*
X150584285Y-88582380D02*
X150108095Y-88582380D01*
X150060476Y-89058571D01*
X150108095Y-89010952D01*
X150203333Y-88963333D01*
X150441428Y-88963333D01*
X150536666Y-89010952D01*
X150584285Y-89058571D01*
X150631904Y-89153809D01*
X150631904Y-89391904D01*
X150584285Y-89487142D01*
X150536666Y-89534761D01*
X150441428Y-89582380D01*
X150203333Y-89582380D01*
X150108095Y-89534761D01*
X150060476Y-89487142D01*
X149590904Y-87362380D02*
X149590904Y-86362380D01*
X149829000Y-86362380D01*
X149971857Y-86410000D01*
X150067095Y-86505238D01*
X150114714Y-86600476D01*
X150162333Y-86790952D01*
X150162333Y-86933809D01*
X150114714Y-87124285D01*
X150067095Y-87219523D01*
X149971857Y-87314761D01*
X149829000Y-87362380D01*
X149590904Y-87362380D01*
X151114714Y-87362380D02*
X150543285Y-87362380D01*
X150829000Y-87362380D02*
X150829000Y-86362380D01*
X150733761Y-86505238D01*
X150638523Y-86600476D01*
X150543285Y-86648095D01*
X201462380Y-96432857D02*
X200986190Y-96766190D01*
X201462380Y-97004285D02*
X200462380Y-97004285D01*
X200462380Y-96623333D01*
X200510000Y-96528095D01*
X200557619Y-96480476D01*
X200652857Y-96432857D01*
X200795714Y-96432857D01*
X200890952Y-96480476D01*
X200938571Y-96528095D01*
X200986190Y-96623333D01*
X200986190Y-97004285D01*
X201462380Y-95480476D02*
X201462380Y-96051904D01*
X201462380Y-95766190D02*
X200462380Y-95766190D01*
X200605238Y-95861428D01*
X200700476Y-95956666D01*
X200748095Y-96051904D01*
X200795714Y-94623333D02*
X201462380Y-94623333D01*
X200414761Y-94861428D02*
X201129047Y-95099523D01*
X201129047Y-94480476D01*
X201367142Y-99532857D02*
X201414761Y-99580476D01*
X201462380Y-99723333D01*
X201462380Y-99818571D01*
X201414761Y-99961428D01*
X201319523Y-100056666D01*
X201224285Y-100104285D01*
X201033809Y-100151904D01*
X200890952Y-100151904D01*
X200700476Y-100104285D01*
X200605238Y-100056666D01*
X200510000Y-99961428D01*
X200462380Y-99818571D01*
X200462380Y-99723333D01*
X200510000Y-99580476D01*
X200557619Y-99532857D01*
X200557619Y-99151904D02*
X200510000Y-99104285D01*
X200462380Y-99009047D01*
X200462380Y-98770952D01*
X200510000Y-98675714D01*
X200557619Y-98628095D01*
X200652857Y-98580476D01*
X200748095Y-98580476D01*
X200890952Y-98628095D01*
X201462380Y-99199523D01*
X201462380Y-98580476D01*
X200462380Y-97961428D02*
X200462380Y-97866190D01*
X200510000Y-97770952D01*
X200557619Y-97723333D01*
X200652857Y-97675714D01*
X200843333Y-97628095D01*
X201081428Y-97628095D01*
X201271904Y-97675714D01*
X201367142Y-97723333D01*
X201414761Y-97770952D01*
X201462380Y-97866190D01*
X201462380Y-97961428D01*
X201414761Y-98056666D01*
X201367142Y-98104285D01*
X201271904Y-98151904D01*
X201081428Y-98199523D01*
X200843333Y-98199523D01*
X200652857Y-98151904D01*
X200557619Y-98104285D01*
X200510000Y-98056666D01*
X200462380Y-97961428D01*
X122433333Y-96597142D02*
X122385714Y-96644761D01*
X122242857Y-96692380D01*
X122147619Y-96692380D01*
X122004761Y-96644761D01*
X121909523Y-96549523D01*
X121861904Y-96454285D01*
X121814285Y-96263809D01*
X121814285Y-96120952D01*
X121861904Y-95930476D01*
X121909523Y-95835238D01*
X122004761Y-95740000D01*
X122147619Y-95692380D01*
X122242857Y-95692380D01*
X122385714Y-95740000D01*
X122433333Y-95787619D01*
X122909523Y-96692380D02*
X123100000Y-96692380D01*
X123195238Y-96644761D01*
X123242857Y-96597142D01*
X123338095Y-96454285D01*
X123385714Y-96263809D01*
X123385714Y-95882857D01*
X123338095Y-95787619D01*
X123290476Y-95740000D01*
X123195238Y-95692380D01*
X123004761Y-95692380D01*
X122909523Y-95740000D01*
X122861904Y-95787619D01*
X122814285Y-95882857D01*
X122814285Y-96120952D01*
X122861904Y-96216190D01*
X122909523Y-96263809D01*
X123004761Y-96311428D01*
X123195238Y-96311428D01*
X123290476Y-96263809D01*
X123338095Y-96216190D01*
X123385714Y-96120952D01*
X172387142Y-96842380D02*
X172053809Y-96366190D01*
X171815714Y-96842380D02*
X171815714Y-95842380D01*
X172196666Y-95842380D01*
X172291904Y-95890000D01*
X172339523Y-95937619D01*
X172387142Y-96032857D01*
X172387142Y-96175714D01*
X172339523Y-96270952D01*
X172291904Y-96318571D01*
X172196666Y-96366190D01*
X171815714Y-96366190D01*
X173339523Y-96842380D02*
X172768095Y-96842380D01*
X173053809Y-96842380D02*
X173053809Y-95842380D01*
X172958571Y-95985238D01*
X172863333Y-96080476D01*
X172768095Y-96128095D01*
X173720476Y-95937619D02*
X173768095Y-95890000D01*
X173863333Y-95842380D01*
X174101428Y-95842380D01*
X174196666Y-95890000D01*
X174244285Y-95937619D01*
X174291904Y-96032857D01*
X174291904Y-96128095D01*
X174244285Y-96270952D01*
X173672857Y-96842380D01*
X174291904Y-96842380D01*
X113988095Y-95032380D02*
X113988095Y-95841904D01*
X114035714Y-95937142D01*
X114083333Y-95984761D01*
X114178571Y-96032380D01*
X114369047Y-96032380D01*
X114464285Y-95984761D01*
X114511904Y-95937142D01*
X114559523Y-95841904D01*
X114559523Y-95032380D01*
X115083333Y-96032380D02*
X115273809Y-96032380D01*
X115369047Y-95984761D01*
X115416666Y-95937142D01*
X115511904Y-95794285D01*
X115559523Y-95603809D01*
X115559523Y-95222857D01*
X115511904Y-95127619D01*
X115464285Y-95080000D01*
X115369047Y-95032380D01*
X115178571Y-95032380D01*
X115083333Y-95080000D01*
X115035714Y-95127619D01*
X114988095Y-95222857D01*
X114988095Y-95460952D01*
X115035714Y-95556190D01*
X115083333Y-95603809D01*
X115178571Y-95651428D01*
X115369047Y-95651428D01*
X115464285Y-95603809D01*
X115511904Y-95556190D01*
X115559523Y-95460952D01*
X114752190Y-106401190D02*
X115228380Y-106401190D01*
X114228380Y-106734523D02*
X114752190Y-106401190D01*
X114228380Y-106067857D01*
X115228380Y-105210714D02*
X115228380Y-105782142D01*
X115228380Y-105496428D02*
X114228380Y-105496428D01*
X114371238Y-105591666D01*
X114466476Y-105686904D01*
X114514095Y-105782142D01*
X156514666Y-86364380D02*
X156514666Y-87078666D01*
X156467047Y-87221523D01*
X156371809Y-87316761D01*
X156228952Y-87364380D01*
X156133714Y-87364380D01*
X156895619Y-86364380D02*
X157514666Y-86364380D01*
X157181333Y-86745333D01*
X157324190Y-86745333D01*
X157419428Y-86792952D01*
X157467047Y-86840571D01*
X157514666Y-86935809D01*
X157514666Y-87173904D01*
X157467047Y-87269142D01*
X157419428Y-87316761D01*
X157324190Y-87364380D01*
X157038476Y-87364380D01*
X156943238Y-87316761D01*
X156895619Y-87269142D01*
X131087142Y-94072380D02*
X130753809Y-93596190D01*
X130515714Y-94072380D02*
X130515714Y-93072380D01*
X130896666Y-93072380D01*
X130991904Y-93120000D01*
X131039523Y-93167619D01*
X131087142Y-93262857D01*
X131087142Y-93405714D01*
X131039523Y-93500952D01*
X130991904Y-93548571D01*
X130896666Y-93596190D01*
X130515714Y-93596190D01*
X132039523Y-94072380D02*
X131468095Y-94072380D01*
X131753809Y-94072380D02*
X131753809Y-93072380D01*
X131658571Y-93215238D01*
X131563333Y-93310476D01*
X131468095Y-93358095D01*
X132991904Y-94072380D02*
X132420476Y-94072380D01*
X132706190Y-94072380D02*
X132706190Y-93072380D01*
X132610952Y-93215238D01*
X132515714Y-93310476D01*
X132420476Y-93358095D01*
X119701428Y-99151428D02*
X119658571Y-99194285D01*
X119530000Y-99237142D01*
X119444285Y-99237142D01*
X119315714Y-99194285D01*
X119230000Y-99108571D01*
X119187142Y-99022857D01*
X119144285Y-98851428D01*
X119144285Y-98722857D01*
X119187142Y-98551428D01*
X119230000Y-98465714D01*
X119315714Y-98380000D01*
X119444285Y-98337142D01*
X119530000Y-98337142D01*
X119658571Y-98380000D01*
X119701428Y-98422857D01*
X120558571Y-99237142D02*
X120044285Y-99237142D01*
X120301428Y-99237142D02*
X120301428Y-98337142D01*
X120215714Y-98465714D01*
X120130000Y-98551428D01*
X120044285Y-98594285D01*
X120858571Y-98337142D02*
X121415714Y-98337142D01*
X121115714Y-98680000D01*
X121244285Y-98680000D01*
X121330000Y-98722857D01*
X121372857Y-98765714D01*
X121415714Y-98851428D01*
X121415714Y-99065714D01*
X121372857Y-99151428D01*
X121330000Y-99194285D01*
X121244285Y-99237142D01*
X120987142Y-99237142D01*
X120901428Y-99194285D01*
X120858571Y-99151428D01*
X118986666Y-102798571D02*
X118653333Y-102798571D01*
X118653333Y-103322380D02*
X118653333Y-102322380D01*
X119129523Y-102322380D01*
X119843809Y-102798571D02*
X119986666Y-102846190D01*
X120034285Y-102893809D01*
X120081904Y-102989047D01*
X120081904Y-103131904D01*
X120034285Y-103227142D01*
X119986666Y-103274761D01*
X119891428Y-103322380D01*
X119510476Y-103322380D01*
X119510476Y-102322380D01*
X119843809Y-102322380D01*
X119939047Y-102370000D01*
X119986666Y-102417619D01*
X120034285Y-102512857D01*
X120034285Y-102608095D01*
X119986666Y-102703333D01*
X119939047Y-102750952D01*
X119843809Y-102798571D01*
X119510476Y-102798571D01*
X121034285Y-103322380D02*
X120462857Y-103322380D01*
X120748571Y-103322380D02*
X120748571Y-102322380D01*
X120653333Y-102465238D01*
X120558095Y-102560476D01*
X120462857Y-102608095D01*
X146122380Y-91222857D02*
X145646190Y-91556190D01*
X146122380Y-91794285D02*
X145122380Y-91794285D01*
X145122380Y-91413333D01*
X145170000Y-91318095D01*
X145217619Y-91270476D01*
X145312857Y-91222857D01*
X145455714Y-91222857D01*
X145550952Y-91270476D01*
X145598571Y-91318095D01*
X145646190Y-91413333D01*
X145646190Y-91794285D01*
X146122380Y-90270476D02*
X146122380Y-90841904D01*
X146122380Y-90556190D02*
X145122380Y-90556190D01*
X145265238Y-90651428D01*
X145360476Y-90746666D01*
X145408095Y-90841904D01*
X145122380Y-89651428D02*
X145122380Y-89556190D01*
X145170000Y-89460952D01*
X145217619Y-89413333D01*
X145312857Y-89365714D01*
X145503333Y-89318095D01*
X145741428Y-89318095D01*
X145931904Y-89365714D01*
X146027142Y-89413333D01*
X146074761Y-89460952D01*
X146122380Y-89556190D01*
X146122380Y-89651428D01*
X146074761Y-89746666D01*
X146027142Y-89794285D01*
X145931904Y-89841904D01*
X145741428Y-89889523D01*
X145503333Y-89889523D01*
X145312857Y-89841904D01*
X145217619Y-89794285D01*
X145170000Y-89746666D01*
X145122380Y-89651428D01*
X126244095Y-102334380D02*
X126244095Y-103143904D01*
X126291714Y-103239142D01*
X126339333Y-103286761D01*
X126434571Y-103334380D01*
X126625047Y-103334380D01*
X126720285Y-103286761D01*
X126767904Y-103239142D01*
X126815523Y-103143904D01*
X126815523Y-102334380D01*
X127720285Y-102667714D02*
X127720285Y-103334380D01*
X127482190Y-102286761D02*
X127244095Y-103001047D01*
X127863142Y-103001047D01*
X182752380Y-95976666D02*
X182276190Y-96310000D01*
X182752380Y-96548095D02*
X181752380Y-96548095D01*
X181752380Y-96167142D01*
X181800000Y-96071904D01*
X181847619Y-96024285D01*
X181942857Y-95976666D01*
X182085714Y-95976666D01*
X182180952Y-96024285D01*
X182228571Y-96071904D01*
X182276190Y-96167142D01*
X182276190Y-96548095D01*
X181752380Y-95643333D02*
X181752380Y-95024285D01*
X182133333Y-95357619D01*
X182133333Y-95214761D01*
X182180952Y-95119523D01*
X182228571Y-95071904D01*
X182323809Y-95024285D01*
X182561904Y-95024285D01*
X182657142Y-95071904D01*
X182704761Y-95119523D01*
X182752380Y-95214761D01*
X182752380Y-95500476D01*
X182704761Y-95595714D01*
X182657142Y-95643333D01*
X113608952Y-102596380D02*
X113275619Y-102120190D01*
X113037523Y-102596380D02*
X113037523Y-101596380D01*
X113418476Y-101596380D01*
X113513714Y-101644000D01*
X113561333Y-101691619D01*
X113608952Y-101786857D01*
X113608952Y-101929714D01*
X113561333Y-102024952D01*
X113513714Y-102072571D01*
X113418476Y-102120190D01*
X113037523Y-102120190D01*
X114561333Y-102596380D02*
X113989904Y-102596380D01*
X114275619Y-102596380D02*
X114275619Y-101596380D01*
X114180380Y-101739238D01*
X114085142Y-101834476D01*
X113989904Y-101882095D01*
X114894666Y-101596380D02*
X115513714Y-101596380D01*
X115180380Y-101977333D01*
X115323238Y-101977333D01*
X115418476Y-102024952D01*
X115466095Y-102072571D01*
X115513714Y-102167809D01*
X115513714Y-102405904D01*
X115466095Y-102501142D01*
X115418476Y-102548761D01*
X115323238Y-102596380D01*
X115037523Y-102596380D01*
X114942285Y-102548761D01*
X114894666Y-102501142D01*
X115847047Y-101596380D02*
X116466095Y-101596380D01*
X116132761Y-101977333D01*
X116275619Y-101977333D01*
X116370857Y-102024952D01*
X116418476Y-102072571D01*
X116466095Y-102167809D01*
X116466095Y-102405904D01*
X116418476Y-102501142D01*
X116370857Y-102548761D01*
X116275619Y-102596380D01*
X115989904Y-102596380D01*
X115894666Y-102548761D01*
X115847047Y-102501142D01*
X167617142Y-88322857D02*
X167664761Y-88370476D01*
X167712380Y-88513333D01*
X167712380Y-88608571D01*
X167664761Y-88751428D01*
X167569523Y-88846666D01*
X167474285Y-88894285D01*
X167283809Y-88941904D01*
X167140952Y-88941904D01*
X166950476Y-88894285D01*
X166855238Y-88846666D01*
X166760000Y-88751428D01*
X166712380Y-88608571D01*
X166712380Y-88513333D01*
X166760000Y-88370476D01*
X166807619Y-88322857D01*
X167712380Y-87370476D02*
X167712380Y-87941904D01*
X167712380Y-87656190D02*
X166712380Y-87656190D01*
X166855238Y-87751428D01*
X166950476Y-87846666D01*
X166998095Y-87941904D01*
X166712380Y-87037142D02*
X166712380Y-86370476D01*
X167712380Y-86799047D01*
X133977142Y-107545142D02*
X133929523Y-107592761D01*
X133786666Y-107640380D01*
X133691428Y-107640380D01*
X133548571Y-107592761D01*
X133453333Y-107497523D01*
X133405714Y-107402285D01*
X133358095Y-107211809D01*
X133358095Y-107068952D01*
X133405714Y-106878476D01*
X133453333Y-106783238D01*
X133548571Y-106688000D01*
X133691428Y-106640380D01*
X133786666Y-106640380D01*
X133929523Y-106688000D01*
X133977142Y-106735619D01*
X134929523Y-107640380D02*
X134358095Y-107640380D01*
X134643809Y-107640380D02*
X134643809Y-106640380D01*
X134548571Y-106783238D01*
X134453333Y-106878476D01*
X134358095Y-106926095D01*
X135834285Y-106640380D02*
X135358095Y-106640380D01*
X135310476Y-107116571D01*
X135358095Y-107068952D01*
X135453333Y-107021333D01*
X135691428Y-107021333D01*
X135786666Y-107068952D01*
X135834285Y-107116571D01*
X135881904Y-107211809D01*
X135881904Y-107449904D01*
X135834285Y-107545142D01*
X135786666Y-107592761D01*
X135691428Y-107640380D01*
X135453333Y-107640380D01*
X135358095Y-107592761D01*
X135310476Y-107545142D01*
X120457142Y-107545142D02*
X120409523Y-107592761D01*
X120266666Y-107640380D01*
X120171428Y-107640380D01*
X120028571Y-107592761D01*
X119933333Y-107497523D01*
X119885714Y-107402285D01*
X119838095Y-107211809D01*
X119838095Y-107068952D01*
X119885714Y-106878476D01*
X119933333Y-106783238D01*
X120028571Y-106688000D01*
X120171428Y-106640380D01*
X120266666Y-106640380D01*
X120409523Y-106688000D01*
X120457142Y-106735619D01*
X121409523Y-107640380D02*
X120838095Y-107640380D01*
X121123809Y-107640380D02*
X121123809Y-106640380D01*
X121028571Y-106783238D01*
X120933333Y-106878476D01*
X120838095Y-106926095D01*
X122028571Y-106640380D02*
X122123809Y-106640380D01*
X122219047Y-106688000D01*
X122266666Y-106735619D01*
X122314285Y-106830857D01*
X122361904Y-107021333D01*
X122361904Y-107259428D01*
X122314285Y-107449904D01*
X122266666Y-107545142D01*
X122219047Y-107592761D01*
X122123809Y-107640380D01*
X122028571Y-107640380D01*
X121933333Y-107592761D01*
X121885714Y-107545142D01*
X121838095Y-107449904D01*
X121790476Y-107259428D01*
X121790476Y-107021333D01*
X121838095Y-106830857D01*
X121885714Y-106735619D01*
X121933333Y-106688000D01*
X122028571Y-106640380D01*
X111657142Y-93376666D02*
X111704761Y-93424285D01*
X111752380Y-93567142D01*
X111752380Y-93662380D01*
X111704761Y-93805238D01*
X111609523Y-93900476D01*
X111514285Y-93948095D01*
X111323809Y-93995714D01*
X111180952Y-93995714D01*
X110990476Y-93948095D01*
X110895238Y-93900476D01*
X110800000Y-93805238D01*
X110752380Y-93662380D01*
X110752380Y-93567142D01*
X110800000Y-93424285D01*
X110847619Y-93376666D01*
X111180952Y-92805238D02*
X111133333Y-92900476D01*
X111085714Y-92948095D01*
X110990476Y-92995714D01*
X110942857Y-92995714D01*
X110847619Y-92948095D01*
X110800000Y-92900476D01*
X110752380Y-92805238D01*
X110752380Y-92614761D01*
X110800000Y-92519523D01*
X110847619Y-92471904D01*
X110942857Y-92424285D01*
X110990476Y-92424285D01*
X111085714Y-92471904D01*
X111133333Y-92519523D01*
X111180952Y-92614761D01*
X111180952Y-92805238D01*
X111228571Y-92900476D01*
X111276190Y-92948095D01*
X111371428Y-92995714D01*
X111561904Y-92995714D01*
X111657142Y-92948095D01*
X111704761Y-92900476D01*
X111752380Y-92805238D01*
X111752380Y-92614761D01*
X111704761Y-92519523D01*
X111657142Y-92471904D01*
X111561904Y-92424285D01*
X111371428Y-92424285D01*
X111276190Y-92471904D01*
X111228571Y-92519523D01*
X111180952Y-92614761D01*
X172447142Y-88356666D02*
X172494761Y-88404285D01*
X172542380Y-88547142D01*
X172542380Y-88642380D01*
X172494761Y-88785238D01*
X172399523Y-88880476D01*
X172304285Y-88928095D01*
X172113809Y-88975714D01*
X171970952Y-88975714D01*
X171780476Y-88928095D01*
X171685238Y-88880476D01*
X171590000Y-88785238D01*
X171542380Y-88642380D01*
X171542380Y-88547142D01*
X171590000Y-88404285D01*
X171637619Y-88356666D01*
X171542380Y-88023333D02*
X171542380Y-87356666D01*
X172542380Y-87785238D01*
X174017142Y-88356666D02*
X174064761Y-88404285D01*
X174112380Y-88547142D01*
X174112380Y-88642380D01*
X174064761Y-88785238D01*
X173969523Y-88880476D01*
X173874285Y-88928095D01*
X173683809Y-88975714D01*
X173540952Y-88975714D01*
X173350476Y-88928095D01*
X173255238Y-88880476D01*
X173160000Y-88785238D01*
X173112380Y-88642380D01*
X173112380Y-88547142D01*
X173160000Y-88404285D01*
X173207619Y-88356666D01*
X173112380Y-87499523D02*
X173112380Y-87690000D01*
X173160000Y-87785238D01*
X173207619Y-87832857D01*
X173350476Y-87928095D01*
X173540952Y-87975714D01*
X173921904Y-87975714D01*
X174017142Y-87928095D01*
X174064761Y-87880476D01*
X174112380Y-87785238D01*
X174112380Y-87594761D01*
X174064761Y-87499523D01*
X174017142Y-87451904D01*
X173921904Y-87404285D01*
X173683809Y-87404285D01*
X173588571Y-87451904D01*
X173540952Y-87499523D01*
X173493333Y-87594761D01*
X173493333Y-87785238D01*
X173540952Y-87880476D01*
X173588571Y-87928095D01*
X173683809Y-87975714D01*
X118571142Y-93396666D02*
X118618761Y-93444285D01*
X118666380Y-93587142D01*
X118666380Y-93682380D01*
X118618761Y-93825238D01*
X118523523Y-93920476D01*
X118428285Y-93968095D01*
X118237809Y-94015714D01*
X118094952Y-94015714D01*
X117904476Y-93968095D01*
X117809238Y-93920476D01*
X117714000Y-93825238D01*
X117666380Y-93682380D01*
X117666380Y-93587142D01*
X117714000Y-93444285D01*
X117761619Y-93396666D01*
X117666380Y-92491904D02*
X117666380Y-92968095D01*
X118142571Y-93015714D01*
X118094952Y-92968095D01*
X118047333Y-92872857D01*
X118047333Y-92634761D01*
X118094952Y-92539523D01*
X118142571Y-92491904D01*
X118237809Y-92444285D01*
X118475904Y-92444285D01*
X118571142Y-92491904D01*
X118618761Y-92539523D01*
X118666380Y-92634761D01*
X118666380Y-92872857D01*
X118618761Y-92968095D01*
X118571142Y-93015714D01*
X116174333Y-110487142D02*
X116126714Y-110534761D01*
X115983857Y-110582380D01*
X115888619Y-110582380D01*
X115745761Y-110534761D01*
X115650523Y-110439523D01*
X115602904Y-110344285D01*
X115555285Y-110153809D01*
X115555285Y-110010952D01*
X115602904Y-109820476D01*
X115650523Y-109725238D01*
X115745761Y-109630000D01*
X115888619Y-109582380D01*
X115983857Y-109582380D01*
X116126714Y-109630000D01*
X116174333Y-109677619D01*
X117031476Y-109915714D02*
X117031476Y-110582380D01*
X116793380Y-109534761D02*
X116555285Y-110249047D01*
X117174333Y-110249047D01*
X169121142Y-84676666D02*
X169168761Y-84724285D01*
X169216380Y-84867142D01*
X169216380Y-84962380D01*
X169168761Y-85105238D01*
X169073523Y-85200476D01*
X168978285Y-85248095D01*
X168787809Y-85295714D01*
X168644952Y-85295714D01*
X168454476Y-85248095D01*
X168359238Y-85200476D01*
X168264000Y-85105238D01*
X168216380Y-84962380D01*
X168216380Y-84867142D01*
X168264000Y-84724285D01*
X168311619Y-84676666D01*
X168216380Y-84343333D02*
X168216380Y-83724285D01*
X168597333Y-84057619D01*
X168597333Y-83914761D01*
X168644952Y-83819523D01*
X168692571Y-83771904D01*
X168787809Y-83724285D01*
X169025904Y-83724285D01*
X169121142Y-83771904D01*
X169168761Y-83819523D01*
X169216380Y-83914761D01*
X169216380Y-84200476D01*
X169168761Y-84295714D01*
X169121142Y-84343333D01*
X112924333Y-110487142D02*
X112876714Y-110534761D01*
X112733857Y-110582380D01*
X112638619Y-110582380D01*
X112495761Y-110534761D01*
X112400523Y-110439523D01*
X112352904Y-110344285D01*
X112305285Y-110153809D01*
X112305285Y-110010952D01*
X112352904Y-109820476D01*
X112400523Y-109725238D01*
X112495761Y-109630000D01*
X112638619Y-109582380D01*
X112733857Y-109582380D01*
X112876714Y-109630000D01*
X112924333Y-109677619D01*
X113305285Y-109677619D02*
X113352904Y-109630000D01*
X113448142Y-109582380D01*
X113686238Y-109582380D01*
X113781476Y-109630000D01*
X113829095Y-109677619D01*
X113876714Y-109772857D01*
X113876714Y-109868095D01*
X113829095Y-110010952D01*
X113257666Y-110582380D01*
X113876714Y-110582380D01*
X170971142Y-84686666D02*
X171018761Y-84734285D01*
X171066380Y-84877142D01*
X171066380Y-84972380D01*
X171018761Y-85115238D01*
X170923523Y-85210476D01*
X170828285Y-85258095D01*
X170637809Y-85305714D01*
X170494952Y-85305714D01*
X170304476Y-85258095D01*
X170209238Y-85210476D01*
X170114000Y-85115238D01*
X170066380Y-84972380D01*
X170066380Y-84877142D01*
X170114000Y-84734285D01*
X170161619Y-84686666D01*
X171066380Y-83734285D02*
X171066380Y-84305714D01*
X171066380Y-84020000D02*
X170066380Y-84020000D01*
X170209238Y-84115238D01*
X170304476Y-84210476D01*
X170352095Y-84305714D01*
%LPC*%
D14*
X139192000Y-89408000D03*
X139192000Y-86868000D03*
X136652000Y-89408000D03*
X136652000Y-86868000D03*
X134112000Y-89408000D03*
X134112000Y-86868000D03*
X131572000Y-89408000D03*
X131572000Y-86868000D03*
X129032000Y-89408000D03*
D15*
X129032000Y-86868000D03*
G36*
G01*
X159335000Y-94905000D02*
X158785000Y-94905000D01*
G75*
G02*
X158585000Y-94705000I0J200000D01*
G01*
X158585000Y-94305000D01*
G75*
G02*
X158785000Y-94105000I200000J0D01*
G01*
X159335000Y-94105000D01*
G75*
G02*
X159535000Y-94305000I0J-200000D01*
G01*
X159535000Y-94705000D01*
G75*
G02*
X159335000Y-94905000I-200000J0D01*
G01*
G37*
G36*
G01*
X159335000Y-93255000D02*
X158785000Y-93255000D01*
G75*
G02*
X158585000Y-93055000I0J200000D01*
G01*
X158585000Y-92655000D01*
G75*
G02*
X158785000Y-92455000I200000J0D01*
G01*
X159335000Y-92455000D01*
G75*
G02*
X159535000Y-92655000I0J-200000D01*
G01*
X159535000Y-93055000D01*
G75*
G02*
X159335000Y-93255000I-200000J0D01*
G01*
G37*
G36*
G01*
X146555000Y-98935000D02*
X147055000Y-98935000D01*
G75*
G02*
X147280000Y-99160000I0J-225000D01*
G01*
X147280000Y-99610000D01*
G75*
G02*
X147055000Y-99835000I-225000J0D01*
G01*
X146555000Y-99835000D01*
G75*
G02*
X146330000Y-99610000I0J225000D01*
G01*
X146330000Y-99160000D01*
G75*
G02*
X146555000Y-98935000I225000J0D01*
G01*
G37*
G36*
G01*
X146555000Y-97385000D02*
X147055000Y-97385000D01*
G75*
G02*
X147280000Y-97610000I0J-225000D01*
G01*
X147280000Y-98060000D01*
G75*
G02*
X147055000Y-98285000I-225000J0D01*
G01*
X146555000Y-98285000D01*
G75*
G02*
X146330000Y-98060000I0J225000D01*
G01*
X146330000Y-97610000D01*
G75*
G02*
X146555000Y-97385000I225000J0D01*
G01*
G37*
G36*
G01*
X141395000Y-99720000D02*
X141395000Y-99220000D01*
G75*
G02*
X141620000Y-98995000I225000J0D01*
G01*
X142070000Y-98995000D01*
G75*
G02*
X142295000Y-99220000I0J-225000D01*
G01*
X142295000Y-99720000D01*
G75*
G02*
X142070000Y-99945000I-225000J0D01*
G01*
X141620000Y-99945000D01*
G75*
G02*
X141395000Y-99720000I0J225000D01*
G01*
G37*
G36*
G01*
X139845000Y-99720000D02*
X139845000Y-99220000D01*
G75*
G02*
X140070000Y-98995000I225000J0D01*
G01*
X140520000Y-98995000D01*
G75*
G02*
X140745000Y-99220000I0J-225000D01*
G01*
X140745000Y-99720000D01*
G75*
G02*
X140520000Y-99945000I-225000J0D01*
G01*
X140070000Y-99945000D01*
G75*
G02*
X139845000Y-99720000I0J225000D01*
G01*
G37*
G36*
G01*
X135585000Y-96060000D02*
X135585000Y-96560000D01*
G75*
G02*
X135360000Y-96785000I-225000J0D01*
G01*
X134910000Y-96785000D01*
G75*
G02*
X134685000Y-96560000I0J225000D01*
G01*
X134685000Y-96060000D01*
G75*
G02*
X134910000Y-95835000I225000J0D01*
G01*
X135360000Y-95835000D01*
G75*
G02*
X135585000Y-96060000I0J-225000D01*
G01*
G37*
G36*
G01*
X137135000Y-96060000D02*
X137135000Y-96560000D01*
G75*
G02*
X136910000Y-96785000I-225000J0D01*
G01*
X136460000Y-96785000D01*
G75*
G02*
X136235000Y-96560000I0J225000D01*
G01*
X136235000Y-96060000D01*
G75*
G02*
X136460000Y-95835000I225000J0D01*
G01*
X136910000Y-95835000D01*
G75*
G02*
X137135000Y-96060000I0J-225000D01*
G01*
G37*
D16*
X140250000Y-120720000D03*
X136630000Y-116820000D03*
X133060000Y-117470000D03*
X138950000Y-119420000D03*
X137740000Y-118120000D03*
X135400000Y-120070000D03*
X134270000Y-118770000D03*
X131850000Y-116170000D03*
X136400000Y-104820000D03*
G36*
G01*
X183470000Y-97665000D02*
X183970000Y-97665000D01*
G75*
G02*
X184195000Y-97890000I0J-225000D01*
G01*
X184195000Y-98340000D01*
G75*
G02*
X183970000Y-98565000I-225000J0D01*
G01*
X183470000Y-98565000D01*
G75*
G02*
X183245000Y-98340000I0J225000D01*
G01*
X183245000Y-97890000D01*
G75*
G02*
X183470000Y-97665000I225000J0D01*
G01*
G37*
G36*
G01*
X183470000Y-99215000D02*
X183970000Y-99215000D01*
G75*
G02*
X184195000Y-99440000I0J-225000D01*
G01*
X184195000Y-99890000D01*
G75*
G02*
X183970000Y-100115000I-225000J0D01*
G01*
X183470000Y-100115000D01*
G75*
G02*
X183245000Y-99890000I0J225000D01*
G01*
X183245000Y-99440000D01*
G75*
G02*
X183470000Y-99215000I225000J0D01*
G01*
G37*
D14*
X179380000Y-96450000D03*
X179380000Y-93910000D03*
X179380000Y-91370000D03*
D15*
X179380000Y-88830000D03*
G36*
G01*
X154845000Y-94905000D02*
X154295000Y-94905000D01*
G75*
G02*
X154095000Y-94705000I0J200000D01*
G01*
X154095000Y-94305000D01*
G75*
G02*
X154295000Y-94105000I200000J0D01*
G01*
X154845000Y-94105000D01*
G75*
G02*
X155045000Y-94305000I0J-200000D01*
G01*
X155045000Y-94705000D01*
G75*
G02*
X154845000Y-94905000I-200000J0D01*
G01*
G37*
G36*
G01*
X154845000Y-93255000D02*
X154295000Y-93255000D01*
G75*
G02*
X154095000Y-93055000I0J200000D01*
G01*
X154095000Y-92655000D01*
G75*
G02*
X154295000Y-92455000I200000J0D01*
G01*
X154845000Y-92455000D01*
G75*
G02*
X155045000Y-92655000I0J-200000D01*
G01*
X155045000Y-93055000D01*
G75*
G02*
X154845000Y-93255000I-200000J0D01*
G01*
G37*
G36*
G01*
X154048000Y-97785000D02*
X154048000Y-97235000D01*
G75*
G02*
X154248000Y-97035000I200000J0D01*
G01*
X154648000Y-97035000D01*
G75*
G02*
X154848000Y-97235000I0J-200000D01*
G01*
X154848000Y-97785000D01*
G75*
G02*
X154648000Y-97985000I-200000J0D01*
G01*
X154248000Y-97985000D01*
G75*
G02*
X154048000Y-97785000I0J200000D01*
G01*
G37*
G36*
G01*
X155698000Y-97785000D02*
X155698000Y-97235000D01*
G75*
G02*
X155898000Y-97035000I200000J0D01*
G01*
X156298000Y-97035000D01*
G75*
G02*
X156498000Y-97235000I0J-200000D01*
G01*
X156498000Y-97785000D01*
G75*
G02*
X156298000Y-97985000I-200000J0D01*
G01*
X155898000Y-97985000D01*
G75*
G02*
X155698000Y-97785000I0J200000D01*
G01*
G37*
G36*
G01*
X155823000Y-92455000D02*
X156373000Y-92455000D01*
G75*
G02*
X156573000Y-92655000I0J-200000D01*
G01*
X156573000Y-93055000D01*
G75*
G02*
X156373000Y-93255000I-200000J0D01*
G01*
X155823000Y-93255000D01*
G75*
G02*
X155623000Y-93055000I0J200000D01*
G01*
X155623000Y-92655000D01*
G75*
G02*
X155823000Y-92455000I200000J0D01*
G01*
G37*
G36*
G01*
X155823000Y-94105000D02*
X156373000Y-94105000D01*
G75*
G02*
X156573000Y-94305000I0J-200000D01*
G01*
X156573000Y-94705000D01*
G75*
G02*
X156373000Y-94905000I-200000J0D01*
G01*
X155823000Y-94905000D01*
G75*
G02*
X155623000Y-94705000I0J200000D01*
G01*
X155623000Y-94305000D01*
G75*
G02*
X155823000Y-94105000I200000J0D01*
G01*
G37*
G36*
G01*
X157323000Y-92455000D02*
X157873000Y-92455000D01*
G75*
G02*
X158073000Y-92655000I0J-200000D01*
G01*
X158073000Y-93055000D01*
G75*
G02*
X157873000Y-93255000I-200000J0D01*
G01*
X157323000Y-93255000D01*
G75*
G02*
X157123000Y-93055000I0J200000D01*
G01*
X157123000Y-92655000D01*
G75*
G02*
X157323000Y-92455000I200000J0D01*
G01*
G37*
G36*
G01*
X157323000Y-94105000D02*
X157873000Y-94105000D01*
G75*
G02*
X158073000Y-94305000I0J-200000D01*
G01*
X158073000Y-94705000D01*
G75*
G02*
X157873000Y-94905000I-200000J0D01*
G01*
X157323000Y-94905000D01*
G75*
G02*
X157123000Y-94705000I0J200000D01*
G01*
X157123000Y-94305000D01*
G75*
G02*
X157323000Y-94105000I200000J0D01*
G01*
G37*
D17*
X143150000Y-102387500D03*
X144100000Y-102387500D03*
X145050000Y-102387500D03*
X145050000Y-99767500D03*
X143150000Y-99767500D03*
G36*
G01*
X132740000Y-98210000D02*
X133240000Y-98210000D01*
G75*
G02*
X133465000Y-98435000I0J-225000D01*
G01*
X133465000Y-98885000D01*
G75*
G02*
X133240000Y-99110000I-225000J0D01*
G01*
X132740000Y-99110000D01*
G75*
G02*
X132515000Y-98885000I0J225000D01*
G01*
X132515000Y-98435000D01*
G75*
G02*
X132740000Y-98210000I225000J0D01*
G01*
G37*
G36*
G01*
X132740000Y-99760000D02*
X133240000Y-99760000D01*
G75*
G02*
X133465000Y-99985000I0J-225000D01*
G01*
X133465000Y-100435000D01*
G75*
G02*
X133240000Y-100660000I-225000J0D01*
G01*
X132740000Y-100660000D01*
G75*
G02*
X132515000Y-100435000I0J225000D01*
G01*
X132515000Y-99985000D01*
G75*
G02*
X132740000Y-99760000I225000J0D01*
G01*
G37*
G36*
G01*
X148927750Y-103099500D02*
X148332250Y-103099500D01*
G75*
G02*
X148233000Y-103000250I0J99250D01*
G01*
X148233000Y-101694750D01*
G75*
G02*
X148332250Y-101595500I99250J0D01*
G01*
X148927750Y-101595500D01*
G75*
G02*
X149027000Y-101694750I0J-99250D01*
G01*
X149027000Y-103000250D01*
G75*
G02*
X148927750Y-103099500I-99250J0D01*
G01*
G37*
G36*
G01*
X150827750Y-103099500D02*
X150232250Y-103099500D01*
G75*
G02*
X150133000Y-103000250I0J99250D01*
G01*
X150133000Y-101694750D01*
G75*
G02*
X150232250Y-101595500I99250J0D01*
G01*
X150827750Y-101595500D01*
G75*
G02*
X150927000Y-101694750I0J-99250D01*
G01*
X150927000Y-103000250D01*
G75*
G02*
X150827750Y-103099500I-99250J0D01*
G01*
G37*
G36*
G01*
X149877750Y-101049500D02*
X149282250Y-101049500D01*
G75*
G02*
X149183000Y-100950250I0J99250D01*
G01*
X149183000Y-99644750D01*
G75*
G02*
X149282250Y-99545500I99250J0D01*
G01*
X149877750Y-99545500D01*
G75*
G02*
X149977000Y-99644750I0J-99250D01*
G01*
X149977000Y-100950250D01*
G75*
G02*
X149877750Y-101049500I-99250J0D01*
G01*
G37*
D18*
X170620000Y-91440000D03*
X168720000Y-91440000D03*
X168720000Y-89240000D03*
X169670000Y-89240000D03*
X170620000Y-89240000D03*
G36*
G01*
X135436500Y-99757000D02*
X134833500Y-99757000D01*
G75*
G02*
X134733000Y-99656500I0J100500D01*
G01*
X134733000Y-97753500D01*
G75*
G02*
X134833500Y-97653000I100500J0D01*
G01*
X135436500Y-97653000D01*
G75*
G02*
X135537000Y-97753500I0J-100500D01*
G01*
X135537000Y-99656500D01*
G75*
G02*
X135436500Y-99757000I-100500J0D01*
G01*
G37*
G36*
G01*
X136706500Y-99757000D02*
X136103500Y-99757000D01*
G75*
G02*
X136003000Y-99656500I0J100500D01*
G01*
X136003000Y-97753500D01*
G75*
G02*
X136103500Y-97653000I100500J0D01*
G01*
X136706500Y-97653000D01*
G75*
G02*
X136807000Y-97753500I0J-100500D01*
G01*
X136807000Y-99656500D01*
G75*
G02*
X136706500Y-99757000I-100500J0D01*
G01*
G37*
G36*
G01*
X137976500Y-99757000D02*
X137373500Y-99757000D01*
G75*
G02*
X137273000Y-99656500I0J100500D01*
G01*
X137273000Y-97753500D01*
G75*
G02*
X137373500Y-97653000I100500J0D01*
G01*
X137976500Y-97653000D01*
G75*
G02*
X138077000Y-97753500I0J-100500D01*
G01*
X138077000Y-99656500D01*
G75*
G02*
X137976500Y-99757000I-100500J0D01*
G01*
G37*
G36*
G01*
X139246500Y-99757000D02*
X138643500Y-99757000D01*
G75*
G02*
X138543000Y-99656500I0J100500D01*
G01*
X138543000Y-97753500D01*
G75*
G02*
X138643500Y-97653000I100500J0D01*
G01*
X139246500Y-97653000D01*
G75*
G02*
X139347000Y-97753500I0J-100500D01*
G01*
X139347000Y-99656500D01*
G75*
G02*
X139246500Y-99757000I-100500J0D01*
G01*
G37*
G36*
G01*
X139246500Y-104667000D02*
X138643500Y-104667000D01*
G75*
G02*
X138543000Y-104566500I0J100500D01*
G01*
X138543000Y-102663500D01*
G75*
G02*
X138643500Y-102563000I100500J0D01*
G01*
X139246500Y-102563000D01*
G75*
G02*
X139347000Y-102663500I0J-100500D01*
G01*
X139347000Y-104566500D01*
G75*
G02*
X139246500Y-104667000I-100500J0D01*
G01*
G37*
G36*
G01*
X137976500Y-104667000D02*
X137373500Y-104667000D01*
G75*
G02*
X137273000Y-104566500I0J100500D01*
G01*
X137273000Y-102663500D01*
G75*
G02*
X137373500Y-102563000I100500J0D01*
G01*
X137976500Y-102563000D01*
G75*
G02*
X138077000Y-102663500I0J-100500D01*
G01*
X138077000Y-104566500D01*
G75*
G02*
X137976500Y-104667000I-100500J0D01*
G01*
G37*
G36*
G01*
X136706500Y-104667000D02*
X136103500Y-104667000D01*
G75*
G02*
X136003000Y-104566500I0J100500D01*
G01*
X136003000Y-102663500D01*
G75*
G02*
X136103500Y-102563000I100500J0D01*
G01*
X136706500Y-102563000D01*
G75*
G02*
X136807000Y-102663500I0J-100500D01*
G01*
X136807000Y-104566500D01*
G75*
G02*
X136706500Y-104667000I-100500J0D01*
G01*
G37*
G36*
G01*
X135436500Y-104667000D02*
X134833500Y-104667000D01*
G75*
G02*
X134733000Y-104566500I0J100500D01*
G01*
X134733000Y-102663500D01*
G75*
G02*
X134833500Y-102563000I100500J0D01*
G01*
X135436500Y-102563000D01*
G75*
G02*
X135537000Y-102663500I0J-100500D01*
G01*
X135537000Y-104566500D01*
G75*
G02*
X135436500Y-104667000I-100500J0D01*
G01*
G37*
G36*
G01*
X130981000Y-109241000D02*
X130981000Y-108691000D01*
G75*
G02*
X131181000Y-108491000I200000J0D01*
G01*
X131581000Y-108491000D01*
G75*
G02*
X131781000Y-108691000I0J-200000D01*
G01*
X131781000Y-109241000D01*
G75*
G02*
X131581000Y-109441000I-200000J0D01*
G01*
X131181000Y-109441000D01*
G75*
G02*
X130981000Y-109241000I0J200000D01*
G01*
G37*
G36*
G01*
X129331000Y-109241000D02*
X129331000Y-108691000D01*
G75*
G02*
X129531000Y-108491000I200000J0D01*
G01*
X129931000Y-108491000D01*
G75*
G02*
X130131000Y-108691000I0J-200000D01*
G01*
X130131000Y-109241000D01*
G75*
G02*
X129931000Y-109441000I-200000J0D01*
G01*
X129531000Y-109441000D01*
G75*
G02*
X129331000Y-109241000I0J200000D01*
G01*
G37*
G36*
G01*
X125981000Y-96685000D02*
X126531000Y-96685000D01*
G75*
G02*
X126731000Y-96885000I0J-200000D01*
G01*
X126731000Y-97285000D01*
G75*
G02*
X126531000Y-97485000I-200000J0D01*
G01*
X125981000Y-97485000D01*
G75*
G02*
X125781000Y-97285000I0J200000D01*
G01*
X125781000Y-96885000D01*
G75*
G02*
X125981000Y-96685000I200000J0D01*
G01*
G37*
G36*
G01*
X125981000Y-95035000D02*
X126531000Y-95035000D01*
G75*
G02*
X126731000Y-95235000I0J-200000D01*
G01*
X126731000Y-95635000D01*
G75*
G02*
X126531000Y-95835000I-200000J0D01*
G01*
X125981000Y-95835000D01*
G75*
G02*
X125781000Y-95635000I0J200000D01*
G01*
X125781000Y-95235000D01*
G75*
G02*
X125981000Y-95035000I200000J0D01*
G01*
G37*
D19*
G36*
X141819398Y-102247500D02*
G01*
X141819398Y-102272034D01*
X141814588Y-102320865D01*
X141805016Y-102368990D01*
X141790772Y-102415945D01*
X141771995Y-102461278D01*
X141748864Y-102504551D01*
X141721604Y-102545350D01*
X141690476Y-102583279D01*
X141655779Y-102617976D01*
X141617850Y-102649104D01*
X141577051Y-102676364D01*
X141533778Y-102699495D01*
X141488445Y-102718272D01*
X141441490Y-102732516D01*
X141393365Y-102742088D01*
X141344534Y-102746898D01*
X141320000Y-102746898D01*
X141320000Y-102747500D01*
X140820000Y-102747500D01*
X140820000Y-102746898D01*
X140795466Y-102746898D01*
X140746635Y-102742088D01*
X140698510Y-102732516D01*
X140651555Y-102718272D01*
X140606222Y-102699495D01*
X140562949Y-102676364D01*
X140522150Y-102649104D01*
X140484221Y-102617976D01*
X140449524Y-102583279D01*
X140418396Y-102545350D01*
X140391136Y-102504551D01*
X140368005Y-102461278D01*
X140349228Y-102415945D01*
X140334984Y-102368990D01*
X140325412Y-102320865D01*
X140320602Y-102272034D01*
X140320602Y-102247500D01*
X140320000Y-102247500D01*
X140320000Y-101747500D01*
X141820000Y-101747500D01*
X141820000Y-102247500D01*
X141819398Y-102247500D01*
G37*
G36*
X140320000Y-101447500D02*
G01*
X140320000Y-100947500D01*
X140320602Y-100947500D01*
X140320602Y-100922966D01*
X140325412Y-100874135D01*
X140334984Y-100826010D01*
X140349228Y-100779055D01*
X140368005Y-100733722D01*
X140391136Y-100690449D01*
X140418396Y-100649650D01*
X140449524Y-100611721D01*
X140484221Y-100577024D01*
X140522150Y-100545896D01*
X140562949Y-100518636D01*
X140606222Y-100495505D01*
X140651555Y-100476728D01*
X140698510Y-100462484D01*
X140746635Y-100452912D01*
X140795466Y-100448102D01*
X140820000Y-100448102D01*
X140820000Y-100447500D01*
X141320000Y-100447500D01*
X141320000Y-100448102D01*
X141344534Y-100448102D01*
X141393365Y-100452912D01*
X141441490Y-100462484D01*
X141488445Y-100476728D01*
X141533778Y-100495505D01*
X141577051Y-100518636D01*
X141617850Y-100545896D01*
X141655779Y-100577024D01*
X141690476Y-100611721D01*
X141721604Y-100649650D01*
X141748864Y-100690449D01*
X141771995Y-100733722D01*
X141790772Y-100779055D01*
X141805016Y-100826010D01*
X141814588Y-100874135D01*
X141819398Y-100922966D01*
X141819398Y-100947500D01*
X141820000Y-100947500D01*
X141820000Y-101447500D01*
X140320000Y-101447500D01*
G37*
G36*
G01*
X174700000Y-94117500D02*
X174700000Y-93567500D01*
G75*
G02*
X174900000Y-93367500I200000J0D01*
G01*
X175300000Y-93367500D01*
G75*
G02*
X175500000Y-93567500I0J-200000D01*
G01*
X175500000Y-94117500D01*
G75*
G02*
X175300000Y-94317500I-200000J0D01*
G01*
X174900000Y-94317500D01*
G75*
G02*
X174700000Y-94117500I0J200000D01*
G01*
G37*
G36*
G01*
X176350000Y-94117500D02*
X176350000Y-93567500D01*
G75*
G02*
X176550000Y-93367500I200000J0D01*
G01*
X176950000Y-93367500D01*
G75*
G02*
X177150000Y-93567500I0J-200000D01*
G01*
X177150000Y-94117500D01*
G75*
G02*
X176950000Y-94317500I-200000J0D01*
G01*
X176550000Y-94317500D01*
G75*
G02*
X176350000Y-94117500I0J200000D01*
G01*
G37*
G36*
G01*
X147080000Y-101137500D02*
X146530000Y-101137500D01*
G75*
G02*
X146330000Y-100937500I0J200000D01*
G01*
X146330000Y-100537500D01*
G75*
G02*
X146530000Y-100337500I200000J0D01*
G01*
X147080000Y-100337500D01*
G75*
G02*
X147280000Y-100537500I0J-200000D01*
G01*
X147280000Y-100937500D01*
G75*
G02*
X147080000Y-101137500I-200000J0D01*
G01*
G37*
G36*
G01*
X147080000Y-102787500D02*
X146530000Y-102787500D01*
G75*
G02*
X146330000Y-102587500I0J200000D01*
G01*
X146330000Y-102187500D01*
G75*
G02*
X146530000Y-101987500I200000J0D01*
G01*
X147080000Y-101987500D01*
G75*
G02*
X147280000Y-102187500I0J-200000D01*
G01*
X147280000Y-102587500D01*
G75*
G02*
X147080000Y-102787500I-200000J0D01*
G01*
G37*
G36*
G01*
X143840000Y-96845000D02*
X143290000Y-96845000D01*
G75*
G02*
X143090000Y-96645000I0J200000D01*
G01*
X143090000Y-96245000D01*
G75*
G02*
X143290000Y-96045000I200000J0D01*
G01*
X143840000Y-96045000D01*
G75*
G02*
X144040000Y-96245000I0J-200000D01*
G01*
X144040000Y-96645000D01*
G75*
G02*
X143840000Y-96845000I-200000J0D01*
G01*
G37*
G36*
G01*
X143840000Y-98495000D02*
X143290000Y-98495000D01*
G75*
G02*
X143090000Y-98295000I0J200000D01*
G01*
X143090000Y-97895000D01*
G75*
G02*
X143290000Y-97695000I200000J0D01*
G01*
X143840000Y-97695000D01*
G75*
G02*
X144040000Y-97895000I0J-200000D01*
G01*
X144040000Y-98295000D01*
G75*
G02*
X143840000Y-98495000I-200000J0D01*
G01*
G37*
G36*
G01*
X144725000Y-97695000D02*
X145275000Y-97695000D01*
G75*
G02*
X145475000Y-97895000I0J-200000D01*
G01*
X145475000Y-98295000D01*
G75*
G02*
X145275000Y-98495000I-200000J0D01*
G01*
X144725000Y-98495000D01*
G75*
G02*
X144525000Y-98295000I0J200000D01*
G01*
X144525000Y-97895000D01*
G75*
G02*
X144725000Y-97695000I200000J0D01*
G01*
G37*
G36*
G01*
X144725000Y-96045000D02*
X145275000Y-96045000D01*
G75*
G02*
X145475000Y-96245000I0J-200000D01*
G01*
X145475000Y-96645000D01*
G75*
G02*
X145275000Y-96845000I-200000J0D01*
G01*
X144725000Y-96845000D01*
G75*
G02*
X144525000Y-96645000I0J200000D01*
G01*
X144525000Y-96245000D01*
G75*
G02*
X144725000Y-96045000I200000J0D01*
G01*
G37*
G36*
G01*
X142380000Y-96945000D02*
X141880000Y-96945000D01*
G75*
G02*
X141655000Y-96720000I0J225000D01*
G01*
X141655000Y-96270000D01*
G75*
G02*
X141880000Y-96045000I225000J0D01*
G01*
X142380000Y-96045000D01*
G75*
G02*
X142605000Y-96270000I0J-225000D01*
G01*
X142605000Y-96720000D01*
G75*
G02*
X142380000Y-96945000I-225000J0D01*
G01*
G37*
G36*
G01*
X142380000Y-98495000D02*
X141880000Y-98495000D01*
G75*
G02*
X141655000Y-98270000I0J225000D01*
G01*
X141655000Y-97820000D01*
G75*
G02*
X141880000Y-97595000I225000J0D01*
G01*
X142380000Y-97595000D01*
G75*
G02*
X142605000Y-97820000I0J-225000D01*
G01*
X142605000Y-98270000D01*
G75*
G02*
X142380000Y-98495000I-225000J0D01*
G01*
G37*
G36*
G01*
X192618332Y-100753000D02*
X194018334Y-100753000D01*
G75*
G02*
X194120333Y-100854999I0J-101999D01*
G01*
X194120333Y-102955001D01*
G75*
G02*
X194018334Y-103057000I-101999J0D01*
G01*
X192618332Y-103057000D01*
G75*
G02*
X192516333Y-102955001I0J101999D01*
G01*
X192516333Y-100854999D01*
G75*
G02*
X192618332Y-100753000I101999J0D01*
G01*
G37*
G36*
G01*
X192618332Y-91653000D02*
X194018334Y-91653000D01*
G75*
G02*
X194120333Y-91754999I0J-101999D01*
G01*
X194120333Y-93855001D01*
G75*
G02*
X194018334Y-93957000I-101999J0D01*
G01*
X192618332Y-93957000D01*
G75*
G02*
X192516333Y-93855001I0J101999D01*
G01*
X192516333Y-91754999D01*
G75*
G02*
X192618332Y-91653000I101999J0D01*
G01*
G37*
G36*
G01*
X197118332Y-91653000D02*
X198518334Y-91653000D01*
G75*
G02*
X198620333Y-91754999I0J-101999D01*
G01*
X198620333Y-93855001D01*
G75*
G02*
X198518334Y-93957000I-101999J0D01*
G01*
X197118332Y-93957000D01*
G75*
G02*
X197016333Y-93855001I0J101999D01*
G01*
X197016333Y-91754999D01*
G75*
G02*
X197118332Y-91653000I101999J0D01*
G01*
G37*
G36*
G01*
X197118332Y-100753000D02*
X198518334Y-100753000D01*
G75*
G02*
X198620333Y-100854999I0J-101999D01*
G01*
X198620333Y-102955001D01*
G75*
G02*
X198518334Y-103057000I-101999J0D01*
G01*
X197118332Y-103057000D01*
G75*
G02*
X197016333Y-102955001I0J101999D01*
G01*
X197016333Y-100854999D01*
G75*
G02*
X197118332Y-100753000I101999J0D01*
G01*
G37*
G36*
G01*
X190734335Y-93957000D02*
X189334333Y-93957000D01*
G75*
G02*
X189232334Y-93855001I0J101999D01*
G01*
X189232334Y-91754999D01*
G75*
G02*
X189334333Y-91653000I101999J0D01*
G01*
X190734335Y-91653000D01*
G75*
G02*
X190836334Y-91754999I0J-101999D01*
G01*
X190836334Y-93855001D01*
G75*
G02*
X190734335Y-93957000I-101999J0D01*
G01*
G37*
G36*
G01*
X190734335Y-103057000D02*
X189334333Y-103057000D01*
G75*
G02*
X189232334Y-102955001I0J101999D01*
G01*
X189232334Y-100854999D01*
G75*
G02*
X189334333Y-100753000I101999J0D01*
G01*
X190734335Y-100753000D01*
G75*
G02*
X190836334Y-100854999I0J-101999D01*
G01*
X190836334Y-102955001D01*
G75*
G02*
X190734335Y-103057000I-101999J0D01*
G01*
G37*
G36*
G01*
X186234335Y-103057000D02*
X184834333Y-103057000D01*
G75*
G02*
X184732334Y-102955001I0J101999D01*
G01*
X184732334Y-100854999D01*
G75*
G02*
X184834333Y-100753000I101999J0D01*
G01*
X186234335Y-100753000D01*
G75*
G02*
X186336334Y-100854999I0J-101999D01*
G01*
X186336334Y-102955001D01*
G75*
G02*
X186234335Y-103057000I-101999J0D01*
G01*
G37*
G36*
G01*
X186234335Y-93957000D02*
X184834333Y-93957000D01*
G75*
G02*
X184732334Y-93855001I0J101999D01*
G01*
X184732334Y-91754999D01*
G75*
G02*
X184834333Y-91653000I101999J0D01*
G01*
X186234335Y-91653000D01*
G75*
G02*
X186336334Y-91754999I0J-101999D01*
G01*
X186336334Y-93855001D01*
G75*
G02*
X186234335Y-93957000I-101999J0D01*
G01*
G37*
G36*
G01*
X147440000Y-90340000D02*
X146890000Y-90340000D01*
G75*
G02*
X146690000Y-90140000I0J200000D01*
G01*
X146690000Y-89740000D01*
G75*
G02*
X146890000Y-89540000I200000J0D01*
G01*
X147440000Y-89540000D01*
G75*
G02*
X147640000Y-89740000I0J-200000D01*
G01*
X147640000Y-90140000D01*
G75*
G02*
X147440000Y-90340000I-200000J0D01*
G01*
G37*
G36*
G01*
X147440000Y-88690000D02*
X146890000Y-88690000D01*
G75*
G02*
X146690000Y-88490000I0J200000D01*
G01*
X146690000Y-88090000D01*
G75*
G02*
X146890000Y-87890000I200000J0D01*
G01*
X147440000Y-87890000D01*
G75*
G02*
X147640000Y-88090000I0J-200000D01*
G01*
X147640000Y-88490000D01*
G75*
G02*
X147440000Y-88690000I-200000J0D01*
G01*
G37*
G36*
G01*
X146727500Y-87124250D02*
X146727500Y-86611750D01*
G75*
G02*
X146946250Y-86393000I218750J0D01*
G01*
X147383750Y-86393000D01*
G75*
G02*
X147602500Y-86611750I0J-218750D01*
G01*
X147602500Y-87124250D01*
G75*
G02*
X147383750Y-87343000I-218750J0D01*
G01*
X146946250Y-87343000D01*
G75*
G02*
X146727500Y-87124250I0J218750D01*
G01*
G37*
G36*
G01*
X148302500Y-87124250D02*
X148302500Y-86611750D01*
G75*
G02*
X148521250Y-86393000I218750J0D01*
G01*
X148958750Y-86393000D01*
G75*
G02*
X149177500Y-86611750I0J-218750D01*
G01*
X149177500Y-87124250D01*
G75*
G02*
X148958750Y-87343000I-218750J0D01*
G01*
X148521250Y-87343000D01*
G75*
G02*
X148302500Y-87124250I0J218750D01*
G01*
G37*
G36*
G01*
X199899000Y-97010000D02*
X199349000Y-97010000D01*
G75*
G02*
X199149000Y-96810000I0J200000D01*
G01*
X199149000Y-96410000D01*
G75*
G02*
X199349000Y-96210000I200000J0D01*
G01*
X199899000Y-96210000D01*
G75*
G02*
X200099000Y-96410000I0J-200000D01*
G01*
X200099000Y-96810000D01*
G75*
G02*
X199899000Y-97010000I-200000J0D01*
G01*
G37*
G36*
G01*
X199899000Y-95360000D02*
X199349000Y-95360000D01*
G75*
G02*
X199149000Y-95160000I0J200000D01*
G01*
X199149000Y-94760000D01*
G75*
G02*
X199349000Y-94560000I200000J0D01*
G01*
X199899000Y-94560000D01*
G75*
G02*
X200099000Y-94760000I0J-200000D01*
G01*
X200099000Y-95160000D01*
G75*
G02*
X199899000Y-95360000I-200000J0D01*
G01*
G37*
G36*
G01*
X199374000Y-97665000D02*
X199874000Y-97665000D01*
G75*
G02*
X200099000Y-97890000I0J-225000D01*
G01*
X200099000Y-98340000D01*
G75*
G02*
X199874000Y-98565000I-225000J0D01*
G01*
X199374000Y-98565000D01*
G75*
G02*
X199149000Y-98340000I0J225000D01*
G01*
X199149000Y-97890000D01*
G75*
G02*
X199374000Y-97665000I225000J0D01*
G01*
G37*
G36*
G01*
X199374000Y-99215000D02*
X199874000Y-99215000D01*
G75*
G02*
X200099000Y-99440000I0J-225000D01*
G01*
X200099000Y-99890000D01*
G75*
G02*
X199874000Y-100115000I-225000J0D01*
G01*
X199374000Y-100115000D01*
G75*
G02*
X199149000Y-99890000I0J225000D01*
G01*
X199149000Y-99440000D01*
G75*
G02*
X199374000Y-99215000I225000J0D01*
G01*
G37*
G36*
G01*
X124006000Y-95035000D02*
X124506000Y-95035000D01*
G75*
G02*
X124731000Y-95260000I0J-225000D01*
G01*
X124731000Y-95710000D01*
G75*
G02*
X124506000Y-95935000I-225000J0D01*
G01*
X124006000Y-95935000D01*
G75*
G02*
X123781000Y-95710000I0J225000D01*
G01*
X123781000Y-95260000D01*
G75*
G02*
X124006000Y-95035000I225000J0D01*
G01*
G37*
G36*
G01*
X124006000Y-96585000D02*
X124506000Y-96585000D01*
G75*
G02*
X124731000Y-96810000I0J-225000D01*
G01*
X124731000Y-97260000D01*
G75*
G02*
X124506000Y-97485000I-225000J0D01*
G01*
X124006000Y-97485000D01*
G75*
G02*
X123781000Y-97260000I0J225000D01*
G01*
X123781000Y-96810000D01*
G75*
G02*
X124006000Y-96585000I225000J0D01*
G01*
G37*
G36*
G01*
X174700000Y-96657500D02*
X174700000Y-96107500D01*
G75*
G02*
X174900000Y-95907500I200000J0D01*
G01*
X175300000Y-95907500D01*
G75*
G02*
X175500000Y-96107500I0J-200000D01*
G01*
X175500000Y-96657500D01*
G75*
G02*
X175300000Y-96857500I-200000J0D01*
G01*
X174900000Y-96857500D01*
G75*
G02*
X174700000Y-96657500I0J200000D01*
G01*
G37*
G36*
G01*
X176350000Y-96657500D02*
X176350000Y-96107500D01*
G75*
G02*
X176550000Y-95907500I200000J0D01*
G01*
X176950000Y-95907500D01*
G75*
G02*
X177150000Y-96107500I0J-200000D01*
G01*
X177150000Y-96657500D01*
G75*
G02*
X176950000Y-96857500I-200000J0D01*
G01*
X176550000Y-96857500D01*
G75*
G02*
X176350000Y-96657500I0J200000D01*
G01*
G37*
D15*
X183720000Y-86950000D03*
D14*
X186260000Y-86950000D03*
X188800000Y-86950000D03*
X191340000Y-86950000D03*
G36*
G01*
X117382000Y-97669999D02*
X117382000Y-98970001D01*
G75*
G02*
X117280001Y-99072000I-101999J0D01*
G01*
X115379999Y-99072000D01*
G75*
G02*
X115278000Y-98970001I0J101999D01*
G01*
X115278000Y-97669999D01*
G75*
G02*
X115379999Y-97568000I101999J0D01*
G01*
X117280001Y-97568000D01*
G75*
G02*
X117382000Y-97669999I0J-101999D01*
G01*
G37*
G36*
G01*
X117382000Y-92169999D02*
X117382000Y-93470001D01*
G75*
G02*
X117280001Y-93572000I-101999J0D01*
G01*
X115379999Y-93572000D01*
G75*
G02*
X115278000Y-93470001I0J101999D01*
G01*
X115278000Y-92169999D01*
G75*
G02*
X115379999Y-92068000I101999J0D01*
G01*
X117280001Y-92068000D01*
G75*
G02*
X117382000Y-92169999I0J-101999D01*
G01*
G37*
G36*
G01*
X114182000Y-92169999D02*
X114182000Y-93470001D01*
G75*
G02*
X114080001Y-93572000I-101999J0D01*
G01*
X112179999Y-93572000D01*
G75*
G02*
X112078000Y-93470001I0J101999D01*
G01*
X112078000Y-92169999D01*
G75*
G02*
X112179999Y-92068000I101999J0D01*
G01*
X114080001Y-92068000D01*
G75*
G02*
X114182000Y-92169999I0J-101999D01*
G01*
G37*
G36*
G01*
X114182000Y-97669999D02*
X114182000Y-98970001D01*
G75*
G02*
X114080001Y-99072000I-101999J0D01*
G01*
X112179999Y-99072000D01*
G75*
G02*
X112078000Y-98970001I0J101999D01*
G01*
X112078000Y-97669999D01*
G75*
G02*
X112179999Y-97568000I101999J0D01*
G01*
X114080001Y-97568000D01*
G75*
G02*
X114182000Y-97669999I0J-101999D01*
G01*
G37*
D20*
X112866000Y-106005000D03*
X116566000Y-106005000D03*
D21*
X152528000Y-85564000D03*
D22*
X153958000Y-89214000D03*
D21*
X161168000Y-85564000D03*
D22*
X159738000Y-89214000D03*
D23*
X161168000Y-89744000D03*
X152528000Y-89744000D03*
D24*
X157098000Y-90659000D03*
X155098000Y-90659000D03*
X155598000Y-90659000D03*
X156098000Y-90659000D03*
X156598000Y-90659000D03*
X157598000Y-90659000D03*
X158098000Y-90659000D03*
X158598000Y-90659000D03*
D25*
X153598000Y-90659000D03*
X154398000Y-90659000D03*
X159298000Y-90659000D03*
X160098000Y-90659000D03*
X160098000Y-90659000D03*
X159298000Y-90659000D03*
X154398000Y-90659000D03*
X153598000Y-90659000D03*
G36*
G01*
X133325000Y-93895000D02*
X133325000Y-93345000D01*
G75*
G02*
X133525000Y-93145000I200000J0D01*
G01*
X133925000Y-93145000D01*
G75*
G02*
X134125000Y-93345000I0J-200000D01*
G01*
X134125000Y-93895000D01*
G75*
G02*
X133925000Y-94095000I-200000J0D01*
G01*
X133525000Y-94095000D01*
G75*
G02*
X133325000Y-93895000I0J200000D01*
G01*
G37*
G36*
G01*
X134975000Y-93895000D02*
X134975000Y-93345000D01*
G75*
G02*
X135175000Y-93145000I200000J0D01*
G01*
X135575000Y-93145000D01*
G75*
G02*
X135775000Y-93345000I0J-200000D01*
G01*
X135775000Y-93895000D01*
G75*
G02*
X135575000Y-94095000I-200000J0D01*
G01*
X135175000Y-94095000D01*
G75*
G02*
X134975000Y-93895000I0J200000D01*
G01*
G37*
G36*
G01*
X119051000Y-100460000D02*
X119051000Y-99960000D01*
G75*
G02*
X119276000Y-99735000I225000J0D01*
G01*
X119726000Y-99735000D01*
G75*
G02*
X119951000Y-99960000I0J-225000D01*
G01*
X119951000Y-100460000D01*
G75*
G02*
X119726000Y-100685000I-225000J0D01*
G01*
X119276000Y-100685000D01*
G75*
G02*
X119051000Y-100460000I0J225000D01*
G01*
G37*
G36*
G01*
X120601000Y-100460000D02*
X120601000Y-99960000D01*
G75*
G02*
X120826000Y-99735000I225000J0D01*
G01*
X121276000Y-99735000D01*
G75*
G02*
X121501000Y-99960000I0J-225000D01*
G01*
X121501000Y-100460000D01*
G75*
G02*
X121276000Y-100685000I-225000J0D01*
G01*
X120826000Y-100685000D01*
G75*
G02*
X120601000Y-100460000I0J225000D01*
G01*
G37*
G36*
G01*
X118595000Y-104460000D02*
X118595000Y-103960000D01*
G75*
G02*
X118820000Y-103735000I225000J0D01*
G01*
X119270000Y-103735000D01*
G75*
G02*
X119495000Y-103960000I0J-225000D01*
G01*
X119495000Y-104460000D01*
G75*
G02*
X119270000Y-104685000I-225000J0D01*
G01*
X118820000Y-104685000D01*
G75*
G02*
X118595000Y-104460000I0J225000D01*
G01*
G37*
G36*
G01*
X120145000Y-104460000D02*
X120145000Y-103960000D01*
G75*
G02*
X120370000Y-103735000I225000J0D01*
G01*
X120820000Y-103735000D01*
G75*
G02*
X121045000Y-103960000I0J-225000D01*
G01*
X121045000Y-104460000D01*
G75*
G02*
X120820000Y-104685000I-225000J0D01*
G01*
X120370000Y-104685000D01*
G75*
G02*
X120145000Y-104460000I0J225000D01*
G01*
G37*
G36*
G01*
X145285000Y-86465000D02*
X145835000Y-86465000D01*
G75*
G02*
X146035000Y-86665000I0J-200000D01*
G01*
X146035000Y-87065000D01*
G75*
G02*
X145835000Y-87265000I-200000J0D01*
G01*
X145285000Y-87265000D01*
G75*
G02*
X145085000Y-87065000I0J200000D01*
G01*
X145085000Y-86665000D01*
G75*
G02*
X145285000Y-86465000I200000J0D01*
G01*
G37*
G36*
G01*
X145285000Y-88115000D02*
X145835000Y-88115000D01*
G75*
G02*
X146035000Y-88315000I0J-200000D01*
G01*
X146035000Y-88715000D01*
G75*
G02*
X145835000Y-88915000I-200000J0D01*
G01*
X145285000Y-88915000D01*
G75*
G02*
X145085000Y-88715000I0J200000D01*
G01*
X145085000Y-88315000D01*
G75*
G02*
X145285000Y-88115000I200000J0D01*
G01*
G37*
G36*
G01*
X122106000Y-100285000D02*
X122106000Y-100135000D01*
G75*
G02*
X122181000Y-100060000I75000J0D01*
G01*
X123506000Y-100060000D01*
G75*
G02*
X123581000Y-100135000I0J-75000D01*
G01*
X123581000Y-100285000D01*
G75*
G02*
X123506000Y-100360000I-75000J0D01*
G01*
X122181000Y-100360000D01*
G75*
G02*
X122106000Y-100285000I0J75000D01*
G01*
G37*
G36*
G01*
X122106000Y-100785000D02*
X122106000Y-100635000D01*
G75*
G02*
X122181000Y-100560000I75000J0D01*
G01*
X123506000Y-100560000D01*
G75*
G02*
X123581000Y-100635000I0J-75000D01*
G01*
X123581000Y-100785000D01*
G75*
G02*
X123506000Y-100860000I-75000J0D01*
G01*
X122181000Y-100860000D01*
G75*
G02*
X122106000Y-100785000I0J75000D01*
G01*
G37*
G36*
G01*
X122106000Y-101285000D02*
X122106000Y-101135000D01*
G75*
G02*
X122181000Y-101060000I75000J0D01*
G01*
X123506000Y-101060000D01*
G75*
G02*
X123581000Y-101135000I0J-75000D01*
G01*
X123581000Y-101285000D01*
G75*
G02*
X123506000Y-101360000I-75000J0D01*
G01*
X122181000Y-101360000D01*
G75*
G02*
X122106000Y-101285000I0J75000D01*
G01*
G37*
G36*
G01*
X122106000Y-101785000D02*
X122106000Y-101635000D01*
G75*
G02*
X122181000Y-101560000I75000J0D01*
G01*
X123506000Y-101560000D01*
G75*
G02*
X123581000Y-101635000I0J-75000D01*
G01*
X123581000Y-101785000D01*
G75*
G02*
X123506000Y-101860000I-75000J0D01*
G01*
X122181000Y-101860000D01*
G75*
G02*
X122106000Y-101785000I0J75000D01*
G01*
G37*
G36*
G01*
X122106000Y-102285000D02*
X122106000Y-102135000D01*
G75*
G02*
X122181000Y-102060000I75000J0D01*
G01*
X123506000Y-102060000D01*
G75*
G02*
X123581000Y-102135000I0J-75000D01*
G01*
X123581000Y-102285000D01*
G75*
G02*
X123506000Y-102360000I-75000J0D01*
G01*
X122181000Y-102360000D01*
G75*
G02*
X122106000Y-102285000I0J75000D01*
G01*
G37*
G36*
G01*
X122106000Y-102785000D02*
X122106000Y-102635000D01*
G75*
G02*
X122181000Y-102560000I75000J0D01*
G01*
X123506000Y-102560000D01*
G75*
G02*
X123581000Y-102635000I0J-75000D01*
G01*
X123581000Y-102785000D01*
G75*
G02*
X123506000Y-102860000I-75000J0D01*
G01*
X122181000Y-102860000D01*
G75*
G02*
X122106000Y-102785000I0J75000D01*
G01*
G37*
G36*
G01*
X122106000Y-103285000D02*
X122106000Y-103135000D01*
G75*
G02*
X122181000Y-103060000I75000J0D01*
G01*
X123506000Y-103060000D01*
G75*
G02*
X123581000Y-103135000I0J-75000D01*
G01*
X123581000Y-103285000D01*
G75*
G02*
X123506000Y-103360000I-75000J0D01*
G01*
X122181000Y-103360000D01*
G75*
G02*
X122106000Y-103285000I0J75000D01*
G01*
G37*
G36*
G01*
X122106000Y-103785000D02*
X122106000Y-103635000D01*
G75*
G02*
X122181000Y-103560000I75000J0D01*
G01*
X123506000Y-103560000D01*
G75*
G02*
X123581000Y-103635000I0J-75000D01*
G01*
X123581000Y-103785000D01*
G75*
G02*
X123506000Y-103860000I-75000J0D01*
G01*
X122181000Y-103860000D01*
G75*
G02*
X122106000Y-103785000I0J75000D01*
G01*
G37*
G36*
G01*
X122106000Y-104285000D02*
X122106000Y-104135000D01*
G75*
G02*
X122181000Y-104060000I75000J0D01*
G01*
X123506000Y-104060000D01*
G75*
G02*
X123581000Y-104135000I0J-75000D01*
G01*
X123581000Y-104285000D01*
G75*
G02*
X123506000Y-104360000I-75000J0D01*
G01*
X122181000Y-104360000D01*
G75*
G02*
X122106000Y-104285000I0J75000D01*
G01*
G37*
G36*
G01*
X122106000Y-104785000D02*
X122106000Y-104635000D01*
G75*
G02*
X122181000Y-104560000I75000J0D01*
G01*
X123506000Y-104560000D01*
G75*
G02*
X123581000Y-104635000I0J-75000D01*
G01*
X123581000Y-104785000D01*
G75*
G02*
X123506000Y-104860000I-75000J0D01*
G01*
X122181000Y-104860000D01*
G75*
G02*
X122106000Y-104785000I0J75000D01*
G01*
G37*
G36*
G01*
X122106000Y-105285000D02*
X122106000Y-105135000D01*
G75*
G02*
X122181000Y-105060000I75000J0D01*
G01*
X123506000Y-105060000D01*
G75*
G02*
X123581000Y-105135000I0J-75000D01*
G01*
X123581000Y-105285000D01*
G75*
G02*
X123506000Y-105360000I-75000J0D01*
G01*
X122181000Y-105360000D01*
G75*
G02*
X122106000Y-105285000I0J75000D01*
G01*
G37*
G36*
G01*
X122106000Y-105785000D02*
X122106000Y-105635000D01*
G75*
G02*
X122181000Y-105560000I75000J0D01*
G01*
X123506000Y-105560000D01*
G75*
G02*
X123581000Y-105635000I0J-75000D01*
G01*
X123581000Y-105785000D01*
G75*
G02*
X123506000Y-105860000I-75000J0D01*
G01*
X122181000Y-105860000D01*
G75*
G02*
X122106000Y-105785000I0J75000D01*
G01*
G37*
G36*
G01*
X124106000Y-107785000D02*
X124106000Y-106460000D01*
G75*
G02*
X124181000Y-106385000I75000J0D01*
G01*
X124331000Y-106385000D01*
G75*
G02*
X124406000Y-106460000I0J-75000D01*
G01*
X124406000Y-107785000D01*
G75*
G02*
X124331000Y-107860000I-75000J0D01*
G01*
X124181000Y-107860000D01*
G75*
G02*
X124106000Y-107785000I0J75000D01*
G01*
G37*
G36*
G01*
X124606000Y-107785000D02*
X124606000Y-106460000D01*
G75*
G02*
X124681000Y-106385000I75000J0D01*
G01*
X124831000Y-106385000D01*
G75*
G02*
X124906000Y-106460000I0J-75000D01*
G01*
X124906000Y-107785000D01*
G75*
G02*
X124831000Y-107860000I-75000J0D01*
G01*
X124681000Y-107860000D01*
G75*
G02*
X124606000Y-107785000I0J75000D01*
G01*
G37*
G36*
G01*
X125106000Y-107785000D02*
X125106000Y-106460000D01*
G75*
G02*
X125181000Y-106385000I75000J0D01*
G01*
X125331000Y-106385000D01*
G75*
G02*
X125406000Y-106460000I0J-75000D01*
G01*
X125406000Y-107785000D01*
G75*
G02*
X125331000Y-107860000I-75000J0D01*
G01*
X125181000Y-107860000D01*
G75*
G02*
X125106000Y-107785000I0J75000D01*
G01*
G37*
G36*
G01*
X125606000Y-107785000D02*
X125606000Y-106460000D01*
G75*
G02*
X125681000Y-106385000I75000J0D01*
G01*
X125831000Y-106385000D01*
G75*
G02*
X125906000Y-106460000I0J-75000D01*
G01*
X125906000Y-107785000D01*
G75*
G02*
X125831000Y-107860000I-75000J0D01*
G01*
X125681000Y-107860000D01*
G75*
G02*
X125606000Y-107785000I0J75000D01*
G01*
G37*
G36*
G01*
X126106000Y-107785000D02*
X126106000Y-106460000D01*
G75*
G02*
X126181000Y-106385000I75000J0D01*
G01*
X126331000Y-106385000D01*
G75*
G02*
X126406000Y-106460000I0J-75000D01*
G01*
X126406000Y-107785000D01*
G75*
G02*
X126331000Y-107860000I-75000J0D01*
G01*
X126181000Y-107860000D01*
G75*
G02*
X126106000Y-107785000I0J75000D01*
G01*
G37*
G36*
G01*
X126606000Y-107785000D02*
X126606000Y-106460000D01*
G75*
G02*
X126681000Y-106385000I75000J0D01*
G01*
X126831000Y-106385000D01*
G75*
G02*
X126906000Y-106460000I0J-75000D01*
G01*
X126906000Y-107785000D01*
G75*
G02*
X126831000Y-107860000I-75000J0D01*
G01*
X126681000Y-107860000D01*
G75*
G02*
X126606000Y-107785000I0J75000D01*
G01*
G37*
G36*
G01*
X127106000Y-107785000D02*
X127106000Y-106460000D01*
G75*
G02*
X127181000Y-106385000I75000J0D01*
G01*
X127331000Y-106385000D01*
G75*
G02*
X127406000Y-106460000I0J-75000D01*
G01*
X127406000Y-107785000D01*
G75*
G02*
X127331000Y-107860000I-75000J0D01*
G01*
X127181000Y-107860000D01*
G75*
G02*
X127106000Y-107785000I0J75000D01*
G01*
G37*
G36*
G01*
X127606000Y-107785000D02*
X127606000Y-106460000D01*
G75*
G02*
X127681000Y-106385000I75000J0D01*
G01*
X127831000Y-106385000D01*
G75*
G02*
X127906000Y-106460000I0J-75000D01*
G01*
X127906000Y-107785000D01*
G75*
G02*
X127831000Y-107860000I-75000J0D01*
G01*
X127681000Y-107860000D01*
G75*
G02*
X127606000Y-107785000I0J75000D01*
G01*
G37*
G36*
G01*
X128106000Y-107785000D02*
X128106000Y-106460000D01*
G75*
G02*
X128181000Y-106385000I75000J0D01*
G01*
X128331000Y-106385000D01*
G75*
G02*
X128406000Y-106460000I0J-75000D01*
G01*
X128406000Y-107785000D01*
G75*
G02*
X128331000Y-107860000I-75000J0D01*
G01*
X128181000Y-107860000D01*
G75*
G02*
X128106000Y-107785000I0J75000D01*
G01*
G37*
G36*
G01*
X128606000Y-107785000D02*
X128606000Y-106460000D01*
G75*
G02*
X128681000Y-106385000I75000J0D01*
G01*
X128831000Y-106385000D01*
G75*
G02*
X128906000Y-106460000I0J-75000D01*
G01*
X128906000Y-107785000D01*
G75*
G02*
X128831000Y-107860000I-75000J0D01*
G01*
X128681000Y-107860000D01*
G75*
G02*
X128606000Y-107785000I0J75000D01*
G01*
G37*
G36*
G01*
X129106000Y-107785000D02*
X129106000Y-106460000D01*
G75*
G02*
X129181000Y-106385000I75000J0D01*
G01*
X129331000Y-106385000D01*
G75*
G02*
X129406000Y-106460000I0J-75000D01*
G01*
X129406000Y-107785000D01*
G75*
G02*
X129331000Y-107860000I-75000J0D01*
G01*
X129181000Y-107860000D01*
G75*
G02*
X129106000Y-107785000I0J75000D01*
G01*
G37*
G36*
G01*
X129606000Y-107785000D02*
X129606000Y-106460000D01*
G75*
G02*
X129681000Y-106385000I75000J0D01*
G01*
X129831000Y-106385000D01*
G75*
G02*
X129906000Y-106460000I0J-75000D01*
G01*
X129906000Y-107785000D01*
G75*
G02*
X129831000Y-107860000I-75000J0D01*
G01*
X129681000Y-107860000D01*
G75*
G02*
X129606000Y-107785000I0J75000D01*
G01*
G37*
G36*
G01*
X130431000Y-105785000D02*
X130431000Y-105635000D01*
G75*
G02*
X130506000Y-105560000I75000J0D01*
G01*
X131831000Y-105560000D01*
G75*
G02*
X131906000Y-105635000I0J-75000D01*
G01*
X131906000Y-105785000D01*
G75*
G02*
X131831000Y-105860000I-75000J0D01*
G01*
X130506000Y-105860000D01*
G75*
G02*
X130431000Y-105785000I0J75000D01*
G01*
G37*
G36*
G01*
X130431000Y-105285000D02*
X130431000Y-105135000D01*
G75*
G02*
X130506000Y-105060000I75000J0D01*
G01*
X131831000Y-105060000D01*
G75*
G02*
X131906000Y-105135000I0J-75000D01*
G01*
X131906000Y-105285000D01*
G75*
G02*
X131831000Y-105360000I-75000J0D01*
G01*
X130506000Y-105360000D01*
G75*
G02*
X130431000Y-105285000I0J75000D01*
G01*
G37*
G36*
G01*
X130431000Y-104785000D02*
X130431000Y-104635000D01*
G75*
G02*
X130506000Y-104560000I75000J0D01*
G01*
X131831000Y-104560000D01*
G75*
G02*
X131906000Y-104635000I0J-75000D01*
G01*
X131906000Y-104785000D01*
G75*
G02*
X131831000Y-104860000I-75000J0D01*
G01*
X130506000Y-104860000D01*
G75*
G02*
X130431000Y-104785000I0J75000D01*
G01*
G37*
G36*
G01*
X130431000Y-104285000D02*
X130431000Y-104135000D01*
G75*
G02*
X130506000Y-104060000I75000J0D01*
G01*
X131831000Y-104060000D01*
G75*
G02*
X131906000Y-104135000I0J-75000D01*
G01*
X131906000Y-104285000D01*
G75*
G02*
X131831000Y-104360000I-75000J0D01*
G01*
X130506000Y-104360000D01*
G75*
G02*
X130431000Y-104285000I0J75000D01*
G01*
G37*
G36*
G01*
X130431000Y-103785000D02*
X130431000Y-103635000D01*
G75*
G02*
X130506000Y-103560000I75000J0D01*
G01*
X131831000Y-103560000D01*
G75*
G02*
X131906000Y-103635000I0J-75000D01*
G01*
X131906000Y-103785000D01*
G75*
G02*
X131831000Y-103860000I-75000J0D01*
G01*
X130506000Y-103860000D01*
G75*
G02*
X130431000Y-103785000I0J75000D01*
G01*
G37*
G36*
G01*
X130431000Y-103285000D02*
X130431000Y-103135000D01*
G75*
G02*
X130506000Y-103060000I75000J0D01*
G01*
X131831000Y-103060000D01*
G75*
G02*
X131906000Y-103135000I0J-75000D01*
G01*
X131906000Y-103285000D01*
G75*
G02*
X131831000Y-103360000I-75000J0D01*
G01*
X130506000Y-103360000D01*
G75*
G02*
X130431000Y-103285000I0J75000D01*
G01*
G37*
G36*
G01*
X130431000Y-102785000D02*
X130431000Y-102635000D01*
G75*
G02*
X130506000Y-102560000I75000J0D01*
G01*
X131831000Y-102560000D01*
G75*
G02*
X131906000Y-102635000I0J-75000D01*
G01*
X131906000Y-102785000D01*
G75*
G02*
X131831000Y-102860000I-75000J0D01*
G01*
X130506000Y-102860000D01*
G75*
G02*
X130431000Y-102785000I0J75000D01*
G01*
G37*
G36*
G01*
X130431000Y-102285000D02*
X130431000Y-102135000D01*
G75*
G02*
X130506000Y-102060000I75000J0D01*
G01*
X131831000Y-102060000D01*
G75*
G02*
X131906000Y-102135000I0J-75000D01*
G01*
X131906000Y-102285000D01*
G75*
G02*
X131831000Y-102360000I-75000J0D01*
G01*
X130506000Y-102360000D01*
G75*
G02*
X130431000Y-102285000I0J75000D01*
G01*
G37*
G36*
G01*
X130431000Y-101785000D02*
X130431000Y-101635000D01*
G75*
G02*
X130506000Y-101560000I75000J0D01*
G01*
X131831000Y-101560000D01*
G75*
G02*
X131906000Y-101635000I0J-75000D01*
G01*
X131906000Y-101785000D01*
G75*
G02*
X131831000Y-101860000I-75000J0D01*
G01*
X130506000Y-101860000D01*
G75*
G02*
X130431000Y-101785000I0J75000D01*
G01*
G37*
G36*
G01*
X130431000Y-101285000D02*
X130431000Y-101135000D01*
G75*
G02*
X130506000Y-101060000I75000J0D01*
G01*
X131831000Y-101060000D01*
G75*
G02*
X131906000Y-101135000I0J-75000D01*
G01*
X131906000Y-101285000D01*
G75*
G02*
X131831000Y-101360000I-75000J0D01*
G01*
X130506000Y-101360000D01*
G75*
G02*
X130431000Y-101285000I0J75000D01*
G01*
G37*
G36*
G01*
X130431000Y-100785000D02*
X130431000Y-100635000D01*
G75*
G02*
X130506000Y-100560000I75000J0D01*
G01*
X131831000Y-100560000D01*
G75*
G02*
X131906000Y-100635000I0J-75000D01*
G01*
X131906000Y-100785000D01*
G75*
G02*
X131831000Y-100860000I-75000J0D01*
G01*
X130506000Y-100860000D01*
G75*
G02*
X130431000Y-100785000I0J75000D01*
G01*
G37*
G36*
G01*
X130431000Y-100285000D02*
X130431000Y-100135000D01*
G75*
G02*
X130506000Y-100060000I75000J0D01*
G01*
X131831000Y-100060000D01*
G75*
G02*
X131906000Y-100135000I0J-75000D01*
G01*
X131906000Y-100285000D01*
G75*
G02*
X131831000Y-100360000I-75000J0D01*
G01*
X130506000Y-100360000D01*
G75*
G02*
X130431000Y-100285000I0J75000D01*
G01*
G37*
G36*
G01*
X129606000Y-99460000D02*
X129606000Y-98135000D01*
G75*
G02*
X129681000Y-98060000I75000J0D01*
G01*
X129831000Y-98060000D01*
G75*
G02*
X129906000Y-98135000I0J-75000D01*
G01*
X129906000Y-99460000D01*
G75*
G02*
X129831000Y-99535000I-75000J0D01*
G01*
X129681000Y-99535000D01*
G75*
G02*
X129606000Y-99460000I0J75000D01*
G01*
G37*
G36*
G01*
X129106000Y-99460000D02*
X129106000Y-98135000D01*
G75*
G02*
X129181000Y-98060000I75000J0D01*
G01*
X129331000Y-98060000D01*
G75*
G02*
X129406000Y-98135000I0J-75000D01*
G01*
X129406000Y-99460000D01*
G75*
G02*
X129331000Y-99535000I-75000J0D01*
G01*
X129181000Y-99535000D01*
G75*
G02*
X129106000Y-99460000I0J75000D01*
G01*
G37*
G36*
G01*
X128606000Y-99460000D02*
X128606000Y-98135000D01*
G75*
G02*
X128681000Y-98060000I75000J0D01*
G01*
X128831000Y-98060000D01*
G75*
G02*
X128906000Y-98135000I0J-75000D01*
G01*
X128906000Y-99460000D01*
G75*
G02*
X128831000Y-99535000I-75000J0D01*
G01*
X128681000Y-99535000D01*
G75*
G02*
X128606000Y-99460000I0J75000D01*
G01*
G37*
G36*
G01*
X128106000Y-99460000D02*
X128106000Y-98135000D01*
G75*
G02*
X128181000Y-98060000I75000J0D01*
G01*
X128331000Y-98060000D01*
G75*
G02*
X128406000Y-98135000I0J-75000D01*
G01*
X128406000Y-99460000D01*
G75*
G02*
X128331000Y-99535000I-75000J0D01*
G01*
X128181000Y-99535000D01*
G75*
G02*
X128106000Y-99460000I0J75000D01*
G01*
G37*
G36*
G01*
X127606000Y-99460000D02*
X127606000Y-98135000D01*
G75*
G02*
X127681000Y-98060000I75000J0D01*
G01*
X127831000Y-98060000D01*
G75*
G02*
X127906000Y-98135000I0J-75000D01*
G01*
X127906000Y-99460000D01*
G75*
G02*
X127831000Y-99535000I-75000J0D01*
G01*
X127681000Y-99535000D01*
G75*
G02*
X127606000Y-99460000I0J75000D01*
G01*
G37*
G36*
G01*
X127106000Y-99460000D02*
X127106000Y-98135000D01*
G75*
G02*
X127181000Y-98060000I75000J0D01*
G01*
X127331000Y-98060000D01*
G75*
G02*
X127406000Y-98135000I0J-75000D01*
G01*
X127406000Y-99460000D01*
G75*
G02*
X127331000Y-99535000I-75000J0D01*
G01*
X127181000Y-99535000D01*
G75*
G02*
X127106000Y-99460000I0J75000D01*
G01*
G37*
G36*
G01*
X126606000Y-99460000D02*
X126606000Y-98135000D01*
G75*
G02*
X126681000Y-98060000I75000J0D01*
G01*
X126831000Y-98060000D01*
G75*
G02*
X126906000Y-98135000I0J-75000D01*
G01*
X126906000Y-99460000D01*
G75*
G02*
X126831000Y-99535000I-75000J0D01*
G01*
X126681000Y-99535000D01*
G75*
G02*
X126606000Y-99460000I0J75000D01*
G01*
G37*
G36*
G01*
X126106000Y-99460000D02*
X126106000Y-98135000D01*
G75*
G02*
X126181000Y-98060000I75000J0D01*
G01*
X126331000Y-98060000D01*
G75*
G02*
X126406000Y-98135000I0J-75000D01*
G01*
X126406000Y-99460000D01*
G75*
G02*
X126331000Y-99535000I-75000J0D01*
G01*
X126181000Y-99535000D01*
G75*
G02*
X126106000Y-99460000I0J75000D01*
G01*
G37*
G36*
G01*
X125606000Y-99460000D02*
X125606000Y-98135000D01*
G75*
G02*
X125681000Y-98060000I75000J0D01*
G01*
X125831000Y-98060000D01*
G75*
G02*
X125906000Y-98135000I0J-75000D01*
G01*
X125906000Y-99460000D01*
G75*
G02*
X125831000Y-99535000I-75000J0D01*
G01*
X125681000Y-99535000D01*
G75*
G02*
X125606000Y-99460000I0J75000D01*
G01*
G37*
G36*
G01*
X125106000Y-99460000D02*
X125106000Y-98135000D01*
G75*
G02*
X125181000Y-98060000I75000J0D01*
G01*
X125331000Y-98060000D01*
G75*
G02*
X125406000Y-98135000I0J-75000D01*
G01*
X125406000Y-99460000D01*
G75*
G02*
X125331000Y-99535000I-75000J0D01*
G01*
X125181000Y-99535000D01*
G75*
G02*
X125106000Y-99460000I0J75000D01*
G01*
G37*
G36*
G01*
X124606000Y-99460000D02*
X124606000Y-98135000D01*
G75*
G02*
X124681000Y-98060000I75000J0D01*
G01*
X124831000Y-98060000D01*
G75*
G02*
X124906000Y-98135000I0J-75000D01*
G01*
X124906000Y-99460000D01*
G75*
G02*
X124831000Y-99535000I-75000J0D01*
G01*
X124681000Y-99535000D01*
G75*
G02*
X124606000Y-99460000I0J75000D01*
G01*
G37*
G36*
G01*
X124106000Y-99460000D02*
X124106000Y-98135000D01*
G75*
G02*
X124181000Y-98060000I75000J0D01*
G01*
X124331000Y-98060000D01*
G75*
G02*
X124406000Y-98135000I0J-75000D01*
G01*
X124406000Y-99460000D01*
G75*
G02*
X124331000Y-99535000I-75000J0D01*
G01*
X124181000Y-99535000D01*
G75*
G02*
X124106000Y-99460000I0J75000D01*
G01*
G37*
G36*
G01*
X183995000Y-95360000D02*
X183445000Y-95360000D01*
G75*
G02*
X183245000Y-95160000I0J200000D01*
G01*
X183245000Y-94760000D01*
G75*
G02*
X183445000Y-94560000I200000J0D01*
G01*
X183995000Y-94560000D01*
G75*
G02*
X184195000Y-94760000I0J-200000D01*
G01*
X184195000Y-95160000D01*
G75*
G02*
X183995000Y-95360000I-200000J0D01*
G01*
G37*
G36*
G01*
X183995000Y-97010000D02*
X183445000Y-97010000D01*
G75*
G02*
X183245000Y-96810000I0J200000D01*
G01*
X183245000Y-96410000D01*
G75*
G02*
X183445000Y-96210000I200000J0D01*
G01*
X183995000Y-96210000D01*
G75*
G02*
X184195000Y-96410000I0J-200000D01*
G01*
X184195000Y-96810000D01*
G75*
G02*
X183995000Y-97010000I-200000J0D01*
G01*
G37*
G36*
G01*
X115941000Y-103035000D02*
X115941000Y-103585000D01*
G75*
G02*
X115741000Y-103785000I-200000J0D01*
G01*
X115341000Y-103785000D01*
G75*
G02*
X115141000Y-103585000I0J200000D01*
G01*
X115141000Y-103035000D01*
G75*
G02*
X115341000Y-102835000I200000J0D01*
G01*
X115741000Y-102835000D01*
G75*
G02*
X115941000Y-103035000I0J-200000D01*
G01*
G37*
G36*
G01*
X114291000Y-103035000D02*
X114291000Y-103585000D01*
G75*
G02*
X114091000Y-103785000I-200000J0D01*
G01*
X113691000Y-103785000D01*
G75*
G02*
X113491000Y-103585000I0J200000D01*
G01*
X113491000Y-103035000D01*
G75*
G02*
X113691000Y-102835000I200000J0D01*
G01*
X114091000Y-102835000D01*
G75*
G02*
X114291000Y-103035000I0J-200000D01*
G01*
G37*
G36*
G01*
X167490000Y-91890000D02*
X166990000Y-91890000D01*
G75*
G02*
X166765000Y-91665000I0J225000D01*
G01*
X166765000Y-91215000D01*
G75*
G02*
X166990000Y-90990000I225000J0D01*
G01*
X167490000Y-90990000D01*
G75*
G02*
X167715000Y-91215000I0J-225000D01*
G01*
X167715000Y-91665000D01*
G75*
G02*
X167490000Y-91890000I-225000J0D01*
G01*
G37*
G36*
G01*
X167490000Y-90340000D02*
X166990000Y-90340000D01*
G75*
G02*
X166765000Y-90115000I0J225000D01*
G01*
X166765000Y-89665000D01*
G75*
G02*
X166990000Y-89440000I225000J0D01*
G01*
X167490000Y-89440000D01*
G75*
G02*
X167715000Y-89665000I0J-225000D01*
G01*
X167715000Y-90115000D01*
G75*
G02*
X167490000Y-90340000I-225000J0D01*
G01*
G37*
G36*
G01*
X133100000Y-106872500D02*
X133100000Y-107372500D01*
G75*
G02*
X132875000Y-107597500I-225000J0D01*
G01*
X132425000Y-107597500D01*
G75*
G02*
X132200000Y-107372500I0J225000D01*
G01*
X132200000Y-106872500D01*
G75*
G02*
X132425000Y-106647500I225000J0D01*
G01*
X132875000Y-106647500D01*
G75*
G02*
X133100000Y-106872500I0J-225000D01*
G01*
G37*
G36*
G01*
X131550000Y-106872500D02*
X131550000Y-107372500D01*
G75*
G02*
X131325000Y-107597500I-225000J0D01*
G01*
X130875000Y-107597500D01*
G75*
G02*
X130650000Y-107372500I0J225000D01*
G01*
X130650000Y-106872500D01*
G75*
G02*
X130875000Y-106647500I225000J0D01*
G01*
X131325000Y-106647500D01*
G75*
G02*
X131550000Y-106872500I0J-225000D01*
G01*
G37*
G36*
G01*
X119295000Y-107640000D02*
X118795000Y-107640000D01*
G75*
G02*
X118570000Y-107415000I0J225000D01*
G01*
X118570000Y-106965000D01*
G75*
G02*
X118795000Y-106740000I225000J0D01*
G01*
X119295000Y-106740000D01*
G75*
G02*
X119520000Y-106965000I0J-225000D01*
G01*
X119520000Y-107415000D01*
G75*
G02*
X119295000Y-107640000I-225000J0D01*
G01*
G37*
G36*
G01*
X119295000Y-106090000D02*
X118795000Y-106090000D01*
G75*
G02*
X118570000Y-105865000I0J225000D01*
G01*
X118570000Y-105415000D01*
G75*
G02*
X118795000Y-105190000I225000J0D01*
G01*
X119295000Y-105190000D01*
G75*
G02*
X119520000Y-105415000I0J-225000D01*
G01*
X119520000Y-105865000D01*
G75*
G02*
X119295000Y-106090000I-225000J0D01*
G01*
G37*
G36*
G01*
X111570000Y-96795000D02*
X111070000Y-96795000D01*
G75*
G02*
X110845000Y-96570000I0J225000D01*
G01*
X110845000Y-96120000D01*
G75*
G02*
X111070000Y-95895000I225000J0D01*
G01*
X111570000Y-95895000D01*
G75*
G02*
X111795000Y-96120000I0J-225000D01*
G01*
X111795000Y-96570000D01*
G75*
G02*
X111570000Y-96795000I-225000J0D01*
G01*
G37*
G36*
G01*
X111570000Y-95245000D02*
X111070000Y-95245000D01*
G75*
G02*
X110845000Y-95020000I0J225000D01*
G01*
X110845000Y-94570000D01*
G75*
G02*
X111070000Y-94345000I225000J0D01*
G01*
X111570000Y-94345000D01*
G75*
G02*
X111795000Y-94570000I0J-225000D01*
G01*
X111795000Y-95020000D01*
G75*
G02*
X111570000Y-95245000I-225000J0D01*
G01*
G37*
G36*
G01*
X171813000Y-89440000D02*
X172313000Y-89440000D01*
G75*
G02*
X172538000Y-89665000I0J-225000D01*
G01*
X172538000Y-90115000D01*
G75*
G02*
X172313000Y-90340000I-225000J0D01*
G01*
X171813000Y-90340000D01*
G75*
G02*
X171588000Y-90115000I0J225000D01*
G01*
X171588000Y-89665000D01*
G75*
G02*
X171813000Y-89440000I225000J0D01*
G01*
G37*
G36*
G01*
X171813000Y-90990000D02*
X172313000Y-90990000D01*
G75*
G02*
X172538000Y-91215000I0J-225000D01*
G01*
X172538000Y-91665000D01*
G75*
G02*
X172313000Y-91890000I-225000J0D01*
G01*
X171813000Y-91890000D01*
G75*
G02*
X171588000Y-91665000I0J225000D01*
G01*
X171588000Y-91215000D01*
G75*
G02*
X171813000Y-90990000I225000J0D01*
G01*
G37*
G36*
G01*
X173906000Y-91890000D02*
X173406000Y-91890000D01*
G75*
G02*
X173181000Y-91665000I0J225000D01*
G01*
X173181000Y-91215000D01*
G75*
G02*
X173406000Y-90990000I225000J0D01*
G01*
X173906000Y-90990000D01*
G75*
G02*
X174131000Y-91215000I0J-225000D01*
G01*
X174131000Y-91665000D01*
G75*
G02*
X173906000Y-91890000I-225000J0D01*
G01*
G37*
G36*
G01*
X173906000Y-90340000D02*
X173406000Y-90340000D01*
G75*
G02*
X173181000Y-90115000I0J225000D01*
G01*
X173181000Y-89665000D01*
G75*
G02*
X173406000Y-89440000I225000J0D01*
G01*
X173906000Y-89440000D01*
G75*
G02*
X174131000Y-89665000I0J-225000D01*
G01*
X174131000Y-90115000D01*
G75*
G02*
X173906000Y-90340000I-225000J0D01*
G01*
G37*
G36*
G01*
X117960000Y-95885000D02*
X118460000Y-95885000D01*
G75*
G02*
X118685000Y-96110000I0J-225000D01*
G01*
X118685000Y-96560000D01*
G75*
G02*
X118460000Y-96785000I-225000J0D01*
G01*
X117960000Y-96785000D01*
G75*
G02*
X117735000Y-96560000I0J225000D01*
G01*
X117735000Y-96110000D01*
G75*
G02*
X117960000Y-95885000I225000J0D01*
G01*
G37*
G36*
G01*
X117960000Y-94335000D02*
X118460000Y-94335000D01*
G75*
G02*
X118685000Y-94560000I0J-225000D01*
G01*
X118685000Y-95010000D01*
G75*
G02*
X118460000Y-95235000I-225000J0D01*
G01*
X117960000Y-95235000D01*
G75*
G02*
X117735000Y-95010000I0J225000D01*
G01*
X117735000Y-94560000D01*
G75*
G02*
X117960000Y-94335000I225000J0D01*
G01*
G37*
G36*
G01*
X117566000Y-108450000D02*
X117566000Y-108950000D01*
G75*
G02*
X117341000Y-109175000I-225000J0D01*
G01*
X116891000Y-109175000D01*
G75*
G02*
X116666000Y-108950000I0J225000D01*
G01*
X116666000Y-108450000D01*
G75*
G02*
X116891000Y-108225000I225000J0D01*
G01*
X117341000Y-108225000D01*
G75*
G02*
X117566000Y-108450000I0J-225000D01*
G01*
G37*
G36*
G01*
X116016000Y-108450000D02*
X116016000Y-108950000D01*
G75*
G02*
X115791000Y-109175000I-225000J0D01*
G01*
X115341000Y-109175000D01*
G75*
G02*
X115116000Y-108950000I0J225000D01*
G01*
X115116000Y-108450000D01*
G75*
G02*
X115341000Y-108225000I225000J0D01*
G01*
X115791000Y-108225000D01*
G75*
G02*
X116016000Y-108450000I0J-225000D01*
G01*
G37*
G36*
G01*
X168470000Y-85644000D02*
X168970000Y-85644000D01*
G75*
G02*
X169195000Y-85869000I0J-225000D01*
G01*
X169195000Y-86319000D01*
G75*
G02*
X168970000Y-86544000I-225000J0D01*
G01*
X168470000Y-86544000D01*
G75*
G02*
X168245000Y-86319000I0J225000D01*
G01*
X168245000Y-85869000D01*
G75*
G02*
X168470000Y-85644000I225000J0D01*
G01*
G37*
G36*
G01*
X168470000Y-87194000D02*
X168970000Y-87194000D01*
G75*
G02*
X169195000Y-87419000I0J-225000D01*
G01*
X169195000Y-87869000D01*
G75*
G02*
X168970000Y-88094000I-225000J0D01*
G01*
X168470000Y-88094000D01*
G75*
G02*
X168245000Y-87869000I0J225000D01*
G01*
X168245000Y-87419000D01*
G75*
G02*
X168470000Y-87194000I225000J0D01*
G01*
G37*
G36*
G01*
X114316000Y-108450000D02*
X114316000Y-108950000D01*
G75*
G02*
X114091000Y-109175000I-225000J0D01*
G01*
X113641000Y-109175000D01*
G75*
G02*
X113416000Y-108950000I0J225000D01*
G01*
X113416000Y-108450000D01*
G75*
G02*
X113641000Y-108225000I225000J0D01*
G01*
X114091000Y-108225000D01*
G75*
G02*
X114316000Y-108450000I0J-225000D01*
G01*
G37*
G36*
G01*
X112766000Y-108450000D02*
X112766000Y-108950000D01*
G75*
G02*
X112541000Y-109175000I-225000J0D01*
G01*
X112091000Y-109175000D01*
G75*
G02*
X111866000Y-108950000I0J225000D01*
G01*
X111866000Y-108450000D01*
G75*
G02*
X112091000Y-108225000I225000J0D01*
G01*
X112541000Y-108225000D01*
G75*
G02*
X112766000Y-108450000I0J-225000D01*
G01*
G37*
G36*
G01*
X170370000Y-85644000D02*
X170870000Y-85644000D01*
G75*
G02*
X171095000Y-85869000I0J-225000D01*
G01*
X171095000Y-86319000D01*
G75*
G02*
X170870000Y-86544000I-225000J0D01*
G01*
X170370000Y-86544000D01*
G75*
G02*
X170145000Y-86319000I0J225000D01*
G01*
X170145000Y-85869000D01*
G75*
G02*
X170370000Y-85644000I225000J0D01*
G01*
G37*
G36*
G01*
X170370000Y-87194000D02*
X170870000Y-87194000D01*
G75*
G02*
X171095000Y-87419000I0J-225000D01*
G01*
X171095000Y-87869000D01*
G75*
G02*
X170870000Y-88094000I-225000J0D01*
G01*
X170370000Y-88094000D01*
G75*
G02*
X170145000Y-87869000I0J225000D01*
G01*
X170145000Y-87419000D01*
G75*
G02*
X170370000Y-87194000I225000J0D01*
G01*
G37*
M02*
