%FSLAX45Y45*%
G04 Gerber Fmt 4.5, Leading zero omitted, Abs format (unit mm)*
G04 Created by KiCad (PCBNEW (5.1.12)-1) date 2024-08-26 22:06:00*
%MOMM*%
%LPD*%
G01*
G04 APERTURE LIST*
%TA.AperFunction,Profile*%
%ADD10C,0.050000*%
%TD*%
%ADD11C,0.200000*%
%ADD12C,0.300000*%
G04 APERTURE END LIST*
D10*
X25679400Y-9000000D02*
X25679400Y-10800000D01*
X4100000Y-10800000D02*
X4100000Y-9000000D01*
X25679400Y-10800000D02*
X4100000Y-10800000D01*
X4100000Y-9000000D02*
X25679400Y-9000000D01*
D11*
D12*
X4383928Y-11268214D02*
X4383928Y-10968214D01*
X4455357Y-10968214D01*
X4498214Y-10982500D01*
X4526786Y-11011072D01*
X4541071Y-11039643D01*
X4555357Y-11096786D01*
X4555357Y-11139643D01*
X4541071Y-11196786D01*
X4526786Y-11225357D01*
X4498214Y-11253929D01*
X4455357Y-11268214D01*
X4383928Y-11268214D01*
X4683928Y-11268214D02*
X4683928Y-11068214D01*
X4683928Y-11125357D02*
X4698214Y-11096786D01*
X4712500Y-11082500D01*
X4741071Y-11068214D01*
X4769643Y-11068214D01*
X4869643Y-11268214D02*
X4869643Y-11068214D01*
X4869643Y-10968214D02*
X4855357Y-10982500D01*
X4869643Y-10996786D01*
X4883928Y-10982500D01*
X4869643Y-10968214D01*
X4869643Y-10996786D01*
X5055357Y-11268214D02*
X5026786Y-11253929D01*
X5012500Y-11225357D01*
X5012500Y-10968214D01*
X5212500Y-11268214D02*
X5183928Y-11253929D01*
X5169643Y-11225357D01*
X5169643Y-10968214D01*
X5555357Y-11268214D02*
X5555357Y-10968214D01*
X5655357Y-11182500D01*
X5755357Y-10968214D01*
X5755357Y-11268214D01*
X6026786Y-11268214D02*
X6026786Y-11111072D01*
X6012500Y-11082500D01*
X5983928Y-11068214D01*
X5926786Y-11068214D01*
X5898214Y-11082500D01*
X6026786Y-11253929D02*
X5998214Y-11268214D01*
X5926786Y-11268214D01*
X5898214Y-11253929D01*
X5883928Y-11225357D01*
X5883928Y-11196786D01*
X5898214Y-11168214D01*
X5926786Y-11153929D01*
X5998214Y-11153929D01*
X6026786Y-11139643D01*
X6169643Y-11068214D02*
X6169643Y-11368214D01*
X6169643Y-11082500D02*
X6198214Y-11068214D01*
X6255357Y-11068214D01*
X6283928Y-11082500D01*
X6298214Y-11096786D01*
X6312500Y-11125357D01*
X6312500Y-11211071D01*
X6298214Y-11239643D01*
X6283928Y-11253929D01*
X6255357Y-11268214D01*
X6198214Y-11268214D01*
X6169643Y-11253929D01*
X6441071Y-11239643D02*
X6455357Y-11253929D01*
X6441071Y-11268214D01*
X6426786Y-11253929D01*
X6441071Y-11239643D01*
X6441071Y-11268214D01*
X6441071Y-11082500D02*
X6455357Y-11096786D01*
X6441071Y-11111072D01*
X6426786Y-11096786D01*
X6441071Y-11082500D01*
X6441071Y-11111072D01*
M02*
