G04 #@! TF.GenerationSoftware,KiCad,Pcbnew,(5.1.12)-1*
G04 #@! TF.CreationDate,2024-08-26T22:06:02+03:00*
G04 #@! TF.ProjectId,CaliperBlade,43616c69-7065-4724-926c-6164652e6b69,rev?*
G04 #@! TF.SameCoordinates,Original*
G04 #@! TF.FileFunction,Copper,L1,Top*
G04 #@! TF.FilePolarity,Positive*
%FSLAX46Y46*%
G04 Gerber Fmt 4.6, Leading zero omitted, Abs format (unit mm)*
G04 Created by KiCad (PCBNEW (5.1.12)-1) date 2024-08-26 22:06:02*
%MOMM*%
%LPD*%
G01*
G04 APERTURE LIST*
G04 #@! TA.AperFunction,Profile*
%ADD10C,0.050000*%
G04 #@! TD*
G04 #@! TA.AperFunction,SMDPad,CuDef*
%ADD11R,9.400000X6.400000*%
G04 #@! TD*
G04 #@! TA.AperFunction,SMDPad,CuDef*
%ADD12R,4.800000X13.000000*%
G04 #@! TD*
G04 #@! TA.AperFunction,NonConductor*
%ADD13C,0.200000*%
G04 #@! TD*
G04 #@! TA.AperFunction,NonConductor*
%ADD14C,0.100000*%
G04 #@! TD*
G04 APERTURE END LIST*
D10*
X256794000Y-90000000D02*
X256794000Y-108000000D01*
X41000000Y-108000000D02*
X41000000Y-90000000D01*
X256794000Y-108000000D02*
X41000000Y-108000000D01*
X41000000Y-90000000D02*
X256794000Y-90000000D01*
D11*
X248995000Y-93900000D03*
X239395000Y-93900000D03*
X229795000Y-93900000D03*
X220195000Y-93900000D03*
X210595000Y-93900000D03*
X200995000Y-93900000D03*
X191395000Y-93900000D03*
X181795000Y-93900000D03*
X172195000Y-93900000D03*
X162595000Y-93900000D03*
X152995000Y-93900000D03*
X143395000Y-93900000D03*
X133795000Y-93900000D03*
X124195000Y-93900000D03*
X114595000Y-93900000D03*
X104995000Y-93900000D03*
X95395000Y-93900000D03*
X85795000Y-93900000D03*
X76195000Y-93900000D03*
X66595000Y-93900000D03*
X56995000Y-93900000D03*
D12*
X248995000Y-100800000D03*
X239395000Y-100800000D03*
X229795000Y-100800000D03*
X220195000Y-100800000D03*
X210595000Y-100800000D03*
X200995000Y-100800000D03*
X191395000Y-100800000D03*
X181795000Y-100800000D03*
X172195000Y-100800000D03*
X162595000Y-100800000D03*
X152995000Y-100800000D03*
X143395000Y-100800000D03*
X133795000Y-100800000D03*
X124195000Y-100800000D03*
X114595000Y-100800000D03*
X104995000Y-100800000D03*
X95395000Y-100800000D03*
X85795000Y-100800000D03*
X76195000Y-100800000D03*
X66595000Y-100800000D03*
X56995000Y-100800000D03*
D11*
X47395000Y-93900000D03*
D12*
X47395000Y-100800000D03*
D13*
X256469001Y-107675000D02*
X41325000Y-107675000D01*
X41325000Y-90700000D01*
X42393549Y-90700000D01*
X42393549Y-97100000D01*
X42399341Y-97158810D01*
X42416496Y-97215360D01*
X42444353Y-97267477D01*
X42481842Y-97313158D01*
X42527523Y-97350647D01*
X42579640Y-97378504D01*
X42636190Y-97395659D01*
X42695000Y-97401451D01*
X44693549Y-97401451D01*
X44693549Y-107300000D01*
X44699341Y-107358810D01*
X44716496Y-107415360D01*
X44744353Y-107467477D01*
X44781842Y-107513158D01*
X44827523Y-107550647D01*
X44879640Y-107578504D01*
X44936190Y-107595659D01*
X44995000Y-107601451D01*
X49795000Y-107601451D01*
X49853810Y-107595659D01*
X49910360Y-107578504D01*
X49962477Y-107550647D01*
X50008158Y-107513158D01*
X50045647Y-107467477D01*
X50073504Y-107415360D01*
X50090659Y-107358810D01*
X50096451Y-107300000D01*
X50096451Y-97401451D01*
X52095000Y-97401451D01*
X52153810Y-97395659D01*
X52195000Y-97383164D01*
X52236190Y-97395659D01*
X52295000Y-97401451D01*
X54293549Y-97401451D01*
X54293549Y-107300000D01*
X54299341Y-107358810D01*
X54316496Y-107415360D01*
X54344353Y-107467477D01*
X54381842Y-107513158D01*
X54427523Y-107550647D01*
X54479640Y-107578504D01*
X54536190Y-107595659D01*
X54595000Y-107601451D01*
X59395000Y-107601451D01*
X59453810Y-107595659D01*
X59510360Y-107578504D01*
X59562477Y-107550647D01*
X59608158Y-107513158D01*
X59645647Y-107467477D01*
X59673504Y-107415360D01*
X59690659Y-107358810D01*
X59696451Y-107300000D01*
X59696451Y-97401451D01*
X61695000Y-97401451D01*
X61753810Y-97395659D01*
X61795000Y-97383164D01*
X61836190Y-97395659D01*
X61895000Y-97401451D01*
X63893549Y-97401451D01*
X63893549Y-107300000D01*
X63899341Y-107358810D01*
X63916496Y-107415360D01*
X63944353Y-107467477D01*
X63981842Y-107513158D01*
X64027523Y-107550647D01*
X64079640Y-107578504D01*
X64136190Y-107595659D01*
X64195000Y-107601451D01*
X68995000Y-107601451D01*
X69053810Y-107595659D01*
X69110360Y-107578504D01*
X69162477Y-107550647D01*
X69208158Y-107513158D01*
X69245647Y-107467477D01*
X69273504Y-107415360D01*
X69290659Y-107358810D01*
X69296451Y-107300000D01*
X69296451Y-97401451D01*
X71295000Y-97401451D01*
X71353810Y-97395659D01*
X71395000Y-97383164D01*
X71436190Y-97395659D01*
X71495000Y-97401451D01*
X73493549Y-97401451D01*
X73493549Y-107300000D01*
X73499341Y-107358810D01*
X73516496Y-107415360D01*
X73544353Y-107467477D01*
X73581842Y-107513158D01*
X73627523Y-107550647D01*
X73679640Y-107578504D01*
X73736190Y-107595659D01*
X73795000Y-107601451D01*
X78595000Y-107601451D01*
X78653810Y-107595659D01*
X78710360Y-107578504D01*
X78762477Y-107550647D01*
X78808158Y-107513158D01*
X78845647Y-107467477D01*
X78873504Y-107415360D01*
X78890659Y-107358810D01*
X78896451Y-107300000D01*
X78896451Y-97401451D01*
X80895000Y-97401451D01*
X80953810Y-97395659D01*
X80995000Y-97383164D01*
X81036190Y-97395659D01*
X81095000Y-97401451D01*
X83093549Y-97401451D01*
X83093549Y-107300000D01*
X83099341Y-107358810D01*
X83116496Y-107415360D01*
X83144353Y-107467477D01*
X83181842Y-107513158D01*
X83227523Y-107550647D01*
X83279640Y-107578504D01*
X83336190Y-107595659D01*
X83395000Y-107601451D01*
X88195000Y-107601451D01*
X88253810Y-107595659D01*
X88310360Y-107578504D01*
X88362477Y-107550647D01*
X88408158Y-107513158D01*
X88445647Y-107467477D01*
X88473504Y-107415360D01*
X88490659Y-107358810D01*
X88496451Y-107300000D01*
X88496451Y-97401451D01*
X90495000Y-97401451D01*
X90553810Y-97395659D01*
X90595000Y-97383164D01*
X90636190Y-97395659D01*
X90695000Y-97401451D01*
X92693549Y-97401451D01*
X92693549Y-107300000D01*
X92699341Y-107358810D01*
X92716496Y-107415360D01*
X92744353Y-107467477D01*
X92781842Y-107513158D01*
X92827523Y-107550647D01*
X92879640Y-107578504D01*
X92936190Y-107595659D01*
X92995000Y-107601451D01*
X97795000Y-107601451D01*
X97853810Y-107595659D01*
X97910360Y-107578504D01*
X97962477Y-107550647D01*
X98008158Y-107513158D01*
X98045647Y-107467477D01*
X98073504Y-107415360D01*
X98090659Y-107358810D01*
X98096451Y-107300000D01*
X98096451Y-97401451D01*
X100095000Y-97401451D01*
X100153810Y-97395659D01*
X100195000Y-97383164D01*
X100236190Y-97395659D01*
X100295000Y-97401451D01*
X102293549Y-97401451D01*
X102293549Y-107300000D01*
X102299341Y-107358810D01*
X102316496Y-107415360D01*
X102344353Y-107467477D01*
X102381842Y-107513158D01*
X102427523Y-107550647D01*
X102479640Y-107578504D01*
X102536190Y-107595659D01*
X102595000Y-107601451D01*
X107395000Y-107601451D01*
X107453810Y-107595659D01*
X107510360Y-107578504D01*
X107562477Y-107550647D01*
X107608158Y-107513158D01*
X107645647Y-107467477D01*
X107673504Y-107415360D01*
X107690659Y-107358810D01*
X107696451Y-107300000D01*
X107696451Y-97401451D01*
X109695000Y-97401451D01*
X109753810Y-97395659D01*
X109795000Y-97383164D01*
X109836190Y-97395659D01*
X109895000Y-97401451D01*
X111893549Y-97401451D01*
X111893549Y-107300000D01*
X111899341Y-107358810D01*
X111916496Y-107415360D01*
X111944353Y-107467477D01*
X111981842Y-107513158D01*
X112027523Y-107550647D01*
X112079640Y-107578504D01*
X112136190Y-107595659D01*
X112195000Y-107601451D01*
X116995000Y-107601451D01*
X117053810Y-107595659D01*
X117110360Y-107578504D01*
X117162477Y-107550647D01*
X117208158Y-107513158D01*
X117245647Y-107467477D01*
X117273504Y-107415360D01*
X117290659Y-107358810D01*
X117296451Y-107300000D01*
X117296451Y-97401451D01*
X119295000Y-97401451D01*
X119353810Y-97395659D01*
X119395000Y-97383164D01*
X119436190Y-97395659D01*
X119495000Y-97401451D01*
X121493549Y-97401451D01*
X121493549Y-107300000D01*
X121499341Y-107358810D01*
X121516496Y-107415360D01*
X121544353Y-107467477D01*
X121581842Y-107513158D01*
X121627523Y-107550647D01*
X121679640Y-107578504D01*
X121736190Y-107595659D01*
X121795000Y-107601451D01*
X126595000Y-107601451D01*
X126653810Y-107595659D01*
X126710360Y-107578504D01*
X126762477Y-107550647D01*
X126808158Y-107513158D01*
X126845647Y-107467477D01*
X126873504Y-107415360D01*
X126890659Y-107358810D01*
X126896451Y-107300000D01*
X126896451Y-97401451D01*
X128895000Y-97401451D01*
X128953810Y-97395659D01*
X128995000Y-97383164D01*
X129036190Y-97395659D01*
X129095000Y-97401451D01*
X131093549Y-97401451D01*
X131093549Y-107300000D01*
X131099341Y-107358810D01*
X131116496Y-107415360D01*
X131144353Y-107467477D01*
X131181842Y-107513158D01*
X131227523Y-107550647D01*
X131279640Y-107578504D01*
X131336190Y-107595659D01*
X131395000Y-107601451D01*
X136195000Y-107601451D01*
X136253810Y-107595659D01*
X136310360Y-107578504D01*
X136362477Y-107550647D01*
X136408158Y-107513158D01*
X136445647Y-107467477D01*
X136473504Y-107415360D01*
X136490659Y-107358810D01*
X136496451Y-107300000D01*
X136496451Y-97401451D01*
X138495000Y-97401451D01*
X138553810Y-97395659D01*
X138595000Y-97383164D01*
X138636190Y-97395659D01*
X138695000Y-97401451D01*
X140693549Y-97401451D01*
X140693549Y-107300000D01*
X140699341Y-107358810D01*
X140716496Y-107415360D01*
X140744353Y-107467477D01*
X140781842Y-107513158D01*
X140827523Y-107550647D01*
X140879640Y-107578504D01*
X140936190Y-107595659D01*
X140995000Y-107601451D01*
X145795000Y-107601451D01*
X145853810Y-107595659D01*
X145910360Y-107578504D01*
X145962477Y-107550647D01*
X146008158Y-107513158D01*
X146045647Y-107467477D01*
X146073504Y-107415360D01*
X146090659Y-107358810D01*
X146096451Y-107300000D01*
X146096451Y-97401451D01*
X148095000Y-97401451D01*
X148153810Y-97395659D01*
X148195000Y-97383164D01*
X148236190Y-97395659D01*
X148295000Y-97401451D01*
X150293549Y-97401451D01*
X150293549Y-107300000D01*
X150299341Y-107358810D01*
X150316496Y-107415360D01*
X150344353Y-107467477D01*
X150381842Y-107513158D01*
X150427523Y-107550647D01*
X150479640Y-107578504D01*
X150536190Y-107595659D01*
X150595000Y-107601451D01*
X155395000Y-107601451D01*
X155453810Y-107595659D01*
X155510360Y-107578504D01*
X155562477Y-107550647D01*
X155608158Y-107513158D01*
X155645647Y-107467477D01*
X155673504Y-107415360D01*
X155690659Y-107358810D01*
X155696451Y-107300000D01*
X155696451Y-97401451D01*
X157695000Y-97401451D01*
X157753810Y-97395659D01*
X157795000Y-97383164D01*
X157836190Y-97395659D01*
X157895000Y-97401451D01*
X159893549Y-97401451D01*
X159893549Y-107300000D01*
X159899341Y-107358810D01*
X159916496Y-107415360D01*
X159944353Y-107467477D01*
X159981842Y-107513158D01*
X160027523Y-107550647D01*
X160079640Y-107578504D01*
X160136190Y-107595659D01*
X160195000Y-107601451D01*
X164995000Y-107601451D01*
X165053810Y-107595659D01*
X165110360Y-107578504D01*
X165162477Y-107550647D01*
X165208158Y-107513158D01*
X165245647Y-107467477D01*
X165273504Y-107415360D01*
X165290659Y-107358810D01*
X165296451Y-107300000D01*
X165296451Y-97401451D01*
X167295000Y-97401451D01*
X167353810Y-97395659D01*
X167395000Y-97383164D01*
X167436190Y-97395659D01*
X167495000Y-97401451D01*
X169493549Y-97401451D01*
X169493549Y-107300000D01*
X169499341Y-107358810D01*
X169516496Y-107415360D01*
X169544353Y-107467477D01*
X169581842Y-107513158D01*
X169627523Y-107550647D01*
X169679640Y-107578504D01*
X169736190Y-107595659D01*
X169795000Y-107601451D01*
X174595000Y-107601451D01*
X174653810Y-107595659D01*
X174710360Y-107578504D01*
X174762477Y-107550647D01*
X174808158Y-107513158D01*
X174845647Y-107467477D01*
X174873504Y-107415360D01*
X174890659Y-107358810D01*
X174896451Y-107300000D01*
X174896451Y-97401451D01*
X176895000Y-97401451D01*
X176953810Y-97395659D01*
X176995000Y-97383164D01*
X177036190Y-97395659D01*
X177095000Y-97401451D01*
X179093549Y-97401451D01*
X179093549Y-107300000D01*
X179099341Y-107358810D01*
X179116496Y-107415360D01*
X179144353Y-107467477D01*
X179181842Y-107513158D01*
X179227523Y-107550647D01*
X179279640Y-107578504D01*
X179336190Y-107595659D01*
X179395000Y-107601451D01*
X184195000Y-107601451D01*
X184253810Y-107595659D01*
X184310360Y-107578504D01*
X184362477Y-107550647D01*
X184408158Y-107513158D01*
X184445647Y-107467477D01*
X184473504Y-107415360D01*
X184490659Y-107358810D01*
X184496451Y-107300000D01*
X184496451Y-97401451D01*
X186495000Y-97401451D01*
X186553810Y-97395659D01*
X186595000Y-97383164D01*
X186636190Y-97395659D01*
X186695000Y-97401451D01*
X188693549Y-97401451D01*
X188693549Y-107300000D01*
X188699341Y-107358810D01*
X188716496Y-107415360D01*
X188744353Y-107467477D01*
X188781842Y-107513158D01*
X188827523Y-107550647D01*
X188879640Y-107578504D01*
X188936190Y-107595659D01*
X188995000Y-107601451D01*
X193795000Y-107601451D01*
X193853810Y-107595659D01*
X193910360Y-107578504D01*
X193962477Y-107550647D01*
X194008158Y-107513158D01*
X194045647Y-107467477D01*
X194073504Y-107415360D01*
X194090659Y-107358810D01*
X194096451Y-107300000D01*
X194096451Y-97401451D01*
X196095000Y-97401451D01*
X196153810Y-97395659D01*
X196195000Y-97383164D01*
X196236190Y-97395659D01*
X196295000Y-97401451D01*
X198293549Y-97401451D01*
X198293549Y-107300000D01*
X198299341Y-107358810D01*
X198316496Y-107415360D01*
X198344353Y-107467477D01*
X198381842Y-107513158D01*
X198427523Y-107550647D01*
X198479640Y-107578504D01*
X198536190Y-107595659D01*
X198595000Y-107601451D01*
X203395000Y-107601451D01*
X203453810Y-107595659D01*
X203510360Y-107578504D01*
X203562477Y-107550647D01*
X203608158Y-107513158D01*
X203645647Y-107467477D01*
X203673504Y-107415360D01*
X203690659Y-107358810D01*
X203696451Y-107300000D01*
X203696451Y-97401451D01*
X205695000Y-97401451D01*
X205753810Y-97395659D01*
X205795000Y-97383164D01*
X205836190Y-97395659D01*
X205895000Y-97401451D01*
X207893549Y-97401451D01*
X207893549Y-107300000D01*
X207899341Y-107358810D01*
X207916496Y-107415360D01*
X207944353Y-107467477D01*
X207981842Y-107513158D01*
X208027523Y-107550647D01*
X208079640Y-107578504D01*
X208136190Y-107595659D01*
X208195000Y-107601451D01*
X212995000Y-107601451D01*
X213053810Y-107595659D01*
X213110360Y-107578504D01*
X213162477Y-107550647D01*
X213208158Y-107513158D01*
X213245647Y-107467477D01*
X213273504Y-107415360D01*
X213290659Y-107358810D01*
X213296451Y-107300000D01*
X213296451Y-97401451D01*
X215295000Y-97401451D01*
X215353810Y-97395659D01*
X215395000Y-97383164D01*
X215436190Y-97395659D01*
X215495000Y-97401451D01*
X217493549Y-97401451D01*
X217493549Y-107300000D01*
X217499341Y-107358810D01*
X217516496Y-107415360D01*
X217544353Y-107467477D01*
X217581842Y-107513158D01*
X217627523Y-107550647D01*
X217679640Y-107578504D01*
X217736190Y-107595659D01*
X217795000Y-107601451D01*
X222595000Y-107601451D01*
X222653810Y-107595659D01*
X222710360Y-107578504D01*
X222762477Y-107550647D01*
X222808158Y-107513158D01*
X222845647Y-107467477D01*
X222873504Y-107415360D01*
X222890659Y-107358810D01*
X222896451Y-107300000D01*
X222896451Y-97401451D01*
X224895000Y-97401451D01*
X224953810Y-97395659D01*
X224995000Y-97383164D01*
X225036190Y-97395659D01*
X225095000Y-97401451D01*
X227093549Y-97401451D01*
X227093549Y-107300000D01*
X227099341Y-107358810D01*
X227116496Y-107415360D01*
X227144353Y-107467477D01*
X227181842Y-107513158D01*
X227227523Y-107550647D01*
X227279640Y-107578504D01*
X227336190Y-107595659D01*
X227395000Y-107601451D01*
X232195000Y-107601451D01*
X232253810Y-107595659D01*
X232310360Y-107578504D01*
X232362477Y-107550647D01*
X232408158Y-107513158D01*
X232445647Y-107467477D01*
X232473504Y-107415360D01*
X232490659Y-107358810D01*
X232496451Y-107300000D01*
X232496451Y-97401451D01*
X234495000Y-97401451D01*
X234553810Y-97395659D01*
X234595000Y-97383164D01*
X234636190Y-97395659D01*
X234695000Y-97401451D01*
X236693549Y-97401451D01*
X236693549Y-107300000D01*
X236699341Y-107358810D01*
X236716496Y-107415360D01*
X236744353Y-107467477D01*
X236781842Y-107513158D01*
X236827523Y-107550647D01*
X236879640Y-107578504D01*
X236936190Y-107595659D01*
X236995000Y-107601451D01*
X241795000Y-107601451D01*
X241853810Y-107595659D01*
X241910360Y-107578504D01*
X241962477Y-107550647D01*
X242008158Y-107513158D01*
X242045647Y-107467477D01*
X242073504Y-107415360D01*
X242090659Y-107358810D01*
X242096451Y-107300000D01*
X242096451Y-97401451D01*
X244095000Y-97401451D01*
X244153810Y-97395659D01*
X244195000Y-97383164D01*
X244236190Y-97395659D01*
X244295000Y-97401451D01*
X246293549Y-97401451D01*
X246293549Y-107300000D01*
X246299341Y-107358810D01*
X246316496Y-107415360D01*
X246344353Y-107467477D01*
X246381842Y-107513158D01*
X246427523Y-107550647D01*
X246479640Y-107578504D01*
X246536190Y-107595659D01*
X246595000Y-107601451D01*
X251395000Y-107601451D01*
X251453810Y-107595659D01*
X251510360Y-107578504D01*
X251562477Y-107550647D01*
X251608158Y-107513158D01*
X251645647Y-107467477D01*
X251673504Y-107415360D01*
X251690659Y-107358810D01*
X251696451Y-107300000D01*
X251696451Y-97401451D01*
X253695000Y-97401451D01*
X253753810Y-97395659D01*
X253810360Y-97378504D01*
X253862477Y-97350647D01*
X253908158Y-97313158D01*
X253945647Y-97267477D01*
X253973504Y-97215360D01*
X253990659Y-97158810D01*
X253996451Y-97100000D01*
X253996451Y-90700000D01*
X253990659Y-90641190D01*
X253973504Y-90584640D01*
X253945647Y-90532523D01*
X253908158Y-90486842D01*
X253862477Y-90449353D01*
X253810360Y-90421496D01*
X253753810Y-90404341D01*
X253695000Y-90398549D01*
X244295000Y-90398549D01*
X244236190Y-90404341D01*
X244195000Y-90416836D01*
X244153810Y-90404341D01*
X244095000Y-90398549D01*
X234695000Y-90398549D01*
X234636190Y-90404341D01*
X234595000Y-90416836D01*
X234553810Y-90404341D01*
X234495000Y-90398549D01*
X225095000Y-90398549D01*
X225036190Y-90404341D01*
X224995000Y-90416836D01*
X224953810Y-90404341D01*
X224895000Y-90398549D01*
X215495000Y-90398549D01*
X215436190Y-90404341D01*
X215395000Y-90416836D01*
X215353810Y-90404341D01*
X215295000Y-90398549D01*
X205895000Y-90398549D01*
X205836190Y-90404341D01*
X205795000Y-90416836D01*
X205753810Y-90404341D01*
X205695000Y-90398549D01*
X196295000Y-90398549D01*
X196236190Y-90404341D01*
X196195000Y-90416836D01*
X196153810Y-90404341D01*
X196095000Y-90398549D01*
X186695000Y-90398549D01*
X186636190Y-90404341D01*
X186595000Y-90416836D01*
X186553810Y-90404341D01*
X186495000Y-90398549D01*
X177095000Y-90398549D01*
X177036190Y-90404341D01*
X176995000Y-90416836D01*
X176953810Y-90404341D01*
X176895000Y-90398549D01*
X167495000Y-90398549D01*
X167436190Y-90404341D01*
X167395000Y-90416836D01*
X167353810Y-90404341D01*
X167295000Y-90398549D01*
X157895000Y-90398549D01*
X157836190Y-90404341D01*
X157795000Y-90416836D01*
X157753810Y-90404341D01*
X157695000Y-90398549D01*
X148295000Y-90398549D01*
X148236190Y-90404341D01*
X148195000Y-90416836D01*
X148153810Y-90404341D01*
X148095000Y-90398549D01*
X138695000Y-90398549D01*
X138636190Y-90404341D01*
X138595000Y-90416836D01*
X138553810Y-90404341D01*
X138495000Y-90398549D01*
X129095000Y-90398549D01*
X129036190Y-90404341D01*
X128995000Y-90416836D01*
X128953810Y-90404341D01*
X128895000Y-90398549D01*
X119495000Y-90398549D01*
X119436190Y-90404341D01*
X119395000Y-90416836D01*
X119353810Y-90404341D01*
X119295000Y-90398549D01*
X109895000Y-90398549D01*
X109836190Y-90404341D01*
X109795000Y-90416836D01*
X109753810Y-90404341D01*
X109695000Y-90398549D01*
X100295000Y-90398549D01*
X100236190Y-90404341D01*
X100195000Y-90416836D01*
X100153810Y-90404341D01*
X100095000Y-90398549D01*
X90695000Y-90398549D01*
X90636190Y-90404341D01*
X90595000Y-90416836D01*
X90553810Y-90404341D01*
X90495000Y-90398549D01*
X81095000Y-90398549D01*
X81036190Y-90404341D01*
X80995000Y-90416836D01*
X80953810Y-90404341D01*
X80895000Y-90398549D01*
X71495000Y-90398549D01*
X71436190Y-90404341D01*
X71395000Y-90416836D01*
X71353810Y-90404341D01*
X71295000Y-90398549D01*
X61895000Y-90398549D01*
X61836190Y-90404341D01*
X61795000Y-90416836D01*
X61753810Y-90404341D01*
X61695000Y-90398549D01*
X52295000Y-90398549D01*
X52236190Y-90404341D01*
X52195000Y-90416836D01*
X52153810Y-90404341D01*
X52095000Y-90398549D01*
X42695000Y-90398549D01*
X42636190Y-90404341D01*
X42579640Y-90421496D01*
X42527523Y-90449353D01*
X42481842Y-90486842D01*
X42444353Y-90532523D01*
X42416496Y-90584640D01*
X42399341Y-90641190D01*
X42393549Y-90700000D01*
X41325000Y-90700000D01*
X41325000Y-90325000D01*
X256469000Y-90325000D01*
X256469001Y-107675000D01*
G04 #@! TA.AperFunction,NonConductor*
D14*
G36*
X256469001Y-107675000D02*
G01*
X41325000Y-107675000D01*
X41325000Y-90700000D01*
X42393549Y-90700000D01*
X42393549Y-97100000D01*
X42399341Y-97158810D01*
X42416496Y-97215360D01*
X42444353Y-97267477D01*
X42481842Y-97313158D01*
X42527523Y-97350647D01*
X42579640Y-97378504D01*
X42636190Y-97395659D01*
X42695000Y-97401451D01*
X44693549Y-97401451D01*
X44693549Y-107300000D01*
X44699341Y-107358810D01*
X44716496Y-107415360D01*
X44744353Y-107467477D01*
X44781842Y-107513158D01*
X44827523Y-107550647D01*
X44879640Y-107578504D01*
X44936190Y-107595659D01*
X44995000Y-107601451D01*
X49795000Y-107601451D01*
X49853810Y-107595659D01*
X49910360Y-107578504D01*
X49962477Y-107550647D01*
X50008158Y-107513158D01*
X50045647Y-107467477D01*
X50073504Y-107415360D01*
X50090659Y-107358810D01*
X50096451Y-107300000D01*
X50096451Y-97401451D01*
X52095000Y-97401451D01*
X52153810Y-97395659D01*
X52195000Y-97383164D01*
X52236190Y-97395659D01*
X52295000Y-97401451D01*
X54293549Y-97401451D01*
X54293549Y-107300000D01*
X54299341Y-107358810D01*
X54316496Y-107415360D01*
X54344353Y-107467477D01*
X54381842Y-107513158D01*
X54427523Y-107550647D01*
X54479640Y-107578504D01*
X54536190Y-107595659D01*
X54595000Y-107601451D01*
X59395000Y-107601451D01*
X59453810Y-107595659D01*
X59510360Y-107578504D01*
X59562477Y-107550647D01*
X59608158Y-107513158D01*
X59645647Y-107467477D01*
X59673504Y-107415360D01*
X59690659Y-107358810D01*
X59696451Y-107300000D01*
X59696451Y-97401451D01*
X61695000Y-97401451D01*
X61753810Y-97395659D01*
X61795000Y-97383164D01*
X61836190Y-97395659D01*
X61895000Y-97401451D01*
X63893549Y-97401451D01*
X63893549Y-107300000D01*
X63899341Y-107358810D01*
X63916496Y-107415360D01*
X63944353Y-107467477D01*
X63981842Y-107513158D01*
X64027523Y-107550647D01*
X64079640Y-107578504D01*
X64136190Y-107595659D01*
X64195000Y-107601451D01*
X68995000Y-107601451D01*
X69053810Y-107595659D01*
X69110360Y-107578504D01*
X69162477Y-107550647D01*
X69208158Y-107513158D01*
X69245647Y-107467477D01*
X69273504Y-107415360D01*
X69290659Y-107358810D01*
X69296451Y-107300000D01*
X69296451Y-97401451D01*
X71295000Y-97401451D01*
X71353810Y-97395659D01*
X71395000Y-97383164D01*
X71436190Y-97395659D01*
X71495000Y-97401451D01*
X73493549Y-97401451D01*
X73493549Y-107300000D01*
X73499341Y-107358810D01*
X73516496Y-107415360D01*
X73544353Y-107467477D01*
X73581842Y-107513158D01*
X73627523Y-107550647D01*
X73679640Y-107578504D01*
X73736190Y-107595659D01*
X73795000Y-107601451D01*
X78595000Y-107601451D01*
X78653810Y-107595659D01*
X78710360Y-107578504D01*
X78762477Y-107550647D01*
X78808158Y-107513158D01*
X78845647Y-107467477D01*
X78873504Y-107415360D01*
X78890659Y-107358810D01*
X78896451Y-107300000D01*
X78896451Y-97401451D01*
X80895000Y-97401451D01*
X80953810Y-97395659D01*
X80995000Y-97383164D01*
X81036190Y-97395659D01*
X81095000Y-97401451D01*
X83093549Y-97401451D01*
X83093549Y-107300000D01*
X83099341Y-107358810D01*
X83116496Y-107415360D01*
X83144353Y-107467477D01*
X83181842Y-107513158D01*
X83227523Y-107550647D01*
X83279640Y-107578504D01*
X83336190Y-107595659D01*
X83395000Y-107601451D01*
X88195000Y-107601451D01*
X88253810Y-107595659D01*
X88310360Y-107578504D01*
X88362477Y-107550647D01*
X88408158Y-107513158D01*
X88445647Y-107467477D01*
X88473504Y-107415360D01*
X88490659Y-107358810D01*
X88496451Y-107300000D01*
X88496451Y-97401451D01*
X90495000Y-97401451D01*
X90553810Y-97395659D01*
X90595000Y-97383164D01*
X90636190Y-97395659D01*
X90695000Y-97401451D01*
X92693549Y-97401451D01*
X92693549Y-107300000D01*
X92699341Y-107358810D01*
X92716496Y-107415360D01*
X92744353Y-107467477D01*
X92781842Y-107513158D01*
X92827523Y-107550647D01*
X92879640Y-107578504D01*
X92936190Y-107595659D01*
X92995000Y-107601451D01*
X97795000Y-107601451D01*
X97853810Y-107595659D01*
X97910360Y-107578504D01*
X97962477Y-107550647D01*
X98008158Y-107513158D01*
X98045647Y-107467477D01*
X98073504Y-107415360D01*
X98090659Y-107358810D01*
X98096451Y-107300000D01*
X98096451Y-97401451D01*
X100095000Y-97401451D01*
X100153810Y-97395659D01*
X100195000Y-97383164D01*
X100236190Y-97395659D01*
X100295000Y-97401451D01*
X102293549Y-97401451D01*
X102293549Y-107300000D01*
X102299341Y-107358810D01*
X102316496Y-107415360D01*
X102344353Y-107467477D01*
X102381842Y-107513158D01*
X102427523Y-107550647D01*
X102479640Y-107578504D01*
X102536190Y-107595659D01*
X102595000Y-107601451D01*
X107395000Y-107601451D01*
X107453810Y-107595659D01*
X107510360Y-107578504D01*
X107562477Y-107550647D01*
X107608158Y-107513158D01*
X107645647Y-107467477D01*
X107673504Y-107415360D01*
X107690659Y-107358810D01*
X107696451Y-107300000D01*
X107696451Y-97401451D01*
X109695000Y-97401451D01*
X109753810Y-97395659D01*
X109795000Y-97383164D01*
X109836190Y-97395659D01*
X109895000Y-97401451D01*
X111893549Y-97401451D01*
X111893549Y-107300000D01*
X111899341Y-107358810D01*
X111916496Y-107415360D01*
X111944353Y-107467477D01*
X111981842Y-107513158D01*
X112027523Y-107550647D01*
X112079640Y-107578504D01*
X112136190Y-107595659D01*
X112195000Y-107601451D01*
X116995000Y-107601451D01*
X117053810Y-107595659D01*
X117110360Y-107578504D01*
X117162477Y-107550647D01*
X117208158Y-107513158D01*
X117245647Y-107467477D01*
X117273504Y-107415360D01*
X117290659Y-107358810D01*
X117296451Y-107300000D01*
X117296451Y-97401451D01*
X119295000Y-97401451D01*
X119353810Y-97395659D01*
X119395000Y-97383164D01*
X119436190Y-97395659D01*
X119495000Y-97401451D01*
X121493549Y-97401451D01*
X121493549Y-107300000D01*
X121499341Y-107358810D01*
X121516496Y-107415360D01*
X121544353Y-107467477D01*
X121581842Y-107513158D01*
X121627523Y-107550647D01*
X121679640Y-107578504D01*
X121736190Y-107595659D01*
X121795000Y-107601451D01*
X126595000Y-107601451D01*
X126653810Y-107595659D01*
X126710360Y-107578504D01*
X126762477Y-107550647D01*
X126808158Y-107513158D01*
X126845647Y-107467477D01*
X126873504Y-107415360D01*
X126890659Y-107358810D01*
X126896451Y-107300000D01*
X126896451Y-97401451D01*
X128895000Y-97401451D01*
X128953810Y-97395659D01*
X128995000Y-97383164D01*
X129036190Y-97395659D01*
X129095000Y-97401451D01*
X131093549Y-97401451D01*
X131093549Y-107300000D01*
X131099341Y-107358810D01*
X131116496Y-107415360D01*
X131144353Y-107467477D01*
X131181842Y-107513158D01*
X131227523Y-107550647D01*
X131279640Y-107578504D01*
X131336190Y-107595659D01*
X131395000Y-107601451D01*
X136195000Y-107601451D01*
X136253810Y-107595659D01*
X136310360Y-107578504D01*
X136362477Y-107550647D01*
X136408158Y-107513158D01*
X136445647Y-107467477D01*
X136473504Y-107415360D01*
X136490659Y-107358810D01*
X136496451Y-107300000D01*
X136496451Y-97401451D01*
X138495000Y-97401451D01*
X138553810Y-97395659D01*
X138595000Y-97383164D01*
X138636190Y-97395659D01*
X138695000Y-97401451D01*
X140693549Y-97401451D01*
X140693549Y-107300000D01*
X140699341Y-107358810D01*
X140716496Y-107415360D01*
X140744353Y-107467477D01*
X140781842Y-107513158D01*
X140827523Y-107550647D01*
X140879640Y-107578504D01*
X140936190Y-107595659D01*
X140995000Y-107601451D01*
X145795000Y-107601451D01*
X145853810Y-107595659D01*
X145910360Y-107578504D01*
X145962477Y-107550647D01*
X146008158Y-107513158D01*
X146045647Y-107467477D01*
X146073504Y-107415360D01*
X146090659Y-107358810D01*
X146096451Y-107300000D01*
X146096451Y-97401451D01*
X148095000Y-97401451D01*
X148153810Y-97395659D01*
X148195000Y-97383164D01*
X148236190Y-97395659D01*
X148295000Y-97401451D01*
X150293549Y-97401451D01*
X150293549Y-107300000D01*
X150299341Y-107358810D01*
X150316496Y-107415360D01*
X150344353Y-107467477D01*
X150381842Y-107513158D01*
X150427523Y-107550647D01*
X150479640Y-107578504D01*
X150536190Y-107595659D01*
X150595000Y-107601451D01*
X155395000Y-107601451D01*
X155453810Y-107595659D01*
X155510360Y-107578504D01*
X155562477Y-107550647D01*
X155608158Y-107513158D01*
X155645647Y-107467477D01*
X155673504Y-107415360D01*
X155690659Y-107358810D01*
X155696451Y-107300000D01*
X155696451Y-97401451D01*
X157695000Y-97401451D01*
X157753810Y-97395659D01*
X157795000Y-97383164D01*
X157836190Y-97395659D01*
X157895000Y-97401451D01*
X159893549Y-97401451D01*
X159893549Y-107300000D01*
X159899341Y-107358810D01*
X159916496Y-107415360D01*
X159944353Y-107467477D01*
X159981842Y-107513158D01*
X160027523Y-107550647D01*
X160079640Y-107578504D01*
X160136190Y-107595659D01*
X160195000Y-107601451D01*
X164995000Y-107601451D01*
X165053810Y-107595659D01*
X165110360Y-107578504D01*
X165162477Y-107550647D01*
X165208158Y-107513158D01*
X165245647Y-107467477D01*
X165273504Y-107415360D01*
X165290659Y-107358810D01*
X165296451Y-107300000D01*
X165296451Y-97401451D01*
X167295000Y-97401451D01*
X167353810Y-97395659D01*
X167395000Y-97383164D01*
X167436190Y-97395659D01*
X167495000Y-97401451D01*
X169493549Y-97401451D01*
X169493549Y-107300000D01*
X169499341Y-107358810D01*
X169516496Y-107415360D01*
X169544353Y-107467477D01*
X169581842Y-107513158D01*
X169627523Y-107550647D01*
X169679640Y-107578504D01*
X169736190Y-107595659D01*
X169795000Y-107601451D01*
X174595000Y-107601451D01*
X174653810Y-107595659D01*
X174710360Y-107578504D01*
X174762477Y-107550647D01*
X174808158Y-107513158D01*
X174845647Y-107467477D01*
X174873504Y-107415360D01*
X174890659Y-107358810D01*
X174896451Y-107300000D01*
X174896451Y-97401451D01*
X176895000Y-97401451D01*
X176953810Y-97395659D01*
X176995000Y-97383164D01*
X177036190Y-97395659D01*
X177095000Y-97401451D01*
X179093549Y-97401451D01*
X179093549Y-107300000D01*
X179099341Y-107358810D01*
X179116496Y-107415360D01*
X179144353Y-107467477D01*
X179181842Y-107513158D01*
X179227523Y-107550647D01*
X179279640Y-107578504D01*
X179336190Y-107595659D01*
X179395000Y-107601451D01*
X184195000Y-107601451D01*
X184253810Y-107595659D01*
X184310360Y-107578504D01*
X184362477Y-107550647D01*
X184408158Y-107513158D01*
X184445647Y-107467477D01*
X184473504Y-107415360D01*
X184490659Y-107358810D01*
X184496451Y-107300000D01*
X184496451Y-97401451D01*
X186495000Y-97401451D01*
X186553810Y-97395659D01*
X186595000Y-97383164D01*
X186636190Y-97395659D01*
X186695000Y-97401451D01*
X188693549Y-97401451D01*
X188693549Y-107300000D01*
X188699341Y-107358810D01*
X188716496Y-107415360D01*
X188744353Y-107467477D01*
X188781842Y-107513158D01*
X188827523Y-107550647D01*
X188879640Y-107578504D01*
X188936190Y-107595659D01*
X188995000Y-107601451D01*
X193795000Y-107601451D01*
X193853810Y-107595659D01*
X193910360Y-107578504D01*
X193962477Y-107550647D01*
X194008158Y-107513158D01*
X194045647Y-107467477D01*
X194073504Y-107415360D01*
X194090659Y-107358810D01*
X194096451Y-107300000D01*
X194096451Y-97401451D01*
X196095000Y-97401451D01*
X196153810Y-97395659D01*
X196195000Y-97383164D01*
X196236190Y-97395659D01*
X196295000Y-97401451D01*
X198293549Y-97401451D01*
X198293549Y-107300000D01*
X198299341Y-107358810D01*
X198316496Y-107415360D01*
X198344353Y-107467477D01*
X198381842Y-107513158D01*
X198427523Y-107550647D01*
X198479640Y-107578504D01*
X198536190Y-107595659D01*
X198595000Y-107601451D01*
X203395000Y-107601451D01*
X203453810Y-107595659D01*
X203510360Y-107578504D01*
X203562477Y-107550647D01*
X203608158Y-107513158D01*
X203645647Y-107467477D01*
X203673504Y-107415360D01*
X203690659Y-107358810D01*
X203696451Y-107300000D01*
X203696451Y-97401451D01*
X205695000Y-97401451D01*
X205753810Y-97395659D01*
X205795000Y-97383164D01*
X205836190Y-97395659D01*
X205895000Y-97401451D01*
X207893549Y-97401451D01*
X207893549Y-107300000D01*
X207899341Y-107358810D01*
X207916496Y-107415360D01*
X207944353Y-107467477D01*
X207981842Y-107513158D01*
X208027523Y-107550647D01*
X208079640Y-107578504D01*
X208136190Y-107595659D01*
X208195000Y-107601451D01*
X212995000Y-107601451D01*
X213053810Y-107595659D01*
X213110360Y-107578504D01*
X213162477Y-107550647D01*
X213208158Y-107513158D01*
X213245647Y-107467477D01*
X213273504Y-107415360D01*
X213290659Y-107358810D01*
X213296451Y-107300000D01*
X213296451Y-97401451D01*
X215295000Y-97401451D01*
X215353810Y-97395659D01*
X215395000Y-97383164D01*
X215436190Y-97395659D01*
X215495000Y-97401451D01*
X217493549Y-97401451D01*
X217493549Y-107300000D01*
X217499341Y-107358810D01*
X217516496Y-107415360D01*
X217544353Y-107467477D01*
X217581842Y-107513158D01*
X217627523Y-107550647D01*
X217679640Y-107578504D01*
X217736190Y-107595659D01*
X217795000Y-107601451D01*
X222595000Y-107601451D01*
X222653810Y-107595659D01*
X222710360Y-107578504D01*
X222762477Y-107550647D01*
X222808158Y-107513158D01*
X222845647Y-107467477D01*
X222873504Y-107415360D01*
X222890659Y-107358810D01*
X222896451Y-107300000D01*
X222896451Y-97401451D01*
X224895000Y-97401451D01*
X224953810Y-97395659D01*
X224995000Y-97383164D01*
X225036190Y-97395659D01*
X225095000Y-97401451D01*
X227093549Y-97401451D01*
X227093549Y-107300000D01*
X227099341Y-107358810D01*
X227116496Y-107415360D01*
X227144353Y-107467477D01*
X227181842Y-107513158D01*
X227227523Y-107550647D01*
X227279640Y-107578504D01*
X227336190Y-107595659D01*
X227395000Y-107601451D01*
X232195000Y-107601451D01*
X232253810Y-107595659D01*
X232310360Y-107578504D01*
X232362477Y-107550647D01*
X232408158Y-107513158D01*
X232445647Y-107467477D01*
X232473504Y-107415360D01*
X232490659Y-107358810D01*
X232496451Y-107300000D01*
X232496451Y-97401451D01*
X234495000Y-97401451D01*
X234553810Y-97395659D01*
X234595000Y-97383164D01*
X234636190Y-97395659D01*
X234695000Y-97401451D01*
X236693549Y-97401451D01*
X236693549Y-107300000D01*
X236699341Y-107358810D01*
X236716496Y-107415360D01*
X236744353Y-107467477D01*
X236781842Y-107513158D01*
X236827523Y-107550647D01*
X236879640Y-107578504D01*
X236936190Y-107595659D01*
X236995000Y-107601451D01*
X241795000Y-107601451D01*
X241853810Y-107595659D01*
X241910360Y-107578504D01*
X241962477Y-107550647D01*
X242008158Y-107513158D01*
X242045647Y-107467477D01*
X242073504Y-107415360D01*
X242090659Y-107358810D01*
X242096451Y-107300000D01*
X242096451Y-97401451D01*
X244095000Y-97401451D01*
X244153810Y-97395659D01*
X244195000Y-97383164D01*
X244236190Y-97395659D01*
X244295000Y-97401451D01*
X246293549Y-97401451D01*
X246293549Y-107300000D01*
X246299341Y-107358810D01*
X246316496Y-107415360D01*
X246344353Y-107467477D01*
X246381842Y-107513158D01*
X246427523Y-107550647D01*
X246479640Y-107578504D01*
X246536190Y-107595659D01*
X246595000Y-107601451D01*
X251395000Y-107601451D01*
X251453810Y-107595659D01*
X251510360Y-107578504D01*
X251562477Y-107550647D01*
X251608158Y-107513158D01*
X251645647Y-107467477D01*
X251673504Y-107415360D01*
X251690659Y-107358810D01*
X251696451Y-107300000D01*
X251696451Y-97401451D01*
X253695000Y-97401451D01*
X253753810Y-97395659D01*
X253810360Y-97378504D01*
X253862477Y-97350647D01*
X253908158Y-97313158D01*
X253945647Y-97267477D01*
X253973504Y-97215360D01*
X253990659Y-97158810D01*
X253996451Y-97100000D01*
X253996451Y-90700000D01*
X253990659Y-90641190D01*
X253973504Y-90584640D01*
X253945647Y-90532523D01*
X253908158Y-90486842D01*
X253862477Y-90449353D01*
X253810360Y-90421496D01*
X253753810Y-90404341D01*
X253695000Y-90398549D01*
X244295000Y-90398549D01*
X244236190Y-90404341D01*
X244195000Y-90416836D01*
X244153810Y-90404341D01*
X244095000Y-90398549D01*
X234695000Y-90398549D01*
X234636190Y-90404341D01*
X234595000Y-90416836D01*
X234553810Y-90404341D01*
X234495000Y-90398549D01*
X225095000Y-90398549D01*
X225036190Y-90404341D01*
X224995000Y-90416836D01*
X224953810Y-90404341D01*
X224895000Y-90398549D01*
X215495000Y-90398549D01*
X215436190Y-90404341D01*
X215395000Y-90416836D01*
X215353810Y-90404341D01*
X215295000Y-90398549D01*
X205895000Y-90398549D01*
X205836190Y-90404341D01*
X205795000Y-90416836D01*
X205753810Y-90404341D01*
X205695000Y-90398549D01*
X196295000Y-90398549D01*
X196236190Y-90404341D01*
X196195000Y-90416836D01*
X196153810Y-90404341D01*
X196095000Y-90398549D01*
X186695000Y-90398549D01*
X186636190Y-90404341D01*
X186595000Y-90416836D01*
X186553810Y-90404341D01*
X186495000Y-90398549D01*
X177095000Y-90398549D01*
X177036190Y-90404341D01*
X176995000Y-90416836D01*
X176953810Y-90404341D01*
X176895000Y-90398549D01*
X167495000Y-90398549D01*
X167436190Y-90404341D01*
X167395000Y-90416836D01*
X167353810Y-90404341D01*
X167295000Y-90398549D01*
X157895000Y-90398549D01*
X157836190Y-90404341D01*
X157795000Y-90416836D01*
X157753810Y-90404341D01*
X157695000Y-90398549D01*
X148295000Y-90398549D01*
X148236190Y-90404341D01*
X148195000Y-90416836D01*
X148153810Y-90404341D01*
X148095000Y-90398549D01*
X138695000Y-90398549D01*
X138636190Y-90404341D01*
X138595000Y-90416836D01*
X138553810Y-90404341D01*
X138495000Y-90398549D01*
X129095000Y-90398549D01*
X129036190Y-90404341D01*
X128995000Y-90416836D01*
X128953810Y-90404341D01*
X128895000Y-90398549D01*
X119495000Y-90398549D01*
X119436190Y-90404341D01*
X119395000Y-90416836D01*
X119353810Y-90404341D01*
X119295000Y-90398549D01*
X109895000Y-90398549D01*
X109836190Y-90404341D01*
X109795000Y-90416836D01*
X109753810Y-90404341D01*
X109695000Y-90398549D01*
X100295000Y-90398549D01*
X100236190Y-90404341D01*
X100195000Y-90416836D01*
X100153810Y-90404341D01*
X100095000Y-90398549D01*
X90695000Y-90398549D01*
X90636190Y-90404341D01*
X90595000Y-90416836D01*
X90553810Y-90404341D01*
X90495000Y-90398549D01*
X81095000Y-90398549D01*
X81036190Y-90404341D01*
X80995000Y-90416836D01*
X80953810Y-90404341D01*
X80895000Y-90398549D01*
X71495000Y-90398549D01*
X71436190Y-90404341D01*
X71395000Y-90416836D01*
X71353810Y-90404341D01*
X71295000Y-90398549D01*
X61895000Y-90398549D01*
X61836190Y-90404341D01*
X61795000Y-90416836D01*
X61753810Y-90404341D01*
X61695000Y-90398549D01*
X52295000Y-90398549D01*
X52236190Y-90404341D01*
X52195000Y-90416836D01*
X52153810Y-90404341D01*
X52095000Y-90398549D01*
X42695000Y-90398549D01*
X42636190Y-90404341D01*
X42579640Y-90421496D01*
X42527523Y-90449353D01*
X42481842Y-90486842D01*
X42444353Y-90532523D01*
X42416496Y-90584640D01*
X42399341Y-90641190D01*
X42393549Y-90700000D01*
X41325000Y-90700000D01*
X41325000Y-90325000D01*
X256469000Y-90325000D01*
X256469001Y-107675000D01*
G37*
G04 #@! TD.AperFunction*
M02*
