%FSLAX45Y45*%
G04 Gerber Fmt 4.5, Leading zero omitted, Abs format (unit mm)*
G04 Created by KiCad (PCBNEW (5.1.12)-1) date 2024-09-15 14:26:26*
%MOMM*%
%LPD*%
G01*
G04 APERTURE LIST*
%TA.AperFunction,Profile*%
%ADD10C,0.050000*%
%TD*%
%ADD11C,0.200000*%
%ADD12C,0.300000*%
G04 APERTURE END LIST*
D10*
X19373500Y-12585600D02*
G75*
G03*
X19373500Y-12585600I-210000J0D01*
G01*
X12413500Y-12585600D02*
G75*
G03*
X12413500Y-12585600I-210000J0D01*
G01*
X11877000Y-8700000D02*
G75*
G03*
X11877000Y-8700000I-210000J0D01*
G01*
X19910000Y-8700000D02*
G75*
G03*
X19910000Y-8700000I-210000J0D01*
G01*
X20367000Y-12979400D02*
X20367000Y-8300000D01*
X11000000Y-8300000D02*
X20367000Y-8300000D01*
X11000000Y-12979400D02*
X11000000Y-8300000D01*
X20367000Y-12979400D02*
X11000000Y-12979400D01*
D11*
X15363300Y-8888900D02*
X15428300Y-8953900D01*
X15428300Y-8888900D02*
X15363300Y-8953900D01*
X15941300Y-8888900D02*
X16006300Y-8953900D01*
X16006300Y-8888900D02*
X15941300Y-8953900D01*
D12*
X11283928Y-13447614D02*
X11283928Y-13147614D01*
X11355357Y-13147614D01*
X11398214Y-13161900D01*
X11426786Y-13190471D01*
X11441071Y-13219043D01*
X11455357Y-13276186D01*
X11455357Y-13319043D01*
X11441071Y-13376186D01*
X11426786Y-13404757D01*
X11398214Y-13433329D01*
X11355357Y-13447614D01*
X11283928Y-13447614D01*
X11583928Y-13447614D02*
X11583928Y-13247614D01*
X11583928Y-13304757D02*
X11598214Y-13276186D01*
X11612500Y-13261900D01*
X11641071Y-13247614D01*
X11669643Y-13247614D01*
X11769643Y-13447614D02*
X11769643Y-13247614D01*
X11769643Y-13147614D02*
X11755357Y-13161900D01*
X11769643Y-13176186D01*
X11783928Y-13161900D01*
X11769643Y-13147614D01*
X11769643Y-13176186D01*
X11955357Y-13447614D02*
X11926786Y-13433329D01*
X11912500Y-13404757D01*
X11912500Y-13147614D01*
X12112500Y-13447614D02*
X12083928Y-13433329D01*
X12069643Y-13404757D01*
X12069643Y-13147614D01*
X12455357Y-13447614D02*
X12455357Y-13147614D01*
X12555357Y-13361900D01*
X12655357Y-13147614D01*
X12655357Y-13447614D01*
X12926786Y-13447614D02*
X12926786Y-13290471D01*
X12912500Y-13261900D01*
X12883928Y-13247614D01*
X12826786Y-13247614D01*
X12798214Y-13261900D01*
X12926786Y-13433329D02*
X12898214Y-13447614D01*
X12826786Y-13447614D01*
X12798214Y-13433329D01*
X12783928Y-13404757D01*
X12783928Y-13376186D01*
X12798214Y-13347614D01*
X12826786Y-13333329D01*
X12898214Y-13333329D01*
X12926786Y-13319043D01*
X13069643Y-13247614D02*
X13069643Y-13547614D01*
X13069643Y-13261900D02*
X13098214Y-13247614D01*
X13155357Y-13247614D01*
X13183928Y-13261900D01*
X13198214Y-13276186D01*
X13212500Y-13304757D01*
X13212500Y-13390471D01*
X13198214Y-13419043D01*
X13183928Y-13433329D01*
X13155357Y-13447614D01*
X13098214Y-13447614D01*
X13069643Y-13433329D01*
X13341071Y-13419043D02*
X13355357Y-13433329D01*
X13341071Y-13447614D01*
X13326786Y-13433329D01*
X13341071Y-13419043D01*
X13341071Y-13447614D01*
X13341071Y-13261900D02*
X13355357Y-13276186D01*
X13341071Y-13290471D01*
X13326786Y-13276186D01*
X13341071Y-13261900D01*
X13341071Y-13290471D01*
X10932500Y-13909400D02*
X10997500Y-13974400D01*
X10997500Y-13909400D02*
X10932500Y-13974400D01*
X11341071Y-13777614D02*
X11369643Y-13777614D01*
X11398214Y-13791900D01*
X11412500Y-13806186D01*
X11426786Y-13834757D01*
X11441071Y-13891900D01*
X11441071Y-13963329D01*
X11426786Y-14020471D01*
X11412500Y-14049043D01*
X11398214Y-14063329D01*
X11369643Y-14077614D01*
X11341071Y-14077614D01*
X11312500Y-14063329D01*
X11298214Y-14049043D01*
X11283928Y-14020471D01*
X11269643Y-13963329D01*
X11269643Y-13891900D01*
X11283928Y-13834757D01*
X11298214Y-13806186D01*
X11312500Y-13791900D01*
X11341071Y-13777614D01*
X11569643Y-14049043D02*
X11583928Y-14063329D01*
X11569643Y-14077614D01*
X11555357Y-14063329D01*
X11569643Y-14049043D01*
X11569643Y-14077614D01*
X11841071Y-13777614D02*
X11783928Y-13777614D01*
X11755357Y-13791900D01*
X11741071Y-13806186D01*
X11712500Y-13849043D01*
X11698214Y-13906186D01*
X11698214Y-14020471D01*
X11712500Y-14049043D01*
X11726786Y-14063329D01*
X11755357Y-14077614D01*
X11812500Y-14077614D01*
X11841071Y-14063329D01*
X11855357Y-14049043D01*
X11869643Y-14020471D01*
X11869643Y-13949043D01*
X11855357Y-13920471D01*
X11841071Y-13906186D01*
X11812500Y-13891900D01*
X11755357Y-13891900D01*
X11726786Y-13906186D01*
X11712500Y-13920471D01*
X11698214Y-13949043D01*
X12141071Y-13777614D02*
X11998214Y-13777614D01*
X11983928Y-13920471D01*
X11998214Y-13906186D01*
X12026786Y-13891900D01*
X12098214Y-13891900D01*
X12126786Y-13906186D01*
X12141071Y-13920471D01*
X12155357Y-13949043D01*
X12155357Y-14020471D01*
X12141071Y-14049043D01*
X12126786Y-14063329D01*
X12098214Y-14077614D01*
X12026786Y-14077614D01*
X11998214Y-14063329D01*
X11983928Y-14049043D01*
X12341071Y-13777614D02*
X12369643Y-13777614D01*
X12398214Y-13791900D01*
X12412500Y-13806186D01*
X12426786Y-13834757D01*
X12441071Y-13891900D01*
X12441071Y-13963329D01*
X12426786Y-14020471D01*
X12412500Y-14049043D01*
X12398214Y-14063329D01*
X12369643Y-14077614D01*
X12341071Y-14077614D01*
X12312500Y-14063329D01*
X12298214Y-14049043D01*
X12283928Y-14020471D01*
X12269643Y-13963329D01*
X12269643Y-13891900D01*
X12283928Y-13834757D01*
X12298214Y-13806186D01*
X12312500Y-13791900D01*
X12341071Y-13777614D01*
X12569643Y-14077614D02*
X12569643Y-13877614D01*
X12569643Y-13906186D02*
X12583928Y-13891900D01*
X12612500Y-13877614D01*
X12655357Y-13877614D01*
X12683928Y-13891900D01*
X12698214Y-13920471D01*
X12698214Y-14077614D01*
X12698214Y-13920471D02*
X12712500Y-13891900D01*
X12741071Y-13877614D01*
X12783928Y-13877614D01*
X12812500Y-13891900D01*
X12826786Y-13920471D01*
X12826786Y-14077614D01*
X12969643Y-14077614D02*
X12969643Y-13877614D01*
X12969643Y-13906186D02*
X12983928Y-13891900D01*
X13012500Y-13877614D01*
X13055357Y-13877614D01*
X13083928Y-13891900D01*
X13098214Y-13920471D01*
X13098214Y-14077614D01*
X13098214Y-13920471D02*
X13112500Y-13891900D01*
X13141071Y-13877614D01*
X13183928Y-13877614D01*
X13212500Y-13891900D01*
X13226786Y-13920471D01*
X13226786Y-14077614D01*
X13812500Y-13763329D02*
X13555357Y-14149043D01*
X14198214Y-13777614D02*
X14226786Y-13777614D01*
X14255357Y-13791900D01*
X14269643Y-13806186D01*
X14283928Y-13834757D01*
X14298214Y-13891900D01*
X14298214Y-13963329D01*
X14283928Y-14020471D01*
X14269643Y-14049043D01*
X14255357Y-14063329D01*
X14226786Y-14077614D01*
X14198214Y-14077614D01*
X14169643Y-14063329D01*
X14155357Y-14049043D01*
X14141071Y-14020471D01*
X14126786Y-13963329D01*
X14126786Y-13891900D01*
X14141071Y-13834757D01*
X14155357Y-13806186D01*
X14169643Y-13791900D01*
X14198214Y-13777614D01*
X14426786Y-14049043D02*
X14441071Y-14063329D01*
X14426786Y-14077614D01*
X14412500Y-14063329D01*
X14426786Y-14049043D01*
X14426786Y-14077614D01*
X14626786Y-13777614D02*
X14655357Y-13777614D01*
X14683928Y-13791900D01*
X14698214Y-13806186D01*
X14712500Y-13834757D01*
X14726786Y-13891900D01*
X14726786Y-13963329D01*
X14712500Y-14020471D01*
X14698214Y-14049043D01*
X14683928Y-14063329D01*
X14655357Y-14077614D01*
X14626786Y-14077614D01*
X14598214Y-14063329D01*
X14583928Y-14049043D01*
X14569643Y-14020471D01*
X14555357Y-13963329D01*
X14555357Y-13891900D01*
X14569643Y-13834757D01*
X14583928Y-13806186D01*
X14598214Y-13791900D01*
X14626786Y-13777614D01*
X14841071Y-13806186D02*
X14855357Y-13791900D01*
X14883928Y-13777614D01*
X14955357Y-13777614D01*
X14983928Y-13791900D01*
X14998214Y-13806186D01*
X15012500Y-13834757D01*
X15012500Y-13863329D01*
X14998214Y-13906186D01*
X14826786Y-14077614D01*
X15012500Y-14077614D01*
X15283928Y-13777614D02*
X15141071Y-13777614D01*
X15126786Y-13920471D01*
X15141071Y-13906186D01*
X15169643Y-13891900D01*
X15241071Y-13891900D01*
X15269643Y-13906186D01*
X15283928Y-13920471D01*
X15298214Y-13949043D01*
X15298214Y-14020471D01*
X15283928Y-14049043D01*
X15269643Y-14063329D01*
X15241071Y-14077614D01*
X15169643Y-14077614D01*
X15141071Y-14063329D01*
X15126786Y-14049043D01*
X15555357Y-13777614D02*
X15498214Y-13777614D01*
X15469643Y-13791900D01*
X15455357Y-13806186D01*
X15426786Y-13849043D01*
X15412500Y-13906186D01*
X15412500Y-14020471D01*
X15426786Y-14049043D01*
X15441071Y-14063329D01*
X15469643Y-14077614D01*
X15526786Y-14077614D01*
X15555357Y-14063329D01*
X15569643Y-14049043D01*
X15583928Y-14020471D01*
X15583928Y-13949043D01*
X15569643Y-13920471D01*
X15555357Y-13906186D01*
X15526786Y-13891900D01*
X15469643Y-13891900D01*
X15441071Y-13906186D01*
X15426786Y-13920471D01*
X15412500Y-13949043D01*
X15698214Y-13777614D02*
X15698214Y-13834757D01*
X15812500Y-13777614D02*
X15812500Y-13834757D01*
X16255357Y-14191900D02*
X16241071Y-14177614D01*
X16212500Y-14134757D01*
X16198214Y-14106186D01*
X16183928Y-14063329D01*
X16169643Y-13991900D01*
X16169643Y-13934757D01*
X16183928Y-13863329D01*
X16198214Y-13820471D01*
X16212500Y-13791900D01*
X16241071Y-13749043D01*
X16255357Y-13734757D01*
X16355357Y-13806186D02*
X16369643Y-13791900D01*
X16398214Y-13777614D01*
X16469643Y-13777614D01*
X16498214Y-13791900D01*
X16512500Y-13806186D01*
X16526786Y-13834757D01*
X16526786Y-13863329D01*
X16512500Y-13906186D01*
X16341071Y-14077614D01*
X16526786Y-14077614D01*
X16883928Y-14077614D02*
X16883928Y-13777614D01*
X17012500Y-14077614D02*
X17012500Y-13920471D01*
X16998214Y-13891900D01*
X16969643Y-13877614D01*
X16926786Y-13877614D01*
X16898214Y-13891900D01*
X16883928Y-13906186D01*
X17198214Y-14077614D02*
X17169643Y-14063329D01*
X17155357Y-14049043D01*
X17141071Y-14020471D01*
X17141071Y-13934757D01*
X17155357Y-13906186D01*
X17169643Y-13891900D01*
X17198214Y-13877614D01*
X17241071Y-13877614D01*
X17269643Y-13891900D01*
X17283928Y-13906186D01*
X17298214Y-13934757D01*
X17298214Y-14020471D01*
X17283928Y-14049043D01*
X17269643Y-14063329D01*
X17241071Y-14077614D01*
X17198214Y-14077614D01*
X17469643Y-14077614D02*
X17441071Y-14063329D01*
X17426786Y-14034757D01*
X17426786Y-13777614D01*
X17698214Y-14063329D02*
X17669643Y-14077614D01*
X17612500Y-14077614D01*
X17583928Y-14063329D01*
X17569643Y-14034757D01*
X17569643Y-13920471D01*
X17583928Y-13891900D01*
X17612500Y-13877614D01*
X17669643Y-13877614D01*
X17698214Y-13891900D01*
X17712500Y-13920471D01*
X17712500Y-13949043D01*
X17569643Y-13977614D01*
X17826786Y-14063329D02*
X17855357Y-14077614D01*
X17912500Y-14077614D01*
X17941071Y-14063329D01*
X17955357Y-14034757D01*
X17955357Y-14020471D01*
X17941071Y-13991900D01*
X17912500Y-13977614D01*
X17869643Y-13977614D01*
X17841071Y-13963329D01*
X17826786Y-13934757D01*
X17826786Y-13920471D01*
X17841071Y-13891900D01*
X17869643Y-13877614D01*
X17912500Y-13877614D01*
X17941071Y-13891900D01*
X18055357Y-14191900D02*
X18069643Y-14177614D01*
X18098214Y-14134757D01*
X18112500Y-14106186D01*
X18126786Y-14063329D01*
X18141071Y-13991900D01*
X18141071Y-13934757D01*
X18126786Y-13863329D01*
X18112500Y-13820471D01*
X18098214Y-13791900D01*
X18069643Y-13749043D01*
X18055357Y-13734757D01*
X18598214Y-14191900D02*
X18583928Y-14177614D01*
X18555357Y-14134757D01*
X18541071Y-14106186D01*
X18526786Y-14063329D01*
X18512500Y-13991900D01*
X18512500Y-13934757D01*
X18526786Y-13863329D01*
X18541071Y-13820471D01*
X18555357Y-13791900D01*
X18583928Y-13749043D01*
X18598214Y-13734757D01*
X18712500Y-13877614D02*
X18712500Y-14077614D01*
X18712500Y-13906186D02*
X18726786Y-13891900D01*
X18755357Y-13877614D01*
X18798214Y-13877614D01*
X18826786Y-13891900D01*
X18841071Y-13920471D01*
X18841071Y-14077614D01*
X19026786Y-14077614D02*
X18998214Y-14063329D01*
X18983928Y-14049043D01*
X18969643Y-14020471D01*
X18969643Y-13934757D01*
X18983928Y-13906186D01*
X18998214Y-13891900D01*
X19026786Y-13877614D01*
X19069643Y-13877614D01*
X19098214Y-13891900D01*
X19112500Y-13906186D01*
X19126786Y-13934757D01*
X19126786Y-14020471D01*
X19112500Y-14049043D01*
X19098214Y-14063329D01*
X19069643Y-14077614D01*
X19026786Y-14077614D01*
X19212500Y-13877614D02*
X19326786Y-13877614D01*
X19255357Y-13777614D02*
X19255357Y-14034757D01*
X19269643Y-14063329D01*
X19298214Y-14077614D01*
X19326786Y-14077614D01*
X19655357Y-13877614D02*
X19655357Y-14177614D01*
X19655357Y-13891900D02*
X19683928Y-13877614D01*
X19741071Y-13877614D01*
X19769643Y-13891900D01*
X19783928Y-13906186D01*
X19798214Y-13934757D01*
X19798214Y-14020471D01*
X19783928Y-14049043D01*
X19769643Y-14063329D01*
X19741071Y-14077614D01*
X19683928Y-14077614D01*
X19655357Y-14063329D01*
X19969643Y-14077614D02*
X19941071Y-14063329D01*
X19926786Y-14034757D01*
X19926786Y-13777614D01*
X20212500Y-14077614D02*
X20212500Y-13920471D01*
X20198214Y-13891900D01*
X20169643Y-13877614D01*
X20112500Y-13877614D01*
X20083928Y-13891900D01*
X20212500Y-14063329D02*
X20183928Y-14077614D01*
X20112500Y-14077614D01*
X20083928Y-14063329D01*
X20069643Y-14034757D01*
X20069643Y-14006186D01*
X20083928Y-13977614D01*
X20112500Y-13963329D01*
X20183928Y-13963329D01*
X20212500Y-13949043D01*
X20312500Y-13877614D02*
X20426786Y-13877614D01*
X20355357Y-13777614D02*
X20355357Y-14034757D01*
X20369643Y-14063329D01*
X20398214Y-14077614D01*
X20426786Y-14077614D01*
X20641071Y-14063329D02*
X20612500Y-14077614D01*
X20555357Y-14077614D01*
X20526786Y-14063329D01*
X20512500Y-14034757D01*
X20512500Y-13920471D01*
X20526786Y-13891900D01*
X20555357Y-13877614D01*
X20612500Y-13877614D01*
X20641071Y-13891900D01*
X20655357Y-13920471D01*
X20655357Y-13949043D01*
X20512500Y-13977614D01*
X20912500Y-14077614D02*
X20912500Y-13777614D01*
X20912500Y-14063329D02*
X20883928Y-14077614D01*
X20826786Y-14077614D01*
X20798214Y-14063329D01*
X20783928Y-14049043D01*
X20769643Y-14020471D01*
X20769643Y-13934757D01*
X20783928Y-13906186D01*
X20798214Y-13891900D01*
X20826786Y-13877614D01*
X20883928Y-13877614D01*
X20912500Y-13891900D01*
X21026786Y-14191900D02*
X21041071Y-14177614D01*
X21069643Y-14134757D01*
X21083928Y-14106186D01*
X21098214Y-14063329D01*
X21112500Y-13991900D01*
X21112500Y-13934757D01*
X21098214Y-13863329D01*
X21083928Y-13820471D01*
X21069643Y-13791900D01*
X21041071Y-13749043D01*
X21026786Y-13734757D01*
M02*
