M48
; DRILL file {KiCad (5.1.12)-1} date 09/15/24 14:26:26
; FORMAT={-:-/ absolute / metric / decimal}
; #@! TF.CreationDate,2024-09-15T14:26:26+03:00
; #@! TF.GenerationSoftware,Kicad,Pcbnew,(5.1.12)-1
; #@! TF.FileFunction,Plated,1,2,PTH
FMAT,2
METRIC
T1C0.300
T2C0.400
T3C0.600
T4C1.000
%
G90
G05
T1
X131.85Y-116.17
X133.06Y-117.47
X134.27Y-118.77
X135.4Y-120.07
X136.4Y-104.82
X136.63Y-116.82
X137.74Y-118.12
X138.95Y-119.42
X140.25Y-120.72
X141.45Y-116.17
X142.65Y-117.47
X143.85Y-118.77
X145.05Y-120.07
X146.25Y-116.82
X147.45Y-118.12
X148.65Y-119.42
X149.85Y-120.72
X151.05Y-116.17
X152.25Y-117.47
X153.45Y-118.77
X154.65Y-120.07
X155.85Y-116.82
X157.05Y-118.12
X158.25Y-119.42
X159.45Y-120.72
X160.65Y-116.17
X161.85Y-117.47
X163.05Y-118.77
X164.25Y-120.07
X165.45Y-116.82
X166.65Y-118.12
X167.85Y-119.42
X169.05Y-120.72
X170.25Y-116.17
X171.45Y-117.47
X172.65Y-118.77
X173.85Y-120.07
X175.05Y-116.82
X176.25Y-118.12
X177.45Y-119.42
X178.65Y-120.72
X179.85Y-116.17
X181.05Y-117.47
X182.25Y-118.77
X183.45Y-120.07
X184.65Y-116.82
X185.85Y-118.12
X187.05Y-119.42
X188.25Y-120.72
X189.45Y-116.17
X190.65Y-117.47
X191.85Y-118.77
X193.05Y-120.07
X194.25Y-116.82
X195.45Y-118.12
X196.65Y-119.42
X197.85Y-120.72
T2
X110.998Y-98.552
X111.01Y-85.65
X111.01Y-88.19
X111.01Y-90.73
X111.01Y-93.27
X111.01Y-100.89
X111.01Y-103.43
X111.01Y-105.97
X111.01Y-108.51
X111.01Y-111.05
X111.01Y-113.59
X111.01Y-116.13
X111.01Y-118.67
X111.01Y-121.21
X111.01Y-123.75
X111.01Y-126.29
X111.01Y-128.83
X112.522Y-94.785
X113.55Y-128.83
X113.856Y-109.86
X114.73Y-96.27
X115.556Y-109.88
X116.09Y-128.83
X117.094Y-94.785
X117.31Y-103.81
X118.42Y-100.18
X118.63Y-128.83
X119.07Y-108.24
X119.84Y-97.15
X120.13Y-105.64
X121.051Y-99.059
X121.17Y-128.83
X121.51Y-103.46
X122.39Y-96.9
X123.04Y-107.2
X123.09Y-111.86
X123.1Y-91.07
X123.19Y-95.504
X123.71Y-128.83
X124.23Y-87.74
X124.256Y-100.21
X125.29Y-118.33
X125.336Y-102.108
X125.336Y-103.21
X125.73Y-104.8
X126.25Y-128.83
X126.256Y-94.444
X127.1Y-91.07
X127.49Y-95.16
X127.51Y-96.33
X128.68Y-96.33
X128.7Y-94.36
X128.778Y-102.21
X128.79Y-128.83
X129.0Y-97.29
X129.756Y-101.71
X129.756Y-102.71
X129.756Y-104.71
X129.756Y-105.774
X130.64Y-97.34
X131.168Y-99.43
X131.33Y-128.83
X132.334Y-108.966
X132.44Y-91.91
X132.62Y-102.21
X132.62Y-103.21
X132.97Y-97.33
X133.87Y-128.83
X134.47Y-97.29
X136.41Y-128.83
X136.75Y-91.58
X138.43Y-95.758
X138.45Y-101.0
X138.95Y-128.83
X139.37Y-93.08
X140.208Y-95.758
X141.49Y-128.83
X142.26Y-85.33
X142.46Y-93.08
X144.03Y-128.83
X145.55Y-93.08
X145.83Y-89.95
X146.57Y-128.83
X147.19Y-90.92
X147.828Y-95.67
X149.11Y-128.83
X149.606Y-95.67
X149.606Y-102.362
X150.82Y-87.54
X151.12Y-91.58
X151.384Y-95.67
X151.65Y-128.83
X152.57Y-101.21
X154.19Y-128.83
X156.098Y-95.75
X156.73Y-128.83
X157.598Y-96.61
X159.004Y-95.758
X159.27Y-128.83
X161.32Y-92.57
X161.798Y-96.266
X161.81Y-128.83
X163.83Y-92.71
X164.0Y-86.15
X164.11Y-88.93
X164.35Y-128.83
X165.354Y-96.266
X165.83Y-92.8
X166.11Y-89.83
X166.89Y-128.83
X167.35Y-94.82
X168.23Y-94.01
X168.656Y-96.52
X169.43Y-128.83
X169.67Y-85.17
X169.672Y-90.424
X171.01Y-97.85
X171.958Y-86.106
X171.97Y-128.83
X172.14Y-92.88
X172.7Y-101.4
X172.78Y-96.46
X172.9Y-87.46
X173.5Y-94.81
X173.736Y-86.106
X174.05Y-97.91
X174.51Y-128.83
X177.05Y-128.83
X177.5Y-99.04
X177.8Y-86.106
X179.59Y-128.83
X181.65Y-98.83
X182.13Y-128.83
X182.26Y-97.652
X183.23Y-101.53
X184.67Y-128.83
X184.74Y-98.91
X186.56Y-96.06
X187.21Y-128.83
X187.48Y-84.47
X188.54Y-97.2
X189.75Y-128.83
X191.66Y-92.87
X191.66Y-102.08
X192.29Y-128.83
X192.66Y-89.07
X193.29Y-96.93
X194.42Y-89.43
X194.83Y-128.83
X195.47Y-102.02
X195.62Y-93.21
X197.37Y-128.83
X197.818Y-97.292
X199.66Y-100.78
X199.91Y-128.83
X202.45Y-85.65
X202.45Y-88.19
X202.45Y-90.73
X202.45Y-93.27
X202.45Y-95.81
X202.45Y-98.35
X202.45Y-100.89
X202.45Y-123.75
X202.45Y-126.29
X202.45Y-128.83
T4
X129.032Y-86.868
X129.032Y-89.408
X131.572Y-86.868
X131.572Y-89.408
X134.112Y-86.868
X134.112Y-89.408
X136.652Y-86.868
X136.652Y-89.408
X139.192Y-86.868
X139.192Y-89.408
X179.46Y-88.75
X179.46Y-91.29
X179.46Y-93.83
X179.46Y-96.37
X183.72Y-86.95
X186.26Y-86.95
X188.8Y-86.95
X191.34Y-86.95
T3
X152.528Y-85.864G85X152.528Y-85.264
G05
X152.528Y-90.294G85X152.528Y-89.194
G05
X161.168Y-85.864G85X161.168Y-85.264
G05
X161.168Y-90.294G85X161.168Y-89.194
G05
T0
M30
