G04 #@! TF.GenerationSoftware,KiCad,Pcbnew,(5.1.12)-1*
G04 #@! TF.CreationDate,2024-09-15T14:26:27+03:00*
G04 #@! TF.ProjectId,CaliperPCB,43616c69-7065-4725-9043-422e6b696361,rev?*
G04 #@! TF.SameCoordinates,Original*
G04 #@! TF.FileFunction,Copper,L2,Bot*
G04 #@! TF.FilePolarity,Positive*
%FSLAX46Y46*%
G04 Gerber Fmt 4.6, Leading zero omitted, Abs format (unit mm)*
G04 Created by KiCad (PCBNEW (5.1.12)-1) date 2024-09-15 14:26:27*
%MOMM*%
%LPD*%
G01*
G04 APERTURE LIST*
G04 #@! TA.AperFunction,ComponentPad*
%ADD10O,1.700000X1.700000*%
G04 #@! TD*
G04 #@! TA.AperFunction,ComponentPad*
%ADD11R,1.700000X1.700000*%
G04 #@! TD*
G04 #@! TA.AperFunction,ComponentPad*
%ADD12C,0.500000*%
G04 #@! TD*
G04 #@! TA.AperFunction,SMDPad,CuDef*
%ADD13R,1.000000X10.000000*%
G04 #@! TD*
G04 #@! TA.AperFunction,SMDPad,CuDef*
%ADD14R,57.400000X4.600000*%
G04 #@! TD*
G04 #@! TA.AperFunction,SMDPad,CuDef*
%ADD15R,1.000000X1.500000*%
G04 #@! TD*
G04 #@! TA.AperFunction,SMDPad,CuDef*
%ADD16C,0.100000*%
G04 #@! TD*
G04 #@! TA.AperFunction,ComponentPad*
%ADD17O,1.000000X1.600000*%
G04 #@! TD*
G04 #@! TA.AperFunction,ComponentPad*
%ADD18O,1.000000X2.100000*%
G04 #@! TD*
G04 #@! TA.AperFunction,ViaPad*
%ADD19C,0.800000*%
G04 #@! TD*
G04 #@! TA.AperFunction,Conductor*
%ADD20C,0.250000*%
G04 #@! TD*
G04 #@! TA.AperFunction,Conductor*
%ADD21C,0.200000*%
G04 #@! TD*
G04 #@! TA.AperFunction,Conductor*
%ADD22C,0.100000*%
G04 #@! TD*
G04 APERTURE END LIST*
D10*
X139192000Y-89408000D03*
X139192000Y-86868000D03*
X136652000Y-89408000D03*
X136652000Y-86868000D03*
X134112000Y-89408000D03*
X134112000Y-86868000D03*
X131572000Y-89408000D03*
X131572000Y-86868000D03*
X129032000Y-89408000D03*
D11*
X129032000Y-86868000D03*
D12*
X197850000Y-120720000D03*
X196650000Y-119420000D03*
X195450000Y-118120000D03*
X194250000Y-116820000D03*
X193050000Y-120070000D03*
X191850000Y-118770000D03*
X190650000Y-117470000D03*
X189450000Y-116170000D03*
D13*
X197850000Y-116170000D03*
X196650000Y-116170000D03*
X195450000Y-116170000D03*
X194250000Y-116170000D03*
X191850000Y-116170000D03*
X193050000Y-116170000D03*
X190650000Y-116170000D03*
X189450000Y-116170000D03*
D14*
X164850000Y-106870000D03*
D12*
X188250000Y-120720000D03*
X178650000Y-120720000D03*
X169050000Y-120720000D03*
X159450000Y-120720000D03*
X149850000Y-120720000D03*
X140250000Y-120720000D03*
X184650000Y-116820000D03*
X175050000Y-116820000D03*
X165450000Y-116820000D03*
X155850000Y-116820000D03*
X146250000Y-116820000D03*
X136630000Y-116820000D03*
X181050000Y-117470000D03*
X171450000Y-117470000D03*
X161850000Y-117470000D03*
X152250000Y-117470000D03*
X142650000Y-117470000D03*
X133060000Y-117470000D03*
D13*
X188250000Y-116170000D03*
X178650000Y-116170000D03*
X169050000Y-116170000D03*
X159450000Y-116170000D03*
X149850000Y-116170000D03*
X140250000Y-116170000D03*
D12*
X187050000Y-119420000D03*
X177450000Y-119420000D03*
X167850000Y-119420000D03*
X158250000Y-119420000D03*
X148650000Y-119420000D03*
X138950000Y-119420000D03*
X185850000Y-118120000D03*
X176250000Y-118120000D03*
X166650000Y-118120000D03*
X157050000Y-118120000D03*
X147450000Y-118120000D03*
X137740000Y-118120000D03*
X183450000Y-120070000D03*
X173850000Y-120070000D03*
X164250000Y-120070000D03*
X154650000Y-120070000D03*
X145050000Y-120070000D03*
X135400000Y-120070000D03*
X182250000Y-118770000D03*
X172650000Y-118770000D03*
X163050000Y-118770000D03*
X153450000Y-118770000D03*
X143850000Y-118770000D03*
X134270000Y-118770000D03*
X179850000Y-116170000D03*
X170250000Y-116170000D03*
X160650000Y-116170000D03*
X151050000Y-116170000D03*
X141450000Y-116170000D03*
X131850000Y-116170000D03*
D13*
X184650000Y-116170000D03*
X175050000Y-116170000D03*
X165450000Y-116170000D03*
X155850000Y-116170000D03*
X146250000Y-116170000D03*
X136650000Y-116170000D03*
X181050000Y-116170000D03*
X171450000Y-116170000D03*
X161850000Y-116170000D03*
X152250000Y-116170000D03*
X142650000Y-116170000D03*
X133050000Y-116170000D03*
X179850000Y-116170000D03*
X170250000Y-116170000D03*
X160650000Y-116170000D03*
X151050000Y-116170000D03*
X141450000Y-116170000D03*
X131850000Y-116170000D03*
X187050000Y-116170000D03*
X177450000Y-116170000D03*
X167850000Y-116170000D03*
X158250000Y-116170000D03*
X148650000Y-116170000D03*
X139050000Y-116170000D03*
X185850000Y-116170000D03*
X176250000Y-116170000D03*
X166650000Y-116170000D03*
X157050000Y-116170000D03*
X147450000Y-116170000D03*
X137850000Y-116170000D03*
X182250000Y-116170000D03*
X172650000Y-116170000D03*
X163050000Y-116170000D03*
X153450000Y-116170000D03*
X143850000Y-116170000D03*
X134250000Y-116170000D03*
X183450000Y-116170000D03*
X173850000Y-116170000D03*
X164250000Y-116170000D03*
X154650000Y-116170000D03*
X145050000Y-116170000D03*
X135450000Y-116170000D03*
D12*
X136400000Y-104820000D03*
D10*
X179460000Y-96370000D03*
X179460000Y-93830000D03*
X179460000Y-91290000D03*
D11*
X179460000Y-88750000D03*
D15*
X121340000Y-93070000D03*
G04 #@! TA.AperFunction,SMDPad,CuDef*
D16*
G36*
X122640000Y-92320602D02*
G01*
X122664534Y-92320602D01*
X122713365Y-92325412D01*
X122761490Y-92334984D01*
X122808445Y-92349228D01*
X122853778Y-92368005D01*
X122897051Y-92391136D01*
X122937850Y-92418396D01*
X122975779Y-92449524D01*
X123010476Y-92484221D01*
X123041604Y-92522150D01*
X123068864Y-92562949D01*
X123091995Y-92606222D01*
X123110772Y-92651555D01*
X123125016Y-92698510D01*
X123134588Y-92746635D01*
X123139398Y-92795466D01*
X123139398Y-92820000D01*
X123140000Y-92820000D01*
X123140000Y-93320000D01*
X123139398Y-93320000D01*
X123139398Y-93344534D01*
X123134588Y-93393365D01*
X123125016Y-93441490D01*
X123110772Y-93488445D01*
X123091995Y-93533778D01*
X123068864Y-93577051D01*
X123041604Y-93617850D01*
X123010476Y-93655779D01*
X122975779Y-93690476D01*
X122937850Y-93721604D01*
X122897051Y-93748864D01*
X122853778Y-93771995D01*
X122808445Y-93790772D01*
X122761490Y-93805016D01*
X122713365Y-93814588D01*
X122664534Y-93819398D01*
X122640000Y-93819398D01*
X122640000Y-93820000D01*
X122090000Y-93820000D01*
X122090000Y-92320000D01*
X122640000Y-92320000D01*
X122640000Y-92320602D01*
G37*
G04 #@! TD.AperFunction*
G04 #@! TA.AperFunction,SMDPad,CuDef*
G36*
X120590000Y-93820000D02*
G01*
X120040000Y-93820000D01*
X120040000Y-93819398D01*
X120015466Y-93819398D01*
X119966635Y-93814588D01*
X119918510Y-93805016D01*
X119871555Y-93790772D01*
X119826222Y-93771995D01*
X119782949Y-93748864D01*
X119742150Y-93721604D01*
X119704221Y-93690476D01*
X119669524Y-93655779D01*
X119638396Y-93617850D01*
X119611136Y-93577051D01*
X119588005Y-93533778D01*
X119569228Y-93488445D01*
X119554984Y-93441490D01*
X119545412Y-93393365D01*
X119540602Y-93344534D01*
X119540602Y-93320000D01*
X119540000Y-93320000D01*
X119540000Y-92820000D01*
X119540602Y-92820000D01*
X119540602Y-92795466D01*
X119545412Y-92746635D01*
X119554984Y-92698510D01*
X119569228Y-92651555D01*
X119588005Y-92606222D01*
X119611136Y-92562949D01*
X119638396Y-92522150D01*
X119669524Y-92484221D01*
X119704221Y-92449524D01*
X119742150Y-92418396D01*
X119782949Y-92391136D01*
X119826222Y-92368005D01*
X119871555Y-92349228D01*
X119918510Y-92334984D01*
X119966635Y-92325412D01*
X120015466Y-92320602D01*
X120040000Y-92320602D01*
X120040000Y-92320000D01*
X120590000Y-92320000D01*
X120590000Y-93820000D01*
G37*
G04 #@! TD.AperFunction*
D15*
X126256000Y-93070000D03*
G04 #@! TA.AperFunction,SMDPad,CuDef*
D16*
G36*
X127556000Y-92320602D02*
G01*
X127580534Y-92320602D01*
X127629365Y-92325412D01*
X127677490Y-92334984D01*
X127724445Y-92349228D01*
X127769778Y-92368005D01*
X127813051Y-92391136D01*
X127853850Y-92418396D01*
X127891779Y-92449524D01*
X127926476Y-92484221D01*
X127957604Y-92522150D01*
X127984864Y-92562949D01*
X128007995Y-92606222D01*
X128026772Y-92651555D01*
X128041016Y-92698510D01*
X128050588Y-92746635D01*
X128055398Y-92795466D01*
X128055398Y-92820000D01*
X128056000Y-92820000D01*
X128056000Y-93320000D01*
X128055398Y-93320000D01*
X128055398Y-93344534D01*
X128050588Y-93393365D01*
X128041016Y-93441490D01*
X128026772Y-93488445D01*
X128007995Y-93533778D01*
X127984864Y-93577051D01*
X127957604Y-93617850D01*
X127926476Y-93655779D01*
X127891779Y-93690476D01*
X127853850Y-93721604D01*
X127813051Y-93748864D01*
X127769778Y-93771995D01*
X127724445Y-93790772D01*
X127677490Y-93805016D01*
X127629365Y-93814588D01*
X127580534Y-93819398D01*
X127556000Y-93819398D01*
X127556000Y-93820000D01*
X127006000Y-93820000D01*
X127006000Y-92320000D01*
X127556000Y-92320000D01*
X127556000Y-92320602D01*
G37*
G04 #@! TD.AperFunction*
G04 #@! TA.AperFunction,SMDPad,CuDef*
G36*
X125506000Y-93820000D02*
G01*
X124956000Y-93820000D01*
X124956000Y-93819398D01*
X124931466Y-93819398D01*
X124882635Y-93814588D01*
X124834510Y-93805016D01*
X124787555Y-93790772D01*
X124742222Y-93771995D01*
X124698949Y-93748864D01*
X124658150Y-93721604D01*
X124620221Y-93690476D01*
X124585524Y-93655779D01*
X124554396Y-93617850D01*
X124527136Y-93577051D01*
X124504005Y-93533778D01*
X124485228Y-93488445D01*
X124470984Y-93441490D01*
X124461412Y-93393365D01*
X124456602Y-93344534D01*
X124456602Y-93320000D01*
X124456000Y-93320000D01*
X124456000Y-92820000D01*
X124456602Y-92820000D01*
X124456602Y-92795466D01*
X124461412Y-92746635D01*
X124470984Y-92698510D01*
X124485228Y-92651555D01*
X124504005Y-92606222D01*
X124527136Y-92562949D01*
X124554396Y-92522150D01*
X124585524Y-92484221D01*
X124620221Y-92449524D01*
X124658150Y-92418396D01*
X124698949Y-92391136D01*
X124742222Y-92368005D01*
X124787555Y-92349228D01*
X124834510Y-92334984D01*
X124882635Y-92325412D01*
X124931466Y-92320602D01*
X124956000Y-92320602D01*
X124956000Y-92320000D01*
X125506000Y-92320000D01*
X125506000Y-93820000D01*
G37*
G04 #@! TD.AperFunction*
D11*
X183720000Y-86950000D03*
D10*
X186260000Y-86950000D03*
X188800000Y-86950000D03*
X191340000Y-86950000D03*
D17*
X152528000Y-85564000D03*
X161168000Y-85564000D03*
D18*
X161168000Y-89744000D03*
X152528000Y-89744000D03*
D19*
X191660000Y-102080000D03*
X183230000Y-101530000D03*
X113856000Y-109860000D03*
X115556000Y-109880000D03*
X171010000Y-97850000D03*
X174050000Y-97910000D03*
X177500000Y-99040000D03*
X123100000Y-91070000D03*
X127100000Y-91070000D03*
X125730000Y-104800000D03*
X124230000Y-87740000D03*
X111010000Y-128830000D03*
X113550000Y-128830000D03*
X116090000Y-128830000D03*
X118630000Y-128830000D03*
X121170000Y-128830000D03*
X123710000Y-128830000D03*
X126250000Y-128830000D03*
X128790000Y-128830000D03*
X131330000Y-128830000D03*
X133870000Y-128830000D03*
X136410000Y-128830000D03*
X138950000Y-128830000D03*
X141490000Y-128830000D03*
X144030000Y-128830000D03*
X146570000Y-128830000D03*
X149110000Y-128830000D03*
X151650000Y-128830000D03*
X154190000Y-128830000D03*
X156730000Y-128830000D03*
X159270000Y-128830000D03*
X161810000Y-128830000D03*
X164350000Y-128830000D03*
X166890000Y-128830000D03*
X169430000Y-128830000D03*
X171970000Y-128830000D03*
X174510000Y-128830000D03*
X177050000Y-128830000D03*
X179590000Y-128830000D03*
X182130000Y-128830000D03*
X184670000Y-128830000D03*
X187210000Y-128830000D03*
X189750000Y-128830000D03*
X192290000Y-128830000D03*
X194830000Y-128830000D03*
X197370000Y-128830000D03*
X199910000Y-128830000D03*
X202450000Y-128830000D03*
X130640000Y-97340000D03*
X132970000Y-97330000D03*
X119070000Y-108240000D03*
X118420000Y-100180000D03*
X128778000Y-102210000D03*
X125336000Y-102108000D03*
X147190000Y-90920000D03*
X145830000Y-89950000D03*
X169670000Y-85170000D03*
X166110000Y-89830000D03*
X191660000Y-92870000D03*
X199660000Y-100780000D03*
X181650000Y-98830000D03*
X202450000Y-126290000D03*
X202450000Y-123750000D03*
X202450000Y-100890000D03*
X202450000Y-98350000D03*
X202450000Y-95810000D03*
X202450000Y-93270000D03*
X202450000Y-90730000D03*
X202450000Y-88190000D03*
X202450000Y-85650000D03*
X111010000Y-126290000D03*
X111010000Y-123750000D03*
X111010000Y-121210000D03*
X111010000Y-118670000D03*
X111010000Y-116130000D03*
X111010000Y-113590000D03*
X111010000Y-111050000D03*
X111010000Y-108510000D03*
X111010000Y-105970000D03*
X111010000Y-103430000D03*
X111010000Y-100890000D03*
X110998000Y-98552000D03*
X112522000Y-94785000D03*
X111010000Y-93270000D03*
X111010000Y-90730000D03*
X111010000Y-88190000D03*
X111010000Y-85650000D03*
X117094000Y-94785000D03*
X121510000Y-103460000D03*
X117310000Y-103810000D03*
X129000000Y-97290000D03*
X127490000Y-95160000D03*
X171958000Y-86106000D03*
X173736000Y-86106000D03*
X177800000Y-86106000D03*
X168656000Y-96520000D03*
X161798000Y-96266000D03*
X165354000Y-96266000D03*
X169672000Y-90424000D03*
X159004000Y-95758000D03*
X163830000Y-92710000D03*
X149606000Y-102362000D03*
X123190000Y-95504000D03*
X138430000Y-95758000D03*
X140208000Y-95758000D03*
X149606000Y-95670000D03*
X151384000Y-95670000D03*
X147828000Y-95670000D03*
X138450000Y-101000000D03*
X134470000Y-97290000D03*
X139370000Y-93080000D03*
X142460000Y-93080000D03*
X145550000Y-93080000D03*
X128700000Y-94360000D03*
X122390000Y-96900000D03*
X119840000Y-97150000D03*
X152570000Y-101210000D03*
X172700000Y-101400000D03*
X172780000Y-96460000D03*
X164110000Y-88930000D03*
X164000000Y-86150000D03*
X151120000Y-91580000D03*
X150820000Y-87540000D03*
X142260000Y-85330000D03*
X132440000Y-91910000D03*
X136750000Y-91580000D03*
X114730000Y-96270000D03*
X188540000Y-97200000D03*
X193290000Y-96930000D03*
X192660000Y-89070000D03*
X187480000Y-84470000D03*
X172900000Y-87460000D03*
X165830000Y-92800000D03*
X161320000Y-92570000D03*
X195470000Y-102020000D03*
X184740000Y-98910000D03*
X186560000Y-96060000D03*
X194420000Y-89430000D03*
X195620000Y-93210000D03*
X172140000Y-92880000D03*
X123040000Y-107200000D03*
X123090000Y-111860000D03*
X125290000Y-118330000D03*
X131168500Y-99430000D03*
X120130000Y-105640000D03*
X124256000Y-100210000D03*
X129756000Y-105774000D03*
X121051000Y-99059000D03*
X125336000Y-103210000D03*
X182260000Y-97652499D03*
X157598000Y-96610000D03*
X132620000Y-102210000D03*
X129756000Y-101710000D03*
X156098000Y-95750000D03*
X129756000Y-102710000D03*
X132620000Y-103210000D03*
X128680000Y-96330000D03*
X167350000Y-94820000D03*
X173500000Y-94810000D03*
X127510000Y-96330000D03*
X168230000Y-94010000D03*
X129756000Y-104710000D03*
X197818333Y-97291667D03*
X126256000Y-94444000D03*
X132334000Y-108966000D03*
D20*
X124256000Y-100210000D02*
X124256000Y-95694000D01*
X124956000Y-94994000D02*
X124956000Y-93070000D01*
X124256000Y-95694000D02*
X124956000Y-94994000D01*
X124956000Y-90894000D02*
X124956000Y-93070000D01*
X126442000Y-89408000D02*
X124956000Y-90894000D01*
X130460000Y-99430000D02*
X131168500Y-99430000D01*
X129680000Y-100210000D02*
X130460000Y-99430000D01*
X124256000Y-100210000D02*
X129680000Y-100210000D01*
X120040000Y-93070000D02*
X120040000Y-91050000D01*
X120040000Y-91050000D02*
X121682000Y-89408000D01*
X121682000Y-89408000D02*
X127232000Y-89408000D01*
X127232000Y-89408000D02*
X126442000Y-89408000D01*
X129032000Y-89408000D02*
X127232000Y-89408000D01*
X120130000Y-99980000D02*
X121051000Y-99059000D01*
X120130000Y-105640000D02*
X120130000Y-99980000D01*
X125279989Y-105719989D02*
X129701989Y-105719989D01*
X124256000Y-100210000D02*
X124256000Y-104696000D01*
X124256000Y-104696000D02*
X125279989Y-105719989D01*
X129701989Y-105719989D02*
X129756000Y-105774000D01*
X181727501Y-97652499D02*
X182260000Y-97652499D01*
X181727501Y-97652499D02*
X181877499Y-97652499D01*
X125336000Y-103210000D02*
X126001001Y-103875001D01*
X133128578Y-104385011D02*
X138233589Y-99280000D01*
X175630000Y-99280000D02*
X177257501Y-97652499D01*
X138233589Y-99280000D02*
X175630000Y-99280000D01*
X130565011Y-104385011D02*
X133128578Y-104385011D01*
X126001001Y-103875001D02*
X130055001Y-103875001D01*
X177257501Y-97652499D02*
X181727501Y-97652499D01*
X130055001Y-103875001D02*
X130565011Y-104385011D01*
X157162000Y-97028000D02*
X157580000Y-96610000D01*
X157580000Y-96610000D02*
X157620000Y-96610000D01*
X137802000Y-97028000D02*
X157162000Y-97028000D01*
X132620000Y-102210000D02*
X137802000Y-97028000D01*
X129660000Y-101710000D02*
X131130000Y-101710000D01*
X156060000Y-95750000D02*
X156100000Y-95750000D01*
X155290000Y-96520000D02*
X156060000Y-95750000D01*
X137120000Y-96520000D02*
X155290000Y-96520000D01*
X131930000Y-101710000D02*
X137120000Y-96520000D01*
X129756000Y-101710000D02*
X131930000Y-101710000D01*
X188800000Y-89900000D02*
X188800000Y-86950000D01*
X188800000Y-91010000D02*
X188800000Y-89900000D01*
X187260000Y-92550000D02*
X188800000Y-91010000D01*
X173930000Y-92550000D02*
X187260000Y-92550000D01*
X168110000Y-98370000D02*
X173930000Y-92550000D01*
X138507178Y-98370000D02*
X168110000Y-98370000D01*
X132942178Y-103935000D02*
X138507178Y-98370000D01*
X130981000Y-103935000D02*
X132942178Y-103935000D01*
X129756000Y-102710000D02*
X130981000Y-103935000D01*
X132660000Y-103210000D02*
X132620000Y-103210000D01*
X138360000Y-97510000D02*
X132660000Y-103210000D01*
X173630000Y-90030000D02*
X166150000Y-97510000D01*
X166150000Y-97510000D02*
X138360000Y-97510000D01*
X185410000Y-90030000D02*
X173630000Y-90030000D01*
X186260000Y-89180000D02*
X185410000Y-90030000D01*
X186260000Y-86950000D02*
X186260000Y-89180000D01*
X128680000Y-96330000D02*
X135260000Y-96330000D01*
X135260000Y-96330000D02*
X136770000Y-94820000D01*
X136770000Y-94820000D02*
X167350000Y-94820000D01*
X174480000Y-93830000D02*
X173500000Y-94810000D01*
X179460000Y-93830000D02*
X174480000Y-93830000D01*
X128235001Y-95604999D02*
X131285001Y-95604999D01*
X127510000Y-96330000D02*
X128235001Y-95604999D01*
X131285001Y-95604999D02*
X134915001Y-95604999D01*
X136510000Y-94010000D02*
X168230000Y-94010000D01*
X134915001Y-95604999D02*
X136510000Y-94010000D01*
X168230000Y-94010000D02*
X168230000Y-94010000D01*
X197830000Y-97340000D02*
X197830000Y-97310000D01*
X195480000Y-99690000D02*
X196115000Y-99055000D01*
X196115000Y-99055000D02*
X197830000Y-97340000D01*
X133220000Y-104930000D02*
X137957501Y-100192499D01*
X194977501Y-100192499D02*
X196115000Y-99055000D01*
X137957501Y-100192499D02*
X194977501Y-100192499D01*
X129976000Y-104930000D02*
X133220000Y-104930000D01*
X129756000Y-104710000D02*
X129976000Y-104930000D01*
X126256000Y-94444000D02*
X126256000Y-93070000D01*
X121340000Y-97642000D02*
X121340000Y-93070000D01*
X123444000Y-99746000D02*
X121340000Y-97642000D01*
X123444000Y-104674000D02*
X123444000Y-99746000D01*
X124940000Y-106170000D02*
X123444000Y-104674000D01*
X132080000Y-106680000D02*
X129286000Y-106680000D01*
X129286000Y-106680000D02*
X128776000Y-106170000D01*
X132334000Y-106934000D02*
X132080000Y-106680000D01*
X128776000Y-106170000D02*
X124940000Y-106170000D01*
X132334000Y-108966000D02*
X132334000Y-106934000D01*
D21*
X203345001Y-102680631D02*
X191996952Y-102696738D01*
X192106224Y-102623726D01*
X192203726Y-102526224D01*
X192280332Y-102411574D01*
X192333099Y-102284182D01*
X192360000Y-102148944D01*
X192360000Y-102011056D01*
X192333099Y-101875818D01*
X192280332Y-101748426D01*
X192203726Y-101633776D01*
X192106224Y-101536274D01*
X191991574Y-101459668D01*
X191864182Y-101406901D01*
X191728944Y-101380000D01*
X191591056Y-101380000D01*
X191455818Y-101406901D01*
X191328426Y-101459668D01*
X191213776Y-101536274D01*
X191116274Y-101633776D01*
X191039668Y-101748426D01*
X190986901Y-101875818D01*
X190960000Y-102011056D01*
X190960000Y-102148944D01*
X190986901Y-102284182D01*
X191039668Y-102411574D01*
X191116274Y-102526224D01*
X191213776Y-102623726D01*
X191324476Y-102697693D01*
X135974787Y-102776254D01*
X138133542Y-100617499D01*
X194956634Y-100617499D01*
X194977501Y-100619554D01*
X194998368Y-100617499D01*
X194998375Y-100617499D01*
X195060815Y-100611349D01*
X195140928Y-100587047D01*
X195214761Y-100547583D01*
X195279475Y-100494473D01*
X195292785Y-100478255D01*
X196430280Y-99340760D01*
X197779374Y-97991667D01*
X197887277Y-97991667D01*
X198022515Y-97964766D01*
X198149907Y-97911999D01*
X198264557Y-97835393D01*
X198362059Y-97737891D01*
X198438665Y-97623241D01*
X198491432Y-97495849D01*
X198518333Y-97360611D01*
X198518333Y-97222723D01*
X198491432Y-97087485D01*
X198438665Y-96960093D01*
X198362059Y-96845443D01*
X198264557Y-96747941D01*
X198149907Y-96671335D01*
X198022515Y-96618568D01*
X197887277Y-96591667D01*
X197749389Y-96591667D01*
X197614151Y-96618568D01*
X197486759Y-96671335D01*
X197372109Y-96747941D01*
X197274607Y-96845443D01*
X197198001Y-96960093D01*
X197145234Y-97087485D01*
X197118333Y-97222723D01*
X197118333Y-97360611D01*
X197133268Y-97435692D01*
X194801461Y-99767499D01*
X138347131Y-99767499D01*
X138409630Y-99705000D01*
X175609133Y-99705000D01*
X175630000Y-99707055D01*
X175650867Y-99705000D01*
X175650874Y-99705000D01*
X175713314Y-99698850D01*
X175793427Y-99674548D01*
X175867260Y-99635084D01*
X175931974Y-99581974D01*
X175945283Y-99565757D01*
X177433542Y-98077499D01*
X181702093Y-98077499D01*
X181716274Y-98098723D01*
X181813776Y-98196225D01*
X181928426Y-98272831D01*
X182055818Y-98325598D01*
X182191056Y-98352499D01*
X182328944Y-98352499D01*
X182464182Y-98325598D01*
X182591574Y-98272831D01*
X182706224Y-98196225D01*
X182803726Y-98098723D01*
X182880332Y-97984073D01*
X182933099Y-97856681D01*
X182960000Y-97721443D01*
X182960000Y-97583555D01*
X182933099Y-97448317D01*
X182880332Y-97320925D01*
X182803726Y-97206275D01*
X182706224Y-97108773D01*
X182591574Y-97032167D01*
X182464182Y-96979400D01*
X182328944Y-96952499D01*
X182191056Y-96952499D01*
X182055818Y-96979400D01*
X181928426Y-97032167D01*
X181813776Y-97108773D01*
X181716274Y-97206275D01*
X181702093Y-97227499D01*
X180228846Y-97227499D01*
X180353263Y-97103082D01*
X180479116Y-96914729D01*
X180565806Y-96705443D01*
X180610000Y-96483265D01*
X180610000Y-96256735D01*
X180565806Y-96034557D01*
X180479116Y-95825271D01*
X180353263Y-95636918D01*
X180193082Y-95476737D01*
X180004729Y-95350884D01*
X179795443Y-95264194D01*
X179573265Y-95220000D01*
X179346735Y-95220000D01*
X179124557Y-95264194D01*
X178915271Y-95350884D01*
X178726918Y-95476737D01*
X178566737Y-95636918D01*
X178440884Y-95825271D01*
X178354194Y-96034557D01*
X178310000Y-96256735D01*
X178310000Y-96483265D01*
X178354194Y-96705443D01*
X178440884Y-96914729D01*
X178566737Y-97103082D01*
X178691154Y-97227499D01*
X177278368Y-97227499D01*
X177257501Y-97225444D01*
X177236634Y-97227499D01*
X177236627Y-97227499D01*
X177181828Y-97232896D01*
X177174186Y-97233649D01*
X177149884Y-97241021D01*
X177094074Y-97257951D01*
X177020241Y-97297415D01*
X176955527Y-97350525D01*
X176942222Y-97366737D01*
X175453960Y-98855000D01*
X138623219Y-98855000D01*
X138683219Y-98795000D01*
X168089133Y-98795000D01*
X168110000Y-98797055D01*
X168130867Y-98795000D01*
X168130874Y-98795000D01*
X168193314Y-98788850D01*
X168273427Y-98764548D01*
X168347260Y-98725084D01*
X168411974Y-98671974D01*
X168425284Y-98655756D01*
X174106041Y-92975000D01*
X178688655Y-92975000D01*
X178566737Y-93096918D01*
X178440884Y-93285271D01*
X178391290Y-93405000D01*
X174500866Y-93405000D01*
X174479999Y-93402945D01*
X174459132Y-93405000D01*
X174459126Y-93405000D01*
X174405098Y-93410321D01*
X174396685Y-93411150D01*
X174372383Y-93418522D01*
X174316573Y-93435452D01*
X174242740Y-93474916D01*
X174178026Y-93528026D01*
X174164721Y-93544238D01*
X173593980Y-94114980D01*
X173568944Y-94110000D01*
X173431056Y-94110000D01*
X173295818Y-94136901D01*
X173168426Y-94189668D01*
X173053776Y-94266274D01*
X172956274Y-94363776D01*
X172879668Y-94478426D01*
X172826901Y-94605818D01*
X172800000Y-94741056D01*
X172800000Y-94878944D01*
X172826901Y-95014182D01*
X172879668Y-95141574D01*
X172956274Y-95256224D01*
X173053776Y-95353726D01*
X173168426Y-95430332D01*
X173295818Y-95483099D01*
X173431056Y-95510000D01*
X173568944Y-95510000D01*
X173704182Y-95483099D01*
X173831574Y-95430332D01*
X173946224Y-95353726D01*
X174043726Y-95256224D01*
X174120332Y-95141574D01*
X174173099Y-95014182D01*
X174200000Y-94878944D01*
X174200000Y-94741056D01*
X174195020Y-94716020D01*
X174656041Y-94255000D01*
X178391290Y-94255000D01*
X178440884Y-94374729D01*
X178566737Y-94563082D01*
X178726918Y-94723263D01*
X178915271Y-94849116D01*
X179124557Y-94935806D01*
X179346735Y-94980000D01*
X179573265Y-94980000D01*
X179795443Y-94935806D01*
X180004729Y-94849116D01*
X180193082Y-94723263D01*
X180353263Y-94563082D01*
X180479116Y-94374729D01*
X180565806Y-94165443D01*
X180610000Y-93943265D01*
X180610000Y-93716735D01*
X180565806Y-93494557D01*
X180479116Y-93285271D01*
X180353263Y-93096918D01*
X180231345Y-92975000D01*
X187239133Y-92975000D01*
X187260000Y-92977055D01*
X187280867Y-92975000D01*
X187280874Y-92975000D01*
X187343314Y-92968850D01*
X187423427Y-92944548D01*
X187497260Y-92905084D01*
X187561974Y-92851974D01*
X187575283Y-92835757D01*
X189085763Y-91325278D01*
X189101974Y-91311974D01*
X189155084Y-91247260D01*
X189194548Y-91173427D01*
X189218850Y-91093314D01*
X189225000Y-91030874D01*
X189225000Y-91030867D01*
X189227055Y-91010000D01*
X189225000Y-90989133D01*
X189225000Y-88018710D01*
X189344729Y-87969116D01*
X189533082Y-87843263D01*
X189693263Y-87683082D01*
X189819116Y-87494729D01*
X189905806Y-87285443D01*
X189938875Y-87119193D01*
X190303721Y-87119193D01*
X190356641Y-87318110D01*
X190447351Y-87502881D01*
X190572365Y-87666405D01*
X190726879Y-87802398D01*
X190904955Y-87905633D01*
X191099749Y-87972144D01*
X191170807Y-87986279D01*
X191335000Y-87949987D01*
X191335000Y-86955000D01*
X191345000Y-86955000D01*
X191345000Y-87949987D01*
X191509193Y-87986279D01*
X191580251Y-87972144D01*
X191775045Y-87905633D01*
X191953121Y-87802398D01*
X192107635Y-87666405D01*
X192232649Y-87502881D01*
X192323359Y-87318110D01*
X192376279Y-87119193D01*
X192339988Y-86955000D01*
X191345000Y-86955000D01*
X191335000Y-86955000D01*
X190340012Y-86955000D01*
X190303721Y-87119193D01*
X189938875Y-87119193D01*
X189950000Y-87063265D01*
X189950000Y-86836735D01*
X189938876Y-86780807D01*
X190303721Y-86780807D01*
X190340012Y-86945000D01*
X191335000Y-86945000D01*
X191335000Y-85950013D01*
X191345000Y-85950013D01*
X191345000Y-86945000D01*
X192339988Y-86945000D01*
X192376279Y-86780807D01*
X192370837Y-86760348D01*
X194566773Y-86760348D01*
X194566773Y-87239652D01*
X194660281Y-87709746D01*
X194843703Y-88152565D01*
X195109989Y-88551092D01*
X195448908Y-88890011D01*
X195847435Y-89156297D01*
X196290254Y-89339719D01*
X196760348Y-89433227D01*
X197239652Y-89433227D01*
X197709746Y-89339719D01*
X198152565Y-89156297D01*
X198551092Y-88890011D01*
X198890011Y-88551092D01*
X199156297Y-88152565D01*
X199339719Y-87709746D01*
X199433227Y-87239652D01*
X199433227Y-86760348D01*
X199339719Y-86290254D01*
X199156297Y-85847435D01*
X198890011Y-85448908D01*
X198551092Y-85109989D01*
X198152565Y-84843703D01*
X197709746Y-84660281D01*
X197239652Y-84566773D01*
X196760348Y-84566773D01*
X196290254Y-84660281D01*
X195847435Y-84843703D01*
X195448908Y-85109989D01*
X195109989Y-85448908D01*
X194843703Y-85847435D01*
X194660281Y-86290254D01*
X194566773Y-86760348D01*
X192370837Y-86760348D01*
X192323359Y-86581890D01*
X192232649Y-86397119D01*
X192107635Y-86233595D01*
X191953121Y-86097602D01*
X191775045Y-85994367D01*
X191580251Y-85927856D01*
X191509193Y-85913721D01*
X191345000Y-85950013D01*
X191335000Y-85950013D01*
X191170807Y-85913721D01*
X191099749Y-85927856D01*
X190904955Y-85994367D01*
X190726879Y-86097602D01*
X190572365Y-86233595D01*
X190447351Y-86397119D01*
X190356641Y-86581890D01*
X190303721Y-86780807D01*
X189938876Y-86780807D01*
X189905806Y-86614557D01*
X189819116Y-86405271D01*
X189693263Y-86216918D01*
X189533082Y-86056737D01*
X189344729Y-85930884D01*
X189135443Y-85844194D01*
X188913265Y-85800000D01*
X188686735Y-85800000D01*
X188464557Y-85844194D01*
X188255271Y-85930884D01*
X188066918Y-86056737D01*
X187906737Y-86216918D01*
X187780884Y-86405271D01*
X187694194Y-86614557D01*
X187650000Y-86836735D01*
X187650000Y-87063265D01*
X187694194Y-87285443D01*
X187780884Y-87494729D01*
X187906737Y-87683082D01*
X188066918Y-87843263D01*
X188255271Y-87969116D01*
X188375001Y-88018710D01*
X188375000Y-89920873D01*
X188375001Y-89920883D01*
X188375000Y-90833959D01*
X187083960Y-92125000D01*
X180251345Y-92125000D01*
X180353263Y-92023082D01*
X180479116Y-91834729D01*
X180565806Y-91625443D01*
X180610000Y-91403265D01*
X180610000Y-91176735D01*
X180565806Y-90954557D01*
X180479116Y-90745271D01*
X180353263Y-90556918D01*
X180251345Y-90455000D01*
X185389133Y-90455000D01*
X185410000Y-90457055D01*
X185430867Y-90455000D01*
X185430874Y-90455000D01*
X185493314Y-90448850D01*
X185573427Y-90424548D01*
X185647260Y-90385084D01*
X185711974Y-90331974D01*
X185725284Y-90315756D01*
X186545756Y-89495284D01*
X186561974Y-89481974D01*
X186615084Y-89417260D01*
X186654548Y-89343427D01*
X186678850Y-89263314D01*
X186685000Y-89200874D01*
X186687056Y-89180000D01*
X186685000Y-89159126D01*
X186685000Y-88018710D01*
X186804729Y-87969116D01*
X186993082Y-87843263D01*
X187153263Y-87683082D01*
X187279116Y-87494729D01*
X187365806Y-87285443D01*
X187410000Y-87063265D01*
X187410000Y-86836735D01*
X187365806Y-86614557D01*
X187279116Y-86405271D01*
X187153263Y-86216918D01*
X186993082Y-86056737D01*
X186804729Y-85930884D01*
X186595443Y-85844194D01*
X186373265Y-85800000D01*
X186146735Y-85800000D01*
X185924557Y-85844194D01*
X185715271Y-85930884D01*
X185526918Y-86056737D01*
X185366737Y-86216918D01*
X185240884Y-86405271D01*
X185154194Y-86614557D01*
X185110000Y-86836735D01*
X185110000Y-87063265D01*
X185154194Y-87285443D01*
X185240884Y-87494729D01*
X185366737Y-87683082D01*
X185526918Y-87843263D01*
X185715271Y-87969116D01*
X185835000Y-88018710D01*
X185835001Y-89003959D01*
X185233960Y-89605000D01*
X180510475Y-89605000D01*
X180510968Y-89600000D01*
X180510000Y-88805000D01*
X180460000Y-88755000D01*
X179465000Y-88755000D01*
X179465000Y-88775000D01*
X179455000Y-88775000D01*
X179455000Y-88755000D01*
X178460000Y-88755000D01*
X178410000Y-88805000D01*
X178409032Y-89600000D01*
X178409525Y-89605000D01*
X173650866Y-89605000D01*
X173629999Y-89602945D01*
X173609132Y-89605000D01*
X173609126Y-89605000D01*
X173555098Y-89610321D01*
X173546685Y-89611150D01*
X173522383Y-89618522D01*
X173466573Y-89635452D01*
X173392740Y-89674916D01*
X173392738Y-89674917D01*
X173392739Y-89674917D01*
X173347978Y-89711652D01*
X173328026Y-89728026D01*
X173314721Y-89744238D01*
X168917581Y-94141379D01*
X168930000Y-94078944D01*
X168930000Y-93941056D01*
X168903099Y-93805818D01*
X168850332Y-93678426D01*
X168773726Y-93563776D01*
X168676224Y-93466274D01*
X168561574Y-93389668D01*
X168434182Y-93336901D01*
X168298944Y-93310000D01*
X168161056Y-93310000D01*
X168025818Y-93336901D01*
X167898426Y-93389668D01*
X167783776Y-93466274D01*
X167686274Y-93563776D01*
X167672093Y-93585000D01*
X136530866Y-93585000D01*
X136509999Y-93582945D01*
X136489132Y-93585000D01*
X136489126Y-93585000D01*
X136435098Y-93590321D01*
X136426685Y-93591150D01*
X136402383Y-93598522D01*
X136346573Y-93615452D01*
X136272740Y-93654916D01*
X136208026Y-93708026D01*
X136194721Y-93724238D01*
X134738961Y-95179999D01*
X128255867Y-95179999D01*
X128235000Y-95177944D01*
X128214133Y-95179999D01*
X128214127Y-95179999D01*
X128160099Y-95185320D01*
X128151686Y-95186149D01*
X128127384Y-95193521D01*
X128071574Y-95210451D01*
X127997741Y-95249915D01*
X127933027Y-95303025D01*
X127919722Y-95319237D01*
X127603979Y-95634980D01*
X127578944Y-95630000D01*
X127441056Y-95630000D01*
X127305818Y-95656901D01*
X127178426Y-95709668D01*
X127063776Y-95786274D01*
X126966274Y-95883776D01*
X126889668Y-95998426D01*
X126836901Y-96125818D01*
X126810000Y-96261056D01*
X126810000Y-96398944D01*
X126836901Y-96534182D01*
X126889668Y-96661574D01*
X126966274Y-96776224D01*
X127063776Y-96873726D01*
X127178426Y-96950332D01*
X127305818Y-97003099D01*
X127441056Y-97030000D01*
X127578944Y-97030000D01*
X127714182Y-97003099D01*
X127841574Y-96950332D01*
X127956224Y-96873726D01*
X128053726Y-96776224D01*
X128095000Y-96714453D01*
X128136274Y-96776224D01*
X128233776Y-96873726D01*
X128348426Y-96950332D01*
X128475818Y-97003099D01*
X128611056Y-97030000D01*
X128748944Y-97030000D01*
X128884182Y-97003099D01*
X129011574Y-96950332D01*
X129126224Y-96873726D01*
X129223726Y-96776224D01*
X129237907Y-96755000D01*
X135239133Y-96755000D01*
X135260000Y-96757055D01*
X135280867Y-96755000D01*
X135280874Y-96755000D01*
X135343314Y-96748850D01*
X135423427Y-96724548D01*
X135497260Y-96685084D01*
X135561974Y-96631974D01*
X135575283Y-96615757D01*
X136946041Y-95245000D01*
X155613050Y-95245000D01*
X155554274Y-95303776D01*
X155477668Y-95418426D01*
X155424901Y-95545818D01*
X155398000Y-95681056D01*
X155398000Y-95810959D01*
X155113960Y-96095000D01*
X137140866Y-96095000D01*
X137119999Y-96092945D01*
X137099132Y-96095000D01*
X137099126Y-96095000D01*
X137045098Y-96100321D01*
X137036685Y-96101150D01*
X137023717Y-96105084D01*
X136956573Y-96125452D01*
X136882740Y-96164916D01*
X136870453Y-96175000D01*
X136844592Y-96196224D01*
X136818026Y-96218026D01*
X136804721Y-96234238D01*
X131753960Y-101285000D01*
X130313907Y-101285000D01*
X130299726Y-101263776D01*
X130202224Y-101166274D01*
X130087574Y-101089668D01*
X129960182Y-101036901D01*
X129824944Y-101010000D01*
X129687056Y-101010000D01*
X129551818Y-101036901D01*
X129424426Y-101089668D01*
X129309776Y-101166274D01*
X129212274Y-101263776D01*
X129135668Y-101378426D01*
X129082901Y-101505818D01*
X129056000Y-101641056D01*
X129056000Y-101778944D01*
X129082901Y-101914182D01*
X129135668Y-102041574D01*
X129212274Y-102156224D01*
X129266050Y-102210000D01*
X129212274Y-102263776D01*
X129135668Y-102378426D01*
X129082901Y-102505818D01*
X129056000Y-102641056D01*
X129056000Y-102778944D01*
X129057418Y-102786072D01*
X126289858Y-102790000D01*
X126270491Y-102791921D01*
X126251732Y-102797612D01*
X126234443Y-102806853D01*
X126219289Y-102819289D01*
X126206853Y-102834443D01*
X126197612Y-102851732D01*
X126191921Y-102870491D01*
X126190000Y-102890000D01*
X126190000Y-103450001D01*
X126177042Y-103450001D01*
X126031020Y-103303979D01*
X126036000Y-103278944D01*
X126036000Y-103141056D01*
X126009099Y-103005818D01*
X125956332Y-102878426D01*
X125879726Y-102763776D01*
X125782224Y-102666274D01*
X125667574Y-102589668D01*
X125540182Y-102536901D01*
X125404944Y-102510000D01*
X125267056Y-102510000D01*
X125131818Y-102536901D01*
X125004426Y-102589668D01*
X124889776Y-102666274D01*
X124792274Y-102763776D01*
X124715668Y-102878426D01*
X124681000Y-102962123D01*
X124681000Y-100767907D01*
X124702224Y-100753726D01*
X124799726Y-100656224D01*
X124813907Y-100635000D01*
X129659133Y-100635000D01*
X129680000Y-100637055D01*
X129700867Y-100635000D01*
X129700874Y-100635000D01*
X129763314Y-100628850D01*
X129843427Y-100604548D01*
X129917260Y-100565084D01*
X129981974Y-100511974D01*
X129995284Y-100495756D01*
X130620785Y-99870255D01*
X130624774Y-99876224D01*
X130722276Y-99973726D01*
X130836926Y-100050332D01*
X130964318Y-100103099D01*
X131099556Y-100130000D01*
X131237444Y-100130000D01*
X131372682Y-100103099D01*
X131500074Y-100050332D01*
X131614724Y-99973726D01*
X131712226Y-99876224D01*
X131788832Y-99761574D01*
X131841599Y-99634182D01*
X131868500Y-99498944D01*
X131868500Y-99361056D01*
X131841599Y-99225818D01*
X131788832Y-99098426D01*
X131712226Y-98983776D01*
X131614724Y-98886274D01*
X131500074Y-98809668D01*
X131372682Y-98756901D01*
X131237444Y-98730000D01*
X131099556Y-98730000D01*
X130964318Y-98756901D01*
X130836926Y-98809668D01*
X130722276Y-98886274D01*
X130624774Y-98983776D01*
X130610593Y-99005000D01*
X130480874Y-99005000D01*
X130460000Y-99002944D01*
X130439126Y-99005000D01*
X130376686Y-99011150D01*
X130296573Y-99035452D01*
X130222740Y-99074916D01*
X130158026Y-99128026D01*
X130144716Y-99144244D01*
X129503960Y-99785000D01*
X124813907Y-99785000D01*
X124799726Y-99763776D01*
X124702224Y-99666274D01*
X124681000Y-99652093D01*
X124681000Y-95870040D01*
X125241763Y-95309278D01*
X125257974Y-95295974D01*
X125282390Y-95266224D01*
X125311083Y-95231261D01*
X125311084Y-95231260D01*
X125350548Y-95157427D01*
X125374850Y-95077314D01*
X125381000Y-95014874D01*
X125381000Y-95014868D01*
X125383055Y-94994001D01*
X125381000Y-94973134D01*
X125381000Y-94121452D01*
X125506000Y-94121452D01*
X125564810Y-94115660D01*
X125621361Y-94098505D01*
X125631001Y-94093352D01*
X125640640Y-94098504D01*
X125644240Y-94099596D01*
X125635668Y-94112426D01*
X125582901Y-94239818D01*
X125556000Y-94375056D01*
X125556000Y-94512944D01*
X125582901Y-94648182D01*
X125635668Y-94775574D01*
X125712274Y-94890224D01*
X125809776Y-94987726D01*
X125924426Y-95064332D01*
X126051818Y-95117099D01*
X126187056Y-95144000D01*
X126324944Y-95144000D01*
X126460182Y-95117099D01*
X126587574Y-95064332D01*
X126702224Y-94987726D01*
X126799726Y-94890224D01*
X126876332Y-94775574D01*
X126929099Y-94648182D01*
X126956000Y-94512944D01*
X126956000Y-94375056D01*
X126929099Y-94239818D01*
X126876332Y-94112426D01*
X126867760Y-94099596D01*
X126871360Y-94098504D01*
X126923477Y-94070647D01*
X126969158Y-94033158D01*
X127006647Y-93987477D01*
X127034504Y-93935360D01*
X127051659Y-93878810D01*
X127057451Y-93820000D01*
X127057451Y-92320000D01*
X127051659Y-92261190D01*
X127034504Y-92204640D01*
X127006647Y-92152523D01*
X126969158Y-92106842D01*
X126923477Y-92069353D01*
X126871360Y-92041496D01*
X126814810Y-92024341D01*
X126756000Y-92018549D01*
X125756000Y-92018549D01*
X125697190Y-92024341D01*
X125640640Y-92041496D01*
X125631001Y-92046648D01*
X125621361Y-92041495D01*
X125564810Y-92024340D01*
X125506000Y-92018548D01*
X125381000Y-92018548D01*
X125381000Y-91070040D01*
X126618041Y-89833000D01*
X127963290Y-89833000D01*
X128012884Y-89952729D01*
X128138737Y-90141082D01*
X128298918Y-90301263D01*
X128487271Y-90427116D01*
X128696557Y-90513806D01*
X128918735Y-90558000D01*
X129145265Y-90558000D01*
X129367443Y-90513806D01*
X129576729Y-90427116D01*
X129765082Y-90301263D01*
X129925263Y-90141082D01*
X130051116Y-89952729D01*
X130137806Y-89743443D01*
X130170875Y-89577193D01*
X130535721Y-89577193D01*
X130588641Y-89776110D01*
X130679351Y-89960881D01*
X130804365Y-90124405D01*
X130958879Y-90260398D01*
X131136955Y-90363633D01*
X131331749Y-90430144D01*
X131402807Y-90444279D01*
X131567000Y-90407987D01*
X131567000Y-89413000D01*
X131577000Y-89413000D01*
X131577000Y-90407987D01*
X131741193Y-90444279D01*
X131812251Y-90430144D01*
X132007045Y-90363633D01*
X132185121Y-90260398D01*
X132339635Y-90124405D01*
X132464649Y-89960881D01*
X132555359Y-89776110D01*
X132608279Y-89577193D01*
X133075721Y-89577193D01*
X133128641Y-89776110D01*
X133219351Y-89960881D01*
X133344365Y-90124405D01*
X133498879Y-90260398D01*
X133676955Y-90363633D01*
X133871749Y-90430144D01*
X133942807Y-90444279D01*
X134107000Y-90407987D01*
X134107000Y-89413000D01*
X134117000Y-89413000D01*
X134117000Y-90407987D01*
X134281193Y-90444279D01*
X134352251Y-90430144D01*
X134547045Y-90363633D01*
X134725121Y-90260398D01*
X134879635Y-90124405D01*
X135004649Y-89960881D01*
X135095359Y-89776110D01*
X135148279Y-89577193D01*
X135615721Y-89577193D01*
X135668641Y-89776110D01*
X135759351Y-89960881D01*
X135884365Y-90124405D01*
X136038879Y-90260398D01*
X136216955Y-90363633D01*
X136411749Y-90430144D01*
X136482807Y-90444279D01*
X136647000Y-90407987D01*
X136647000Y-89413000D01*
X136657000Y-89413000D01*
X136657000Y-90407987D01*
X136821193Y-90444279D01*
X136892251Y-90430144D01*
X137087045Y-90363633D01*
X137265121Y-90260398D01*
X137419635Y-90124405D01*
X137544649Y-89960881D01*
X137635359Y-89776110D01*
X137688279Y-89577193D01*
X138155721Y-89577193D01*
X138208641Y-89776110D01*
X138299351Y-89960881D01*
X138424365Y-90124405D01*
X138578879Y-90260398D01*
X138756955Y-90363633D01*
X138951749Y-90430144D01*
X139022807Y-90444279D01*
X139187000Y-90407987D01*
X139187000Y-89413000D01*
X139197000Y-89413000D01*
X139197000Y-90407987D01*
X139361193Y-90444279D01*
X139432251Y-90430144D01*
X139627045Y-90363633D01*
X139805121Y-90260398D01*
X139959635Y-90124405D01*
X140084649Y-89960881D01*
X140175359Y-89776110D01*
X140182571Y-89749000D01*
X151828000Y-89749000D01*
X151828000Y-90299000D01*
X151842426Y-90435467D01*
X151883198Y-90566498D01*
X151948749Y-90687057D01*
X152036561Y-90792511D01*
X152143259Y-90878807D01*
X152264742Y-90942629D01*
X152396342Y-90981525D01*
X152413560Y-90984582D01*
X152523000Y-90943981D01*
X152523000Y-89749000D01*
X152533000Y-89749000D01*
X152533000Y-90943981D01*
X152642440Y-90984582D01*
X152659658Y-90981525D01*
X152791258Y-90942629D01*
X152912741Y-90878807D01*
X153019439Y-90792511D01*
X153107251Y-90687057D01*
X153172802Y-90566498D01*
X153213574Y-90435467D01*
X153228000Y-90299000D01*
X153228000Y-89749000D01*
X152533000Y-89749000D01*
X152523000Y-89749000D01*
X151828000Y-89749000D01*
X140182571Y-89749000D01*
X140228279Y-89577193D01*
X140191988Y-89413000D01*
X139197000Y-89413000D01*
X139187000Y-89413000D01*
X138192012Y-89413000D01*
X138155721Y-89577193D01*
X137688279Y-89577193D01*
X137651988Y-89413000D01*
X136657000Y-89413000D01*
X136647000Y-89413000D01*
X135652012Y-89413000D01*
X135615721Y-89577193D01*
X135148279Y-89577193D01*
X135111988Y-89413000D01*
X134117000Y-89413000D01*
X134107000Y-89413000D01*
X133112012Y-89413000D01*
X133075721Y-89577193D01*
X132608279Y-89577193D01*
X132571988Y-89413000D01*
X131577000Y-89413000D01*
X131567000Y-89413000D01*
X130572012Y-89413000D01*
X130535721Y-89577193D01*
X130170875Y-89577193D01*
X130182000Y-89521265D01*
X130182000Y-89294735D01*
X130170876Y-89238807D01*
X130535721Y-89238807D01*
X130572012Y-89403000D01*
X131567000Y-89403000D01*
X131567000Y-88408013D01*
X131577000Y-88408013D01*
X131577000Y-89403000D01*
X132571988Y-89403000D01*
X132608279Y-89238807D01*
X133075721Y-89238807D01*
X133112012Y-89403000D01*
X134107000Y-89403000D01*
X134107000Y-88408013D01*
X134117000Y-88408013D01*
X134117000Y-89403000D01*
X135111988Y-89403000D01*
X135148279Y-89238807D01*
X135615721Y-89238807D01*
X135652012Y-89403000D01*
X136647000Y-89403000D01*
X136647000Y-88408013D01*
X136657000Y-88408013D01*
X136657000Y-89403000D01*
X137651988Y-89403000D01*
X137688279Y-89238807D01*
X138155721Y-89238807D01*
X138192012Y-89403000D01*
X139187000Y-89403000D01*
X139187000Y-88408013D01*
X139197000Y-88408013D01*
X139197000Y-89403000D01*
X140191988Y-89403000D01*
X140228279Y-89238807D01*
X140215029Y-89189000D01*
X151828000Y-89189000D01*
X151828000Y-89739000D01*
X152523000Y-89739000D01*
X152523000Y-88544019D01*
X152533000Y-88544019D01*
X152533000Y-89739000D01*
X153228000Y-89739000D01*
X153228000Y-89189000D01*
X153224136Y-89152443D01*
X153333000Y-89152443D01*
X153333000Y-89275557D01*
X153357019Y-89396306D01*
X153404132Y-89510048D01*
X153472531Y-89612414D01*
X153559586Y-89699469D01*
X153661952Y-89767868D01*
X153775694Y-89814981D01*
X153896443Y-89839000D01*
X154019557Y-89839000D01*
X154140306Y-89814981D01*
X154254048Y-89767868D01*
X154356414Y-89699469D01*
X154443469Y-89612414D01*
X154511868Y-89510048D01*
X154558981Y-89396306D01*
X154583000Y-89275557D01*
X154583000Y-89152443D01*
X159113000Y-89152443D01*
X159113000Y-89275557D01*
X159137019Y-89396306D01*
X159184132Y-89510048D01*
X159252531Y-89612414D01*
X159339586Y-89699469D01*
X159441952Y-89767868D01*
X159555694Y-89814981D01*
X159676443Y-89839000D01*
X159799557Y-89839000D01*
X159920306Y-89814981D01*
X160034048Y-89767868D01*
X160062285Y-89749000D01*
X160468000Y-89749000D01*
X160468000Y-90299000D01*
X160482426Y-90435467D01*
X160523198Y-90566498D01*
X160588749Y-90687057D01*
X160676561Y-90792511D01*
X160783259Y-90878807D01*
X160904742Y-90942629D01*
X161036342Y-90981525D01*
X161053560Y-90984582D01*
X161163000Y-90943981D01*
X161163000Y-89749000D01*
X161173000Y-89749000D01*
X161173000Y-90943981D01*
X161282440Y-90984582D01*
X161299658Y-90981525D01*
X161431258Y-90942629D01*
X161552741Y-90878807D01*
X161659439Y-90792511D01*
X161747251Y-90687057D01*
X161812802Y-90566498D01*
X161853574Y-90435467D01*
X161868000Y-90299000D01*
X161868000Y-89749000D01*
X161173000Y-89749000D01*
X161163000Y-89749000D01*
X160468000Y-89749000D01*
X160062285Y-89749000D01*
X160136414Y-89699469D01*
X160223469Y-89612414D01*
X160291868Y-89510048D01*
X160338981Y-89396306D01*
X160363000Y-89275557D01*
X160363000Y-89189000D01*
X160468000Y-89189000D01*
X160468000Y-89739000D01*
X161163000Y-89739000D01*
X161163000Y-88544019D01*
X161173000Y-88544019D01*
X161173000Y-89739000D01*
X161868000Y-89739000D01*
X161868000Y-89189000D01*
X161853574Y-89052533D01*
X161812802Y-88921502D01*
X161747251Y-88800943D01*
X161659439Y-88695489D01*
X161552741Y-88609193D01*
X161431258Y-88545371D01*
X161299658Y-88506475D01*
X161282440Y-88503418D01*
X161173000Y-88544019D01*
X161163000Y-88544019D01*
X161053560Y-88503418D01*
X161036342Y-88506475D01*
X160904742Y-88545371D01*
X160783259Y-88609193D01*
X160676561Y-88695489D01*
X160588749Y-88800943D01*
X160523198Y-88921502D01*
X160482426Y-89052533D01*
X160468000Y-89189000D01*
X160363000Y-89189000D01*
X160363000Y-89152443D01*
X160338981Y-89031694D01*
X160291868Y-88917952D01*
X160223469Y-88815586D01*
X160136414Y-88728531D01*
X160034048Y-88660132D01*
X159920306Y-88613019D01*
X159799557Y-88589000D01*
X159676443Y-88589000D01*
X159555694Y-88613019D01*
X159441952Y-88660132D01*
X159339586Y-88728531D01*
X159252531Y-88815586D01*
X159184132Y-88917952D01*
X159137019Y-89031694D01*
X159113000Y-89152443D01*
X154583000Y-89152443D01*
X154558981Y-89031694D01*
X154511868Y-88917952D01*
X154443469Y-88815586D01*
X154356414Y-88728531D01*
X154254048Y-88660132D01*
X154140306Y-88613019D01*
X154019557Y-88589000D01*
X153896443Y-88589000D01*
X153775694Y-88613019D01*
X153661952Y-88660132D01*
X153559586Y-88728531D01*
X153472531Y-88815586D01*
X153404132Y-88917952D01*
X153357019Y-89031694D01*
X153333000Y-89152443D01*
X153224136Y-89152443D01*
X153213574Y-89052533D01*
X153172802Y-88921502D01*
X153107251Y-88800943D01*
X153019439Y-88695489D01*
X152912741Y-88609193D01*
X152791258Y-88545371D01*
X152659658Y-88506475D01*
X152642440Y-88503418D01*
X152533000Y-88544019D01*
X152523000Y-88544019D01*
X152413560Y-88503418D01*
X152396342Y-88506475D01*
X152264742Y-88545371D01*
X152143259Y-88609193D01*
X152036561Y-88695489D01*
X151948749Y-88800943D01*
X151883198Y-88921502D01*
X151842426Y-89052533D01*
X151828000Y-89189000D01*
X140215029Y-89189000D01*
X140175359Y-89039890D01*
X140084649Y-88855119D01*
X139959635Y-88691595D01*
X139805121Y-88555602D01*
X139627045Y-88452367D01*
X139432251Y-88385856D01*
X139361193Y-88371721D01*
X139197000Y-88408013D01*
X139187000Y-88408013D01*
X139022807Y-88371721D01*
X138951749Y-88385856D01*
X138756955Y-88452367D01*
X138578879Y-88555602D01*
X138424365Y-88691595D01*
X138299351Y-88855119D01*
X138208641Y-89039890D01*
X138155721Y-89238807D01*
X137688279Y-89238807D01*
X137635359Y-89039890D01*
X137544649Y-88855119D01*
X137419635Y-88691595D01*
X137265121Y-88555602D01*
X137087045Y-88452367D01*
X136892251Y-88385856D01*
X136821193Y-88371721D01*
X136657000Y-88408013D01*
X136647000Y-88408013D01*
X136482807Y-88371721D01*
X136411749Y-88385856D01*
X136216955Y-88452367D01*
X136038879Y-88555602D01*
X135884365Y-88691595D01*
X135759351Y-88855119D01*
X135668641Y-89039890D01*
X135615721Y-89238807D01*
X135148279Y-89238807D01*
X135095359Y-89039890D01*
X135004649Y-88855119D01*
X134879635Y-88691595D01*
X134725121Y-88555602D01*
X134547045Y-88452367D01*
X134352251Y-88385856D01*
X134281193Y-88371721D01*
X134117000Y-88408013D01*
X134107000Y-88408013D01*
X133942807Y-88371721D01*
X133871749Y-88385856D01*
X133676955Y-88452367D01*
X133498879Y-88555602D01*
X133344365Y-88691595D01*
X133219351Y-88855119D01*
X133128641Y-89039890D01*
X133075721Y-89238807D01*
X132608279Y-89238807D01*
X132555359Y-89039890D01*
X132464649Y-88855119D01*
X132339635Y-88691595D01*
X132185121Y-88555602D01*
X132007045Y-88452367D01*
X131812251Y-88385856D01*
X131741193Y-88371721D01*
X131577000Y-88408013D01*
X131567000Y-88408013D01*
X131402807Y-88371721D01*
X131331749Y-88385856D01*
X131136955Y-88452367D01*
X130958879Y-88555602D01*
X130804365Y-88691595D01*
X130679351Y-88855119D01*
X130588641Y-89039890D01*
X130535721Y-89238807D01*
X130170876Y-89238807D01*
X130137806Y-89072557D01*
X130051116Y-88863271D01*
X129925263Y-88674918D01*
X129765082Y-88514737D01*
X129576729Y-88388884D01*
X129367443Y-88302194D01*
X129145265Y-88258000D01*
X128918735Y-88258000D01*
X128696557Y-88302194D01*
X128487271Y-88388884D01*
X128298918Y-88514737D01*
X128138737Y-88674918D01*
X128012884Y-88863271D01*
X127963290Y-88983000D01*
X126462866Y-88983000D01*
X126441999Y-88980945D01*
X126421132Y-88983000D01*
X121702867Y-88983000D01*
X121682000Y-88980945D01*
X121661133Y-88983000D01*
X121661126Y-88983000D01*
X121598686Y-88989150D01*
X121518573Y-89013452D01*
X121444740Y-89052916D01*
X121380026Y-89106026D01*
X121366721Y-89122238D01*
X119754239Y-90734721D01*
X119738027Y-90748026D01*
X119684917Y-90812740D01*
X119652640Y-90873127D01*
X119645453Y-90886573D01*
X119621150Y-90966686D01*
X119612945Y-91050000D01*
X119615001Y-91070877D01*
X119615000Y-92142973D01*
X119555325Y-92182847D01*
X119509644Y-92220336D01*
X119440336Y-92289644D01*
X119402847Y-92335325D01*
X119348391Y-92416824D01*
X119320533Y-92468943D01*
X119283024Y-92559499D01*
X119265870Y-92616048D01*
X119246748Y-92712181D01*
X119240956Y-92770991D01*
X119240956Y-92795550D01*
X119238548Y-92820000D01*
X119238548Y-93320000D01*
X119240956Y-93344450D01*
X119240956Y-93369009D01*
X119246748Y-93427819D01*
X119265870Y-93523952D01*
X119283024Y-93580501D01*
X119320533Y-93671057D01*
X119348391Y-93723176D01*
X119402847Y-93804675D01*
X119440336Y-93850356D01*
X119509644Y-93919664D01*
X119555325Y-93957153D01*
X119636824Y-94011609D01*
X119688943Y-94039467D01*
X119779499Y-94076976D01*
X119836048Y-94094130D01*
X119932181Y-94113252D01*
X119990991Y-94119044D01*
X120015550Y-94119044D01*
X120040000Y-94121452D01*
X120590000Y-94121452D01*
X120648810Y-94115660D01*
X120705361Y-94098505D01*
X120715001Y-94093352D01*
X120724640Y-94098504D01*
X120781190Y-94115659D01*
X120840000Y-94121451D01*
X120915001Y-94121451D01*
X120915000Y-97621133D01*
X120912945Y-97642000D01*
X120915000Y-97662867D01*
X120915000Y-97662873D01*
X120921150Y-97725313D01*
X120945452Y-97805426D01*
X120984916Y-97879259D01*
X121038026Y-97943974D01*
X121054243Y-97957283D01*
X123019001Y-99922042D01*
X123019000Y-104653133D01*
X123016945Y-104674000D01*
X123019000Y-104694867D01*
X123019000Y-104694873D01*
X123019534Y-104700291D01*
X123025150Y-104757314D01*
X123027959Y-104766573D01*
X123049452Y-104837426D01*
X123088916Y-104911259D01*
X123142026Y-104975974D01*
X123158243Y-104989283D01*
X124624719Y-106455760D01*
X124638026Y-106471974D01*
X124702740Y-106525084D01*
X124776573Y-106564548D01*
X124823938Y-106578916D01*
X124856685Y-106588850D01*
X124865098Y-106589679D01*
X124919126Y-106595000D01*
X124919132Y-106595000D01*
X124939999Y-106597055D01*
X124960866Y-106595000D01*
X126190000Y-106595000D01*
X126190000Y-123210000D01*
X126191949Y-123229648D01*
X126197666Y-123248399D01*
X126206932Y-123265675D01*
X126219390Y-123280811D01*
X126234561Y-123293226D01*
X126251863Y-123302442D01*
X126270630Y-123308106D01*
X126290142Y-123310000D01*
X203345000Y-123200632D01*
X203345000Y-129469000D01*
X110325000Y-129469000D01*
X110325000Y-125616348D01*
X119601773Y-125616348D01*
X119601773Y-126095652D01*
X119695281Y-126565746D01*
X119878703Y-127008565D01*
X120144989Y-127407092D01*
X120483908Y-127746011D01*
X120882435Y-128012297D01*
X121325254Y-128195719D01*
X121795348Y-128289227D01*
X122274652Y-128289227D01*
X122744746Y-128195719D01*
X123187565Y-128012297D01*
X123586092Y-127746011D01*
X123925011Y-127407092D01*
X124191297Y-127008565D01*
X124374719Y-126565746D01*
X124468227Y-126095652D01*
X124468227Y-125616348D01*
X189201773Y-125616348D01*
X189201773Y-126095652D01*
X189295281Y-126565746D01*
X189478703Y-127008565D01*
X189744989Y-127407092D01*
X190083908Y-127746011D01*
X190482435Y-128012297D01*
X190925254Y-128195719D01*
X191395348Y-128289227D01*
X191874652Y-128289227D01*
X192344746Y-128195719D01*
X192787565Y-128012297D01*
X193186092Y-127746011D01*
X193525011Y-127407092D01*
X193791297Y-127008565D01*
X193974719Y-126565746D01*
X194068227Y-126095652D01*
X194068227Y-125616348D01*
X193974719Y-125146254D01*
X193791297Y-124703435D01*
X193525011Y-124304908D01*
X193186092Y-123965989D01*
X192787565Y-123699703D01*
X192344746Y-123516281D01*
X191874652Y-123422773D01*
X191395348Y-123422773D01*
X190925254Y-123516281D01*
X190482435Y-123699703D01*
X190083908Y-123965989D01*
X189744989Y-124304908D01*
X189478703Y-124703435D01*
X189295281Y-125146254D01*
X189201773Y-125616348D01*
X124468227Y-125616348D01*
X124374719Y-125146254D01*
X124191297Y-124703435D01*
X123925011Y-124304908D01*
X123586092Y-123965989D01*
X123187565Y-123699703D01*
X122744746Y-123516281D01*
X122274652Y-123422773D01*
X121795348Y-123422773D01*
X121325254Y-123516281D01*
X120882435Y-123699703D01*
X120483908Y-123965989D01*
X120144989Y-124304908D01*
X119878703Y-124703435D01*
X119695281Y-125146254D01*
X119601773Y-125616348D01*
X110325000Y-125616348D01*
X110325000Y-105571056D01*
X119430000Y-105571056D01*
X119430000Y-105708944D01*
X119456901Y-105844182D01*
X119509668Y-105971574D01*
X119586274Y-106086224D01*
X119683776Y-106183726D01*
X119798426Y-106260332D01*
X119925818Y-106313099D01*
X120061056Y-106340000D01*
X120198944Y-106340000D01*
X120334182Y-106313099D01*
X120461574Y-106260332D01*
X120576224Y-106183726D01*
X120673726Y-106086224D01*
X120750332Y-105971574D01*
X120803099Y-105844182D01*
X120830000Y-105708944D01*
X120830000Y-105571056D01*
X120803099Y-105435818D01*
X120750332Y-105308426D01*
X120673726Y-105193776D01*
X120576224Y-105096274D01*
X120555000Y-105082093D01*
X120555000Y-100156040D01*
X120957021Y-99754020D01*
X120982056Y-99759000D01*
X121119944Y-99759000D01*
X121255182Y-99732099D01*
X121382574Y-99679332D01*
X121497224Y-99602726D01*
X121594726Y-99505224D01*
X121671332Y-99390574D01*
X121724099Y-99263182D01*
X121751000Y-99127944D01*
X121751000Y-98990056D01*
X121724099Y-98854818D01*
X121671332Y-98727426D01*
X121594726Y-98612776D01*
X121497224Y-98515274D01*
X121382574Y-98438668D01*
X121255182Y-98385901D01*
X121119944Y-98359000D01*
X120982056Y-98359000D01*
X120846818Y-98385901D01*
X120719426Y-98438668D01*
X120604776Y-98515274D01*
X120507274Y-98612776D01*
X120430668Y-98727426D01*
X120377901Y-98854818D01*
X120351000Y-98990056D01*
X120351000Y-99127944D01*
X120355980Y-99152979D01*
X119844239Y-99664721D01*
X119828027Y-99678026D01*
X119774917Y-99742740D01*
X119758575Y-99773314D01*
X119735453Y-99816573D01*
X119711150Y-99896686D01*
X119702945Y-99980000D01*
X119705001Y-100000877D01*
X119705000Y-105082093D01*
X119683776Y-105096274D01*
X119586274Y-105193776D01*
X119509668Y-105308426D01*
X119456901Y-105435818D01*
X119430000Y-105571056D01*
X110325000Y-105571056D01*
X110325000Y-86760348D01*
X114236773Y-86760348D01*
X114236773Y-87239652D01*
X114330281Y-87709746D01*
X114513703Y-88152565D01*
X114779989Y-88551092D01*
X115118908Y-88890011D01*
X115517435Y-89156297D01*
X115960254Y-89339719D01*
X116430348Y-89433227D01*
X116909652Y-89433227D01*
X117379746Y-89339719D01*
X117822565Y-89156297D01*
X118221092Y-88890011D01*
X118560011Y-88551092D01*
X118826297Y-88152565D01*
X119009719Y-87709746D01*
X119103227Y-87239652D01*
X119103227Y-86760348D01*
X119009719Y-86290254D01*
X118896948Y-86018000D01*
X127880549Y-86018000D01*
X127880549Y-87718000D01*
X127886341Y-87776810D01*
X127903496Y-87833360D01*
X127931353Y-87885477D01*
X127968842Y-87931158D01*
X128014523Y-87968647D01*
X128066640Y-87996504D01*
X128123190Y-88013659D01*
X128182000Y-88019451D01*
X129882000Y-88019451D01*
X129940810Y-88013659D01*
X129997360Y-87996504D01*
X130049477Y-87968647D01*
X130095158Y-87931158D01*
X130132647Y-87885477D01*
X130160504Y-87833360D01*
X130177659Y-87776810D01*
X130183451Y-87718000D01*
X130183451Y-86754735D01*
X130422000Y-86754735D01*
X130422000Y-86981265D01*
X130466194Y-87203443D01*
X130552884Y-87412729D01*
X130678737Y-87601082D01*
X130838918Y-87761263D01*
X131027271Y-87887116D01*
X131236557Y-87973806D01*
X131458735Y-88018000D01*
X131685265Y-88018000D01*
X131907443Y-87973806D01*
X132116729Y-87887116D01*
X132305082Y-87761263D01*
X132465263Y-87601082D01*
X132591116Y-87412729D01*
X132677806Y-87203443D01*
X132722000Y-86981265D01*
X132722000Y-86754735D01*
X132962000Y-86754735D01*
X132962000Y-86981265D01*
X133006194Y-87203443D01*
X133092884Y-87412729D01*
X133218737Y-87601082D01*
X133378918Y-87761263D01*
X133567271Y-87887116D01*
X133776557Y-87973806D01*
X133998735Y-88018000D01*
X134225265Y-88018000D01*
X134447443Y-87973806D01*
X134656729Y-87887116D01*
X134845082Y-87761263D01*
X135005263Y-87601082D01*
X135131116Y-87412729D01*
X135217806Y-87203443D01*
X135262000Y-86981265D01*
X135262000Y-86754735D01*
X135502000Y-86754735D01*
X135502000Y-86981265D01*
X135546194Y-87203443D01*
X135632884Y-87412729D01*
X135758737Y-87601082D01*
X135918918Y-87761263D01*
X136107271Y-87887116D01*
X136316557Y-87973806D01*
X136538735Y-88018000D01*
X136765265Y-88018000D01*
X136987443Y-87973806D01*
X137196729Y-87887116D01*
X137385082Y-87761263D01*
X137545263Y-87601082D01*
X137671116Y-87412729D01*
X137757806Y-87203443D01*
X137802000Y-86981265D01*
X137802000Y-86754735D01*
X138042000Y-86754735D01*
X138042000Y-86981265D01*
X138086194Y-87203443D01*
X138172884Y-87412729D01*
X138298737Y-87601082D01*
X138458918Y-87761263D01*
X138647271Y-87887116D01*
X138856557Y-87973806D01*
X139078735Y-88018000D01*
X139305265Y-88018000D01*
X139527443Y-87973806D01*
X139705624Y-87900000D01*
X178409032Y-87900000D01*
X178410000Y-88695000D01*
X178460000Y-88745000D01*
X179455000Y-88745000D01*
X179455000Y-87750000D01*
X179465000Y-87750000D01*
X179465000Y-88745000D01*
X180460000Y-88745000D01*
X180510000Y-88695000D01*
X180510968Y-87900000D01*
X180507106Y-87860793D01*
X180495670Y-87823093D01*
X180477099Y-87788348D01*
X180452106Y-87757894D01*
X180421652Y-87732901D01*
X180386907Y-87714330D01*
X180349207Y-87702894D01*
X180310000Y-87699032D01*
X179515000Y-87700000D01*
X179465000Y-87750000D01*
X179455000Y-87750000D01*
X179405000Y-87700000D01*
X178610000Y-87699032D01*
X178570793Y-87702894D01*
X178533093Y-87714330D01*
X178498348Y-87732901D01*
X178467894Y-87757894D01*
X178442901Y-87788348D01*
X178424330Y-87823093D01*
X178412894Y-87860793D01*
X178409032Y-87900000D01*
X139705624Y-87900000D01*
X139736729Y-87887116D01*
X139925082Y-87761263D01*
X140085263Y-87601082D01*
X140211116Y-87412729D01*
X140297806Y-87203443D01*
X140342000Y-86981265D01*
X140342000Y-86754735D01*
X140297806Y-86532557D01*
X140211116Y-86323271D01*
X140085263Y-86134918D01*
X139925082Y-85974737D01*
X139736729Y-85848884D01*
X139527443Y-85762194D01*
X139305265Y-85718000D01*
X139078735Y-85718000D01*
X138856557Y-85762194D01*
X138647271Y-85848884D01*
X138458918Y-85974737D01*
X138298737Y-86134918D01*
X138172884Y-86323271D01*
X138086194Y-86532557D01*
X138042000Y-86754735D01*
X137802000Y-86754735D01*
X137757806Y-86532557D01*
X137671116Y-86323271D01*
X137545263Y-86134918D01*
X137385082Y-85974737D01*
X137196729Y-85848884D01*
X136987443Y-85762194D01*
X136765265Y-85718000D01*
X136538735Y-85718000D01*
X136316557Y-85762194D01*
X136107271Y-85848884D01*
X135918918Y-85974737D01*
X135758737Y-86134918D01*
X135632884Y-86323271D01*
X135546194Y-86532557D01*
X135502000Y-86754735D01*
X135262000Y-86754735D01*
X135217806Y-86532557D01*
X135131116Y-86323271D01*
X135005263Y-86134918D01*
X134845082Y-85974737D01*
X134656729Y-85848884D01*
X134447443Y-85762194D01*
X134225265Y-85718000D01*
X133998735Y-85718000D01*
X133776557Y-85762194D01*
X133567271Y-85848884D01*
X133378918Y-85974737D01*
X133218737Y-86134918D01*
X133092884Y-86323271D01*
X133006194Y-86532557D01*
X132962000Y-86754735D01*
X132722000Y-86754735D01*
X132677806Y-86532557D01*
X132591116Y-86323271D01*
X132465263Y-86134918D01*
X132305082Y-85974737D01*
X132116729Y-85848884D01*
X131907443Y-85762194D01*
X131685265Y-85718000D01*
X131458735Y-85718000D01*
X131236557Y-85762194D01*
X131027271Y-85848884D01*
X130838918Y-85974737D01*
X130678737Y-86134918D01*
X130552884Y-86323271D01*
X130466194Y-86532557D01*
X130422000Y-86754735D01*
X130183451Y-86754735D01*
X130183451Y-86018000D01*
X130177659Y-85959190D01*
X130160504Y-85902640D01*
X130132647Y-85850523D01*
X130095158Y-85804842D01*
X130049477Y-85767353D01*
X129997360Y-85739496D01*
X129940810Y-85722341D01*
X129882000Y-85716549D01*
X128182000Y-85716549D01*
X128123190Y-85722341D01*
X128066640Y-85739496D01*
X128014523Y-85767353D01*
X127968842Y-85804842D01*
X127931353Y-85850523D01*
X127903496Y-85902640D01*
X127886341Y-85959190D01*
X127880549Y-86018000D01*
X118896948Y-86018000D01*
X118826297Y-85847435D01*
X118640254Y-85569000D01*
X151828000Y-85569000D01*
X151828000Y-85869000D01*
X151842426Y-86005467D01*
X151883198Y-86136498D01*
X151948749Y-86257057D01*
X152036561Y-86362511D01*
X152143259Y-86448807D01*
X152264742Y-86512629D01*
X152396342Y-86551525D01*
X152413560Y-86554582D01*
X152523000Y-86513981D01*
X152523000Y-85569000D01*
X152533000Y-85569000D01*
X152533000Y-86513981D01*
X152642440Y-86554582D01*
X152659658Y-86551525D01*
X152791258Y-86512629D01*
X152912741Y-86448807D01*
X153019439Y-86362511D01*
X153107251Y-86257057D01*
X153172802Y-86136498D01*
X153213574Y-86005467D01*
X153228000Y-85869000D01*
X153228000Y-85569000D01*
X160468000Y-85569000D01*
X160468000Y-85869000D01*
X160482426Y-86005467D01*
X160523198Y-86136498D01*
X160588749Y-86257057D01*
X160676561Y-86362511D01*
X160783259Y-86448807D01*
X160904742Y-86512629D01*
X161036342Y-86551525D01*
X161053560Y-86554582D01*
X161163000Y-86513981D01*
X161163000Y-85569000D01*
X161173000Y-85569000D01*
X161173000Y-86513981D01*
X161282440Y-86554582D01*
X161299658Y-86551525D01*
X161431258Y-86512629D01*
X161552741Y-86448807D01*
X161659439Y-86362511D01*
X161747251Y-86257057D01*
X161812802Y-86136498D01*
X161824158Y-86100000D01*
X182568549Y-86100000D01*
X182568549Y-87800000D01*
X182574341Y-87858810D01*
X182591496Y-87915360D01*
X182619353Y-87967477D01*
X182656842Y-88013158D01*
X182702523Y-88050647D01*
X182754640Y-88078504D01*
X182811190Y-88095659D01*
X182870000Y-88101451D01*
X184570000Y-88101451D01*
X184628810Y-88095659D01*
X184685360Y-88078504D01*
X184737477Y-88050647D01*
X184783158Y-88013158D01*
X184820647Y-87967477D01*
X184848504Y-87915360D01*
X184865659Y-87858810D01*
X184871451Y-87800000D01*
X184871451Y-86100000D01*
X184865659Y-86041190D01*
X184848504Y-85984640D01*
X184820647Y-85932523D01*
X184783158Y-85886842D01*
X184737477Y-85849353D01*
X184685360Y-85821496D01*
X184628810Y-85804341D01*
X184570000Y-85798549D01*
X182870000Y-85798549D01*
X182811190Y-85804341D01*
X182754640Y-85821496D01*
X182702523Y-85849353D01*
X182656842Y-85886842D01*
X182619353Y-85932523D01*
X182591496Y-85984640D01*
X182574341Y-86041190D01*
X182568549Y-86100000D01*
X161824158Y-86100000D01*
X161853574Y-86005467D01*
X161868000Y-85869000D01*
X161868000Y-85569000D01*
X161173000Y-85569000D01*
X161163000Y-85569000D01*
X160468000Y-85569000D01*
X153228000Y-85569000D01*
X152533000Y-85569000D01*
X152523000Y-85569000D01*
X151828000Y-85569000D01*
X118640254Y-85569000D01*
X118560011Y-85448908D01*
X118370103Y-85259000D01*
X151828000Y-85259000D01*
X151828000Y-85559000D01*
X152523000Y-85559000D01*
X152523000Y-84614019D01*
X152533000Y-84614019D01*
X152533000Y-85559000D01*
X153228000Y-85559000D01*
X153228000Y-85259000D01*
X160468000Y-85259000D01*
X160468000Y-85559000D01*
X161163000Y-85559000D01*
X161163000Y-84614019D01*
X161173000Y-84614019D01*
X161173000Y-85559000D01*
X161868000Y-85559000D01*
X161868000Y-85259000D01*
X161853574Y-85122533D01*
X161812802Y-84991502D01*
X161747251Y-84870943D01*
X161659439Y-84765489D01*
X161552741Y-84679193D01*
X161431258Y-84615371D01*
X161299658Y-84576475D01*
X161282440Y-84573418D01*
X161173000Y-84614019D01*
X161163000Y-84614019D01*
X161053560Y-84573418D01*
X161036342Y-84576475D01*
X160904742Y-84615371D01*
X160783259Y-84679193D01*
X160676561Y-84765489D01*
X160588749Y-84870943D01*
X160523198Y-84991502D01*
X160482426Y-85122533D01*
X160468000Y-85259000D01*
X153228000Y-85259000D01*
X153213574Y-85122533D01*
X153172802Y-84991502D01*
X153107251Y-84870943D01*
X153019439Y-84765489D01*
X152912741Y-84679193D01*
X152791258Y-84615371D01*
X152659658Y-84576475D01*
X152642440Y-84573418D01*
X152533000Y-84614019D01*
X152523000Y-84614019D01*
X152413560Y-84573418D01*
X152396342Y-84576475D01*
X152264742Y-84615371D01*
X152143259Y-84679193D01*
X152036561Y-84765489D01*
X151948749Y-84870943D01*
X151883198Y-84991502D01*
X151842426Y-85122533D01*
X151828000Y-85259000D01*
X118370103Y-85259000D01*
X118221092Y-85109989D01*
X117822565Y-84843703D01*
X117379746Y-84660281D01*
X116909652Y-84566773D01*
X116430348Y-84566773D01*
X115960254Y-84660281D01*
X115517435Y-84843703D01*
X115118908Y-85109989D01*
X114779989Y-85448908D01*
X114513703Y-85847435D01*
X114330281Y-86290254D01*
X114236773Y-86760348D01*
X110325000Y-86760348D01*
X110325000Y-83325000D01*
X203345001Y-83325000D01*
X203345001Y-102680631D01*
G04 #@! TA.AperFunction,Conductor*
D22*
G36*
X203345001Y-102680631D02*
G01*
X191996952Y-102696738D01*
X192106224Y-102623726D01*
X192203726Y-102526224D01*
X192280332Y-102411574D01*
X192333099Y-102284182D01*
X192360000Y-102148944D01*
X192360000Y-102011056D01*
X192333099Y-101875818D01*
X192280332Y-101748426D01*
X192203726Y-101633776D01*
X192106224Y-101536274D01*
X191991574Y-101459668D01*
X191864182Y-101406901D01*
X191728944Y-101380000D01*
X191591056Y-101380000D01*
X191455818Y-101406901D01*
X191328426Y-101459668D01*
X191213776Y-101536274D01*
X191116274Y-101633776D01*
X191039668Y-101748426D01*
X190986901Y-101875818D01*
X190960000Y-102011056D01*
X190960000Y-102148944D01*
X190986901Y-102284182D01*
X191039668Y-102411574D01*
X191116274Y-102526224D01*
X191213776Y-102623726D01*
X191324476Y-102697693D01*
X135974787Y-102776254D01*
X138133542Y-100617499D01*
X194956634Y-100617499D01*
X194977501Y-100619554D01*
X194998368Y-100617499D01*
X194998375Y-100617499D01*
X195060815Y-100611349D01*
X195140928Y-100587047D01*
X195214761Y-100547583D01*
X195279475Y-100494473D01*
X195292785Y-100478255D01*
X196430280Y-99340760D01*
X197779374Y-97991667D01*
X197887277Y-97991667D01*
X198022515Y-97964766D01*
X198149907Y-97911999D01*
X198264557Y-97835393D01*
X198362059Y-97737891D01*
X198438665Y-97623241D01*
X198491432Y-97495849D01*
X198518333Y-97360611D01*
X198518333Y-97222723D01*
X198491432Y-97087485D01*
X198438665Y-96960093D01*
X198362059Y-96845443D01*
X198264557Y-96747941D01*
X198149907Y-96671335D01*
X198022515Y-96618568D01*
X197887277Y-96591667D01*
X197749389Y-96591667D01*
X197614151Y-96618568D01*
X197486759Y-96671335D01*
X197372109Y-96747941D01*
X197274607Y-96845443D01*
X197198001Y-96960093D01*
X197145234Y-97087485D01*
X197118333Y-97222723D01*
X197118333Y-97360611D01*
X197133268Y-97435692D01*
X194801461Y-99767499D01*
X138347131Y-99767499D01*
X138409630Y-99705000D01*
X175609133Y-99705000D01*
X175630000Y-99707055D01*
X175650867Y-99705000D01*
X175650874Y-99705000D01*
X175713314Y-99698850D01*
X175793427Y-99674548D01*
X175867260Y-99635084D01*
X175931974Y-99581974D01*
X175945283Y-99565757D01*
X177433542Y-98077499D01*
X181702093Y-98077499D01*
X181716274Y-98098723D01*
X181813776Y-98196225D01*
X181928426Y-98272831D01*
X182055818Y-98325598D01*
X182191056Y-98352499D01*
X182328944Y-98352499D01*
X182464182Y-98325598D01*
X182591574Y-98272831D01*
X182706224Y-98196225D01*
X182803726Y-98098723D01*
X182880332Y-97984073D01*
X182933099Y-97856681D01*
X182960000Y-97721443D01*
X182960000Y-97583555D01*
X182933099Y-97448317D01*
X182880332Y-97320925D01*
X182803726Y-97206275D01*
X182706224Y-97108773D01*
X182591574Y-97032167D01*
X182464182Y-96979400D01*
X182328944Y-96952499D01*
X182191056Y-96952499D01*
X182055818Y-96979400D01*
X181928426Y-97032167D01*
X181813776Y-97108773D01*
X181716274Y-97206275D01*
X181702093Y-97227499D01*
X180228846Y-97227499D01*
X180353263Y-97103082D01*
X180479116Y-96914729D01*
X180565806Y-96705443D01*
X180610000Y-96483265D01*
X180610000Y-96256735D01*
X180565806Y-96034557D01*
X180479116Y-95825271D01*
X180353263Y-95636918D01*
X180193082Y-95476737D01*
X180004729Y-95350884D01*
X179795443Y-95264194D01*
X179573265Y-95220000D01*
X179346735Y-95220000D01*
X179124557Y-95264194D01*
X178915271Y-95350884D01*
X178726918Y-95476737D01*
X178566737Y-95636918D01*
X178440884Y-95825271D01*
X178354194Y-96034557D01*
X178310000Y-96256735D01*
X178310000Y-96483265D01*
X178354194Y-96705443D01*
X178440884Y-96914729D01*
X178566737Y-97103082D01*
X178691154Y-97227499D01*
X177278368Y-97227499D01*
X177257501Y-97225444D01*
X177236634Y-97227499D01*
X177236627Y-97227499D01*
X177181828Y-97232896D01*
X177174186Y-97233649D01*
X177149884Y-97241021D01*
X177094074Y-97257951D01*
X177020241Y-97297415D01*
X176955527Y-97350525D01*
X176942222Y-97366737D01*
X175453960Y-98855000D01*
X138623219Y-98855000D01*
X138683219Y-98795000D01*
X168089133Y-98795000D01*
X168110000Y-98797055D01*
X168130867Y-98795000D01*
X168130874Y-98795000D01*
X168193314Y-98788850D01*
X168273427Y-98764548D01*
X168347260Y-98725084D01*
X168411974Y-98671974D01*
X168425284Y-98655756D01*
X174106041Y-92975000D01*
X178688655Y-92975000D01*
X178566737Y-93096918D01*
X178440884Y-93285271D01*
X178391290Y-93405000D01*
X174500866Y-93405000D01*
X174479999Y-93402945D01*
X174459132Y-93405000D01*
X174459126Y-93405000D01*
X174405098Y-93410321D01*
X174396685Y-93411150D01*
X174372383Y-93418522D01*
X174316573Y-93435452D01*
X174242740Y-93474916D01*
X174178026Y-93528026D01*
X174164721Y-93544238D01*
X173593980Y-94114980D01*
X173568944Y-94110000D01*
X173431056Y-94110000D01*
X173295818Y-94136901D01*
X173168426Y-94189668D01*
X173053776Y-94266274D01*
X172956274Y-94363776D01*
X172879668Y-94478426D01*
X172826901Y-94605818D01*
X172800000Y-94741056D01*
X172800000Y-94878944D01*
X172826901Y-95014182D01*
X172879668Y-95141574D01*
X172956274Y-95256224D01*
X173053776Y-95353726D01*
X173168426Y-95430332D01*
X173295818Y-95483099D01*
X173431056Y-95510000D01*
X173568944Y-95510000D01*
X173704182Y-95483099D01*
X173831574Y-95430332D01*
X173946224Y-95353726D01*
X174043726Y-95256224D01*
X174120332Y-95141574D01*
X174173099Y-95014182D01*
X174200000Y-94878944D01*
X174200000Y-94741056D01*
X174195020Y-94716020D01*
X174656041Y-94255000D01*
X178391290Y-94255000D01*
X178440884Y-94374729D01*
X178566737Y-94563082D01*
X178726918Y-94723263D01*
X178915271Y-94849116D01*
X179124557Y-94935806D01*
X179346735Y-94980000D01*
X179573265Y-94980000D01*
X179795443Y-94935806D01*
X180004729Y-94849116D01*
X180193082Y-94723263D01*
X180353263Y-94563082D01*
X180479116Y-94374729D01*
X180565806Y-94165443D01*
X180610000Y-93943265D01*
X180610000Y-93716735D01*
X180565806Y-93494557D01*
X180479116Y-93285271D01*
X180353263Y-93096918D01*
X180231345Y-92975000D01*
X187239133Y-92975000D01*
X187260000Y-92977055D01*
X187280867Y-92975000D01*
X187280874Y-92975000D01*
X187343314Y-92968850D01*
X187423427Y-92944548D01*
X187497260Y-92905084D01*
X187561974Y-92851974D01*
X187575283Y-92835757D01*
X189085763Y-91325278D01*
X189101974Y-91311974D01*
X189155084Y-91247260D01*
X189194548Y-91173427D01*
X189218850Y-91093314D01*
X189225000Y-91030874D01*
X189225000Y-91030867D01*
X189227055Y-91010000D01*
X189225000Y-90989133D01*
X189225000Y-88018710D01*
X189344729Y-87969116D01*
X189533082Y-87843263D01*
X189693263Y-87683082D01*
X189819116Y-87494729D01*
X189905806Y-87285443D01*
X189938875Y-87119193D01*
X190303721Y-87119193D01*
X190356641Y-87318110D01*
X190447351Y-87502881D01*
X190572365Y-87666405D01*
X190726879Y-87802398D01*
X190904955Y-87905633D01*
X191099749Y-87972144D01*
X191170807Y-87986279D01*
X191335000Y-87949987D01*
X191335000Y-86955000D01*
X191345000Y-86955000D01*
X191345000Y-87949987D01*
X191509193Y-87986279D01*
X191580251Y-87972144D01*
X191775045Y-87905633D01*
X191953121Y-87802398D01*
X192107635Y-87666405D01*
X192232649Y-87502881D01*
X192323359Y-87318110D01*
X192376279Y-87119193D01*
X192339988Y-86955000D01*
X191345000Y-86955000D01*
X191335000Y-86955000D01*
X190340012Y-86955000D01*
X190303721Y-87119193D01*
X189938875Y-87119193D01*
X189950000Y-87063265D01*
X189950000Y-86836735D01*
X189938876Y-86780807D01*
X190303721Y-86780807D01*
X190340012Y-86945000D01*
X191335000Y-86945000D01*
X191335000Y-85950013D01*
X191345000Y-85950013D01*
X191345000Y-86945000D01*
X192339988Y-86945000D01*
X192376279Y-86780807D01*
X192370837Y-86760348D01*
X194566773Y-86760348D01*
X194566773Y-87239652D01*
X194660281Y-87709746D01*
X194843703Y-88152565D01*
X195109989Y-88551092D01*
X195448908Y-88890011D01*
X195847435Y-89156297D01*
X196290254Y-89339719D01*
X196760348Y-89433227D01*
X197239652Y-89433227D01*
X197709746Y-89339719D01*
X198152565Y-89156297D01*
X198551092Y-88890011D01*
X198890011Y-88551092D01*
X199156297Y-88152565D01*
X199339719Y-87709746D01*
X199433227Y-87239652D01*
X199433227Y-86760348D01*
X199339719Y-86290254D01*
X199156297Y-85847435D01*
X198890011Y-85448908D01*
X198551092Y-85109989D01*
X198152565Y-84843703D01*
X197709746Y-84660281D01*
X197239652Y-84566773D01*
X196760348Y-84566773D01*
X196290254Y-84660281D01*
X195847435Y-84843703D01*
X195448908Y-85109989D01*
X195109989Y-85448908D01*
X194843703Y-85847435D01*
X194660281Y-86290254D01*
X194566773Y-86760348D01*
X192370837Y-86760348D01*
X192323359Y-86581890D01*
X192232649Y-86397119D01*
X192107635Y-86233595D01*
X191953121Y-86097602D01*
X191775045Y-85994367D01*
X191580251Y-85927856D01*
X191509193Y-85913721D01*
X191345000Y-85950013D01*
X191335000Y-85950013D01*
X191170807Y-85913721D01*
X191099749Y-85927856D01*
X190904955Y-85994367D01*
X190726879Y-86097602D01*
X190572365Y-86233595D01*
X190447351Y-86397119D01*
X190356641Y-86581890D01*
X190303721Y-86780807D01*
X189938876Y-86780807D01*
X189905806Y-86614557D01*
X189819116Y-86405271D01*
X189693263Y-86216918D01*
X189533082Y-86056737D01*
X189344729Y-85930884D01*
X189135443Y-85844194D01*
X188913265Y-85800000D01*
X188686735Y-85800000D01*
X188464557Y-85844194D01*
X188255271Y-85930884D01*
X188066918Y-86056737D01*
X187906737Y-86216918D01*
X187780884Y-86405271D01*
X187694194Y-86614557D01*
X187650000Y-86836735D01*
X187650000Y-87063265D01*
X187694194Y-87285443D01*
X187780884Y-87494729D01*
X187906737Y-87683082D01*
X188066918Y-87843263D01*
X188255271Y-87969116D01*
X188375001Y-88018710D01*
X188375000Y-89920873D01*
X188375001Y-89920883D01*
X188375000Y-90833959D01*
X187083960Y-92125000D01*
X180251345Y-92125000D01*
X180353263Y-92023082D01*
X180479116Y-91834729D01*
X180565806Y-91625443D01*
X180610000Y-91403265D01*
X180610000Y-91176735D01*
X180565806Y-90954557D01*
X180479116Y-90745271D01*
X180353263Y-90556918D01*
X180251345Y-90455000D01*
X185389133Y-90455000D01*
X185410000Y-90457055D01*
X185430867Y-90455000D01*
X185430874Y-90455000D01*
X185493314Y-90448850D01*
X185573427Y-90424548D01*
X185647260Y-90385084D01*
X185711974Y-90331974D01*
X185725284Y-90315756D01*
X186545756Y-89495284D01*
X186561974Y-89481974D01*
X186615084Y-89417260D01*
X186654548Y-89343427D01*
X186678850Y-89263314D01*
X186685000Y-89200874D01*
X186687056Y-89180000D01*
X186685000Y-89159126D01*
X186685000Y-88018710D01*
X186804729Y-87969116D01*
X186993082Y-87843263D01*
X187153263Y-87683082D01*
X187279116Y-87494729D01*
X187365806Y-87285443D01*
X187410000Y-87063265D01*
X187410000Y-86836735D01*
X187365806Y-86614557D01*
X187279116Y-86405271D01*
X187153263Y-86216918D01*
X186993082Y-86056737D01*
X186804729Y-85930884D01*
X186595443Y-85844194D01*
X186373265Y-85800000D01*
X186146735Y-85800000D01*
X185924557Y-85844194D01*
X185715271Y-85930884D01*
X185526918Y-86056737D01*
X185366737Y-86216918D01*
X185240884Y-86405271D01*
X185154194Y-86614557D01*
X185110000Y-86836735D01*
X185110000Y-87063265D01*
X185154194Y-87285443D01*
X185240884Y-87494729D01*
X185366737Y-87683082D01*
X185526918Y-87843263D01*
X185715271Y-87969116D01*
X185835000Y-88018710D01*
X185835001Y-89003959D01*
X185233960Y-89605000D01*
X180510475Y-89605000D01*
X180510968Y-89600000D01*
X180510000Y-88805000D01*
X180460000Y-88755000D01*
X179465000Y-88755000D01*
X179465000Y-88775000D01*
X179455000Y-88775000D01*
X179455000Y-88755000D01*
X178460000Y-88755000D01*
X178410000Y-88805000D01*
X178409032Y-89600000D01*
X178409525Y-89605000D01*
X173650866Y-89605000D01*
X173629999Y-89602945D01*
X173609132Y-89605000D01*
X173609126Y-89605000D01*
X173555098Y-89610321D01*
X173546685Y-89611150D01*
X173522383Y-89618522D01*
X173466573Y-89635452D01*
X173392740Y-89674916D01*
X173392738Y-89674917D01*
X173392739Y-89674917D01*
X173347978Y-89711652D01*
X173328026Y-89728026D01*
X173314721Y-89744238D01*
X168917581Y-94141379D01*
X168930000Y-94078944D01*
X168930000Y-93941056D01*
X168903099Y-93805818D01*
X168850332Y-93678426D01*
X168773726Y-93563776D01*
X168676224Y-93466274D01*
X168561574Y-93389668D01*
X168434182Y-93336901D01*
X168298944Y-93310000D01*
X168161056Y-93310000D01*
X168025818Y-93336901D01*
X167898426Y-93389668D01*
X167783776Y-93466274D01*
X167686274Y-93563776D01*
X167672093Y-93585000D01*
X136530866Y-93585000D01*
X136509999Y-93582945D01*
X136489132Y-93585000D01*
X136489126Y-93585000D01*
X136435098Y-93590321D01*
X136426685Y-93591150D01*
X136402383Y-93598522D01*
X136346573Y-93615452D01*
X136272740Y-93654916D01*
X136208026Y-93708026D01*
X136194721Y-93724238D01*
X134738961Y-95179999D01*
X128255867Y-95179999D01*
X128235000Y-95177944D01*
X128214133Y-95179999D01*
X128214127Y-95179999D01*
X128160099Y-95185320D01*
X128151686Y-95186149D01*
X128127384Y-95193521D01*
X128071574Y-95210451D01*
X127997741Y-95249915D01*
X127933027Y-95303025D01*
X127919722Y-95319237D01*
X127603979Y-95634980D01*
X127578944Y-95630000D01*
X127441056Y-95630000D01*
X127305818Y-95656901D01*
X127178426Y-95709668D01*
X127063776Y-95786274D01*
X126966274Y-95883776D01*
X126889668Y-95998426D01*
X126836901Y-96125818D01*
X126810000Y-96261056D01*
X126810000Y-96398944D01*
X126836901Y-96534182D01*
X126889668Y-96661574D01*
X126966274Y-96776224D01*
X127063776Y-96873726D01*
X127178426Y-96950332D01*
X127305818Y-97003099D01*
X127441056Y-97030000D01*
X127578944Y-97030000D01*
X127714182Y-97003099D01*
X127841574Y-96950332D01*
X127956224Y-96873726D01*
X128053726Y-96776224D01*
X128095000Y-96714453D01*
X128136274Y-96776224D01*
X128233776Y-96873726D01*
X128348426Y-96950332D01*
X128475818Y-97003099D01*
X128611056Y-97030000D01*
X128748944Y-97030000D01*
X128884182Y-97003099D01*
X129011574Y-96950332D01*
X129126224Y-96873726D01*
X129223726Y-96776224D01*
X129237907Y-96755000D01*
X135239133Y-96755000D01*
X135260000Y-96757055D01*
X135280867Y-96755000D01*
X135280874Y-96755000D01*
X135343314Y-96748850D01*
X135423427Y-96724548D01*
X135497260Y-96685084D01*
X135561974Y-96631974D01*
X135575283Y-96615757D01*
X136946041Y-95245000D01*
X155613050Y-95245000D01*
X155554274Y-95303776D01*
X155477668Y-95418426D01*
X155424901Y-95545818D01*
X155398000Y-95681056D01*
X155398000Y-95810959D01*
X155113960Y-96095000D01*
X137140866Y-96095000D01*
X137119999Y-96092945D01*
X137099132Y-96095000D01*
X137099126Y-96095000D01*
X137045098Y-96100321D01*
X137036685Y-96101150D01*
X137023717Y-96105084D01*
X136956573Y-96125452D01*
X136882740Y-96164916D01*
X136870453Y-96175000D01*
X136844592Y-96196224D01*
X136818026Y-96218026D01*
X136804721Y-96234238D01*
X131753960Y-101285000D01*
X130313907Y-101285000D01*
X130299726Y-101263776D01*
X130202224Y-101166274D01*
X130087574Y-101089668D01*
X129960182Y-101036901D01*
X129824944Y-101010000D01*
X129687056Y-101010000D01*
X129551818Y-101036901D01*
X129424426Y-101089668D01*
X129309776Y-101166274D01*
X129212274Y-101263776D01*
X129135668Y-101378426D01*
X129082901Y-101505818D01*
X129056000Y-101641056D01*
X129056000Y-101778944D01*
X129082901Y-101914182D01*
X129135668Y-102041574D01*
X129212274Y-102156224D01*
X129266050Y-102210000D01*
X129212274Y-102263776D01*
X129135668Y-102378426D01*
X129082901Y-102505818D01*
X129056000Y-102641056D01*
X129056000Y-102778944D01*
X129057418Y-102786072D01*
X126289858Y-102790000D01*
X126270491Y-102791921D01*
X126251732Y-102797612D01*
X126234443Y-102806853D01*
X126219289Y-102819289D01*
X126206853Y-102834443D01*
X126197612Y-102851732D01*
X126191921Y-102870491D01*
X126190000Y-102890000D01*
X126190000Y-103450001D01*
X126177042Y-103450001D01*
X126031020Y-103303979D01*
X126036000Y-103278944D01*
X126036000Y-103141056D01*
X126009099Y-103005818D01*
X125956332Y-102878426D01*
X125879726Y-102763776D01*
X125782224Y-102666274D01*
X125667574Y-102589668D01*
X125540182Y-102536901D01*
X125404944Y-102510000D01*
X125267056Y-102510000D01*
X125131818Y-102536901D01*
X125004426Y-102589668D01*
X124889776Y-102666274D01*
X124792274Y-102763776D01*
X124715668Y-102878426D01*
X124681000Y-102962123D01*
X124681000Y-100767907D01*
X124702224Y-100753726D01*
X124799726Y-100656224D01*
X124813907Y-100635000D01*
X129659133Y-100635000D01*
X129680000Y-100637055D01*
X129700867Y-100635000D01*
X129700874Y-100635000D01*
X129763314Y-100628850D01*
X129843427Y-100604548D01*
X129917260Y-100565084D01*
X129981974Y-100511974D01*
X129995284Y-100495756D01*
X130620785Y-99870255D01*
X130624774Y-99876224D01*
X130722276Y-99973726D01*
X130836926Y-100050332D01*
X130964318Y-100103099D01*
X131099556Y-100130000D01*
X131237444Y-100130000D01*
X131372682Y-100103099D01*
X131500074Y-100050332D01*
X131614724Y-99973726D01*
X131712226Y-99876224D01*
X131788832Y-99761574D01*
X131841599Y-99634182D01*
X131868500Y-99498944D01*
X131868500Y-99361056D01*
X131841599Y-99225818D01*
X131788832Y-99098426D01*
X131712226Y-98983776D01*
X131614724Y-98886274D01*
X131500074Y-98809668D01*
X131372682Y-98756901D01*
X131237444Y-98730000D01*
X131099556Y-98730000D01*
X130964318Y-98756901D01*
X130836926Y-98809668D01*
X130722276Y-98886274D01*
X130624774Y-98983776D01*
X130610593Y-99005000D01*
X130480874Y-99005000D01*
X130460000Y-99002944D01*
X130439126Y-99005000D01*
X130376686Y-99011150D01*
X130296573Y-99035452D01*
X130222740Y-99074916D01*
X130158026Y-99128026D01*
X130144716Y-99144244D01*
X129503960Y-99785000D01*
X124813907Y-99785000D01*
X124799726Y-99763776D01*
X124702224Y-99666274D01*
X124681000Y-99652093D01*
X124681000Y-95870040D01*
X125241763Y-95309278D01*
X125257974Y-95295974D01*
X125282390Y-95266224D01*
X125311083Y-95231261D01*
X125311084Y-95231260D01*
X125350548Y-95157427D01*
X125374850Y-95077314D01*
X125381000Y-95014874D01*
X125381000Y-95014868D01*
X125383055Y-94994001D01*
X125381000Y-94973134D01*
X125381000Y-94121452D01*
X125506000Y-94121452D01*
X125564810Y-94115660D01*
X125621361Y-94098505D01*
X125631001Y-94093352D01*
X125640640Y-94098504D01*
X125644240Y-94099596D01*
X125635668Y-94112426D01*
X125582901Y-94239818D01*
X125556000Y-94375056D01*
X125556000Y-94512944D01*
X125582901Y-94648182D01*
X125635668Y-94775574D01*
X125712274Y-94890224D01*
X125809776Y-94987726D01*
X125924426Y-95064332D01*
X126051818Y-95117099D01*
X126187056Y-95144000D01*
X126324944Y-95144000D01*
X126460182Y-95117099D01*
X126587574Y-95064332D01*
X126702224Y-94987726D01*
X126799726Y-94890224D01*
X126876332Y-94775574D01*
X126929099Y-94648182D01*
X126956000Y-94512944D01*
X126956000Y-94375056D01*
X126929099Y-94239818D01*
X126876332Y-94112426D01*
X126867760Y-94099596D01*
X126871360Y-94098504D01*
X126923477Y-94070647D01*
X126969158Y-94033158D01*
X127006647Y-93987477D01*
X127034504Y-93935360D01*
X127051659Y-93878810D01*
X127057451Y-93820000D01*
X127057451Y-92320000D01*
X127051659Y-92261190D01*
X127034504Y-92204640D01*
X127006647Y-92152523D01*
X126969158Y-92106842D01*
X126923477Y-92069353D01*
X126871360Y-92041496D01*
X126814810Y-92024341D01*
X126756000Y-92018549D01*
X125756000Y-92018549D01*
X125697190Y-92024341D01*
X125640640Y-92041496D01*
X125631001Y-92046648D01*
X125621361Y-92041495D01*
X125564810Y-92024340D01*
X125506000Y-92018548D01*
X125381000Y-92018548D01*
X125381000Y-91070040D01*
X126618041Y-89833000D01*
X127963290Y-89833000D01*
X128012884Y-89952729D01*
X128138737Y-90141082D01*
X128298918Y-90301263D01*
X128487271Y-90427116D01*
X128696557Y-90513806D01*
X128918735Y-90558000D01*
X129145265Y-90558000D01*
X129367443Y-90513806D01*
X129576729Y-90427116D01*
X129765082Y-90301263D01*
X129925263Y-90141082D01*
X130051116Y-89952729D01*
X130137806Y-89743443D01*
X130170875Y-89577193D01*
X130535721Y-89577193D01*
X130588641Y-89776110D01*
X130679351Y-89960881D01*
X130804365Y-90124405D01*
X130958879Y-90260398D01*
X131136955Y-90363633D01*
X131331749Y-90430144D01*
X131402807Y-90444279D01*
X131567000Y-90407987D01*
X131567000Y-89413000D01*
X131577000Y-89413000D01*
X131577000Y-90407987D01*
X131741193Y-90444279D01*
X131812251Y-90430144D01*
X132007045Y-90363633D01*
X132185121Y-90260398D01*
X132339635Y-90124405D01*
X132464649Y-89960881D01*
X132555359Y-89776110D01*
X132608279Y-89577193D01*
X133075721Y-89577193D01*
X133128641Y-89776110D01*
X133219351Y-89960881D01*
X133344365Y-90124405D01*
X133498879Y-90260398D01*
X133676955Y-90363633D01*
X133871749Y-90430144D01*
X133942807Y-90444279D01*
X134107000Y-90407987D01*
X134107000Y-89413000D01*
X134117000Y-89413000D01*
X134117000Y-90407987D01*
X134281193Y-90444279D01*
X134352251Y-90430144D01*
X134547045Y-90363633D01*
X134725121Y-90260398D01*
X134879635Y-90124405D01*
X135004649Y-89960881D01*
X135095359Y-89776110D01*
X135148279Y-89577193D01*
X135615721Y-89577193D01*
X135668641Y-89776110D01*
X135759351Y-89960881D01*
X135884365Y-90124405D01*
X136038879Y-90260398D01*
X136216955Y-90363633D01*
X136411749Y-90430144D01*
X136482807Y-90444279D01*
X136647000Y-90407987D01*
X136647000Y-89413000D01*
X136657000Y-89413000D01*
X136657000Y-90407987D01*
X136821193Y-90444279D01*
X136892251Y-90430144D01*
X137087045Y-90363633D01*
X137265121Y-90260398D01*
X137419635Y-90124405D01*
X137544649Y-89960881D01*
X137635359Y-89776110D01*
X137688279Y-89577193D01*
X138155721Y-89577193D01*
X138208641Y-89776110D01*
X138299351Y-89960881D01*
X138424365Y-90124405D01*
X138578879Y-90260398D01*
X138756955Y-90363633D01*
X138951749Y-90430144D01*
X139022807Y-90444279D01*
X139187000Y-90407987D01*
X139187000Y-89413000D01*
X139197000Y-89413000D01*
X139197000Y-90407987D01*
X139361193Y-90444279D01*
X139432251Y-90430144D01*
X139627045Y-90363633D01*
X139805121Y-90260398D01*
X139959635Y-90124405D01*
X140084649Y-89960881D01*
X140175359Y-89776110D01*
X140182571Y-89749000D01*
X151828000Y-89749000D01*
X151828000Y-90299000D01*
X151842426Y-90435467D01*
X151883198Y-90566498D01*
X151948749Y-90687057D01*
X152036561Y-90792511D01*
X152143259Y-90878807D01*
X152264742Y-90942629D01*
X152396342Y-90981525D01*
X152413560Y-90984582D01*
X152523000Y-90943981D01*
X152523000Y-89749000D01*
X152533000Y-89749000D01*
X152533000Y-90943981D01*
X152642440Y-90984582D01*
X152659658Y-90981525D01*
X152791258Y-90942629D01*
X152912741Y-90878807D01*
X153019439Y-90792511D01*
X153107251Y-90687057D01*
X153172802Y-90566498D01*
X153213574Y-90435467D01*
X153228000Y-90299000D01*
X153228000Y-89749000D01*
X152533000Y-89749000D01*
X152523000Y-89749000D01*
X151828000Y-89749000D01*
X140182571Y-89749000D01*
X140228279Y-89577193D01*
X140191988Y-89413000D01*
X139197000Y-89413000D01*
X139187000Y-89413000D01*
X138192012Y-89413000D01*
X138155721Y-89577193D01*
X137688279Y-89577193D01*
X137651988Y-89413000D01*
X136657000Y-89413000D01*
X136647000Y-89413000D01*
X135652012Y-89413000D01*
X135615721Y-89577193D01*
X135148279Y-89577193D01*
X135111988Y-89413000D01*
X134117000Y-89413000D01*
X134107000Y-89413000D01*
X133112012Y-89413000D01*
X133075721Y-89577193D01*
X132608279Y-89577193D01*
X132571988Y-89413000D01*
X131577000Y-89413000D01*
X131567000Y-89413000D01*
X130572012Y-89413000D01*
X130535721Y-89577193D01*
X130170875Y-89577193D01*
X130182000Y-89521265D01*
X130182000Y-89294735D01*
X130170876Y-89238807D01*
X130535721Y-89238807D01*
X130572012Y-89403000D01*
X131567000Y-89403000D01*
X131567000Y-88408013D01*
X131577000Y-88408013D01*
X131577000Y-89403000D01*
X132571988Y-89403000D01*
X132608279Y-89238807D01*
X133075721Y-89238807D01*
X133112012Y-89403000D01*
X134107000Y-89403000D01*
X134107000Y-88408013D01*
X134117000Y-88408013D01*
X134117000Y-89403000D01*
X135111988Y-89403000D01*
X135148279Y-89238807D01*
X135615721Y-89238807D01*
X135652012Y-89403000D01*
X136647000Y-89403000D01*
X136647000Y-88408013D01*
X136657000Y-88408013D01*
X136657000Y-89403000D01*
X137651988Y-89403000D01*
X137688279Y-89238807D01*
X138155721Y-89238807D01*
X138192012Y-89403000D01*
X139187000Y-89403000D01*
X139187000Y-88408013D01*
X139197000Y-88408013D01*
X139197000Y-89403000D01*
X140191988Y-89403000D01*
X140228279Y-89238807D01*
X140215029Y-89189000D01*
X151828000Y-89189000D01*
X151828000Y-89739000D01*
X152523000Y-89739000D01*
X152523000Y-88544019D01*
X152533000Y-88544019D01*
X152533000Y-89739000D01*
X153228000Y-89739000D01*
X153228000Y-89189000D01*
X153224136Y-89152443D01*
X153333000Y-89152443D01*
X153333000Y-89275557D01*
X153357019Y-89396306D01*
X153404132Y-89510048D01*
X153472531Y-89612414D01*
X153559586Y-89699469D01*
X153661952Y-89767868D01*
X153775694Y-89814981D01*
X153896443Y-89839000D01*
X154019557Y-89839000D01*
X154140306Y-89814981D01*
X154254048Y-89767868D01*
X154356414Y-89699469D01*
X154443469Y-89612414D01*
X154511868Y-89510048D01*
X154558981Y-89396306D01*
X154583000Y-89275557D01*
X154583000Y-89152443D01*
X159113000Y-89152443D01*
X159113000Y-89275557D01*
X159137019Y-89396306D01*
X159184132Y-89510048D01*
X159252531Y-89612414D01*
X159339586Y-89699469D01*
X159441952Y-89767868D01*
X159555694Y-89814981D01*
X159676443Y-89839000D01*
X159799557Y-89839000D01*
X159920306Y-89814981D01*
X160034048Y-89767868D01*
X160062285Y-89749000D01*
X160468000Y-89749000D01*
X160468000Y-90299000D01*
X160482426Y-90435467D01*
X160523198Y-90566498D01*
X160588749Y-90687057D01*
X160676561Y-90792511D01*
X160783259Y-90878807D01*
X160904742Y-90942629D01*
X161036342Y-90981525D01*
X161053560Y-90984582D01*
X161163000Y-90943981D01*
X161163000Y-89749000D01*
X161173000Y-89749000D01*
X161173000Y-90943981D01*
X161282440Y-90984582D01*
X161299658Y-90981525D01*
X161431258Y-90942629D01*
X161552741Y-90878807D01*
X161659439Y-90792511D01*
X161747251Y-90687057D01*
X161812802Y-90566498D01*
X161853574Y-90435467D01*
X161868000Y-90299000D01*
X161868000Y-89749000D01*
X161173000Y-89749000D01*
X161163000Y-89749000D01*
X160468000Y-89749000D01*
X160062285Y-89749000D01*
X160136414Y-89699469D01*
X160223469Y-89612414D01*
X160291868Y-89510048D01*
X160338981Y-89396306D01*
X160363000Y-89275557D01*
X160363000Y-89189000D01*
X160468000Y-89189000D01*
X160468000Y-89739000D01*
X161163000Y-89739000D01*
X161163000Y-88544019D01*
X161173000Y-88544019D01*
X161173000Y-89739000D01*
X161868000Y-89739000D01*
X161868000Y-89189000D01*
X161853574Y-89052533D01*
X161812802Y-88921502D01*
X161747251Y-88800943D01*
X161659439Y-88695489D01*
X161552741Y-88609193D01*
X161431258Y-88545371D01*
X161299658Y-88506475D01*
X161282440Y-88503418D01*
X161173000Y-88544019D01*
X161163000Y-88544019D01*
X161053560Y-88503418D01*
X161036342Y-88506475D01*
X160904742Y-88545371D01*
X160783259Y-88609193D01*
X160676561Y-88695489D01*
X160588749Y-88800943D01*
X160523198Y-88921502D01*
X160482426Y-89052533D01*
X160468000Y-89189000D01*
X160363000Y-89189000D01*
X160363000Y-89152443D01*
X160338981Y-89031694D01*
X160291868Y-88917952D01*
X160223469Y-88815586D01*
X160136414Y-88728531D01*
X160034048Y-88660132D01*
X159920306Y-88613019D01*
X159799557Y-88589000D01*
X159676443Y-88589000D01*
X159555694Y-88613019D01*
X159441952Y-88660132D01*
X159339586Y-88728531D01*
X159252531Y-88815586D01*
X159184132Y-88917952D01*
X159137019Y-89031694D01*
X159113000Y-89152443D01*
X154583000Y-89152443D01*
X154558981Y-89031694D01*
X154511868Y-88917952D01*
X154443469Y-88815586D01*
X154356414Y-88728531D01*
X154254048Y-88660132D01*
X154140306Y-88613019D01*
X154019557Y-88589000D01*
X153896443Y-88589000D01*
X153775694Y-88613019D01*
X153661952Y-88660132D01*
X153559586Y-88728531D01*
X153472531Y-88815586D01*
X153404132Y-88917952D01*
X153357019Y-89031694D01*
X153333000Y-89152443D01*
X153224136Y-89152443D01*
X153213574Y-89052533D01*
X153172802Y-88921502D01*
X153107251Y-88800943D01*
X153019439Y-88695489D01*
X152912741Y-88609193D01*
X152791258Y-88545371D01*
X152659658Y-88506475D01*
X152642440Y-88503418D01*
X152533000Y-88544019D01*
X152523000Y-88544019D01*
X152413560Y-88503418D01*
X152396342Y-88506475D01*
X152264742Y-88545371D01*
X152143259Y-88609193D01*
X152036561Y-88695489D01*
X151948749Y-88800943D01*
X151883198Y-88921502D01*
X151842426Y-89052533D01*
X151828000Y-89189000D01*
X140215029Y-89189000D01*
X140175359Y-89039890D01*
X140084649Y-88855119D01*
X139959635Y-88691595D01*
X139805121Y-88555602D01*
X139627045Y-88452367D01*
X139432251Y-88385856D01*
X139361193Y-88371721D01*
X139197000Y-88408013D01*
X139187000Y-88408013D01*
X139022807Y-88371721D01*
X138951749Y-88385856D01*
X138756955Y-88452367D01*
X138578879Y-88555602D01*
X138424365Y-88691595D01*
X138299351Y-88855119D01*
X138208641Y-89039890D01*
X138155721Y-89238807D01*
X137688279Y-89238807D01*
X137635359Y-89039890D01*
X137544649Y-88855119D01*
X137419635Y-88691595D01*
X137265121Y-88555602D01*
X137087045Y-88452367D01*
X136892251Y-88385856D01*
X136821193Y-88371721D01*
X136657000Y-88408013D01*
X136647000Y-88408013D01*
X136482807Y-88371721D01*
X136411749Y-88385856D01*
X136216955Y-88452367D01*
X136038879Y-88555602D01*
X135884365Y-88691595D01*
X135759351Y-88855119D01*
X135668641Y-89039890D01*
X135615721Y-89238807D01*
X135148279Y-89238807D01*
X135095359Y-89039890D01*
X135004649Y-88855119D01*
X134879635Y-88691595D01*
X134725121Y-88555602D01*
X134547045Y-88452367D01*
X134352251Y-88385856D01*
X134281193Y-88371721D01*
X134117000Y-88408013D01*
X134107000Y-88408013D01*
X133942807Y-88371721D01*
X133871749Y-88385856D01*
X133676955Y-88452367D01*
X133498879Y-88555602D01*
X133344365Y-88691595D01*
X133219351Y-88855119D01*
X133128641Y-89039890D01*
X133075721Y-89238807D01*
X132608279Y-89238807D01*
X132555359Y-89039890D01*
X132464649Y-88855119D01*
X132339635Y-88691595D01*
X132185121Y-88555602D01*
X132007045Y-88452367D01*
X131812251Y-88385856D01*
X131741193Y-88371721D01*
X131577000Y-88408013D01*
X131567000Y-88408013D01*
X131402807Y-88371721D01*
X131331749Y-88385856D01*
X131136955Y-88452367D01*
X130958879Y-88555602D01*
X130804365Y-88691595D01*
X130679351Y-88855119D01*
X130588641Y-89039890D01*
X130535721Y-89238807D01*
X130170876Y-89238807D01*
X130137806Y-89072557D01*
X130051116Y-88863271D01*
X129925263Y-88674918D01*
X129765082Y-88514737D01*
X129576729Y-88388884D01*
X129367443Y-88302194D01*
X129145265Y-88258000D01*
X128918735Y-88258000D01*
X128696557Y-88302194D01*
X128487271Y-88388884D01*
X128298918Y-88514737D01*
X128138737Y-88674918D01*
X128012884Y-88863271D01*
X127963290Y-88983000D01*
X126462866Y-88983000D01*
X126441999Y-88980945D01*
X126421132Y-88983000D01*
X121702867Y-88983000D01*
X121682000Y-88980945D01*
X121661133Y-88983000D01*
X121661126Y-88983000D01*
X121598686Y-88989150D01*
X121518573Y-89013452D01*
X121444740Y-89052916D01*
X121380026Y-89106026D01*
X121366721Y-89122238D01*
X119754239Y-90734721D01*
X119738027Y-90748026D01*
X119684917Y-90812740D01*
X119652640Y-90873127D01*
X119645453Y-90886573D01*
X119621150Y-90966686D01*
X119612945Y-91050000D01*
X119615001Y-91070877D01*
X119615000Y-92142973D01*
X119555325Y-92182847D01*
X119509644Y-92220336D01*
X119440336Y-92289644D01*
X119402847Y-92335325D01*
X119348391Y-92416824D01*
X119320533Y-92468943D01*
X119283024Y-92559499D01*
X119265870Y-92616048D01*
X119246748Y-92712181D01*
X119240956Y-92770991D01*
X119240956Y-92795550D01*
X119238548Y-92820000D01*
X119238548Y-93320000D01*
X119240956Y-93344450D01*
X119240956Y-93369009D01*
X119246748Y-93427819D01*
X119265870Y-93523952D01*
X119283024Y-93580501D01*
X119320533Y-93671057D01*
X119348391Y-93723176D01*
X119402847Y-93804675D01*
X119440336Y-93850356D01*
X119509644Y-93919664D01*
X119555325Y-93957153D01*
X119636824Y-94011609D01*
X119688943Y-94039467D01*
X119779499Y-94076976D01*
X119836048Y-94094130D01*
X119932181Y-94113252D01*
X119990991Y-94119044D01*
X120015550Y-94119044D01*
X120040000Y-94121452D01*
X120590000Y-94121452D01*
X120648810Y-94115660D01*
X120705361Y-94098505D01*
X120715001Y-94093352D01*
X120724640Y-94098504D01*
X120781190Y-94115659D01*
X120840000Y-94121451D01*
X120915001Y-94121451D01*
X120915000Y-97621133D01*
X120912945Y-97642000D01*
X120915000Y-97662867D01*
X120915000Y-97662873D01*
X120921150Y-97725313D01*
X120945452Y-97805426D01*
X120984916Y-97879259D01*
X121038026Y-97943974D01*
X121054243Y-97957283D01*
X123019001Y-99922042D01*
X123019000Y-104653133D01*
X123016945Y-104674000D01*
X123019000Y-104694867D01*
X123019000Y-104694873D01*
X123019534Y-104700291D01*
X123025150Y-104757314D01*
X123027959Y-104766573D01*
X123049452Y-104837426D01*
X123088916Y-104911259D01*
X123142026Y-104975974D01*
X123158243Y-104989283D01*
X124624719Y-106455760D01*
X124638026Y-106471974D01*
X124702740Y-106525084D01*
X124776573Y-106564548D01*
X124823938Y-106578916D01*
X124856685Y-106588850D01*
X124865098Y-106589679D01*
X124919126Y-106595000D01*
X124919132Y-106595000D01*
X124939999Y-106597055D01*
X124960866Y-106595000D01*
X126190000Y-106595000D01*
X126190000Y-123210000D01*
X126191949Y-123229648D01*
X126197666Y-123248399D01*
X126206932Y-123265675D01*
X126219390Y-123280811D01*
X126234561Y-123293226D01*
X126251863Y-123302442D01*
X126270630Y-123308106D01*
X126290142Y-123310000D01*
X203345000Y-123200632D01*
X203345000Y-129469000D01*
X110325000Y-129469000D01*
X110325000Y-125616348D01*
X119601773Y-125616348D01*
X119601773Y-126095652D01*
X119695281Y-126565746D01*
X119878703Y-127008565D01*
X120144989Y-127407092D01*
X120483908Y-127746011D01*
X120882435Y-128012297D01*
X121325254Y-128195719D01*
X121795348Y-128289227D01*
X122274652Y-128289227D01*
X122744746Y-128195719D01*
X123187565Y-128012297D01*
X123586092Y-127746011D01*
X123925011Y-127407092D01*
X124191297Y-127008565D01*
X124374719Y-126565746D01*
X124468227Y-126095652D01*
X124468227Y-125616348D01*
X189201773Y-125616348D01*
X189201773Y-126095652D01*
X189295281Y-126565746D01*
X189478703Y-127008565D01*
X189744989Y-127407092D01*
X190083908Y-127746011D01*
X190482435Y-128012297D01*
X190925254Y-128195719D01*
X191395348Y-128289227D01*
X191874652Y-128289227D01*
X192344746Y-128195719D01*
X192787565Y-128012297D01*
X193186092Y-127746011D01*
X193525011Y-127407092D01*
X193791297Y-127008565D01*
X193974719Y-126565746D01*
X194068227Y-126095652D01*
X194068227Y-125616348D01*
X193974719Y-125146254D01*
X193791297Y-124703435D01*
X193525011Y-124304908D01*
X193186092Y-123965989D01*
X192787565Y-123699703D01*
X192344746Y-123516281D01*
X191874652Y-123422773D01*
X191395348Y-123422773D01*
X190925254Y-123516281D01*
X190482435Y-123699703D01*
X190083908Y-123965989D01*
X189744989Y-124304908D01*
X189478703Y-124703435D01*
X189295281Y-125146254D01*
X189201773Y-125616348D01*
X124468227Y-125616348D01*
X124374719Y-125146254D01*
X124191297Y-124703435D01*
X123925011Y-124304908D01*
X123586092Y-123965989D01*
X123187565Y-123699703D01*
X122744746Y-123516281D01*
X122274652Y-123422773D01*
X121795348Y-123422773D01*
X121325254Y-123516281D01*
X120882435Y-123699703D01*
X120483908Y-123965989D01*
X120144989Y-124304908D01*
X119878703Y-124703435D01*
X119695281Y-125146254D01*
X119601773Y-125616348D01*
X110325000Y-125616348D01*
X110325000Y-105571056D01*
X119430000Y-105571056D01*
X119430000Y-105708944D01*
X119456901Y-105844182D01*
X119509668Y-105971574D01*
X119586274Y-106086224D01*
X119683776Y-106183726D01*
X119798426Y-106260332D01*
X119925818Y-106313099D01*
X120061056Y-106340000D01*
X120198944Y-106340000D01*
X120334182Y-106313099D01*
X120461574Y-106260332D01*
X120576224Y-106183726D01*
X120673726Y-106086224D01*
X120750332Y-105971574D01*
X120803099Y-105844182D01*
X120830000Y-105708944D01*
X120830000Y-105571056D01*
X120803099Y-105435818D01*
X120750332Y-105308426D01*
X120673726Y-105193776D01*
X120576224Y-105096274D01*
X120555000Y-105082093D01*
X120555000Y-100156040D01*
X120957021Y-99754020D01*
X120982056Y-99759000D01*
X121119944Y-99759000D01*
X121255182Y-99732099D01*
X121382574Y-99679332D01*
X121497224Y-99602726D01*
X121594726Y-99505224D01*
X121671332Y-99390574D01*
X121724099Y-99263182D01*
X121751000Y-99127944D01*
X121751000Y-98990056D01*
X121724099Y-98854818D01*
X121671332Y-98727426D01*
X121594726Y-98612776D01*
X121497224Y-98515274D01*
X121382574Y-98438668D01*
X121255182Y-98385901D01*
X121119944Y-98359000D01*
X120982056Y-98359000D01*
X120846818Y-98385901D01*
X120719426Y-98438668D01*
X120604776Y-98515274D01*
X120507274Y-98612776D01*
X120430668Y-98727426D01*
X120377901Y-98854818D01*
X120351000Y-98990056D01*
X120351000Y-99127944D01*
X120355980Y-99152979D01*
X119844239Y-99664721D01*
X119828027Y-99678026D01*
X119774917Y-99742740D01*
X119758575Y-99773314D01*
X119735453Y-99816573D01*
X119711150Y-99896686D01*
X119702945Y-99980000D01*
X119705001Y-100000877D01*
X119705000Y-105082093D01*
X119683776Y-105096274D01*
X119586274Y-105193776D01*
X119509668Y-105308426D01*
X119456901Y-105435818D01*
X119430000Y-105571056D01*
X110325000Y-105571056D01*
X110325000Y-86760348D01*
X114236773Y-86760348D01*
X114236773Y-87239652D01*
X114330281Y-87709746D01*
X114513703Y-88152565D01*
X114779989Y-88551092D01*
X115118908Y-88890011D01*
X115517435Y-89156297D01*
X115960254Y-89339719D01*
X116430348Y-89433227D01*
X116909652Y-89433227D01*
X117379746Y-89339719D01*
X117822565Y-89156297D01*
X118221092Y-88890011D01*
X118560011Y-88551092D01*
X118826297Y-88152565D01*
X119009719Y-87709746D01*
X119103227Y-87239652D01*
X119103227Y-86760348D01*
X119009719Y-86290254D01*
X118896948Y-86018000D01*
X127880549Y-86018000D01*
X127880549Y-87718000D01*
X127886341Y-87776810D01*
X127903496Y-87833360D01*
X127931353Y-87885477D01*
X127968842Y-87931158D01*
X128014523Y-87968647D01*
X128066640Y-87996504D01*
X128123190Y-88013659D01*
X128182000Y-88019451D01*
X129882000Y-88019451D01*
X129940810Y-88013659D01*
X129997360Y-87996504D01*
X130049477Y-87968647D01*
X130095158Y-87931158D01*
X130132647Y-87885477D01*
X130160504Y-87833360D01*
X130177659Y-87776810D01*
X130183451Y-87718000D01*
X130183451Y-86754735D01*
X130422000Y-86754735D01*
X130422000Y-86981265D01*
X130466194Y-87203443D01*
X130552884Y-87412729D01*
X130678737Y-87601082D01*
X130838918Y-87761263D01*
X131027271Y-87887116D01*
X131236557Y-87973806D01*
X131458735Y-88018000D01*
X131685265Y-88018000D01*
X131907443Y-87973806D01*
X132116729Y-87887116D01*
X132305082Y-87761263D01*
X132465263Y-87601082D01*
X132591116Y-87412729D01*
X132677806Y-87203443D01*
X132722000Y-86981265D01*
X132722000Y-86754735D01*
X132962000Y-86754735D01*
X132962000Y-86981265D01*
X133006194Y-87203443D01*
X133092884Y-87412729D01*
X133218737Y-87601082D01*
X133378918Y-87761263D01*
X133567271Y-87887116D01*
X133776557Y-87973806D01*
X133998735Y-88018000D01*
X134225265Y-88018000D01*
X134447443Y-87973806D01*
X134656729Y-87887116D01*
X134845082Y-87761263D01*
X135005263Y-87601082D01*
X135131116Y-87412729D01*
X135217806Y-87203443D01*
X135262000Y-86981265D01*
X135262000Y-86754735D01*
X135502000Y-86754735D01*
X135502000Y-86981265D01*
X135546194Y-87203443D01*
X135632884Y-87412729D01*
X135758737Y-87601082D01*
X135918918Y-87761263D01*
X136107271Y-87887116D01*
X136316557Y-87973806D01*
X136538735Y-88018000D01*
X136765265Y-88018000D01*
X136987443Y-87973806D01*
X137196729Y-87887116D01*
X137385082Y-87761263D01*
X137545263Y-87601082D01*
X137671116Y-87412729D01*
X137757806Y-87203443D01*
X137802000Y-86981265D01*
X137802000Y-86754735D01*
X138042000Y-86754735D01*
X138042000Y-86981265D01*
X138086194Y-87203443D01*
X138172884Y-87412729D01*
X138298737Y-87601082D01*
X138458918Y-87761263D01*
X138647271Y-87887116D01*
X138856557Y-87973806D01*
X139078735Y-88018000D01*
X139305265Y-88018000D01*
X139527443Y-87973806D01*
X139705624Y-87900000D01*
X178409032Y-87900000D01*
X178410000Y-88695000D01*
X178460000Y-88745000D01*
X179455000Y-88745000D01*
X179455000Y-87750000D01*
X179465000Y-87750000D01*
X179465000Y-88745000D01*
X180460000Y-88745000D01*
X180510000Y-88695000D01*
X180510968Y-87900000D01*
X180507106Y-87860793D01*
X180495670Y-87823093D01*
X180477099Y-87788348D01*
X180452106Y-87757894D01*
X180421652Y-87732901D01*
X180386907Y-87714330D01*
X180349207Y-87702894D01*
X180310000Y-87699032D01*
X179515000Y-87700000D01*
X179465000Y-87750000D01*
X179455000Y-87750000D01*
X179405000Y-87700000D01*
X178610000Y-87699032D01*
X178570793Y-87702894D01*
X178533093Y-87714330D01*
X178498348Y-87732901D01*
X178467894Y-87757894D01*
X178442901Y-87788348D01*
X178424330Y-87823093D01*
X178412894Y-87860793D01*
X178409032Y-87900000D01*
X139705624Y-87900000D01*
X139736729Y-87887116D01*
X139925082Y-87761263D01*
X140085263Y-87601082D01*
X140211116Y-87412729D01*
X140297806Y-87203443D01*
X140342000Y-86981265D01*
X140342000Y-86754735D01*
X140297806Y-86532557D01*
X140211116Y-86323271D01*
X140085263Y-86134918D01*
X139925082Y-85974737D01*
X139736729Y-85848884D01*
X139527443Y-85762194D01*
X139305265Y-85718000D01*
X139078735Y-85718000D01*
X138856557Y-85762194D01*
X138647271Y-85848884D01*
X138458918Y-85974737D01*
X138298737Y-86134918D01*
X138172884Y-86323271D01*
X138086194Y-86532557D01*
X138042000Y-86754735D01*
X137802000Y-86754735D01*
X137757806Y-86532557D01*
X137671116Y-86323271D01*
X137545263Y-86134918D01*
X137385082Y-85974737D01*
X137196729Y-85848884D01*
X136987443Y-85762194D01*
X136765265Y-85718000D01*
X136538735Y-85718000D01*
X136316557Y-85762194D01*
X136107271Y-85848884D01*
X135918918Y-85974737D01*
X135758737Y-86134918D01*
X135632884Y-86323271D01*
X135546194Y-86532557D01*
X135502000Y-86754735D01*
X135262000Y-86754735D01*
X135217806Y-86532557D01*
X135131116Y-86323271D01*
X135005263Y-86134918D01*
X134845082Y-85974737D01*
X134656729Y-85848884D01*
X134447443Y-85762194D01*
X134225265Y-85718000D01*
X133998735Y-85718000D01*
X133776557Y-85762194D01*
X133567271Y-85848884D01*
X133378918Y-85974737D01*
X133218737Y-86134918D01*
X133092884Y-86323271D01*
X133006194Y-86532557D01*
X132962000Y-86754735D01*
X132722000Y-86754735D01*
X132677806Y-86532557D01*
X132591116Y-86323271D01*
X132465263Y-86134918D01*
X132305082Y-85974737D01*
X132116729Y-85848884D01*
X131907443Y-85762194D01*
X131685265Y-85718000D01*
X131458735Y-85718000D01*
X131236557Y-85762194D01*
X131027271Y-85848884D01*
X130838918Y-85974737D01*
X130678737Y-86134918D01*
X130552884Y-86323271D01*
X130466194Y-86532557D01*
X130422000Y-86754735D01*
X130183451Y-86754735D01*
X130183451Y-86018000D01*
X130177659Y-85959190D01*
X130160504Y-85902640D01*
X130132647Y-85850523D01*
X130095158Y-85804842D01*
X130049477Y-85767353D01*
X129997360Y-85739496D01*
X129940810Y-85722341D01*
X129882000Y-85716549D01*
X128182000Y-85716549D01*
X128123190Y-85722341D01*
X128066640Y-85739496D01*
X128014523Y-85767353D01*
X127968842Y-85804842D01*
X127931353Y-85850523D01*
X127903496Y-85902640D01*
X127886341Y-85959190D01*
X127880549Y-86018000D01*
X118896948Y-86018000D01*
X118826297Y-85847435D01*
X118640254Y-85569000D01*
X151828000Y-85569000D01*
X151828000Y-85869000D01*
X151842426Y-86005467D01*
X151883198Y-86136498D01*
X151948749Y-86257057D01*
X152036561Y-86362511D01*
X152143259Y-86448807D01*
X152264742Y-86512629D01*
X152396342Y-86551525D01*
X152413560Y-86554582D01*
X152523000Y-86513981D01*
X152523000Y-85569000D01*
X152533000Y-85569000D01*
X152533000Y-86513981D01*
X152642440Y-86554582D01*
X152659658Y-86551525D01*
X152791258Y-86512629D01*
X152912741Y-86448807D01*
X153019439Y-86362511D01*
X153107251Y-86257057D01*
X153172802Y-86136498D01*
X153213574Y-86005467D01*
X153228000Y-85869000D01*
X153228000Y-85569000D01*
X160468000Y-85569000D01*
X160468000Y-85869000D01*
X160482426Y-86005467D01*
X160523198Y-86136498D01*
X160588749Y-86257057D01*
X160676561Y-86362511D01*
X160783259Y-86448807D01*
X160904742Y-86512629D01*
X161036342Y-86551525D01*
X161053560Y-86554582D01*
X161163000Y-86513981D01*
X161163000Y-85569000D01*
X161173000Y-85569000D01*
X161173000Y-86513981D01*
X161282440Y-86554582D01*
X161299658Y-86551525D01*
X161431258Y-86512629D01*
X161552741Y-86448807D01*
X161659439Y-86362511D01*
X161747251Y-86257057D01*
X161812802Y-86136498D01*
X161824158Y-86100000D01*
X182568549Y-86100000D01*
X182568549Y-87800000D01*
X182574341Y-87858810D01*
X182591496Y-87915360D01*
X182619353Y-87967477D01*
X182656842Y-88013158D01*
X182702523Y-88050647D01*
X182754640Y-88078504D01*
X182811190Y-88095659D01*
X182870000Y-88101451D01*
X184570000Y-88101451D01*
X184628810Y-88095659D01*
X184685360Y-88078504D01*
X184737477Y-88050647D01*
X184783158Y-88013158D01*
X184820647Y-87967477D01*
X184848504Y-87915360D01*
X184865659Y-87858810D01*
X184871451Y-87800000D01*
X184871451Y-86100000D01*
X184865659Y-86041190D01*
X184848504Y-85984640D01*
X184820647Y-85932523D01*
X184783158Y-85886842D01*
X184737477Y-85849353D01*
X184685360Y-85821496D01*
X184628810Y-85804341D01*
X184570000Y-85798549D01*
X182870000Y-85798549D01*
X182811190Y-85804341D01*
X182754640Y-85821496D01*
X182702523Y-85849353D01*
X182656842Y-85886842D01*
X182619353Y-85932523D01*
X182591496Y-85984640D01*
X182574341Y-86041190D01*
X182568549Y-86100000D01*
X161824158Y-86100000D01*
X161853574Y-86005467D01*
X161868000Y-85869000D01*
X161868000Y-85569000D01*
X161173000Y-85569000D01*
X161163000Y-85569000D01*
X160468000Y-85569000D01*
X153228000Y-85569000D01*
X152533000Y-85569000D01*
X152523000Y-85569000D01*
X151828000Y-85569000D01*
X118640254Y-85569000D01*
X118560011Y-85448908D01*
X118370103Y-85259000D01*
X151828000Y-85259000D01*
X151828000Y-85559000D01*
X152523000Y-85559000D01*
X152523000Y-84614019D01*
X152533000Y-84614019D01*
X152533000Y-85559000D01*
X153228000Y-85559000D01*
X153228000Y-85259000D01*
X160468000Y-85259000D01*
X160468000Y-85559000D01*
X161163000Y-85559000D01*
X161163000Y-84614019D01*
X161173000Y-84614019D01*
X161173000Y-85559000D01*
X161868000Y-85559000D01*
X161868000Y-85259000D01*
X161853574Y-85122533D01*
X161812802Y-84991502D01*
X161747251Y-84870943D01*
X161659439Y-84765489D01*
X161552741Y-84679193D01*
X161431258Y-84615371D01*
X161299658Y-84576475D01*
X161282440Y-84573418D01*
X161173000Y-84614019D01*
X161163000Y-84614019D01*
X161053560Y-84573418D01*
X161036342Y-84576475D01*
X160904742Y-84615371D01*
X160783259Y-84679193D01*
X160676561Y-84765489D01*
X160588749Y-84870943D01*
X160523198Y-84991502D01*
X160482426Y-85122533D01*
X160468000Y-85259000D01*
X153228000Y-85259000D01*
X153213574Y-85122533D01*
X153172802Y-84991502D01*
X153107251Y-84870943D01*
X153019439Y-84765489D01*
X152912741Y-84679193D01*
X152791258Y-84615371D01*
X152659658Y-84576475D01*
X152642440Y-84573418D01*
X152533000Y-84614019D01*
X152523000Y-84614019D01*
X152413560Y-84573418D01*
X152396342Y-84576475D01*
X152264742Y-84615371D01*
X152143259Y-84679193D01*
X152036561Y-84765489D01*
X151948749Y-84870943D01*
X151883198Y-84991502D01*
X151842426Y-85122533D01*
X151828000Y-85259000D01*
X118370103Y-85259000D01*
X118221092Y-85109989D01*
X117822565Y-84843703D01*
X117379746Y-84660281D01*
X116909652Y-84566773D01*
X116430348Y-84566773D01*
X115960254Y-84660281D01*
X115517435Y-84843703D01*
X115118908Y-85109989D01*
X114779989Y-85448908D01*
X114513703Y-85847435D01*
X114330281Y-86290254D01*
X114236773Y-86760348D01*
X110325000Y-86760348D01*
X110325000Y-83325000D01*
X203345001Y-83325000D01*
X203345001Y-102680631D01*
G37*
G04 #@! TD.AperFunction*
D21*
X124715668Y-103541574D02*
X124792274Y-103656224D01*
X124889776Y-103753726D01*
X125004426Y-103830332D01*
X125131818Y-103883099D01*
X125267056Y-103910000D01*
X125404944Y-103910000D01*
X125429979Y-103905020D01*
X125685720Y-104160761D01*
X125699027Y-104176975D01*
X125763741Y-104230085D01*
X125837574Y-104269549D01*
X125881735Y-104282945D01*
X125917686Y-104293851D01*
X125926099Y-104294680D01*
X125980127Y-104300001D01*
X125980133Y-104300001D01*
X126001000Y-104302056D01*
X126021867Y-104300001D01*
X126190000Y-104300001D01*
X126190000Y-105294989D01*
X125456030Y-105294989D01*
X124681000Y-104519960D01*
X124681000Y-103457877D01*
X124715668Y-103541574D01*
G04 #@! TA.AperFunction,Conductor*
D22*
G36*
X124715668Y-103541574D02*
G01*
X124792274Y-103656224D01*
X124889776Y-103753726D01*
X125004426Y-103830332D01*
X125131818Y-103883099D01*
X125267056Y-103910000D01*
X125404944Y-103910000D01*
X125429979Y-103905020D01*
X125685720Y-104160761D01*
X125699027Y-104176975D01*
X125763741Y-104230085D01*
X125837574Y-104269549D01*
X125881735Y-104282945D01*
X125917686Y-104293851D01*
X125926099Y-104294680D01*
X125980127Y-104300001D01*
X125980133Y-104300001D01*
X126001000Y-104302056D01*
X126021867Y-104300001D01*
X126190000Y-104300001D01*
X126190000Y-105294989D01*
X125456030Y-105294989D01*
X124681000Y-104519960D01*
X124681000Y-103457877D01*
X124715668Y-103541574D01*
G37*
G04 #@! TD.AperFunction*
D21*
X124670243Y-90578717D02*
X124654026Y-90592026D01*
X124600916Y-90656741D01*
X124561452Y-90730574D01*
X124537150Y-90810687D01*
X124531000Y-90873127D01*
X124531000Y-90873133D01*
X124528945Y-90894000D01*
X124531000Y-90914867D01*
X124531001Y-92142973D01*
X124471325Y-92182847D01*
X124425644Y-92220336D01*
X124356336Y-92289644D01*
X124318847Y-92335325D01*
X124264391Y-92416824D01*
X124236533Y-92468943D01*
X124199024Y-92559499D01*
X124181870Y-92616048D01*
X124162748Y-92712181D01*
X124156956Y-92770991D01*
X124156956Y-92795550D01*
X124154548Y-92820000D01*
X124154548Y-93320000D01*
X124156956Y-93344450D01*
X124156956Y-93369009D01*
X124162748Y-93427819D01*
X124181870Y-93523952D01*
X124199024Y-93580501D01*
X124236533Y-93671057D01*
X124264391Y-93723176D01*
X124318847Y-93804675D01*
X124356336Y-93850356D01*
X124425644Y-93919664D01*
X124471325Y-93957153D01*
X124531001Y-93997027D01*
X124531000Y-94817959D01*
X123970239Y-95378721D01*
X123954027Y-95392026D01*
X123900917Y-95456740D01*
X123890229Y-95476737D01*
X123861453Y-95530573D01*
X123837150Y-95610686D01*
X123828945Y-95694000D01*
X123831001Y-95714877D01*
X123831000Y-99568452D01*
X123799084Y-99508740D01*
X123745974Y-99444026D01*
X123729762Y-99430721D01*
X121765000Y-97465960D01*
X121765000Y-94121451D01*
X121840000Y-94121451D01*
X121898810Y-94115659D01*
X121955360Y-94098504D01*
X122007477Y-94070647D01*
X122053158Y-94033158D01*
X122090647Y-93987477D01*
X122118504Y-93935360D01*
X122135659Y-93878810D01*
X122141451Y-93820000D01*
X122141451Y-92320000D01*
X122135659Y-92261190D01*
X122118504Y-92204640D01*
X122090647Y-92152523D01*
X122053158Y-92106842D01*
X122007477Y-92069353D01*
X121955360Y-92041496D01*
X121898810Y-92024341D01*
X121840000Y-92018549D01*
X120840000Y-92018549D01*
X120781190Y-92024341D01*
X120724640Y-92041496D01*
X120715001Y-92046648D01*
X120705361Y-92041495D01*
X120648810Y-92024340D01*
X120590000Y-92018548D01*
X120465000Y-92018548D01*
X120465000Y-91226040D01*
X121858041Y-89833000D01*
X125415959Y-89833000D01*
X124670243Y-90578717D01*
G04 #@! TA.AperFunction,Conductor*
D22*
G36*
X124670243Y-90578717D02*
G01*
X124654026Y-90592026D01*
X124600916Y-90656741D01*
X124561452Y-90730574D01*
X124537150Y-90810687D01*
X124531000Y-90873127D01*
X124531000Y-90873133D01*
X124528945Y-90894000D01*
X124531000Y-90914867D01*
X124531001Y-92142973D01*
X124471325Y-92182847D01*
X124425644Y-92220336D01*
X124356336Y-92289644D01*
X124318847Y-92335325D01*
X124264391Y-92416824D01*
X124236533Y-92468943D01*
X124199024Y-92559499D01*
X124181870Y-92616048D01*
X124162748Y-92712181D01*
X124156956Y-92770991D01*
X124156956Y-92795550D01*
X124154548Y-92820000D01*
X124154548Y-93320000D01*
X124156956Y-93344450D01*
X124156956Y-93369009D01*
X124162748Y-93427819D01*
X124181870Y-93523952D01*
X124199024Y-93580501D01*
X124236533Y-93671057D01*
X124264391Y-93723176D01*
X124318847Y-93804675D01*
X124356336Y-93850356D01*
X124425644Y-93919664D01*
X124471325Y-93957153D01*
X124531001Y-93997027D01*
X124531000Y-94817959D01*
X123970239Y-95378721D01*
X123954027Y-95392026D01*
X123900917Y-95456740D01*
X123890229Y-95476737D01*
X123861453Y-95530573D01*
X123837150Y-95610686D01*
X123828945Y-95694000D01*
X123831001Y-95714877D01*
X123831000Y-99568452D01*
X123799084Y-99508740D01*
X123745974Y-99444026D01*
X123729762Y-99430721D01*
X121765000Y-97465960D01*
X121765000Y-94121451D01*
X121840000Y-94121451D01*
X121898810Y-94115659D01*
X121955360Y-94098504D01*
X122007477Y-94070647D01*
X122053158Y-94033158D01*
X122090647Y-93987477D01*
X122118504Y-93935360D01*
X122135659Y-93878810D01*
X122141451Y-93820000D01*
X122141451Y-92320000D01*
X122135659Y-92261190D01*
X122118504Y-92204640D01*
X122090647Y-92152523D01*
X122053158Y-92106842D01*
X122007477Y-92069353D01*
X121955360Y-92041496D01*
X121898810Y-92024341D01*
X121840000Y-92018549D01*
X120840000Y-92018549D01*
X120781190Y-92024341D01*
X120724640Y-92041496D01*
X120715001Y-92046648D01*
X120705361Y-92041495D01*
X120648810Y-92024340D01*
X120590000Y-92018548D01*
X120465000Y-92018548D01*
X120465000Y-91226040D01*
X121858041Y-89833000D01*
X125415959Y-89833000D01*
X124670243Y-90578717D01*
G37*
G04 #@! TD.AperFunction*
D21*
X178566737Y-90556918D02*
X178440884Y-90745271D01*
X178354194Y-90954557D01*
X178310000Y-91176735D01*
X178310000Y-91403265D01*
X178354194Y-91625443D01*
X178440884Y-91834729D01*
X178566737Y-92023082D01*
X178668655Y-92125000D01*
X173950867Y-92125000D01*
X173930000Y-92122945D01*
X173909133Y-92125000D01*
X173909126Y-92125000D01*
X173854327Y-92130397D01*
X173846685Y-92131150D01*
X173822383Y-92138522D01*
X173766573Y-92155452D01*
X173692740Y-92194916D01*
X173628026Y-92248026D01*
X173614721Y-92264238D01*
X167933960Y-97945000D01*
X138528044Y-97945000D01*
X138526221Y-97944820D01*
X138536041Y-97935000D01*
X166129133Y-97935000D01*
X166150000Y-97937055D01*
X166170867Y-97935000D01*
X166170874Y-97935000D01*
X166233314Y-97928850D01*
X166313427Y-97904548D01*
X166387260Y-97865084D01*
X166451974Y-97811974D01*
X166465284Y-97795756D01*
X173806041Y-90455000D01*
X178668655Y-90455000D01*
X178566737Y-90556918D01*
G04 #@! TA.AperFunction,Conductor*
D22*
G36*
X178566737Y-90556918D02*
G01*
X178440884Y-90745271D01*
X178354194Y-90954557D01*
X178310000Y-91176735D01*
X178310000Y-91403265D01*
X178354194Y-91625443D01*
X178440884Y-91834729D01*
X178566737Y-92023082D01*
X178668655Y-92125000D01*
X173950867Y-92125000D01*
X173930000Y-92122945D01*
X173909133Y-92125000D01*
X173909126Y-92125000D01*
X173854327Y-92130397D01*
X173846685Y-92131150D01*
X173822383Y-92138522D01*
X173766573Y-92155452D01*
X173692740Y-92194916D01*
X173628026Y-92248026D01*
X173614721Y-92264238D01*
X167933960Y-97945000D01*
X138528044Y-97945000D01*
X138526221Y-97944820D01*
X138536041Y-97935000D01*
X166129133Y-97935000D01*
X166150000Y-97937055D01*
X166170867Y-97935000D01*
X166170874Y-97935000D01*
X166233314Y-97928850D01*
X166313427Y-97904548D01*
X166387260Y-97865084D01*
X166451974Y-97811974D01*
X166465284Y-97795756D01*
X173806041Y-90455000D01*
X178668655Y-90455000D01*
X178566737Y-90556918D01*
G37*
G04 #@! TD.AperFunction*
D21*
X166806274Y-95266224D02*
X166903776Y-95363726D01*
X167018426Y-95440332D01*
X167145818Y-95493099D01*
X167281056Y-95520000D01*
X167418944Y-95520000D01*
X167554182Y-95493099D01*
X167574119Y-95484841D01*
X165973960Y-97085000D01*
X158112950Y-97085000D01*
X158141726Y-97056224D01*
X158218332Y-96941574D01*
X158271099Y-96814182D01*
X158298000Y-96678944D01*
X158298000Y-96541056D01*
X158271099Y-96405818D01*
X158218332Y-96278426D01*
X158141726Y-96163776D01*
X158044224Y-96066274D01*
X157929574Y-95989668D01*
X157802182Y-95936901D01*
X157666944Y-95910000D01*
X157529056Y-95910000D01*
X157393818Y-95936901D01*
X157266426Y-95989668D01*
X157151776Y-96066274D01*
X157054274Y-96163776D01*
X156977668Y-96278426D01*
X156924901Y-96405818D01*
X156898000Y-96541056D01*
X156898000Y-96603000D01*
X155808040Y-96603000D01*
X155972325Y-96438715D01*
X156029056Y-96450000D01*
X156166944Y-96450000D01*
X156302182Y-96423099D01*
X156429574Y-96370332D01*
X156544224Y-96293726D01*
X156641726Y-96196224D01*
X156718332Y-96081574D01*
X156771099Y-95954182D01*
X156798000Y-95818944D01*
X156798000Y-95681056D01*
X156771099Y-95545818D01*
X156718332Y-95418426D01*
X156641726Y-95303776D01*
X156582950Y-95245000D01*
X166792093Y-95245000D01*
X166806274Y-95266224D01*
G04 #@! TA.AperFunction,Conductor*
D22*
G36*
X166806274Y-95266224D02*
G01*
X166903776Y-95363726D01*
X167018426Y-95440332D01*
X167145818Y-95493099D01*
X167281056Y-95520000D01*
X167418944Y-95520000D01*
X167554182Y-95493099D01*
X167574119Y-95484841D01*
X165973960Y-97085000D01*
X158112950Y-97085000D01*
X158141726Y-97056224D01*
X158218332Y-96941574D01*
X158271099Y-96814182D01*
X158298000Y-96678944D01*
X158298000Y-96541056D01*
X158271099Y-96405818D01*
X158218332Y-96278426D01*
X158141726Y-96163776D01*
X158044224Y-96066274D01*
X157929574Y-95989668D01*
X157802182Y-95936901D01*
X157666944Y-95910000D01*
X157529056Y-95910000D01*
X157393818Y-95936901D01*
X157266426Y-95989668D01*
X157151776Y-96066274D01*
X157054274Y-96163776D01*
X156977668Y-96278426D01*
X156924901Y-96405818D01*
X156898000Y-96541056D01*
X156898000Y-96603000D01*
X155808040Y-96603000D01*
X155972325Y-96438715D01*
X156029056Y-96450000D01*
X156166944Y-96450000D01*
X156302182Y-96423099D01*
X156429574Y-96370332D01*
X156544224Y-96293726D01*
X156641726Y-96196224D01*
X156718332Y-96081574D01*
X156771099Y-95954182D01*
X156798000Y-95818944D01*
X156798000Y-95681056D01*
X156771099Y-95545818D01*
X156718332Y-95418426D01*
X156641726Y-95303776D01*
X156582950Y-95245000D01*
X166792093Y-95245000D01*
X166806274Y-95266224D01*
G37*
G04 #@! TD.AperFunction*
M02*
