G04 #@! TF.GenerationSoftware,KiCad,Pcbnew,(5.1.12)-1*
G04 #@! TF.CreationDate,2024-09-15T14:26:27+03:00*
G04 #@! TF.ProjectId,CaliperPCB,43616c69-7065-4725-9043-422e6b696361,rev?*
G04 #@! TF.SameCoordinates,Original*
G04 #@! TF.FileFunction,Legend,Bot*
G04 #@! TF.FilePolarity,Positive*
%FSLAX46Y46*%
G04 Gerber Fmt 4.6, Leading zero omitted, Abs format (unit mm)*
G04 Created by KiCad (PCBNEW (5.1.12)-1) date 2024-09-15 14:26:27*
%MOMM*%
%LPD*%
G01*
G04 APERTURE LIST*
%ADD10C,0.150000*%
%ADD11C,0.120000*%
%ADD12O,1.700000X1.700000*%
%ADD13R,1.700000X1.700000*%
%ADD14R,1.000000X1.500000*%
%ADD15C,0.100000*%
%ADD16O,1.000000X1.600000*%
%ADD17C,0.650000*%
%ADD18O,1.000000X2.100000*%
G04 APERTURE END LIST*
D10*
X122305476Y-91722380D02*
X122781666Y-91722380D01*
X122781666Y-90722380D01*
X127221476Y-91722380D02*
X127697666Y-91722380D01*
X127697666Y-90722380D01*
X123018572Y-94928571D02*
X122875715Y-94976190D01*
X122828096Y-95023809D01*
X122780477Y-95119047D01*
X122780477Y-95261904D01*
X122828096Y-95357142D01*
X122875715Y-95404761D01*
X122970953Y-95452380D01*
X123351905Y-95452380D01*
X123351905Y-94452380D01*
X123018572Y-94452380D01*
X122923334Y-94500000D01*
X122875715Y-94547619D01*
X122828096Y-94642857D01*
X122828096Y-94738095D01*
X122875715Y-94833333D01*
X122923334Y-94880952D01*
X123018572Y-94928571D01*
X123351905Y-94928571D01*
X122161429Y-94452380D02*
X121970953Y-94452380D01*
X121875715Y-94500000D01*
X121780477Y-94595238D01*
X121732858Y-94785714D01*
X121732858Y-95119047D01*
X121780477Y-95309523D01*
X121875715Y-95404761D01*
X121970953Y-95452380D01*
X122161429Y-95452380D01*
X122256667Y-95404761D01*
X122351905Y-95309523D01*
X122399524Y-95119047D01*
X122399524Y-94785714D01*
X122351905Y-94595238D01*
X122256667Y-94500000D01*
X122161429Y-94452380D01*
X121113810Y-94452380D02*
X120923334Y-94452380D01*
X120828096Y-94500000D01*
X120732858Y-94595238D01*
X120685239Y-94785714D01*
X120685239Y-95119047D01*
X120732858Y-95309523D01*
X120828096Y-95404761D01*
X120923334Y-95452380D01*
X121113810Y-95452380D01*
X121209048Y-95404761D01*
X121304286Y-95309523D01*
X121351905Y-95119047D01*
X121351905Y-94785714D01*
X121304286Y-94595238D01*
X121209048Y-94500000D01*
X121113810Y-94452380D01*
X120399524Y-94452380D02*
X119828096Y-94452380D01*
X120113810Y-95452380D02*
X120113810Y-94452380D01*
X119304286Y-94452380D02*
X119209048Y-94452380D01*
X119113810Y-94500000D01*
X119066191Y-94547619D01*
X119018572Y-94642857D01*
X118970953Y-94833333D01*
X118970953Y-95071428D01*
X119018572Y-95261904D01*
X119066191Y-95357142D01*
X119113810Y-95404761D01*
X119209048Y-95452380D01*
X119304286Y-95452380D01*
X119399524Y-95404761D01*
X119447143Y-95357142D01*
X119494762Y-95261904D01*
X119542381Y-95071428D01*
X119542381Y-94833333D01*
X119494762Y-94642857D01*
X119447143Y-94547619D01*
X119399524Y-94500000D01*
X119304286Y-94452380D01*
X128244094Y-94938571D02*
X128101237Y-94986190D01*
X128053618Y-95033809D01*
X128005999Y-95129047D01*
X128005999Y-95271904D01*
X128053618Y-95367142D01*
X128101237Y-95414761D01*
X128196475Y-95462380D01*
X128577427Y-95462380D01*
X128577427Y-94462380D01*
X128244094Y-94462380D01*
X128148856Y-94510000D01*
X128101237Y-94557619D01*
X128053618Y-94652857D01*
X128053618Y-94748095D01*
X128101237Y-94843333D01*
X128148856Y-94890952D01*
X128244094Y-94938571D01*
X128577427Y-94938571D01*
X127386951Y-94462380D02*
X127196475Y-94462380D01*
X127101237Y-94510000D01*
X127005999Y-94605238D01*
X126958380Y-94795714D01*
X126958380Y-95129047D01*
X127005999Y-95319523D01*
X127101237Y-95414761D01*
X127196475Y-95462380D01*
X127386951Y-95462380D01*
X127482189Y-95414761D01*
X127577427Y-95319523D01*
X127625046Y-95129047D01*
X127625046Y-94795714D01*
X127577427Y-94605238D01*
X127482189Y-94510000D01*
X127386951Y-94462380D01*
X126339332Y-94462380D02*
X126148856Y-94462380D01*
X126053618Y-94510000D01*
X125958380Y-94605238D01*
X125910761Y-94795714D01*
X125910761Y-95129047D01*
X125958380Y-95319523D01*
X126053618Y-95414761D01*
X126148856Y-95462380D01*
X126339332Y-95462380D01*
X126434570Y-95414761D01*
X126529808Y-95319523D01*
X126577427Y-95129047D01*
X126577427Y-94795714D01*
X126529808Y-94605238D01*
X126434570Y-94510000D01*
X126339332Y-94462380D01*
X125625046Y-94462380D02*
X125053618Y-94462380D01*
X125339332Y-95462380D02*
X125339332Y-94462380D01*
X124196475Y-95462380D02*
X124767903Y-95462380D01*
X124482189Y-95462380D02*
X124482189Y-94462380D01*
X124577427Y-94605238D01*
X124672665Y-94700476D01*
X124767903Y-94748095D01*
X124035833Y-114069761D02*
X124131071Y-114117380D01*
X124321547Y-114117380D01*
X124416785Y-114069761D01*
X124464404Y-114022142D01*
X124512023Y-113926904D01*
X124512023Y-113641190D01*
X124464404Y-113545952D01*
X124416785Y-113498333D01*
X124321547Y-113450714D01*
X124131071Y-113450714D01*
X124035833Y-113498333D01*
X123464404Y-114117380D02*
X123559642Y-114069761D01*
X123607261Y-114022142D01*
X123654880Y-113926904D01*
X123654880Y-113641190D01*
X123607261Y-113545952D01*
X123559642Y-113498333D01*
X123464404Y-113450714D01*
X123321547Y-113450714D01*
X123226309Y-113498333D01*
X123178690Y-113545952D01*
X123131071Y-113641190D01*
X123131071Y-113926904D01*
X123178690Y-114022142D01*
X123226309Y-114069761D01*
X123321547Y-114117380D01*
X123464404Y-114117380D01*
X122702500Y-113450714D02*
X122702500Y-114117380D01*
X122702500Y-113545952D02*
X122654880Y-113498333D01*
X122559642Y-113450714D01*
X122416785Y-113450714D01*
X122321547Y-113498333D01*
X122273928Y-113593571D01*
X122273928Y-114117380D01*
X121940595Y-113450714D02*
X121559642Y-113450714D01*
X121797738Y-113117380D02*
X121797738Y-113974523D01*
X121750119Y-114069761D01*
X121654880Y-114117380D01*
X121559642Y-114117380D01*
X121226309Y-114117380D02*
X121226309Y-113450714D01*
X121226309Y-113641190D02*
X121178690Y-113545952D01*
X121131071Y-113498333D01*
X121035833Y-113450714D01*
X120940595Y-113450714D01*
X120607261Y-114117380D02*
X120607261Y-113450714D01*
X120607261Y-113117380D02*
X120654880Y-113165000D01*
X120607261Y-113212619D01*
X120559642Y-113165000D01*
X120607261Y-113117380D01*
X120607261Y-113212619D01*
X120131071Y-114117380D02*
X120131071Y-113117380D01*
X120131071Y-113498333D02*
X120035833Y-113450714D01*
X119845357Y-113450714D01*
X119750119Y-113498333D01*
X119702500Y-113545952D01*
X119654880Y-113641190D01*
X119654880Y-113926904D01*
X119702500Y-114022142D01*
X119750119Y-114069761D01*
X119845357Y-114117380D01*
X120035833Y-114117380D01*
X120131071Y-114069761D01*
X118797738Y-113450714D02*
X118797738Y-114117380D01*
X119226309Y-113450714D02*
X119226309Y-113974523D01*
X119178690Y-114069761D01*
X119083452Y-114117380D01*
X118940595Y-114117380D01*
X118845357Y-114069761D01*
X118797738Y-114022142D01*
X118464404Y-113450714D02*
X118083452Y-113450714D01*
X118321547Y-113117380D02*
X118321547Y-113974523D01*
X118273928Y-114069761D01*
X118178690Y-114117380D01*
X118083452Y-114117380D01*
X117607261Y-114117380D02*
X117702500Y-114069761D01*
X117750119Y-114022142D01*
X117797738Y-113926904D01*
X117797738Y-113641190D01*
X117750119Y-113545952D01*
X117702500Y-113498333D01*
X117607261Y-113450714D01*
X117464404Y-113450714D01*
X117369166Y-113498333D01*
X117321547Y-113545952D01*
X117273928Y-113641190D01*
X117273928Y-113926904D01*
X117321547Y-114022142D01*
X117369166Y-114069761D01*
X117464404Y-114117380D01*
X117607261Y-114117380D01*
X116845357Y-114117380D02*
X116845357Y-113450714D01*
X116845357Y-113641190D02*
X116797738Y-113545952D01*
X116750119Y-113498333D01*
X116654880Y-113450714D01*
X116559642Y-113450714D01*
X116273928Y-114069761D02*
X116178690Y-114117380D01*
X115988214Y-114117380D01*
X115892976Y-114069761D01*
X115845357Y-113974523D01*
X115845357Y-113926904D01*
X115892976Y-113831666D01*
X115988214Y-113784047D01*
X116131071Y-113784047D01*
X116226309Y-113736428D01*
X116273928Y-113641190D01*
X116273928Y-113593571D01*
X116226309Y-113498333D01*
X116131071Y-113450714D01*
X115988214Y-113450714D01*
X115892976Y-113498333D01*
X115416785Y-114022142D02*
X115369166Y-114069761D01*
X115416785Y-114117380D01*
X115464404Y-114069761D01*
X115416785Y-114022142D01*
X115416785Y-114117380D01*
X115416785Y-113498333D02*
X115369166Y-113545952D01*
X115416785Y-113593571D01*
X115464404Y-113545952D01*
X115416785Y-113498333D01*
X115416785Y-113593571D01*
X124464404Y-115767380D02*
X124464404Y-114767380D01*
X124226309Y-114767380D01*
X124083452Y-114815000D01*
X123988214Y-114910238D01*
X123940595Y-115005476D01*
X123892976Y-115195952D01*
X123892976Y-115338809D01*
X123940595Y-115529285D01*
X123988214Y-115624523D01*
X124083452Y-115719761D01*
X124226309Y-115767380D01*
X124464404Y-115767380D01*
X123464404Y-115767380D02*
X123464404Y-115100714D01*
X123464404Y-114767380D02*
X123512023Y-114815000D01*
X123464404Y-114862619D01*
X123416785Y-114815000D01*
X123464404Y-114767380D01*
X123464404Y-114862619D01*
X122988214Y-115767380D02*
X122988214Y-115100714D01*
X122988214Y-115195952D02*
X122940595Y-115148333D01*
X122845357Y-115100714D01*
X122702500Y-115100714D01*
X122607261Y-115148333D01*
X122559642Y-115243571D01*
X122559642Y-115767380D01*
X122559642Y-115243571D02*
X122512023Y-115148333D01*
X122416785Y-115100714D01*
X122273928Y-115100714D01*
X122178690Y-115148333D01*
X122131071Y-115243571D01*
X122131071Y-115767380D01*
X121654880Y-115767380D02*
X121654880Y-115100714D01*
X121654880Y-114767380D02*
X121702500Y-114815000D01*
X121654880Y-114862619D01*
X121607261Y-114815000D01*
X121654880Y-114767380D01*
X121654880Y-114862619D01*
X121321547Y-115100714D02*
X120940595Y-115100714D01*
X121178690Y-114767380D02*
X121178690Y-115624523D01*
X121131071Y-115719761D01*
X121035833Y-115767380D01*
X120940595Y-115767380D01*
X120178690Y-115767380D02*
X120178690Y-115243571D01*
X120226309Y-115148333D01*
X120321547Y-115100714D01*
X120512023Y-115100714D01*
X120607261Y-115148333D01*
X120178690Y-115719761D02*
X120273928Y-115767380D01*
X120512023Y-115767380D01*
X120607261Y-115719761D01*
X120654880Y-115624523D01*
X120654880Y-115529285D01*
X120607261Y-115434047D01*
X120512023Y-115386428D01*
X120273928Y-115386428D01*
X120178690Y-115338809D01*
X119702500Y-115767380D02*
X119702500Y-115100714D01*
X119702500Y-115291190D02*
X119654880Y-115195952D01*
X119607261Y-115148333D01*
X119512023Y-115100714D01*
X119416785Y-115100714D01*
X118321547Y-115767380D02*
X118321547Y-114767380D01*
X118083452Y-114767380D01*
X117940595Y-114815000D01*
X117845357Y-114910238D01*
X117797738Y-115005476D01*
X117750119Y-115195952D01*
X117750119Y-115338809D01*
X117797738Y-115529285D01*
X117845357Y-115624523D01*
X117940595Y-115719761D01*
X118083452Y-115767380D01*
X118321547Y-115767380D01*
X117416785Y-115100714D02*
X117178690Y-115767380D01*
X116940595Y-115100714D02*
X117178690Y-115767380D01*
X117273928Y-116005476D01*
X117321547Y-116053095D01*
X117416785Y-116100714D01*
X116131071Y-115767380D02*
X116131071Y-115243571D01*
X116178690Y-115148333D01*
X116273928Y-115100714D01*
X116464404Y-115100714D01*
X116559642Y-115148333D01*
X116131071Y-115719761D02*
X116226309Y-115767380D01*
X116464404Y-115767380D01*
X116559642Y-115719761D01*
X116607261Y-115624523D01*
X116607261Y-115529285D01*
X116559642Y-115434047D01*
X116464404Y-115386428D01*
X116226309Y-115386428D01*
X116131071Y-115338809D01*
X115654880Y-115767380D02*
X115654880Y-114767380D01*
X115559642Y-115386428D02*
X115273928Y-115767380D01*
X115273928Y-115100714D02*
X115654880Y-115481666D01*
X114702500Y-115767380D02*
X114797738Y-115719761D01*
X114845357Y-115672142D01*
X114892976Y-115576904D01*
X114892976Y-115291190D01*
X114845357Y-115195952D01*
X114797738Y-115148333D01*
X114702500Y-115100714D01*
X114559642Y-115100714D01*
X114464404Y-115148333D01*
X114416785Y-115195952D01*
X114369166Y-115291190D01*
X114369166Y-115576904D01*
X114416785Y-115672142D01*
X114464404Y-115719761D01*
X114559642Y-115767380D01*
X114702500Y-115767380D01*
X114035833Y-115100714D02*
X113797738Y-115767380D01*
X113559642Y-115100714D01*
X123892976Y-117417380D02*
X124226309Y-116941190D01*
X124464404Y-117417380D02*
X124464404Y-116417380D01*
X124083452Y-116417380D01*
X123988214Y-116465000D01*
X123940595Y-116512619D01*
X123892976Y-116607857D01*
X123892976Y-116750714D01*
X123940595Y-116845952D01*
X123988214Y-116893571D01*
X124083452Y-116941190D01*
X124464404Y-116941190D01*
X123559642Y-116750714D02*
X123321547Y-117417380D01*
X123083452Y-116750714D02*
X123321547Y-117417380D01*
X123416785Y-117655476D01*
X123464404Y-117703095D01*
X123559642Y-117750714D01*
X122273928Y-117417380D02*
X122273928Y-116893571D01*
X122321547Y-116798333D01*
X122416785Y-116750714D01*
X122607261Y-116750714D01*
X122702500Y-116798333D01*
X122273928Y-117369761D02*
X122369166Y-117417380D01*
X122607261Y-117417380D01*
X122702500Y-117369761D01*
X122750119Y-117274523D01*
X122750119Y-117179285D01*
X122702500Y-117084047D01*
X122607261Y-117036428D01*
X122369166Y-117036428D01*
X122273928Y-116988809D01*
X121797738Y-116750714D02*
X121797738Y-117417380D01*
X121797738Y-116845952D02*
X121750119Y-116798333D01*
X121654880Y-116750714D01*
X121512023Y-116750714D01*
X121416785Y-116798333D01*
X121369166Y-116893571D01*
X121369166Y-117417380D01*
X120178690Y-117369761D02*
X120035833Y-117417380D01*
X119797738Y-117417380D01*
X119702500Y-117369761D01*
X119654880Y-117322142D01*
X119607261Y-117226904D01*
X119607261Y-117131666D01*
X119654880Y-117036428D01*
X119702500Y-116988809D01*
X119797738Y-116941190D01*
X119988214Y-116893571D01*
X120083452Y-116845952D01*
X120131071Y-116798333D01*
X120178690Y-116703095D01*
X120178690Y-116607857D01*
X120131071Y-116512619D01*
X120083452Y-116465000D01*
X119988214Y-116417380D01*
X119750119Y-116417380D01*
X119607261Y-116465000D01*
X119178690Y-117417380D02*
X119178690Y-116417380D01*
X118750119Y-117417380D02*
X118750119Y-116893571D01*
X118797738Y-116798333D01*
X118892976Y-116750714D01*
X119035833Y-116750714D01*
X119131071Y-116798333D01*
X119178690Y-116845952D01*
X117845357Y-117417380D02*
X117845357Y-116893571D01*
X117892976Y-116798333D01*
X117988214Y-116750714D01*
X118178690Y-116750714D01*
X118273928Y-116798333D01*
X117845357Y-117369761D02*
X117940595Y-117417380D01*
X118178690Y-117417380D01*
X118273928Y-117369761D01*
X118321547Y-117274523D01*
X118321547Y-117179285D01*
X118273928Y-117084047D01*
X118178690Y-117036428D01*
X117940595Y-117036428D01*
X117845357Y-116988809D01*
X117464404Y-116750714D02*
X117273928Y-117417380D01*
X117083452Y-116941190D01*
X116892976Y-117417380D01*
X116702500Y-116750714D01*
X124464404Y-119067380D02*
X124464404Y-118067380D01*
X123892976Y-119067380D02*
X124321547Y-118495952D01*
X123892976Y-118067380D02*
X124464404Y-118638809D01*
D11*
X119940000Y-94070000D02*
X122740000Y-94070000D01*
X123390000Y-93370000D02*
X123390000Y-92770000D01*
X122740000Y-92070000D02*
X119940000Y-92070000D01*
X119290000Y-92770000D02*
X119290000Y-93370000D01*
X120140000Y-91870000D02*
X119840000Y-91570000D01*
X119840000Y-91570000D02*
X120440000Y-91570000D01*
X120140000Y-91870000D02*
X120440000Y-91570000D01*
X119290000Y-93370000D02*
G75*
G03*
X119990000Y-94070000I700000J0D01*
G01*
X119990000Y-92070000D02*
G75*
G03*
X119290000Y-92770000I0J-700000D01*
G01*
X123390000Y-92770000D02*
G75*
G03*
X122690000Y-92070000I-700000J0D01*
G01*
X122690000Y-94070000D02*
G75*
G03*
X123390000Y-93370000I0J700000D01*
G01*
X124856000Y-94070000D02*
X127656000Y-94070000D01*
X128306000Y-93370000D02*
X128306000Y-92770000D01*
X127656000Y-92070000D02*
X124856000Y-92070000D01*
X124206000Y-92770000D02*
X124206000Y-93370000D01*
X125056000Y-91870000D02*
X124756000Y-91570000D01*
X124756000Y-91570000D02*
X125356000Y-91570000D01*
X125056000Y-91870000D02*
X125356000Y-91570000D01*
X124206000Y-93370000D02*
G75*
G03*
X124906000Y-94070000I700000J0D01*
G01*
X124906000Y-92070000D02*
G75*
G03*
X124206000Y-92770000I0J-700000D01*
G01*
X128306000Y-92770000D02*
G75*
G03*
X127606000Y-92070000I-700000J0D01*
G01*
X127606000Y-94070000D02*
G75*
G03*
X128306000Y-93370000I0J700000D01*
G01*
%LPC*%
D12*
X139192000Y-89408000D03*
X139192000Y-86868000D03*
X136652000Y-89408000D03*
X136652000Y-86868000D03*
X134112000Y-89408000D03*
X134112000Y-86868000D03*
X131572000Y-89408000D03*
X131572000Y-86868000D03*
X129032000Y-89408000D03*
D13*
X129032000Y-86868000D03*
D12*
X179460000Y-96370000D03*
X179460000Y-93830000D03*
X179460000Y-91290000D03*
D13*
X179460000Y-88750000D03*
D14*
X121340000Y-93070000D03*
D15*
G36*
X122640000Y-92320602D02*
G01*
X122664534Y-92320602D01*
X122713365Y-92325412D01*
X122761490Y-92334984D01*
X122808445Y-92349228D01*
X122853778Y-92368005D01*
X122897051Y-92391136D01*
X122937850Y-92418396D01*
X122975779Y-92449524D01*
X123010476Y-92484221D01*
X123041604Y-92522150D01*
X123068864Y-92562949D01*
X123091995Y-92606222D01*
X123110772Y-92651555D01*
X123125016Y-92698510D01*
X123134588Y-92746635D01*
X123139398Y-92795466D01*
X123139398Y-92820000D01*
X123140000Y-92820000D01*
X123140000Y-93320000D01*
X123139398Y-93320000D01*
X123139398Y-93344534D01*
X123134588Y-93393365D01*
X123125016Y-93441490D01*
X123110772Y-93488445D01*
X123091995Y-93533778D01*
X123068864Y-93577051D01*
X123041604Y-93617850D01*
X123010476Y-93655779D01*
X122975779Y-93690476D01*
X122937850Y-93721604D01*
X122897051Y-93748864D01*
X122853778Y-93771995D01*
X122808445Y-93790772D01*
X122761490Y-93805016D01*
X122713365Y-93814588D01*
X122664534Y-93819398D01*
X122640000Y-93819398D01*
X122640000Y-93820000D01*
X122090000Y-93820000D01*
X122090000Y-92320000D01*
X122640000Y-92320000D01*
X122640000Y-92320602D01*
G37*
G36*
X120590000Y-93820000D02*
G01*
X120040000Y-93820000D01*
X120040000Y-93819398D01*
X120015466Y-93819398D01*
X119966635Y-93814588D01*
X119918510Y-93805016D01*
X119871555Y-93790772D01*
X119826222Y-93771995D01*
X119782949Y-93748864D01*
X119742150Y-93721604D01*
X119704221Y-93690476D01*
X119669524Y-93655779D01*
X119638396Y-93617850D01*
X119611136Y-93577051D01*
X119588005Y-93533778D01*
X119569228Y-93488445D01*
X119554984Y-93441490D01*
X119545412Y-93393365D01*
X119540602Y-93344534D01*
X119540602Y-93320000D01*
X119540000Y-93320000D01*
X119540000Y-92820000D01*
X119540602Y-92820000D01*
X119540602Y-92795466D01*
X119545412Y-92746635D01*
X119554984Y-92698510D01*
X119569228Y-92651555D01*
X119588005Y-92606222D01*
X119611136Y-92562949D01*
X119638396Y-92522150D01*
X119669524Y-92484221D01*
X119704221Y-92449524D01*
X119742150Y-92418396D01*
X119782949Y-92391136D01*
X119826222Y-92368005D01*
X119871555Y-92349228D01*
X119918510Y-92334984D01*
X119966635Y-92325412D01*
X120015466Y-92320602D01*
X120040000Y-92320602D01*
X120040000Y-92320000D01*
X120590000Y-92320000D01*
X120590000Y-93820000D01*
G37*
D14*
X126256000Y-93070000D03*
D15*
G36*
X127556000Y-92320602D02*
G01*
X127580534Y-92320602D01*
X127629365Y-92325412D01*
X127677490Y-92334984D01*
X127724445Y-92349228D01*
X127769778Y-92368005D01*
X127813051Y-92391136D01*
X127853850Y-92418396D01*
X127891779Y-92449524D01*
X127926476Y-92484221D01*
X127957604Y-92522150D01*
X127984864Y-92562949D01*
X128007995Y-92606222D01*
X128026772Y-92651555D01*
X128041016Y-92698510D01*
X128050588Y-92746635D01*
X128055398Y-92795466D01*
X128055398Y-92820000D01*
X128056000Y-92820000D01*
X128056000Y-93320000D01*
X128055398Y-93320000D01*
X128055398Y-93344534D01*
X128050588Y-93393365D01*
X128041016Y-93441490D01*
X128026772Y-93488445D01*
X128007995Y-93533778D01*
X127984864Y-93577051D01*
X127957604Y-93617850D01*
X127926476Y-93655779D01*
X127891779Y-93690476D01*
X127853850Y-93721604D01*
X127813051Y-93748864D01*
X127769778Y-93771995D01*
X127724445Y-93790772D01*
X127677490Y-93805016D01*
X127629365Y-93814588D01*
X127580534Y-93819398D01*
X127556000Y-93819398D01*
X127556000Y-93820000D01*
X127006000Y-93820000D01*
X127006000Y-92320000D01*
X127556000Y-92320000D01*
X127556000Y-92320602D01*
G37*
G36*
X125506000Y-93820000D02*
G01*
X124956000Y-93820000D01*
X124956000Y-93819398D01*
X124931466Y-93819398D01*
X124882635Y-93814588D01*
X124834510Y-93805016D01*
X124787555Y-93790772D01*
X124742222Y-93771995D01*
X124698949Y-93748864D01*
X124658150Y-93721604D01*
X124620221Y-93690476D01*
X124585524Y-93655779D01*
X124554396Y-93617850D01*
X124527136Y-93577051D01*
X124504005Y-93533778D01*
X124485228Y-93488445D01*
X124470984Y-93441490D01*
X124461412Y-93393365D01*
X124456602Y-93344534D01*
X124456602Y-93320000D01*
X124456000Y-93320000D01*
X124456000Y-92820000D01*
X124456602Y-92820000D01*
X124456602Y-92795466D01*
X124461412Y-92746635D01*
X124470984Y-92698510D01*
X124485228Y-92651555D01*
X124504005Y-92606222D01*
X124527136Y-92562949D01*
X124554396Y-92522150D01*
X124585524Y-92484221D01*
X124620221Y-92449524D01*
X124658150Y-92418396D01*
X124698949Y-92391136D01*
X124742222Y-92368005D01*
X124787555Y-92349228D01*
X124834510Y-92334984D01*
X124882635Y-92325412D01*
X124931466Y-92320602D01*
X124956000Y-92320602D01*
X124956000Y-92320000D01*
X125506000Y-92320000D01*
X125506000Y-93820000D01*
G37*
D13*
X183720000Y-86950000D03*
D12*
X186260000Y-86950000D03*
X188800000Y-86950000D03*
X191340000Y-86950000D03*
D16*
X152528000Y-85564000D03*
D17*
X153958000Y-89214000D03*
D16*
X161168000Y-85564000D03*
D17*
X159738000Y-89214000D03*
D18*
X161168000Y-89744000D03*
X152528000Y-89744000D03*
M02*
