G04 #@! TF.GenerationSoftware,KiCad,Pcbnew,(5.1.12)-1*
G04 #@! TF.CreationDate,2024-01-22T15:17:36+02:00*
G04 #@! TF.ProjectId,CaliperPCB,43616c69-7065-4725-9043-422e6b696361,rev?*
G04 #@! TF.SameCoordinates,Original*
G04 #@! TF.FileFunction,Paste,Top*
G04 #@! TF.FilePolarity,Positive*
%FSLAX46Y46*%
G04 Gerber Fmt 4.6, Leading zero omitted, Abs format (unit mm)*
G04 Created by KiCad (PCBNEW (5.1.12)-1) date 2024-01-22 15:17:36*
%MOMM*%
%LPD*%
G01*
G04 APERTURE LIST*
G04 #@! TA.AperFunction,Profile*
%ADD10C,0.050000*%
G04 #@! TD*
%ADD11R,1.400000X2.100000*%
%ADD12R,1.900000X1.300000*%
%ADD13R,2.000000X2.400000*%
%ADD14R,0.300000X1.450000*%
%ADD15R,0.600000X1.450000*%
%ADD16R,1.060000X0.650000*%
%ADD17R,2.000000X3.800000*%
%ADD18R,2.000000X1.500000*%
G04 APERTURE END LIST*
D10*
X118170000Y-87000000D02*
G75*
G03*
X118170000Y-87000000I-1500000J0D01*
G01*
X198500000Y-87000000D02*
G75*
G03*
X198500000Y-87000000I-1500000J0D01*
G01*
X200000000Y-121356000D02*
X200000000Y-84000000D01*
X113670000Y-84000000D02*
X200000000Y-84000000D01*
X113670000Y-121356000D02*
X113670000Y-84000000D01*
X200000000Y-121356000D02*
X113670000Y-121356000D01*
D11*
X197818333Y-91027000D03*
X197818333Y-100127000D03*
X193318333Y-100127000D03*
X193318333Y-91027000D03*
X190034334Y-91027000D03*
X190034334Y-100127000D03*
X185534334Y-100127000D03*
X185534334Y-91027000D03*
G36*
G01*
X129312500Y-87875000D02*
X129312500Y-88425000D01*
G75*
G02*
X129112500Y-88625000I-200000J0D01*
G01*
X128712500Y-88625000D01*
G75*
G02*
X128512500Y-88425000I0J200000D01*
G01*
X128512500Y-87875000D01*
G75*
G02*
X128712500Y-87675000I200000J0D01*
G01*
X129112500Y-87675000D01*
G75*
G02*
X129312500Y-87875000I0J-200000D01*
G01*
G37*
G36*
G01*
X127662500Y-87875000D02*
X127662500Y-88425000D01*
G75*
G02*
X127462500Y-88625000I-200000J0D01*
G01*
X127062500Y-88625000D01*
G75*
G02*
X126862500Y-88425000I0J200000D01*
G01*
X126862500Y-87875000D01*
G75*
G02*
X127062500Y-87675000I200000J0D01*
G01*
X127462500Y-87675000D01*
G75*
G02*
X127662500Y-87875000I0J-200000D01*
G01*
G37*
G36*
G01*
X126882500Y-86806250D02*
X126882500Y-86293750D01*
G75*
G02*
X127101250Y-86075000I218750J0D01*
G01*
X127538750Y-86075000D01*
G75*
G02*
X127757500Y-86293750I0J-218750D01*
G01*
X127757500Y-86806250D01*
G75*
G02*
X127538750Y-87025000I-218750J0D01*
G01*
X127101250Y-87025000D01*
G75*
G02*
X126882500Y-86806250I0J218750D01*
G01*
G37*
G36*
G01*
X128457500Y-86806250D02*
X128457500Y-86293750D01*
G75*
G02*
X128676250Y-86075000I218750J0D01*
G01*
X129113750Y-86075000D01*
G75*
G02*
X129332500Y-86293750I0J-218750D01*
G01*
X129332500Y-86806250D01*
G75*
G02*
X129113750Y-87025000I-218750J0D01*
G01*
X128676250Y-87025000D01*
G75*
G02*
X128457500Y-86806250I0J218750D01*
G01*
G37*
G36*
G01*
X172299000Y-99685500D02*
X171749000Y-99685500D01*
G75*
G02*
X171549000Y-99485500I0J200000D01*
G01*
X171549000Y-99085500D01*
G75*
G02*
X171749000Y-98885500I200000J0D01*
G01*
X172299000Y-98885500D01*
G75*
G02*
X172499000Y-99085500I0J-200000D01*
G01*
X172499000Y-99485500D01*
G75*
G02*
X172299000Y-99685500I-200000J0D01*
G01*
G37*
G36*
G01*
X172299000Y-98035500D02*
X171749000Y-98035500D01*
G75*
G02*
X171549000Y-97835500I0J200000D01*
G01*
X171549000Y-97435500D01*
G75*
G02*
X171749000Y-97235500I200000J0D01*
G01*
X172299000Y-97235500D01*
G75*
G02*
X172499000Y-97435500I0J-200000D01*
G01*
X172499000Y-97835500D01*
G75*
G02*
X172299000Y-98035500I-200000J0D01*
G01*
G37*
G36*
G01*
X174052000Y-99685500D02*
X173552000Y-99685500D01*
G75*
G02*
X173327000Y-99460500I0J225000D01*
G01*
X173327000Y-99010500D01*
G75*
G02*
X173552000Y-98785500I225000J0D01*
G01*
X174052000Y-98785500D01*
G75*
G02*
X174277000Y-99010500I0J-225000D01*
G01*
X174277000Y-99460500D01*
G75*
G02*
X174052000Y-99685500I-225000J0D01*
G01*
G37*
G36*
G01*
X174052000Y-98135500D02*
X173552000Y-98135500D01*
G75*
G02*
X173327000Y-97910500I0J225000D01*
G01*
X173327000Y-97460500D01*
G75*
G02*
X173552000Y-97235500I225000J0D01*
G01*
X174052000Y-97235500D01*
G75*
G02*
X174277000Y-97460500I0J-225000D01*
G01*
X174277000Y-97910500D01*
G75*
G02*
X174052000Y-98135500I-225000J0D01*
G01*
G37*
G36*
G01*
X136835000Y-93705000D02*
X136285000Y-93705000D01*
G75*
G02*
X136085000Y-93505000I0J200000D01*
G01*
X136085000Y-93105000D01*
G75*
G02*
X136285000Y-92905000I200000J0D01*
G01*
X136835000Y-92905000D01*
G75*
G02*
X137035000Y-93105000I0J-200000D01*
G01*
X137035000Y-93505000D01*
G75*
G02*
X136835000Y-93705000I-200000J0D01*
G01*
G37*
G36*
G01*
X136835000Y-92055000D02*
X136285000Y-92055000D01*
G75*
G02*
X136085000Y-91855000I0J200000D01*
G01*
X136085000Y-91455000D01*
G75*
G02*
X136285000Y-91255000I200000J0D01*
G01*
X136835000Y-91255000D01*
G75*
G02*
X137035000Y-91455000I0J-200000D01*
G01*
X137035000Y-91855000D01*
G75*
G02*
X136835000Y-92055000I-200000J0D01*
G01*
G37*
G36*
G01*
X133150000Y-91225000D02*
X133650000Y-91225000D01*
G75*
G02*
X133875000Y-91450000I0J-225000D01*
G01*
X133875000Y-91900000D01*
G75*
G02*
X133650000Y-92125000I-225000J0D01*
G01*
X133150000Y-92125000D01*
G75*
G02*
X132925000Y-91900000I0J225000D01*
G01*
X132925000Y-91450000D01*
G75*
G02*
X133150000Y-91225000I225000J0D01*
G01*
G37*
G36*
G01*
X133150000Y-92775000D02*
X133650000Y-92775000D01*
G75*
G02*
X133875000Y-93000000I0J-225000D01*
G01*
X133875000Y-93450000D01*
G75*
G02*
X133650000Y-93675000I-225000J0D01*
G01*
X133150000Y-93675000D01*
G75*
G02*
X132925000Y-93450000I0J225000D01*
G01*
X132925000Y-93000000D01*
G75*
G02*
X133150000Y-92775000I225000J0D01*
G01*
G37*
G36*
G01*
X183455000Y-92050000D02*
X182905000Y-92050000D01*
G75*
G02*
X182705000Y-91850000I0J200000D01*
G01*
X182705000Y-91450000D01*
G75*
G02*
X182905000Y-91250000I200000J0D01*
G01*
X183455000Y-91250000D01*
G75*
G02*
X183655000Y-91450000I0J-200000D01*
G01*
X183655000Y-91850000D01*
G75*
G02*
X183455000Y-92050000I-200000J0D01*
G01*
G37*
G36*
G01*
X183455000Y-90400000D02*
X182905000Y-90400000D01*
G75*
G02*
X182705000Y-90200000I0J200000D01*
G01*
X182705000Y-89800000D01*
G75*
G02*
X182905000Y-89600000I200000J0D01*
G01*
X183455000Y-89600000D01*
G75*
G02*
X183655000Y-89800000I0J-200000D01*
G01*
X183655000Y-90200000D01*
G75*
G02*
X183455000Y-90400000I-200000J0D01*
G01*
G37*
G36*
G01*
X182905000Y-92660500D02*
X183455000Y-92660500D01*
G75*
G02*
X183655000Y-92860500I0J-200000D01*
G01*
X183655000Y-93260500D01*
G75*
G02*
X183455000Y-93460500I-200000J0D01*
G01*
X182905000Y-93460500D01*
G75*
G02*
X182705000Y-93260500I0J200000D01*
G01*
X182705000Y-92860500D01*
G75*
G02*
X182905000Y-92660500I200000J0D01*
G01*
G37*
G36*
G01*
X182905000Y-94310500D02*
X183455000Y-94310500D01*
G75*
G02*
X183655000Y-94510500I0J-200000D01*
G01*
X183655000Y-94910500D01*
G75*
G02*
X183455000Y-95110500I-200000J0D01*
G01*
X182905000Y-95110500D01*
G75*
G02*
X182705000Y-94910500I0J200000D01*
G01*
X182705000Y-94510500D01*
G75*
G02*
X182905000Y-94310500I200000J0D01*
G01*
G37*
D12*
X128050000Y-95790000D03*
X128050000Y-90290000D03*
X124850000Y-90290000D03*
X124850000Y-95790000D03*
D13*
X122010000Y-102190000D03*
X125710000Y-102190000D03*
D14*
X157098000Y-91755000D03*
X155098000Y-91755000D03*
X155598000Y-91755000D03*
X156098000Y-91755000D03*
X156598000Y-91755000D03*
X157598000Y-91755000D03*
X158098000Y-91755000D03*
X158598000Y-91755000D03*
D15*
X153598000Y-91755000D03*
X154398000Y-91755000D03*
X159298000Y-91755000D03*
X160098000Y-91755000D03*
X160098000Y-91755000D03*
X159298000Y-91755000D03*
X154398000Y-91755000D03*
X153598000Y-91755000D03*
G36*
G01*
X140998750Y-91930000D02*
X140998750Y-91380000D01*
G75*
G02*
X141198750Y-91180000I200000J0D01*
G01*
X141598750Y-91180000D01*
G75*
G02*
X141798750Y-91380000I0J-200000D01*
G01*
X141798750Y-91930000D01*
G75*
G02*
X141598750Y-92130000I-200000J0D01*
G01*
X141198750Y-92130000D01*
G75*
G02*
X140998750Y-91930000I0J200000D01*
G01*
G37*
G36*
G01*
X142648750Y-91930000D02*
X142648750Y-91380000D01*
G75*
G02*
X142848750Y-91180000I200000J0D01*
G01*
X143248750Y-91180000D01*
G75*
G02*
X143448750Y-91380000I0J-200000D01*
G01*
X143448750Y-91930000D01*
G75*
G02*
X143248750Y-92130000I-200000J0D01*
G01*
X142848750Y-92130000D01*
G75*
G02*
X142648750Y-91930000I0J200000D01*
G01*
G37*
G36*
G01*
X131360000Y-93240000D02*
X131860000Y-93240000D01*
G75*
G02*
X132085000Y-93465000I0J-225000D01*
G01*
X132085000Y-93915000D01*
G75*
G02*
X131860000Y-94140000I-225000J0D01*
G01*
X131360000Y-94140000D01*
G75*
G02*
X131135000Y-93915000I0J225000D01*
G01*
X131135000Y-93465000D01*
G75*
G02*
X131360000Y-93240000I225000J0D01*
G01*
G37*
G36*
G01*
X131360000Y-94790000D02*
X131860000Y-94790000D01*
G75*
G02*
X132085000Y-95015000I0J-225000D01*
G01*
X132085000Y-95465000D01*
G75*
G02*
X131860000Y-95690000I-225000J0D01*
G01*
X131360000Y-95690000D01*
G75*
G02*
X131135000Y-95465000I0J225000D01*
G01*
X131135000Y-95015000D01*
G75*
G02*
X131360000Y-94790000I225000J0D01*
G01*
G37*
G36*
G01*
X128195000Y-100360000D02*
X128195000Y-99860000D01*
G75*
G02*
X128420000Y-99635000I225000J0D01*
G01*
X128870000Y-99635000D01*
G75*
G02*
X129095000Y-99860000I0J-225000D01*
G01*
X129095000Y-100360000D01*
G75*
G02*
X128870000Y-100585000I-225000J0D01*
G01*
X128420000Y-100585000D01*
G75*
G02*
X128195000Y-100360000I0J225000D01*
G01*
G37*
G36*
G01*
X129745000Y-100360000D02*
X129745000Y-99860000D01*
G75*
G02*
X129970000Y-99635000I225000J0D01*
G01*
X130420000Y-99635000D01*
G75*
G02*
X130645000Y-99860000I0J-225000D01*
G01*
X130645000Y-100360000D01*
G75*
G02*
X130420000Y-100585000I-225000J0D01*
G01*
X129970000Y-100585000D01*
G75*
G02*
X129745000Y-100360000I0J225000D01*
G01*
G37*
G36*
G01*
X123716570Y-110466000D02*
X124216570Y-110466000D01*
G75*
G02*
X124441570Y-110691000I0J-225000D01*
G01*
X124441570Y-111141000D01*
G75*
G02*
X124216570Y-111366000I-225000J0D01*
G01*
X123716570Y-111366000D01*
G75*
G02*
X123491570Y-111141000I0J225000D01*
G01*
X123491570Y-110691000D01*
G75*
G02*
X123716570Y-110466000I225000J0D01*
G01*
G37*
G36*
G01*
X123716570Y-112016000D02*
X124216570Y-112016000D01*
G75*
G02*
X124441570Y-112241000I0J-225000D01*
G01*
X124441570Y-112691000D01*
G75*
G02*
X124216570Y-112916000I-225000J0D01*
G01*
X123716570Y-112916000D01*
G75*
G02*
X123491570Y-112691000I0J225000D01*
G01*
X123491570Y-112241000D01*
G75*
G02*
X123716570Y-112016000I225000J0D01*
G01*
G37*
G36*
G01*
X144190000Y-91930000D02*
X144190000Y-91380000D01*
G75*
G02*
X144390000Y-91180000I200000J0D01*
G01*
X144790000Y-91180000D01*
G75*
G02*
X144990000Y-91380000I0J-200000D01*
G01*
X144990000Y-91930000D01*
G75*
G02*
X144790000Y-92130000I-200000J0D01*
G01*
X144390000Y-92130000D01*
G75*
G02*
X144190000Y-91930000I0J200000D01*
G01*
G37*
G36*
G01*
X145840000Y-91930000D02*
X145840000Y-91380000D01*
G75*
G02*
X146040000Y-91180000I200000J0D01*
G01*
X146440000Y-91180000D01*
G75*
G02*
X146640000Y-91380000I0J-200000D01*
G01*
X146640000Y-91930000D01*
G75*
G02*
X146440000Y-92130000I-200000J0D01*
G01*
X146040000Y-92130000D01*
G75*
G02*
X145840000Y-91930000I0J200000D01*
G01*
G37*
D16*
X127926000Y-114195000D03*
X127926000Y-115145000D03*
X127926000Y-116095000D03*
X130126000Y-116095000D03*
X130126000Y-114195000D03*
X124051238Y-114195000D03*
X124051238Y-115145000D03*
X124051238Y-116095000D03*
X126251238Y-116095000D03*
X126251238Y-114195000D03*
X120176476Y-114195000D03*
X120176476Y-115145000D03*
X120176476Y-116095000D03*
X122376476Y-116095000D03*
X122376476Y-114195000D03*
X116301714Y-114195000D03*
X116301714Y-115145000D03*
X116301714Y-116095000D03*
X118501714Y-116095000D03*
X118501714Y-114195000D03*
G36*
G01*
X131250000Y-96475000D02*
X131250000Y-96325000D01*
G75*
G02*
X131325000Y-96250000I75000J0D01*
G01*
X132650000Y-96250000D01*
G75*
G02*
X132725000Y-96325000I0J-75000D01*
G01*
X132725000Y-96475000D01*
G75*
G02*
X132650000Y-96550000I-75000J0D01*
G01*
X131325000Y-96550000D01*
G75*
G02*
X131250000Y-96475000I0J75000D01*
G01*
G37*
G36*
G01*
X131250000Y-96975000D02*
X131250000Y-96825000D01*
G75*
G02*
X131325000Y-96750000I75000J0D01*
G01*
X132650000Y-96750000D01*
G75*
G02*
X132725000Y-96825000I0J-75000D01*
G01*
X132725000Y-96975000D01*
G75*
G02*
X132650000Y-97050000I-75000J0D01*
G01*
X131325000Y-97050000D01*
G75*
G02*
X131250000Y-96975000I0J75000D01*
G01*
G37*
G36*
G01*
X131250000Y-97475000D02*
X131250000Y-97325000D01*
G75*
G02*
X131325000Y-97250000I75000J0D01*
G01*
X132650000Y-97250000D01*
G75*
G02*
X132725000Y-97325000I0J-75000D01*
G01*
X132725000Y-97475000D01*
G75*
G02*
X132650000Y-97550000I-75000J0D01*
G01*
X131325000Y-97550000D01*
G75*
G02*
X131250000Y-97475000I0J75000D01*
G01*
G37*
G36*
G01*
X131250000Y-97975000D02*
X131250000Y-97825000D01*
G75*
G02*
X131325000Y-97750000I75000J0D01*
G01*
X132650000Y-97750000D01*
G75*
G02*
X132725000Y-97825000I0J-75000D01*
G01*
X132725000Y-97975000D01*
G75*
G02*
X132650000Y-98050000I-75000J0D01*
G01*
X131325000Y-98050000D01*
G75*
G02*
X131250000Y-97975000I0J75000D01*
G01*
G37*
G36*
G01*
X131250000Y-98475000D02*
X131250000Y-98325000D01*
G75*
G02*
X131325000Y-98250000I75000J0D01*
G01*
X132650000Y-98250000D01*
G75*
G02*
X132725000Y-98325000I0J-75000D01*
G01*
X132725000Y-98475000D01*
G75*
G02*
X132650000Y-98550000I-75000J0D01*
G01*
X131325000Y-98550000D01*
G75*
G02*
X131250000Y-98475000I0J75000D01*
G01*
G37*
G36*
G01*
X131250000Y-98975000D02*
X131250000Y-98825000D01*
G75*
G02*
X131325000Y-98750000I75000J0D01*
G01*
X132650000Y-98750000D01*
G75*
G02*
X132725000Y-98825000I0J-75000D01*
G01*
X132725000Y-98975000D01*
G75*
G02*
X132650000Y-99050000I-75000J0D01*
G01*
X131325000Y-99050000D01*
G75*
G02*
X131250000Y-98975000I0J75000D01*
G01*
G37*
G36*
G01*
X131250000Y-99475000D02*
X131250000Y-99325000D01*
G75*
G02*
X131325000Y-99250000I75000J0D01*
G01*
X132650000Y-99250000D01*
G75*
G02*
X132725000Y-99325000I0J-75000D01*
G01*
X132725000Y-99475000D01*
G75*
G02*
X132650000Y-99550000I-75000J0D01*
G01*
X131325000Y-99550000D01*
G75*
G02*
X131250000Y-99475000I0J75000D01*
G01*
G37*
G36*
G01*
X131250000Y-99975000D02*
X131250000Y-99825000D01*
G75*
G02*
X131325000Y-99750000I75000J0D01*
G01*
X132650000Y-99750000D01*
G75*
G02*
X132725000Y-99825000I0J-75000D01*
G01*
X132725000Y-99975000D01*
G75*
G02*
X132650000Y-100050000I-75000J0D01*
G01*
X131325000Y-100050000D01*
G75*
G02*
X131250000Y-99975000I0J75000D01*
G01*
G37*
G36*
G01*
X131250000Y-100475000D02*
X131250000Y-100325000D01*
G75*
G02*
X131325000Y-100250000I75000J0D01*
G01*
X132650000Y-100250000D01*
G75*
G02*
X132725000Y-100325000I0J-75000D01*
G01*
X132725000Y-100475000D01*
G75*
G02*
X132650000Y-100550000I-75000J0D01*
G01*
X131325000Y-100550000D01*
G75*
G02*
X131250000Y-100475000I0J75000D01*
G01*
G37*
G36*
G01*
X131250000Y-100975000D02*
X131250000Y-100825000D01*
G75*
G02*
X131325000Y-100750000I75000J0D01*
G01*
X132650000Y-100750000D01*
G75*
G02*
X132725000Y-100825000I0J-75000D01*
G01*
X132725000Y-100975000D01*
G75*
G02*
X132650000Y-101050000I-75000J0D01*
G01*
X131325000Y-101050000D01*
G75*
G02*
X131250000Y-100975000I0J75000D01*
G01*
G37*
G36*
G01*
X131250000Y-101475000D02*
X131250000Y-101325000D01*
G75*
G02*
X131325000Y-101250000I75000J0D01*
G01*
X132650000Y-101250000D01*
G75*
G02*
X132725000Y-101325000I0J-75000D01*
G01*
X132725000Y-101475000D01*
G75*
G02*
X132650000Y-101550000I-75000J0D01*
G01*
X131325000Y-101550000D01*
G75*
G02*
X131250000Y-101475000I0J75000D01*
G01*
G37*
G36*
G01*
X131250000Y-101975000D02*
X131250000Y-101825000D01*
G75*
G02*
X131325000Y-101750000I75000J0D01*
G01*
X132650000Y-101750000D01*
G75*
G02*
X132725000Y-101825000I0J-75000D01*
G01*
X132725000Y-101975000D01*
G75*
G02*
X132650000Y-102050000I-75000J0D01*
G01*
X131325000Y-102050000D01*
G75*
G02*
X131250000Y-101975000I0J75000D01*
G01*
G37*
G36*
G01*
X133250000Y-103975000D02*
X133250000Y-102650000D01*
G75*
G02*
X133325000Y-102575000I75000J0D01*
G01*
X133475000Y-102575000D01*
G75*
G02*
X133550000Y-102650000I0J-75000D01*
G01*
X133550000Y-103975000D01*
G75*
G02*
X133475000Y-104050000I-75000J0D01*
G01*
X133325000Y-104050000D01*
G75*
G02*
X133250000Y-103975000I0J75000D01*
G01*
G37*
G36*
G01*
X133750000Y-103975000D02*
X133750000Y-102650000D01*
G75*
G02*
X133825000Y-102575000I75000J0D01*
G01*
X133975000Y-102575000D01*
G75*
G02*
X134050000Y-102650000I0J-75000D01*
G01*
X134050000Y-103975000D01*
G75*
G02*
X133975000Y-104050000I-75000J0D01*
G01*
X133825000Y-104050000D01*
G75*
G02*
X133750000Y-103975000I0J75000D01*
G01*
G37*
G36*
G01*
X134250000Y-103975000D02*
X134250000Y-102650000D01*
G75*
G02*
X134325000Y-102575000I75000J0D01*
G01*
X134475000Y-102575000D01*
G75*
G02*
X134550000Y-102650000I0J-75000D01*
G01*
X134550000Y-103975000D01*
G75*
G02*
X134475000Y-104050000I-75000J0D01*
G01*
X134325000Y-104050000D01*
G75*
G02*
X134250000Y-103975000I0J75000D01*
G01*
G37*
G36*
G01*
X134750000Y-103975000D02*
X134750000Y-102650000D01*
G75*
G02*
X134825000Y-102575000I75000J0D01*
G01*
X134975000Y-102575000D01*
G75*
G02*
X135050000Y-102650000I0J-75000D01*
G01*
X135050000Y-103975000D01*
G75*
G02*
X134975000Y-104050000I-75000J0D01*
G01*
X134825000Y-104050000D01*
G75*
G02*
X134750000Y-103975000I0J75000D01*
G01*
G37*
G36*
G01*
X135250000Y-103975000D02*
X135250000Y-102650000D01*
G75*
G02*
X135325000Y-102575000I75000J0D01*
G01*
X135475000Y-102575000D01*
G75*
G02*
X135550000Y-102650000I0J-75000D01*
G01*
X135550000Y-103975000D01*
G75*
G02*
X135475000Y-104050000I-75000J0D01*
G01*
X135325000Y-104050000D01*
G75*
G02*
X135250000Y-103975000I0J75000D01*
G01*
G37*
G36*
G01*
X135750000Y-103975000D02*
X135750000Y-102650000D01*
G75*
G02*
X135825000Y-102575000I75000J0D01*
G01*
X135975000Y-102575000D01*
G75*
G02*
X136050000Y-102650000I0J-75000D01*
G01*
X136050000Y-103975000D01*
G75*
G02*
X135975000Y-104050000I-75000J0D01*
G01*
X135825000Y-104050000D01*
G75*
G02*
X135750000Y-103975000I0J75000D01*
G01*
G37*
G36*
G01*
X136250000Y-103975000D02*
X136250000Y-102650000D01*
G75*
G02*
X136325000Y-102575000I75000J0D01*
G01*
X136475000Y-102575000D01*
G75*
G02*
X136550000Y-102650000I0J-75000D01*
G01*
X136550000Y-103975000D01*
G75*
G02*
X136475000Y-104050000I-75000J0D01*
G01*
X136325000Y-104050000D01*
G75*
G02*
X136250000Y-103975000I0J75000D01*
G01*
G37*
G36*
G01*
X136750000Y-103975000D02*
X136750000Y-102650000D01*
G75*
G02*
X136825000Y-102575000I75000J0D01*
G01*
X136975000Y-102575000D01*
G75*
G02*
X137050000Y-102650000I0J-75000D01*
G01*
X137050000Y-103975000D01*
G75*
G02*
X136975000Y-104050000I-75000J0D01*
G01*
X136825000Y-104050000D01*
G75*
G02*
X136750000Y-103975000I0J75000D01*
G01*
G37*
G36*
G01*
X137250000Y-103975000D02*
X137250000Y-102650000D01*
G75*
G02*
X137325000Y-102575000I75000J0D01*
G01*
X137475000Y-102575000D01*
G75*
G02*
X137550000Y-102650000I0J-75000D01*
G01*
X137550000Y-103975000D01*
G75*
G02*
X137475000Y-104050000I-75000J0D01*
G01*
X137325000Y-104050000D01*
G75*
G02*
X137250000Y-103975000I0J75000D01*
G01*
G37*
G36*
G01*
X137750000Y-103975000D02*
X137750000Y-102650000D01*
G75*
G02*
X137825000Y-102575000I75000J0D01*
G01*
X137975000Y-102575000D01*
G75*
G02*
X138050000Y-102650000I0J-75000D01*
G01*
X138050000Y-103975000D01*
G75*
G02*
X137975000Y-104050000I-75000J0D01*
G01*
X137825000Y-104050000D01*
G75*
G02*
X137750000Y-103975000I0J75000D01*
G01*
G37*
G36*
G01*
X138250000Y-103975000D02*
X138250000Y-102650000D01*
G75*
G02*
X138325000Y-102575000I75000J0D01*
G01*
X138475000Y-102575000D01*
G75*
G02*
X138550000Y-102650000I0J-75000D01*
G01*
X138550000Y-103975000D01*
G75*
G02*
X138475000Y-104050000I-75000J0D01*
G01*
X138325000Y-104050000D01*
G75*
G02*
X138250000Y-103975000I0J75000D01*
G01*
G37*
G36*
G01*
X138750000Y-103975000D02*
X138750000Y-102650000D01*
G75*
G02*
X138825000Y-102575000I75000J0D01*
G01*
X138975000Y-102575000D01*
G75*
G02*
X139050000Y-102650000I0J-75000D01*
G01*
X139050000Y-103975000D01*
G75*
G02*
X138975000Y-104050000I-75000J0D01*
G01*
X138825000Y-104050000D01*
G75*
G02*
X138750000Y-103975000I0J75000D01*
G01*
G37*
G36*
G01*
X139575000Y-101975000D02*
X139575000Y-101825000D01*
G75*
G02*
X139650000Y-101750000I75000J0D01*
G01*
X140975000Y-101750000D01*
G75*
G02*
X141050000Y-101825000I0J-75000D01*
G01*
X141050000Y-101975000D01*
G75*
G02*
X140975000Y-102050000I-75000J0D01*
G01*
X139650000Y-102050000D01*
G75*
G02*
X139575000Y-101975000I0J75000D01*
G01*
G37*
G36*
G01*
X139575000Y-101475000D02*
X139575000Y-101325000D01*
G75*
G02*
X139650000Y-101250000I75000J0D01*
G01*
X140975000Y-101250000D01*
G75*
G02*
X141050000Y-101325000I0J-75000D01*
G01*
X141050000Y-101475000D01*
G75*
G02*
X140975000Y-101550000I-75000J0D01*
G01*
X139650000Y-101550000D01*
G75*
G02*
X139575000Y-101475000I0J75000D01*
G01*
G37*
G36*
G01*
X139575000Y-100975000D02*
X139575000Y-100825000D01*
G75*
G02*
X139650000Y-100750000I75000J0D01*
G01*
X140975000Y-100750000D01*
G75*
G02*
X141050000Y-100825000I0J-75000D01*
G01*
X141050000Y-100975000D01*
G75*
G02*
X140975000Y-101050000I-75000J0D01*
G01*
X139650000Y-101050000D01*
G75*
G02*
X139575000Y-100975000I0J75000D01*
G01*
G37*
G36*
G01*
X139575000Y-100475000D02*
X139575000Y-100325000D01*
G75*
G02*
X139650000Y-100250000I75000J0D01*
G01*
X140975000Y-100250000D01*
G75*
G02*
X141050000Y-100325000I0J-75000D01*
G01*
X141050000Y-100475000D01*
G75*
G02*
X140975000Y-100550000I-75000J0D01*
G01*
X139650000Y-100550000D01*
G75*
G02*
X139575000Y-100475000I0J75000D01*
G01*
G37*
G36*
G01*
X139575000Y-99975000D02*
X139575000Y-99825000D01*
G75*
G02*
X139650000Y-99750000I75000J0D01*
G01*
X140975000Y-99750000D01*
G75*
G02*
X141050000Y-99825000I0J-75000D01*
G01*
X141050000Y-99975000D01*
G75*
G02*
X140975000Y-100050000I-75000J0D01*
G01*
X139650000Y-100050000D01*
G75*
G02*
X139575000Y-99975000I0J75000D01*
G01*
G37*
G36*
G01*
X139575000Y-99475000D02*
X139575000Y-99325000D01*
G75*
G02*
X139650000Y-99250000I75000J0D01*
G01*
X140975000Y-99250000D01*
G75*
G02*
X141050000Y-99325000I0J-75000D01*
G01*
X141050000Y-99475000D01*
G75*
G02*
X140975000Y-99550000I-75000J0D01*
G01*
X139650000Y-99550000D01*
G75*
G02*
X139575000Y-99475000I0J75000D01*
G01*
G37*
G36*
G01*
X139575000Y-98975000D02*
X139575000Y-98825000D01*
G75*
G02*
X139650000Y-98750000I75000J0D01*
G01*
X140975000Y-98750000D01*
G75*
G02*
X141050000Y-98825000I0J-75000D01*
G01*
X141050000Y-98975000D01*
G75*
G02*
X140975000Y-99050000I-75000J0D01*
G01*
X139650000Y-99050000D01*
G75*
G02*
X139575000Y-98975000I0J75000D01*
G01*
G37*
G36*
G01*
X139575000Y-98475000D02*
X139575000Y-98325000D01*
G75*
G02*
X139650000Y-98250000I75000J0D01*
G01*
X140975000Y-98250000D01*
G75*
G02*
X141050000Y-98325000I0J-75000D01*
G01*
X141050000Y-98475000D01*
G75*
G02*
X140975000Y-98550000I-75000J0D01*
G01*
X139650000Y-98550000D01*
G75*
G02*
X139575000Y-98475000I0J75000D01*
G01*
G37*
G36*
G01*
X139575000Y-97975000D02*
X139575000Y-97825000D01*
G75*
G02*
X139650000Y-97750000I75000J0D01*
G01*
X140975000Y-97750000D01*
G75*
G02*
X141050000Y-97825000I0J-75000D01*
G01*
X141050000Y-97975000D01*
G75*
G02*
X140975000Y-98050000I-75000J0D01*
G01*
X139650000Y-98050000D01*
G75*
G02*
X139575000Y-97975000I0J75000D01*
G01*
G37*
G36*
G01*
X139575000Y-97475000D02*
X139575000Y-97325000D01*
G75*
G02*
X139650000Y-97250000I75000J0D01*
G01*
X140975000Y-97250000D01*
G75*
G02*
X141050000Y-97325000I0J-75000D01*
G01*
X141050000Y-97475000D01*
G75*
G02*
X140975000Y-97550000I-75000J0D01*
G01*
X139650000Y-97550000D01*
G75*
G02*
X139575000Y-97475000I0J75000D01*
G01*
G37*
G36*
G01*
X139575000Y-96975000D02*
X139575000Y-96825000D01*
G75*
G02*
X139650000Y-96750000I75000J0D01*
G01*
X140975000Y-96750000D01*
G75*
G02*
X141050000Y-96825000I0J-75000D01*
G01*
X141050000Y-96975000D01*
G75*
G02*
X140975000Y-97050000I-75000J0D01*
G01*
X139650000Y-97050000D01*
G75*
G02*
X139575000Y-96975000I0J75000D01*
G01*
G37*
G36*
G01*
X139575000Y-96475000D02*
X139575000Y-96325000D01*
G75*
G02*
X139650000Y-96250000I75000J0D01*
G01*
X140975000Y-96250000D01*
G75*
G02*
X141050000Y-96325000I0J-75000D01*
G01*
X141050000Y-96475000D01*
G75*
G02*
X140975000Y-96550000I-75000J0D01*
G01*
X139650000Y-96550000D01*
G75*
G02*
X139575000Y-96475000I0J75000D01*
G01*
G37*
G36*
G01*
X138750000Y-95650000D02*
X138750000Y-94325000D01*
G75*
G02*
X138825000Y-94250000I75000J0D01*
G01*
X138975000Y-94250000D01*
G75*
G02*
X139050000Y-94325000I0J-75000D01*
G01*
X139050000Y-95650000D01*
G75*
G02*
X138975000Y-95725000I-75000J0D01*
G01*
X138825000Y-95725000D01*
G75*
G02*
X138750000Y-95650000I0J75000D01*
G01*
G37*
G36*
G01*
X138250000Y-95650000D02*
X138250000Y-94325000D01*
G75*
G02*
X138325000Y-94250000I75000J0D01*
G01*
X138475000Y-94250000D01*
G75*
G02*
X138550000Y-94325000I0J-75000D01*
G01*
X138550000Y-95650000D01*
G75*
G02*
X138475000Y-95725000I-75000J0D01*
G01*
X138325000Y-95725000D01*
G75*
G02*
X138250000Y-95650000I0J75000D01*
G01*
G37*
G36*
G01*
X137750000Y-95650000D02*
X137750000Y-94325000D01*
G75*
G02*
X137825000Y-94250000I75000J0D01*
G01*
X137975000Y-94250000D01*
G75*
G02*
X138050000Y-94325000I0J-75000D01*
G01*
X138050000Y-95650000D01*
G75*
G02*
X137975000Y-95725000I-75000J0D01*
G01*
X137825000Y-95725000D01*
G75*
G02*
X137750000Y-95650000I0J75000D01*
G01*
G37*
G36*
G01*
X137250000Y-95650000D02*
X137250000Y-94325000D01*
G75*
G02*
X137325000Y-94250000I75000J0D01*
G01*
X137475000Y-94250000D01*
G75*
G02*
X137550000Y-94325000I0J-75000D01*
G01*
X137550000Y-95650000D01*
G75*
G02*
X137475000Y-95725000I-75000J0D01*
G01*
X137325000Y-95725000D01*
G75*
G02*
X137250000Y-95650000I0J75000D01*
G01*
G37*
G36*
G01*
X136750000Y-95650000D02*
X136750000Y-94325000D01*
G75*
G02*
X136825000Y-94250000I75000J0D01*
G01*
X136975000Y-94250000D01*
G75*
G02*
X137050000Y-94325000I0J-75000D01*
G01*
X137050000Y-95650000D01*
G75*
G02*
X136975000Y-95725000I-75000J0D01*
G01*
X136825000Y-95725000D01*
G75*
G02*
X136750000Y-95650000I0J75000D01*
G01*
G37*
G36*
G01*
X136250000Y-95650000D02*
X136250000Y-94325000D01*
G75*
G02*
X136325000Y-94250000I75000J0D01*
G01*
X136475000Y-94250000D01*
G75*
G02*
X136550000Y-94325000I0J-75000D01*
G01*
X136550000Y-95650000D01*
G75*
G02*
X136475000Y-95725000I-75000J0D01*
G01*
X136325000Y-95725000D01*
G75*
G02*
X136250000Y-95650000I0J75000D01*
G01*
G37*
G36*
G01*
X135750000Y-95650000D02*
X135750000Y-94325000D01*
G75*
G02*
X135825000Y-94250000I75000J0D01*
G01*
X135975000Y-94250000D01*
G75*
G02*
X136050000Y-94325000I0J-75000D01*
G01*
X136050000Y-95650000D01*
G75*
G02*
X135975000Y-95725000I-75000J0D01*
G01*
X135825000Y-95725000D01*
G75*
G02*
X135750000Y-95650000I0J75000D01*
G01*
G37*
G36*
G01*
X135250000Y-95650000D02*
X135250000Y-94325000D01*
G75*
G02*
X135325000Y-94250000I75000J0D01*
G01*
X135475000Y-94250000D01*
G75*
G02*
X135550000Y-94325000I0J-75000D01*
G01*
X135550000Y-95650000D01*
G75*
G02*
X135475000Y-95725000I-75000J0D01*
G01*
X135325000Y-95725000D01*
G75*
G02*
X135250000Y-95650000I0J75000D01*
G01*
G37*
G36*
G01*
X134750000Y-95650000D02*
X134750000Y-94325000D01*
G75*
G02*
X134825000Y-94250000I75000J0D01*
G01*
X134975000Y-94250000D01*
G75*
G02*
X135050000Y-94325000I0J-75000D01*
G01*
X135050000Y-95650000D01*
G75*
G02*
X134975000Y-95725000I-75000J0D01*
G01*
X134825000Y-95725000D01*
G75*
G02*
X134750000Y-95650000I0J75000D01*
G01*
G37*
G36*
G01*
X134250000Y-95650000D02*
X134250000Y-94325000D01*
G75*
G02*
X134325000Y-94250000I75000J0D01*
G01*
X134475000Y-94250000D01*
G75*
G02*
X134550000Y-94325000I0J-75000D01*
G01*
X134550000Y-95650000D01*
G75*
G02*
X134475000Y-95725000I-75000J0D01*
G01*
X134325000Y-95725000D01*
G75*
G02*
X134250000Y-95650000I0J75000D01*
G01*
G37*
G36*
G01*
X133750000Y-95650000D02*
X133750000Y-94325000D01*
G75*
G02*
X133825000Y-94250000I75000J0D01*
G01*
X133975000Y-94250000D01*
G75*
G02*
X134050000Y-94325000I0J-75000D01*
G01*
X134050000Y-95650000D01*
G75*
G02*
X133975000Y-95725000I-75000J0D01*
G01*
X133825000Y-95725000D01*
G75*
G02*
X133750000Y-95650000I0J75000D01*
G01*
G37*
G36*
G01*
X133250000Y-95650000D02*
X133250000Y-94325000D01*
G75*
G02*
X133325000Y-94250000I75000J0D01*
G01*
X133475000Y-94250000D01*
G75*
G02*
X133550000Y-94325000I0J-75000D01*
G01*
X133550000Y-95650000D01*
G75*
G02*
X133475000Y-95725000I-75000J0D01*
G01*
X133325000Y-95725000D01*
G75*
G02*
X133250000Y-95650000I0J75000D01*
G01*
G37*
D17*
X165934000Y-90416000D03*
D18*
X172234000Y-90416000D03*
X172234000Y-88116000D03*
X172234000Y-92716000D03*
G36*
G01*
X161430000Y-93505000D02*
X161430000Y-94055000D01*
G75*
G02*
X161230000Y-94255000I-200000J0D01*
G01*
X160830000Y-94255000D01*
G75*
G02*
X160630000Y-94055000I0J200000D01*
G01*
X160630000Y-93505000D01*
G75*
G02*
X160830000Y-93305000I200000J0D01*
G01*
X161230000Y-93305000D01*
G75*
G02*
X161430000Y-93505000I0J-200000D01*
G01*
G37*
G36*
G01*
X159780000Y-93505000D02*
X159780000Y-94055000D01*
G75*
G02*
X159580000Y-94255000I-200000J0D01*
G01*
X159180000Y-94255000D01*
G75*
G02*
X158980000Y-94055000I0J200000D01*
G01*
X158980000Y-93505000D01*
G75*
G02*
X159180000Y-93305000I200000J0D01*
G01*
X159580000Y-93305000D01*
G75*
G02*
X159780000Y-93505000I0J-200000D01*
G01*
G37*
G36*
G01*
X152210000Y-94055000D02*
X152210000Y-93505000D01*
G75*
G02*
X152410000Y-93305000I200000J0D01*
G01*
X152810000Y-93305000D01*
G75*
G02*
X153010000Y-93505000I0J-200000D01*
G01*
X153010000Y-94055000D01*
G75*
G02*
X152810000Y-94255000I-200000J0D01*
G01*
X152410000Y-94255000D01*
G75*
G02*
X152210000Y-94055000I0J200000D01*
G01*
G37*
G36*
G01*
X153860000Y-94055000D02*
X153860000Y-93505000D01*
G75*
G02*
X154060000Y-93305000I200000J0D01*
G01*
X154460000Y-93305000D01*
G75*
G02*
X154660000Y-93505000I0J-200000D01*
G01*
X154660000Y-94055000D01*
G75*
G02*
X154460000Y-94255000I-200000J0D01*
G01*
X154060000Y-94255000D01*
G75*
G02*
X153860000Y-94055000I0J200000D01*
G01*
G37*
G36*
G01*
X153720000Y-97085000D02*
X153720000Y-96535000D01*
G75*
G02*
X153920000Y-96335000I200000J0D01*
G01*
X154320000Y-96335000D01*
G75*
G02*
X154520000Y-96535000I0J-200000D01*
G01*
X154520000Y-97085000D01*
G75*
G02*
X154320000Y-97285000I-200000J0D01*
G01*
X153920000Y-97285000D01*
G75*
G02*
X153720000Y-97085000I0J200000D01*
G01*
G37*
G36*
G01*
X155370000Y-97085000D02*
X155370000Y-96535000D01*
G75*
G02*
X155570000Y-96335000I200000J0D01*
G01*
X155970000Y-96335000D01*
G75*
G02*
X156170000Y-96535000I0J-200000D01*
G01*
X156170000Y-97085000D01*
G75*
G02*
X155970000Y-97285000I-200000J0D01*
G01*
X155570000Y-97285000D01*
G75*
G02*
X155370000Y-97085000I0J200000D01*
G01*
G37*
G36*
G01*
X155498000Y-93305000D02*
X156048000Y-93305000D01*
G75*
G02*
X156248000Y-93505000I0J-200000D01*
G01*
X156248000Y-93905000D01*
G75*
G02*
X156048000Y-94105000I-200000J0D01*
G01*
X155498000Y-94105000D01*
G75*
G02*
X155298000Y-93905000I0J200000D01*
G01*
X155298000Y-93505000D01*
G75*
G02*
X155498000Y-93305000I200000J0D01*
G01*
G37*
G36*
G01*
X155498000Y-94955000D02*
X156048000Y-94955000D01*
G75*
G02*
X156248000Y-95155000I0J-200000D01*
G01*
X156248000Y-95555000D01*
G75*
G02*
X156048000Y-95755000I-200000J0D01*
G01*
X155498000Y-95755000D01*
G75*
G02*
X155298000Y-95555000I0J200000D01*
G01*
X155298000Y-95155000D01*
G75*
G02*
X155498000Y-94955000I200000J0D01*
G01*
G37*
G36*
G01*
X157648000Y-93305000D02*
X158198000Y-93305000D01*
G75*
G02*
X158398000Y-93505000I0J-200000D01*
G01*
X158398000Y-93905000D01*
G75*
G02*
X158198000Y-94105000I-200000J0D01*
G01*
X157648000Y-94105000D01*
G75*
G02*
X157448000Y-93905000I0J200000D01*
G01*
X157448000Y-93505000D01*
G75*
G02*
X157648000Y-93305000I200000J0D01*
G01*
G37*
G36*
G01*
X157648000Y-94955000D02*
X158198000Y-94955000D01*
G75*
G02*
X158398000Y-95155000I0J-200000D01*
G01*
X158398000Y-95555000D01*
G75*
G02*
X158198000Y-95755000I-200000J0D01*
G01*
X157648000Y-95755000D01*
G75*
G02*
X157448000Y-95555000I0J200000D01*
G01*
X157448000Y-95155000D01*
G75*
G02*
X157648000Y-94955000I200000J0D01*
G01*
G37*
G36*
G01*
X134695000Y-91235000D02*
X135245000Y-91235000D01*
G75*
G02*
X135445000Y-91435000I0J-200000D01*
G01*
X135445000Y-91835000D01*
G75*
G02*
X135245000Y-92035000I-200000J0D01*
G01*
X134695000Y-92035000D01*
G75*
G02*
X134495000Y-91835000I0J200000D01*
G01*
X134495000Y-91435000D01*
G75*
G02*
X134695000Y-91235000I200000J0D01*
G01*
G37*
G36*
G01*
X134695000Y-92885000D02*
X135245000Y-92885000D01*
G75*
G02*
X135445000Y-93085000I0J-200000D01*
G01*
X135445000Y-93485000D01*
G75*
G02*
X135245000Y-93685000I-200000J0D01*
G01*
X134695000Y-93685000D01*
G75*
G02*
X134495000Y-93485000I0J200000D01*
G01*
X134495000Y-93085000D01*
G75*
G02*
X134695000Y-92885000I200000J0D01*
G01*
G37*
G36*
G01*
X178289000Y-99685500D02*
X177739000Y-99685500D01*
G75*
G02*
X177539000Y-99485500I0J200000D01*
G01*
X177539000Y-99085500D01*
G75*
G02*
X177739000Y-98885500I200000J0D01*
G01*
X178289000Y-98885500D01*
G75*
G02*
X178489000Y-99085500I0J-200000D01*
G01*
X178489000Y-99485500D01*
G75*
G02*
X178289000Y-99685500I-200000J0D01*
G01*
G37*
G36*
G01*
X178289000Y-98035500D02*
X177739000Y-98035500D01*
G75*
G02*
X177539000Y-97835500I0J200000D01*
G01*
X177539000Y-97435500D01*
G75*
G02*
X177739000Y-97235500I200000J0D01*
G01*
X178289000Y-97235500D01*
G75*
G02*
X178489000Y-97435500I0J-200000D01*
G01*
X178489000Y-97835500D01*
G75*
G02*
X178289000Y-98035500I-200000J0D01*
G01*
G37*
G36*
G01*
X125075000Y-99225000D02*
X125075000Y-99775000D01*
G75*
G02*
X124875000Y-99975000I-200000J0D01*
G01*
X124475000Y-99975000D01*
G75*
G02*
X124275000Y-99775000I0J200000D01*
G01*
X124275000Y-99225000D01*
G75*
G02*
X124475000Y-99025000I200000J0D01*
G01*
X124875000Y-99025000D01*
G75*
G02*
X125075000Y-99225000I0J-200000D01*
G01*
G37*
G36*
G01*
X123425000Y-99225000D02*
X123425000Y-99775000D01*
G75*
G02*
X123225000Y-99975000I-200000J0D01*
G01*
X122825000Y-99975000D01*
G75*
G02*
X122625000Y-99775000I0J200000D01*
G01*
X122625000Y-99225000D01*
G75*
G02*
X122825000Y-99025000I200000J0D01*
G01*
X123225000Y-99025000D01*
G75*
G02*
X123425000Y-99225000I0J-200000D01*
G01*
G37*
G36*
G01*
X127676000Y-110466000D02*
X128176000Y-110466000D01*
G75*
G02*
X128401000Y-110691000I0J-225000D01*
G01*
X128401000Y-111141000D01*
G75*
G02*
X128176000Y-111366000I-225000J0D01*
G01*
X127676000Y-111366000D01*
G75*
G02*
X127451000Y-111141000I0J225000D01*
G01*
X127451000Y-110691000D01*
G75*
G02*
X127676000Y-110466000I225000J0D01*
G01*
G37*
G36*
G01*
X127676000Y-112016000D02*
X128176000Y-112016000D01*
G75*
G02*
X128401000Y-112241000I0J-225000D01*
G01*
X128401000Y-112691000D01*
G75*
G02*
X128176000Y-112916000I-225000J0D01*
G01*
X127676000Y-112916000D01*
G75*
G02*
X127451000Y-112691000I0J225000D01*
G01*
X127451000Y-112241000D01*
G75*
G02*
X127676000Y-112016000I225000J0D01*
G01*
G37*
G36*
G01*
X140257500Y-91405000D02*
X140257500Y-91905000D01*
G75*
G02*
X140032500Y-92130000I-225000J0D01*
G01*
X139582500Y-92130000D01*
G75*
G02*
X139357500Y-91905000I0J225000D01*
G01*
X139357500Y-91405000D01*
G75*
G02*
X139582500Y-91180000I225000J0D01*
G01*
X140032500Y-91180000D01*
G75*
G02*
X140257500Y-91405000I0J-225000D01*
G01*
G37*
G36*
G01*
X138707500Y-91405000D02*
X138707500Y-91905000D01*
G75*
G02*
X138482500Y-92130000I-225000J0D01*
G01*
X138032500Y-92130000D01*
G75*
G02*
X137807500Y-91905000I0J225000D01*
G01*
X137807500Y-91405000D01*
G75*
G02*
X138032500Y-91180000I225000J0D01*
G01*
X138482500Y-91180000D01*
G75*
G02*
X138707500Y-91405000I0J-225000D01*
G01*
G37*
G36*
G01*
X119757142Y-110466000D02*
X120257142Y-110466000D01*
G75*
G02*
X120482142Y-110691000I0J-225000D01*
G01*
X120482142Y-111141000D01*
G75*
G02*
X120257142Y-111366000I-225000J0D01*
G01*
X119757142Y-111366000D01*
G75*
G02*
X119532142Y-111141000I0J225000D01*
G01*
X119532142Y-110691000D01*
G75*
G02*
X119757142Y-110466000I225000J0D01*
G01*
G37*
G36*
G01*
X119757142Y-112016000D02*
X120257142Y-112016000D01*
G75*
G02*
X120482142Y-112241000I0J-225000D01*
G01*
X120482142Y-112691000D01*
G75*
G02*
X120257142Y-112916000I-225000J0D01*
G01*
X119757142Y-112916000D01*
G75*
G02*
X119532142Y-112691000I0J225000D01*
G01*
X119532142Y-112241000D01*
G75*
G02*
X119757142Y-112016000I225000J0D01*
G01*
G37*
G36*
G01*
X142090000Y-103100000D02*
X142090000Y-103600000D01*
G75*
G02*
X141865000Y-103825000I-225000J0D01*
G01*
X141415000Y-103825000D01*
G75*
G02*
X141190000Y-103600000I0J225000D01*
G01*
X141190000Y-103100000D01*
G75*
G02*
X141415000Y-102875000I225000J0D01*
G01*
X141865000Y-102875000D01*
G75*
G02*
X142090000Y-103100000I0J-225000D01*
G01*
G37*
G36*
G01*
X140540000Y-103100000D02*
X140540000Y-103600000D01*
G75*
G02*
X140315000Y-103825000I-225000J0D01*
G01*
X139865000Y-103825000D01*
G75*
G02*
X139640000Y-103600000I0J225000D01*
G01*
X139640000Y-103100000D01*
G75*
G02*
X139865000Y-102875000I225000J0D01*
G01*
X140315000Y-102875000D01*
G75*
G02*
X140540000Y-103100000I0J-225000D01*
G01*
G37*
G36*
G01*
X144070000Y-95825000D02*
X144070000Y-96325000D01*
G75*
G02*
X143845000Y-96550000I-225000J0D01*
G01*
X143395000Y-96550000D01*
G75*
G02*
X143170000Y-96325000I0J225000D01*
G01*
X143170000Y-95825000D01*
G75*
G02*
X143395000Y-95600000I225000J0D01*
G01*
X143845000Y-95600000D01*
G75*
G02*
X144070000Y-95825000I0J-225000D01*
G01*
G37*
G36*
G01*
X142520000Y-95825000D02*
X142520000Y-96325000D01*
G75*
G02*
X142295000Y-96550000I-225000J0D01*
G01*
X141845000Y-96550000D01*
G75*
G02*
X141620000Y-96325000I0J225000D01*
G01*
X141620000Y-95825000D01*
G75*
G02*
X141845000Y-95600000I225000J0D01*
G01*
X142295000Y-95600000D01*
G75*
G02*
X142520000Y-95825000I0J-225000D01*
G01*
G37*
G36*
G01*
X116051714Y-110466000D02*
X116551714Y-110466000D01*
G75*
G02*
X116776714Y-110691000I0J-225000D01*
G01*
X116776714Y-111141000D01*
G75*
G02*
X116551714Y-111366000I-225000J0D01*
G01*
X116051714Y-111366000D01*
G75*
G02*
X115826714Y-111141000I0J225000D01*
G01*
X115826714Y-110691000D01*
G75*
G02*
X116051714Y-110466000I225000J0D01*
G01*
G37*
G36*
G01*
X116051714Y-112016000D02*
X116551714Y-112016000D01*
G75*
G02*
X116776714Y-112241000I0J-225000D01*
G01*
X116776714Y-112691000D01*
G75*
G02*
X116551714Y-112916000I-225000J0D01*
G01*
X116051714Y-112916000D01*
G75*
G02*
X115826714Y-112691000I0J225000D01*
G01*
X115826714Y-112241000D01*
G75*
G02*
X116051714Y-112016000I225000J0D01*
G01*
G37*
G36*
G01*
X176592000Y-99685500D02*
X176092000Y-99685500D01*
G75*
G02*
X175867000Y-99460500I0J225000D01*
G01*
X175867000Y-99010500D01*
G75*
G02*
X176092000Y-98785500I225000J0D01*
G01*
X176592000Y-98785500D01*
G75*
G02*
X176817000Y-99010500I0J-225000D01*
G01*
X176817000Y-99460500D01*
G75*
G02*
X176592000Y-99685500I-225000J0D01*
G01*
G37*
G36*
G01*
X176592000Y-98135500D02*
X176092000Y-98135500D01*
G75*
G02*
X175867000Y-97910500I0J225000D01*
G01*
X175867000Y-97460500D01*
G75*
G02*
X176092000Y-97235500I225000J0D01*
G01*
X176592000Y-97235500D01*
G75*
G02*
X176817000Y-97460500I0J-225000D01*
G01*
X176817000Y-97910500D01*
G75*
G02*
X176592000Y-98135500I-225000J0D01*
G01*
G37*
G36*
G01*
X128891000Y-103540000D02*
X128391000Y-103540000D01*
G75*
G02*
X128166000Y-103315000I0J225000D01*
G01*
X128166000Y-102865000D01*
G75*
G02*
X128391000Y-102640000I225000J0D01*
G01*
X128891000Y-102640000D01*
G75*
G02*
X129116000Y-102865000I0J-225000D01*
G01*
X129116000Y-103315000D01*
G75*
G02*
X128891000Y-103540000I-225000J0D01*
G01*
G37*
G36*
G01*
X128891000Y-101990000D02*
X128391000Y-101990000D01*
G75*
G02*
X128166000Y-101765000I0J225000D01*
G01*
X128166000Y-101315000D01*
G75*
G02*
X128391000Y-101090000I225000J0D01*
G01*
X128891000Y-101090000D01*
G75*
G02*
X129116000Y-101315000I0J-225000D01*
G01*
X129116000Y-101765000D01*
G75*
G02*
X128891000Y-101990000I-225000J0D01*
G01*
G37*
G36*
G01*
X123110000Y-96440000D02*
X122610000Y-96440000D01*
G75*
G02*
X122385000Y-96215000I0J225000D01*
G01*
X122385000Y-95765000D01*
G75*
G02*
X122610000Y-95540000I225000J0D01*
G01*
X123110000Y-95540000D01*
G75*
G02*
X123335000Y-95765000I0J-225000D01*
G01*
X123335000Y-96215000D01*
G75*
G02*
X123110000Y-96440000I-225000J0D01*
G01*
G37*
G36*
G01*
X123110000Y-94890000D02*
X122610000Y-94890000D01*
G75*
G02*
X122385000Y-94665000I0J225000D01*
G01*
X122385000Y-94215000D01*
G75*
G02*
X122610000Y-93990000I225000J0D01*
G01*
X123110000Y-93990000D01*
G75*
G02*
X123335000Y-94215000I0J-225000D01*
G01*
X123335000Y-94665000D01*
G75*
G02*
X123110000Y-94890000I-225000J0D01*
G01*
G37*
G36*
G01*
X176054000Y-92741000D02*
X175554000Y-92741000D01*
G75*
G02*
X175329000Y-92516000I0J225000D01*
G01*
X175329000Y-92066000D01*
G75*
G02*
X175554000Y-91841000I225000J0D01*
G01*
X176054000Y-91841000D01*
G75*
G02*
X176279000Y-92066000I0J-225000D01*
G01*
X176279000Y-92516000D01*
G75*
G02*
X176054000Y-92741000I-225000J0D01*
G01*
G37*
G36*
G01*
X176054000Y-91191000D02*
X175554000Y-91191000D01*
G75*
G02*
X175329000Y-90966000I0J225000D01*
G01*
X175329000Y-90516000D01*
G75*
G02*
X175554000Y-90291000I225000J0D01*
G01*
X176054000Y-90291000D01*
G75*
G02*
X176279000Y-90516000I0J-225000D01*
G01*
X176279000Y-90966000D01*
G75*
G02*
X176054000Y-91191000I-225000J0D01*
G01*
G37*
G36*
G01*
X174054000Y-90291000D02*
X174554000Y-90291000D01*
G75*
G02*
X174779000Y-90516000I0J-225000D01*
G01*
X174779000Y-90966000D01*
G75*
G02*
X174554000Y-91191000I-225000J0D01*
G01*
X174054000Y-91191000D01*
G75*
G02*
X173829000Y-90966000I0J225000D01*
G01*
X173829000Y-90516000D01*
G75*
G02*
X174054000Y-90291000I225000J0D01*
G01*
G37*
G36*
G01*
X174054000Y-91841000D02*
X174554000Y-91841000D01*
G75*
G02*
X174779000Y-92066000I0J-225000D01*
G01*
X174779000Y-92516000D01*
G75*
G02*
X174554000Y-92741000I-225000J0D01*
G01*
X174054000Y-92741000D01*
G75*
G02*
X173829000Y-92516000I0J225000D01*
G01*
X173829000Y-92066000D01*
G75*
G02*
X174054000Y-91841000I225000J0D01*
G01*
G37*
G36*
G01*
X129770000Y-93990000D02*
X130270000Y-93990000D01*
G75*
G02*
X130495000Y-94215000I0J-225000D01*
G01*
X130495000Y-94665000D01*
G75*
G02*
X130270000Y-94890000I-225000J0D01*
G01*
X129770000Y-94890000D01*
G75*
G02*
X129545000Y-94665000I0J225000D01*
G01*
X129545000Y-94215000D01*
G75*
G02*
X129770000Y-93990000I225000J0D01*
G01*
G37*
G36*
G01*
X129770000Y-95540000D02*
X130270000Y-95540000D01*
G75*
G02*
X130495000Y-95765000I0J-225000D01*
G01*
X130495000Y-96215000D01*
G75*
G02*
X130270000Y-96440000I-225000J0D01*
G01*
X129770000Y-96440000D01*
G75*
G02*
X129545000Y-96215000I0J225000D01*
G01*
X129545000Y-95765000D01*
G75*
G02*
X129770000Y-95540000I225000J0D01*
G01*
G37*
G36*
G01*
X126710000Y-104640000D02*
X126710000Y-105140000D01*
G75*
G02*
X126485000Y-105365000I-225000J0D01*
G01*
X126035000Y-105365000D01*
G75*
G02*
X125810000Y-105140000I0J225000D01*
G01*
X125810000Y-104640000D01*
G75*
G02*
X126035000Y-104415000I225000J0D01*
G01*
X126485000Y-104415000D01*
G75*
G02*
X126710000Y-104640000I0J-225000D01*
G01*
G37*
G36*
G01*
X125160000Y-104640000D02*
X125160000Y-105140000D01*
G75*
G02*
X124935000Y-105365000I-225000J0D01*
G01*
X124485000Y-105365000D01*
G75*
G02*
X124260000Y-105140000I0J225000D01*
G01*
X124260000Y-104640000D01*
G75*
G02*
X124485000Y-104415000I225000J0D01*
G01*
X124935000Y-104415000D01*
G75*
G02*
X125160000Y-104640000I0J-225000D01*
G01*
G37*
G36*
G01*
X176074000Y-89526000D02*
X175574000Y-89526000D01*
G75*
G02*
X175349000Y-89301000I0J225000D01*
G01*
X175349000Y-88851000D01*
G75*
G02*
X175574000Y-88626000I225000J0D01*
G01*
X176074000Y-88626000D01*
G75*
G02*
X176299000Y-88851000I0J-225000D01*
G01*
X176299000Y-89301000D01*
G75*
G02*
X176074000Y-89526000I-225000J0D01*
G01*
G37*
G36*
G01*
X176074000Y-87976000D02*
X175574000Y-87976000D01*
G75*
G02*
X175349000Y-87751000I0J225000D01*
G01*
X175349000Y-87301000D01*
G75*
G02*
X175574000Y-87076000I225000J0D01*
G01*
X176074000Y-87076000D01*
G75*
G02*
X176299000Y-87301000I0J-225000D01*
G01*
X176299000Y-87751000D01*
G75*
G02*
X176074000Y-87976000I-225000J0D01*
G01*
G37*
G36*
G01*
X123460000Y-104640000D02*
X123460000Y-105140000D01*
G75*
G02*
X123235000Y-105365000I-225000J0D01*
G01*
X122785000Y-105365000D01*
G75*
G02*
X122560000Y-105140000I0J225000D01*
G01*
X122560000Y-104640000D01*
G75*
G02*
X122785000Y-104415000I225000J0D01*
G01*
X123235000Y-104415000D01*
G75*
G02*
X123460000Y-104640000I0J-225000D01*
G01*
G37*
G36*
G01*
X121910000Y-104640000D02*
X121910000Y-105140000D01*
G75*
G02*
X121685000Y-105365000I-225000J0D01*
G01*
X121235000Y-105365000D01*
G75*
G02*
X121010000Y-105140000I0J225000D01*
G01*
X121010000Y-104640000D01*
G75*
G02*
X121235000Y-104415000I225000J0D01*
G01*
X121685000Y-104415000D01*
G75*
G02*
X121910000Y-104640000I0J-225000D01*
G01*
G37*
G36*
G01*
X174554000Y-89526000D02*
X174054000Y-89526000D01*
G75*
G02*
X173829000Y-89301000I0J225000D01*
G01*
X173829000Y-88851000D01*
G75*
G02*
X174054000Y-88626000I225000J0D01*
G01*
X174554000Y-88626000D01*
G75*
G02*
X174779000Y-88851000I0J-225000D01*
G01*
X174779000Y-89301000D01*
G75*
G02*
X174554000Y-89526000I-225000J0D01*
G01*
G37*
G36*
G01*
X174554000Y-87976000D02*
X174054000Y-87976000D01*
G75*
G02*
X173829000Y-87751000I0J225000D01*
G01*
X173829000Y-87301000D01*
G75*
G02*
X174054000Y-87076000I225000J0D01*
G01*
X174554000Y-87076000D01*
G75*
G02*
X174779000Y-87301000I0J-225000D01*
G01*
X174779000Y-87751000D01*
G75*
G02*
X174554000Y-87976000I-225000J0D01*
G01*
G37*
M02*
