G04 #@! TF.GenerationSoftware,KiCad,Pcbnew,(5.1.12)-1*
G04 #@! TF.CreationDate,2024-01-22T15:17:36+02:00*
G04 #@! TF.ProjectId,CaliperPCB,43616c69-7065-4725-9043-422e6b696361,rev?*
G04 #@! TF.SameCoordinates,Original*
G04 #@! TF.FileFunction,Copper,L2,Bot*
G04 #@! TF.FilePolarity,Positive*
%FSLAX46Y46*%
G04 Gerber Fmt 4.6, Leading zero omitted, Abs format (unit mm)*
G04 Created by KiCad (PCBNEW (5.1.12)-1) date 2024-01-22 15:17:36*
%MOMM*%
%LPD*%
G01*
G04 APERTURE LIST*
G04 #@! TA.AperFunction,Profile*
%ADD10C,0.050000*%
G04 #@! TD*
G04 #@! TA.AperFunction,ComponentPad*
%ADD11R,1.700000X1.700000*%
G04 #@! TD*
G04 #@! TA.AperFunction,ComponentPad*
%ADD12O,1.700000X1.700000*%
G04 #@! TD*
G04 #@! TA.AperFunction,ComponentPad*
%ADD13O,1.000000X1.600000*%
G04 #@! TD*
G04 #@! TA.AperFunction,ComponentPad*
%ADD14O,1.000000X2.100000*%
G04 #@! TD*
G04 #@! TA.AperFunction,ComponentPad*
%ADD15C,0.500000*%
G04 #@! TD*
G04 #@! TA.AperFunction,SMDPad,CuDef*
%ADD16R,1.000000X10.000000*%
G04 #@! TD*
G04 #@! TA.AperFunction,SMDPad,CuDef*
%ADD17R,57.400000X4.600000*%
G04 #@! TD*
G04 #@! TA.AperFunction,ViaPad*
%ADD18C,0.800000*%
G04 #@! TD*
G04 #@! TA.AperFunction,Conductor*
%ADD19C,0.250000*%
G04 #@! TD*
G04 #@! TA.AperFunction,Conductor*
%ADD20C,0.200000*%
G04 #@! TD*
G04 #@! TA.AperFunction,Conductor*
%ADD21C,0.100000*%
G04 #@! TD*
G04 APERTURE END LIST*
D10*
X118170000Y-87000000D02*
G75*
G03*
X118170000Y-87000000I-1500000J0D01*
G01*
X198500000Y-87000000D02*
G75*
G03*
X198500000Y-87000000I-1500000J0D01*
G01*
X200000000Y-121356000D02*
X200000000Y-84000000D01*
X113670000Y-84000000D02*
X200000000Y-84000000D01*
X113670000Y-121356000D02*
X113670000Y-84000000D01*
X200000000Y-121356000D02*
X113670000Y-121356000D01*
D11*
X180940000Y-98140500D03*
D12*
X180940000Y-95600500D03*
X180940000Y-93060500D03*
X180940000Y-90520500D03*
D11*
X180940000Y-86388250D03*
D12*
X183480000Y-86388250D03*
X186020000Y-86388250D03*
X188560000Y-86388250D03*
D13*
X152528000Y-86660000D03*
X161168000Y-86660000D03*
D14*
X161168000Y-90840000D03*
X152528000Y-90840000D03*
D11*
X131150000Y-89090000D03*
D12*
X131150000Y-86550000D03*
X133690000Y-89090000D03*
X133690000Y-86550000D03*
X136230000Y-89090000D03*
X136230000Y-86550000D03*
X138770000Y-89090000D03*
X138770000Y-86550000D03*
X141310000Y-89090000D03*
X141310000Y-86550000D03*
D15*
X197850000Y-120720000D03*
X196650000Y-119420000D03*
X195450000Y-118120000D03*
X194250000Y-116820000D03*
X193050000Y-120070000D03*
X191850000Y-118770000D03*
X190650000Y-117470000D03*
X189450000Y-116170000D03*
D16*
X197850000Y-116170000D03*
X196650000Y-116170000D03*
X195450000Y-116170000D03*
X194250000Y-116170000D03*
X191850000Y-116170000D03*
X193050000Y-116170000D03*
X190650000Y-116170000D03*
X189450000Y-116170000D03*
D17*
X164850000Y-106870000D03*
D15*
X188250000Y-120720000D03*
X178650000Y-120720000D03*
X169050000Y-120720000D03*
X159450000Y-120720000D03*
X149850000Y-120720000D03*
X140250000Y-120720000D03*
X184650000Y-116820000D03*
X175050000Y-116820000D03*
X165450000Y-116820000D03*
X155850000Y-116820000D03*
X146250000Y-116820000D03*
X136630000Y-116820000D03*
X181050000Y-117470000D03*
X171450000Y-117470000D03*
X161850000Y-117470000D03*
X152250000Y-117470000D03*
X142650000Y-117470000D03*
X133060000Y-117470000D03*
D16*
X188250000Y-116170000D03*
X178650000Y-116170000D03*
X169050000Y-116170000D03*
X159450000Y-116170000D03*
X149850000Y-116170000D03*
X140250000Y-116170000D03*
D15*
X187050000Y-119420000D03*
X177450000Y-119420000D03*
X167850000Y-119420000D03*
X158250000Y-119420000D03*
X148650000Y-119420000D03*
X138950000Y-119420000D03*
X185850000Y-118120000D03*
X176250000Y-118120000D03*
X166650000Y-118120000D03*
X157050000Y-118120000D03*
X147450000Y-118120000D03*
X137740000Y-118120000D03*
X183450000Y-120070000D03*
X173850000Y-120070000D03*
X164250000Y-120070000D03*
X154650000Y-120070000D03*
X145050000Y-120070000D03*
X135400000Y-120070000D03*
X182250000Y-118770000D03*
X172650000Y-118770000D03*
X163050000Y-118770000D03*
X153450000Y-118770000D03*
X143850000Y-118770000D03*
X134270000Y-118770000D03*
X179850000Y-116170000D03*
X170250000Y-116170000D03*
X160650000Y-116170000D03*
X151050000Y-116170000D03*
X141450000Y-116170000D03*
X131850000Y-116170000D03*
D16*
X184650000Y-116170000D03*
X175050000Y-116170000D03*
X165450000Y-116170000D03*
X155850000Y-116170000D03*
X146250000Y-116170000D03*
X136650000Y-116170000D03*
X181050000Y-116170000D03*
X171450000Y-116170000D03*
X161850000Y-116170000D03*
X152250000Y-116170000D03*
X142650000Y-116170000D03*
X133050000Y-116170000D03*
X179850000Y-116170000D03*
X170250000Y-116170000D03*
X160650000Y-116170000D03*
X151050000Y-116170000D03*
X141450000Y-116170000D03*
X131850000Y-116170000D03*
X187050000Y-116170000D03*
X177450000Y-116170000D03*
X167850000Y-116170000D03*
X158250000Y-116170000D03*
X148650000Y-116170000D03*
X139050000Y-116170000D03*
X185850000Y-116170000D03*
X176250000Y-116170000D03*
X166650000Y-116170000D03*
X157050000Y-116170000D03*
X147450000Y-116170000D03*
X137850000Y-116170000D03*
X182250000Y-116170000D03*
X172650000Y-116170000D03*
X163050000Y-116170000D03*
X153450000Y-116170000D03*
X143850000Y-116170000D03*
X134250000Y-116170000D03*
X183450000Y-116170000D03*
X173850000Y-116170000D03*
X164250000Y-116170000D03*
X154650000Y-116170000D03*
X145050000Y-116170000D03*
X135450000Y-116170000D03*
D15*
X136400000Y-104820000D03*
D18*
X129025999Y-115145000D03*
X144795000Y-96075000D03*
X131610000Y-92750000D03*
X133670000Y-100596000D03*
X133416000Y-98310000D03*
X135448000Y-98310000D03*
X135194000Y-100596000D03*
X133670000Y-96532000D03*
X137988000Y-97802000D03*
X123000000Y-106050000D03*
X124700000Y-106070000D03*
X125288000Y-110916000D03*
X121224000Y-110916000D03*
X117414000Y-110916000D03*
X121276475Y-115145000D03*
X125151237Y-115145000D03*
X117401713Y-115145000D03*
X149790000Y-91890000D03*
X148402000Y-96786000D03*
X151920000Y-96550000D03*
X174310000Y-93590000D03*
X175834000Y-93590000D03*
X177104000Y-87782000D03*
X169090000Y-89230000D03*
X177090000Y-89090000D03*
X122870000Y-93280000D03*
X130030000Y-93310000D03*
X128520000Y-104110000D03*
X127950000Y-109850000D03*
X142720000Y-103410000D03*
X137860000Y-100690000D03*
X146690000Y-87670000D03*
X146670000Y-89510000D03*
X149810000Y-90680000D03*
X149640000Y-87630000D03*
X143400000Y-88550000D03*
X175071999Y-97685500D03*
X132400000Y-90690000D03*
X129606000Y-89166000D03*
X170246000Y-92722000D03*
X190058000Y-98056000D03*
X197932000Y-98310000D03*
X178150000Y-94490000D03*
X179050000Y-93610000D03*
X129162000Y-112466000D03*
X125054000Y-112466000D03*
X121104000Y-112466000D03*
X117384000Y-112466000D03*
X127388000Y-100020000D03*
X115128000Y-107962000D03*
X132200000Y-103240000D03*
X138900000Y-101970000D03*
X175162500Y-99235500D03*
X134480000Y-99400000D03*
X137655000Y-93305000D03*
X137655000Y-96785000D03*
X145100000Y-99326000D03*
X143322000Y-100088000D03*
X192084500Y-99839500D03*
X143288000Y-101900000D03*
X173798000Y-100342000D03*
D19*
X129162000Y-112466000D02*
X117384000Y-112466000D01*
X127388000Y-105354000D02*
X127388000Y-100020000D01*
X124780000Y-107962000D02*
X127388000Y-105354000D01*
X115128000Y-107962000D02*
X124780000Y-107962000D01*
X133470000Y-101970000D02*
X133045000Y-102395000D01*
X138900000Y-101970000D02*
X133470000Y-101970000D01*
X133045000Y-102395000D02*
X133220000Y-102220000D01*
X132200000Y-103240000D02*
X133045000Y-102395000D01*
X174781001Y-99616999D02*
X175162500Y-99235500D01*
X173449999Y-99616999D02*
X174781001Y-99616999D01*
X173175008Y-99891990D02*
X173449999Y-99616999D01*
X167198000Y-101104000D02*
X168410010Y-99891990D01*
X141154000Y-101104000D02*
X167198000Y-101104000D01*
X139450000Y-99400000D02*
X141154000Y-101104000D01*
X168410010Y-99891990D02*
X173175008Y-99891990D01*
X134480000Y-99400000D02*
X139450000Y-99400000D01*
X137655000Y-93305000D02*
X137655000Y-96785000D01*
X183480000Y-88160000D02*
X183480000Y-86388250D01*
X182982000Y-88658000D02*
X183480000Y-88160000D01*
X179261590Y-88658000D02*
X182982000Y-88658000D01*
X176199590Y-91720000D02*
X179261590Y-88658000D01*
X175510000Y-91720000D02*
X176199590Y-91720000D01*
X173137600Y-91733990D02*
X175496010Y-91733990D01*
X165233600Y-99637990D02*
X173137600Y-91733990D01*
X145317990Y-99637990D02*
X165233600Y-99637990D01*
X145100000Y-99420000D02*
X145317990Y-99637990D01*
X175496010Y-91733990D02*
X175510000Y-91720000D01*
X145100000Y-99326000D02*
X145100000Y-99420000D01*
X186020000Y-88330000D02*
X186020000Y-86388250D01*
X185160000Y-89190000D02*
X186020000Y-88330000D01*
X179366000Y-89190000D02*
X185160000Y-89190000D01*
X176372000Y-92184000D02*
X179366000Y-89190000D01*
X173324000Y-92184000D02*
X176372000Y-92184000D01*
X165420000Y-100088000D02*
X173324000Y-92184000D01*
X143322000Y-100088000D02*
X165420000Y-100088000D01*
X191582000Y-100342000D02*
X192084500Y-99839500D01*
X173798000Y-100342000D02*
X191582000Y-100342000D01*
X143460000Y-101900000D02*
X143805990Y-101554010D01*
X143288000Y-101900000D02*
X143460000Y-101900000D01*
X143805990Y-101554010D02*
X167384401Y-101554009D01*
X168596410Y-100342000D02*
X169828000Y-100342000D01*
X167384401Y-101554009D02*
X168596410Y-100342000D01*
X169828000Y-100342000D02*
X173798000Y-100342000D01*
D20*
X199675000Y-121031000D02*
X198651451Y-121031000D01*
X198651451Y-111170000D01*
X198645659Y-111111190D01*
X198628504Y-111054640D01*
X198600647Y-111002523D01*
X198563158Y-110956842D01*
X198517477Y-110919353D01*
X198465360Y-110891496D01*
X198408810Y-110874341D01*
X198350000Y-110868549D01*
X197350000Y-110868549D01*
X197291190Y-110874341D01*
X197250000Y-110886836D01*
X197208810Y-110874341D01*
X197150000Y-110868549D01*
X196150000Y-110868549D01*
X196091190Y-110874341D01*
X196050000Y-110886836D01*
X196008810Y-110874341D01*
X195950000Y-110868549D01*
X194950000Y-110868549D01*
X194891190Y-110874341D01*
X194850000Y-110886836D01*
X194808810Y-110874341D01*
X194750000Y-110868549D01*
X193750000Y-110868549D01*
X193691190Y-110874341D01*
X193650000Y-110886836D01*
X193608810Y-110874341D01*
X193550000Y-110868549D01*
X192550000Y-110868549D01*
X192491190Y-110874341D01*
X192450000Y-110886836D01*
X192408810Y-110874341D01*
X192350000Y-110868549D01*
X191350000Y-110868549D01*
X191291190Y-110874341D01*
X191250000Y-110886836D01*
X191208810Y-110874341D01*
X191150000Y-110868549D01*
X190150000Y-110868549D01*
X190091190Y-110874341D01*
X190050000Y-110886836D01*
X190008810Y-110874341D01*
X189950000Y-110868549D01*
X188950000Y-110868549D01*
X188891190Y-110874341D01*
X188850000Y-110886836D01*
X188808810Y-110874341D01*
X188750000Y-110868549D01*
X187750000Y-110868549D01*
X187691190Y-110874341D01*
X187650000Y-110886836D01*
X187608810Y-110874341D01*
X187550000Y-110868549D01*
X186550000Y-110868549D01*
X186491190Y-110874341D01*
X186450000Y-110886836D01*
X186408810Y-110874341D01*
X186350000Y-110868549D01*
X185350000Y-110868549D01*
X185291190Y-110874341D01*
X185250000Y-110886836D01*
X185208810Y-110874341D01*
X185150000Y-110868549D01*
X184150000Y-110868549D01*
X184091190Y-110874341D01*
X184050000Y-110886836D01*
X184008810Y-110874341D01*
X183950000Y-110868549D01*
X182950000Y-110868549D01*
X182891190Y-110874341D01*
X182850000Y-110886836D01*
X182808810Y-110874341D01*
X182750000Y-110868549D01*
X181750000Y-110868549D01*
X181691190Y-110874341D01*
X181650000Y-110886836D01*
X181608810Y-110874341D01*
X181550000Y-110868549D01*
X180550000Y-110868549D01*
X180491190Y-110874341D01*
X180450000Y-110886836D01*
X180408810Y-110874341D01*
X180350000Y-110868549D01*
X179350000Y-110868549D01*
X179291190Y-110874341D01*
X179250000Y-110886836D01*
X179208810Y-110874341D01*
X179150000Y-110868549D01*
X178150000Y-110868549D01*
X178091190Y-110874341D01*
X178050000Y-110886836D01*
X178008810Y-110874341D01*
X177950000Y-110868549D01*
X176950000Y-110868549D01*
X176891190Y-110874341D01*
X176850000Y-110886836D01*
X176808810Y-110874341D01*
X176750000Y-110868549D01*
X175750000Y-110868549D01*
X175691190Y-110874341D01*
X175650000Y-110886836D01*
X175608810Y-110874341D01*
X175550000Y-110868549D01*
X174550000Y-110868549D01*
X174491190Y-110874341D01*
X174450000Y-110886836D01*
X174408810Y-110874341D01*
X174350000Y-110868549D01*
X173350000Y-110868549D01*
X173291190Y-110874341D01*
X173250000Y-110886836D01*
X173208810Y-110874341D01*
X173150000Y-110868549D01*
X172150000Y-110868549D01*
X172091190Y-110874341D01*
X172050000Y-110886836D01*
X172008810Y-110874341D01*
X171950000Y-110868549D01*
X170950000Y-110868549D01*
X170891190Y-110874341D01*
X170850000Y-110886836D01*
X170808810Y-110874341D01*
X170750000Y-110868549D01*
X169750000Y-110868549D01*
X169691190Y-110874341D01*
X169650000Y-110886836D01*
X169608810Y-110874341D01*
X169550000Y-110868549D01*
X168550000Y-110868549D01*
X168491190Y-110874341D01*
X168450000Y-110886836D01*
X168408810Y-110874341D01*
X168350000Y-110868549D01*
X167350000Y-110868549D01*
X167291190Y-110874341D01*
X167250000Y-110886836D01*
X167208810Y-110874341D01*
X167150000Y-110868549D01*
X166150000Y-110868549D01*
X166091190Y-110874341D01*
X166050000Y-110886836D01*
X166008810Y-110874341D01*
X165950000Y-110868549D01*
X164950000Y-110868549D01*
X164891190Y-110874341D01*
X164850000Y-110886836D01*
X164808810Y-110874341D01*
X164750000Y-110868549D01*
X163750000Y-110868549D01*
X163691190Y-110874341D01*
X163650000Y-110886836D01*
X163608810Y-110874341D01*
X163550000Y-110868549D01*
X162550000Y-110868549D01*
X162491190Y-110874341D01*
X162450000Y-110886836D01*
X162408810Y-110874341D01*
X162350000Y-110868549D01*
X161350000Y-110868549D01*
X161291190Y-110874341D01*
X161250000Y-110886836D01*
X161208810Y-110874341D01*
X161150000Y-110868549D01*
X160150000Y-110868549D01*
X160091190Y-110874341D01*
X160050000Y-110886836D01*
X160008810Y-110874341D01*
X159950000Y-110868549D01*
X158950000Y-110868549D01*
X158891190Y-110874341D01*
X158850000Y-110886836D01*
X158808810Y-110874341D01*
X158750000Y-110868549D01*
X157750000Y-110868549D01*
X157691190Y-110874341D01*
X157650000Y-110886836D01*
X157608810Y-110874341D01*
X157550000Y-110868549D01*
X156550000Y-110868549D01*
X156491190Y-110874341D01*
X156450000Y-110886836D01*
X156408810Y-110874341D01*
X156350000Y-110868549D01*
X155350000Y-110868549D01*
X155291190Y-110874341D01*
X155250000Y-110886836D01*
X155208810Y-110874341D01*
X155150000Y-110868549D01*
X154150000Y-110868549D01*
X154091190Y-110874341D01*
X154050000Y-110886836D01*
X154008810Y-110874341D01*
X153950000Y-110868549D01*
X152950000Y-110868549D01*
X152891190Y-110874341D01*
X152850000Y-110886836D01*
X152808810Y-110874341D01*
X152750000Y-110868549D01*
X151750000Y-110868549D01*
X151691190Y-110874341D01*
X151650000Y-110886836D01*
X151608810Y-110874341D01*
X151550000Y-110868549D01*
X150550000Y-110868549D01*
X150491190Y-110874341D01*
X150450000Y-110886836D01*
X150408810Y-110874341D01*
X150350000Y-110868549D01*
X149350000Y-110868549D01*
X149291190Y-110874341D01*
X149250000Y-110886836D01*
X149208810Y-110874341D01*
X149150000Y-110868549D01*
X148150000Y-110868549D01*
X148091190Y-110874341D01*
X148050000Y-110886836D01*
X148008810Y-110874341D01*
X147950000Y-110868549D01*
X146950000Y-110868549D01*
X146891190Y-110874341D01*
X146850000Y-110886836D01*
X146808810Y-110874341D01*
X146750000Y-110868549D01*
X145750000Y-110868549D01*
X145691190Y-110874341D01*
X145650000Y-110886836D01*
X145608810Y-110874341D01*
X145550000Y-110868549D01*
X144550000Y-110868549D01*
X144491190Y-110874341D01*
X144450000Y-110886836D01*
X144408810Y-110874341D01*
X144350000Y-110868549D01*
X143350000Y-110868549D01*
X143291190Y-110874341D01*
X143250000Y-110886836D01*
X143208810Y-110874341D01*
X143150000Y-110868549D01*
X142150000Y-110868549D01*
X142091190Y-110874341D01*
X142050000Y-110886836D01*
X142008810Y-110874341D01*
X141950000Y-110868549D01*
X140950000Y-110868549D01*
X140891190Y-110874341D01*
X140850000Y-110886836D01*
X140808810Y-110874341D01*
X140750000Y-110868549D01*
X139750000Y-110868549D01*
X139691190Y-110874341D01*
X139650000Y-110886836D01*
X139608810Y-110874341D01*
X139550000Y-110868549D01*
X138550000Y-110868549D01*
X138491190Y-110874341D01*
X138450000Y-110886836D01*
X138408810Y-110874341D01*
X138350000Y-110868549D01*
X137350000Y-110868549D01*
X137291190Y-110874341D01*
X137250000Y-110886836D01*
X137208810Y-110874341D01*
X137150000Y-110868549D01*
X136150000Y-110868549D01*
X136091190Y-110874341D01*
X136050000Y-110886836D01*
X136008810Y-110874341D01*
X135950000Y-110868549D01*
X134950000Y-110868549D01*
X134891190Y-110874341D01*
X134850000Y-110886836D01*
X134808810Y-110874341D01*
X134750000Y-110868549D01*
X133750000Y-110868549D01*
X133691190Y-110874341D01*
X133650000Y-110886836D01*
X133608810Y-110874341D01*
X133550000Y-110868549D01*
X132550000Y-110868549D01*
X132491190Y-110874341D01*
X132450000Y-110886836D01*
X132408810Y-110874341D01*
X132350000Y-110868549D01*
X131350000Y-110868549D01*
X131291190Y-110874341D01*
X131234640Y-110891496D01*
X131182523Y-110919353D01*
X131136842Y-110956842D01*
X131099353Y-111002523D01*
X131071496Y-111054640D01*
X131054341Y-111111190D01*
X131048549Y-111170000D01*
X131048549Y-121031000D01*
X113995000Y-121031000D01*
X113995000Y-112397056D01*
X116684000Y-112397056D01*
X116684000Y-112534944D01*
X116710901Y-112670182D01*
X116763668Y-112797574D01*
X116840274Y-112912224D01*
X116937776Y-113009726D01*
X117052426Y-113086332D01*
X117179818Y-113139099D01*
X117315056Y-113166000D01*
X117452944Y-113166000D01*
X117588182Y-113139099D01*
X117715574Y-113086332D01*
X117830224Y-113009726D01*
X117927726Y-112912224D01*
X117941907Y-112891000D01*
X120546093Y-112891000D01*
X120560274Y-112912224D01*
X120657776Y-113009726D01*
X120772426Y-113086332D01*
X120899818Y-113139099D01*
X121035056Y-113166000D01*
X121172944Y-113166000D01*
X121308182Y-113139099D01*
X121435574Y-113086332D01*
X121550224Y-113009726D01*
X121647726Y-112912224D01*
X121661907Y-112891000D01*
X124496093Y-112891000D01*
X124510274Y-112912224D01*
X124607776Y-113009726D01*
X124722426Y-113086332D01*
X124849818Y-113139099D01*
X124985056Y-113166000D01*
X125122944Y-113166000D01*
X125258182Y-113139099D01*
X125385574Y-113086332D01*
X125500224Y-113009726D01*
X125597726Y-112912224D01*
X125611907Y-112891000D01*
X128604093Y-112891000D01*
X128618274Y-112912224D01*
X128715776Y-113009726D01*
X128830426Y-113086332D01*
X128957818Y-113139099D01*
X129093056Y-113166000D01*
X129230944Y-113166000D01*
X129366182Y-113139099D01*
X129493574Y-113086332D01*
X129608224Y-113009726D01*
X129705726Y-112912224D01*
X129782332Y-112797574D01*
X129835099Y-112670182D01*
X129862000Y-112534944D01*
X129862000Y-112397056D01*
X129835099Y-112261818D01*
X129782332Y-112134426D01*
X129705726Y-112019776D01*
X129608224Y-111922274D01*
X129493574Y-111845668D01*
X129366182Y-111792901D01*
X129230944Y-111766000D01*
X129093056Y-111766000D01*
X128957818Y-111792901D01*
X128830426Y-111845668D01*
X128715776Y-111922274D01*
X128618274Y-112019776D01*
X128604093Y-112041000D01*
X125611907Y-112041000D01*
X125597726Y-112019776D01*
X125500224Y-111922274D01*
X125385574Y-111845668D01*
X125258182Y-111792901D01*
X125122944Y-111766000D01*
X124985056Y-111766000D01*
X124849818Y-111792901D01*
X124722426Y-111845668D01*
X124607776Y-111922274D01*
X124510274Y-112019776D01*
X124496093Y-112041000D01*
X121661907Y-112041000D01*
X121647726Y-112019776D01*
X121550224Y-111922274D01*
X121435574Y-111845668D01*
X121308182Y-111792901D01*
X121172944Y-111766000D01*
X121035056Y-111766000D01*
X120899818Y-111792901D01*
X120772426Y-111845668D01*
X120657776Y-111922274D01*
X120560274Y-112019776D01*
X120546093Y-112041000D01*
X117941907Y-112041000D01*
X117927726Y-112019776D01*
X117830224Y-111922274D01*
X117715574Y-111845668D01*
X117588182Y-111792901D01*
X117452944Y-111766000D01*
X117315056Y-111766000D01*
X117179818Y-111792901D01*
X117052426Y-111845668D01*
X116937776Y-111922274D01*
X116840274Y-112019776D01*
X116763668Y-112134426D01*
X116710901Y-112261818D01*
X116684000Y-112397056D01*
X113995000Y-112397056D01*
X113995000Y-107893056D01*
X114428000Y-107893056D01*
X114428000Y-108030944D01*
X114454901Y-108166182D01*
X114507668Y-108293574D01*
X114584274Y-108408224D01*
X114681776Y-108505726D01*
X114796426Y-108582332D01*
X114923818Y-108635099D01*
X115059056Y-108662000D01*
X115196944Y-108662000D01*
X115332182Y-108635099D01*
X115459574Y-108582332D01*
X115574224Y-108505726D01*
X115671726Y-108408224D01*
X115685907Y-108387000D01*
X124759133Y-108387000D01*
X124780000Y-108389055D01*
X124800867Y-108387000D01*
X124800874Y-108387000D01*
X124863314Y-108380850D01*
X124943427Y-108356548D01*
X125017260Y-108317084D01*
X125081974Y-108263974D01*
X125095283Y-108247757D01*
X127673763Y-105669278D01*
X127689974Y-105655974D01*
X127743084Y-105591260D01*
X127782548Y-105517427D01*
X127806850Y-105437314D01*
X127813000Y-105374874D01*
X127813000Y-105374867D01*
X127815055Y-105354000D01*
X127813000Y-105333133D01*
X127813000Y-104570000D01*
X135848549Y-104570000D01*
X135848549Y-109170000D01*
X135854341Y-109228810D01*
X135871496Y-109285360D01*
X135899353Y-109337477D01*
X135936842Y-109383158D01*
X135982523Y-109420647D01*
X136034640Y-109448504D01*
X136091190Y-109465659D01*
X136150000Y-109471451D01*
X193550000Y-109471451D01*
X193608810Y-109465659D01*
X193665360Y-109448504D01*
X193717477Y-109420647D01*
X193763158Y-109383158D01*
X193800647Y-109337477D01*
X193828504Y-109285360D01*
X193845659Y-109228810D01*
X193851451Y-109170000D01*
X193851451Y-104570000D01*
X193845659Y-104511190D01*
X193828504Y-104454640D01*
X193800647Y-104402523D01*
X193763158Y-104356842D01*
X193717477Y-104319353D01*
X193665360Y-104291496D01*
X193608810Y-104274341D01*
X193550000Y-104268549D01*
X136150000Y-104268549D01*
X136091190Y-104274341D01*
X136034640Y-104291496D01*
X135982523Y-104319353D01*
X135936842Y-104356842D01*
X135899353Y-104402523D01*
X135871496Y-104454640D01*
X135854341Y-104511190D01*
X135848549Y-104570000D01*
X127813000Y-104570000D01*
X127813000Y-103171056D01*
X131500000Y-103171056D01*
X131500000Y-103308944D01*
X131526901Y-103444182D01*
X131579668Y-103571574D01*
X131656274Y-103686224D01*
X131753776Y-103783726D01*
X131868426Y-103860332D01*
X131995818Y-103913099D01*
X132131056Y-103940000D01*
X132268944Y-103940000D01*
X132404182Y-103913099D01*
X132531574Y-103860332D01*
X132646224Y-103783726D01*
X132743726Y-103686224D01*
X132820332Y-103571574D01*
X132873099Y-103444182D01*
X132900000Y-103308944D01*
X132900000Y-103171056D01*
X132895020Y-103146020D01*
X133360280Y-102680761D01*
X133360285Y-102680755D01*
X133535280Y-102505760D01*
X133646041Y-102395000D01*
X138342093Y-102395000D01*
X138356274Y-102416224D01*
X138453776Y-102513726D01*
X138568426Y-102590332D01*
X138695818Y-102643099D01*
X138831056Y-102670000D01*
X138968944Y-102670000D01*
X139104182Y-102643099D01*
X139231574Y-102590332D01*
X139346224Y-102513726D01*
X139443726Y-102416224D01*
X139520332Y-102301574D01*
X139573099Y-102174182D01*
X139600000Y-102038944D01*
X139600000Y-101901056D01*
X139573099Y-101765818D01*
X139520332Y-101638426D01*
X139443726Y-101523776D01*
X139346224Y-101426274D01*
X139231574Y-101349668D01*
X139104182Y-101296901D01*
X138968944Y-101270000D01*
X138831056Y-101270000D01*
X138695818Y-101296901D01*
X138568426Y-101349668D01*
X138453776Y-101426274D01*
X138356274Y-101523776D01*
X138342093Y-101545000D01*
X133490867Y-101545000D01*
X133470000Y-101542945D01*
X133449133Y-101545000D01*
X133449126Y-101545000D01*
X133386686Y-101551150D01*
X133306572Y-101575452D01*
X133280855Y-101589199D01*
X133232740Y-101614916D01*
X133168026Y-101668026D01*
X133154721Y-101684238D01*
X132759244Y-102079716D01*
X132759239Y-102079720D01*
X132293980Y-102544980D01*
X132268944Y-102540000D01*
X132131056Y-102540000D01*
X131995818Y-102566901D01*
X131868426Y-102619668D01*
X131753776Y-102696274D01*
X131656274Y-102793776D01*
X131579668Y-102908426D01*
X131526901Y-103035818D01*
X131500000Y-103171056D01*
X127813000Y-103171056D01*
X127813000Y-100577907D01*
X127834224Y-100563726D01*
X127931726Y-100466224D01*
X128008332Y-100351574D01*
X128061099Y-100224182D01*
X128088000Y-100088944D01*
X128088000Y-99951056D01*
X128061099Y-99815818D01*
X128008332Y-99688426D01*
X127931726Y-99573776D01*
X127834224Y-99476274D01*
X127719574Y-99399668D01*
X127592182Y-99346901D01*
X127512526Y-99331056D01*
X133780000Y-99331056D01*
X133780000Y-99468944D01*
X133806901Y-99604182D01*
X133859668Y-99731574D01*
X133936274Y-99846224D01*
X134033776Y-99943726D01*
X134148426Y-100020332D01*
X134275818Y-100073099D01*
X134411056Y-100100000D01*
X134548944Y-100100000D01*
X134684182Y-100073099D01*
X134811574Y-100020332D01*
X134926224Y-99943726D01*
X135023726Y-99846224D01*
X135037907Y-99825000D01*
X139273960Y-99825000D01*
X140838721Y-101389762D01*
X140852026Y-101405974D01*
X140916740Y-101459084D01*
X140990573Y-101498548D01*
X141046383Y-101515478D01*
X141070685Y-101522850D01*
X141078327Y-101523603D01*
X141133126Y-101529000D01*
X141133133Y-101529000D01*
X141154000Y-101531055D01*
X141174867Y-101529000D01*
X142694011Y-101529000D01*
X142667668Y-101568426D01*
X142614901Y-101695818D01*
X142588000Y-101831056D01*
X142588000Y-101968944D01*
X142614901Y-102104182D01*
X142667668Y-102231574D01*
X142744274Y-102346224D01*
X142841776Y-102443726D01*
X142956426Y-102520332D01*
X143083818Y-102573099D01*
X143219056Y-102600000D01*
X143356944Y-102600000D01*
X143492182Y-102573099D01*
X143619574Y-102520332D01*
X143734224Y-102443726D01*
X143831726Y-102346224D01*
X143908332Y-102231574D01*
X143961099Y-102104182D01*
X143985998Y-101979010D01*
X167363524Y-101979008D01*
X167384401Y-101981064D01*
X167467715Y-101972859D01*
X167547828Y-101948556D01*
X167621661Y-101909092D01*
X167686375Y-101855982D01*
X167699680Y-101839770D01*
X168772450Y-100767000D01*
X173240093Y-100767000D01*
X173254274Y-100788224D01*
X173351776Y-100885726D01*
X173466426Y-100962332D01*
X173593818Y-101015099D01*
X173729056Y-101042000D01*
X173866944Y-101042000D01*
X174002182Y-101015099D01*
X174129574Y-100962332D01*
X174244224Y-100885726D01*
X174341726Y-100788224D01*
X174355907Y-100767000D01*
X191561133Y-100767000D01*
X191582000Y-100769055D01*
X191602867Y-100767000D01*
X191602874Y-100767000D01*
X191665314Y-100760850D01*
X191745427Y-100736548D01*
X191819260Y-100697084D01*
X191883974Y-100643974D01*
X191897283Y-100627757D01*
X191990520Y-100534520D01*
X192015556Y-100539500D01*
X192153444Y-100539500D01*
X192288682Y-100512599D01*
X192416074Y-100459832D01*
X192530724Y-100383226D01*
X192628226Y-100285724D01*
X192704832Y-100171074D01*
X192757599Y-100043682D01*
X192784500Y-99908444D01*
X192784500Y-99770556D01*
X192757599Y-99635318D01*
X192704832Y-99507926D01*
X192628226Y-99393276D01*
X192530724Y-99295774D01*
X192416074Y-99219168D01*
X192288682Y-99166401D01*
X192153444Y-99139500D01*
X192015556Y-99139500D01*
X191880318Y-99166401D01*
X191752926Y-99219168D01*
X191638276Y-99295774D01*
X191540774Y-99393276D01*
X191464168Y-99507926D01*
X191411401Y-99635318D01*
X191384500Y-99770556D01*
X191384500Y-99908444D01*
X191386202Y-99917000D01*
X175324448Y-99917000D01*
X175366682Y-99908599D01*
X175494074Y-99855832D01*
X175608724Y-99779226D01*
X175706226Y-99681724D01*
X175782832Y-99567074D01*
X175835599Y-99439682D01*
X175862500Y-99304444D01*
X175862500Y-99166556D01*
X175835599Y-99031318D01*
X175818692Y-98990500D01*
X179889032Y-98990500D01*
X179892894Y-99029707D01*
X179904330Y-99067407D01*
X179922901Y-99102152D01*
X179947894Y-99132606D01*
X179978348Y-99157599D01*
X180013093Y-99176170D01*
X180050793Y-99187606D01*
X180090000Y-99191468D01*
X180885000Y-99190500D01*
X180935000Y-99140500D01*
X180935000Y-98145500D01*
X180945000Y-98145500D01*
X180945000Y-99140500D01*
X180995000Y-99190500D01*
X181790000Y-99191468D01*
X181829207Y-99187606D01*
X181866907Y-99176170D01*
X181901652Y-99157599D01*
X181932106Y-99132606D01*
X181957099Y-99102152D01*
X181975670Y-99067407D01*
X181987106Y-99029707D01*
X181990968Y-98990500D01*
X181990000Y-98195500D01*
X181940000Y-98145500D01*
X180945000Y-98145500D01*
X180935000Y-98145500D01*
X179940000Y-98145500D01*
X179890000Y-98195500D01*
X179889032Y-98990500D01*
X175818692Y-98990500D01*
X175782832Y-98903926D01*
X175706226Y-98789276D01*
X175608724Y-98691774D01*
X175494074Y-98615168D01*
X175366682Y-98562401D01*
X175231444Y-98535500D01*
X175093556Y-98535500D01*
X174958318Y-98562401D01*
X174830926Y-98615168D01*
X174716276Y-98691774D01*
X174618774Y-98789276D01*
X174542168Y-98903926D01*
X174489401Y-99031318D01*
X174462500Y-99166556D01*
X174462500Y-99191999D01*
X173470865Y-99191999D01*
X173449998Y-99189944D01*
X173429131Y-99191999D01*
X173429125Y-99191999D01*
X173375097Y-99197320D01*
X173366684Y-99198149D01*
X173342382Y-99205521D01*
X173286572Y-99222451D01*
X173212739Y-99261915D01*
X173148025Y-99315025D01*
X173134715Y-99331243D01*
X172998968Y-99466990D01*
X168430877Y-99466990D01*
X168410010Y-99464935D01*
X168389143Y-99466990D01*
X168389136Y-99466990D01*
X168334337Y-99472387D01*
X168326695Y-99473140D01*
X168302393Y-99480512D01*
X168246583Y-99497442D01*
X168172750Y-99536906D01*
X168108036Y-99590016D01*
X168094731Y-99606228D01*
X167021960Y-100679000D01*
X143697473Y-100679000D01*
X143768224Y-100631726D01*
X143865726Y-100534224D01*
X143879907Y-100513000D01*
X165399133Y-100513000D01*
X165420000Y-100515055D01*
X165440867Y-100513000D01*
X165440874Y-100513000D01*
X165503314Y-100506850D01*
X165583427Y-100482548D01*
X165657260Y-100443084D01*
X165721974Y-100389974D01*
X165735284Y-100373756D01*
X168818540Y-97290500D01*
X179889032Y-97290500D01*
X179890000Y-98085500D01*
X179940000Y-98135500D01*
X180935000Y-98135500D01*
X180935000Y-97140500D01*
X180945000Y-97140500D01*
X180945000Y-98135500D01*
X181940000Y-98135500D01*
X181990000Y-98085500D01*
X181990968Y-97290500D01*
X181987106Y-97251293D01*
X181975670Y-97213593D01*
X181957099Y-97178848D01*
X181932106Y-97148394D01*
X181901652Y-97123401D01*
X181866907Y-97104830D01*
X181829207Y-97093394D01*
X181790000Y-97089532D01*
X180995000Y-97090500D01*
X180945000Y-97140500D01*
X180935000Y-97140500D01*
X180885000Y-97090500D01*
X180090000Y-97089532D01*
X180050793Y-97093394D01*
X180013093Y-97104830D01*
X179978348Y-97123401D01*
X179947894Y-97148394D01*
X179922901Y-97178848D01*
X179904330Y-97213593D01*
X179892894Y-97251293D01*
X179889032Y-97290500D01*
X168818540Y-97290500D01*
X170621805Y-95487235D01*
X179790000Y-95487235D01*
X179790000Y-95713765D01*
X179834194Y-95935943D01*
X179920884Y-96145229D01*
X180046737Y-96333582D01*
X180206918Y-96493763D01*
X180395271Y-96619616D01*
X180604557Y-96706306D01*
X180826735Y-96750500D01*
X181053265Y-96750500D01*
X181275443Y-96706306D01*
X181484729Y-96619616D01*
X181673082Y-96493763D01*
X181833263Y-96333582D01*
X181959116Y-96145229D01*
X182045806Y-95935943D01*
X182090000Y-95713765D01*
X182090000Y-95487235D01*
X182045806Y-95265057D01*
X181959116Y-95055771D01*
X181833263Y-94867418D01*
X181673082Y-94707237D01*
X181484729Y-94581384D01*
X181275443Y-94494694D01*
X181053265Y-94450500D01*
X180826735Y-94450500D01*
X180604557Y-94494694D01*
X180395271Y-94581384D01*
X180206918Y-94707237D01*
X180046737Y-94867418D01*
X179920884Y-95055771D01*
X179834194Y-95265057D01*
X179790000Y-95487235D01*
X170621805Y-95487235D01*
X173161805Y-92947235D01*
X179790000Y-92947235D01*
X179790000Y-93173765D01*
X179834194Y-93395943D01*
X179920884Y-93605229D01*
X180046737Y-93793582D01*
X180206918Y-93953763D01*
X180395271Y-94079616D01*
X180604557Y-94166306D01*
X180826735Y-94210500D01*
X181053265Y-94210500D01*
X181275443Y-94166306D01*
X181484729Y-94079616D01*
X181673082Y-93953763D01*
X181833263Y-93793582D01*
X181959116Y-93605229D01*
X182045806Y-93395943D01*
X182090000Y-93173765D01*
X182090000Y-92947235D01*
X182045806Y-92725057D01*
X181959116Y-92515771D01*
X181833263Y-92327418D01*
X181673082Y-92167237D01*
X181484729Y-92041384D01*
X181275443Y-91954694D01*
X181053265Y-91910500D01*
X180826735Y-91910500D01*
X180604557Y-91954694D01*
X180395271Y-92041384D01*
X180206918Y-92167237D01*
X180046737Y-92327418D01*
X179920884Y-92515771D01*
X179834194Y-92725057D01*
X179790000Y-92947235D01*
X173161805Y-92947235D01*
X173500041Y-92609000D01*
X176351133Y-92609000D01*
X176372000Y-92611055D01*
X176392867Y-92609000D01*
X176392874Y-92609000D01*
X176455314Y-92602850D01*
X176535427Y-92578548D01*
X176609260Y-92539084D01*
X176673974Y-92485974D01*
X176687283Y-92469757D01*
X179542041Y-89615000D01*
X180225232Y-89615000D01*
X180206918Y-89627237D01*
X180046737Y-89787418D01*
X179920884Y-89975771D01*
X179834194Y-90185057D01*
X179790000Y-90407235D01*
X179790000Y-90633765D01*
X179834194Y-90855943D01*
X179920884Y-91065229D01*
X180046737Y-91253582D01*
X180206918Y-91413763D01*
X180395271Y-91539616D01*
X180604557Y-91626306D01*
X180826735Y-91670500D01*
X181053265Y-91670500D01*
X181275443Y-91626306D01*
X181484729Y-91539616D01*
X181673082Y-91413763D01*
X181833263Y-91253582D01*
X181959116Y-91065229D01*
X182045806Y-90855943D01*
X182090000Y-90633765D01*
X182090000Y-90407235D01*
X182045806Y-90185057D01*
X181959116Y-89975771D01*
X181833263Y-89787418D01*
X181673082Y-89627237D01*
X181654768Y-89615000D01*
X185139133Y-89615000D01*
X185160000Y-89617055D01*
X185180867Y-89615000D01*
X185180874Y-89615000D01*
X185243314Y-89608850D01*
X185323427Y-89584548D01*
X185397260Y-89545084D01*
X185461974Y-89491974D01*
X185475284Y-89475756D01*
X186305758Y-88645282D01*
X186321974Y-88631974D01*
X186375084Y-88567260D01*
X186414548Y-88493427D01*
X186438850Y-88413314D01*
X186445000Y-88350874D01*
X186445000Y-88350867D01*
X186447055Y-88330000D01*
X186445000Y-88309133D01*
X186445000Y-87456960D01*
X186564729Y-87407366D01*
X186753082Y-87281513D01*
X186913263Y-87121332D01*
X187039116Y-86932979D01*
X187125806Y-86723693D01*
X187158875Y-86557443D01*
X187523721Y-86557443D01*
X187576641Y-86756360D01*
X187667351Y-86941131D01*
X187792365Y-87104655D01*
X187946879Y-87240648D01*
X188124955Y-87343883D01*
X188319749Y-87410394D01*
X188390807Y-87424529D01*
X188555000Y-87388237D01*
X188555000Y-86393250D01*
X188565000Y-86393250D01*
X188565000Y-87388237D01*
X188729193Y-87424529D01*
X188800251Y-87410394D01*
X188995045Y-87343883D01*
X189173121Y-87240648D01*
X189327635Y-87104655D01*
X189452649Y-86941131D01*
X189512529Y-86819158D01*
X195163884Y-86819158D01*
X195163884Y-87180842D01*
X195234445Y-87535575D01*
X195372855Y-87869727D01*
X195573796Y-88170456D01*
X195829544Y-88426204D01*
X196130273Y-88627145D01*
X196464425Y-88765555D01*
X196819158Y-88836116D01*
X197180842Y-88836116D01*
X197535575Y-88765555D01*
X197869727Y-88627145D01*
X198170456Y-88426204D01*
X198426204Y-88170456D01*
X198627145Y-87869727D01*
X198765555Y-87535575D01*
X198836116Y-87180842D01*
X198836116Y-86819158D01*
X198765555Y-86464425D01*
X198627145Y-86130273D01*
X198426204Y-85829544D01*
X198170456Y-85573796D01*
X197869727Y-85372855D01*
X197535575Y-85234445D01*
X197180842Y-85163884D01*
X196819158Y-85163884D01*
X196464425Y-85234445D01*
X196130273Y-85372855D01*
X195829544Y-85573796D01*
X195573796Y-85829544D01*
X195372855Y-86130273D01*
X195234445Y-86464425D01*
X195163884Y-86819158D01*
X189512529Y-86819158D01*
X189543359Y-86756360D01*
X189596279Y-86557443D01*
X189559988Y-86393250D01*
X188565000Y-86393250D01*
X188555000Y-86393250D01*
X187560012Y-86393250D01*
X187523721Y-86557443D01*
X187158875Y-86557443D01*
X187170000Y-86501515D01*
X187170000Y-86274985D01*
X187158876Y-86219057D01*
X187523721Y-86219057D01*
X187560012Y-86383250D01*
X188555000Y-86383250D01*
X188555000Y-85388263D01*
X188565000Y-85388263D01*
X188565000Y-86383250D01*
X189559988Y-86383250D01*
X189596279Y-86219057D01*
X189543359Y-86020140D01*
X189452649Y-85835369D01*
X189327635Y-85671845D01*
X189173121Y-85535852D01*
X188995045Y-85432617D01*
X188800251Y-85366106D01*
X188729193Y-85351971D01*
X188565000Y-85388263D01*
X188555000Y-85388263D01*
X188390807Y-85351971D01*
X188319749Y-85366106D01*
X188124955Y-85432617D01*
X187946879Y-85535852D01*
X187792365Y-85671845D01*
X187667351Y-85835369D01*
X187576641Y-86020140D01*
X187523721Y-86219057D01*
X187158876Y-86219057D01*
X187125806Y-86052807D01*
X187039116Y-85843521D01*
X186913263Y-85655168D01*
X186753082Y-85494987D01*
X186564729Y-85369134D01*
X186355443Y-85282444D01*
X186133265Y-85238250D01*
X185906735Y-85238250D01*
X185684557Y-85282444D01*
X185475271Y-85369134D01*
X185286918Y-85494987D01*
X185126737Y-85655168D01*
X185000884Y-85843521D01*
X184914194Y-86052807D01*
X184870000Y-86274985D01*
X184870000Y-86501515D01*
X184914194Y-86723693D01*
X185000884Y-86932979D01*
X185126737Y-87121332D01*
X185286918Y-87281513D01*
X185475271Y-87407366D01*
X185595000Y-87456960D01*
X185595000Y-88153960D01*
X184983960Y-88765000D01*
X183476040Y-88765000D01*
X183765763Y-88475278D01*
X183781974Y-88461974D01*
X183835084Y-88397260D01*
X183874548Y-88323427D01*
X183898850Y-88243314D01*
X183905000Y-88180874D01*
X183905000Y-88180868D01*
X183907055Y-88160001D01*
X183905000Y-88139134D01*
X183905000Y-87456960D01*
X184024729Y-87407366D01*
X184213082Y-87281513D01*
X184373263Y-87121332D01*
X184499116Y-86932979D01*
X184585806Y-86723693D01*
X184630000Y-86501515D01*
X184630000Y-86274985D01*
X184585806Y-86052807D01*
X184499116Y-85843521D01*
X184373263Y-85655168D01*
X184213082Y-85494987D01*
X184024729Y-85369134D01*
X183815443Y-85282444D01*
X183593265Y-85238250D01*
X183366735Y-85238250D01*
X183144557Y-85282444D01*
X182935271Y-85369134D01*
X182746918Y-85494987D01*
X182586737Y-85655168D01*
X182460884Y-85843521D01*
X182374194Y-86052807D01*
X182330000Y-86274985D01*
X182330000Y-86501515D01*
X182374194Y-86723693D01*
X182460884Y-86932979D01*
X182586737Y-87121332D01*
X182746918Y-87281513D01*
X182935271Y-87407366D01*
X183055000Y-87456960D01*
X183055000Y-87983959D01*
X182805960Y-88233000D01*
X179282457Y-88233000D01*
X179261590Y-88230945D01*
X179240723Y-88233000D01*
X179240716Y-88233000D01*
X179185917Y-88238397D01*
X179178275Y-88239150D01*
X179153973Y-88246522D01*
X179098163Y-88263452D01*
X179024330Y-88302916D01*
X178959616Y-88356026D01*
X178946311Y-88372238D01*
X176023550Y-91295000D01*
X175530867Y-91295000D01*
X175510000Y-91292945D01*
X175489133Y-91295000D01*
X175489126Y-91295000D01*
X175426686Y-91301150D01*
X175400841Y-91308990D01*
X173158467Y-91308990D01*
X173137600Y-91306935D01*
X173116733Y-91308990D01*
X173116726Y-91308990D01*
X173061927Y-91314387D01*
X173054285Y-91315140D01*
X173029983Y-91322512D01*
X172974173Y-91339442D01*
X172900340Y-91378906D01*
X172880730Y-91395000D01*
X172852673Y-91418026D01*
X172835626Y-91432016D01*
X172822321Y-91448228D01*
X165057560Y-99212990D01*
X145791235Y-99212990D01*
X145773099Y-99121818D01*
X145720332Y-98994426D01*
X145643726Y-98879776D01*
X145546224Y-98782274D01*
X145431574Y-98705668D01*
X145304182Y-98652901D01*
X145168944Y-98626000D01*
X145031056Y-98626000D01*
X144895818Y-98652901D01*
X144768426Y-98705668D01*
X144653776Y-98782274D01*
X144556274Y-98879776D01*
X144479668Y-98994426D01*
X144426901Y-99121818D01*
X144400000Y-99257056D01*
X144400000Y-99394944D01*
X144426901Y-99530182D01*
X144479668Y-99657574D01*
X144483294Y-99663000D01*
X143879907Y-99663000D01*
X143865726Y-99641776D01*
X143768224Y-99544274D01*
X143653574Y-99467668D01*
X143526182Y-99414901D01*
X143390944Y-99388000D01*
X143253056Y-99388000D01*
X143117818Y-99414901D01*
X142990426Y-99467668D01*
X142875776Y-99544274D01*
X142778274Y-99641776D01*
X142701668Y-99756426D01*
X142648901Y-99883818D01*
X142622000Y-100019056D01*
X142622000Y-100156944D01*
X142648901Y-100292182D01*
X142701668Y-100419574D01*
X142778274Y-100534224D01*
X142875776Y-100631726D01*
X142946527Y-100679000D01*
X141330041Y-100679000D01*
X139765283Y-99114243D01*
X139751974Y-99098026D01*
X139687260Y-99044916D01*
X139613427Y-99005452D01*
X139533314Y-98981150D01*
X139470874Y-98975000D01*
X139470867Y-98975000D01*
X139450000Y-98972945D01*
X139429133Y-98975000D01*
X135037907Y-98975000D01*
X135023726Y-98953776D01*
X134926224Y-98856274D01*
X134811574Y-98779668D01*
X134684182Y-98726901D01*
X134548944Y-98700000D01*
X134411056Y-98700000D01*
X134275818Y-98726901D01*
X134148426Y-98779668D01*
X134033776Y-98856274D01*
X133936274Y-98953776D01*
X133859668Y-99068426D01*
X133806901Y-99195818D01*
X133780000Y-99331056D01*
X127512526Y-99331056D01*
X127456944Y-99320000D01*
X127319056Y-99320000D01*
X127183818Y-99346901D01*
X127056426Y-99399668D01*
X126941776Y-99476274D01*
X126844274Y-99573776D01*
X126767668Y-99688426D01*
X126714901Y-99815818D01*
X126688000Y-99951056D01*
X126688000Y-100088944D01*
X126714901Y-100224182D01*
X126767668Y-100351574D01*
X126844274Y-100466224D01*
X126941776Y-100563726D01*
X126963001Y-100577908D01*
X126963000Y-105177959D01*
X124603960Y-107537000D01*
X115685907Y-107537000D01*
X115671726Y-107515776D01*
X115574224Y-107418274D01*
X115459574Y-107341668D01*
X115332182Y-107288901D01*
X115196944Y-107262000D01*
X115059056Y-107262000D01*
X114923818Y-107288901D01*
X114796426Y-107341668D01*
X114681776Y-107418274D01*
X114584274Y-107515776D01*
X114507668Y-107630426D01*
X114454901Y-107757818D01*
X114428000Y-107893056D01*
X113995000Y-107893056D01*
X113995000Y-93236056D01*
X136955000Y-93236056D01*
X136955000Y-93373944D01*
X136981901Y-93509182D01*
X137034668Y-93636574D01*
X137111274Y-93751224D01*
X137208776Y-93848726D01*
X137230000Y-93862907D01*
X137230001Y-96227092D01*
X137208776Y-96241274D01*
X137111274Y-96338776D01*
X137034668Y-96453426D01*
X136981901Y-96580818D01*
X136955000Y-96716056D01*
X136955000Y-96853944D01*
X136981901Y-96989182D01*
X137034668Y-97116574D01*
X137111274Y-97231224D01*
X137208776Y-97328726D01*
X137323426Y-97405332D01*
X137450818Y-97458099D01*
X137586056Y-97485000D01*
X137723944Y-97485000D01*
X137859182Y-97458099D01*
X137986574Y-97405332D01*
X138101224Y-97328726D01*
X138198726Y-97231224D01*
X138275332Y-97116574D01*
X138328099Y-96989182D01*
X138355000Y-96853944D01*
X138355000Y-96716056D01*
X138328099Y-96580818D01*
X138275332Y-96453426D01*
X138198726Y-96338776D01*
X138101224Y-96241274D01*
X138080000Y-96227093D01*
X138080000Y-93862907D01*
X138101224Y-93848726D01*
X138198726Y-93751224D01*
X138275332Y-93636574D01*
X138328099Y-93509182D01*
X138355000Y-93373944D01*
X138355000Y-93236056D01*
X138328099Y-93100818D01*
X138275332Y-92973426D01*
X138198726Y-92858776D01*
X138101224Y-92761274D01*
X137986574Y-92684668D01*
X137859182Y-92631901D01*
X137723944Y-92605000D01*
X137586056Y-92605000D01*
X137450818Y-92631901D01*
X137323426Y-92684668D01*
X137208776Y-92761274D01*
X137111274Y-92858776D01*
X137034668Y-92973426D01*
X136981901Y-93100818D01*
X136955000Y-93236056D01*
X113995000Y-93236056D01*
X113995000Y-90845000D01*
X151828000Y-90845000D01*
X151828000Y-91395000D01*
X151842426Y-91531467D01*
X151883198Y-91662498D01*
X151948749Y-91783057D01*
X152036561Y-91888511D01*
X152143259Y-91974807D01*
X152264742Y-92038629D01*
X152396342Y-92077525D01*
X152413560Y-92080582D01*
X152523000Y-92039981D01*
X152523000Y-90845000D01*
X152533000Y-90845000D01*
X152533000Y-92039981D01*
X152642440Y-92080582D01*
X152659658Y-92077525D01*
X152791258Y-92038629D01*
X152912741Y-91974807D01*
X153019439Y-91888511D01*
X153107251Y-91783057D01*
X153172802Y-91662498D01*
X153213574Y-91531467D01*
X153228000Y-91395000D01*
X153228000Y-90845000D01*
X152533000Y-90845000D01*
X152523000Y-90845000D01*
X151828000Y-90845000D01*
X113995000Y-90845000D01*
X113995000Y-90285000D01*
X151828000Y-90285000D01*
X151828000Y-90835000D01*
X152523000Y-90835000D01*
X152523000Y-89640019D01*
X152533000Y-89640019D01*
X152533000Y-90835000D01*
X153228000Y-90835000D01*
X153228000Y-90285000D01*
X153224136Y-90248443D01*
X153333000Y-90248443D01*
X153333000Y-90371557D01*
X153357019Y-90492306D01*
X153404132Y-90606048D01*
X153472531Y-90708414D01*
X153559586Y-90795469D01*
X153661952Y-90863868D01*
X153775694Y-90910981D01*
X153896443Y-90935000D01*
X154019557Y-90935000D01*
X154140306Y-90910981D01*
X154254048Y-90863868D01*
X154356414Y-90795469D01*
X154443469Y-90708414D01*
X154511868Y-90606048D01*
X154558981Y-90492306D01*
X154583000Y-90371557D01*
X154583000Y-90248443D01*
X159113000Y-90248443D01*
X159113000Y-90371557D01*
X159137019Y-90492306D01*
X159184132Y-90606048D01*
X159252531Y-90708414D01*
X159339586Y-90795469D01*
X159441952Y-90863868D01*
X159555694Y-90910981D01*
X159676443Y-90935000D01*
X159799557Y-90935000D01*
X159920306Y-90910981D01*
X160034048Y-90863868D01*
X160062285Y-90845000D01*
X160468000Y-90845000D01*
X160468000Y-91395000D01*
X160482426Y-91531467D01*
X160523198Y-91662498D01*
X160588749Y-91783057D01*
X160676561Y-91888511D01*
X160783259Y-91974807D01*
X160904742Y-92038629D01*
X161036342Y-92077525D01*
X161053560Y-92080582D01*
X161163000Y-92039981D01*
X161163000Y-90845000D01*
X161173000Y-90845000D01*
X161173000Y-92039981D01*
X161282440Y-92080582D01*
X161299658Y-92077525D01*
X161431258Y-92038629D01*
X161552741Y-91974807D01*
X161659439Y-91888511D01*
X161747251Y-91783057D01*
X161812802Y-91662498D01*
X161853574Y-91531467D01*
X161868000Y-91395000D01*
X161868000Y-90845000D01*
X161173000Y-90845000D01*
X161163000Y-90845000D01*
X160468000Y-90845000D01*
X160062285Y-90845000D01*
X160136414Y-90795469D01*
X160223469Y-90708414D01*
X160291868Y-90606048D01*
X160338981Y-90492306D01*
X160363000Y-90371557D01*
X160363000Y-90285000D01*
X160468000Y-90285000D01*
X160468000Y-90835000D01*
X161163000Y-90835000D01*
X161163000Y-89640019D01*
X161173000Y-89640019D01*
X161173000Y-90835000D01*
X161868000Y-90835000D01*
X161868000Y-90285000D01*
X161853574Y-90148533D01*
X161812802Y-90017502D01*
X161747251Y-89896943D01*
X161659439Y-89791489D01*
X161552741Y-89705193D01*
X161431258Y-89641371D01*
X161299658Y-89602475D01*
X161282440Y-89599418D01*
X161173000Y-89640019D01*
X161163000Y-89640019D01*
X161053560Y-89599418D01*
X161036342Y-89602475D01*
X160904742Y-89641371D01*
X160783259Y-89705193D01*
X160676561Y-89791489D01*
X160588749Y-89896943D01*
X160523198Y-90017502D01*
X160482426Y-90148533D01*
X160468000Y-90285000D01*
X160363000Y-90285000D01*
X160363000Y-90248443D01*
X160338981Y-90127694D01*
X160291868Y-90013952D01*
X160223469Y-89911586D01*
X160136414Y-89824531D01*
X160034048Y-89756132D01*
X159920306Y-89709019D01*
X159799557Y-89685000D01*
X159676443Y-89685000D01*
X159555694Y-89709019D01*
X159441952Y-89756132D01*
X159339586Y-89824531D01*
X159252531Y-89911586D01*
X159184132Y-90013952D01*
X159137019Y-90127694D01*
X159113000Y-90248443D01*
X154583000Y-90248443D01*
X154558981Y-90127694D01*
X154511868Y-90013952D01*
X154443469Y-89911586D01*
X154356414Y-89824531D01*
X154254048Y-89756132D01*
X154140306Y-89709019D01*
X154019557Y-89685000D01*
X153896443Y-89685000D01*
X153775694Y-89709019D01*
X153661952Y-89756132D01*
X153559586Y-89824531D01*
X153472531Y-89911586D01*
X153404132Y-90013952D01*
X153357019Y-90127694D01*
X153333000Y-90248443D01*
X153224136Y-90248443D01*
X153213574Y-90148533D01*
X153172802Y-90017502D01*
X153107251Y-89896943D01*
X153019439Y-89791489D01*
X152912741Y-89705193D01*
X152791258Y-89641371D01*
X152659658Y-89602475D01*
X152642440Y-89599418D01*
X152533000Y-89640019D01*
X152523000Y-89640019D01*
X152413560Y-89599418D01*
X152396342Y-89602475D01*
X152264742Y-89641371D01*
X152143259Y-89705193D01*
X152036561Y-89791489D01*
X151948749Y-89896943D01*
X151883198Y-90017502D01*
X151842426Y-90148533D01*
X151828000Y-90285000D01*
X113995000Y-90285000D01*
X113995000Y-86819158D01*
X114833884Y-86819158D01*
X114833884Y-87180842D01*
X114904445Y-87535575D01*
X115042855Y-87869727D01*
X115243796Y-88170456D01*
X115499544Y-88426204D01*
X115800273Y-88627145D01*
X116134425Y-88765555D01*
X116489158Y-88836116D01*
X116850842Y-88836116D01*
X117205575Y-88765555D01*
X117539727Y-88627145D01*
X117840456Y-88426204D01*
X118026660Y-88240000D01*
X129998549Y-88240000D01*
X129998549Y-89940000D01*
X130004341Y-89998810D01*
X130021496Y-90055360D01*
X130049353Y-90107477D01*
X130086842Y-90153158D01*
X130132523Y-90190647D01*
X130184640Y-90218504D01*
X130241190Y-90235659D01*
X130300000Y-90241451D01*
X132000000Y-90241451D01*
X132058810Y-90235659D01*
X132115360Y-90218504D01*
X132167477Y-90190647D01*
X132213158Y-90153158D01*
X132250647Y-90107477D01*
X132278504Y-90055360D01*
X132295659Y-89998810D01*
X132301451Y-89940000D01*
X132301451Y-88976735D01*
X132540000Y-88976735D01*
X132540000Y-89203265D01*
X132584194Y-89425443D01*
X132670884Y-89634729D01*
X132796737Y-89823082D01*
X132956918Y-89983263D01*
X133145271Y-90109116D01*
X133354557Y-90195806D01*
X133576735Y-90240000D01*
X133803265Y-90240000D01*
X134025443Y-90195806D01*
X134234729Y-90109116D01*
X134423082Y-89983263D01*
X134583263Y-89823082D01*
X134709116Y-89634729D01*
X134795806Y-89425443D01*
X134828875Y-89259193D01*
X135193721Y-89259193D01*
X135246641Y-89458110D01*
X135337351Y-89642881D01*
X135462365Y-89806405D01*
X135616879Y-89942398D01*
X135794955Y-90045633D01*
X135989749Y-90112144D01*
X136060807Y-90126279D01*
X136225000Y-90089987D01*
X136225000Y-89095000D01*
X136235000Y-89095000D01*
X136235000Y-90089987D01*
X136399193Y-90126279D01*
X136470251Y-90112144D01*
X136665045Y-90045633D01*
X136843121Y-89942398D01*
X136997635Y-89806405D01*
X137122649Y-89642881D01*
X137213359Y-89458110D01*
X137266279Y-89259193D01*
X137733721Y-89259193D01*
X137786641Y-89458110D01*
X137877351Y-89642881D01*
X138002365Y-89806405D01*
X138156879Y-89942398D01*
X138334955Y-90045633D01*
X138529749Y-90112144D01*
X138600807Y-90126279D01*
X138765000Y-90089987D01*
X138765000Y-89095000D01*
X138775000Y-89095000D01*
X138775000Y-90089987D01*
X138939193Y-90126279D01*
X139010251Y-90112144D01*
X139205045Y-90045633D01*
X139383121Y-89942398D01*
X139537635Y-89806405D01*
X139662649Y-89642881D01*
X139753359Y-89458110D01*
X139806279Y-89259193D01*
X139769988Y-89095000D01*
X138775000Y-89095000D01*
X138765000Y-89095000D01*
X137770012Y-89095000D01*
X137733721Y-89259193D01*
X137266279Y-89259193D01*
X137229988Y-89095000D01*
X136235000Y-89095000D01*
X136225000Y-89095000D01*
X135230012Y-89095000D01*
X135193721Y-89259193D01*
X134828875Y-89259193D01*
X134840000Y-89203265D01*
X134840000Y-88976735D01*
X134828876Y-88920807D01*
X135193721Y-88920807D01*
X135230012Y-89085000D01*
X136225000Y-89085000D01*
X136225000Y-88090013D01*
X136235000Y-88090013D01*
X136235000Y-89085000D01*
X137229988Y-89085000D01*
X137266279Y-88920807D01*
X137733721Y-88920807D01*
X137770012Y-89085000D01*
X138765000Y-89085000D01*
X138765000Y-88090013D01*
X138775000Y-88090013D01*
X138775000Y-89085000D01*
X139769988Y-89085000D01*
X139793917Y-88976735D01*
X140160000Y-88976735D01*
X140160000Y-89203265D01*
X140204194Y-89425443D01*
X140290884Y-89634729D01*
X140416737Y-89823082D01*
X140576918Y-89983263D01*
X140765271Y-90109116D01*
X140974557Y-90195806D01*
X141196735Y-90240000D01*
X141423265Y-90240000D01*
X141645443Y-90195806D01*
X141854729Y-90109116D01*
X142043082Y-89983263D01*
X142203263Y-89823082D01*
X142329116Y-89634729D01*
X142415806Y-89425443D01*
X142460000Y-89203265D01*
X142460000Y-88976735D01*
X142415806Y-88754557D01*
X142329116Y-88545271D01*
X142203263Y-88356918D01*
X142043082Y-88196737D01*
X141854729Y-88070884D01*
X141645443Y-87984194D01*
X141423265Y-87940000D01*
X141196735Y-87940000D01*
X140974557Y-87984194D01*
X140765271Y-88070884D01*
X140576918Y-88196737D01*
X140416737Y-88356918D01*
X140290884Y-88545271D01*
X140204194Y-88754557D01*
X140160000Y-88976735D01*
X139793917Y-88976735D01*
X139806279Y-88920807D01*
X139753359Y-88721890D01*
X139662649Y-88537119D01*
X139537635Y-88373595D01*
X139383121Y-88237602D01*
X139205045Y-88134367D01*
X139010251Y-88067856D01*
X138939193Y-88053721D01*
X138775000Y-88090013D01*
X138765000Y-88090013D01*
X138600807Y-88053721D01*
X138529749Y-88067856D01*
X138334955Y-88134367D01*
X138156879Y-88237602D01*
X138002365Y-88373595D01*
X137877351Y-88537119D01*
X137786641Y-88721890D01*
X137733721Y-88920807D01*
X137266279Y-88920807D01*
X137213359Y-88721890D01*
X137122649Y-88537119D01*
X136997635Y-88373595D01*
X136843121Y-88237602D01*
X136665045Y-88134367D01*
X136470251Y-88067856D01*
X136399193Y-88053721D01*
X136235000Y-88090013D01*
X136225000Y-88090013D01*
X136060807Y-88053721D01*
X135989749Y-88067856D01*
X135794955Y-88134367D01*
X135616879Y-88237602D01*
X135462365Y-88373595D01*
X135337351Y-88537119D01*
X135246641Y-88721890D01*
X135193721Y-88920807D01*
X134828876Y-88920807D01*
X134795806Y-88754557D01*
X134709116Y-88545271D01*
X134583263Y-88356918D01*
X134423082Y-88196737D01*
X134234729Y-88070884D01*
X134025443Y-87984194D01*
X133803265Y-87940000D01*
X133576735Y-87940000D01*
X133354557Y-87984194D01*
X133145271Y-88070884D01*
X132956918Y-88196737D01*
X132796737Y-88356918D01*
X132670884Y-88545271D01*
X132584194Y-88754557D01*
X132540000Y-88976735D01*
X132301451Y-88976735D01*
X132301451Y-88240000D01*
X132295659Y-88181190D01*
X132278504Y-88124640D01*
X132250647Y-88072523D01*
X132213158Y-88026842D01*
X132167477Y-87989353D01*
X132115360Y-87961496D01*
X132058810Y-87944341D01*
X132000000Y-87938549D01*
X130300000Y-87938549D01*
X130241190Y-87944341D01*
X130184640Y-87961496D01*
X130132523Y-87989353D01*
X130086842Y-88026842D01*
X130049353Y-88072523D01*
X130021496Y-88124640D01*
X130004341Y-88181190D01*
X129998549Y-88240000D01*
X118026660Y-88240000D01*
X118096204Y-88170456D01*
X118297145Y-87869727D01*
X118435555Y-87535575D01*
X118506116Y-87180842D01*
X118506116Y-86819158D01*
X118435555Y-86464425D01*
X118424086Y-86436735D01*
X130000000Y-86436735D01*
X130000000Y-86663265D01*
X130044194Y-86885443D01*
X130130884Y-87094729D01*
X130256737Y-87283082D01*
X130416918Y-87443263D01*
X130605271Y-87569116D01*
X130814557Y-87655806D01*
X131036735Y-87700000D01*
X131263265Y-87700000D01*
X131485443Y-87655806D01*
X131694729Y-87569116D01*
X131883082Y-87443263D01*
X132043263Y-87283082D01*
X132169116Y-87094729D01*
X132255806Y-86885443D01*
X132300000Y-86663265D01*
X132300000Y-86436735D01*
X132540000Y-86436735D01*
X132540000Y-86663265D01*
X132584194Y-86885443D01*
X132670884Y-87094729D01*
X132796737Y-87283082D01*
X132956918Y-87443263D01*
X133145271Y-87569116D01*
X133354557Y-87655806D01*
X133576735Y-87700000D01*
X133803265Y-87700000D01*
X134025443Y-87655806D01*
X134234729Y-87569116D01*
X134423082Y-87443263D01*
X134583263Y-87283082D01*
X134709116Y-87094729D01*
X134795806Y-86885443D01*
X134828875Y-86719193D01*
X135193721Y-86719193D01*
X135246641Y-86918110D01*
X135337351Y-87102881D01*
X135462365Y-87266405D01*
X135616879Y-87402398D01*
X135794955Y-87505633D01*
X135989749Y-87572144D01*
X136060807Y-87586279D01*
X136225000Y-87549987D01*
X136225000Y-86555000D01*
X136235000Y-86555000D01*
X136235000Y-87549987D01*
X136399193Y-87586279D01*
X136470251Y-87572144D01*
X136665045Y-87505633D01*
X136843121Y-87402398D01*
X136997635Y-87266405D01*
X137122649Y-87102881D01*
X137213359Y-86918110D01*
X137266279Y-86719193D01*
X137229988Y-86555000D01*
X136235000Y-86555000D01*
X136225000Y-86555000D01*
X135230012Y-86555000D01*
X135193721Y-86719193D01*
X134828875Y-86719193D01*
X134840000Y-86663265D01*
X134840000Y-86436735D01*
X134828876Y-86380807D01*
X135193721Y-86380807D01*
X135230012Y-86545000D01*
X136225000Y-86545000D01*
X136225000Y-85550013D01*
X136235000Y-85550013D01*
X136235000Y-86545000D01*
X137229988Y-86545000D01*
X137253917Y-86436735D01*
X137620000Y-86436735D01*
X137620000Y-86663265D01*
X137664194Y-86885443D01*
X137750884Y-87094729D01*
X137876737Y-87283082D01*
X138036918Y-87443263D01*
X138225271Y-87569116D01*
X138434557Y-87655806D01*
X138656735Y-87700000D01*
X138883265Y-87700000D01*
X139105443Y-87655806D01*
X139314729Y-87569116D01*
X139503082Y-87443263D01*
X139663263Y-87283082D01*
X139789116Y-87094729D01*
X139875806Y-86885443D01*
X139920000Y-86663265D01*
X139920000Y-86436735D01*
X140160000Y-86436735D01*
X140160000Y-86663265D01*
X140204194Y-86885443D01*
X140290884Y-87094729D01*
X140416737Y-87283082D01*
X140576918Y-87443263D01*
X140765271Y-87569116D01*
X140974557Y-87655806D01*
X141196735Y-87700000D01*
X141423265Y-87700000D01*
X141645443Y-87655806D01*
X141854729Y-87569116D01*
X142043082Y-87443263D01*
X142203263Y-87283082D01*
X142329116Y-87094729D01*
X142415806Y-86885443D01*
X142459654Y-86665000D01*
X151828000Y-86665000D01*
X151828000Y-86965000D01*
X151842426Y-87101467D01*
X151883198Y-87232498D01*
X151948749Y-87353057D01*
X152036561Y-87458511D01*
X152143259Y-87544807D01*
X152264742Y-87608629D01*
X152396342Y-87647525D01*
X152413560Y-87650582D01*
X152523000Y-87609981D01*
X152523000Y-86665000D01*
X152533000Y-86665000D01*
X152533000Y-87609981D01*
X152642440Y-87650582D01*
X152659658Y-87647525D01*
X152791258Y-87608629D01*
X152912741Y-87544807D01*
X153019439Y-87458511D01*
X153107251Y-87353057D01*
X153172802Y-87232498D01*
X153213574Y-87101467D01*
X153228000Y-86965000D01*
X153228000Y-86665000D01*
X160468000Y-86665000D01*
X160468000Y-86965000D01*
X160482426Y-87101467D01*
X160523198Y-87232498D01*
X160588749Y-87353057D01*
X160676561Y-87458511D01*
X160783259Y-87544807D01*
X160904742Y-87608629D01*
X161036342Y-87647525D01*
X161053560Y-87650582D01*
X161163000Y-87609981D01*
X161163000Y-86665000D01*
X161173000Y-86665000D01*
X161173000Y-87609981D01*
X161282440Y-87650582D01*
X161299658Y-87647525D01*
X161431258Y-87608629D01*
X161552741Y-87544807D01*
X161659439Y-87458511D01*
X161747251Y-87353057D01*
X161812802Y-87232498D01*
X161853574Y-87101467D01*
X161868000Y-86965000D01*
X161868000Y-86665000D01*
X161173000Y-86665000D01*
X161163000Y-86665000D01*
X160468000Y-86665000D01*
X153228000Y-86665000D01*
X152533000Y-86665000D01*
X152523000Y-86665000D01*
X151828000Y-86665000D01*
X142459654Y-86665000D01*
X142460000Y-86663265D01*
X142460000Y-86436735D01*
X142443742Y-86355000D01*
X151828000Y-86355000D01*
X151828000Y-86655000D01*
X152523000Y-86655000D01*
X152523000Y-85710019D01*
X152533000Y-85710019D01*
X152533000Y-86655000D01*
X153228000Y-86655000D01*
X153228000Y-86355000D01*
X160468000Y-86355000D01*
X160468000Y-86655000D01*
X161163000Y-86655000D01*
X161163000Y-85710019D01*
X161173000Y-85710019D01*
X161173000Y-86655000D01*
X161868000Y-86655000D01*
X161868000Y-86355000D01*
X161853574Y-86218533D01*
X161812802Y-86087502D01*
X161747251Y-85966943D01*
X161659439Y-85861489D01*
X161552741Y-85775193D01*
X161431258Y-85711371D01*
X161299658Y-85672475D01*
X161282440Y-85669418D01*
X161173000Y-85710019D01*
X161163000Y-85710019D01*
X161053560Y-85669418D01*
X161036342Y-85672475D01*
X160904742Y-85711371D01*
X160783259Y-85775193D01*
X160676561Y-85861489D01*
X160588749Y-85966943D01*
X160523198Y-86087502D01*
X160482426Y-86218533D01*
X160468000Y-86355000D01*
X153228000Y-86355000D01*
X153213574Y-86218533D01*
X153172802Y-86087502D01*
X153107251Y-85966943D01*
X153019439Y-85861489D01*
X152912741Y-85775193D01*
X152791258Y-85711371D01*
X152659658Y-85672475D01*
X152642440Y-85669418D01*
X152533000Y-85710019D01*
X152523000Y-85710019D01*
X152413560Y-85669418D01*
X152396342Y-85672475D01*
X152264742Y-85711371D01*
X152143259Y-85775193D01*
X152036561Y-85861489D01*
X151948749Y-85966943D01*
X151883198Y-86087502D01*
X151842426Y-86218533D01*
X151828000Y-86355000D01*
X142443742Y-86355000D01*
X142415806Y-86214557D01*
X142329116Y-86005271D01*
X142203263Y-85816918D01*
X142043082Y-85656737D01*
X141865754Y-85538250D01*
X179788549Y-85538250D01*
X179788549Y-87238250D01*
X179794341Y-87297060D01*
X179811496Y-87353610D01*
X179839353Y-87405727D01*
X179876842Y-87451408D01*
X179922523Y-87488897D01*
X179974640Y-87516754D01*
X180031190Y-87533909D01*
X180090000Y-87539701D01*
X181790000Y-87539701D01*
X181848810Y-87533909D01*
X181905360Y-87516754D01*
X181957477Y-87488897D01*
X182003158Y-87451408D01*
X182040647Y-87405727D01*
X182068504Y-87353610D01*
X182085659Y-87297060D01*
X182091451Y-87238250D01*
X182091451Y-85538250D01*
X182085659Y-85479440D01*
X182068504Y-85422890D01*
X182040647Y-85370773D01*
X182003158Y-85325092D01*
X181957477Y-85287603D01*
X181905360Y-85259746D01*
X181848810Y-85242591D01*
X181790000Y-85236799D01*
X180090000Y-85236799D01*
X180031190Y-85242591D01*
X179974640Y-85259746D01*
X179922523Y-85287603D01*
X179876842Y-85325092D01*
X179839353Y-85370773D01*
X179811496Y-85422890D01*
X179794341Y-85479440D01*
X179788549Y-85538250D01*
X141865754Y-85538250D01*
X141854729Y-85530884D01*
X141645443Y-85444194D01*
X141423265Y-85400000D01*
X141196735Y-85400000D01*
X140974557Y-85444194D01*
X140765271Y-85530884D01*
X140576918Y-85656737D01*
X140416737Y-85816918D01*
X140290884Y-86005271D01*
X140204194Y-86214557D01*
X140160000Y-86436735D01*
X139920000Y-86436735D01*
X139875806Y-86214557D01*
X139789116Y-86005271D01*
X139663263Y-85816918D01*
X139503082Y-85656737D01*
X139314729Y-85530884D01*
X139105443Y-85444194D01*
X138883265Y-85400000D01*
X138656735Y-85400000D01*
X138434557Y-85444194D01*
X138225271Y-85530884D01*
X138036918Y-85656737D01*
X137876737Y-85816918D01*
X137750884Y-86005271D01*
X137664194Y-86214557D01*
X137620000Y-86436735D01*
X137253917Y-86436735D01*
X137266279Y-86380807D01*
X137213359Y-86181890D01*
X137122649Y-85997119D01*
X136997635Y-85833595D01*
X136843121Y-85697602D01*
X136665045Y-85594367D01*
X136470251Y-85527856D01*
X136399193Y-85513721D01*
X136235000Y-85550013D01*
X136225000Y-85550013D01*
X136060807Y-85513721D01*
X135989749Y-85527856D01*
X135794955Y-85594367D01*
X135616879Y-85697602D01*
X135462365Y-85833595D01*
X135337351Y-85997119D01*
X135246641Y-86181890D01*
X135193721Y-86380807D01*
X134828876Y-86380807D01*
X134795806Y-86214557D01*
X134709116Y-86005271D01*
X134583263Y-85816918D01*
X134423082Y-85656737D01*
X134234729Y-85530884D01*
X134025443Y-85444194D01*
X133803265Y-85400000D01*
X133576735Y-85400000D01*
X133354557Y-85444194D01*
X133145271Y-85530884D01*
X132956918Y-85656737D01*
X132796737Y-85816918D01*
X132670884Y-86005271D01*
X132584194Y-86214557D01*
X132540000Y-86436735D01*
X132300000Y-86436735D01*
X132255806Y-86214557D01*
X132169116Y-86005271D01*
X132043263Y-85816918D01*
X131883082Y-85656737D01*
X131694729Y-85530884D01*
X131485443Y-85444194D01*
X131263265Y-85400000D01*
X131036735Y-85400000D01*
X130814557Y-85444194D01*
X130605271Y-85530884D01*
X130416918Y-85656737D01*
X130256737Y-85816918D01*
X130130884Y-86005271D01*
X130044194Y-86214557D01*
X130000000Y-86436735D01*
X118424086Y-86436735D01*
X118297145Y-86130273D01*
X118096204Y-85829544D01*
X117840456Y-85573796D01*
X117539727Y-85372855D01*
X117205575Y-85234445D01*
X116850842Y-85163884D01*
X116489158Y-85163884D01*
X116134425Y-85234445D01*
X115800273Y-85372855D01*
X115499544Y-85573796D01*
X115243796Y-85829544D01*
X115042855Y-86130273D01*
X114904445Y-86464425D01*
X114833884Y-86819158D01*
X113995000Y-86819158D01*
X113995000Y-84325000D01*
X199675001Y-84325000D01*
X199675000Y-121031000D01*
G04 #@! TA.AperFunction,Conductor*
D21*
G36*
X199675000Y-121031000D02*
G01*
X198651451Y-121031000D01*
X198651451Y-111170000D01*
X198645659Y-111111190D01*
X198628504Y-111054640D01*
X198600647Y-111002523D01*
X198563158Y-110956842D01*
X198517477Y-110919353D01*
X198465360Y-110891496D01*
X198408810Y-110874341D01*
X198350000Y-110868549D01*
X197350000Y-110868549D01*
X197291190Y-110874341D01*
X197250000Y-110886836D01*
X197208810Y-110874341D01*
X197150000Y-110868549D01*
X196150000Y-110868549D01*
X196091190Y-110874341D01*
X196050000Y-110886836D01*
X196008810Y-110874341D01*
X195950000Y-110868549D01*
X194950000Y-110868549D01*
X194891190Y-110874341D01*
X194850000Y-110886836D01*
X194808810Y-110874341D01*
X194750000Y-110868549D01*
X193750000Y-110868549D01*
X193691190Y-110874341D01*
X193650000Y-110886836D01*
X193608810Y-110874341D01*
X193550000Y-110868549D01*
X192550000Y-110868549D01*
X192491190Y-110874341D01*
X192450000Y-110886836D01*
X192408810Y-110874341D01*
X192350000Y-110868549D01*
X191350000Y-110868549D01*
X191291190Y-110874341D01*
X191250000Y-110886836D01*
X191208810Y-110874341D01*
X191150000Y-110868549D01*
X190150000Y-110868549D01*
X190091190Y-110874341D01*
X190050000Y-110886836D01*
X190008810Y-110874341D01*
X189950000Y-110868549D01*
X188950000Y-110868549D01*
X188891190Y-110874341D01*
X188850000Y-110886836D01*
X188808810Y-110874341D01*
X188750000Y-110868549D01*
X187750000Y-110868549D01*
X187691190Y-110874341D01*
X187650000Y-110886836D01*
X187608810Y-110874341D01*
X187550000Y-110868549D01*
X186550000Y-110868549D01*
X186491190Y-110874341D01*
X186450000Y-110886836D01*
X186408810Y-110874341D01*
X186350000Y-110868549D01*
X185350000Y-110868549D01*
X185291190Y-110874341D01*
X185250000Y-110886836D01*
X185208810Y-110874341D01*
X185150000Y-110868549D01*
X184150000Y-110868549D01*
X184091190Y-110874341D01*
X184050000Y-110886836D01*
X184008810Y-110874341D01*
X183950000Y-110868549D01*
X182950000Y-110868549D01*
X182891190Y-110874341D01*
X182850000Y-110886836D01*
X182808810Y-110874341D01*
X182750000Y-110868549D01*
X181750000Y-110868549D01*
X181691190Y-110874341D01*
X181650000Y-110886836D01*
X181608810Y-110874341D01*
X181550000Y-110868549D01*
X180550000Y-110868549D01*
X180491190Y-110874341D01*
X180450000Y-110886836D01*
X180408810Y-110874341D01*
X180350000Y-110868549D01*
X179350000Y-110868549D01*
X179291190Y-110874341D01*
X179250000Y-110886836D01*
X179208810Y-110874341D01*
X179150000Y-110868549D01*
X178150000Y-110868549D01*
X178091190Y-110874341D01*
X178050000Y-110886836D01*
X178008810Y-110874341D01*
X177950000Y-110868549D01*
X176950000Y-110868549D01*
X176891190Y-110874341D01*
X176850000Y-110886836D01*
X176808810Y-110874341D01*
X176750000Y-110868549D01*
X175750000Y-110868549D01*
X175691190Y-110874341D01*
X175650000Y-110886836D01*
X175608810Y-110874341D01*
X175550000Y-110868549D01*
X174550000Y-110868549D01*
X174491190Y-110874341D01*
X174450000Y-110886836D01*
X174408810Y-110874341D01*
X174350000Y-110868549D01*
X173350000Y-110868549D01*
X173291190Y-110874341D01*
X173250000Y-110886836D01*
X173208810Y-110874341D01*
X173150000Y-110868549D01*
X172150000Y-110868549D01*
X172091190Y-110874341D01*
X172050000Y-110886836D01*
X172008810Y-110874341D01*
X171950000Y-110868549D01*
X170950000Y-110868549D01*
X170891190Y-110874341D01*
X170850000Y-110886836D01*
X170808810Y-110874341D01*
X170750000Y-110868549D01*
X169750000Y-110868549D01*
X169691190Y-110874341D01*
X169650000Y-110886836D01*
X169608810Y-110874341D01*
X169550000Y-110868549D01*
X168550000Y-110868549D01*
X168491190Y-110874341D01*
X168450000Y-110886836D01*
X168408810Y-110874341D01*
X168350000Y-110868549D01*
X167350000Y-110868549D01*
X167291190Y-110874341D01*
X167250000Y-110886836D01*
X167208810Y-110874341D01*
X167150000Y-110868549D01*
X166150000Y-110868549D01*
X166091190Y-110874341D01*
X166050000Y-110886836D01*
X166008810Y-110874341D01*
X165950000Y-110868549D01*
X164950000Y-110868549D01*
X164891190Y-110874341D01*
X164850000Y-110886836D01*
X164808810Y-110874341D01*
X164750000Y-110868549D01*
X163750000Y-110868549D01*
X163691190Y-110874341D01*
X163650000Y-110886836D01*
X163608810Y-110874341D01*
X163550000Y-110868549D01*
X162550000Y-110868549D01*
X162491190Y-110874341D01*
X162450000Y-110886836D01*
X162408810Y-110874341D01*
X162350000Y-110868549D01*
X161350000Y-110868549D01*
X161291190Y-110874341D01*
X161250000Y-110886836D01*
X161208810Y-110874341D01*
X161150000Y-110868549D01*
X160150000Y-110868549D01*
X160091190Y-110874341D01*
X160050000Y-110886836D01*
X160008810Y-110874341D01*
X159950000Y-110868549D01*
X158950000Y-110868549D01*
X158891190Y-110874341D01*
X158850000Y-110886836D01*
X158808810Y-110874341D01*
X158750000Y-110868549D01*
X157750000Y-110868549D01*
X157691190Y-110874341D01*
X157650000Y-110886836D01*
X157608810Y-110874341D01*
X157550000Y-110868549D01*
X156550000Y-110868549D01*
X156491190Y-110874341D01*
X156450000Y-110886836D01*
X156408810Y-110874341D01*
X156350000Y-110868549D01*
X155350000Y-110868549D01*
X155291190Y-110874341D01*
X155250000Y-110886836D01*
X155208810Y-110874341D01*
X155150000Y-110868549D01*
X154150000Y-110868549D01*
X154091190Y-110874341D01*
X154050000Y-110886836D01*
X154008810Y-110874341D01*
X153950000Y-110868549D01*
X152950000Y-110868549D01*
X152891190Y-110874341D01*
X152850000Y-110886836D01*
X152808810Y-110874341D01*
X152750000Y-110868549D01*
X151750000Y-110868549D01*
X151691190Y-110874341D01*
X151650000Y-110886836D01*
X151608810Y-110874341D01*
X151550000Y-110868549D01*
X150550000Y-110868549D01*
X150491190Y-110874341D01*
X150450000Y-110886836D01*
X150408810Y-110874341D01*
X150350000Y-110868549D01*
X149350000Y-110868549D01*
X149291190Y-110874341D01*
X149250000Y-110886836D01*
X149208810Y-110874341D01*
X149150000Y-110868549D01*
X148150000Y-110868549D01*
X148091190Y-110874341D01*
X148050000Y-110886836D01*
X148008810Y-110874341D01*
X147950000Y-110868549D01*
X146950000Y-110868549D01*
X146891190Y-110874341D01*
X146850000Y-110886836D01*
X146808810Y-110874341D01*
X146750000Y-110868549D01*
X145750000Y-110868549D01*
X145691190Y-110874341D01*
X145650000Y-110886836D01*
X145608810Y-110874341D01*
X145550000Y-110868549D01*
X144550000Y-110868549D01*
X144491190Y-110874341D01*
X144450000Y-110886836D01*
X144408810Y-110874341D01*
X144350000Y-110868549D01*
X143350000Y-110868549D01*
X143291190Y-110874341D01*
X143250000Y-110886836D01*
X143208810Y-110874341D01*
X143150000Y-110868549D01*
X142150000Y-110868549D01*
X142091190Y-110874341D01*
X142050000Y-110886836D01*
X142008810Y-110874341D01*
X141950000Y-110868549D01*
X140950000Y-110868549D01*
X140891190Y-110874341D01*
X140850000Y-110886836D01*
X140808810Y-110874341D01*
X140750000Y-110868549D01*
X139750000Y-110868549D01*
X139691190Y-110874341D01*
X139650000Y-110886836D01*
X139608810Y-110874341D01*
X139550000Y-110868549D01*
X138550000Y-110868549D01*
X138491190Y-110874341D01*
X138450000Y-110886836D01*
X138408810Y-110874341D01*
X138350000Y-110868549D01*
X137350000Y-110868549D01*
X137291190Y-110874341D01*
X137250000Y-110886836D01*
X137208810Y-110874341D01*
X137150000Y-110868549D01*
X136150000Y-110868549D01*
X136091190Y-110874341D01*
X136050000Y-110886836D01*
X136008810Y-110874341D01*
X135950000Y-110868549D01*
X134950000Y-110868549D01*
X134891190Y-110874341D01*
X134850000Y-110886836D01*
X134808810Y-110874341D01*
X134750000Y-110868549D01*
X133750000Y-110868549D01*
X133691190Y-110874341D01*
X133650000Y-110886836D01*
X133608810Y-110874341D01*
X133550000Y-110868549D01*
X132550000Y-110868549D01*
X132491190Y-110874341D01*
X132450000Y-110886836D01*
X132408810Y-110874341D01*
X132350000Y-110868549D01*
X131350000Y-110868549D01*
X131291190Y-110874341D01*
X131234640Y-110891496D01*
X131182523Y-110919353D01*
X131136842Y-110956842D01*
X131099353Y-111002523D01*
X131071496Y-111054640D01*
X131054341Y-111111190D01*
X131048549Y-111170000D01*
X131048549Y-121031000D01*
X113995000Y-121031000D01*
X113995000Y-112397056D01*
X116684000Y-112397056D01*
X116684000Y-112534944D01*
X116710901Y-112670182D01*
X116763668Y-112797574D01*
X116840274Y-112912224D01*
X116937776Y-113009726D01*
X117052426Y-113086332D01*
X117179818Y-113139099D01*
X117315056Y-113166000D01*
X117452944Y-113166000D01*
X117588182Y-113139099D01*
X117715574Y-113086332D01*
X117830224Y-113009726D01*
X117927726Y-112912224D01*
X117941907Y-112891000D01*
X120546093Y-112891000D01*
X120560274Y-112912224D01*
X120657776Y-113009726D01*
X120772426Y-113086332D01*
X120899818Y-113139099D01*
X121035056Y-113166000D01*
X121172944Y-113166000D01*
X121308182Y-113139099D01*
X121435574Y-113086332D01*
X121550224Y-113009726D01*
X121647726Y-112912224D01*
X121661907Y-112891000D01*
X124496093Y-112891000D01*
X124510274Y-112912224D01*
X124607776Y-113009726D01*
X124722426Y-113086332D01*
X124849818Y-113139099D01*
X124985056Y-113166000D01*
X125122944Y-113166000D01*
X125258182Y-113139099D01*
X125385574Y-113086332D01*
X125500224Y-113009726D01*
X125597726Y-112912224D01*
X125611907Y-112891000D01*
X128604093Y-112891000D01*
X128618274Y-112912224D01*
X128715776Y-113009726D01*
X128830426Y-113086332D01*
X128957818Y-113139099D01*
X129093056Y-113166000D01*
X129230944Y-113166000D01*
X129366182Y-113139099D01*
X129493574Y-113086332D01*
X129608224Y-113009726D01*
X129705726Y-112912224D01*
X129782332Y-112797574D01*
X129835099Y-112670182D01*
X129862000Y-112534944D01*
X129862000Y-112397056D01*
X129835099Y-112261818D01*
X129782332Y-112134426D01*
X129705726Y-112019776D01*
X129608224Y-111922274D01*
X129493574Y-111845668D01*
X129366182Y-111792901D01*
X129230944Y-111766000D01*
X129093056Y-111766000D01*
X128957818Y-111792901D01*
X128830426Y-111845668D01*
X128715776Y-111922274D01*
X128618274Y-112019776D01*
X128604093Y-112041000D01*
X125611907Y-112041000D01*
X125597726Y-112019776D01*
X125500224Y-111922274D01*
X125385574Y-111845668D01*
X125258182Y-111792901D01*
X125122944Y-111766000D01*
X124985056Y-111766000D01*
X124849818Y-111792901D01*
X124722426Y-111845668D01*
X124607776Y-111922274D01*
X124510274Y-112019776D01*
X124496093Y-112041000D01*
X121661907Y-112041000D01*
X121647726Y-112019776D01*
X121550224Y-111922274D01*
X121435574Y-111845668D01*
X121308182Y-111792901D01*
X121172944Y-111766000D01*
X121035056Y-111766000D01*
X120899818Y-111792901D01*
X120772426Y-111845668D01*
X120657776Y-111922274D01*
X120560274Y-112019776D01*
X120546093Y-112041000D01*
X117941907Y-112041000D01*
X117927726Y-112019776D01*
X117830224Y-111922274D01*
X117715574Y-111845668D01*
X117588182Y-111792901D01*
X117452944Y-111766000D01*
X117315056Y-111766000D01*
X117179818Y-111792901D01*
X117052426Y-111845668D01*
X116937776Y-111922274D01*
X116840274Y-112019776D01*
X116763668Y-112134426D01*
X116710901Y-112261818D01*
X116684000Y-112397056D01*
X113995000Y-112397056D01*
X113995000Y-107893056D01*
X114428000Y-107893056D01*
X114428000Y-108030944D01*
X114454901Y-108166182D01*
X114507668Y-108293574D01*
X114584274Y-108408224D01*
X114681776Y-108505726D01*
X114796426Y-108582332D01*
X114923818Y-108635099D01*
X115059056Y-108662000D01*
X115196944Y-108662000D01*
X115332182Y-108635099D01*
X115459574Y-108582332D01*
X115574224Y-108505726D01*
X115671726Y-108408224D01*
X115685907Y-108387000D01*
X124759133Y-108387000D01*
X124780000Y-108389055D01*
X124800867Y-108387000D01*
X124800874Y-108387000D01*
X124863314Y-108380850D01*
X124943427Y-108356548D01*
X125017260Y-108317084D01*
X125081974Y-108263974D01*
X125095283Y-108247757D01*
X127673763Y-105669278D01*
X127689974Y-105655974D01*
X127743084Y-105591260D01*
X127782548Y-105517427D01*
X127806850Y-105437314D01*
X127813000Y-105374874D01*
X127813000Y-105374867D01*
X127815055Y-105354000D01*
X127813000Y-105333133D01*
X127813000Y-104570000D01*
X135848549Y-104570000D01*
X135848549Y-109170000D01*
X135854341Y-109228810D01*
X135871496Y-109285360D01*
X135899353Y-109337477D01*
X135936842Y-109383158D01*
X135982523Y-109420647D01*
X136034640Y-109448504D01*
X136091190Y-109465659D01*
X136150000Y-109471451D01*
X193550000Y-109471451D01*
X193608810Y-109465659D01*
X193665360Y-109448504D01*
X193717477Y-109420647D01*
X193763158Y-109383158D01*
X193800647Y-109337477D01*
X193828504Y-109285360D01*
X193845659Y-109228810D01*
X193851451Y-109170000D01*
X193851451Y-104570000D01*
X193845659Y-104511190D01*
X193828504Y-104454640D01*
X193800647Y-104402523D01*
X193763158Y-104356842D01*
X193717477Y-104319353D01*
X193665360Y-104291496D01*
X193608810Y-104274341D01*
X193550000Y-104268549D01*
X136150000Y-104268549D01*
X136091190Y-104274341D01*
X136034640Y-104291496D01*
X135982523Y-104319353D01*
X135936842Y-104356842D01*
X135899353Y-104402523D01*
X135871496Y-104454640D01*
X135854341Y-104511190D01*
X135848549Y-104570000D01*
X127813000Y-104570000D01*
X127813000Y-103171056D01*
X131500000Y-103171056D01*
X131500000Y-103308944D01*
X131526901Y-103444182D01*
X131579668Y-103571574D01*
X131656274Y-103686224D01*
X131753776Y-103783726D01*
X131868426Y-103860332D01*
X131995818Y-103913099D01*
X132131056Y-103940000D01*
X132268944Y-103940000D01*
X132404182Y-103913099D01*
X132531574Y-103860332D01*
X132646224Y-103783726D01*
X132743726Y-103686224D01*
X132820332Y-103571574D01*
X132873099Y-103444182D01*
X132900000Y-103308944D01*
X132900000Y-103171056D01*
X132895020Y-103146020D01*
X133360280Y-102680761D01*
X133360285Y-102680755D01*
X133535280Y-102505760D01*
X133646041Y-102395000D01*
X138342093Y-102395000D01*
X138356274Y-102416224D01*
X138453776Y-102513726D01*
X138568426Y-102590332D01*
X138695818Y-102643099D01*
X138831056Y-102670000D01*
X138968944Y-102670000D01*
X139104182Y-102643099D01*
X139231574Y-102590332D01*
X139346224Y-102513726D01*
X139443726Y-102416224D01*
X139520332Y-102301574D01*
X139573099Y-102174182D01*
X139600000Y-102038944D01*
X139600000Y-101901056D01*
X139573099Y-101765818D01*
X139520332Y-101638426D01*
X139443726Y-101523776D01*
X139346224Y-101426274D01*
X139231574Y-101349668D01*
X139104182Y-101296901D01*
X138968944Y-101270000D01*
X138831056Y-101270000D01*
X138695818Y-101296901D01*
X138568426Y-101349668D01*
X138453776Y-101426274D01*
X138356274Y-101523776D01*
X138342093Y-101545000D01*
X133490867Y-101545000D01*
X133470000Y-101542945D01*
X133449133Y-101545000D01*
X133449126Y-101545000D01*
X133386686Y-101551150D01*
X133306572Y-101575452D01*
X133280855Y-101589199D01*
X133232740Y-101614916D01*
X133168026Y-101668026D01*
X133154721Y-101684238D01*
X132759244Y-102079716D01*
X132759239Y-102079720D01*
X132293980Y-102544980D01*
X132268944Y-102540000D01*
X132131056Y-102540000D01*
X131995818Y-102566901D01*
X131868426Y-102619668D01*
X131753776Y-102696274D01*
X131656274Y-102793776D01*
X131579668Y-102908426D01*
X131526901Y-103035818D01*
X131500000Y-103171056D01*
X127813000Y-103171056D01*
X127813000Y-100577907D01*
X127834224Y-100563726D01*
X127931726Y-100466224D01*
X128008332Y-100351574D01*
X128061099Y-100224182D01*
X128088000Y-100088944D01*
X128088000Y-99951056D01*
X128061099Y-99815818D01*
X128008332Y-99688426D01*
X127931726Y-99573776D01*
X127834224Y-99476274D01*
X127719574Y-99399668D01*
X127592182Y-99346901D01*
X127512526Y-99331056D01*
X133780000Y-99331056D01*
X133780000Y-99468944D01*
X133806901Y-99604182D01*
X133859668Y-99731574D01*
X133936274Y-99846224D01*
X134033776Y-99943726D01*
X134148426Y-100020332D01*
X134275818Y-100073099D01*
X134411056Y-100100000D01*
X134548944Y-100100000D01*
X134684182Y-100073099D01*
X134811574Y-100020332D01*
X134926224Y-99943726D01*
X135023726Y-99846224D01*
X135037907Y-99825000D01*
X139273960Y-99825000D01*
X140838721Y-101389762D01*
X140852026Y-101405974D01*
X140916740Y-101459084D01*
X140990573Y-101498548D01*
X141046383Y-101515478D01*
X141070685Y-101522850D01*
X141078327Y-101523603D01*
X141133126Y-101529000D01*
X141133133Y-101529000D01*
X141154000Y-101531055D01*
X141174867Y-101529000D01*
X142694011Y-101529000D01*
X142667668Y-101568426D01*
X142614901Y-101695818D01*
X142588000Y-101831056D01*
X142588000Y-101968944D01*
X142614901Y-102104182D01*
X142667668Y-102231574D01*
X142744274Y-102346224D01*
X142841776Y-102443726D01*
X142956426Y-102520332D01*
X143083818Y-102573099D01*
X143219056Y-102600000D01*
X143356944Y-102600000D01*
X143492182Y-102573099D01*
X143619574Y-102520332D01*
X143734224Y-102443726D01*
X143831726Y-102346224D01*
X143908332Y-102231574D01*
X143961099Y-102104182D01*
X143985998Y-101979010D01*
X167363524Y-101979008D01*
X167384401Y-101981064D01*
X167467715Y-101972859D01*
X167547828Y-101948556D01*
X167621661Y-101909092D01*
X167686375Y-101855982D01*
X167699680Y-101839770D01*
X168772450Y-100767000D01*
X173240093Y-100767000D01*
X173254274Y-100788224D01*
X173351776Y-100885726D01*
X173466426Y-100962332D01*
X173593818Y-101015099D01*
X173729056Y-101042000D01*
X173866944Y-101042000D01*
X174002182Y-101015099D01*
X174129574Y-100962332D01*
X174244224Y-100885726D01*
X174341726Y-100788224D01*
X174355907Y-100767000D01*
X191561133Y-100767000D01*
X191582000Y-100769055D01*
X191602867Y-100767000D01*
X191602874Y-100767000D01*
X191665314Y-100760850D01*
X191745427Y-100736548D01*
X191819260Y-100697084D01*
X191883974Y-100643974D01*
X191897283Y-100627757D01*
X191990520Y-100534520D01*
X192015556Y-100539500D01*
X192153444Y-100539500D01*
X192288682Y-100512599D01*
X192416074Y-100459832D01*
X192530724Y-100383226D01*
X192628226Y-100285724D01*
X192704832Y-100171074D01*
X192757599Y-100043682D01*
X192784500Y-99908444D01*
X192784500Y-99770556D01*
X192757599Y-99635318D01*
X192704832Y-99507926D01*
X192628226Y-99393276D01*
X192530724Y-99295774D01*
X192416074Y-99219168D01*
X192288682Y-99166401D01*
X192153444Y-99139500D01*
X192015556Y-99139500D01*
X191880318Y-99166401D01*
X191752926Y-99219168D01*
X191638276Y-99295774D01*
X191540774Y-99393276D01*
X191464168Y-99507926D01*
X191411401Y-99635318D01*
X191384500Y-99770556D01*
X191384500Y-99908444D01*
X191386202Y-99917000D01*
X175324448Y-99917000D01*
X175366682Y-99908599D01*
X175494074Y-99855832D01*
X175608724Y-99779226D01*
X175706226Y-99681724D01*
X175782832Y-99567074D01*
X175835599Y-99439682D01*
X175862500Y-99304444D01*
X175862500Y-99166556D01*
X175835599Y-99031318D01*
X175818692Y-98990500D01*
X179889032Y-98990500D01*
X179892894Y-99029707D01*
X179904330Y-99067407D01*
X179922901Y-99102152D01*
X179947894Y-99132606D01*
X179978348Y-99157599D01*
X180013093Y-99176170D01*
X180050793Y-99187606D01*
X180090000Y-99191468D01*
X180885000Y-99190500D01*
X180935000Y-99140500D01*
X180935000Y-98145500D01*
X180945000Y-98145500D01*
X180945000Y-99140500D01*
X180995000Y-99190500D01*
X181790000Y-99191468D01*
X181829207Y-99187606D01*
X181866907Y-99176170D01*
X181901652Y-99157599D01*
X181932106Y-99132606D01*
X181957099Y-99102152D01*
X181975670Y-99067407D01*
X181987106Y-99029707D01*
X181990968Y-98990500D01*
X181990000Y-98195500D01*
X181940000Y-98145500D01*
X180945000Y-98145500D01*
X180935000Y-98145500D01*
X179940000Y-98145500D01*
X179890000Y-98195500D01*
X179889032Y-98990500D01*
X175818692Y-98990500D01*
X175782832Y-98903926D01*
X175706226Y-98789276D01*
X175608724Y-98691774D01*
X175494074Y-98615168D01*
X175366682Y-98562401D01*
X175231444Y-98535500D01*
X175093556Y-98535500D01*
X174958318Y-98562401D01*
X174830926Y-98615168D01*
X174716276Y-98691774D01*
X174618774Y-98789276D01*
X174542168Y-98903926D01*
X174489401Y-99031318D01*
X174462500Y-99166556D01*
X174462500Y-99191999D01*
X173470865Y-99191999D01*
X173449998Y-99189944D01*
X173429131Y-99191999D01*
X173429125Y-99191999D01*
X173375097Y-99197320D01*
X173366684Y-99198149D01*
X173342382Y-99205521D01*
X173286572Y-99222451D01*
X173212739Y-99261915D01*
X173148025Y-99315025D01*
X173134715Y-99331243D01*
X172998968Y-99466990D01*
X168430877Y-99466990D01*
X168410010Y-99464935D01*
X168389143Y-99466990D01*
X168389136Y-99466990D01*
X168334337Y-99472387D01*
X168326695Y-99473140D01*
X168302393Y-99480512D01*
X168246583Y-99497442D01*
X168172750Y-99536906D01*
X168108036Y-99590016D01*
X168094731Y-99606228D01*
X167021960Y-100679000D01*
X143697473Y-100679000D01*
X143768224Y-100631726D01*
X143865726Y-100534224D01*
X143879907Y-100513000D01*
X165399133Y-100513000D01*
X165420000Y-100515055D01*
X165440867Y-100513000D01*
X165440874Y-100513000D01*
X165503314Y-100506850D01*
X165583427Y-100482548D01*
X165657260Y-100443084D01*
X165721974Y-100389974D01*
X165735284Y-100373756D01*
X168818540Y-97290500D01*
X179889032Y-97290500D01*
X179890000Y-98085500D01*
X179940000Y-98135500D01*
X180935000Y-98135500D01*
X180935000Y-97140500D01*
X180945000Y-97140500D01*
X180945000Y-98135500D01*
X181940000Y-98135500D01*
X181990000Y-98085500D01*
X181990968Y-97290500D01*
X181987106Y-97251293D01*
X181975670Y-97213593D01*
X181957099Y-97178848D01*
X181932106Y-97148394D01*
X181901652Y-97123401D01*
X181866907Y-97104830D01*
X181829207Y-97093394D01*
X181790000Y-97089532D01*
X180995000Y-97090500D01*
X180945000Y-97140500D01*
X180935000Y-97140500D01*
X180885000Y-97090500D01*
X180090000Y-97089532D01*
X180050793Y-97093394D01*
X180013093Y-97104830D01*
X179978348Y-97123401D01*
X179947894Y-97148394D01*
X179922901Y-97178848D01*
X179904330Y-97213593D01*
X179892894Y-97251293D01*
X179889032Y-97290500D01*
X168818540Y-97290500D01*
X170621805Y-95487235D01*
X179790000Y-95487235D01*
X179790000Y-95713765D01*
X179834194Y-95935943D01*
X179920884Y-96145229D01*
X180046737Y-96333582D01*
X180206918Y-96493763D01*
X180395271Y-96619616D01*
X180604557Y-96706306D01*
X180826735Y-96750500D01*
X181053265Y-96750500D01*
X181275443Y-96706306D01*
X181484729Y-96619616D01*
X181673082Y-96493763D01*
X181833263Y-96333582D01*
X181959116Y-96145229D01*
X182045806Y-95935943D01*
X182090000Y-95713765D01*
X182090000Y-95487235D01*
X182045806Y-95265057D01*
X181959116Y-95055771D01*
X181833263Y-94867418D01*
X181673082Y-94707237D01*
X181484729Y-94581384D01*
X181275443Y-94494694D01*
X181053265Y-94450500D01*
X180826735Y-94450500D01*
X180604557Y-94494694D01*
X180395271Y-94581384D01*
X180206918Y-94707237D01*
X180046737Y-94867418D01*
X179920884Y-95055771D01*
X179834194Y-95265057D01*
X179790000Y-95487235D01*
X170621805Y-95487235D01*
X173161805Y-92947235D01*
X179790000Y-92947235D01*
X179790000Y-93173765D01*
X179834194Y-93395943D01*
X179920884Y-93605229D01*
X180046737Y-93793582D01*
X180206918Y-93953763D01*
X180395271Y-94079616D01*
X180604557Y-94166306D01*
X180826735Y-94210500D01*
X181053265Y-94210500D01*
X181275443Y-94166306D01*
X181484729Y-94079616D01*
X181673082Y-93953763D01*
X181833263Y-93793582D01*
X181959116Y-93605229D01*
X182045806Y-93395943D01*
X182090000Y-93173765D01*
X182090000Y-92947235D01*
X182045806Y-92725057D01*
X181959116Y-92515771D01*
X181833263Y-92327418D01*
X181673082Y-92167237D01*
X181484729Y-92041384D01*
X181275443Y-91954694D01*
X181053265Y-91910500D01*
X180826735Y-91910500D01*
X180604557Y-91954694D01*
X180395271Y-92041384D01*
X180206918Y-92167237D01*
X180046737Y-92327418D01*
X179920884Y-92515771D01*
X179834194Y-92725057D01*
X179790000Y-92947235D01*
X173161805Y-92947235D01*
X173500041Y-92609000D01*
X176351133Y-92609000D01*
X176372000Y-92611055D01*
X176392867Y-92609000D01*
X176392874Y-92609000D01*
X176455314Y-92602850D01*
X176535427Y-92578548D01*
X176609260Y-92539084D01*
X176673974Y-92485974D01*
X176687283Y-92469757D01*
X179542041Y-89615000D01*
X180225232Y-89615000D01*
X180206918Y-89627237D01*
X180046737Y-89787418D01*
X179920884Y-89975771D01*
X179834194Y-90185057D01*
X179790000Y-90407235D01*
X179790000Y-90633765D01*
X179834194Y-90855943D01*
X179920884Y-91065229D01*
X180046737Y-91253582D01*
X180206918Y-91413763D01*
X180395271Y-91539616D01*
X180604557Y-91626306D01*
X180826735Y-91670500D01*
X181053265Y-91670500D01*
X181275443Y-91626306D01*
X181484729Y-91539616D01*
X181673082Y-91413763D01*
X181833263Y-91253582D01*
X181959116Y-91065229D01*
X182045806Y-90855943D01*
X182090000Y-90633765D01*
X182090000Y-90407235D01*
X182045806Y-90185057D01*
X181959116Y-89975771D01*
X181833263Y-89787418D01*
X181673082Y-89627237D01*
X181654768Y-89615000D01*
X185139133Y-89615000D01*
X185160000Y-89617055D01*
X185180867Y-89615000D01*
X185180874Y-89615000D01*
X185243314Y-89608850D01*
X185323427Y-89584548D01*
X185397260Y-89545084D01*
X185461974Y-89491974D01*
X185475284Y-89475756D01*
X186305758Y-88645282D01*
X186321974Y-88631974D01*
X186375084Y-88567260D01*
X186414548Y-88493427D01*
X186438850Y-88413314D01*
X186445000Y-88350874D01*
X186445000Y-88350867D01*
X186447055Y-88330000D01*
X186445000Y-88309133D01*
X186445000Y-87456960D01*
X186564729Y-87407366D01*
X186753082Y-87281513D01*
X186913263Y-87121332D01*
X187039116Y-86932979D01*
X187125806Y-86723693D01*
X187158875Y-86557443D01*
X187523721Y-86557443D01*
X187576641Y-86756360D01*
X187667351Y-86941131D01*
X187792365Y-87104655D01*
X187946879Y-87240648D01*
X188124955Y-87343883D01*
X188319749Y-87410394D01*
X188390807Y-87424529D01*
X188555000Y-87388237D01*
X188555000Y-86393250D01*
X188565000Y-86393250D01*
X188565000Y-87388237D01*
X188729193Y-87424529D01*
X188800251Y-87410394D01*
X188995045Y-87343883D01*
X189173121Y-87240648D01*
X189327635Y-87104655D01*
X189452649Y-86941131D01*
X189512529Y-86819158D01*
X195163884Y-86819158D01*
X195163884Y-87180842D01*
X195234445Y-87535575D01*
X195372855Y-87869727D01*
X195573796Y-88170456D01*
X195829544Y-88426204D01*
X196130273Y-88627145D01*
X196464425Y-88765555D01*
X196819158Y-88836116D01*
X197180842Y-88836116D01*
X197535575Y-88765555D01*
X197869727Y-88627145D01*
X198170456Y-88426204D01*
X198426204Y-88170456D01*
X198627145Y-87869727D01*
X198765555Y-87535575D01*
X198836116Y-87180842D01*
X198836116Y-86819158D01*
X198765555Y-86464425D01*
X198627145Y-86130273D01*
X198426204Y-85829544D01*
X198170456Y-85573796D01*
X197869727Y-85372855D01*
X197535575Y-85234445D01*
X197180842Y-85163884D01*
X196819158Y-85163884D01*
X196464425Y-85234445D01*
X196130273Y-85372855D01*
X195829544Y-85573796D01*
X195573796Y-85829544D01*
X195372855Y-86130273D01*
X195234445Y-86464425D01*
X195163884Y-86819158D01*
X189512529Y-86819158D01*
X189543359Y-86756360D01*
X189596279Y-86557443D01*
X189559988Y-86393250D01*
X188565000Y-86393250D01*
X188555000Y-86393250D01*
X187560012Y-86393250D01*
X187523721Y-86557443D01*
X187158875Y-86557443D01*
X187170000Y-86501515D01*
X187170000Y-86274985D01*
X187158876Y-86219057D01*
X187523721Y-86219057D01*
X187560012Y-86383250D01*
X188555000Y-86383250D01*
X188555000Y-85388263D01*
X188565000Y-85388263D01*
X188565000Y-86383250D01*
X189559988Y-86383250D01*
X189596279Y-86219057D01*
X189543359Y-86020140D01*
X189452649Y-85835369D01*
X189327635Y-85671845D01*
X189173121Y-85535852D01*
X188995045Y-85432617D01*
X188800251Y-85366106D01*
X188729193Y-85351971D01*
X188565000Y-85388263D01*
X188555000Y-85388263D01*
X188390807Y-85351971D01*
X188319749Y-85366106D01*
X188124955Y-85432617D01*
X187946879Y-85535852D01*
X187792365Y-85671845D01*
X187667351Y-85835369D01*
X187576641Y-86020140D01*
X187523721Y-86219057D01*
X187158876Y-86219057D01*
X187125806Y-86052807D01*
X187039116Y-85843521D01*
X186913263Y-85655168D01*
X186753082Y-85494987D01*
X186564729Y-85369134D01*
X186355443Y-85282444D01*
X186133265Y-85238250D01*
X185906735Y-85238250D01*
X185684557Y-85282444D01*
X185475271Y-85369134D01*
X185286918Y-85494987D01*
X185126737Y-85655168D01*
X185000884Y-85843521D01*
X184914194Y-86052807D01*
X184870000Y-86274985D01*
X184870000Y-86501515D01*
X184914194Y-86723693D01*
X185000884Y-86932979D01*
X185126737Y-87121332D01*
X185286918Y-87281513D01*
X185475271Y-87407366D01*
X185595000Y-87456960D01*
X185595000Y-88153960D01*
X184983960Y-88765000D01*
X183476040Y-88765000D01*
X183765763Y-88475278D01*
X183781974Y-88461974D01*
X183835084Y-88397260D01*
X183874548Y-88323427D01*
X183898850Y-88243314D01*
X183905000Y-88180874D01*
X183905000Y-88180868D01*
X183907055Y-88160001D01*
X183905000Y-88139134D01*
X183905000Y-87456960D01*
X184024729Y-87407366D01*
X184213082Y-87281513D01*
X184373263Y-87121332D01*
X184499116Y-86932979D01*
X184585806Y-86723693D01*
X184630000Y-86501515D01*
X184630000Y-86274985D01*
X184585806Y-86052807D01*
X184499116Y-85843521D01*
X184373263Y-85655168D01*
X184213082Y-85494987D01*
X184024729Y-85369134D01*
X183815443Y-85282444D01*
X183593265Y-85238250D01*
X183366735Y-85238250D01*
X183144557Y-85282444D01*
X182935271Y-85369134D01*
X182746918Y-85494987D01*
X182586737Y-85655168D01*
X182460884Y-85843521D01*
X182374194Y-86052807D01*
X182330000Y-86274985D01*
X182330000Y-86501515D01*
X182374194Y-86723693D01*
X182460884Y-86932979D01*
X182586737Y-87121332D01*
X182746918Y-87281513D01*
X182935271Y-87407366D01*
X183055000Y-87456960D01*
X183055000Y-87983959D01*
X182805960Y-88233000D01*
X179282457Y-88233000D01*
X179261590Y-88230945D01*
X179240723Y-88233000D01*
X179240716Y-88233000D01*
X179185917Y-88238397D01*
X179178275Y-88239150D01*
X179153973Y-88246522D01*
X179098163Y-88263452D01*
X179024330Y-88302916D01*
X178959616Y-88356026D01*
X178946311Y-88372238D01*
X176023550Y-91295000D01*
X175530867Y-91295000D01*
X175510000Y-91292945D01*
X175489133Y-91295000D01*
X175489126Y-91295000D01*
X175426686Y-91301150D01*
X175400841Y-91308990D01*
X173158467Y-91308990D01*
X173137600Y-91306935D01*
X173116733Y-91308990D01*
X173116726Y-91308990D01*
X173061927Y-91314387D01*
X173054285Y-91315140D01*
X173029983Y-91322512D01*
X172974173Y-91339442D01*
X172900340Y-91378906D01*
X172880730Y-91395000D01*
X172852673Y-91418026D01*
X172835626Y-91432016D01*
X172822321Y-91448228D01*
X165057560Y-99212990D01*
X145791235Y-99212990D01*
X145773099Y-99121818D01*
X145720332Y-98994426D01*
X145643726Y-98879776D01*
X145546224Y-98782274D01*
X145431574Y-98705668D01*
X145304182Y-98652901D01*
X145168944Y-98626000D01*
X145031056Y-98626000D01*
X144895818Y-98652901D01*
X144768426Y-98705668D01*
X144653776Y-98782274D01*
X144556274Y-98879776D01*
X144479668Y-98994426D01*
X144426901Y-99121818D01*
X144400000Y-99257056D01*
X144400000Y-99394944D01*
X144426901Y-99530182D01*
X144479668Y-99657574D01*
X144483294Y-99663000D01*
X143879907Y-99663000D01*
X143865726Y-99641776D01*
X143768224Y-99544274D01*
X143653574Y-99467668D01*
X143526182Y-99414901D01*
X143390944Y-99388000D01*
X143253056Y-99388000D01*
X143117818Y-99414901D01*
X142990426Y-99467668D01*
X142875776Y-99544274D01*
X142778274Y-99641776D01*
X142701668Y-99756426D01*
X142648901Y-99883818D01*
X142622000Y-100019056D01*
X142622000Y-100156944D01*
X142648901Y-100292182D01*
X142701668Y-100419574D01*
X142778274Y-100534224D01*
X142875776Y-100631726D01*
X142946527Y-100679000D01*
X141330041Y-100679000D01*
X139765283Y-99114243D01*
X139751974Y-99098026D01*
X139687260Y-99044916D01*
X139613427Y-99005452D01*
X139533314Y-98981150D01*
X139470874Y-98975000D01*
X139470867Y-98975000D01*
X139450000Y-98972945D01*
X139429133Y-98975000D01*
X135037907Y-98975000D01*
X135023726Y-98953776D01*
X134926224Y-98856274D01*
X134811574Y-98779668D01*
X134684182Y-98726901D01*
X134548944Y-98700000D01*
X134411056Y-98700000D01*
X134275818Y-98726901D01*
X134148426Y-98779668D01*
X134033776Y-98856274D01*
X133936274Y-98953776D01*
X133859668Y-99068426D01*
X133806901Y-99195818D01*
X133780000Y-99331056D01*
X127512526Y-99331056D01*
X127456944Y-99320000D01*
X127319056Y-99320000D01*
X127183818Y-99346901D01*
X127056426Y-99399668D01*
X126941776Y-99476274D01*
X126844274Y-99573776D01*
X126767668Y-99688426D01*
X126714901Y-99815818D01*
X126688000Y-99951056D01*
X126688000Y-100088944D01*
X126714901Y-100224182D01*
X126767668Y-100351574D01*
X126844274Y-100466224D01*
X126941776Y-100563726D01*
X126963001Y-100577908D01*
X126963000Y-105177959D01*
X124603960Y-107537000D01*
X115685907Y-107537000D01*
X115671726Y-107515776D01*
X115574224Y-107418274D01*
X115459574Y-107341668D01*
X115332182Y-107288901D01*
X115196944Y-107262000D01*
X115059056Y-107262000D01*
X114923818Y-107288901D01*
X114796426Y-107341668D01*
X114681776Y-107418274D01*
X114584274Y-107515776D01*
X114507668Y-107630426D01*
X114454901Y-107757818D01*
X114428000Y-107893056D01*
X113995000Y-107893056D01*
X113995000Y-93236056D01*
X136955000Y-93236056D01*
X136955000Y-93373944D01*
X136981901Y-93509182D01*
X137034668Y-93636574D01*
X137111274Y-93751224D01*
X137208776Y-93848726D01*
X137230000Y-93862907D01*
X137230001Y-96227092D01*
X137208776Y-96241274D01*
X137111274Y-96338776D01*
X137034668Y-96453426D01*
X136981901Y-96580818D01*
X136955000Y-96716056D01*
X136955000Y-96853944D01*
X136981901Y-96989182D01*
X137034668Y-97116574D01*
X137111274Y-97231224D01*
X137208776Y-97328726D01*
X137323426Y-97405332D01*
X137450818Y-97458099D01*
X137586056Y-97485000D01*
X137723944Y-97485000D01*
X137859182Y-97458099D01*
X137986574Y-97405332D01*
X138101224Y-97328726D01*
X138198726Y-97231224D01*
X138275332Y-97116574D01*
X138328099Y-96989182D01*
X138355000Y-96853944D01*
X138355000Y-96716056D01*
X138328099Y-96580818D01*
X138275332Y-96453426D01*
X138198726Y-96338776D01*
X138101224Y-96241274D01*
X138080000Y-96227093D01*
X138080000Y-93862907D01*
X138101224Y-93848726D01*
X138198726Y-93751224D01*
X138275332Y-93636574D01*
X138328099Y-93509182D01*
X138355000Y-93373944D01*
X138355000Y-93236056D01*
X138328099Y-93100818D01*
X138275332Y-92973426D01*
X138198726Y-92858776D01*
X138101224Y-92761274D01*
X137986574Y-92684668D01*
X137859182Y-92631901D01*
X137723944Y-92605000D01*
X137586056Y-92605000D01*
X137450818Y-92631901D01*
X137323426Y-92684668D01*
X137208776Y-92761274D01*
X137111274Y-92858776D01*
X137034668Y-92973426D01*
X136981901Y-93100818D01*
X136955000Y-93236056D01*
X113995000Y-93236056D01*
X113995000Y-90845000D01*
X151828000Y-90845000D01*
X151828000Y-91395000D01*
X151842426Y-91531467D01*
X151883198Y-91662498D01*
X151948749Y-91783057D01*
X152036561Y-91888511D01*
X152143259Y-91974807D01*
X152264742Y-92038629D01*
X152396342Y-92077525D01*
X152413560Y-92080582D01*
X152523000Y-92039981D01*
X152523000Y-90845000D01*
X152533000Y-90845000D01*
X152533000Y-92039981D01*
X152642440Y-92080582D01*
X152659658Y-92077525D01*
X152791258Y-92038629D01*
X152912741Y-91974807D01*
X153019439Y-91888511D01*
X153107251Y-91783057D01*
X153172802Y-91662498D01*
X153213574Y-91531467D01*
X153228000Y-91395000D01*
X153228000Y-90845000D01*
X152533000Y-90845000D01*
X152523000Y-90845000D01*
X151828000Y-90845000D01*
X113995000Y-90845000D01*
X113995000Y-90285000D01*
X151828000Y-90285000D01*
X151828000Y-90835000D01*
X152523000Y-90835000D01*
X152523000Y-89640019D01*
X152533000Y-89640019D01*
X152533000Y-90835000D01*
X153228000Y-90835000D01*
X153228000Y-90285000D01*
X153224136Y-90248443D01*
X153333000Y-90248443D01*
X153333000Y-90371557D01*
X153357019Y-90492306D01*
X153404132Y-90606048D01*
X153472531Y-90708414D01*
X153559586Y-90795469D01*
X153661952Y-90863868D01*
X153775694Y-90910981D01*
X153896443Y-90935000D01*
X154019557Y-90935000D01*
X154140306Y-90910981D01*
X154254048Y-90863868D01*
X154356414Y-90795469D01*
X154443469Y-90708414D01*
X154511868Y-90606048D01*
X154558981Y-90492306D01*
X154583000Y-90371557D01*
X154583000Y-90248443D01*
X159113000Y-90248443D01*
X159113000Y-90371557D01*
X159137019Y-90492306D01*
X159184132Y-90606048D01*
X159252531Y-90708414D01*
X159339586Y-90795469D01*
X159441952Y-90863868D01*
X159555694Y-90910981D01*
X159676443Y-90935000D01*
X159799557Y-90935000D01*
X159920306Y-90910981D01*
X160034048Y-90863868D01*
X160062285Y-90845000D01*
X160468000Y-90845000D01*
X160468000Y-91395000D01*
X160482426Y-91531467D01*
X160523198Y-91662498D01*
X160588749Y-91783057D01*
X160676561Y-91888511D01*
X160783259Y-91974807D01*
X160904742Y-92038629D01*
X161036342Y-92077525D01*
X161053560Y-92080582D01*
X161163000Y-92039981D01*
X161163000Y-90845000D01*
X161173000Y-90845000D01*
X161173000Y-92039981D01*
X161282440Y-92080582D01*
X161299658Y-92077525D01*
X161431258Y-92038629D01*
X161552741Y-91974807D01*
X161659439Y-91888511D01*
X161747251Y-91783057D01*
X161812802Y-91662498D01*
X161853574Y-91531467D01*
X161868000Y-91395000D01*
X161868000Y-90845000D01*
X161173000Y-90845000D01*
X161163000Y-90845000D01*
X160468000Y-90845000D01*
X160062285Y-90845000D01*
X160136414Y-90795469D01*
X160223469Y-90708414D01*
X160291868Y-90606048D01*
X160338981Y-90492306D01*
X160363000Y-90371557D01*
X160363000Y-90285000D01*
X160468000Y-90285000D01*
X160468000Y-90835000D01*
X161163000Y-90835000D01*
X161163000Y-89640019D01*
X161173000Y-89640019D01*
X161173000Y-90835000D01*
X161868000Y-90835000D01*
X161868000Y-90285000D01*
X161853574Y-90148533D01*
X161812802Y-90017502D01*
X161747251Y-89896943D01*
X161659439Y-89791489D01*
X161552741Y-89705193D01*
X161431258Y-89641371D01*
X161299658Y-89602475D01*
X161282440Y-89599418D01*
X161173000Y-89640019D01*
X161163000Y-89640019D01*
X161053560Y-89599418D01*
X161036342Y-89602475D01*
X160904742Y-89641371D01*
X160783259Y-89705193D01*
X160676561Y-89791489D01*
X160588749Y-89896943D01*
X160523198Y-90017502D01*
X160482426Y-90148533D01*
X160468000Y-90285000D01*
X160363000Y-90285000D01*
X160363000Y-90248443D01*
X160338981Y-90127694D01*
X160291868Y-90013952D01*
X160223469Y-89911586D01*
X160136414Y-89824531D01*
X160034048Y-89756132D01*
X159920306Y-89709019D01*
X159799557Y-89685000D01*
X159676443Y-89685000D01*
X159555694Y-89709019D01*
X159441952Y-89756132D01*
X159339586Y-89824531D01*
X159252531Y-89911586D01*
X159184132Y-90013952D01*
X159137019Y-90127694D01*
X159113000Y-90248443D01*
X154583000Y-90248443D01*
X154558981Y-90127694D01*
X154511868Y-90013952D01*
X154443469Y-89911586D01*
X154356414Y-89824531D01*
X154254048Y-89756132D01*
X154140306Y-89709019D01*
X154019557Y-89685000D01*
X153896443Y-89685000D01*
X153775694Y-89709019D01*
X153661952Y-89756132D01*
X153559586Y-89824531D01*
X153472531Y-89911586D01*
X153404132Y-90013952D01*
X153357019Y-90127694D01*
X153333000Y-90248443D01*
X153224136Y-90248443D01*
X153213574Y-90148533D01*
X153172802Y-90017502D01*
X153107251Y-89896943D01*
X153019439Y-89791489D01*
X152912741Y-89705193D01*
X152791258Y-89641371D01*
X152659658Y-89602475D01*
X152642440Y-89599418D01*
X152533000Y-89640019D01*
X152523000Y-89640019D01*
X152413560Y-89599418D01*
X152396342Y-89602475D01*
X152264742Y-89641371D01*
X152143259Y-89705193D01*
X152036561Y-89791489D01*
X151948749Y-89896943D01*
X151883198Y-90017502D01*
X151842426Y-90148533D01*
X151828000Y-90285000D01*
X113995000Y-90285000D01*
X113995000Y-86819158D01*
X114833884Y-86819158D01*
X114833884Y-87180842D01*
X114904445Y-87535575D01*
X115042855Y-87869727D01*
X115243796Y-88170456D01*
X115499544Y-88426204D01*
X115800273Y-88627145D01*
X116134425Y-88765555D01*
X116489158Y-88836116D01*
X116850842Y-88836116D01*
X117205575Y-88765555D01*
X117539727Y-88627145D01*
X117840456Y-88426204D01*
X118026660Y-88240000D01*
X129998549Y-88240000D01*
X129998549Y-89940000D01*
X130004341Y-89998810D01*
X130021496Y-90055360D01*
X130049353Y-90107477D01*
X130086842Y-90153158D01*
X130132523Y-90190647D01*
X130184640Y-90218504D01*
X130241190Y-90235659D01*
X130300000Y-90241451D01*
X132000000Y-90241451D01*
X132058810Y-90235659D01*
X132115360Y-90218504D01*
X132167477Y-90190647D01*
X132213158Y-90153158D01*
X132250647Y-90107477D01*
X132278504Y-90055360D01*
X132295659Y-89998810D01*
X132301451Y-89940000D01*
X132301451Y-88976735D01*
X132540000Y-88976735D01*
X132540000Y-89203265D01*
X132584194Y-89425443D01*
X132670884Y-89634729D01*
X132796737Y-89823082D01*
X132956918Y-89983263D01*
X133145271Y-90109116D01*
X133354557Y-90195806D01*
X133576735Y-90240000D01*
X133803265Y-90240000D01*
X134025443Y-90195806D01*
X134234729Y-90109116D01*
X134423082Y-89983263D01*
X134583263Y-89823082D01*
X134709116Y-89634729D01*
X134795806Y-89425443D01*
X134828875Y-89259193D01*
X135193721Y-89259193D01*
X135246641Y-89458110D01*
X135337351Y-89642881D01*
X135462365Y-89806405D01*
X135616879Y-89942398D01*
X135794955Y-90045633D01*
X135989749Y-90112144D01*
X136060807Y-90126279D01*
X136225000Y-90089987D01*
X136225000Y-89095000D01*
X136235000Y-89095000D01*
X136235000Y-90089987D01*
X136399193Y-90126279D01*
X136470251Y-90112144D01*
X136665045Y-90045633D01*
X136843121Y-89942398D01*
X136997635Y-89806405D01*
X137122649Y-89642881D01*
X137213359Y-89458110D01*
X137266279Y-89259193D01*
X137733721Y-89259193D01*
X137786641Y-89458110D01*
X137877351Y-89642881D01*
X138002365Y-89806405D01*
X138156879Y-89942398D01*
X138334955Y-90045633D01*
X138529749Y-90112144D01*
X138600807Y-90126279D01*
X138765000Y-90089987D01*
X138765000Y-89095000D01*
X138775000Y-89095000D01*
X138775000Y-90089987D01*
X138939193Y-90126279D01*
X139010251Y-90112144D01*
X139205045Y-90045633D01*
X139383121Y-89942398D01*
X139537635Y-89806405D01*
X139662649Y-89642881D01*
X139753359Y-89458110D01*
X139806279Y-89259193D01*
X139769988Y-89095000D01*
X138775000Y-89095000D01*
X138765000Y-89095000D01*
X137770012Y-89095000D01*
X137733721Y-89259193D01*
X137266279Y-89259193D01*
X137229988Y-89095000D01*
X136235000Y-89095000D01*
X136225000Y-89095000D01*
X135230012Y-89095000D01*
X135193721Y-89259193D01*
X134828875Y-89259193D01*
X134840000Y-89203265D01*
X134840000Y-88976735D01*
X134828876Y-88920807D01*
X135193721Y-88920807D01*
X135230012Y-89085000D01*
X136225000Y-89085000D01*
X136225000Y-88090013D01*
X136235000Y-88090013D01*
X136235000Y-89085000D01*
X137229988Y-89085000D01*
X137266279Y-88920807D01*
X137733721Y-88920807D01*
X137770012Y-89085000D01*
X138765000Y-89085000D01*
X138765000Y-88090013D01*
X138775000Y-88090013D01*
X138775000Y-89085000D01*
X139769988Y-89085000D01*
X139793917Y-88976735D01*
X140160000Y-88976735D01*
X140160000Y-89203265D01*
X140204194Y-89425443D01*
X140290884Y-89634729D01*
X140416737Y-89823082D01*
X140576918Y-89983263D01*
X140765271Y-90109116D01*
X140974557Y-90195806D01*
X141196735Y-90240000D01*
X141423265Y-90240000D01*
X141645443Y-90195806D01*
X141854729Y-90109116D01*
X142043082Y-89983263D01*
X142203263Y-89823082D01*
X142329116Y-89634729D01*
X142415806Y-89425443D01*
X142460000Y-89203265D01*
X142460000Y-88976735D01*
X142415806Y-88754557D01*
X142329116Y-88545271D01*
X142203263Y-88356918D01*
X142043082Y-88196737D01*
X141854729Y-88070884D01*
X141645443Y-87984194D01*
X141423265Y-87940000D01*
X141196735Y-87940000D01*
X140974557Y-87984194D01*
X140765271Y-88070884D01*
X140576918Y-88196737D01*
X140416737Y-88356918D01*
X140290884Y-88545271D01*
X140204194Y-88754557D01*
X140160000Y-88976735D01*
X139793917Y-88976735D01*
X139806279Y-88920807D01*
X139753359Y-88721890D01*
X139662649Y-88537119D01*
X139537635Y-88373595D01*
X139383121Y-88237602D01*
X139205045Y-88134367D01*
X139010251Y-88067856D01*
X138939193Y-88053721D01*
X138775000Y-88090013D01*
X138765000Y-88090013D01*
X138600807Y-88053721D01*
X138529749Y-88067856D01*
X138334955Y-88134367D01*
X138156879Y-88237602D01*
X138002365Y-88373595D01*
X137877351Y-88537119D01*
X137786641Y-88721890D01*
X137733721Y-88920807D01*
X137266279Y-88920807D01*
X137213359Y-88721890D01*
X137122649Y-88537119D01*
X136997635Y-88373595D01*
X136843121Y-88237602D01*
X136665045Y-88134367D01*
X136470251Y-88067856D01*
X136399193Y-88053721D01*
X136235000Y-88090013D01*
X136225000Y-88090013D01*
X136060807Y-88053721D01*
X135989749Y-88067856D01*
X135794955Y-88134367D01*
X135616879Y-88237602D01*
X135462365Y-88373595D01*
X135337351Y-88537119D01*
X135246641Y-88721890D01*
X135193721Y-88920807D01*
X134828876Y-88920807D01*
X134795806Y-88754557D01*
X134709116Y-88545271D01*
X134583263Y-88356918D01*
X134423082Y-88196737D01*
X134234729Y-88070884D01*
X134025443Y-87984194D01*
X133803265Y-87940000D01*
X133576735Y-87940000D01*
X133354557Y-87984194D01*
X133145271Y-88070884D01*
X132956918Y-88196737D01*
X132796737Y-88356918D01*
X132670884Y-88545271D01*
X132584194Y-88754557D01*
X132540000Y-88976735D01*
X132301451Y-88976735D01*
X132301451Y-88240000D01*
X132295659Y-88181190D01*
X132278504Y-88124640D01*
X132250647Y-88072523D01*
X132213158Y-88026842D01*
X132167477Y-87989353D01*
X132115360Y-87961496D01*
X132058810Y-87944341D01*
X132000000Y-87938549D01*
X130300000Y-87938549D01*
X130241190Y-87944341D01*
X130184640Y-87961496D01*
X130132523Y-87989353D01*
X130086842Y-88026842D01*
X130049353Y-88072523D01*
X130021496Y-88124640D01*
X130004341Y-88181190D01*
X129998549Y-88240000D01*
X118026660Y-88240000D01*
X118096204Y-88170456D01*
X118297145Y-87869727D01*
X118435555Y-87535575D01*
X118506116Y-87180842D01*
X118506116Y-86819158D01*
X118435555Y-86464425D01*
X118424086Y-86436735D01*
X130000000Y-86436735D01*
X130000000Y-86663265D01*
X130044194Y-86885443D01*
X130130884Y-87094729D01*
X130256737Y-87283082D01*
X130416918Y-87443263D01*
X130605271Y-87569116D01*
X130814557Y-87655806D01*
X131036735Y-87700000D01*
X131263265Y-87700000D01*
X131485443Y-87655806D01*
X131694729Y-87569116D01*
X131883082Y-87443263D01*
X132043263Y-87283082D01*
X132169116Y-87094729D01*
X132255806Y-86885443D01*
X132300000Y-86663265D01*
X132300000Y-86436735D01*
X132540000Y-86436735D01*
X132540000Y-86663265D01*
X132584194Y-86885443D01*
X132670884Y-87094729D01*
X132796737Y-87283082D01*
X132956918Y-87443263D01*
X133145271Y-87569116D01*
X133354557Y-87655806D01*
X133576735Y-87700000D01*
X133803265Y-87700000D01*
X134025443Y-87655806D01*
X134234729Y-87569116D01*
X134423082Y-87443263D01*
X134583263Y-87283082D01*
X134709116Y-87094729D01*
X134795806Y-86885443D01*
X134828875Y-86719193D01*
X135193721Y-86719193D01*
X135246641Y-86918110D01*
X135337351Y-87102881D01*
X135462365Y-87266405D01*
X135616879Y-87402398D01*
X135794955Y-87505633D01*
X135989749Y-87572144D01*
X136060807Y-87586279D01*
X136225000Y-87549987D01*
X136225000Y-86555000D01*
X136235000Y-86555000D01*
X136235000Y-87549987D01*
X136399193Y-87586279D01*
X136470251Y-87572144D01*
X136665045Y-87505633D01*
X136843121Y-87402398D01*
X136997635Y-87266405D01*
X137122649Y-87102881D01*
X137213359Y-86918110D01*
X137266279Y-86719193D01*
X137229988Y-86555000D01*
X136235000Y-86555000D01*
X136225000Y-86555000D01*
X135230012Y-86555000D01*
X135193721Y-86719193D01*
X134828875Y-86719193D01*
X134840000Y-86663265D01*
X134840000Y-86436735D01*
X134828876Y-86380807D01*
X135193721Y-86380807D01*
X135230012Y-86545000D01*
X136225000Y-86545000D01*
X136225000Y-85550013D01*
X136235000Y-85550013D01*
X136235000Y-86545000D01*
X137229988Y-86545000D01*
X137253917Y-86436735D01*
X137620000Y-86436735D01*
X137620000Y-86663265D01*
X137664194Y-86885443D01*
X137750884Y-87094729D01*
X137876737Y-87283082D01*
X138036918Y-87443263D01*
X138225271Y-87569116D01*
X138434557Y-87655806D01*
X138656735Y-87700000D01*
X138883265Y-87700000D01*
X139105443Y-87655806D01*
X139314729Y-87569116D01*
X139503082Y-87443263D01*
X139663263Y-87283082D01*
X139789116Y-87094729D01*
X139875806Y-86885443D01*
X139920000Y-86663265D01*
X139920000Y-86436735D01*
X140160000Y-86436735D01*
X140160000Y-86663265D01*
X140204194Y-86885443D01*
X140290884Y-87094729D01*
X140416737Y-87283082D01*
X140576918Y-87443263D01*
X140765271Y-87569116D01*
X140974557Y-87655806D01*
X141196735Y-87700000D01*
X141423265Y-87700000D01*
X141645443Y-87655806D01*
X141854729Y-87569116D01*
X142043082Y-87443263D01*
X142203263Y-87283082D01*
X142329116Y-87094729D01*
X142415806Y-86885443D01*
X142459654Y-86665000D01*
X151828000Y-86665000D01*
X151828000Y-86965000D01*
X151842426Y-87101467D01*
X151883198Y-87232498D01*
X151948749Y-87353057D01*
X152036561Y-87458511D01*
X152143259Y-87544807D01*
X152264742Y-87608629D01*
X152396342Y-87647525D01*
X152413560Y-87650582D01*
X152523000Y-87609981D01*
X152523000Y-86665000D01*
X152533000Y-86665000D01*
X152533000Y-87609981D01*
X152642440Y-87650582D01*
X152659658Y-87647525D01*
X152791258Y-87608629D01*
X152912741Y-87544807D01*
X153019439Y-87458511D01*
X153107251Y-87353057D01*
X153172802Y-87232498D01*
X153213574Y-87101467D01*
X153228000Y-86965000D01*
X153228000Y-86665000D01*
X160468000Y-86665000D01*
X160468000Y-86965000D01*
X160482426Y-87101467D01*
X160523198Y-87232498D01*
X160588749Y-87353057D01*
X160676561Y-87458511D01*
X160783259Y-87544807D01*
X160904742Y-87608629D01*
X161036342Y-87647525D01*
X161053560Y-87650582D01*
X161163000Y-87609981D01*
X161163000Y-86665000D01*
X161173000Y-86665000D01*
X161173000Y-87609981D01*
X161282440Y-87650582D01*
X161299658Y-87647525D01*
X161431258Y-87608629D01*
X161552741Y-87544807D01*
X161659439Y-87458511D01*
X161747251Y-87353057D01*
X161812802Y-87232498D01*
X161853574Y-87101467D01*
X161868000Y-86965000D01*
X161868000Y-86665000D01*
X161173000Y-86665000D01*
X161163000Y-86665000D01*
X160468000Y-86665000D01*
X153228000Y-86665000D01*
X152533000Y-86665000D01*
X152523000Y-86665000D01*
X151828000Y-86665000D01*
X142459654Y-86665000D01*
X142460000Y-86663265D01*
X142460000Y-86436735D01*
X142443742Y-86355000D01*
X151828000Y-86355000D01*
X151828000Y-86655000D01*
X152523000Y-86655000D01*
X152523000Y-85710019D01*
X152533000Y-85710019D01*
X152533000Y-86655000D01*
X153228000Y-86655000D01*
X153228000Y-86355000D01*
X160468000Y-86355000D01*
X160468000Y-86655000D01*
X161163000Y-86655000D01*
X161163000Y-85710019D01*
X161173000Y-85710019D01*
X161173000Y-86655000D01*
X161868000Y-86655000D01*
X161868000Y-86355000D01*
X161853574Y-86218533D01*
X161812802Y-86087502D01*
X161747251Y-85966943D01*
X161659439Y-85861489D01*
X161552741Y-85775193D01*
X161431258Y-85711371D01*
X161299658Y-85672475D01*
X161282440Y-85669418D01*
X161173000Y-85710019D01*
X161163000Y-85710019D01*
X161053560Y-85669418D01*
X161036342Y-85672475D01*
X160904742Y-85711371D01*
X160783259Y-85775193D01*
X160676561Y-85861489D01*
X160588749Y-85966943D01*
X160523198Y-86087502D01*
X160482426Y-86218533D01*
X160468000Y-86355000D01*
X153228000Y-86355000D01*
X153213574Y-86218533D01*
X153172802Y-86087502D01*
X153107251Y-85966943D01*
X153019439Y-85861489D01*
X152912741Y-85775193D01*
X152791258Y-85711371D01*
X152659658Y-85672475D01*
X152642440Y-85669418D01*
X152533000Y-85710019D01*
X152523000Y-85710019D01*
X152413560Y-85669418D01*
X152396342Y-85672475D01*
X152264742Y-85711371D01*
X152143259Y-85775193D01*
X152036561Y-85861489D01*
X151948749Y-85966943D01*
X151883198Y-86087502D01*
X151842426Y-86218533D01*
X151828000Y-86355000D01*
X142443742Y-86355000D01*
X142415806Y-86214557D01*
X142329116Y-86005271D01*
X142203263Y-85816918D01*
X142043082Y-85656737D01*
X141865754Y-85538250D01*
X179788549Y-85538250D01*
X179788549Y-87238250D01*
X179794341Y-87297060D01*
X179811496Y-87353610D01*
X179839353Y-87405727D01*
X179876842Y-87451408D01*
X179922523Y-87488897D01*
X179974640Y-87516754D01*
X180031190Y-87533909D01*
X180090000Y-87539701D01*
X181790000Y-87539701D01*
X181848810Y-87533909D01*
X181905360Y-87516754D01*
X181957477Y-87488897D01*
X182003158Y-87451408D01*
X182040647Y-87405727D01*
X182068504Y-87353610D01*
X182085659Y-87297060D01*
X182091451Y-87238250D01*
X182091451Y-85538250D01*
X182085659Y-85479440D01*
X182068504Y-85422890D01*
X182040647Y-85370773D01*
X182003158Y-85325092D01*
X181957477Y-85287603D01*
X181905360Y-85259746D01*
X181848810Y-85242591D01*
X181790000Y-85236799D01*
X180090000Y-85236799D01*
X180031190Y-85242591D01*
X179974640Y-85259746D01*
X179922523Y-85287603D01*
X179876842Y-85325092D01*
X179839353Y-85370773D01*
X179811496Y-85422890D01*
X179794341Y-85479440D01*
X179788549Y-85538250D01*
X141865754Y-85538250D01*
X141854729Y-85530884D01*
X141645443Y-85444194D01*
X141423265Y-85400000D01*
X141196735Y-85400000D01*
X140974557Y-85444194D01*
X140765271Y-85530884D01*
X140576918Y-85656737D01*
X140416737Y-85816918D01*
X140290884Y-86005271D01*
X140204194Y-86214557D01*
X140160000Y-86436735D01*
X139920000Y-86436735D01*
X139875806Y-86214557D01*
X139789116Y-86005271D01*
X139663263Y-85816918D01*
X139503082Y-85656737D01*
X139314729Y-85530884D01*
X139105443Y-85444194D01*
X138883265Y-85400000D01*
X138656735Y-85400000D01*
X138434557Y-85444194D01*
X138225271Y-85530884D01*
X138036918Y-85656737D01*
X137876737Y-85816918D01*
X137750884Y-86005271D01*
X137664194Y-86214557D01*
X137620000Y-86436735D01*
X137253917Y-86436735D01*
X137266279Y-86380807D01*
X137213359Y-86181890D01*
X137122649Y-85997119D01*
X136997635Y-85833595D01*
X136843121Y-85697602D01*
X136665045Y-85594367D01*
X136470251Y-85527856D01*
X136399193Y-85513721D01*
X136235000Y-85550013D01*
X136225000Y-85550013D01*
X136060807Y-85513721D01*
X135989749Y-85527856D01*
X135794955Y-85594367D01*
X135616879Y-85697602D01*
X135462365Y-85833595D01*
X135337351Y-85997119D01*
X135246641Y-86181890D01*
X135193721Y-86380807D01*
X134828876Y-86380807D01*
X134795806Y-86214557D01*
X134709116Y-86005271D01*
X134583263Y-85816918D01*
X134423082Y-85656737D01*
X134234729Y-85530884D01*
X134025443Y-85444194D01*
X133803265Y-85400000D01*
X133576735Y-85400000D01*
X133354557Y-85444194D01*
X133145271Y-85530884D01*
X132956918Y-85656737D01*
X132796737Y-85816918D01*
X132670884Y-86005271D01*
X132584194Y-86214557D01*
X132540000Y-86436735D01*
X132300000Y-86436735D01*
X132255806Y-86214557D01*
X132169116Y-86005271D01*
X132043263Y-85816918D01*
X131883082Y-85656737D01*
X131694729Y-85530884D01*
X131485443Y-85444194D01*
X131263265Y-85400000D01*
X131036735Y-85400000D01*
X130814557Y-85444194D01*
X130605271Y-85530884D01*
X130416918Y-85656737D01*
X130256737Y-85816918D01*
X130130884Y-86005271D01*
X130044194Y-86214557D01*
X130000000Y-86436735D01*
X118424086Y-86436735D01*
X118297145Y-86130273D01*
X118096204Y-85829544D01*
X117840456Y-85573796D01*
X117539727Y-85372855D01*
X117205575Y-85234445D01*
X116850842Y-85163884D01*
X116489158Y-85163884D01*
X116134425Y-85234445D01*
X115800273Y-85372855D01*
X115499544Y-85573796D01*
X115243796Y-85829544D01*
X115042855Y-86130273D01*
X114904445Y-86464425D01*
X114833884Y-86819158D01*
X113995000Y-86819158D01*
X113995000Y-84325000D01*
X199675001Y-84325000D01*
X199675000Y-121031000D01*
G37*
G04 #@! TD.AperFunction*
M02*
