%FSLAX45Y45*%
G04 Gerber Fmt 4.5, Leading zero omitted, Abs format (unit mm)*
G04 Created by KiCad (PCBNEW (5.1.12)-1) date 2024-01-22 15:17:32*
%MOMM*%
%LPD*%
G01*
G04 APERTURE LIST*
%TA.AperFunction,Profile*%
%ADD10C,0.050000*%
%TD*%
%ADD11C,0.200000*%
%ADD12C,0.300000*%
G04 APERTURE END LIST*
D10*
X11817000Y-8700000D02*
G75*
G03*
X11817000Y-8700000I-150000J0D01*
G01*
X19850000Y-8700000D02*
G75*
G03*
X19850000Y-8700000I-150000J0D01*
G01*
X20000000Y-12135600D02*
X20000000Y-8400000D01*
X11367000Y-8400000D02*
X20000000Y-8400000D01*
X11367000Y-12135600D02*
X11367000Y-8400000D01*
X20000000Y-12135600D02*
X11367000Y-12135600D01*
D11*
X13170000Y-11602000D02*
X13200000Y-11632000D01*
X13200000Y-11602000D02*
X13170000Y-11632000D01*
X13291000Y-11732000D02*
X13321000Y-11762000D01*
X13321000Y-11732000D02*
X13291000Y-11762000D01*
X13412000Y-11862000D02*
X13442000Y-11892000D01*
X13442000Y-11862000D02*
X13412000Y-11892000D01*
X13525000Y-11992000D02*
X13555000Y-12022000D01*
X13555000Y-11992000D02*
X13525000Y-12022000D01*
X13625000Y-10467000D02*
X13655000Y-10497000D01*
X13655000Y-10467000D02*
X13625000Y-10497000D01*
X13648000Y-11667000D02*
X13678000Y-11697000D01*
X13678000Y-11667000D02*
X13648000Y-11697000D01*
X13759000Y-11797000D02*
X13789000Y-11827000D01*
X13789000Y-11797000D02*
X13759000Y-11827000D01*
X13880000Y-11927000D02*
X13910000Y-11957000D01*
X13910000Y-11927000D02*
X13880000Y-11957000D01*
X14010000Y-12057000D02*
X14040000Y-12087000D01*
X14040000Y-12057000D02*
X14010000Y-12087000D01*
X14130000Y-11602000D02*
X14160000Y-11632000D01*
X14160000Y-11602000D02*
X14130000Y-11632000D01*
X14250000Y-11732000D02*
X14280000Y-11762000D01*
X14280000Y-11732000D02*
X14250000Y-11762000D01*
X14370000Y-11862000D02*
X14400000Y-11892000D01*
X14400000Y-11862000D02*
X14370000Y-11892000D01*
X14490000Y-11992000D02*
X14520000Y-12022000D01*
X14520000Y-11992000D02*
X14490000Y-12022000D01*
X14610000Y-11667000D02*
X14640000Y-11697000D01*
X14640000Y-11667000D02*
X14610000Y-11697000D01*
X14730000Y-11797000D02*
X14760000Y-11827000D01*
X14760000Y-11797000D02*
X14730000Y-11827000D01*
X14850000Y-11927000D02*
X14880000Y-11957000D01*
X14880000Y-11927000D02*
X14850000Y-11957000D01*
X14970000Y-12057000D02*
X15000000Y-12087000D01*
X15000000Y-12057000D02*
X14970000Y-12087000D01*
X15090000Y-11602000D02*
X15120000Y-11632000D01*
X15120000Y-11602000D02*
X15090000Y-11632000D01*
X15210000Y-11732000D02*
X15240000Y-11762000D01*
X15240000Y-11732000D02*
X15210000Y-11762000D01*
X15330000Y-11862000D02*
X15360000Y-11892000D01*
X15360000Y-11862000D02*
X15330000Y-11892000D01*
X15450000Y-11992000D02*
X15480000Y-12022000D01*
X15480000Y-11992000D02*
X15450000Y-12022000D01*
X15570000Y-11667000D02*
X15600000Y-11697000D01*
X15600000Y-11667000D02*
X15570000Y-11697000D01*
X15690000Y-11797000D02*
X15720000Y-11827000D01*
X15720000Y-11797000D02*
X15690000Y-11827000D01*
X15810000Y-11927000D02*
X15840000Y-11957000D01*
X15840000Y-11927000D02*
X15810000Y-11957000D01*
X15930000Y-12057000D02*
X15960000Y-12087000D01*
X15960000Y-12057000D02*
X15930000Y-12087000D01*
X16050000Y-11602000D02*
X16080000Y-11632000D01*
X16080000Y-11602000D02*
X16050000Y-11632000D01*
X16170000Y-11732000D02*
X16200000Y-11762000D01*
X16200000Y-11732000D02*
X16170000Y-11762000D01*
X16290000Y-11862000D02*
X16320000Y-11892000D01*
X16320000Y-11862000D02*
X16290000Y-11892000D01*
X16410000Y-11992000D02*
X16440000Y-12022000D01*
X16440000Y-11992000D02*
X16410000Y-12022000D01*
X16530000Y-11667000D02*
X16560000Y-11697000D01*
X16560000Y-11667000D02*
X16530000Y-11697000D01*
X16650000Y-11797000D02*
X16680000Y-11827000D01*
X16680000Y-11797000D02*
X16650000Y-11827000D01*
X16770000Y-11927000D02*
X16800000Y-11957000D01*
X16800000Y-11927000D02*
X16770000Y-11957000D01*
X16890000Y-12057000D02*
X16920000Y-12087000D01*
X16920000Y-12057000D02*
X16890000Y-12087000D01*
X17010000Y-11602000D02*
X17040000Y-11632000D01*
X17040000Y-11602000D02*
X17010000Y-11632000D01*
X17130000Y-11732000D02*
X17160000Y-11762000D01*
X17160000Y-11732000D02*
X17130000Y-11762000D01*
X17250000Y-11862000D02*
X17280000Y-11892000D01*
X17280000Y-11862000D02*
X17250000Y-11892000D01*
X17370000Y-11992000D02*
X17400000Y-12022000D01*
X17400000Y-11992000D02*
X17370000Y-12022000D01*
X17490000Y-11667000D02*
X17520000Y-11697000D01*
X17520000Y-11667000D02*
X17490000Y-11697000D01*
X17610000Y-11797000D02*
X17640000Y-11827000D01*
X17640000Y-11797000D02*
X17610000Y-11827000D01*
X17730000Y-11927000D02*
X17760000Y-11957000D01*
X17760000Y-11927000D02*
X17730000Y-11957000D01*
X17850000Y-12057000D02*
X17880000Y-12087000D01*
X17880000Y-12057000D02*
X17850000Y-12087000D01*
X17970000Y-11602000D02*
X18000000Y-11632000D01*
X18000000Y-11602000D02*
X17970000Y-11632000D01*
X18090000Y-11732000D02*
X18120000Y-11762000D01*
X18120000Y-11732000D02*
X18090000Y-11762000D01*
X18210000Y-11862000D02*
X18240000Y-11892000D01*
X18240000Y-11862000D02*
X18210000Y-11892000D01*
X18330000Y-11992000D02*
X18360000Y-12022000D01*
X18360000Y-11992000D02*
X18330000Y-12022000D01*
X18450000Y-11667000D02*
X18480000Y-11697000D01*
X18480000Y-11667000D02*
X18450000Y-11697000D01*
X18570000Y-11797000D02*
X18600000Y-11827000D01*
X18600000Y-11797000D02*
X18570000Y-11827000D01*
X18690000Y-11927000D02*
X18720000Y-11957000D01*
X18720000Y-11927000D02*
X18690000Y-11957000D01*
X18810000Y-12057000D02*
X18840000Y-12087000D01*
X18840000Y-12057000D02*
X18810000Y-12087000D01*
X18930000Y-11602000D02*
X18960000Y-11632000D01*
X18960000Y-11602000D02*
X18930000Y-11632000D01*
X19050000Y-11732000D02*
X19080000Y-11762000D01*
X19080000Y-11732000D02*
X19050000Y-11762000D01*
X19170000Y-11862000D02*
X19200000Y-11892000D01*
X19200000Y-11862000D02*
X19170000Y-11892000D01*
X19290000Y-11992000D02*
X19320000Y-12022000D01*
X19320000Y-11992000D02*
X19290000Y-12022000D01*
X19410000Y-11667000D02*
X19440000Y-11697000D01*
X19440000Y-11667000D02*
X19410000Y-11697000D01*
X19530000Y-11797000D02*
X19560000Y-11827000D01*
X19560000Y-11797000D02*
X19530000Y-11827000D01*
X19650000Y-11927000D02*
X19680000Y-11957000D01*
X19680000Y-11927000D02*
X19650000Y-11957000D01*
X19770000Y-12057000D02*
X19800000Y-12087000D01*
X19800000Y-12057000D02*
X19770000Y-12087000D01*
X11532800Y-10796200D02*
G75*
G03*
X11532800Y-10796200I-20000J0D01*
G01*
X11758400Y-11246600D02*
G75*
G03*
X11758400Y-11246600I-20000J0D01*
G01*
X11760171Y-11514500D02*
G75*
G03*
X11760171Y-11514500I-20000J0D01*
G01*
X11761400Y-11091600D02*
G75*
G03*
X11761400Y-11091600I-20000J0D01*
G01*
X12130400Y-11246600D02*
G75*
G03*
X12130400Y-11246600I-20000J0D01*
G01*
X12142400Y-11091600D02*
G75*
G03*
X12142400Y-11091600I-20000J0D01*
G01*
X12147647Y-11514500D02*
G75*
G03*
X12147647Y-11514500I-20000J0D01*
G01*
X12307000Y-9328000D02*
G75*
G03*
X12307000Y-9328000I-20000J0D01*
G01*
X12320000Y-10605000D02*
G75*
G03*
X12320000Y-10605000I-20000J0D01*
G01*
X12490000Y-10607000D02*
G75*
G03*
X12490000Y-10607000I-20000J0D01*
G01*
X12525400Y-11246600D02*
G75*
G03*
X12525400Y-11246600I-20000J0D01*
G01*
X12535124Y-11514500D02*
G75*
G03*
X12535124Y-11514500I-20000J0D01*
G01*
X12548800Y-11091600D02*
G75*
G03*
X12548800Y-11091600I-20000J0D01*
G01*
X12758800Y-10002000D02*
G75*
G03*
X12758800Y-10002000I-20000J0D01*
G01*
X12815000Y-10985000D02*
G75*
G03*
X12815000Y-10985000I-20000J0D01*
G01*
X12872000Y-10411000D02*
G75*
G03*
X12872000Y-10411000I-20000J0D01*
G01*
X12922600Y-11514500D02*
G75*
G03*
X12922600Y-11514500I-20000J0D01*
G01*
X12936200Y-11246600D02*
G75*
G03*
X12936200Y-11246600I-20000J0D01*
G01*
X12980600Y-8916600D02*
G75*
G03*
X12980600Y-8916600I-20000J0D01*
G01*
X13023000Y-9331000D02*
G75*
G03*
X13023000Y-9331000I-20000J0D01*
G01*
X13181000Y-9275000D02*
G75*
G03*
X13181000Y-9275000I-20000J0D01*
G01*
X13240000Y-10324000D02*
G75*
G03*
X13240000Y-10324000I-20000J0D01*
G01*
X13260000Y-9069000D02*
G75*
G03*
X13260000Y-9069000I-20000J0D01*
G01*
X13361600Y-9831000D02*
G75*
G03*
X13361600Y-9831000I-20000J0D01*
G01*
X13387000Y-9653200D02*
G75*
G03*
X13387000Y-9653200I-20000J0D01*
G01*
X13387000Y-10059600D02*
G75*
G03*
X13387000Y-10059600I-20000J0D01*
G01*
X13468000Y-9940000D02*
G75*
G03*
X13468000Y-9940000I-20000J0D01*
G01*
X13539400Y-10059600D02*
G75*
G03*
X13539400Y-10059600I-20000J0D01*
G01*
X13564800Y-9831000D02*
G75*
G03*
X13564800Y-9831000I-20000J0D01*
G01*
X13785500Y-9330500D02*
G75*
G03*
X13785500Y-9330500I-20000J0D01*
G01*
X13785500Y-9678500D02*
G75*
G03*
X13785500Y-9678500I-20000J0D01*
G01*
X13806000Y-10069000D02*
G75*
G03*
X13806000Y-10069000I-20000J0D01*
G01*
X13818800Y-9780200D02*
G75*
G03*
X13818800Y-9780200I-20000J0D01*
G01*
X13910000Y-10197000D02*
G75*
G03*
X13910000Y-10197000I-20000J0D01*
G01*
X14292000Y-10341000D02*
G75*
G03*
X14292000Y-10341000I-20000J0D01*
G01*
X14348800Y-10190000D02*
G75*
G03*
X14348800Y-10190000I-20000J0D01*
G01*
X14352200Y-10008800D02*
G75*
G03*
X14352200Y-10008800I-20000J0D01*
G01*
X14360000Y-8855000D02*
G75*
G03*
X14360000Y-8855000I-20000J0D01*
G01*
X14499500Y-9607500D02*
G75*
G03*
X14499500Y-9607500I-20000J0D01*
G01*
X14530000Y-9932600D02*
G75*
G03*
X14530000Y-9932600I-20000J0D01*
G01*
X14687000Y-8951000D02*
G75*
G03*
X14687000Y-8951000I-20000J0D01*
G01*
X14689000Y-8767000D02*
G75*
G03*
X14689000Y-8767000I-20000J0D01*
G01*
X14860200Y-9678600D02*
G75*
G03*
X14860200Y-9678600I-20000J0D01*
G01*
X14984000Y-8763000D02*
G75*
G03*
X14984000Y-8763000I-20000J0D01*
G01*
X14999000Y-9189000D02*
G75*
G03*
X14999000Y-9189000I-20000J0D01*
G01*
X15001000Y-9068000D02*
G75*
G03*
X15001000Y-9068000I-20000J0D01*
G01*
X15212000Y-9655000D02*
G75*
G03*
X15212000Y-9655000I-20000J0D01*
G01*
X16929000Y-8923000D02*
G75*
G03*
X16929000Y-8923000I-20000J0D01*
G01*
X17044600Y-9272200D02*
G75*
G03*
X17044600Y-9272200I-20000J0D01*
G01*
X17399800Y-10034200D02*
G75*
G03*
X17399800Y-10034200I-20000J0D01*
G01*
X17451000Y-9359000D02*
G75*
G03*
X17451000Y-9359000I-20000J0D01*
G01*
X17527200Y-9768550D02*
G75*
G03*
X17527200Y-9768550I-20000J0D01*
G01*
X17536250Y-9923550D02*
G75*
G03*
X17536250Y-9923550I-20000J0D01*
G01*
X17603400Y-9359000D02*
G75*
G03*
X17603400Y-9359000I-20000J0D01*
G01*
X17729000Y-8909000D02*
G75*
G03*
X17729000Y-8909000I-20000J0D01*
G01*
X17730400Y-8778200D02*
G75*
G03*
X17730400Y-8778200I-20000J0D01*
G01*
X17835000Y-9449000D02*
G75*
G03*
X17835000Y-9449000I-20000J0D01*
G01*
X17925000Y-9361000D02*
G75*
G03*
X17925000Y-9361000I-20000J0D01*
G01*
X19025800Y-9805600D02*
G75*
G03*
X19025800Y-9805600I-20000J0D01*
G01*
X19228450Y-9983950D02*
G75*
G03*
X19228450Y-9983950I-20000J0D01*
G01*
X19813200Y-9831000D02*
G75*
G03*
X19813200Y-9831000I-20000J0D01*
G01*
X15252800Y-8636000D02*
X15252800Y-8696000D01*
X15222800Y-8666000D02*
X15282800Y-8666000D01*
X15272800Y-8696000D02*
X15272800Y-8636000D01*
X15232800Y-8696000D02*
X15232800Y-8636000D01*
X15272800Y-8636000D02*
G75*
G03*
X15232800Y-8636000I-20000J0D01*
G01*
X15232800Y-8696000D02*
G75*
G03*
X15272800Y-8696000I20000J0D01*
G01*
X15252800Y-9054000D02*
X15252800Y-9114000D01*
X15222800Y-9084000D02*
X15282800Y-9084000D01*
X15272800Y-9139000D02*
X15272800Y-9029000D01*
X15232800Y-9139000D02*
X15232800Y-9029000D01*
X15272800Y-9029000D02*
G75*
G03*
X15232800Y-9029000I-20000J0D01*
G01*
X15232800Y-9139000D02*
G75*
G03*
X15272800Y-9139000I20000J0D01*
G01*
X16116800Y-8636000D02*
X16116800Y-8696000D01*
X16086800Y-8666000D02*
X16146800Y-8666000D01*
X16136800Y-8696000D02*
X16136800Y-8636000D01*
X16096800Y-8696000D02*
X16096800Y-8636000D01*
X16136800Y-8636000D02*
G75*
G03*
X16096800Y-8636000I-20000J0D01*
G01*
X16096800Y-8696000D02*
G75*
G03*
X16136800Y-8696000I20000J0D01*
G01*
X16116800Y-9054000D02*
X16116800Y-9114000D01*
X16086800Y-9084000D02*
X16146800Y-9084000D01*
X16136800Y-9139000D02*
X16136800Y-9029000D01*
X16096800Y-9139000D02*
X16096800Y-9029000D01*
X16136800Y-9029000D02*
G75*
G03*
X16096800Y-9029000I-20000J0D01*
G01*
X16096800Y-9139000D02*
G75*
G03*
X16136800Y-9139000I20000J0D01*
G01*
X13150356Y-8690356D02*
X13150356Y-8619644D01*
X13079644Y-8619644D01*
X13079644Y-8690356D01*
X13150356Y-8690356D01*
X13150356Y-8944356D02*
X13150356Y-8873644D01*
X13079644Y-8873644D01*
X13079644Y-8944356D01*
X13150356Y-8944356D01*
X13404356Y-8690356D02*
X13404356Y-8619644D01*
X13333644Y-8619644D01*
X13333644Y-8690356D01*
X13404356Y-8690356D01*
X13404356Y-8944356D02*
X13404356Y-8873644D01*
X13333644Y-8873644D01*
X13333644Y-8944356D01*
X13404356Y-8944356D01*
X13658356Y-8690356D02*
X13658356Y-8619644D01*
X13587644Y-8619644D01*
X13587644Y-8690356D01*
X13658356Y-8690356D01*
X13658356Y-8944356D02*
X13658356Y-8873644D01*
X13587644Y-8873644D01*
X13587644Y-8944356D01*
X13658356Y-8944356D01*
X13912356Y-8690356D02*
X13912356Y-8619644D01*
X13841644Y-8619644D01*
X13841644Y-8690356D01*
X13912356Y-8690356D01*
X13912356Y-8944356D02*
X13912356Y-8873644D01*
X13841644Y-8873644D01*
X13841644Y-8944356D01*
X13912356Y-8944356D01*
X14166356Y-8690356D02*
X14166356Y-8619644D01*
X14095644Y-8619644D01*
X14095644Y-8690356D01*
X14166356Y-8690356D01*
X14166356Y-8944356D02*
X14166356Y-8873644D01*
X14095644Y-8873644D01*
X14095644Y-8944356D01*
X14166356Y-8944356D01*
X18129356Y-8674181D02*
X18129356Y-8603469D01*
X18058644Y-8603469D01*
X18058644Y-8674181D01*
X18129356Y-8674181D01*
X18129356Y-9087406D02*
X18129356Y-9016694D01*
X18058644Y-9016694D01*
X18058644Y-9087406D01*
X18129356Y-9087406D01*
X18129356Y-9341406D02*
X18129356Y-9270694D01*
X18058644Y-9270694D01*
X18058644Y-9341406D01*
X18129356Y-9341406D01*
X18129356Y-9595406D02*
X18129356Y-9524694D01*
X18058644Y-9524694D01*
X18058644Y-9595406D01*
X18129356Y-9595406D01*
X18129356Y-9849406D02*
X18129356Y-9778694D01*
X18058644Y-9778694D01*
X18058644Y-9849406D01*
X18129356Y-9849406D01*
X18383356Y-8674181D02*
X18383356Y-8603469D01*
X18312644Y-8603469D01*
X18312644Y-8674181D01*
X18383356Y-8674181D01*
X18637356Y-8674181D02*
X18637356Y-8603469D01*
X18566644Y-8603469D01*
X18566644Y-8674181D01*
X18637356Y-8674181D01*
X18891356Y-8674181D02*
X18891356Y-8603469D01*
X18820644Y-8603469D01*
X18820644Y-8674181D01*
X18891356Y-8674181D01*
D12*
X11650928Y-12603814D02*
X11650928Y-12303814D01*
X11722357Y-12303814D01*
X11765214Y-12318100D01*
X11793786Y-12346671D01*
X11808071Y-12375243D01*
X11822357Y-12432386D01*
X11822357Y-12475243D01*
X11808071Y-12532386D01*
X11793786Y-12560957D01*
X11765214Y-12589529D01*
X11722357Y-12603814D01*
X11650928Y-12603814D01*
X11950928Y-12603814D02*
X11950928Y-12403814D01*
X11950928Y-12460957D02*
X11965214Y-12432386D01*
X11979500Y-12418100D01*
X12008071Y-12403814D01*
X12036643Y-12403814D01*
X12136643Y-12603814D02*
X12136643Y-12403814D01*
X12136643Y-12303814D02*
X12122357Y-12318100D01*
X12136643Y-12332386D01*
X12150928Y-12318100D01*
X12136643Y-12303814D01*
X12136643Y-12332386D01*
X12322357Y-12603814D02*
X12293786Y-12589529D01*
X12279500Y-12560957D01*
X12279500Y-12303814D01*
X12479500Y-12603814D02*
X12450928Y-12589529D01*
X12436643Y-12560957D01*
X12436643Y-12303814D01*
X12822357Y-12603814D02*
X12822357Y-12303814D01*
X12922357Y-12518100D01*
X13022357Y-12303814D01*
X13022357Y-12603814D01*
X13293786Y-12603814D02*
X13293786Y-12446671D01*
X13279500Y-12418100D01*
X13250928Y-12403814D01*
X13193786Y-12403814D01*
X13165214Y-12418100D01*
X13293786Y-12589529D02*
X13265214Y-12603814D01*
X13193786Y-12603814D01*
X13165214Y-12589529D01*
X13150928Y-12560957D01*
X13150928Y-12532386D01*
X13165214Y-12503814D01*
X13193786Y-12489529D01*
X13265214Y-12489529D01*
X13293786Y-12475243D01*
X13436643Y-12403814D02*
X13436643Y-12703814D01*
X13436643Y-12418100D02*
X13465214Y-12403814D01*
X13522357Y-12403814D01*
X13550928Y-12418100D01*
X13565214Y-12432386D01*
X13579500Y-12460957D01*
X13579500Y-12546671D01*
X13565214Y-12575243D01*
X13550928Y-12589529D01*
X13522357Y-12603814D01*
X13465214Y-12603814D01*
X13436643Y-12589529D01*
X13708071Y-12575243D02*
X13722357Y-12589529D01*
X13708071Y-12603814D01*
X13693786Y-12589529D01*
X13708071Y-12575243D01*
X13708071Y-12603814D01*
X13708071Y-12418100D02*
X13722357Y-12432386D01*
X13708071Y-12446671D01*
X13693786Y-12432386D01*
X13708071Y-12418100D01*
X13708071Y-12446671D01*
X11334500Y-13083100D02*
X11364500Y-13113100D01*
X11364500Y-13083100D02*
X11334500Y-13113100D01*
X11708071Y-12933814D02*
X11736643Y-12933814D01*
X11765214Y-12948100D01*
X11779500Y-12962386D01*
X11793786Y-12990957D01*
X11808071Y-13048100D01*
X11808071Y-13119529D01*
X11793786Y-13176671D01*
X11779500Y-13205243D01*
X11765214Y-13219529D01*
X11736643Y-13233814D01*
X11708071Y-13233814D01*
X11679500Y-13219529D01*
X11665214Y-13205243D01*
X11650928Y-13176671D01*
X11636643Y-13119529D01*
X11636643Y-13048100D01*
X11650928Y-12990957D01*
X11665214Y-12962386D01*
X11679500Y-12948100D01*
X11708071Y-12933814D01*
X11936643Y-13205243D02*
X11950928Y-13219529D01*
X11936643Y-13233814D01*
X11922357Y-13219529D01*
X11936643Y-13205243D01*
X11936643Y-13233814D01*
X12050928Y-12933814D02*
X12236643Y-12933814D01*
X12136643Y-13048100D01*
X12179500Y-13048100D01*
X12208071Y-13062386D01*
X12222357Y-13076671D01*
X12236643Y-13105243D01*
X12236643Y-13176671D01*
X12222357Y-13205243D01*
X12208071Y-13219529D01*
X12179500Y-13233814D01*
X12093786Y-13233814D01*
X12065214Y-13219529D01*
X12050928Y-13205243D01*
X12422357Y-12933814D02*
X12450928Y-12933814D01*
X12479500Y-12948100D01*
X12493786Y-12962386D01*
X12508071Y-12990957D01*
X12522357Y-13048100D01*
X12522357Y-13119529D01*
X12508071Y-13176671D01*
X12493786Y-13205243D01*
X12479500Y-13219529D01*
X12450928Y-13233814D01*
X12422357Y-13233814D01*
X12393786Y-13219529D01*
X12379500Y-13205243D01*
X12365214Y-13176671D01*
X12350928Y-13119529D01*
X12350928Y-13048100D01*
X12365214Y-12990957D01*
X12379500Y-12962386D01*
X12393786Y-12948100D01*
X12422357Y-12933814D01*
X12708071Y-12933814D02*
X12736643Y-12933814D01*
X12765214Y-12948100D01*
X12779500Y-12962386D01*
X12793786Y-12990957D01*
X12808071Y-13048100D01*
X12808071Y-13119529D01*
X12793786Y-13176671D01*
X12779500Y-13205243D01*
X12765214Y-13219529D01*
X12736643Y-13233814D01*
X12708071Y-13233814D01*
X12679500Y-13219529D01*
X12665214Y-13205243D01*
X12650928Y-13176671D01*
X12636643Y-13119529D01*
X12636643Y-13048100D01*
X12650928Y-12990957D01*
X12665214Y-12962386D01*
X12679500Y-12948100D01*
X12708071Y-12933814D01*
X12936643Y-13233814D02*
X12936643Y-13033814D01*
X12936643Y-13062386D02*
X12950928Y-13048100D01*
X12979500Y-13033814D01*
X13022357Y-13033814D01*
X13050928Y-13048100D01*
X13065214Y-13076671D01*
X13065214Y-13233814D01*
X13065214Y-13076671D02*
X13079500Y-13048100D01*
X13108071Y-13033814D01*
X13150928Y-13033814D01*
X13179500Y-13048100D01*
X13193786Y-13076671D01*
X13193786Y-13233814D01*
X13336643Y-13233814D02*
X13336643Y-13033814D01*
X13336643Y-13062386D02*
X13350928Y-13048100D01*
X13379500Y-13033814D01*
X13422357Y-13033814D01*
X13450928Y-13048100D01*
X13465214Y-13076671D01*
X13465214Y-13233814D01*
X13465214Y-13076671D02*
X13479500Y-13048100D01*
X13508071Y-13033814D01*
X13550928Y-13033814D01*
X13579500Y-13048100D01*
X13593786Y-13076671D01*
X13593786Y-13233814D01*
X14179500Y-12919529D02*
X13922357Y-13305243D01*
X14565214Y-12933814D02*
X14593786Y-12933814D01*
X14622357Y-12948100D01*
X14636643Y-12962386D01*
X14650928Y-12990957D01*
X14665214Y-13048100D01*
X14665214Y-13119529D01*
X14650928Y-13176671D01*
X14636643Y-13205243D01*
X14622357Y-13219529D01*
X14593786Y-13233814D01*
X14565214Y-13233814D01*
X14536643Y-13219529D01*
X14522357Y-13205243D01*
X14508071Y-13176671D01*
X14493786Y-13119529D01*
X14493786Y-13048100D01*
X14508071Y-12990957D01*
X14522357Y-12962386D01*
X14536643Y-12948100D01*
X14565214Y-12933814D01*
X14793786Y-13205243D02*
X14808071Y-13219529D01*
X14793786Y-13233814D01*
X14779500Y-13219529D01*
X14793786Y-13205243D01*
X14793786Y-13233814D01*
X14993786Y-12933814D02*
X15022357Y-12933814D01*
X15050928Y-12948100D01*
X15065214Y-12962386D01*
X15079500Y-12990957D01*
X15093786Y-13048100D01*
X15093786Y-13119529D01*
X15079500Y-13176671D01*
X15065214Y-13205243D01*
X15050928Y-13219529D01*
X15022357Y-13233814D01*
X14993786Y-13233814D01*
X14965214Y-13219529D01*
X14950928Y-13205243D01*
X14936643Y-13176671D01*
X14922357Y-13119529D01*
X14922357Y-13048100D01*
X14936643Y-12990957D01*
X14950928Y-12962386D01*
X14965214Y-12948100D01*
X14993786Y-12933814D01*
X15379500Y-13233814D02*
X15208071Y-13233814D01*
X15293786Y-13233814D02*
X15293786Y-12933814D01*
X15265214Y-12976671D01*
X15236643Y-13005243D01*
X15208071Y-13019529D01*
X15665214Y-13233814D02*
X15493786Y-13233814D01*
X15579500Y-13233814D02*
X15579500Y-12933814D01*
X15550928Y-12976671D01*
X15522357Y-13005243D01*
X15493786Y-13019529D01*
X15836643Y-13062386D02*
X15808071Y-13048100D01*
X15793786Y-13033814D01*
X15779500Y-13005243D01*
X15779500Y-12990957D01*
X15793786Y-12962386D01*
X15808071Y-12948100D01*
X15836643Y-12933814D01*
X15893786Y-12933814D01*
X15922357Y-12948100D01*
X15936643Y-12962386D01*
X15950928Y-12990957D01*
X15950928Y-13005243D01*
X15936643Y-13033814D01*
X15922357Y-13048100D01*
X15893786Y-13062386D01*
X15836643Y-13062386D01*
X15808071Y-13076671D01*
X15793786Y-13090957D01*
X15779500Y-13119529D01*
X15779500Y-13176671D01*
X15793786Y-13205243D01*
X15808071Y-13219529D01*
X15836643Y-13233814D01*
X15893786Y-13233814D01*
X15922357Y-13219529D01*
X15936643Y-13205243D01*
X15950928Y-13176671D01*
X15950928Y-13119529D01*
X15936643Y-13090957D01*
X15922357Y-13076671D01*
X15893786Y-13062386D01*
X16065214Y-12933814D02*
X16065214Y-12990957D01*
X16179500Y-12933814D02*
X16179500Y-12990957D01*
X16622357Y-13348100D02*
X16608071Y-13333814D01*
X16579500Y-13290957D01*
X16565214Y-13262386D01*
X16550928Y-13219529D01*
X16536643Y-13148100D01*
X16536643Y-13090957D01*
X16550928Y-13019529D01*
X16565214Y-12976671D01*
X16579500Y-12948100D01*
X16608071Y-12905243D01*
X16622357Y-12890957D01*
X16879500Y-12933814D02*
X16736643Y-12933814D01*
X16722357Y-13076671D01*
X16736643Y-13062386D01*
X16765214Y-13048100D01*
X16836643Y-13048100D01*
X16865214Y-13062386D01*
X16879500Y-13076671D01*
X16893786Y-13105243D01*
X16893786Y-13176671D01*
X16879500Y-13205243D01*
X16865214Y-13219529D01*
X16836643Y-13233814D01*
X16765214Y-13233814D01*
X16736643Y-13219529D01*
X16722357Y-13205243D01*
X16993786Y-12933814D02*
X17193786Y-12933814D01*
X17065214Y-13233814D01*
X17536643Y-13233814D02*
X17536643Y-12933814D01*
X17665214Y-13233814D02*
X17665214Y-13076671D01*
X17650928Y-13048100D01*
X17622357Y-13033814D01*
X17579500Y-13033814D01*
X17550928Y-13048100D01*
X17536643Y-13062386D01*
X17850928Y-13233814D02*
X17822357Y-13219529D01*
X17808071Y-13205243D01*
X17793786Y-13176671D01*
X17793786Y-13090957D01*
X17808071Y-13062386D01*
X17822357Y-13048100D01*
X17850928Y-13033814D01*
X17893786Y-13033814D01*
X17922357Y-13048100D01*
X17936643Y-13062386D01*
X17950928Y-13090957D01*
X17950928Y-13176671D01*
X17936643Y-13205243D01*
X17922357Y-13219529D01*
X17893786Y-13233814D01*
X17850928Y-13233814D01*
X18122357Y-13233814D02*
X18093786Y-13219529D01*
X18079500Y-13190957D01*
X18079500Y-12933814D01*
X18350928Y-13219529D02*
X18322357Y-13233814D01*
X18265214Y-13233814D01*
X18236643Y-13219529D01*
X18222357Y-13190957D01*
X18222357Y-13076671D01*
X18236643Y-13048100D01*
X18265214Y-13033814D01*
X18322357Y-13033814D01*
X18350928Y-13048100D01*
X18365214Y-13076671D01*
X18365214Y-13105243D01*
X18222357Y-13133814D01*
X18479500Y-13219529D02*
X18508071Y-13233814D01*
X18565214Y-13233814D01*
X18593786Y-13219529D01*
X18608071Y-13190957D01*
X18608071Y-13176671D01*
X18593786Y-13148100D01*
X18565214Y-13133814D01*
X18522357Y-13133814D01*
X18493786Y-13119529D01*
X18479500Y-13090957D01*
X18479500Y-13076671D01*
X18493786Y-13048100D01*
X18522357Y-13033814D01*
X18565214Y-13033814D01*
X18593786Y-13048100D01*
X18708071Y-13348100D02*
X18722357Y-13333814D01*
X18750928Y-13290957D01*
X18765214Y-13262386D01*
X18779500Y-13219529D01*
X18793786Y-13148100D01*
X18793786Y-13090957D01*
X18779500Y-13019529D01*
X18765214Y-12976671D01*
X18750928Y-12948100D01*
X18722357Y-12905243D01*
X18708071Y-12890957D01*
X11364500Y-13494100D02*
G75*
G03*
X11364500Y-13494100I-20000J0D01*
G01*
X11708071Y-13329814D02*
X11736643Y-13329814D01*
X11765214Y-13344100D01*
X11779500Y-13358386D01*
X11793786Y-13386957D01*
X11808071Y-13444100D01*
X11808071Y-13515529D01*
X11793786Y-13572671D01*
X11779500Y-13601243D01*
X11765214Y-13615529D01*
X11736643Y-13629814D01*
X11708071Y-13629814D01*
X11679500Y-13615529D01*
X11665214Y-13601243D01*
X11650928Y-13572671D01*
X11636643Y-13515529D01*
X11636643Y-13444100D01*
X11650928Y-13386957D01*
X11665214Y-13358386D01*
X11679500Y-13344100D01*
X11708071Y-13329814D01*
X11936643Y-13601243D02*
X11950928Y-13615529D01*
X11936643Y-13629814D01*
X11922357Y-13615529D01*
X11936643Y-13601243D01*
X11936643Y-13629814D01*
X12208071Y-13429814D02*
X12208071Y-13629814D01*
X12136643Y-13315529D02*
X12065214Y-13529814D01*
X12250928Y-13529814D01*
X12422357Y-13329814D02*
X12450928Y-13329814D01*
X12479500Y-13344100D01*
X12493786Y-13358386D01*
X12508071Y-13386957D01*
X12522357Y-13444100D01*
X12522357Y-13515529D01*
X12508071Y-13572671D01*
X12493786Y-13601243D01*
X12479500Y-13615529D01*
X12450928Y-13629814D01*
X12422357Y-13629814D01*
X12393786Y-13615529D01*
X12379500Y-13601243D01*
X12365214Y-13572671D01*
X12350928Y-13515529D01*
X12350928Y-13444100D01*
X12365214Y-13386957D01*
X12379500Y-13358386D01*
X12393786Y-13344100D01*
X12422357Y-13329814D01*
X12708071Y-13329814D02*
X12736643Y-13329814D01*
X12765214Y-13344100D01*
X12779500Y-13358386D01*
X12793786Y-13386957D01*
X12808071Y-13444100D01*
X12808071Y-13515529D01*
X12793786Y-13572671D01*
X12779500Y-13601243D01*
X12765214Y-13615529D01*
X12736643Y-13629814D01*
X12708071Y-13629814D01*
X12679500Y-13615529D01*
X12665214Y-13601243D01*
X12650928Y-13572671D01*
X12636643Y-13515529D01*
X12636643Y-13444100D01*
X12650928Y-13386957D01*
X12665214Y-13358386D01*
X12679500Y-13344100D01*
X12708071Y-13329814D01*
X12936643Y-13629814D02*
X12936643Y-13429814D01*
X12936643Y-13458386D02*
X12950928Y-13444100D01*
X12979500Y-13429814D01*
X13022357Y-13429814D01*
X13050928Y-13444100D01*
X13065214Y-13472671D01*
X13065214Y-13629814D01*
X13065214Y-13472671D02*
X13079500Y-13444100D01*
X13108071Y-13429814D01*
X13150928Y-13429814D01*
X13179500Y-13444100D01*
X13193786Y-13472671D01*
X13193786Y-13629814D01*
X13336643Y-13629814D02*
X13336643Y-13429814D01*
X13336643Y-13458386D02*
X13350928Y-13444100D01*
X13379500Y-13429814D01*
X13422357Y-13429814D01*
X13450928Y-13444100D01*
X13465214Y-13472671D01*
X13465214Y-13629814D01*
X13465214Y-13472671D02*
X13479500Y-13444100D01*
X13508071Y-13429814D01*
X13550928Y-13429814D01*
X13579500Y-13444100D01*
X13593786Y-13472671D01*
X13593786Y-13629814D01*
X14179500Y-13315529D02*
X13922357Y-13701243D01*
X14565214Y-13329814D02*
X14593786Y-13329814D01*
X14622357Y-13344100D01*
X14636643Y-13358386D01*
X14650928Y-13386957D01*
X14665214Y-13444100D01*
X14665214Y-13515529D01*
X14650928Y-13572671D01*
X14636643Y-13601243D01*
X14622357Y-13615529D01*
X14593786Y-13629814D01*
X14565214Y-13629814D01*
X14536643Y-13615529D01*
X14522357Y-13601243D01*
X14508071Y-13572671D01*
X14493786Y-13515529D01*
X14493786Y-13444100D01*
X14508071Y-13386957D01*
X14522357Y-13358386D01*
X14536643Y-13344100D01*
X14565214Y-13329814D01*
X14793786Y-13601243D02*
X14808071Y-13615529D01*
X14793786Y-13629814D01*
X14779500Y-13615529D01*
X14793786Y-13601243D01*
X14793786Y-13629814D01*
X14993786Y-13329814D02*
X15022357Y-13329814D01*
X15050928Y-13344100D01*
X15065214Y-13358386D01*
X15079500Y-13386957D01*
X15093786Y-13444100D01*
X15093786Y-13515529D01*
X15079500Y-13572671D01*
X15065214Y-13601243D01*
X15050928Y-13615529D01*
X15022357Y-13629814D01*
X14993786Y-13629814D01*
X14965214Y-13615529D01*
X14950928Y-13601243D01*
X14936643Y-13572671D01*
X14922357Y-13515529D01*
X14922357Y-13444100D01*
X14936643Y-13386957D01*
X14950928Y-13358386D01*
X14965214Y-13344100D01*
X14993786Y-13329814D01*
X15379500Y-13629814D02*
X15208071Y-13629814D01*
X15293786Y-13629814D02*
X15293786Y-13329814D01*
X15265214Y-13372671D01*
X15236643Y-13401243D01*
X15208071Y-13415529D01*
X15650928Y-13329814D02*
X15508071Y-13329814D01*
X15493786Y-13472671D01*
X15508071Y-13458386D01*
X15536643Y-13444100D01*
X15608071Y-13444100D01*
X15636643Y-13458386D01*
X15650928Y-13472671D01*
X15665214Y-13501243D01*
X15665214Y-13572671D01*
X15650928Y-13601243D01*
X15636643Y-13615529D01*
X15608071Y-13629814D01*
X15536643Y-13629814D01*
X15508071Y-13615529D01*
X15493786Y-13601243D01*
X15765214Y-13329814D02*
X15965214Y-13329814D01*
X15836643Y-13629814D01*
X16065214Y-13329814D02*
X16065214Y-13386957D01*
X16179500Y-13329814D02*
X16179500Y-13386957D01*
X16622357Y-13744100D02*
X16608071Y-13729814D01*
X16579500Y-13686957D01*
X16565214Y-13658386D01*
X16550928Y-13615529D01*
X16536643Y-13544100D01*
X16536643Y-13486957D01*
X16550928Y-13415529D01*
X16565214Y-13372671D01*
X16579500Y-13344100D01*
X16608071Y-13301243D01*
X16622357Y-13286957D01*
X16865214Y-13329814D02*
X16808071Y-13329814D01*
X16779500Y-13344100D01*
X16765214Y-13358386D01*
X16736643Y-13401243D01*
X16722357Y-13458386D01*
X16722357Y-13572671D01*
X16736643Y-13601243D01*
X16750928Y-13615529D01*
X16779500Y-13629814D01*
X16836643Y-13629814D01*
X16865214Y-13615529D01*
X16879500Y-13601243D01*
X16893786Y-13572671D01*
X16893786Y-13501243D01*
X16879500Y-13472671D01*
X16865214Y-13458386D01*
X16836643Y-13444100D01*
X16779500Y-13444100D01*
X16750928Y-13458386D01*
X16736643Y-13472671D01*
X16722357Y-13501243D01*
X17179500Y-13629814D02*
X17008071Y-13629814D01*
X17093786Y-13629814D02*
X17093786Y-13329814D01*
X17065214Y-13372671D01*
X17036643Y-13401243D01*
X17008071Y-13415529D01*
X17536643Y-13629814D02*
X17536643Y-13329814D01*
X17665214Y-13629814D02*
X17665214Y-13472671D01*
X17650928Y-13444100D01*
X17622357Y-13429814D01*
X17579500Y-13429814D01*
X17550928Y-13444100D01*
X17536643Y-13458386D01*
X17850928Y-13629814D02*
X17822357Y-13615529D01*
X17808071Y-13601243D01*
X17793786Y-13572671D01*
X17793786Y-13486957D01*
X17808071Y-13458386D01*
X17822357Y-13444100D01*
X17850928Y-13429814D01*
X17893786Y-13429814D01*
X17922357Y-13444100D01*
X17936643Y-13458386D01*
X17950928Y-13486957D01*
X17950928Y-13572671D01*
X17936643Y-13601243D01*
X17922357Y-13615529D01*
X17893786Y-13629814D01*
X17850928Y-13629814D01*
X18122357Y-13629814D02*
X18093786Y-13615529D01*
X18079500Y-13586957D01*
X18079500Y-13329814D01*
X18350928Y-13615529D02*
X18322357Y-13629814D01*
X18265214Y-13629814D01*
X18236643Y-13615529D01*
X18222357Y-13586957D01*
X18222357Y-13472671D01*
X18236643Y-13444100D01*
X18265214Y-13429814D01*
X18322357Y-13429814D01*
X18350928Y-13444100D01*
X18365214Y-13472671D01*
X18365214Y-13501243D01*
X18222357Y-13529814D01*
X18479500Y-13615529D02*
X18508071Y-13629814D01*
X18565214Y-13629814D01*
X18593786Y-13615529D01*
X18608071Y-13586957D01*
X18608071Y-13572671D01*
X18593786Y-13544100D01*
X18565214Y-13529814D01*
X18522357Y-13529814D01*
X18493786Y-13515529D01*
X18479500Y-13486957D01*
X18479500Y-13472671D01*
X18493786Y-13444100D01*
X18522357Y-13429814D01*
X18565214Y-13429814D01*
X18593786Y-13444100D01*
X18708071Y-13744100D02*
X18722357Y-13729814D01*
X18750928Y-13686957D01*
X18765214Y-13658386D01*
X18779500Y-13615529D01*
X18793786Y-13544100D01*
X18793786Y-13486957D01*
X18779500Y-13415529D01*
X18765214Y-13372671D01*
X18750928Y-13344100D01*
X18722357Y-13301243D01*
X18708071Y-13286957D01*
X11334500Y-13860100D02*
X11334500Y-13920100D01*
X11304500Y-13890100D02*
X11364500Y-13890100D01*
X11708071Y-13725814D02*
X11736643Y-13725814D01*
X11765214Y-13740100D01*
X11779500Y-13754386D01*
X11793786Y-13782957D01*
X11808071Y-13840100D01*
X11808071Y-13911529D01*
X11793786Y-13968671D01*
X11779500Y-13997243D01*
X11765214Y-14011529D01*
X11736643Y-14025814D01*
X11708071Y-14025814D01*
X11679500Y-14011529D01*
X11665214Y-13997243D01*
X11650928Y-13968671D01*
X11636643Y-13911529D01*
X11636643Y-13840100D01*
X11650928Y-13782957D01*
X11665214Y-13754386D01*
X11679500Y-13740100D01*
X11708071Y-13725814D01*
X11936643Y-13997243D02*
X11950928Y-14011529D01*
X11936643Y-14025814D01*
X11922357Y-14011529D01*
X11936643Y-13997243D01*
X11936643Y-14025814D01*
X12208071Y-13725814D02*
X12150928Y-13725814D01*
X12122357Y-13740100D01*
X12108071Y-13754386D01*
X12079500Y-13797243D01*
X12065214Y-13854386D01*
X12065214Y-13968671D01*
X12079500Y-13997243D01*
X12093786Y-14011529D01*
X12122357Y-14025814D01*
X12179500Y-14025814D01*
X12208071Y-14011529D01*
X12222357Y-13997243D01*
X12236643Y-13968671D01*
X12236643Y-13897243D01*
X12222357Y-13868671D01*
X12208071Y-13854386D01*
X12179500Y-13840100D01*
X12122357Y-13840100D01*
X12093786Y-13854386D01*
X12079500Y-13868671D01*
X12065214Y-13897243D01*
X12422357Y-13725814D02*
X12450928Y-13725814D01*
X12479500Y-13740100D01*
X12493786Y-13754386D01*
X12508071Y-13782957D01*
X12522357Y-13840100D01*
X12522357Y-13911529D01*
X12508071Y-13968671D01*
X12493786Y-13997243D01*
X12479500Y-14011529D01*
X12450928Y-14025814D01*
X12422357Y-14025814D01*
X12393786Y-14011529D01*
X12379500Y-13997243D01*
X12365214Y-13968671D01*
X12350928Y-13911529D01*
X12350928Y-13840100D01*
X12365214Y-13782957D01*
X12379500Y-13754386D01*
X12393786Y-13740100D01*
X12422357Y-13725814D01*
X12708071Y-13725814D02*
X12736643Y-13725814D01*
X12765214Y-13740100D01*
X12779500Y-13754386D01*
X12793786Y-13782957D01*
X12808071Y-13840100D01*
X12808071Y-13911529D01*
X12793786Y-13968671D01*
X12779500Y-13997243D01*
X12765214Y-14011529D01*
X12736643Y-14025814D01*
X12708071Y-14025814D01*
X12679500Y-14011529D01*
X12665214Y-13997243D01*
X12650928Y-13968671D01*
X12636643Y-13911529D01*
X12636643Y-13840100D01*
X12650928Y-13782957D01*
X12665214Y-13754386D01*
X12679500Y-13740100D01*
X12708071Y-13725814D01*
X12936643Y-14025814D02*
X12936643Y-13825814D01*
X12936643Y-13854386D02*
X12950928Y-13840100D01*
X12979500Y-13825814D01*
X13022357Y-13825814D01*
X13050928Y-13840100D01*
X13065214Y-13868671D01*
X13065214Y-14025814D01*
X13065214Y-13868671D02*
X13079500Y-13840100D01*
X13108071Y-13825814D01*
X13150928Y-13825814D01*
X13179500Y-13840100D01*
X13193786Y-13868671D01*
X13193786Y-14025814D01*
X13336643Y-14025814D02*
X13336643Y-13825814D01*
X13336643Y-13854386D02*
X13350928Y-13840100D01*
X13379500Y-13825814D01*
X13422357Y-13825814D01*
X13450928Y-13840100D01*
X13465214Y-13868671D01*
X13465214Y-14025814D01*
X13465214Y-13868671D02*
X13479500Y-13840100D01*
X13508071Y-13825814D01*
X13550928Y-13825814D01*
X13579500Y-13840100D01*
X13593786Y-13868671D01*
X13593786Y-14025814D01*
X14179500Y-13711529D02*
X13922357Y-14097243D01*
X14565214Y-13725814D02*
X14593786Y-13725814D01*
X14622357Y-13740100D01*
X14636643Y-13754386D01*
X14650928Y-13782957D01*
X14665214Y-13840100D01*
X14665214Y-13911529D01*
X14650928Y-13968671D01*
X14636643Y-13997243D01*
X14622357Y-14011529D01*
X14593786Y-14025814D01*
X14565214Y-14025814D01*
X14536643Y-14011529D01*
X14522357Y-13997243D01*
X14508071Y-13968671D01*
X14493786Y-13911529D01*
X14493786Y-13840100D01*
X14508071Y-13782957D01*
X14522357Y-13754386D01*
X14536643Y-13740100D01*
X14565214Y-13725814D01*
X14793786Y-13997243D02*
X14808071Y-14011529D01*
X14793786Y-14025814D01*
X14779500Y-14011529D01*
X14793786Y-13997243D01*
X14793786Y-14025814D01*
X14993786Y-13725814D02*
X15022357Y-13725814D01*
X15050928Y-13740100D01*
X15065214Y-13754386D01*
X15079500Y-13782957D01*
X15093786Y-13840100D01*
X15093786Y-13911529D01*
X15079500Y-13968671D01*
X15065214Y-13997243D01*
X15050928Y-14011529D01*
X15022357Y-14025814D01*
X14993786Y-14025814D01*
X14965214Y-14011529D01*
X14950928Y-13997243D01*
X14936643Y-13968671D01*
X14922357Y-13911529D01*
X14922357Y-13840100D01*
X14936643Y-13782957D01*
X14950928Y-13754386D01*
X14965214Y-13740100D01*
X14993786Y-13725814D01*
X15208071Y-13754386D02*
X15222357Y-13740100D01*
X15250928Y-13725814D01*
X15322357Y-13725814D01*
X15350928Y-13740100D01*
X15365214Y-13754386D01*
X15379500Y-13782957D01*
X15379500Y-13811529D01*
X15365214Y-13854386D01*
X15193786Y-14025814D01*
X15379500Y-14025814D01*
X15479500Y-13725814D02*
X15665214Y-13725814D01*
X15565214Y-13840100D01*
X15608071Y-13840100D01*
X15636643Y-13854386D01*
X15650928Y-13868671D01*
X15665214Y-13897243D01*
X15665214Y-13968671D01*
X15650928Y-13997243D01*
X15636643Y-14011529D01*
X15608071Y-14025814D01*
X15522357Y-14025814D01*
X15493786Y-14011529D01*
X15479500Y-13997243D01*
X15922357Y-13725814D02*
X15865214Y-13725814D01*
X15836643Y-13740100D01*
X15822357Y-13754386D01*
X15793786Y-13797243D01*
X15779500Y-13854386D01*
X15779500Y-13968671D01*
X15793786Y-13997243D01*
X15808071Y-14011529D01*
X15836643Y-14025814D01*
X15893786Y-14025814D01*
X15922357Y-14011529D01*
X15936643Y-13997243D01*
X15950928Y-13968671D01*
X15950928Y-13897243D01*
X15936643Y-13868671D01*
X15922357Y-13854386D01*
X15893786Y-13840100D01*
X15836643Y-13840100D01*
X15808071Y-13854386D01*
X15793786Y-13868671D01*
X15779500Y-13897243D01*
X16065214Y-13725814D02*
X16065214Y-13782957D01*
X16179500Y-13725814D02*
X16179500Y-13782957D01*
X16622357Y-14140100D02*
X16608071Y-14125814D01*
X16579500Y-14082957D01*
X16565214Y-14054386D01*
X16550928Y-14011529D01*
X16536643Y-13940100D01*
X16536643Y-13882957D01*
X16550928Y-13811529D01*
X16565214Y-13768671D01*
X16579500Y-13740100D01*
X16608071Y-13697243D01*
X16622357Y-13682957D01*
X16793786Y-13725814D02*
X16822357Y-13725814D01*
X16850928Y-13740100D01*
X16865214Y-13754386D01*
X16879500Y-13782957D01*
X16893786Y-13840100D01*
X16893786Y-13911529D01*
X16879500Y-13968671D01*
X16865214Y-13997243D01*
X16850928Y-14011529D01*
X16822357Y-14025814D01*
X16793786Y-14025814D01*
X16765214Y-14011529D01*
X16750928Y-13997243D01*
X16736643Y-13968671D01*
X16722357Y-13911529D01*
X16722357Y-13840100D01*
X16736643Y-13782957D01*
X16750928Y-13754386D01*
X16765214Y-13740100D01*
X16793786Y-13725814D01*
X17250928Y-14025814D02*
X17250928Y-13725814D01*
X17379500Y-14025814D02*
X17379500Y-13868671D01*
X17365214Y-13840100D01*
X17336643Y-13825814D01*
X17293786Y-13825814D01*
X17265214Y-13840100D01*
X17250928Y-13854386D01*
X17565214Y-14025814D02*
X17536643Y-14011529D01*
X17522357Y-13997243D01*
X17508071Y-13968671D01*
X17508071Y-13882957D01*
X17522357Y-13854386D01*
X17536643Y-13840100D01*
X17565214Y-13825814D01*
X17608071Y-13825814D01*
X17636643Y-13840100D01*
X17650928Y-13854386D01*
X17665214Y-13882957D01*
X17665214Y-13968671D01*
X17650928Y-13997243D01*
X17636643Y-14011529D01*
X17608071Y-14025814D01*
X17565214Y-14025814D01*
X17836643Y-14025814D02*
X17808071Y-14011529D01*
X17793786Y-13982957D01*
X17793786Y-13725814D01*
X18065214Y-14011529D02*
X18036643Y-14025814D01*
X17979500Y-14025814D01*
X17950928Y-14011529D01*
X17936643Y-13982957D01*
X17936643Y-13868671D01*
X17950928Y-13840100D01*
X17979500Y-13825814D01*
X18036643Y-13825814D01*
X18065214Y-13840100D01*
X18079500Y-13868671D01*
X18079500Y-13897243D01*
X17936643Y-13925814D01*
X18193786Y-14011529D02*
X18222357Y-14025814D01*
X18279500Y-14025814D01*
X18308071Y-14011529D01*
X18322357Y-13982957D01*
X18322357Y-13968671D01*
X18308071Y-13940100D01*
X18279500Y-13925814D01*
X18236643Y-13925814D01*
X18208071Y-13911529D01*
X18193786Y-13882957D01*
X18193786Y-13868671D01*
X18208071Y-13840100D01*
X18236643Y-13825814D01*
X18279500Y-13825814D01*
X18308071Y-13840100D01*
X18679500Y-13911529D02*
X18908071Y-13911529D01*
X18793786Y-14025814D02*
X18793786Y-13797243D01*
X19408071Y-13825814D02*
X19408071Y-14025814D01*
X19336643Y-13711529D02*
X19265214Y-13925814D01*
X19450928Y-13925814D01*
X19779500Y-14011529D02*
X19808071Y-14025814D01*
X19865214Y-14025814D01*
X19893786Y-14011529D01*
X19908071Y-13982957D01*
X19908071Y-13968671D01*
X19893786Y-13940100D01*
X19865214Y-13925814D01*
X19822357Y-13925814D01*
X19793786Y-13911529D01*
X19779500Y-13882957D01*
X19779500Y-13868671D01*
X19793786Y-13840100D01*
X19822357Y-13825814D01*
X19865214Y-13825814D01*
X19893786Y-13840100D01*
X20079500Y-14025814D02*
X20050928Y-14011529D01*
X20036643Y-13982957D01*
X20036643Y-13725814D01*
X20236643Y-14025814D02*
X20208071Y-14011529D01*
X20193786Y-13997243D01*
X20179500Y-13968671D01*
X20179500Y-13882957D01*
X20193786Y-13854386D01*
X20208071Y-13840100D01*
X20236643Y-13825814D01*
X20279500Y-13825814D01*
X20308071Y-13840100D01*
X20322357Y-13854386D01*
X20336643Y-13882957D01*
X20336643Y-13968671D01*
X20322357Y-13997243D01*
X20308071Y-14011529D01*
X20279500Y-14025814D01*
X20236643Y-14025814D01*
X20422357Y-13825814D02*
X20536643Y-13825814D01*
X20465214Y-13725814D02*
X20465214Y-13982957D01*
X20479500Y-14011529D01*
X20508071Y-14025814D01*
X20536643Y-14025814D01*
X20622357Y-14011529D02*
X20650928Y-14025814D01*
X20708071Y-14025814D01*
X20736643Y-14011529D01*
X20750928Y-13982957D01*
X20750928Y-13968671D01*
X20736643Y-13940100D01*
X20708071Y-13925814D01*
X20665214Y-13925814D01*
X20636643Y-13911529D01*
X20622357Y-13882957D01*
X20622357Y-13868671D01*
X20636643Y-13840100D01*
X20665214Y-13825814D01*
X20708071Y-13825814D01*
X20736643Y-13840100D01*
X20850928Y-14140100D02*
X20865214Y-14125814D01*
X20893786Y-14082957D01*
X20908071Y-14054386D01*
X20922357Y-14011529D01*
X20936643Y-13940100D01*
X20936643Y-13882957D01*
X20922357Y-13811529D01*
X20908071Y-13768671D01*
X20893786Y-13740100D01*
X20865214Y-13697243D01*
X20850928Y-13682957D01*
X11349856Y-14321456D02*
X11349856Y-14250744D01*
X11279144Y-14250744D01*
X11279144Y-14321456D01*
X11349856Y-14321456D01*
X11808071Y-14421814D02*
X11636643Y-14421814D01*
X11722357Y-14421814D02*
X11722357Y-14121814D01*
X11693786Y-14164671D01*
X11665214Y-14193243D01*
X11636643Y-14207529D01*
X11936643Y-14393243D02*
X11950928Y-14407529D01*
X11936643Y-14421814D01*
X11922357Y-14407529D01*
X11936643Y-14393243D01*
X11936643Y-14421814D01*
X12136643Y-14121814D02*
X12165214Y-14121814D01*
X12193786Y-14136100D01*
X12208071Y-14150386D01*
X12222357Y-14178957D01*
X12236643Y-14236100D01*
X12236643Y-14307529D01*
X12222357Y-14364671D01*
X12208071Y-14393243D01*
X12193786Y-14407529D01*
X12165214Y-14421814D01*
X12136643Y-14421814D01*
X12108071Y-14407529D01*
X12093786Y-14393243D01*
X12079500Y-14364671D01*
X12065214Y-14307529D01*
X12065214Y-14236100D01*
X12079500Y-14178957D01*
X12093786Y-14150386D01*
X12108071Y-14136100D01*
X12136643Y-14121814D01*
X12422357Y-14121814D02*
X12450928Y-14121814D01*
X12479500Y-14136100D01*
X12493786Y-14150386D01*
X12508071Y-14178957D01*
X12522357Y-14236100D01*
X12522357Y-14307529D01*
X12508071Y-14364671D01*
X12493786Y-14393243D01*
X12479500Y-14407529D01*
X12450928Y-14421814D01*
X12422357Y-14421814D01*
X12393786Y-14407529D01*
X12379500Y-14393243D01*
X12365214Y-14364671D01*
X12350928Y-14307529D01*
X12350928Y-14236100D01*
X12365214Y-14178957D01*
X12379500Y-14150386D01*
X12393786Y-14136100D01*
X12422357Y-14121814D01*
X12708071Y-14121814D02*
X12736643Y-14121814D01*
X12765214Y-14136100D01*
X12779500Y-14150386D01*
X12793786Y-14178957D01*
X12808071Y-14236100D01*
X12808071Y-14307529D01*
X12793786Y-14364671D01*
X12779500Y-14393243D01*
X12765214Y-14407529D01*
X12736643Y-14421814D01*
X12708071Y-14421814D01*
X12679500Y-14407529D01*
X12665214Y-14393243D01*
X12650928Y-14364671D01*
X12636643Y-14307529D01*
X12636643Y-14236100D01*
X12650928Y-14178957D01*
X12665214Y-14150386D01*
X12679500Y-14136100D01*
X12708071Y-14121814D01*
X12936643Y-14421814D02*
X12936643Y-14221814D01*
X12936643Y-14250386D02*
X12950928Y-14236100D01*
X12979500Y-14221814D01*
X13022357Y-14221814D01*
X13050928Y-14236100D01*
X13065214Y-14264671D01*
X13065214Y-14421814D01*
X13065214Y-14264671D02*
X13079500Y-14236100D01*
X13108071Y-14221814D01*
X13150928Y-14221814D01*
X13179500Y-14236100D01*
X13193786Y-14264671D01*
X13193786Y-14421814D01*
X13336643Y-14421814D02*
X13336643Y-14221814D01*
X13336643Y-14250386D02*
X13350928Y-14236100D01*
X13379500Y-14221814D01*
X13422357Y-14221814D01*
X13450928Y-14236100D01*
X13465214Y-14264671D01*
X13465214Y-14421814D01*
X13465214Y-14264671D02*
X13479500Y-14236100D01*
X13508071Y-14221814D01*
X13550928Y-14221814D01*
X13579500Y-14236100D01*
X13593786Y-14264671D01*
X13593786Y-14421814D01*
X14179500Y-14107529D02*
X13922357Y-14493243D01*
X14565214Y-14121814D02*
X14593786Y-14121814D01*
X14622357Y-14136100D01*
X14636643Y-14150386D01*
X14650928Y-14178957D01*
X14665214Y-14236100D01*
X14665214Y-14307529D01*
X14650928Y-14364671D01*
X14636643Y-14393243D01*
X14622357Y-14407529D01*
X14593786Y-14421814D01*
X14565214Y-14421814D01*
X14536643Y-14407529D01*
X14522357Y-14393243D01*
X14508071Y-14364671D01*
X14493786Y-14307529D01*
X14493786Y-14236100D01*
X14508071Y-14178957D01*
X14522357Y-14150386D01*
X14536643Y-14136100D01*
X14565214Y-14121814D01*
X14793786Y-14393243D02*
X14808071Y-14407529D01*
X14793786Y-14421814D01*
X14779500Y-14407529D01*
X14793786Y-14393243D01*
X14793786Y-14421814D01*
X14993786Y-14121814D02*
X15022357Y-14121814D01*
X15050928Y-14136100D01*
X15065214Y-14150386D01*
X15079500Y-14178957D01*
X15093786Y-14236100D01*
X15093786Y-14307529D01*
X15079500Y-14364671D01*
X15065214Y-14393243D01*
X15050928Y-14407529D01*
X15022357Y-14421814D01*
X14993786Y-14421814D01*
X14965214Y-14407529D01*
X14950928Y-14393243D01*
X14936643Y-14364671D01*
X14922357Y-14307529D01*
X14922357Y-14236100D01*
X14936643Y-14178957D01*
X14950928Y-14150386D01*
X14965214Y-14136100D01*
X14993786Y-14121814D01*
X15193786Y-14121814D02*
X15379500Y-14121814D01*
X15279500Y-14236100D01*
X15322357Y-14236100D01*
X15350928Y-14250386D01*
X15365214Y-14264671D01*
X15379500Y-14293243D01*
X15379500Y-14364671D01*
X15365214Y-14393243D01*
X15350928Y-14407529D01*
X15322357Y-14421814D01*
X15236643Y-14421814D01*
X15208071Y-14407529D01*
X15193786Y-14393243D01*
X15522357Y-14421814D02*
X15579500Y-14421814D01*
X15608071Y-14407529D01*
X15622357Y-14393243D01*
X15650928Y-14350386D01*
X15665214Y-14293243D01*
X15665214Y-14178957D01*
X15650928Y-14150386D01*
X15636643Y-14136100D01*
X15608071Y-14121814D01*
X15550928Y-14121814D01*
X15522357Y-14136100D01*
X15508071Y-14150386D01*
X15493786Y-14178957D01*
X15493786Y-14250386D01*
X15508071Y-14278957D01*
X15522357Y-14293243D01*
X15550928Y-14307529D01*
X15608071Y-14307529D01*
X15636643Y-14293243D01*
X15650928Y-14278957D01*
X15665214Y-14250386D01*
X15922357Y-14221814D02*
X15922357Y-14421814D01*
X15850928Y-14107529D02*
X15779500Y-14321814D01*
X15965214Y-14321814D01*
X16065214Y-14121814D02*
X16065214Y-14178957D01*
X16179500Y-14121814D02*
X16179500Y-14178957D01*
X16622357Y-14536100D02*
X16608071Y-14521814D01*
X16579500Y-14478957D01*
X16565214Y-14450386D01*
X16550928Y-14407529D01*
X16536643Y-14336100D01*
X16536643Y-14278957D01*
X16550928Y-14207529D01*
X16565214Y-14164671D01*
X16579500Y-14136100D01*
X16608071Y-14093243D01*
X16622357Y-14078957D01*
X16893786Y-14421814D02*
X16722357Y-14421814D01*
X16808071Y-14421814D02*
X16808071Y-14121814D01*
X16779500Y-14164671D01*
X16750928Y-14193243D01*
X16722357Y-14207529D01*
X17065214Y-14250386D02*
X17036643Y-14236100D01*
X17022357Y-14221814D01*
X17008071Y-14193243D01*
X17008071Y-14178957D01*
X17022357Y-14150386D01*
X17036643Y-14136100D01*
X17065214Y-14121814D01*
X17122357Y-14121814D01*
X17150928Y-14136100D01*
X17165214Y-14150386D01*
X17179500Y-14178957D01*
X17179500Y-14193243D01*
X17165214Y-14221814D01*
X17150928Y-14236100D01*
X17122357Y-14250386D01*
X17065214Y-14250386D01*
X17036643Y-14264671D01*
X17022357Y-14278957D01*
X17008071Y-14307529D01*
X17008071Y-14364671D01*
X17022357Y-14393243D01*
X17036643Y-14407529D01*
X17065214Y-14421814D01*
X17122357Y-14421814D01*
X17150928Y-14407529D01*
X17165214Y-14393243D01*
X17179500Y-14364671D01*
X17179500Y-14307529D01*
X17165214Y-14278957D01*
X17150928Y-14264671D01*
X17122357Y-14250386D01*
X17536643Y-14421814D02*
X17536643Y-14121814D01*
X17665214Y-14421814D02*
X17665214Y-14264671D01*
X17650928Y-14236100D01*
X17622357Y-14221814D01*
X17579500Y-14221814D01*
X17550928Y-14236100D01*
X17536643Y-14250386D01*
X17850928Y-14421814D02*
X17822357Y-14407529D01*
X17808071Y-14393243D01*
X17793786Y-14364671D01*
X17793786Y-14278957D01*
X17808071Y-14250386D01*
X17822357Y-14236100D01*
X17850928Y-14221814D01*
X17893786Y-14221814D01*
X17922357Y-14236100D01*
X17936643Y-14250386D01*
X17950928Y-14278957D01*
X17950928Y-14364671D01*
X17936643Y-14393243D01*
X17922357Y-14407529D01*
X17893786Y-14421814D01*
X17850928Y-14421814D01*
X18122357Y-14421814D02*
X18093786Y-14407529D01*
X18079500Y-14378957D01*
X18079500Y-14121814D01*
X18350928Y-14407529D02*
X18322357Y-14421814D01*
X18265214Y-14421814D01*
X18236643Y-14407529D01*
X18222357Y-14378957D01*
X18222357Y-14264671D01*
X18236643Y-14236100D01*
X18265214Y-14221814D01*
X18322357Y-14221814D01*
X18350928Y-14236100D01*
X18365214Y-14264671D01*
X18365214Y-14293243D01*
X18222357Y-14321814D01*
X18479500Y-14407529D02*
X18508071Y-14421814D01*
X18565214Y-14421814D01*
X18593786Y-14407529D01*
X18608071Y-14378957D01*
X18608071Y-14364671D01*
X18593786Y-14336100D01*
X18565214Y-14321814D01*
X18522357Y-14321814D01*
X18493786Y-14307529D01*
X18479500Y-14278957D01*
X18479500Y-14264671D01*
X18493786Y-14236100D01*
X18522357Y-14221814D01*
X18565214Y-14221814D01*
X18593786Y-14236100D01*
X18708071Y-14536100D02*
X18722357Y-14521814D01*
X18750928Y-14478957D01*
X18765214Y-14450386D01*
X18779500Y-14407529D01*
X18793786Y-14336100D01*
X18793786Y-14278957D01*
X18779500Y-14207529D01*
X18765214Y-14164671D01*
X18750928Y-14136100D01*
X18722357Y-14093243D01*
X18708071Y-14078957D01*
M02*
