G04 #@! TF.GenerationSoftware,KiCad,Pcbnew,(5.1.12)-1*
G04 #@! TF.CreationDate,2024-01-22T15:17:36+02:00*
G04 #@! TF.ProjectId,CaliperPCB,43616c69-7065-4725-9043-422e6b696361,rev?*
G04 #@! TF.SameCoordinates,Original*
G04 #@! TF.FileFunction,Legend,Top*
G04 #@! TF.FilePolarity,Positive*
%FSLAX46Y46*%
G04 Gerber Fmt 4.6, Leading zero omitted, Abs format (unit mm)*
G04 Created by KiCad (PCBNEW (5.1.12)-1) date 2024-01-22 15:17:36*
%MOMM*%
%LPD*%
G01*
G04 APERTURE LIST*
%ADD10C,0.120000*%
%ADD11C,0.150000*%
G04 #@! TA.AperFunction,Profile*
%ADD12C,0.050000*%
G04 #@! TD*
%ADD13C,0.127000*%
%ADD14C,0.200000*%
%ADD15R,1.700000X1.700000*%
%ADD16O,1.700000X1.700000*%
%ADD17R,2.000000X2.400000*%
%ADD18O,1.000000X1.600000*%
%ADD19C,0.650000*%
%ADD20O,1.000000X2.100000*%
%ADD21R,0.300000X1.450000*%
%ADD22R,0.600000X1.450000*%
%ADD23C,0.500000*%
%ADD24R,1.060000X0.650000*%
%ADD25R,2.000000X3.800000*%
%ADD26R,2.000000X1.500000*%
G04 APERTURE END LIST*
D10*
X185550000Y-106700000D02*
X172880000Y-106700000D01*
X185550000Y-104480000D02*
X185550000Y-106700000D01*
X172880000Y-106700000D02*
X172880000Y-104480000D01*
X172880000Y-104480000D02*
X185550000Y-104480000D01*
X165550000Y-104460000D02*
X165550000Y-107890000D01*
X146920000Y-104460000D02*
X165550000Y-104460000D01*
X165550000Y-107890000D02*
X146920000Y-107890000D01*
X146920000Y-107890000D02*
X146920000Y-104460000D01*
X167500000Y-111150000D02*
X167500000Y-104460000D01*
X170930000Y-111150000D02*
X167500000Y-111150000D01*
X170930000Y-104460000D02*
X170930000Y-111150000D01*
X167500000Y-104460000D02*
X170930000Y-104460000D01*
D11*
X121708476Y-87078380D02*
X121708476Y-86078380D01*
X122089428Y-86078380D01*
X122184666Y-86126000D01*
X122232285Y-86173619D01*
X122279904Y-86268857D01*
X122279904Y-86411714D01*
X122232285Y-86506952D01*
X122184666Y-86554571D01*
X122089428Y-86602190D01*
X121708476Y-86602190D01*
X122898952Y-86078380D02*
X123089428Y-86078380D01*
X123184666Y-86126000D01*
X123279904Y-86221238D01*
X123327523Y-86411714D01*
X123327523Y-86745047D01*
X123279904Y-86935523D01*
X123184666Y-87030761D01*
X123089428Y-87078380D01*
X122898952Y-87078380D01*
X122803714Y-87030761D01*
X122708476Y-86935523D01*
X122660857Y-86745047D01*
X122660857Y-86411714D01*
X122708476Y-86221238D01*
X122803714Y-86126000D01*
X122898952Y-86078380D01*
X123660857Y-86078380D02*
X123898952Y-87078380D01*
X124089428Y-86364095D01*
X124279904Y-87078380D01*
X124518000Y-86078380D01*
X124898952Y-86554571D02*
X125232285Y-86554571D01*
X125375142Y-87078380D02*
X124898952Y-87078380D01*
X124898952Y-86078380D01*
X125375142Y-86078380D01*
X126375142Y-87078380D02*
X126041809Y-86602190D01*
X125803714Y-87078380D02*
X125803714Y-86078380D01*
X126184666Y-86078380D01*
X126279904Y-86126000D01*
X126327523Y-86173619D01*
X126375142Y-86268857D01*
X126375142Y-86411714D01*
X126327523Y-86506952D01*
X126279904Y-86554571D01*
X126184666Y-86602190D01*
X125803714Y-86602190D01*
X149596666Y-105514571D02*
X149739523Y-105562190D01*
X149787142Y-105609809D01*
X149834761Y-105705047D01*
X149834761Y-105847904D01*
X149787142Y-105943142D01*
X149739523Y-105990761D01*
X149644285Y-106038380D01*
X149263333Y-106038380D01*
X149263333Y-105038380D01*
X149596666Y-105038380D01*
X149691904Y-105086000D01*
X149739523Y-105133619D01*
X149787142Y-105228857D01*
X149787142Y-105324095D01*
X149739523Y-105419333D01*
X149691904Y-105466952D01*
X149596666Y-105514571D01*
X149263333Y-105514571D01*
X150453809Y-105038380D02*
X150644285Y-105038380D01*
X150739523Y-105086000D01*
X150834761Y-105181238D01*
X150882380Y-105371714D01*
X150882380Y-105705047D01*
X150834761Y-105895523D01*
X150739523Y-105990761D01*
X150644285Y-106038380D01*
X150453809Y-106038380D01*
X150358571Y-105990761D01*
X150263333Y-105895523D01*
X150215714Y-105705047D01*
X150215714Y-105371714D01*
X150263333Y-105181238D01*
X150358571Y-105086000D01*
X150453809Y-105038380D01*
X151501428Y-105038380D02*
X151691904Y-105038380D01*
X151787142Y-105086000D01*
X151882380Y-105181238D01*
X151930000Y-105371714D01*
X151930000Y-105705047D01*
X151882380Y-105895523D01*
X151787142Y-105990761D01*
X151691904Y-106038380D01*
X151501428Y-106038380D01*
X151406190Y-105990761D01*
X151310952Y-105895523D01*
X151263333Y-105705047D01*
X151263333Y-105371714D01*
X151310952Y-105181238D01*
X151406190Y-105086000D01*
X151501428Y-105038380D01*
X152215714Y-105038380D02*
X152787142Y-105038380D01*
X152501428Y-106038380D02*
X152501428Y-105038380D01*
X153644285Y-106038380D02*
X153072857Y-106038380D01*
X153358571Y-106038380D02*
X153358571Y-105038380D01*
X153263333Y-105181238D01*
X153168095Y-105276476D01*
X153072857Y-105324095D01*
X149596666Y-106784571D02*
X149739523Y-106832190D01*
X149787142Y-106879809D01*
X149834761Y-106975047D01*
X149834761Y-107117904D01*
X149787142Y-107213142D01*
X149739523Y-107260761D01*
X149644285Y-107308380D01*
X149263333Y-107308380D01*
X149263333Y-106308380D01*
X149596666Y-106308380D01*
X149691904Y-106356000D01*
X149739523Y-106403619D01*
X149787142Y-106498857D01*
X149787142Y-106594095D01*
X149739523Y-106689333D01*
X149691904Y-106736952D01*
X149596666Y-106784571D01*
X149263333Y-106784571D01*
X150453809Y-106308380D02*
X150644285Y-106308380D01*
X150739523Y-106356000D01*
X150834761Y-106451238D01*
X150882380Y-106641714D01*
X150882380Y-106975047D01*
X150834761Y-107165523D01*
X150739523Y-107260761D01*
X150644285Y-107308380D01*
X150453809Y-107308380D01*
X150358571Y-107260761D01*
X150263333Y-107165523D01*
X150215714Y-106975047D01*
X150215714Y-106641714D01*
X150263333Y-106451238D01*
X150358571Y-106356000D01*
X150453809Y-106308380D01*
X151501428Y-106308380D02*
X151691904Y-106308380D01*
X151787142Y-106356000D01*
X151882380Y-106451238D01*
X151930000Y-106641714D01*
X151930000Y-106975047D01*
X151882380Y-107165523D01*
X151787142Y-107260761D01*
X151691904Y-107308380D01*
X151501428Y-107308380D01*
X151406190Y-107260761D01*
X151310952Y-107165523D01*
X151263333Y-106975047D01*
X151263333Y-106641714D01*
X151310952Y-106451238D01*
X151406190Y-106356000D01*
X151501428Y-106308380D01*
X152215714Y-106308380D02*
X152787142Y-106308380D01*
X152501428Y-107308380D02*
X152501428Y-106308380D01*
X153310952Y-106308380D02*
X153406190Y-106308380D01*
X153501428Y-106356000D01*
X153549047Y-106403619D01*
X153596666Y-106498857D01*
X153644285Y-106689333D01*
X153644285Y-106927428D01*
X153596666Y-107117904D01*
X153549047Y-107213142D01*
X153501428Y-107260761D01*
X153406190Y-107308380D01*
X153310952Y-107308380D01*
X153215714Y-107260761D01*
X153168095Y-107213142D01*
X153120476Y-107117904D01*
X153072857Y-106927428D01*
X153072857Y-106689333D01*
X153120476Y-106498857D01*
X153168095Y-106403619D01*
X153215714Y-106356000D01*
X153310952Y-106308380D01*
X147346380Y-107413095D02*
X147346380Y-106794047D01*
X147727333Y-107127380D01*
X147727333Y-106984523D01*
X147774952Y-106889285D01*
X147822571Y-106841666D01*
X147917809Y-106794047D01*
X148155904Y-106794047D01*
X148251142Y-106841666D01*
X148298761Y-106889285D01*
X148346380Y-106984523D01*
X148346380Y-107270238D01*
X148298761Y-107365476D01*
X148251142Y-107413095D01*
X147346380Y-106508333D02*
X148346380Y-106175000D01*
X147346380Y-105841666D01*
X147346380Y-105603571D02*
X147346380Y-104984523D01*
X147727333Y-105317857D01*
X147727333Y-105175000D01*
X147774952Y-105079761D01*
X147822571Y-105032142D01*
X147917809Y-104984523D01*
X148155904Y-104984523D01*
X148251142Y-105032142D01*
X148298761Y-105079761D01*
X148346380Y-105175000D01*
X148346380Y-105460714D01*
X148298761Y-105555952D01*
X148251142Y-105603571D01*
X154760000Y-106936904D02*
X154712380Y-107032142D01*
X154712380Y-107175000D01*
X154760000Y-107317857D01*
X154855238Y-107413095D01*
X154950476Y-107460714D01*
X155140952Y-107508333D01*
X155283809Y-107508333D01*
X155474285Y-107460714D01*
X155569523Y-107413095D01*
X155664761Y-107317857D01*
X155712380Y-107175000D01*
X155712380Y-107079761D01*
X155664761Y-106936904D01*
X155617142Y-106889285D01*
X155283809Y-106889285D01*
X155283809Y-107079761D01*
X155712380Y-106460714D02*
X154712380Y-106460714D01*
X155712380Y-105889285D01*
X154712380Y-105889285D01*
X155712380Y-105413095D02*
X154712380Y-105413095D01*
X154712380Y-105175000D01*
X154760000Y-105032142D01*
X154855238Y-104936904D01*
X154950476Y-104889285D01*
X155140952Y-104841666D01*
X155283809Y-104841666D01*
X155474285Y-104889285D01*
X155569523Y-104936904D01*
X155664761Y-105032142D01*
X155712380Y-105175000D01*
X155712380Y-105413095D01*
X157272095Y-106356000D02*
X157176857Y-106308380D01*
X157034000Y-106308380D01*
X156891142Y-106356000D01*
X156795904Y-106451238D01*
X156748285Y-106546476D01*
X156700666Y-106736952D01*
X156700666Y-106879809D01*
X156748285Y-107070285D01*
X156795904Y-107165523D01*
X156891142Y-107260761D01*
X157034000Y-107308380D01*
X157129238Y-107308380D01*
X157272095Y-107260761D01*
X157319714Y-107213142D01*
X157319714Y-106879809D01*
X157129238Y-106879809D01*
X157748285Y-107308380D02*
X157748285Y-106308380D01*
X158319714Y-107308380D01*
X158319714Y-106308380D01*
X158795904Y-107308380D02*
X158795904Y-106308380D01*
X159034000Y-106308380D01*
X159176857Y-106356000D01*
X159272095Y-106451238D01*
X159319714Y-106546476D01*
X159367333Y-106736952D01*
X159367333Y-106879809D01*
X159319714Y-107070285D01*
X159272095Y-107165523D01*
X159176857Y-107260761D01*
X159034000Y-107308380D01*
X158795904Y-107308380D01*
X156843523Y-105038380D02*
X157462571Y-105038380D01*
X157129238Y-105419333D01*
X157272095Y-105419333D01*
X157367333Y-105466952D01*
X157414952Y-105514571D01*
X157462571Y-105609809D01*
X157462571Y-105847904D01*
X157414952Y-105943142D01*
X157367333Y-105990761D01*
X157272095Y-106038380D01*
X156986380Y-106038380D01*
X156891142Y-105990761D01*
X156843523Y-105943142D01*
X157795904Y-105371714D02*
X158034000Y-106038380D01*
X158272095Y-105371714D01*
X158557809Y-105038380D02*
X159176857Y-105038380D01*
X158843523Y-105419333D01*
X158986380Y-105419333D01*
X159081619Y-105466952D01*
X159129238Y-105514571D01*
X159176857Y-105609809D01*
X159176857Y-105847904D01*
X159129238Y-105943142D01*
X159081619Y-105990761D01*
X158986380Y-106038380D01*
X158700666Y-106038380D01*
X158605428Y-105990761D01*
X158557809Y-105943142D01*
X160486952Y-107260761D02*
X160629809Y-107308380D01*
X160867904Y-107308380D01*
X160963142Y-107260761D01*
X161010761Y-107213142D01*
X161058380Y-107117904D01*
X161058380Y-107022666D01*
X161010761Y-106927428D01*
X160963142Y-106879809D01*
X160867904Y-106832190D01*
X160677428Y-106784571D01*
X160582190Y-106736952D01*
X160534571Y-106689333D01*
X160486952Y-106594095D01*
X160486952Y-106498857D01*
X160534571Y-106403619D01*
X160582190Y-106356000D01*
X160677428Y-106308380D01*
X160915523Y-106308380D01*
X161058380Y-106356000D01*
X161391714Y-106308380D02*
X161629809Y-107308380D01*
X161820285Y-106594095D01*
X162010761Y-107308380D01*
X162248857Y-106308380D01*
X163201237Y-107213142D02*
X163153618Y-107260761D01*
X163010761Y-107308380D01*
X162915523Y-107308380D01*
X162772666Y-107260761D01*
X162677428Y-107165523D01*
X162629809Y-107070285D01*
X162582190Y-106879809D01*
X162582190Y-106736952D01*
X162629809Y-106546476D01*
X162677428Y-106451238D01*
X162772666Y-106356000D01*
X162915523Y-106308380D01*
X163010761Y-106308380D01*
X163153618Y-106356000D01*
X163201237Y-106403619D01*
X164105999Y-107308380D02*
X163629809Y-107308380D01*
X163629809Y-106308380D01*
X164439333Y-107308380D02*
X164439333Y-106308380D01*
X165010761Y-107308380D02*
X164582190Y-106736952D01*
X165010761Y-106308380D02*
X164439333Y-106879809D01*
X160486952Y-105990761D02*
X160629809Y-106038380D01*
X160867904Y-106038380D01*
X160963142Y-105990761D01*
X161010761Y-105943142D01*
X161058380Y-105847904D01*
X161058380Y-105752666D01*
X161010761Y-105657428D01*
X160963142Y-105609809D01*
X160867904Y-105562190D01*
X160677428Y-105514571D01*
X160582190Y-105466952D01*
X160534571Y-105419333D01*
X160486952Y-105324095D01*
X160486952Y-105228857D01*
X160534571Y-105133619D01*
X160582190Y-105086000D01*
X160677428Y-105038380D01*
X160915523Y-105038380D01*
X161058380Y-105086000D01*
X161391714Y-105038380D02*
X161629809Y-106038380D01*
X161820285Y-105324095D01*
X162010761Y-106038380D01*
X162248857Y-105038380D01*
X162629809Y-106038380D02*
X162629809Y-105038380D01*
X162867904Y-105038380D01*
X163010761Y-105086000D01*
X163106000Y-105181238D01*
X163153619Y-105276476D01*
X163201238Y-105466952D01*
X163201238Y-105609809D01*
X163153619Y-105800285D01*
X163106000Y-105895523D01*
X163010761Y-105990761D01*
X162867904Y-106038380D01*
X162629809Y-106038380D01*
X163629809Y-106038380D02*
X163629809Y-105038380D01*
X164296476Y-105038380D02*
X164486952Y-105038380D01*
X164582190Y-105086000D01*
X164677428Y-105181238D01*
X164725047Y-105371714D01*
X164725047Y-105705047D01*
X164677428Y-105895523D01*
X164582190Y-105990761D01*
X164486952Y-106038380D01*
X164296476Y-106038380D01*
X164201238Y-105990761D01*
X164106000Y-105895523D01*
X164058380Y-105705047D01*
X164058380Y-105371714D01*
X164106000Y-105181238D01*
X164201238Y-105086000D01*
X164296476Y-105038380D01*
X168458095Y-109688000D02*
X168362857Y-109640380D01*
X168220000Y-109640380D01*
X168077142Y-109688000D01*
X167981904Y-109783238D01*
X167934285Y-109878476D01*
X167886666Y-110068952D01*
X167886666Y-110211809D01*
X167934285Y-110402285D01*
X167981904Y-110497523D01*
X168077142Y-110592761D01*
X168220000Y-110640380D01*
X168315238Y-110640380D01*
X168458095Y-110592761D01*
X168505714Y-110545142D01*
X168505714Y-110211809D01*
X168315238Y-110211809D01*
X168934285Y-110640380D02*
X168934285Y-109640380D01*
X169505714Y-110640380D01*
X169505714Y-109640380D01*
X169981904Y-110640380D02*
X169981904Y-109640380D01*
X170220000Y-109640380D01*
X170362857Y-109688000D01*
X170458095Y-109783238D01*
X170505714Y-109878476D01*
X170553333Y-110068952D01*
X170553333Y-110211809D01*
X170505714Y-110402285D01*
X170458095Y-110497523D01*
X170362857Y-110592761D01*
X170220000Y-110640380D01*
X169981904Y-110640380D01*
X167981904Y-108116380D02*
X168600952Y-108116380D01*
X168267619Y-108497333D01*
X168410476Y-108497333D01*
X168505714Y-108544952D01*
X168553333Y-108592571D01*
X168600952Y-108687809D01*
X168600952Y-108925904D01*
X168553333Y-109021142D01*
X168505714Y-109068761D01*
X168410476Y-109116380D01*
X168124761Y-109116380D01*
X168029523Y-109068761D01*
X167981904Y-109021142D01*
X168886666Y-108116380D02*
X169220000Y-109116380D01*
X169553333Y-108116380D01*
X169791428Y-108116380D02*
X170410476Y-108116380D01*
X170077142Y-108497333D01*
X170220000Y-108497333D01*
X170315238Y-108544952D01*
X170362857Y-108592571D01*
X170410476Y-108687809D01*
X170410476Y-108925904D01*
X170362857Y-109021142D01*
X170315238Y-109068761D01*
X170220000Y-109116380D01*
X169934285Y-109116380D01*
X169839047Y-109068761D01*
X169791428Y-109021142D01*
X168624761Y-107497142D02*
X168577142Y-107544761D01*
X168434285Y-107592380D01*
X168339047Y-107592380D01*
X168196190Y-107544761D01*
X168100952Y-107449523D01*
X168053333Y-107354285D01*
X168005714Y-107163809D01*
X168005714Y-107020952D01*
X168053333Y-106830476D01*
X168100952Y-106735238D01*
X168196190Y-106640000D01*
X168339047Y-106592380D01*
X168434285Y-106592380D01*
X168577142Y-106640000D01*
X168624761Y-106687619D01*
X169529523Y-107592380D02*
X169053333Y-107592380D01*
X169053333Y-106592380D01*
X169862857Y-107592380D02*
X169862857Y-106592380D01*
X170434285Y-107592380D02*
X170005714Y-107020952D01*
X170434285Y-106592380D02*
X169862857Y-107163809D01*
X168005714Y-106020761D02*
X168148571Y-106068380D01*
X168386666Y-106068380D01*
X168481904Y-106020761D01*
X168529523Y-105973142D01*
X168577142Y-105877904D01*
X168577142Y-105782666D01*
X168529523Y-105687428D01*
X168481904Y-105639809D01*
X168386666Y-105592190D01*
X168196190Y-105544571D01*
X168100952Y-105496952D01*
X168053333Y-105449333D01*
X168005714Y-105354095D01*
X168005714Y-105258857D01*
X168053333Y-105163619D01*
X168100952Y-105116000D01*
X168196190Y-105068380D01*
X168434285Y-105068380D01*
X168577142Y-105116000D01*
X169005714Y-106068380D02*
X169005714Y-105068380D01*
X169243809Y-105068380D01*
X169386666Y-105116000D01*
X169481904Y-105211238D01*
X169529523Y-105306476D01*
X169577142Y-105496952D01*
X169577142Y-105639809D01*
X169529523Y-105830285D01*
X169481904Y-105925523D01*
X169386666Y-106020761D01*
X169243809Y-106068380D01*
X169005714Y-106068380D01*
X169958095Y-105782666D02*
X170434285Y-105782666D01*
X169862857Y-106068380D02*
X170196190Y-105068380D01*
X170529523Y-106068380D01*
X173471904Y-105112380D02*
X174090952Y-105112380D01*
X173757619Y-105493333D01*
X173900476Y-105493333D01*
X173995714Y-105540952D01*
X174043333Y-105588571D01*
X174090952Y-105683809D01*
X174090952Y-105921904D01*
X174043333Y-106017142D01*
X173995714Y-106064761D01*
X173900476Y-106112380D01*
X173614761Y-106112380D01*
X173519523Y-106064761D01*
X173471904Y-106017142D01*
X174376666Y-105112380D02*
X174710000Y-106112380D01*
X175043333Y-105112380D01*
X175281428Y-105112380D02*
X175900476Y-105112380D01*
X175567142Y-105493333D01*
X175710000Y-105493333D01*
X175805238Y-105540952D01*
X175852857Y-105588571D01*
X175900476Y-105683809D01*
X175900476Y-105921904D01*
X175852857Y-106017142D01*
X175805238Y-106064761D01*
X175710000Y-106112380D01*
X175424285Y-106112380D01*
X175329047Y-106064761D01*
X175281428Y-106017142D01*
X177662380Y-106112380D02*
X177329047Y-105636190D01*
X177090952Y-106112380D02*
X177090952Y-105112380D01*
X177471904Y-105112380D01*
X177567142Y-105160000D01*
X177614761Y-105207619D01*
X177662380Y-105302857D01*
X177662380Y-105445714D01*
X177614761Y-105540952D01*
X177567142Y-105588571D01*
X177471904Y-105636190D01*
X177090952Y-105636190D01*
X177995714Y-105112380D02*
X178662380Y-106112380D01*
X178662380Y-105112380D02*
X177995714Y-106112380D01*
X179662380Y-105112380D02*
X180233809Y-105112380D01*
X179948095Y-106112380D02*
X179948095Y-105112380D01*
X180471904Y-105112380D02*
X181138571Y-106112380D01*
X181138571Y-105112380D02*
X180471904Y-106112380D01*
X182805238Y-105160000D02*
X182710000Y-105112380D01*
X182567142Y-105112380D01*
X182424285Y-105160000D01*
X182329047Y-105255238D01*
X182281428Y-105350476D01*
X182233809Y-105540952D01*
X182233809Y-105683809D01*
X182281428Y-105874285D01*
X182329047Y-105969523D01*
X182424285Y-106064761D01*
X182567142Y-106112380D01*
X182662380Y-106112380D01*
X182805238Y-106064761D01*
X182852857Y-106017142D01*
X182852857Y-105683809D01*
X182662380Y-105683809D01*
X183281428Y-106112380D02*
X183281428Y-105112380D01*
X183852857Y-106112380D01*
X183852857Y-105112380D01*
X184329047Y-106112380D02*
X184329047Y-105112380D01*
X184567142Y-105112380D01*
X184710000Y-105160000D01*
X184805238Y-105255238D01*
X184852857Y-105350476D01*
X184900476Y-105540952D01*
X184900476Y-105683809D01*
X184852857Y-105874285D01*
X184805238Y-105969523D01*
X184710000Y-106064761D01*
X184567142Y-106112380D01*
X184329047Y-106112380D01*
X193826547Y-101734380D02*
X193826547Y-102543904D01*
X193874166Y-102639142D01*
X193921785Y-102686761D01*
X194017023Y-102734380D01*
X194207499Y-102734380D01*
X194302737Y-102686761D01*
X194350356Y-102639142D01*
X194397975Y-102543904D01*
X194397975Y-101734380D01*
X194826547Y-102686761D02*
X194969404Y-102734380D01*
X195207499Y-102734380D01*
X195302737Y-102686761D01*
X195350356Y-102639142D01*
X195397975Y-102543904D01*
X195397975Y-102448666D01*
X195350356Y-102353428D01*
X195302737Y-102305809D01*
X195207499Y-102258190D01*
X195017023Y-102210571D01*
X194921785Y-102162952D01*
X194874166Y-102115333D01*
X194826547Y-102020095D01*
X194826547Y-101924857D01*
X194874166Y-101829619D01*
X194921785Y-101782000D01*
X195017023Y-101734380D01*
X195255118Y-101734380D01*
X195397975Y-101782000D01*
X195826547Y-102210571D02*
X196159880Y-102210571D01*
X196302737Y-102734380D02*
X195826547Y-102734380D01*
X195826547Y-101734380D01*
X196302737Y-101734380D01*
X197302737Y-102734380D02*
X196969404Y-102258190D01*
X196731309Y-102734380D02*
X196731309Y-101734380D01*
X197112261Y-101734380D01*
X197207499Y-101782000D01*
X197255118Y-101829619D01*
X197302737Y-101924857D01*
X197302737Y-102067714D01*
X197255118Y-102162952D01*
X197207499Y-102210571D01*
X197112261Y-102258190D01*
X196731309Y-102258190D01*
X186347619Y-102734380D02*
X186014285Y-102258190D01*
X185776190Y-102734380D02*
X185776190Y-101734380D01*
X186157142Y-101734380D01*
X186252380Y-101782000D01*
X186300000Y-101829619D01*
X186347619Y-101924857D01*
X186347619Y-102067714D01*
X186300000Y-102162952D01*
X186252380Y-102210571D01*
X186157142Y-102258190D01*
X185776190Y-102258190D01*
X186776190Y-102210571D02*
X187109523Y-102210571D01*
X187252380Y-102734380D02*
X186776190Y-102734380D01*
X186776190Y-101734380D01*
X187252380Y-101734380D01*
X187633333Y-102686761D02*
X187776190Y-102734380D01*
X188014285Y-102734380D01*
X188109523Y-102686761D01*
X188157142Y-102639142D01*
X188204761Y-102543904D01*
X188204761Y-102448666D01*
X188157142Y-102353428D01*
X188109523Y-102305809D01*
X188014285Y-102258190D01*
X187823809Y-102210571D01*
X187728571Y-102162952D01*
X187680952Y-102115333D01*
X187633333Y-102020095D01*
X187633333Y-101924857D01*
X187680952Y-101829619D01*
X187728571Y-101782000D01*
X187823809Y-101734380D01*
X188061904Y-101734380D01*
X188204761Y-101782000D01*
X188633333Y-102210571D02*
X188966666Y-102210571D01*
X189109523Y-102734380D02*
X188633333Y-102734380D01*
X188633333Y-101734380D01*
X189109523Y-101734380D01*
X189395238Y-101734380D02*
X189966666Y-101734380D01*
X189680952Y-102734380D02*
X189680952Y-101734380D01*
D12*
X118170000Y-87000000D02*
G75*
G03*
X118170000Y-87000000I-1500000J0D01*
G01*
X198500000Y-87000000D02*
G75*
G03*
X198500000Y-87000000I-1500000J0D01*
G01*
X200000000Y-121356000D02*
X200000000Y-84000000D01*
X113670000Y-84000000D02*
X200000000Y-84000000D01*
X113670000Y-121356000D02*
X113670000Y-84000000D01*
X200000000Y-121356000D02*
X113670000Y-121356000D01*
D13*
X192568333Y-92577000D02*
X198568333Y-92577000D01*
X198568333Y-92577000D02*
X198568333Y-98577000D01*
X198568333Y-98577000D02*
X192568333Y-98577000D01*
X192568333Y-92577000D02*
X192568333Y-98577000D01*
D14*
X193368333Y-101827000D02*
G75*
G03*
X193368333Y-101827000I-100000J0D01*
G01*
D13*
X184784334Y-92577000D02*
X190784334Y-92577000D01*
X190784334Y-92577000D02*
X190784334Y-98577000D01*
X190784334Y-98577000D02*
X184784334Y-98577000D01*
X184784334Y-92577000D02*
X184784334Y-98577000D01*
D14*
X185584334Y-101827000D02*
G75*
G03*
X185584334Y-101827000I-100000J0D01*
G01*
D10*
X128324758Y-87627500D02*
X127850242Y-87627500D01*
X128324758Y-88672500D02*
X127850242Y-88672500D01*
X126622500Y-87285000D02*
X128907500Y-87285000D01*
X126622500Y-85815000D02*
X126622500Y-87285000D01*
X128907500Y-85815000D02*
X126622500Y-85815000D01*
X172546500Y-98697758D02*
X172546500Y-98223242D01*
X171501500Y-98697758D02*
X171501500Y-98223242D01*
X174312000Y-98601080D02*
X174312000Y-98319920D01*
X173292000Y-98601080D02*
X173292000Y-98319920D01*
X137082500Y-92717258D02*
X137082500Y-92242742D01*
X136037500Y-92717258D02*
X136037500Y-92242742D01*
X133910000Y-92309420D02*
X133910000Y-92590580D01*
X132890000Y-92309420D02*
X132890000Y-92590580D01*
X183702500Y-91062258D02*
X183702500Y-90587742D01*
X182657500Y-91062258D02*
X182657500Y-90587742D01*
X182657500Y-93648242D02*
X182657500Y-94122758D01*
X183702500Y-93648242D02*
X183702500Y-94122758D01*
X180940000Y-99470500D02*
X179610000Y-99470500D01*
X179610000Y-99470500D02*
X179610000Y-98140500D01*
X179610000Y-96870500D02*
X179610000Y-89190500D01*
X182270000Y-89190500D02*
X179610000Y-89190500D01*
X182270000Y-96870500D02*
X182270000Y-89190500D01*
X182270000Y-96870500D02*
X179610000Y-96870500D01*
X182210000Y-87718250D02*
X182210000Y-85058250D01*
X182210000Y-87718250D02*
X189890000Y-87718250D01*
X189890000Y-87718250D02*
X189890000Y-85058250D01*
X182210000Y-85058250D02*
X189890000Y-85058250D01*
X179610000Y-85058250D02*
X180940000Y-85058250D01*
X179610000Y-86388250D02*
X179610000Y-85058250D01*
D13*
X128350000Y-97040000D02*
X124550000Y-97040000D01*
X128350000Y-89040000D02*
X124550000Y-89040000D01*
X124550000Y-97040000D02*
X124550000Y-96760000D01*
X128350000Y-97040000D02*
X128350000Y-96760000D01*
X124550000Y-89040000D02*
X124550000Y-89320000D01*
X128350000Y-89040000D02*
X128350000Y-89320000D01*
X124550000Y-94820000D02*
X124550000Y-91260000D01*
X128350000Y-94820000D02*
X128350000Y-91260000D01*
D14*
X129850000Y-95790000D02*
G75*
G03*
X129850000Y-95790000I-100000J0D01*
G01*
D10*
X126560000Y-100390000D02*
X120810000Y-100390000D01*
X120810000Y-100390000D02*
X120810000Y-103990000D01*
X120810000Y-103990000D02*
X126560000Y-103990000D01*
X161548000Y-85710000D02*
X161548000Y-83810000D01*
X161548000Y-89610000D02*
X161548000Y-87610000D01*
X152148000Y-85710000D02*
X152148000Y-83810000D01*
X152148000Y-89610000D02*
X152148000Y-87610000D01*
X161548000Y-83810000D02*
X152148000Y-83810000D01*
X141986492Y-91132500D02*
X142461008Y-91132500D01*
X141986492Y-92177500D02*
X142461008Y-92177500D01*
X142640000Y-90420000D02*
X142640000Y-85220000D01*
X132420000Y-90420000D02*
X142640000Y-90420000D01*
X129820000Y-85220000D02*
X142640000Y-85220000D01*
X132420000Y-90420000D02*
X132420000Y-87820000D01*
X132420000Y-87820000D02*
X129820000Y-87820000D01*
X129820000Y-87820000D02*
X129820000Y-85220000D01*
X131150000Y-90420000D02*
X129820000Y-90420000D01*
X129820000Y-90420000D02*
X129820000Y-89090000D01*
X132120000Y-94324420D02*
X132120000Y-94605580D01*
X131100000Y-94324420D02*
X131100000Y-94605580D01*
X129279420Y-99600000D02*
X129560580Y-99600000D01*
X129279420Y-100620000D02*
X129560580Y-100620000D01*
X124476570Y-111550420D02*
X124476570Y-111831580D01*
X123456570Y-111550420D02*
X123456570Y-111831580D01*
X145177742Y-91132500D02*
X145652258Y-91132500D01*
X145177742Y-92177500D02*
X145652258Y-92177500D01*
X128126000Y-116755000D02*
X129926000Y-116755000D01*
X129926000Y-113535000D02*
X127476000Y-113535000D01*
X124251238Y-116755000D02*
X126051238Y-116755000D01*
X126051238Y-113535000D02*
X123601238Y-113535000D01*
X120376476Y-116755000D02*
X122176476Y-116755000D01*
X122176476Y-113535000D02*
X119726476Y-113535000D01*
X116501714Y-116755000D02*
X118301714Y-116755000D01*
X118301714Y-113535000D02*
X115851714Y-113535000D01*
X139310000Y-102760000D02*
X139760000Y-102760000D01*
X139760000Y-102760000D02*
X139760000Y-102310000D01*
X132990000Y-102760000D02*
X132540000Y-102760000D01*
X132540000Y-102760000D02*
X132540000Y-102310000D01*
X139310000Y-95540000D02*
X139760000Y-95540000D01*
X139760000Y-95540000D02*
X139760000Y-95990000D01*
X132990000Y-95540000D02*
X132540000Y-95540000D01*
X132540000Y-95540000D02*
X132540000Y-95990000D01*
X132540000Y-95990000D02*
X131250000Y-95990000D01*
X167174000Y-87006000D02*
X167174000Y-88266000D01*
X167174000Y-93826000D02*
X167174000Y-92566000D01*
X170934000Y-87006000D02*
X167174000Y-87006000D01*
X173184000Y-93826000D02*
X167174000Y-93826000D01*
X160442258Y-94302500D02*
X159967742Y-94302500D01*
X160442258Y-93257500D02*
X159967742Y-93257500D01*
X153197742Y-93257500D02*
X153672258Y-93257500D01*
X153197742Y-94302500D02*
X153672258Y-94302500D01*
X154707742Y-96287500D02*
X155182258Y-96287500D01*
X154707742Y-97332500D02*
X155182258Y-97332500D01*
X156295500Y-94292742D02*
X156295500Y-94767258D01*
X155250500Y-94292742D02*
X155250500Y-94767258D01*
X158445500Y-94292742D02*
X158445500Y-94767258D01*
X157400500Y-94292742D02*
X157400500Y-94767258D01*
X135492500Y-92222742D02*
X135492500Y-92697258D01*
X134447500Y-92222742D02*
X134447500Y-92697258D01*
X177491500Y-98697758D02*
X177491500Y-98223242D01*
X178536500Y-98697758D02*
X178536500Y-98223242D01*
X124087258Y-100022500D02*
X123612742Y-100022500D01*
X124087258Y-98977500D02*
X123612742Y-98977500D01*
X128436000Y-111550420D02*
X128436000Y-111831580D01*
X127416000Y-111550420D02*
X127416000Y-111831580D01*
X139173080Y-92165000D02*
X138891920Y-92165000D01*
X139173080Y-91145000D02*
X138891920Y-91145000D01*
X120517142Y-111550420D02*
X120517142Y-111831580D01*
X119497142Y-111550420D02*
X119497142Y-111831580D01*
X141005580Y-103860000D02*
X140724420Y-103860000D01*
X141005580Y-102840000D02*
X140724420Y-102840000D01*
X142985580Y-96585000D02*
X142704420Y-96585000D01*
X142985580Y-95565000D02*
X142704420Y-95565000D01*
X116811714Y-111550420D02*
X116811714Y-111831580D01*
X115791714Y-111550420D02*
X115791714Y-111831580D01*
X175832000Y-98601080D02*
X175832000Y-98319920D01*
X176852000Y-98601080D02*
X176852000Y-98319920D01*
X128131000Y-102455580D02*
X128131000Y-102174420D01*
X129151000Y-102455580D02*
X129151000Y-102174420D01*
X122350000Y-95355580D02*
X122350000Y-95074420D01*
X123370000Y-95355580D02*
X123370000Y-95074420D01*
X175294000Y-91656580D02*
X175294000Y-91375420D01*
X176314000Y-91656580D02*
X176314000Y-91375420D01*
X174814000Y-91375420D02*
X174814000Y-91656580D01*
X173794000Y-91375420D02*
X173794000Y-91656580D01*
X130530000Y-95074420D02*
X130530000Y-95355580D01*
X129510000Y-95074420D02*
X129510000Y-95355580D01*
X125625580Y-105400000D02*
X125344420Y-105400000D01*
X125625580Y-104380000D02*
X125344420Y-104380000D01*
X175314000Y-88441580D02*
X175314000Y-88160420D01*
X176334000Y-88441580D02*
X176334000Y-88160420D01*
X122375580Y-105400000D02*
X122094420Y-105400000D01*
X122375580Y-104380000D02*
X122094420Y-104380000D01*
X173794000Y-88441580D02*
X173794000Y-88160420D01*
X174814000Y-88441580D02*
X174814000Y-88160420D01*
D11*
X196054761Y-96363904D02*
X196102380Y-96221047D01*
X196102380Y-95982952D01*
X196054761Y-95887714D01*
X196007142Y-95840095D01*
X195911904Y-95792476D01*
X195816666Y-95792476D01*
X195721428Y-95840095D01*
X195673809Y-95887714D01*
X195626190Y-95982952D01*
X195578571Y-96173428D01*
X195530952Y-96268666D01*
X195483333Y-96316285D01*
X195388095Y-96363904D01*
X195292857Y-96363904D01*
X195197619Y-96316285D01*
X195150000Y-96268666D01*
X195102380Y-96173428D01*
X195102380Y-95935333D01*
X195150000Y-95792476D01*
X195197619Y-95411523D02*
X195150000Y-95363904D01*
X195102380Y-95268666D01*
X195102380Y-95030571D01*
X195150000Y-94935333D01*
X195197619Y-94887714D01*
X195292857Y-94840095D01*
X195388095Y-94840095D01*
X195530952Y-94887714D01*
X196102380Y-95459142D01*
X196102380Y-94840095D01*
X188110761Y-96265904D02*
X188158380Y-96123047D01*
X188158380Y-95884952D01*
X188110761Y-95789714D01*
X188063142Y-95742095D01*
X187967904Y-95694476D01*
X187872666Y-95694476D01*
X187777428Y-95742095D01*
X187729809Y-95789714D01*
X187682190Y-95884952D01*
X187634571Y-96075428D01*
X187586952Y-96170666D01*
X187539333Y-96218285D01*
X187444095Y-96265904D01*
X187348857Y-96265904D01*
X187253619Y-96218285D01*
X187206000Y-96170666D01*
X187158380Y-96075428D01*
X187158380Y-95837333D01*
X187206000Y-95694476D01*
X188158380Y-94742095D02*
X188158380Y-95313523D01*
X188158380Y-95027809D02*
X187158380Y-95027809D01*
X187301238Y-95123047D01*
X187396476Y-95218285D01*
X187444095Y-95313523D01*
X124391142Y-88602380D02*
X124057809Y-88126190D01*
X123819714Y-88602380D02*
X123819714Y-87602380D01*
X124200666Y-87602380D01*
X124295904Y-87650000D01*
X124343523Y-87697619D01*
X124391142Y-87792857D01*
X124391142Y-87935714D01*
X124343523Y-88030952D01*
X124295904Y-88078571D01*
X124200666Y-88126190D01*
X123819714Y-88126190D01*
X125343523Y-88602380D02*
X124772095Y-88602380D01*
X125057809Y-88602380D02*
X125057809Y-87602380D01*
X124962571Y-87745238D01*
X124867333Y-87840476D01*
X124772095Y-87888095D01*
X126248285Y-87602380D02*
X125772095Y-87602380D01*
X125724476Y-88078571D01*
X125772095Y-88030952D01*
X125867333Y-87983333D01*
X126105428Y-87983333D01*
X126200666Y-88030952D01*
X126248285Y-88078571D01*
X126295904Y-88173809D01*
X126295904Y-88411904D01*
X126248285Y-88507142D01*
X126200666Y-88554761D01*
X126105428Y-88602380D01*
X125867333Y-88602380D01*
X125772095Y-88554761D01*
X125724476Y-88507142D01*
X172476380Y-101960357D02*
X172000190Y-102293690D01*
X172476380Y-102531785D02*
X171476380Y-102531785D01*
X171476380Y-102150833D01*
X171524000Y-102055595D01*
X171571619Y-102007976D01*
X171666857Y-101960357D01*
X171809714Y-101960357D01*
X171904952Y-102007976D01*
X171952571Y-102055595D01*
X172000190Y-102150833D01*
X172000190Y-102531785D01*
X172476380Y-101007976D02*
X172476380Y-101579404D01*
X172476380Y-101293690D02*
X171476380Y-101293690D01*
X171619238Y-101388928D01*
X171714476Y-101484166D01*
X171762095Y-101579404D01*
X171809714Y-100150833D02*
X172476380Y-100150833D01*
X171428761Y-100388928D02*
X172143047Y-100627023D01*
X172143047Y-100007976D01*
X174159142Y-102000857D02*
X174206761Y-102048476D01*
X174254380Y-102191333D01*
X174254380Y-102286571D01*
X174206761Y-102429428D01*
X174111523Y-102524666D01*
X174016285Y-102572285D01*
X173825809Y-102619904D01*
X173682952Y-102619904D01*
X173492476Y-102572285D01*
X173397238Y-102524666D01*
X173302000Y-102429428D01*
X173254380Y-102286571D01*
X173254380Y-102191333D01*
X173302000Y-102048476D01*
X173349619Y-102000857D01*
X173349619Y-101619904D02*
X173302000Y-101572285D01*
X173254380Y-101477047D01*
X173254380Y-101238952D01*
X173302000Y-101143714D01*
X173349619Y-101096095D01*
X173444857Y-101048476D01*
X173540095Y-101048476D01*
X173682952Y-101096095D01*
X174254380Y-101667523D01*
X174254380Y-101048476D01*
X173254380Y-100429428D02*
X173254380Y-100334190D01*
X173302000Y-100238952D01*
X173349619Y-100191333D01*
X173444857Y-100143714D01*
X173635333Y-100096095D01*
X173873428Y-100096095D01*
X174063904Y-100143714D01*
X174159142Y-100191333D01*
X174206761Y-100238952D01*
X174254380Y-100334190D01*
X174254380Y-100429428D01*
X174206761Y-100524666D01*
X174159142Y-100572285D01*
X174063904Y-100619904D01*
X173873428Y-100667523D01*
X173635333Y-100667523D01*
X173444857Y-100619904D01*
X173349619Y-100572285D01*
X173302000Y-100524666D01*
X173254380Y-100429428D01*
X136622380Y-105636666D02*
X136146190Y-105970000D01*
X136622380Y-106208095D02*
X135622380Y-106208095D01*
X135622380Y-105827142D01*
X135670000Y-105731904D01*
X135717619Y-105684285D01*
X135812857Y-105636666D01*
X135955714Y-105636666D01*
X136050952Y-105684285D01*
X136098571Y-105731904D01*
X136146190Y-105827142D01*
X136146190Y-106208095D01*
X135717619Y-105255714D02*
X135670000Y-105208095D01*
X135622380Y-105112857D01*
X135622380Y-104874761D01*
X135670000Y-104779523D01*
X135717619Y-104731904D01*
X135812857Y-104684285D01*
X135908095Y-104684285D01*
X136050952Y-104731904D01*
X136622380Y-105303333D01*
X136622380Y-104684285D01*
X133767142Y-105636666D02*
X133814761Y-105684285D01*
X133862380Y-105827142D01*
X133862380Y-105922380D01*
X133814761Y-106065238D01*
X133719523Y-106160476D01*
X133624285Y-106208095D01*
X133433809Y-106255714D01*
X133290952Y-106255714D01*
X133100476Y-106208095D01*
X133005238Y-106160476D01*
X132910000Y-106065238D01*
X132862380Y-105922380D01*
X132862380Y-105827142D01*
X132910000Y-105684285D01*
X132957619Y-105636666D01*
X133862380Y-105160476D02*
X133862380Y-104970000D01*
X133814761Y-104874761D01*
X133767142Y-104827142D01*
X133624285Y-104731904D01*
X133433809Y-104684285D01*
X133052857Y-104684285D01*
X132957619Y-104731904D01*
X132910000Y-104779523D01*
X132862380Y-104874761D01*
X132862380Y-105065238D01*
X132910000Y-105160476D01*
X132957619Y-105208095D01*
X133052857Y-105255714D01*
X133290952Y-105255714D01*
X133386190Y-105208095D01*
X133433809Y-105160476D01*
X133481428Y-105065238D01*
X133481428Y-104874761D01*
X133433809Y-104779523D01*
X133386190Y-104731904D01*
X133290952Y-104684285D01*
X184015142Y-89352380D02*
X183681809Y-88876190D01*
X183443714Y-89352380D02*
X183443714Y-88352380D01*
X183824666Y-88352380D01*
X183919904Y-88400000D01*
X183967523Y-88447619D01*
X184015142Y-88542857D01*
X184015142Y-88685714D01*
X183967523Y-88780952D01*
X183919904Y-88828571D01*
X183824666Y-88876190D01*
X183443714Y-88876190D01*
X184967523Y-89352380D02*
X184396095Y-89352380D01*
X184681809Y-89352380D02*
X184681809Y-88352380D01*
X184586571Y-88495238D01*
X184491333Y-88590476D01*
X184396095Y-88638095D01*
X185300857Y-88352380D02*
X185919904Y-88352380D01*
X185586571Y-88733333D01*
X185729428Y-88733333D01*
X185824666Y-88780952D01*
X185872285Y-88828571D01*
X185919904Y-88923809D01*
X185919904Y-89161904D01*
X185872285Y-89257142D01*
X185824666Y-89304761D01*
X185729428Y-89352380D01*
X185443714Y-89352380D01*
X185348476Y-89304761D01*
X185300857Y-89257142D01*
X183732380Y-97522857D02*
X183256190Y-97856190D01*
X183732380Y-98094285D02*
X182732380Y-98094285D01*
X182732380Y-97713333D01*
X182780000Y-97618095D01*
X182827619Y-97570476D01*
X182922857Y-97522857D01*
X183065714Y-97522857D01*
X183160952Y-97570476D01*
X183208571Y-97618095D01*
X183256190Y-97713333D01*
X183256190Y-98094285D01*
X183732380Y-96570476D02*
X183732380Y-97141904D01*
X183732380Y-96856190D02*
X182732380Y-96856190D01*
X182875238Y-96951428D01*
X182970476Y-97046666D01*
X183018095Y-97141904D01*
X182827619Y-96189523D02*
X182780000Y-96141904D01*
X182732380Y-96046666D01*
X182732380Y-95808571D01*
X182780000Y-95713333D01*
X182827619Y-95665714D01*
X182922857Y-95618095D01*
X183018095Y-95618095D01*
X183160952Y-95665714D01*
X183732380Y-96237142D01*
X183732380Y-95618095D01*
X125708095Y-92502380D02*
X125708095Y-93311904D01*
X125755714Y-93407142D01*
X125803333Y-93454761D01*
X125898571Y-93502380D01*
X126089047Y-93502380D01*
X126184285Y-93454761D01*
X126231904Y-93407142D01*
X126279523Y-93311904D01*
X126279523Y-92502380D01*
X126803333Y-93502380D02*
X126993809Y-93502380D01*
X127089047Y-93454761D01*
X127136666Y-93407142D01*
X127231904Y-93264285D01*
X127279523Y-93073809D01*
X127279523Y-92692857D01*
X127231904Y-92597619D01*
X127184285Y-92550000D01*
X127089047Y-92502380D01*
X126898571Y-92502380D01*
X126803333Y-92550000D01*
X126755714Y-92597619D01*
X126708095Y-92692857D01*
X126708095Y-92930952D01*
X126755714Y-93026190D01*
X126803333Y-93073809D01*
X126898571Y-93121428D01*
X127089047Y-93121428D01*
X127184285Y-93073809D01*
X127231904Y-93026190D01*
X127279523Y-92930952D01*
X123896190Y-102586190D02*
X124372380Y-102586190D01*
X123372380Y-102919523D02*
X123896190Y-102586190D01*
X123372380Y-102252857D01*
X124372380Y-101395714D02*
X124372380Y-101967142D01*
X124372380Y-101681428D02*
X123372380Y-101681428D01*
X123515238Y-101776666D01*
X123610476Y-101871904D01*
X123658095Y-101967142D01*
X156514666Y-87460380D02*
X156514666Y-88174666D01*
X156467047Y-88317523D01*
X156371809Y-88412761D01*
X156228952Y-88460380D01*
X156133714Y-88460380D01*
X156895619Y-87460380D02*
X157514666Y-87460380D01*
X157181333Y-87841333D01*
X157324190Y-87841333D01*
X157419428Y-87888952D01*
X157467047Y-87936571D01*
X157514666Y-88031809D01*
X157514666Y-88269904D01*
X157467047Y-88365142D01*
X157419428Y-88412761D01*
X157324190Y-88460380D01*
X157038476Y-88460380D01*
X156943238Y-88412761D01*
X156895619Y-88365142D01*
X141580892Y-93527380D02*
X141247559Y-93051190D01*
X141009464Y-93527380D02*
X141009464Y-92527380D01*
X141390416Y-92527380D01*
X141485654Y-92575000D01*
X141533273Y-92622619D01*
X141580892Y-92717857D01*
X141580892Y-92860714D01*
X141533273Y-92955952D01*
X141485654Y-93003571D01*
X141390416Y-93051190D01*
X141009464Y-93051190D01*
X142533273Y-93527380D02*
X141961845Y-93527380D01*
X142247559Y-93527380D02*
X142247559Y-92527380D01*
X142152321Y-92670238D01*
X142057083Y-92765476D01*
X141961845Y-92813095D01*
X143485654Y-93527380D02*
X142914226Y-93527380D01*
X143199940Y-93527380D02*
X143199940Y-92527380D01*
X143104702Y-92670238D01*
X143009464Y-92765476D01*
X142914226Y-92813095D01*
X131951428Y-92388571D02*
X131994285Y-92431428D01*
X132037142Y-92560000D01*
X132037142Y-92645714D01*
X131994285Y-92774285D01*
X131908571Y-92860000D01*
X131822857Y-92902857D01*
X131651428Y-92945714D01*
X131522857Y-92945714D01*
X131351428Y-92902857D01*
X131265714Y-92860000D01*
X131180000Y-92774285D01*
X131137142Y-92645714D01*
X131137142Y-92560000D01*
X131180000Y-92431428D01*
X131222857Y-92388571D01*
X132037142Y-91531428D02*
X132037142Y-92045714D01*
X132037142Y-91788571D02*
X131137142Y-91788571D01*
X131265714Y-91874285D01*
X131351428Y-91960000D01*
X131394285Y-92045714D01*
X131137142Y-91231428D02*
X131137142Y-90674285D01*
X131480000Y-90974285D01*
X131480000Y-90845714D01*
X131522857Y-90760000D01*
X131565714Y-90717142D01*
X131651428Y-90674285D01*
X131865714Y-90674285D01*
X131951428Y-90717142D01*
X131994285Y-90760000D01*
X132037142Y-90845714D01*
X132037142Y-91102857D01*
X131994285Y-91188571D01*
X131951428Y-91231428D01*
X128586666Y-98608571D02*
X128253333Y-98608571D01*
X128253333Y-99132380D02*
X128253333Y-98132380D01*
X128729523Y-98132380D01*
X129443809Y-98608571D02*
X129586666Y-98656190D01*
X129634285Y-98703809D01*
X129681904Y-98799047D01*
X129681904Y-98941904D01*
X129634285Y-99037142D01*
X129586666Y-99084761D01*
X129491428Y-99132380D01*
X129110476Y-99132380D01*
X129110476Y-98132380D01*
X129443809Y-98132380D01*
X129539047Y-98180000D01*
X129586666Y-98227619D01*
X129634285Y-98322857D01*
X129634285Y-98418095D01*
X129586666Y-98513333D01*
X129539047Y-98560952D01*
X129443809Y-98608571D01*
X129110476Y-98608571D01*
X130634285Y-99132380D02*
X130062857Y-99132380D01*
X130348571Y-99132380D02*
X130348571Y-98132380D01*
X130253333Y-98275238D01*
X130158095Y-98370476D01*
X130062857Y-98418095D01*
X123327142Y-110107142D02*
X123279523Y-110154761D01*
X123136666Y-110202380D01*
X123041428Y-110202380D01*
X122898571Y-110154761D01*
X122803333Y-110059523D01*
X122755714Y-109964285D01*
X122708095Y-109773809D01*
X122708095Y-109630952D01*
X122755714Y-109440476D01*
X122803333Y-109345238D01*
X122898571Y-109250000D01*
X123041428Y-109202380D01*
X123136666Y-109202380D01*
X123279523Y-109250000D01*
X123327142Y-109297619D01*
X124279523Y-110202380D02*
X123708095Y-110202380D01*
X123993809Y-110202380D02*
X123993809Y-109202380D01*
X123898571Y-109345238D01*
X123803333Y-109440476D01*
X123708095Y-109488095D01*
X124755714Y-110202380D02*
X124946190Y-110202380D01*
X125041428Y-110154761D01*
X125089047Y-110107142D01*
X125184285Y-109964285D01*
X125231904Y-109773809D01*
X125231904Y-109392857D01*
X125184285Y-109297619D01*
X125136666Y-109250000D01*
X125041428Y-109202380D01*
X124850952Y-109202380D01*
X124755714Y-109250000D01*
X124708095Y-109297619D01*
X124660476Y-109392857D01*
X124660476Y-109630952D01*
X124708095Y-109726190D01*
X124755714Y-109773809D01*
X124850952Y-109821428D01*
X125041428Y-109821428D01*
X125136666Y-109773809D01*
X125184285Y-109726190D01*
X125231904Y-109630952D01*
X144772142Y-93527380D02*
X144438809Y-93051190D01*
X144200714Y-93527380D02*
X144200714Y-92527380D01*
X144581666Y-92527380D01*
X144676904Y-92575000D01*
X144724523Y-92622619D01*
X144772142Y-92717857D01*
X144772142Y-92860714D01*
X144724523Y-92955952D01*
X144676904Y-93003571D01*
X144581666Y-93051190D01*
X144200714Y-93051190D01*
X145724523Y-93527380D02*
X145153095Y-93527380D01*
X145438809Y-93527380D02*
X145438809Y-92527380D01*
X145343571Y-92670238D01*
X145248333Y-92765476D01*
X145153095Y-92813095D01*
X146343571Y-92527380D02*
X146438809Y-92527380D01*
X146534047Y-92575000D01*
X146581666Y-92622619D01*
X146629285Y-92717857D01*
X146676904Y-92908333D01*
X146676904Y-93146428D01*
X146629285Y-93336904D01*
X146581666Y-93432142D01*
X146534047Y-93479761D01*
X146438809Y-93527380D01*
X146343571Y-93527380D01*
X146248333Y-93479761D01*
X146200714Y-93432142D01*
X146153095Y-93336904D01*
X146105476Y-93146428D01*
X146105476Y-92908333D01*
X146153095Y-92717857D01*
X146200714Y-92622619D01*
X146248333Y-92575000D01*
X146343571Y-92527380D01*
X128336095Y-117066380D02*
X128336095Y-117875904D01*
X128383714Y-117971142D01*
X128431333Y-118018761D01*
X128526571Y-118066380D01*
X128717047Y-118066380D01*
X128812285Y-118018761D01*
X128859904Y-117971142D01*
X128907523Y-117875904D01*
X128907523Y-117066380D01*
X129526571Y-117494952D02*
X129431333Y-117447333D01*
X129383714Y-117399714D01*
X129336095Y-117304476D01*
X129336095Y-117256857D01*
X129383714Y-117161619D01*
X129431333Y-117114000D01*
X129526571Y-117066380D01*
X129717047Y-117066380D01*
X129812285Y-117114000D01*
X129859904Y-117161619D01*
X129907523Y-117256857D01*
X129907523Y-117304476D01*
X129859904Y-117399714D01*
X129812285Y-117447333D01*
X129717047Y-117494952D01*
X129526571Y-117494952D01*
X129431333Y-117542571D01*
X129383714Y-117590190D01*
X129336095Y-117685428D01*
X129336095Y-117875904D01*
X129383714Y-117971142D01*
X129431333Y-118018761D01*
X129526571Y-118066380D01*
X129717047Y-118066380D01*
X129812285Y-118018761D01*
X129859904Y-117971142D01*
X129907523Y-117875904D01*
X129907523Y-117685428D01*
X129859904Y-117590190D01*
X129812285Y-117542571D01*
X129717047Y-117494952D01*
X124389333Y-117066380D02*
X124389333Y-117875904D01*
X124436952Y-117971142D01*
X124484571Y-118018761D01*
X124579809Y-118066380D01*
X124770285Y-118066380D01*
X124865523Y-118018761D01*
X124913142Y-117971142D01*
X124960761Y-117875904D01*
X124960761Y-117066380D01*
X125341714Y-117066380D02*
X126008380Y-117066380D01*
X125579809Y-118066380D01*
X120514571Y-117066380D02*
X120514571Y-117875904D01*
X120562190Y-117971142D01*
X120609809Y-118018761D01*
X120705047Y-118066380D01*
X120895523Y-118066380D01*
X120990761Y-118018761D01*
X121038380Y-117971142D01*
X121085999Y-117875904D01*
X121085999Y-117066380D01*
X121990761Y-117066380D02*
X121800285Y-117066380D01*
X121705047Y-117114000D01*
X121657428Y-117161619D01*
X121562190Y-117304476D01*
X121514571Y-117494952D01*
X121514571Y-117875904D01*
X121562190Y-117971142D01*
X121609809Y-118018761D01*
X121705047Y-118066380D01*
X121895523Y-118066380D01*
X121990761Y-118018761D01*
X122038380Y-117971142D01*
X122085999Y-117875904D01*
X122085999Y-117637809D01*
X122038380Y-117542571D01*
X121990761Y-117494952D01*
X121895523Y-117447333D01*
X121705047Y-117447333D01*
X121609809Y-117494952D01*
X121562190Y-117542571D01*
X121514571Y-117637809D01*
X116652095Y-117066380D02*
X116652095Y-117875904D01*
X116699714Y-117971142D01*
X116747333Y-118018761D01*
X116842571Y-118066380D01*
X117033047Y-118066380D01*
X117128285Y-118018761D01*
X117175904Y-117971142D01*
X117223523Y-117875904D01*
X117223523Y-117066380D01*
X118175904Y-117066380D02*
X117699714Y-117066380D01*
X117652095Y-117542571D01*
X117699714Y-117494952D01*
X117794952Y-117447333D01*
X118033047Y-117447333D01*
X118128285Y-117494952D01*
X118175904Y-117542571D01*
X118223523Y-117637809D01*
X118223523Y-117875904D01*
X118175904Y-117971142D01*
X118128285Y-118018761D01*
X118033047Y-118066380D01*
X117794952Y-118066380D01*
X117699714Y-118018761D01*
X117652095Y-117971142D01*
X135388095Y-98524380D02*
X135388095Y-99333904D01*
X135435714Y-99429142D01*
X135483333Y-99476761D01*
X135578571Y-99524380D01*
X135769047Y-99524380D01*
X135864285Y-99476761D01*
X135911904Y-99429142D01*
X135959523Y-99333904D01*
X135959523Y-98524380D01*
X136864285Y-98857714D02*
X136864285Y-99524380D01*
X136626190Y-98476761D02*
X136388095Y-99191047D01*
X137007142Y-99191047D01*
X168322095Y-90048380D02*
X168322095Y-90857904D01*
X168369714Y-90953142D01*
X168417333Y-91000761D01*
X168512571Y-91048380D01*
X168703047Y-91048380D01*
X168798285Y-91000761D01*
X168845904Y-90953142D01*
X168893523Y-90857904D01*
X168893523Y-90048380D01*
X169274476Y-90048380D02*
X169893523Y-90048380D01*
X169560190Y-90429333D01*
X169703047Y-90429333D01*
X169798285Y-90476952D01*
X169845904Y-90524571D01*
X169893523Y-90619809D01*
X169893523Y-90857904D01*
X169845904Y-90953142D01*
X169798285Y-91000761D01*
X169703047Y-91048380D01*
X169417333Y-91048380D01*
X169322095Y-91000761D01*
X169274476Y-90953142D01*
X160038333Y-95662380D02*
X159705000Y-95186190D01*
X159466904Y-95662380D02*
X159466904Y-94662380D01*
X159847857Y-94662380D01*
X159943095Y-94710000D01*
X159990714Y-94757619D01*
X160038333Y-94852857D01*
X160038333Y-94995714D01*
X159990714Y-95090952D01*
X159943095Y-95138571D01*
X159847857Y-95186190D01*
X159466904Y-95186190D01*
X160514523Y-95662380D02*
X160705000Y-95662380D01*
X160800238Y-95614761D01*
X160847857Y-95567142D01*
X160943095Y-95424285D01*
X160990714Y-95233809D01*
X160990714Y-94852857D01*
X160943095Y-94757619D01*
X160895476Y-94710000D01*
X160800238Y-94662380D01*
X160609761Y-94662380D01*
X160514523Y-94710000D01*
X160466904Y-94757619D01*
X160419285Y-94852857D01*
X160419285Y-95090952D01*
X160466904Y-95186190D01*
X160514523Y-95233809D01*
X160609761Y-95281428D01*
X160800238Y-95281428D01*
X160895476Y-95233809D01*
X160943095Y-95186190D01*
X160990714Y-95090952D01*
X151029333Y-94302380D02*
X150696000Y-93826190D01*
X150457904Y-94302380D02*
X150457904Y-93302380D01*
X150838857Y-93302380D01*
X150934095Y-93350000D01*
X150981714Y-93397619D01*
X151029333Y-93492857D01*
X151029333Y-93635714D01*
X150981714Y-93730952D01*
X150934095Y-93778571D01*
X150838857Y-93826190D01*
X150457904Y-93826190D01*
X151600761Y-93730952D02*
X151505523Y-93683333D01*
X151457904Y-93635714D01*
X151410285Y-93540476D01*
X151410285Y-93492857D01*
X151457904Y-93397619D01*
X151505523Y-93350000D01*
X151600761Y-93302380D01*
X151791238Y-93302380D01*
X151886476Y-93350000D01*
X151934095Y-93397619D01*
X151981714Y-93492857D01*
X151981714Y-93540476D01*
X151934095Y-93635714D01*
X151886476Y-93683333D01*
X151791238Y-93730952D01*
X151600761Y-93730952D01*
X151505523Y-93778571D01*
X151457904Y-93826190D01*
X151410285Y-93921428D01*
X151410285Y-94111904D01*
X151457904Y-94207142D01*
X151505523Y-94254761D01*
X151600761Y-94302380D01*
X151791238Y-94302380D01*
X151886476Y-94254761D01*
X151934095Y-94207142D01*
X151981714Y-94111904D01*
X151981714Y-93921428D01*
X151934095Y-93826190D01*
X151886476Y-93778571D01*
X151791238Y-93730952D01*
X154778333Y-98620380D02*
X154445000Y-98144190D01*
X154206904Y-98620380D02*
X154206904Y-97620380D01*
X154587857Y-97620380D01*
X154683095Y-97668000D01*
X154730714Y-97715619D01*
X154778333Y-97810857D01*
X154778333Y-97953714D01*
X154730714Y-98048952D01*
X154683095Y-98096571D01*
X154587857Y-98144190D01*
X154206904Y-98144190D01*
X155111666Y-97620380D02*
X155778333Y-97620380D01*
X155349761Y-98620380D01*
X154077333Y-95826380D02*
X153744000Y-95350190D01*
X153505904Y-95826380D02*
X153505904Y-94826380D01*
X153886857Y-94826380D01*
X153982095Y-94874000D01*
X154029714Y-94921619D01*
X154077333Y-95016857D01*
X154077333Y-95159714D01*
X154029714Y-95254952D01*
X153982095Y-95302571D01*
X153886857Y-95350190D01*
X153505904Y-95350190D01*
X154934476Y-94826380D02*
X154744000Y-94826380D01*
X154648761Y-94874000D01*
X154601142Y-94921619D01*
X154505904Y-95064476D01*
X154458285Y-95254952D01*
X154458285Y-95635904D01*
X154505904Y-95731142D01*
X154553523Y-95778761D01*
X154648761Y-95826380D01*
X154839238Y-95826380D01*
X154934476Y-95778761D01*
X154982095Y-95731142D01*
X155029714Y-95635904D01*
X155029714Y-95397809D01*
X154982095Y-95302571D01*
X154934476Y-95254952D01*
X154839238Y-95207333D01*
X154648761Y-95207333D01*
X154553523Y-95254952D01*
X154505904Y-95302571D01*
X154458285Y-95397809D01*
X157743333Y-97082380D02*
X157410000Y-96606190D01*
X157171904Y-97082380D02*
X157171904Y-96082380D01*
X157552857Y-96082380D01*
X157648095Y-96130000D01*
X157695714Y-96177619D01*
X157743333Y-96272857D01*
X157743333Y-96415714D01*
X157695714Y-96510952D01*
X157648095Y-96558571D01*
X157552857Y-96606190D01*
X157171904Y-96606190D01*
X158648095Y-96082380D02*
X158171904Y-96082380D01*
X158124285Y-96558571D01*
X158171904Y-96510952D01*
X158267142Y-96463333D01*
X158505238Y-96463333D01*
X158600476Y-96510952D01*
X158648095Y-96558571D01*
X158695714Y-96653809D01*
X158695714Y-96891904D01*
X158648095Y-96987142D01*
X158600476Y-97034761D01*
X158505238Y-97082380D01*
X158267142Y-97082380D01*
X158171904Y-97034761D01*
X158124285Y-96987142D01*
X135242380Y-105636666D02*
X134766190Y-105970000D01*
X135242380Y-106208095D02*
X134242380Y-106208095D01*
X134242380Y-105827142D01*
X134290000Y-105731904D01*
X134337619Y-105684285D01*
X134432857Y-105636666D01*
X134575714Y-105636666D01*
X134670952Y-105684285D01*
X134718571Y-105731904D01*
X134766190Y-105827142D01*
X134766190Y-106208095D01*
X134575714Y-104779523D02*
X135242380Y-104779523D01*
X134194761Y-105017619D02*
X134909047Y-105255714D01*
X134909047Y-104636666D01*
X178484380Y-100972166D02*
X178008190Y-101305500D01*
X178484380Y-101543595D02*
X177484380Y-101543595D01*
X177484380Y-101162642D01*
X177532000Y-101067404D01*
X177579619Y-101019785D01*
X177674857Y-100972166D01*
X177817714Y-100972166D01*
X177912952Y-101019785D01*
X177960571Y-101067404D01*
X178008190Y-101162642D01*
X178008190Y-101543595D01*
X177484380Y-100638833D02*
X177484380Y-100019785D01*
X177865333Y-100353119D01*
X177865333Y-100210261D01*
X177912952Y-100115023D01*
X177960571Y-100067404D01*
X178055809Y-100019785D01*
X178293904Y-100019785D01*
X178389142Y-100067404D01*
X178436761Y-100115023D01*
X178484380Y-100210261D01*
X178484380Y-100495976D01*
X178436761Y-100591214D01*
X178389142Y-100638833D01*
X123695333Y-98786380D02*
X123362000Y-98310190D01*
X123123904Y-98786380D02*
X123123904Y-97786380D01*
X123504857Y-97786380D01*
X123600095Y-97834000D01*
X123647714Y-97881619D01*
X123695333Y-97976857D01*
X123695333Y-98119714D01*
X123647714Y-98214952D01*
X123600095Y-98262571D01*
X123504857Y-98310190D01*
X123123904Y-98310190D01*
X124647714Y-98786380D02*
X124076285Y-98786380D01*
X124362000Y-98786380D02*
X124362000Y-97786380D01*
X124266761Y-97929238D01*
X124171523Y-98024476D01*
X124076285Y-98072095D01*
X127307142Y-110077142D02*
X127259523Y-110124761D01*
X127116666Y-110172380D01*
X127021428Y-110172380D01*
X126878571Y-110124761D01*
X126783333Y-110029523D01*
X126735714Y-109934285D01*
X126688095Y-109743809D01*
X126688095Y-109600952D01*
X126735714Y-109410476D01*
X126783333Y-109315238D01*
X126878571Y-109220000D01*
X127021428Y-109172380D01*
X127116666Y-109172380D01*
X127259523Y-109220000D01*
X127307142Y-109267619D01*
X128259523Y-110172380D02*
X127688095Y-110172380D01*
X127973809Y-110172380D02*
X127973809Y-109172380D01*
X127878571Y-109315238D01*
X127783333Y-109410476D01*
X127688095Y-109458095D01*
X128830952Y-109600952D02*
X128735714Y-109553333D01*
X128688095Y-109505714D01*
X128640476Y-109410476D01*
X128640476Y-109362857D01*
X128688095Y-109267619D01*
X128735714Y-109220000D01*
X128830952Y-109172380D01*
X129021428Y-109172380D01*
X129116666Y-109220000D01*
X129164285Y-109267619D01*
X129211904Y-109362857D01*
X129211904Y-109410476D01*
X129164285Y-109505714D01*
X129116666Y-109553333D01*
X129021428Y-109600952D01*
X128830952Y-109600952D01*
X128735714Y-109648571D01*
X128688095Y-109696190D01*
X128640476Y-109791428D01*
X128640476Y-109981904D01*
X128688095Y-110077142D01*
X128735714Y-110124761D01*
X128830952Y-110172380D01*
X129021428Y-110172380D01*
X129116666Y-110124761D01*
X129164285Y-110077142D01*
X129211904Y-109981904D01*
X129211904Y-109791428D01*
X129164285Y-109696190D01*
X129116666Y-109648571D01*
X129021428Y-109600952D01*
X138389642Y-93432142D02*
X138342023Y-93479761D01*
X138199166Y-93527380D01*
X138103928Y-93527380D01*
X137961071Y-93479761D01*
X137865833Y-93384523D01*
X137818214Y-93289285D01*
X137770595Y-93098809D01*
X137770595Y-92955952D01*
X137818214Y-92765476D01*
X137865833Y-92670238D01*
X137961071Y-92575000D01*
X138103928Y-92527380D01*
X138199166Y-92527380D01*
X138342023Y-92575000D01*
X138389642Y-92622619D01*
X139342023Y-93527380D02*
X138770595Y-93527380D01*
X139056309Y-93527380D02*
X139056309Y-92527380D01*
X138961071Y-92670238D01*
X138865833Y-92765476D01*
X138770595Y-92813095D01*
X139675357Y-92527380D02*
X140342023Y-92527380D01*
X139913452Y-93527380D01*
X119357142Y-110087142D02*
X119309523Y-110134761D01*
X119166666Y-110182380D01*
X119071428Y-110182380D01*
X118928571Y-110134761D01*
X118833333Y-110039523D01*
X118785714Y-109944285D01*
X118738095Y-109753809D01*
X118738095Y-109610952D01*
X118785714Y-109420476D01*
X118833333Y-109325238D01*
X118928571Y-109230000D01*
X119071428Y-109182380D01*
X119166666Y-109182380D01*
X119309523Y-109230000D01*
X119357142Y-109277619D01*
X120309523Y-110182380D02*
X119738095Y-110182380D01*
X120023809Y-110182380D02*
X120023809Y-109182380D01*
X119928571Y-109325238D01*
X119833333Y-109420476D01*
X119738095Y-109468095D01*
X121166666Y-109182380D02*
X120976190Y-109182380D01*
X120880952Y-109230000D01*
X120833333Y-109277619D01*
X120738095Y-109420476D01*
X120690476Y-109610952D01*
X120690476Y-109991904D01*
X120738095Y-110087142D01*
X120785714Y-110134761D01*
X120880952Y-110182380D01*
X121071428Y-110182380D01*
X121166666Y-110134761D01*
X121214285Y-110087142D01*
X121261904Y-109991904D01*
X121261904Y-109753809D01*
X121214285Y-109658571D01*
X121166666Y-109610952D01*
X121071428Y-109563333D01*
X120880952Y-109563333D01*
X120785714Y-109610952D01*
X120738095Y-109658571D01*
X120690476Y-109753809D01*
X140222142Y-105137142D02*
X140174523Y-105184761D01*
X140031666Y-105232380D01*
X139936428Y-105232380D01*
X139793571Y-105184761D01*
X139698333Y-105089523D01*
X139650714Y-104994285D01*
X139603095Y-104803809D01*
X139603095Y-104660952D01*
X139650714Y-104470476D01*
X139698333Y-104375238D01*
X139793571Y-104280000D01*
X139936428Y-104232380D01*
X140031666Y-104232380D01*
X140174523Y-104280000D01*
X140222142Y-104327619D01*
X141174523Y-105232380D02*
X140603095Y-105232380D01*
X140888809Y-105232380D02*
X140888809Y-104232380D01*
X140793571Y-104375238D01*
X140698333Y-104470476D01*
X140603095Y-104518095D01*
X142079285Y-104232380D02*
X141603095Y-104232380D01*
X141555476Y-104708571D01*
X141603095Y-104660952D01*
X141698333Y-104613333D01*
X141936428Y-104613333D01*
X142031666Y-104660952D01*
X142079285Y-104708571D01*
X142126904Y-104803809D01*
X142126904Y-105041904D01*
X142079285Y-105137142D01*
X142031666Y-105184761D01*
X141936428Y-105232380D01*
X141698333Y-105232380D01*
X141603095Y-105184761D01*
X141555476Y-105137142D01*
X142202142Y-97862142D02*
X142154523Y-97909761D01*
X142011666Y-97957380D01*
X141916428Y-97957380D01*
X141773571Y-97909761D01*
X141678333Y-97814523D01*
X141630714Y-97719285D01*
X141583095Y-97528809D01*
X141583095Y-97385952D01*
X141630714Y-97195476D01*
X141678333Y-97100238D01*
X141773571Y-97005000D01*
X141916428Y-96957380D01*
X142011666Y-96957380D01*
X142154523Y-97005000D01*
X142202142Y-97052619D01*
X143154523Y-97957380D02*
X142583095Y-97957380D01*
X142868809Y-97957380D02*
X142868809Y-96957380D01*
X142773571Y-97100238D01*
X142678333Y-97195476D01*
X142583095Y-97243095D01*
X144011666Y-97290714D02*
X144011666Y-97957380D01*
X143773571Y-96909761D02*
X143535476Y-97624047D01*
X144154523Y-97624047D01*
X115657142Y-110077142D02*
X115609523Y-110124761D01*
X115466666Y-110172380D01*
X115371428Y-110172380D01*
X115228571Y-110124761D01*
X115133333Y-110029523D01*
X115085714Y-109934285D01*
X115038095Y-109743809D01*
X115038095Y-109600952D01*
X115085714Y-109410476D01*
X115133333Y-109315238D01*
X115228571Y-109220000D01*
X115371428Y-109172380D01*
X115466666Y-109172380D01*
X115609523Y-109220000D01*
X115657142Y-109267619D01*
X116609523Y-110172380D02*
X116038095Y-110172380D01*
X116323809Y-110172380D02*
X116323809Y-109172380D01*
X116228571Y-109315238D01*
X116133333Y-109410476D01*
X116038095Y-109458095D01*
X116990476Y-109267619D02*
X117038095Y-109220000D01*
X117133333Y-109172380D01*
X117371428Y-109172380D01*
X117466666Y-109220000D01*
X117514285Y-109267619D01*
X117561904Y-109362857D01*
X117561904Y-109458095D01*
X117514285Y-109600952D01*
X116942857Y-110172380D01*
X117561904Y-110172380D01*
X176721142Y-101898357D02*
X176768761Y-101945976D01*
X176816380Y-102088833D01*
X176816380Y-102184071D01*
X176768761Y-102326928D01*
X176673523Y-102422166D01*
X176578285Y-102469785D01*
X176387809Y-102517404D01*
X176244952Y-102517404D01*
X176054476Y-102469785D01*
X175959238Y-102422166D01*
X175864000Y-102326928D01*
X175816380Y-102184071D01*
X175816380Y-102088833D01*
X175864000Y-101945976D01*
X175911619Y-101898357D01*
X176816380Y-100945976D02*
X176816380Y-101517404D01*
X176816380Y-101231690D02*
X175816380Y-101231690D01*
X175959238Y-101326928D01*
X176054476Y-101422166D01*
X176102095Y-101517404D01*
X176816380Y-99993595D02*
X176816380Y-100565023D01*
X176816380Y-100279309D02*
X175816380Y-100279309D01*
X175959238Y-100374547D01*
X176054476Y-100469785D01*
X176102095Y-100565023D01*
X127947142Y-104727142D02*
X127899523Y-104774761D01*
X127756666Y-104822380D01*
X127661428Y-104822380D01*
X127518571Y-104774761D01*
X127423333Y-104679523D01*
X127375714Y-104584285D01*
X127328095Y-104393809D01*
X127328095Y-104250952D01*
X127375714Y-104060476D01*
X127423333Y-103965238D01*
X127518571Y-103870000D01*
X127661428Y-103822380D01*
X127756666Y-103822380D01*
X127899523Y-103870000D01*
X127947142Y-103917619D01*
X128899523Y-104822380D02*
X128328095Y-104822380D01*
X128613809Y-104822380D02*
X128613809Y-103822380D01*
X128518571Y-103965238D01*
X128423333Y-104060476D01*
X128328095Y-104108095D01*
X129518571Y-103822380D02*
X129613809Y-103822380D01*
X129709047Y-103870000D01*
X129756666Y-103917619D01*
X129804285Y-104012857D01*
X129851904Y-104203333D01*
X129851904Y-104441428D01*
X129804285Y-104631904D01*
X129756666Y-104727142D01*
X129709047Y-104774761D01*
X129613809Y-104822380D01*
X129518571Y-104822380D01*
X129423333Y-104774761D01*
X129375714Y-104727142D01*
X129328095Y-104631904D01*
X129280476Y-104441428D01*
X129280476Y-104203333D01*
X129328095Y-104012857D01*
X129375714Y-103917619D01*
X129423333Y-103870000D01*
X129518571Y-103822380D01*
X122653333Y-93577142D02*
X122605714Y-93624761D01*
X122462857Y-93672380D01*
X122367619Y-93672380D01*
X122224761Y-93624761D01*
X122129523Y-93529523D01*
X122081904Y-93434285D01*
X122034285Y-93243809D01*
X122034285Y-93100952D01*
X122081904Y-92910476D01*
X122129523Y-92815238D01*
X122224761Y-92720000D01*
X122367619Y-92672380D01*
X122462857Y-92672380D01*
X122605714Y-92720000D01*
X122653333Y-92767619D01*
X123224761Y-93100952D02*
X123129523Y-93053333D01*
X123081904Y-93005714D01*
X123034285Y-92910476D01*
X123034285Y-92862857D01*
X123081904Y-92767619D01*
X123129523Y-92720000D01*
X123224761Y-92672380D01*
X123415238Y-92672380D01*
X123510476Y-92720000D01*
X123558095Y-92767619D01*
X123605714Y-92862857D01*
X123605714Y-92910476D01*
X123558095Y-93005714D01*
X123510476Y-93053333D01*
X123415238Y-93100952D01*
X123224761Y-93100952D01*
X123129523Y-93148571D01*
X123081904Y-93196190D01*
X123034285Y-93291428D01*
X123034285Y-93481904D01*
X123081904Y-93577142D01*
X123129523Y-93624761D01*
X123224761Y-93672380D01*
X123415238Y-93672380D01*
X123510476Y-93624761D01*
X123558095Y-93577142D01*
X123605714Y-93481904D01*
X123605714Y-93291428D01*
X123558095Y-93196190D01*
X123510476Y-93148571D01*
X123415238Y-93100952D01*
X176181142Y-94004666D02*
X176228761Y-94052285D01*
X176276380Y-94195142D01*
X176276380Y-94290380D01*
X176228761Y-94433238D01*
X176133523Y-94528476D01*
X176038285Y-94576095D01*
X175847809Y-94623714D01*
X175704952Y-94623714D01*
X175514476Y-94576095D01*
X175419238Y-94528476D01*
X175324000Y-94433238D01*
X175276380Y-94290380D01*
X175276380Y-94195142D01*
X175324000Y-94052285D01*
X175371619Y-94004666D01*
X175276380Y-93671333D02*
X175276380Y-93004666D01*
X176276380Y-93433238D01*
X174657142Y-94004666D02*
X174704761Y-94052285D01*
X174752380Y-94195142D01*
X174752380Y-94290380D01*
X174704761Y-94433238D01*
X174609523Y-94528476D01*
X174514285Y-94576095D01*
X174323809Y-94623714D01*
X174180952Y-94623714D01*
X173990476Y-94576095D01*
X173895238Y-94528476D01*
X173800000Y-94433238D01*
X173752380Y-94290380D01*
X173752380Y-94195142D01*
X173800000Y-94052285D01*
X173847619Y-94004666D01*
X173752380Y-93147523D02*
X173752380Y-93338000D01*
X173800000Y-93433238D01*
X173847619Y-93480857D01*
X173990476Y-93576095D01*
X174180952Y-93623714D01*
X174561904Y-93623714D01*
X174657142Y-93576095D01*
X174704761Y-93528476D01*
X174752380Y-93433238D01*
X174752380Y-93242761D01*
X174704761Y-93147523D01*
X174657142Y-93099904D01*
X174561904Y-93052285D01*
X174323809Y-93052285D01*
X174228571Y-93099904D01*
X174180952Y-93147523D01*
X174133333Y-93242761D01*
X174133333Y-93433238D01*
X174180952Y-93528476D01*
X174228571Y-93576095D01*
X174323809Y-93623714D01*
X129793333Y-93607142D02*
X129745714Y-93654761D01*
X129602857Y-93702380D01*
X129507619Y-93702380D01*
X129364761Y-93654761D01*
X129269523Y-93559523D01*
X129221904Y-93464285D01*
X129174285Y-93273809D01*
X129174285Y-93130952D01*
X129221904Y-92940476D01*
X129269523Y-92845238D01*
X129364761Y-92750000D01*
X129507619Y-92702380D01*
X129602857Y-92702380D01*
X129745714Y-92750000D01*
X129793333Y-92797619D01*
X130698095Y-92702380D02*
X130221904Y-92702380D01*
X130174285Y-93178571D01*
X130221904Y-93130952D01*
X130317142Y-93083333D01*
X130555238Y-93083333D01*
X130650476Y-93130952D01*
X130698095Y-93178571D01*
X130745714Y-93273809D01*
X130745714Y-93511904D01*
X130698095Y-93607142D01*
X130650476Y-93654761D01*
X130555238Y-93702380D01*
X130317142Y-93702380D01*
X130221904Y-93654761D01*
X130174285Y-93607142D01*
X125318333Y-106677142D02*
X125270714Y-106724761D01*
X125127857Y-106772380D01*
X125032619Y-106772380D01*
X124889761Y-106724761D01*
X124794523Y-106629523D01*
X124746904Y-106534285D01*
X124699285Y-106343809D01*
X124699285Y-106200952D01*
X124746904Y-106010476D01*
X124794523Y-105915238D01*
X124889761Y-105820000D01*
X125032619Y-105772380D01*
X125127857Y-105772380D01*
X125270714Y-105820000D01*
X125318333Y-105867619D01*
X126175476Y-106105714D02*
X126175476Y-106772380D01*
X125937380Y-105724761D02*
X125699285Y-106439047D01*
X126318333Y-106439047D01*
X176197142Y-86046666D02*
X176244761Y-86094285D01*
X176292380Y-86237142D01*
X176292380Y-86332380D01*
X176244761Y-86475238D01*
X176149523Y-86570476D01*
X176054285Y-86618095D01*
X175863809Y-86665714D01*
X175720952Y-86665714D01*
X175530476Y-86618095D01*
X175435238Y-86570476D01*
X175340000Y-86475238D01*
X175292380Y-86332380D01*
X175292380Y-86237142D01*
X175340000Y-86094285D01*
X175387619Y-86046666D01*
X175292380Y-85713333D02*
X175292380Y-85094285D01*
X175673333Y-85427619D01*
X175673333Y-85284761D01*
X175720952Y-85189523D01*
X175768571Y-85141904D01*
X175863809Y-85094285D01*
X176101904Y-85094285D01*
X176197142Y-85141904D01*
X176244761Y-85189523D01*
X176292380Y-85284761D01*
X176292380Y-85570476D01*
X176244761Y-85665714D01*
X176197142Y-85713333D01*
X122068333Y-106677142D02*
X122020714Y-106724761D01*
X121877857Y-106772380D01*
X121782619Y-106772380D01*
X121639761Y-106724761D01*
X121544523Y-106629523D01*
X121496904Y-106534285D01*
X121449285Y-106343809D01*
X121449285Y-106200952D01*
X121496904Y-106010476D01*
X121544523Y-105915238D01*
X121639761Y-105820000D01*
X121782619Y-105772380D01*
X121877857Y-105772380D01*
X122020714Y-105820000D01*
X122068333Y-105867619D01*
X122449285Y-105867619D02*
X122496904Y-105820000D01*
X122592142Y-105772380D01*
X122830238Y-105772380D01*
X122925476Y-105820000D01*
X122973095Y-105867619D01*
X123020714Y-105962857D01*
X123020714Y-106058095D01*
X122973095Y-106200952D01*
X122401666Y-106772380D01*
X123020714Y-106772380D01*
X174687142Y-85986666D02*
X174734761Y-86034285D01*
X174782380Y-86177142D01*
X174782380Y-86272380D01*
X174734761Y-86415238D01*
X174639523Y-86510476D01*
X174544285Y-86558095D01*
X174353809Y-86605714D01*
X174210952Y-86605714D01*
X174020476Y-86558095D01*
X173925238Y-86510476D01*
X173830000Y-86415238D01*
X173782380Y-86272380D01*
X173782380Y-86177142D01*
X173830000Y-86034285D01*
X173877619Y-85986666D01*
X174782380Y-85034285D02*
X174782380Y-85605714D01*
X174782380Y-85320000D02*
X173782380Y-85320000D01*
X173925238Y-85415238D01*
X174020476Y-85510476D01*
X174068095Y-85605714D01*
%LPC*%
G36*
G01*
X198518334Y-92179000D02*
X197118332Y-92179000D01*
G75*
G02*
X197016333Y-92077001I0J101999D01*
G01*
X197016333Y-89976999D01*
G75*
G02*
X197118332Y-89875000I101999J0D01*
G01*
X198518334Y-89875000D01*
G75*
G02*
X198620333Y-89976999I0J-101999D01*
G01*
X198620333Y-92077001D01*
G75*
G02*
X198518334Y-92179000I-101999J0D01*
G01*
G37*
G36*
G01*
X198518334Y-101279000D02*
X197118332Y-101279000D01*
G75*
G02*
X197016333Y-101177001I0J101999D01*
G01*
X197016333Y-99076999D01*
G75*
G02*
X197118332Y-98975000I101999J0D01*
G01*
X198518334Y-98975000D01*
G75*
G02*
X198620333Y-99076999I0J-101999D01*
G01*
X198620333Y-101177001D01*
G75*
G02*
X198518334Y-101279000I-101999J0D01*
G01*
G37*
G36*
G01*
X194018334Y-101279000D02*
X192618332Y-101279000D01*
G75*
G02*
X192516333Y-101177001I0J101999D01*
G01*
X192516333Y-99076999D01*
G75*
G02*
X192618332Y-98975000I101999J0D01*
G01*
X194018334Y-98975000D01*
G75*
G02*
X194120333Y-99076999I0J-101999D01*
G01*
X194120333Y-101177001D01*
G75*
G02*
X194018334Y-101279000I-101999J0D01*
G01*
G37*
G36*
G01*
X194018334Y-92179000D02*
X192618332Y-92179000D01*
G75*
G02*
X192516333Y-92077001I0J101999D01*
G01*
X192516333Y-89976999D01*
G75*
G02*
X192618332Y-89875000I101999J0D01*
G01*
X194018334Y-89875000D01*
G75*
G02*
X194120333Y-89976999I0J-101999D01*
G01*
X194120333Y-92077001D01*
G75*
G02*
X194018334Y-92179000I-101999J0D01*
G01*
G37*
G36*
G01*
X190734335Y-92179000D02*
X189334333Y-92179000D01*
G75*
G02*
X189232334Y-92077001I0J101999D01*
G01*
X189232334Y-89976999D01*
G75*
G02*
X189334333Y-89875000I101999J0D01*
G01*
X190734335Y-89875000D01*
G75*
G02*
X190836334Y-89976999I0J-101999D01*
G01*
X190836334Y-92077001D01*
G75*
G02*
X190734335Y-92179000I-101999J0D01*
G01*
G37*
G36*
G01*
X190734335Y-101279000D02*
X189334333Y-101279000D01*
G75*
G02*
X189232334Y-101177001I0J101999D01*
G01*
X189232334Y-99076999D01*
G75*
G02*
X189334333Y-98975000I101999J0D01*
G01*
X190734335Y-98975000D01*
G75*
G02*
X190836334Y-99076999I0J-101999D01*
G01*
X190836334Y-101177001D01*
G75*
G02*
X190734335Y-101279000I-101999J0D01*
G01*
G37*
G36*
G01*
X186234335Y-101279000D02*
X184834333Y-101279000D01*
G75*
G02*
X184732334Y-101177001I0J101999D01*
G01*
X184732334Y-99076999D01*
G75*
G02*
X184834333Y-98975000I101999J0D01*
G01*
X186234335Y-98975000D01*
G75*
G02*
X186336334Y-99076999I0J-101999D01*
G01*
X186336334Y-101177001D01*
G75*
G02*
X186234335Y-101279000I-101999J0D01*
G01*
G37*
G36*
G01*
X186234335Y-92179000D02*
X184834333Y-92179000D01*
G75*
G02*
X184732334Y-92077001I0J101999D01*
G01*
X184732334Y-89976999D01*
G75*
G02*
X184834333Y-89875000I101999J0D01*
G01*
X186234335Y-89875000D01*
G75*
G02*
X186336334Y-89976999I0J-101999D01*
G01*
X186336334Y-92077001D01*
G75*
G02*
X186234335Y-92179000I-101999J0D01*
G01*
G37*
G36*
G01*
X129312500Y-87875000D02*
X129312500Y-88425000D01*
G75*
G02*
X129112500Y-88625000I-200000J0D01*
G01*
X128712500Y-88625000D01*
G75*
G02*
X128512500Y-88425000I0J200000D01*
G01*
X128512500Y-87875000D01*
G75*
G02*
X128712500Y-87675000I200000J0D01*
G01*
X129112500Y-87675000D01*
G75*
G02*
X129312500Y-87875000I0J-200000D01*
G01*
G37*
G36*
G01*
X127662500Y-87875000D02*
X127662500Y-88425000D01*
G75*
G02*
X127462500Y-88625000I-200000J0D01*
G01*
X127062500Y-88625000D01*
G75*
G02*
X126862500Y-88425000I0J200000D01*
G01*
X126862500Y-87875000D01*
G75*
G02*
X127062500Y-87675000I200000J0D01*
G01*
X127462500Y-87675000D01*
G75*
G02*
X127662500Y-87875000I0J-200000D01*
G01*
G37*
G36*
G01*
X126882500Y-86806250D02*
X126882500Y-86293750D01*
G75*
G02*
X127101250Y-86075000I218750J0D01*
G01*
X127538750Y-86075000D01*
G75*
G02*
X127757500Y-86293750I0J-218750D01*
G01*
X127757500Y-86806250D01*
G75*
G02*
X127538750Y-87025000I-218750J0D01*
G01*
X127101250Y-87025000D01*
G75*
G02*
X126882500Y-86806250I0J218750D01*
G01*
G37*
G36*
G01*
X128457500Y-86806250D02*
X128457500Y-86293750D01*
G75*
G02*
X128676250Y-86075000I218750J0D01*
G01*
X129113750Y-86075000D01*
G75*
G02*
X129332500Y-86293750I0J-218750D01*
G01*
X129332500Y-86806250D01*
G75*
G02*
X129113750Y-87025000I-218750J0D01*
G01*
X128676250Y-87025000D01*
G75*
G02*
X128457500Y-86806250I0J218750D01*
G01*
G37*
G36*
G01*
X172299000Y-99685500D02*
X171749000Y-99685500D01*
G75*
G02*
X171549000Y-99485500I0J200000D01*
G01*
X171549000Y-99085500D01*
G75*
G02*
X171749000Y-98885500I200000J0D01*
G01*
X172299000Y-98885500D01*
G75*
G02*
X172499000Y-99085500I0J-200000D01*
G01*
X172499000Y-99485500D01*
G75*
G02*
X172299000Y-99685500I-200000J0D01*
G01*
G37*
G36*
G01*
X172299000Y-98035500D02*
X171749000Y-98035500D01*
G75*
G02*
X171549000Y-97835500I0J200000D01*
G01*
X171549000Y-97435500D01*
G75*
G02*
X171749000Y-97235500I200000J0D01*
G01*
X172299000Y-97235500D01*
G75*
G02*
X172499000Y-97435500I0J-200000D01*
G01*
X172499000Y-97835500D01*
G75*
G02*
X172299000Y-98035500I-200000J0D01*
G01*
G37*
G36*
G01*
X174052000Y-99685500D02*
X173552000Y-99685500D01*
G75*
G02*
X173327000Y-99460500I0J225000D01*
G01*
X173327000Y-99010500D01*
G75*
G02*
X173552000Y-98785500I225000J0D01*
G01*
X174052000Y-98785500D01*
G75*
G02*
X174277000Y-99010500I0J-225000D01*
G01*
X174277000Y-99460500D01*
G75*
G02*
X174052000Y-99685500I-225000J0D01*
G01*
G37*
G36*
G01*
X174052000Y-98135500D02*
X173552000Y-98135500D01*
G75*
G02*
X173327000Y-97910500I0J225000D01*
G01*
X173327000Y-97460500D01*
G75*
G02*
X173552000Y-97235500I225000J0D01*
G01*
X174052000Y-97235500D01*
G75*
G02*
X174277000Y-97460500I0J-225000D01*
G01*
X174277000Y-97910500D01*
G75*
G02*
X174052000Y-98135500I-225000J0D01*
G01*
G37*
G36*
G01*
X136835000Y-93705000D02*
X136285000Y-93705000D01*
G75*
G02*
X136085000Y-93505000I0J200000D01*
G01*
X136085000Y-93105000D01*
G75*
G02*
X136285000Y-92905000I200000J0D01*
G01*
X136835000Y-92905000D01*
G75*
G02*
X137035000Y-93105000I0J-200000D01*
G01*
X137035000Y-93505000D01*
G75*
G02*
X136835000Y-93705000I-200000J0D01*
G01*
G37*
G36*
G01*
X136835000Y-92055000D02*
X136285000Y-92055000D01*
G75*
G02*
X136085000Y-91855000I0J200000D01*
G01*
X136085000Y-91455000D01*
G75*
G02*
X136285000Y-91255000I200000J0D01*
G01*
X136835000Y-91255000D01*
G75*
G02*
X137035000Y-91455000I0J-200000D01*
G01*
X137035000Y-91855000D01*
G75*
G02*
X136835000Y-92055000I-200000J0D01*
G01*
G37*
G36*
G01*
X133150000Y-91225000D02*
X133650000Y-91225000D01*
G75*
G02*
X133875000Y-91450000I0J-225000D01*
G01*
X133875000Y-91900000D01*
G75*
G02*
X133650000Y-92125000I-225000J0D01*
G01*
X133150000Y-92125000D01*
G75*
G02*
X132925000Y-91900000I0J225000D01*
G01*
X132925000Y-91450000D01*
G75*
G02*
X133150000Y-91225000I225000J0D01*
G01*
G37*
G36*
G01*
X133150000Y-92775000D02*
X133650000Y-92775000D01*
G75*
G02*
X133875000Y-93000000I0J-225000D01*
G01*
X133875000Y-93450000D01*
G75*
G02*
X133650000Y-93675000I-225000J0D01*
G01*
X133150000Y-93675000D01*
G75*
G02*
X132925000Y-93450000I0J225000D01*
G01*
X132925000Y-93000000D01*
G75*
G02*
X133150000Y-92775000I225000J0D01*
G01*
G37*
G36*
G01*
X183455000Y-92050000D02*
X182905000Y-92050000D01*
G75*
G02*
X182705000Y-91850000I0J200000D01*
G01*
X182705000Y-91450000D01*
G75*
G02*
X182905000Y-91250000I200000J0D01*
G01*
X183455000Y-91250000D01*
G75*
G02*
X183655000Y-91450000I0J-200000D01*
G01*
X183655000Y-91850000D01*
G75*
G02*
X183455000Y-92050000I-200000J0D01*
G01*
G37*
G36*
G01*
X183455000Y-90400000D02*
X182905000Y-90400000D01*
G75*
G02*
X182705000Y-90200000I0J200000D01*
G01*
X182705000Y-89800000D01*
G75*
G02*
X182905000Y-89600000I200000J0D01*
G01*
X183455000Y-89600000D01*
G75*
G02*
X183655000Y-89800000I0J-200000D01*
G01*
X183655000Y-90200000D01*
G75*
G02*
X183455000Y-90400000I-200000J0D01*
G01*
G37*
G36*
G01*
X182905000Y-92660500D02*
X183455000Y-92660500D01*
G75*
G02*
X183655000Y-92860500I0J-200000D01*
G01*
X183655000Y-93260500D01*
G75*
G02*
X183455000Y-93460500I-200000J0D01*
G01*
X182905000Y-93460500D01*
G75*
G02*
X182705000Y-93260500I0J200000D01*
G01*
X182705000Y-92860500D01*
G75*
G02*
X182905000Y-92660500I200000J0D01*
G01*
G37*
G36*
G01*
X182905000Y-94310500D02*
X183455000Y-94310500D01*
G75*
G02*
X183655000Y-94510500I0J-200000D01*
G01*
X183655000Y-94910500D01*
G75*
G02*
X183455000Y-95110500I-200000J0D01*
G01*
X182905000Y-95110500D01*
G75*
G02*
X182705000Y-94910500I0J200000D01*
G01*
X182705000Y-94510500D01*
G75*
G02*
X182905000Y-94310500I200000J0D01*
G01*
G37*
D15*
X180940000Y-98140500D03*
D16*
X180940000Y-95600500D03*
X180940000Y-93060500D03*
X180940000Y-90520500D03*
D15*
X180940000Y-86388250D03*
D16*
X183480000Y-86388250D03*
X186020000Y-86388250D03*
X188560000Y-86388250D03*
G36*
G01*
X129102000Y-95139999D02*
X129102000Y-96440001D01*
G75*
G02*
X129000001Y-96542000I-101999J0D01*
G01*
X127099999Y-96542000D01*
G75*
G02*
X126998000Y-96440001I0J101999D01*
G01*
X126998000Y-95139999D01*
G75*
G02*
X127099999Y-95038000I101999J0D01*
G01*
X129000001Y-95038000D01*
G75*
G02*
X129102000Y-95139999I0J-101999D01*
G01*
G37*
G36*
G01*
X129102000Y-89639999D02*
X129102000Y-90940001D01*
G75*
G02*
X129000001Y-91042000I-101999J0D01*
G01*
X127099999Y-91042000D01*
G75*
G02*
X126998000Y-90940001I0J101999D01*
G01*
X126998000Y-89639999D01*
G75*
G02*
X127099999Y-89538000I101999J0D01*
G01*
X129000001Y-89538000D01*
G75*
G02*
X129102000Y-89639999I0J-101999D01*
G01*
G37*
G36*
G01*
X125902000Y-89639999D02*
X125902000Y-90940001D01*
G75*
G02*
X125800001Y-91042000I-101999J0D01*
G01*
X123899999Y-91042000D01*
G75*
G02*
X123798000Y-90940001I0J101999D01*
G01*
X123798000Y-89639999D01*
G75*
G02*
X123899999Y-89538000I101999J0D01*
G01*
X125800001Y-89538000D01*
G75*
G02*
X125902000Y-89639999I0J-101999D01*
G01*
G37*
G36*
G01*
X125902000Y-95139999D02*
X125902000Y-96440001D01*
G75*
G02*
X125800001Y-96542000I-101999J0D01*
G01*
X123899999Y-96542000D01*
G75*
G02*
X123798000Y-96440001I0J101999D01*
G01*
X123798000Y-95139999D01*
G75*
G02*
X123899999Y-95038000I101999J0D01*
G01*
X125800001Y-95038000D01*
G75*
G02*
X125902000Y-95139999I0J-101999D01*
G01*
G37*
D17*
X122010000Y-102190000D03*
X125710000Y-102190000D03*
D18*
X152528000Y-86660000D03*
D19*
X153958000Y-90310000D03*
D18*
X161168000Y-86660000D03*
D19*
X159738000Y-90310000D03*
D20*
X161168000Y-90840000D03*
X152528000Y-90840000D03*
D21*
X157098000Y-91755000D03*
X155098000Y-91755000D03*
X155598000Y-91755000D03*
X156098000Y-91755000D03*
X156598000Y-91755000D03*
X157598000Y-91755000D03*
X158098000Y-91755000D03*
X158598000Y-91755000D03*
D22*
X153598000Y-91755000D03*
X154398000Y-91755000D03*
X159298000Y-91755000D03*
X160098000Y-91755000D03*
X160098000Y-91755000D03*
X159298000Y-91755000D03*
X154398000Y-91755000D03*
X153598000Y-91755000D03*
G36*
G01*
X140998750Y-91930000D02*
X140998750Y-91380000D01*
G75*
G02*
X141198750Y-91180000I200000J0D01*
G01*
X141598750Y-91180000D01*
G75*
G02*
X141798750Y-91380000I0J-200000D01*
G01*
X141798750Y-91930000D01*
G75*
G02*
X141598750Y-92130000I-200000J0D01*
G01*
X141198750Y-92130000D01*
G75*
G02*
X140998750Y-91930000I0J200000D01*
G01*
G37*
G36*
G01*
X142648750Y-91930000D02*
X142648750Y-91380000D01*
G75*
G02*
X142848750Y-91180000I200000J0D01*
G01*
X143248750Y-91180000D01*
G75*
G02*
X143448750Y-91380000I0J-200000D01*
G01*
X143448750Y-91930000D01*
G75*
G02*
X143248750Y-92130000I-200000J0D01*
G01*
X142848750Y-92130000D01*
G75*
G02*
X142648750Y-91930000I0J200000D01*
G01*
G37*
D15*
X131150000Y-89090000D03*
D16*
X131150000Y-86550000D03*
X133690000Y-89090000D03*
X133690000Y-86550000D03*
X136230000Y-89090000D03*
X136230000Y-86550000D03*
X138770000Y-89090000D03*
X138770000Y-86550000D03*
X141310000Y-89090000D03*
X141310000Y-86550000D03*
G36*
G01*
X131360000Y-93240000D02*
X131860000Y-93240000D01*
G75*
G02*
X132085000Y-93465000I0J-225000D01*
G01*
X132085000Y-93915000D01*
G75*
G02*
X131860000Y-94140000I-225000J0D01*
G01*
X131360000Y-94140000D01*
G75*
G02*
X131135000Y-93915000I0J225000D01*
G01*
X131135000Y-93465000D01*
G75*
G02*
X131360000Y-93240000I225000J0D01*
G01*
G37*
G36*
G01*
X131360000Y-94790000D02*
X131860000Y-94790000D01*
G75*
G02*
X132085000Y-95015000I0J-225000D01*
G01*
X132085000Y-95465000D01*
G75*
G02*
X131860000Y-95690000I-225000J0D01*
G01*
X131360000Y-95690000D01*
G75*
G02*
X131135000Y-95465000I0J225000D01*
G01*
X131135000Y-95015000D01*
G75*
G02*
X131360000Y-94790000I225000J0D01*
G01*
G37*
G36*
G01*
X128195000Y-100360000D02*
X128195000Y-99860000D01*
G75*
G02*
X128420000Y-99635000I225000J0D01*
G01*
X128870000Y-99635000D01*
G75*
G02*
X129095000Y-99860000I0J-225000D01*
G01*
X129095000Y-100360000D01*
G75*
G02*
X128870000Y-100585000I-225000J0D01*
G01*
X128420000Y-100585000D01*
G75*
G02*
X128195000Y-100360000I0J225000D01*
G01*
G37*
G36*
G01*
X129745000Y-100360000D02*
X129745000Y-99860000D01*
G75*
G02*
X129970000Y-99635000I225000J0D01*
G01*
X130420000Y-99635000D01*
G75*
G02*
X130645000Y-99860000I0J-225000D01*
G01*
X130645000Y-100360000D01*
G75*
G02*
X130420000Y-100585000I-225000J0D01*
G01*
X129970000Y-100585000D01*
G75*
G02*
X129745000Y-100360000I0J225000D01*
G01*
G37*
G36*
G01*
X123716570Y-110466000D02*
X124216570Y-110466000D01*
G75*
G02*
X124441570Y-110691000I0J-225000D01*
G01*
X124441570Y-111141000D01*
G75*
G02*
X124216570Y-111366000I-225000J0D01*
G01*
X123716570Y-111366000D01*
G75*
G02*
X123491570Y-111141000I0J225000D01*
G01*
X123491570Y-110691000D01*
G75*
G02*
X123716570Y-110466000I225000J0D01*
G01*
G37*
G36*
G01*
X123716570Y-112016000D02*
X124216570Y-112016000D01*
G75*
G02*
X124441570Y-112241000I0J-225000D01*
G01*
X124441570Y-112691000D01*
G75*
G02*
X124216570Y-112916000I-225000J0D01*
G01*
X123716570Y-112916000D01*
G75*
G02*
X123491570Y-112691000I0J225000D01*
G01*
X123491570Y-112241000D01*
G75*
G02*
X123716570Y-112016000I225000J0D01*
G01*
G37*
D23*
X140250000Y-120720000D03*
X136630000Y-116820000D03*
X133060000Y-117470000D03*
X138950000Y-119420000D03*
X137740000Y-118120000D03*
X135400000Y-120070000D03*
X134270000Y-118770000D03*
X131850000Y-116170000D03*
X136400000Y-104820000D03*
G36*
G01*
X144190000Y-91930000D02*
X144190000Y-91380000D01*
G75*
G02*
X144390000Y-91180000I200000J0D01*
G01*
X144790000Y-91180000D01*
G75*
G02*
X144990000Y-91380000I0J-200000D01*
G01*
X144990000Y-91930000D01*
G75*
G02*
X144790000Y-92130000I-200000J0D01*
G01*
X144390000Y-92130000D01*
G75*
G02*
X144190000Y-91930000I0J200000D01*
G01*
G37*
G36*
G01*
X145840000Y-91930000D02*
X145840000Y-91380000D01*
G75*
G02*
X146040000Y-91180000I200000J0D01*
G01*
X146440000Y-91180000D01*
G75*
G02*
X146640000Y-91380000I0J-200000D01*
G01*
X146640000Y-91930000D01*
G75*
G02*
X146440000Y-92130000I-200000J0D01*
G01*
X146040000Y-92130000D01*
G75*
G02*
X145840000Y-91930000I0J200000D01*
G01*
G37*
D24*
X127926000Y-114195000D03*
X127926000Y-115145000D03*
X127926000Y-116095000D03*
X130126000Y-116095000D03*
X130126000Y-114195000D03*
X124051238Y-114195000D03*
X124051238Y-115145000D03*
X124051238Y-116095000D03*
X126251238Y-116095000D03*
X126251238Y-114195000D03*
X120176476Y-114195000D03*
X120176476Y-115145000D03*
X120176476Y-116095000D03*
X122376476Y-116095000D03*
X122376476Y-114195000D03*
X116301714Y-114195000D03*
X116301714Y-115145000D03*
X116301714Y-116095000D03*
X118501714Y-116095000D03*
X118501714Y-114195000D03*
G36*
G01*
X131250000Y-96475000D02*
X131250000Y-96325000D01*
G75*
G02*
X131325000Y-96250000I75000J0D01*
G01*
X132650000Y-96250000D01*
G75*
G02*
X132725000Y-96325000I0J-75000D01*
G01*
X132725000Y-96475000D01*
G75*
G02*
X132650000Y-96550000I-75000J0D01*
G01*
X131325000Y-96550000D01*
G75*
G02*
X131250000Y-96475000I0J75000D01*
G01*
G37*
G36*
G01*
X131250000Y-96975000D02*
X131250000Y-96825000D01*
G75*
G02*
X131325000Y-96750000I75000J0D01*
G01*
X132650000Y-96750000D01*
G75*
G02*
X132725000Y-96825000I0J-75000D01*
G01*
X132725000Y-96975000D01*
G75*
G02*
X132650000Y-97050000I-75000J0D01*
G01*
X131325000Y-97050000D01*
G75*
G02*
X131250000Y-96975000I0J75000D01*
G01*
G37*
G36*
G01*
X131250000Y-97475000D02*
X131250000Y-97325000D01*
G75*
G02*
X131325000Y-97250000I75000J0D01*
G01*
X132650000Y-97250000D01*
G75*
G02*
X132725000Y-97325000I0J-75000D01*
G01*
X132725000Y-97475000D01*
G75*
G02*
X132650000Y-97550000I-75000J0D01*
G01*
X131325000Y-97550000D01*
G75*
G02*
X131250000Y-97475000I0J75000D01*
G01*
G37*
G36*
G01*
X131250000Y-97975000D02*
X131250000Y-97825000D01*
G75*
G02*
X131325000Y-97750000I75000J0D01*
G01*
X132650000Y-97750000D01*
G75*
G02*
X132725000Y-97825000I0J-75000D01*
G01*
X132725000Y-97975000D01*
G75*
G02*
X132650000Y-98050000I-75000J0D01*
G01*
X131325000Y-98050000D01*
G75*
G02*
X131250000Y-97975000I0J75000D01*
G01*
G37*
G36*
G01*
X131250000Y-98475000D02*
X131250000Y-98325000D01*
G75*
G02*
X131325000Y-98250000I75000J0D01*
G01*
X132650000Y-98250000D01*
G75*
G02*
X132725000Y-98325000I0J-75000D01*
G01*
X132725000Y-98475000D01*
G75*
G02*
X132650000Y-98550000I-75000J0D01*
G01*
X131325000Y-98550000D01*
G75*
G02*
X131250000Y-98475000I0J75000D01*
G01*
G37*
G36*
G01*
X131250000Y-98975000D02*
X131250000Y-98825000D01*
G75*
G02*
X131325000Y-98750000I75000J0D01*
G01*
X132650000Y-98750000D01*
G75*
G02*
X132725000Y-98825000I0J-75000D01*
G01*
X132725000Y-98975000D01*
G75*
G02*
X132650000Y-99050000I-75000J0D01*
G01*
X131325000Y-99050000D01*
G75*
G02*
X131250000Y-98975000I0J75000D01*
G01*
G37*
G36*
G01*
X131250000Y-99475000D02*
X131250000Y-99325000D01*
G75*
G02*
X131325000Y-99250000I75000J0D01*
G01*
X132650000Y-99250000D01*
G75*
G02*
X132725000Y-99325000I0J-75000D01*
G01*
X132725000Y-99475000D01*
G75*
G02*
X132650000Y-99550000I-75000J0D01*
G01*
X131325000Y-99550000D01*
G75*
G02*
X131250000Y-99475000I0J75000D01*
G01*
G37*
G36*
G01*
X131250000Y-99975000D02*
X131250000Y-99825000D01*
G75*
G02*
X131325000Y-99750000I75000J0D01*
G01*
X132650000Y-99750000D01*
G75*
G02*
X132725000Y-99825000I0J-75000D01*
G01*
X132725000Y-99975000D01*
G75*
G02*
X132650000Y-100050000I-75000J0D01*
G01*
X131325000Y-100050000D01*
G75*
G02*
X131250000Y-99975000I0J75000D01*
G01*
G37*
G36*
G01*
X131250000Y-100475000D02*
X131250000Y-100325000D01*
G75*
G02*
X131325000Y-100250000I75000J0D01*
G01*
X132650000Y-100250000D01*
G75*
G02*
X132725000Y-100325000I0J-75000D01*
G01*
X132725000Y-100475000D01*
G75*
G02*
X132650000Y-100550000I-75000J0D01*
G01*
X131325000Y-100550000D01*
G75*
G02*
X131250000Y-100475000I0J75000D01*
G01*
G37*
G36*
G01*
X131250000Y-100975000D02*
X131250000Y-100825000D01*
G75*
G02*
X131325000Y-100750000I75000J0D01*
G01*
X132650000Y-100750000D01*
G75*
G02*
X132725000Y-100825000I0J-75000D01*
G01*
X132725000Y-100975000D01*
G75*
G02*
X132650000Y-101050000I-75000J0D01*
G01*
X131325000Y-101050000D01*
G75*
G02*
X131250000Y-100975000I0J75000D01*
G01*
G37*
G36*
G01*
X131250000Y-101475000D02*
X131250000Y-101325000D01*
G75*
G02*
X131325000Y-101250000I75000J0D01*
G01*
X132650000Y-101250000D01*
G75*
G02*
X132725000Y-101325000I0J-75000D01*
G01*
X132725000Y-101475000D01*
G75*
G02*
X132650000Y-101550000I-75000J0D01*
G01*
X131325000Y-101550000D01*
G75*
G02*
X131250000Y-101475000I0J75000D01*
G01*
G37*
G36*
G01*
X131250000Y-101975000D02*
X131250000Y-101825000D01*
G75*
G02*
X131325000Y-101750000I75000J0D01*
G01*
X132650000Y-101750000D01*
G75*
G02*
X132725000Y-101825000I0J-75000D01*
G01*
X132725000Y-101975000D01*
G75*
G02*
X132650000Y-102050000I-75000J0D01*
G01*
X131325000Y-102050000D01*
G75*
G02*
X131250000Y-101975000I0J75000D01*
G01*
G37*
G36*
G01*
X133250000Y-103975000D02*
X133250000Y-102650000D01*
G75*
G02*
X133325000Y-102575000I75000J0D01*
G01*
X133475000Y-102575000D01*
G75*
G02*
X133550000Y-102650000I0J-75000D01*
G01*
X133550000Y-103975000D01*
G75*
G02*
X133475000Y-104050000I-75000J0D01*
G01*
X133325000Y-104050000D01*
G75*
G02*
X133250000Y-103975000I0J75000D01*
G01*
G37*
G36*
G01*
X133750000Y-103975000D02*
X133750000Y-102650000D01*
G75*
G02*
X133825000Y-102575000I75000J0D01*
G01*
X133975000Y-102575000D01*
G75*
G02*
X134050000Y-102650000I0J-75000D01*
G01*
X134050000Y-103975000D01*
G75*
G02*
X133975000Y-104050000I-75000J0D01*
G01*
X133825000Y-104050000D01*
G75*
G02*
X133750000Y-103975000I0J75000D01*
G01*
G37*
G36*
G01*
X134250000Y-103975000D02*
X134250000Y-102650000D01*
G75*
G02*
X134325000Y-102575000I75000J0D01*
G01*
X134475000Y-102575000D01*
G75*
G02*
X134550000Y-102650000I0J-75000D01*
G01*
X134550000Y-103975000D01*
G75*
G02*
X134475000Y-104050000I-75000J0D01*
G01*
X134325000Y-104050000D01*
G75*
G02*
X134250000Y-103975000I0J75000D01*
G01*
G37*
G36*
G01*
X134750000Y-103975000D02*
X134750000Y-102650000D01*
G75*
G02*
X134825000Y-102575000I75000J0D01*
G01*
X134975000Y-102575000D01*
G75*
G02*
X135050000Y-102650000I0J-75000D01*
G01*
X135050000Y-103975000D01*
G75*
G02*
X134975000Y-104050000I-75000J0D01*
G01*
X134825000Y-104050000D01*
G75*
G02*
X134750000Y-103975000I0J75000D01*
G01*
G37*
G36*
G01*
X135250000Y-103975000D02*
X135250000Y-102650000D01*
G75*
G02*
X135325000Y-102575000I75000J0D01*
G01*
X135475000Y-102575000D01*
G75*
G02*
X135550000Y-102650000I0J-75000D01*
G01*
X135550000Y-103975000D01*
G75*
G02*
X135475000Y-104050000I-75000J0D01*
G01*
X135325000Y-104050000D01*
G75*
G02*
X135250000Y-103975000I0J75000D01*
G01*
G37*
G36*
G01*
X135750000Y-103975000D02*
X135750000Y-102650000D01*
G75*
G02*
X135825000Y-102575000I75000J0D01*
G01*
X135975000Y-102575000D01*
G75*
G02*
X136050000Y-102650000I0J-75000D01*
G01*
X136050000Y-103975000D01*
G75*
G02*
X135975000Y-104050000I-75000J0D01*
G01*
X135825000Y-104050000D01*
G75*
G02*
X135750000Y-103975000I0J75000D01*
G01*
G37*
G36*
G01*
X136250000Y-103975000D02*
X136250000Y-102650000D01*
G75*
G02*
X136325000Y-102575000I75000J0D01*
G01*
X136475000Y-102575000D01*
G75*
G02*
X136550000Y-102650000I0J-75000D01*
G01*
X136550000Y-103975000D01*
G75*
G02*
X136475000Y-104050000I-75000J0D01*
G01*
X136325000Y-104050000D01*
G75*
G02*
X136250000Y-103975000I0J75000D01*
G01*
G37*
G36*
G01*
X136750000Y-103975000D02*
X136750000Y-102650000D01*
G75*
G02*
X136825000Y-102575000I75000J0D01*
G01*
X136975000Y-102575000D01*
G75*
G02*
X137050000Y-102650000I0J-75000D01*
G01*
X137050000Y-103975000D01*
G75*
G02*
X136975000Y-104050000I-75000J0D01*
G01*
X136825000Y-104050000D01*
G75*
G02*
X136750000Y-103975000I0J75000D01*
G01*
G37*
G36*
G01*
X137250000Y-103975000D02*
X137250000Y-102650000D01*
G75*
G02*
X137325000Y-102575000I75000J0D01*
G01*
X137475000Y-102575000D01*
G75*
G02*
X137550000Y-102650000I0J-75000D01*
G01*
X137550000Y-103975000D01*
G75*
G02*
X137475000Y-104050000I-75000J0D01*
G01*
X137325000Y-104050000D01*
G75*
G02*
X137250000Y-103975000I0J75000D01*
G01*
G37*
G36*
G01*
X137750000Y-103975000D02*
X137750000Y-102650000D01*
G75*
G02*
X137825000Y-102575000I75000J0D01*
G01*
X137975000Y-102575000D01*
G75*
G02*
X138050000Y-102650000I0J-75000D01*
G01*
X138050000Y-103975000D01*
G75*
G02*
X137975000Y-104050000I-75000J0D01*
G01*
X137825000Y-104050000D01*
G75*
G02*
X137750000Y-103975000I0J75000D01*
G01*
G37*
G36*
G01*
X138250000Y-103975000D02*
X138250000Y-102650000D01*
G75*
G02*
X138325000Y-102575000I75000J0D01*
G01*
X138475000Y-102575000D01*
G75*
G02*
X138550000Y-102650000I0J-75000D01*
G01*
X138550000Y-103975000D01*
G75*
G02*
X138475000Y-104050000I-75000J0D01*
G01*
X138325000Y-104050000D01*
G75*
G02*
X138250000Y-103975000I0J75000D01*
G01*
G37*
G36*
G01*
X138750000Y-103975000D02*
X138750000Y-102650000D01*
G75*
G02*
X138825000Y-102575000I75000J0D01*
G01*
X138975000Y-102575000D01*
G75*
G02*
X139050000Y-102650000I0J-75000D01*
G01*
X139050000Y-103975000D01*
G75*
G02*
X138975000Y-104050000I-75000J0D01*
G01*
X138825000Y-104050000D01*
G75*
G02*
X138750000Y-103975000I0J75000D01*
G01*
G37*
G36*
G01*
X139575000Y-101975000D02*
X139575000Y-101825000D01*
G75*
G02*
X139650000Y-101750000I75000J0D01*
G01*
X140975000Y-101750000D01*
G75*
G02*
X141050000Y-101825000I0J-75000D01*
G01*
X141050000Y-101975000D01*
G75*
G02*
X140975000Y-102050000I-75000J0D01*
G01*
X139650000Y-102050000D01*
G75*
G02*
X139575000Y-101975000I0J75000D01*
G01*
G37*
G36*
G01*
X139575000Y-101475000D02*
X139575000Y-101325000D01*
G75*
G02*
X139650000Y-101250000I75000J0D01*
G01*
X140975000Y-101250000D01*
G75*
G02*
X141050000Y-101325000I0J-75000D01*
G01*
X141050000Y-101475000D01*
G75*
G02*
X140975000Y-101550000I-75000J0D01*
G01*
X139650000Y-101550000D01*
G75*
G02*
X139575000Y-101475000I0J75000D01*
G01*
G37*
G36*
G01*
X139575000Y-100975000D02*
X139575000Y-100825000D01*
G75*
G02*
X139650000Y-100750000I75000J0D01*
G01*
X140975000Y-100750000D01*
G75*
G02*
X141050000Y-100825000I0J-75000D01*
G01*
X141050000Y-100975000D01*
G75*
G02*
X140975000Y-101050000I-75000J0D01*
G01*
X139650000Y-101050000D01*
G75*
G02*
X139575000Y-100975000I0J75000D01*
G01*
G37*
G36*
G01*
X139575000Y-100475000D02*
X139575000Y-100325000D01*
G75*
G02*
X139650000Y-100250000I75000J0D01*
G01*
X140975000Y-100250000D01*
G75*
G02*
X141050000Y-100325000I0J-75000D01*
G01*
X141050000Y-100475000D01*
G75*
G02*
X140975000Y-100550000I-75000J0D01*
G01*
X139650000Y-100550000D01*
G75*
G02*
X139575000Y-100475000I0J75000D01*
G01*
G37*
G36*
G01*
X139575000Y-99975000D02*
X139575000Y-99825000D01*
G75*
G02*
X139650000Y-99750000I75000J0D01*
G01*
X140975000Y-99750000D01*
G75*
G02*
X141050000Y-99825000I0J-75000D01*
G01*
X141050000Y-99975000D01*
G75*
G02*
X140975000Y-100050000I-75000J0D01*
G01*
X139650000Y-100050000D01*
G75*
G02*
X139575000Y-99975000I0J75000D01*
G01*
G37*
G36*
G01*
X139575000Y-99475000D02*
X139575000Y-99325000D01*
G75*
G02*
X139650000Y-99250000I75000J0D01*
G01*
X140975000Y-99250000D01*
G75*
G02*
X141050000Y-99325000I0J-75000D01*
G01*
X141050000Y-99475000D01*
G75*
G02*
X140975000Y-99550000I-75000J0D01*
G01*
X139650000Y-99550000D01*
G75*
G02*
X139575000Y-99475000I0J75000D01*
G01*
G37*
G36*
G01*
X139575000Y-98975000D02*
X139575000Y-98825000D01*
G75*
G02*
X139650000Y-98750000I75000J0D01*
G01*
X140975000Y-98750000D01*
G75*
G02*
X141050000Y-98825000I0J-75000D01*
G01*
X141050000Y-98975000D01*
G75*
G02*
X140975000Y-99050000I-75000J0D01*
G01*
X139650000Y-99050000D01*
G75*
G02*
X139575000Y-98975000I0J75000D01*
G01*
G37*
G36*
G01*
X139575000Y-98475000D02*
X139575000Y-98325000D01*
G75*
G02*
X139650000Y-98250000I75000J0D01*
G01*
X140975000Y-98250000D01*
G75*
G02*
X141050000Y-98325000I0J-75000D01*
G01*
X141050000Y-98475000D01*
G75*
G02*
X140975000Y-98550000I-75000J0D01*
G01*
X139650000Y-98550000D01*
G75*
G02*
X139575000Y-98475000I0J75000D01*
G01*
G37*
G36*
G01*
X139575000Y-97975000D02*
X139575000Y-97825000D01*
G75*
G02*
X139650000Y-97750000I75000J0D01*
G01*
X140975000Y-97750000D01*
G75*
G02*
X141050000Y-97825000I0J-75000D01*
G01*
X141050000Y-97975000D01*
G75*
G02*
X140975000Y-98050000I-75000J0D01*
G01*
X139650000Y-98050000D01*
G75*
G02*
X139575000Y-97975000I0J75000D01*
G01*
G37*
G36*
G01*
X139575000Y-97475000D02*
X139575000Y-97325000D01*
G75*
G02*
X139650000Y-97250000I75000J0D01*
G01*
X140975000Y-97250000D01*
G75*
G02*
X141050000Y-97325000I0J-75000D01*
G01*
X141050000Y-97475000D01*
G75*
G02*
X140975000Y-97550000I-75000J0D01*
G01*
X139650000Y-97550000D01*
G75*
G02*
X139575000Y-97475000I0J75000D01*
G01*
G37*
G36*
G01*
X139575000Y-96975000D02*
X139575000Y-96825000D01*
G75*
G02*
X139650000Y-96750000I75000J0D01*
G01*
X140975000Y-96750000D01*
G75*
G02*
X141050000Y-96825000I0J-75000D01*
G01*
X141050000Y-96975000D01*
G75*
G02*
X140975000Y-97050000I-75000J0D01*
G01*
X139650000Y-97050000D01*
G75*
G02*
X139575000Y-96975000I0J75000D01*
G01*
G37*
G36*
G01*
X139575000Y-96475000D02*
X139575000Y-96325000D01*
G75*
G02*
X139650000Y-96250000I75000J0D01*
G01*
X140975000Y-96250000D01*
G75*
G02*
X141050000Y-96325000I0J-75000D01*
G01*
X141050000Y-96475000D01*
G75*
G02*
X140975000Y-96550000I-75000J0D01*
G01*
X139650000Y-96550000D01*
G75*
G02*
X139575000Y-96475000I0J75000D01*
G01*
G37*
G36*
G01*
X138750000Y-95650000D02*
X138750000Y-94325000D01*
G75*
G02*
X138825000Y-94250000I75000J0D01*
G01*
X138975000Y-94250000D01*
G75*
G02*
X139050000Y-94325000I0J-75000D01*
G01*
X139050000Y-95650000D01*
G75*
G02*
X138975000Y-95725000I-75000J0D01*
G01*
X138825000Y-95725000D01*
G75*
G02*
X138750000Y-95650000I0J75000D01*
G01*
G37*
G36*
G01*
X138250000Y-95650000D02*
X138250000Y-94325000D01*
G75*
G02*
X138325000Y-94250000I75000J0D01*
G01*
X138475000Y-94250000D01*
G75*
G02*
X138550000Y-94325000I0J-75000D01*
G01*
X138550000Y-95650000D01*
G75*
G02*
X138475000Y-95725000I-75000J0D01*
G01*
X138325000Y-95725000D01*
G75*
G02*
X138250000Y-95650000I0J75000D01*
G01*
G37*
G36*
G01*
X137750000Y-95650000D02*
X137750000Y-94325000D01*
G75*
G02*
X137825000Y-94250000I75000J0D01*
G01*
X137975000Y-94250000D01*
G75*
G02*
X138050000Y-94325000I0J-75000D01*
G01*
X138050000Y-95650000D01*
G75*
G02*
X137975000Y-95725000I-75000J0D01*
G01*
X137825000Y-95725000D01*
G75*
G02*
X137750000Y-95650000I0J75000D01*
G01*
G37*
G36*
G01*
X137250000Y-95650000D02*
X137250000Y-94325000D01*
G75*
G02*
X137325000Y-94250000I75000J0D01*
G01*
X137475000Y-94250000D01*
G75*
G02*
X137550000Y-94325000I0J-75000D01*
G01*
X137550000Y-95650000D01*
G75*
G02*
X137475000Y-95725000I-75000J0D01*
G01*
X137325000Y-95725000D01*
G75*
G02*
X137250000Y-95650000I0J75000D01*
G01*
G37*
G36*
G01*
X136750000Y-95650000D02*
X136750000Y-94325000D01*
G75*
G02*
X136825000Y-94250000I75000J0D01*
G01*
X136975000Y-94250000D01*
G75*
G02*
X137050000Y-94325000I0J-75000D01*
G01*
X137050000Y-95650000D01*
G75*
G02*
X136975000Y-95725000I-75000J0D01*
G01*
X136825000Y-95725000D01*
G75*
G02*
X136750000Y-95650000I0J75000D01*
G01*
G37*
G36*
G01*
X136250000Y-95650000D02*
X136250000Y-94325000D01*
G75*
G02*
X136325000Y-94250000I75000J0D01*
G01*
X136475000Y-94250000D01*
G75*
G02*
X136550000Y-94325000I0J-75000D01*
G01*
X136550000Y-95650000D01*
G75*
G02*
X136475000Y-95725000I-75000J0D01*
G01*
X136325000Y-95725000D01*
G75*
G02*
X136250000Y-95650000I0J75000D01*
G01*
G37*
G36*
G01*
X135750000Y-95650000D02*
X135750000Y-94325000D01*
G75*
G02*
X135825000Y-94250000I75000J0D01*
G01*
X135975000Y-94250000D01*
G75*
G02*
X136050000Y-94325000I0J-75000D01*
G01*
X136050000Y-95650000D01*
G75*
G02*
X135975000Y-95725000I-75000J0D01*
G01*
X135825000Y-95725000D01*
G75*
G02*
X135750000Y-95650000I0J75000D01*
G01*
G37*
G36*
G01*
X135250000Y-95650000D02*
X135250000Y-94325000D01*
G75*
G02*
X135325000Y-94250000I75000J0D01*
G01*
X135475000Y-94250000D01*
G75*
G02*
X135550000Y-94325000I0J-75000D01*
G01*
X135550000Y-95650000D01*
G75*
G02*
X135475000Y-95725000I-75000J0D01*
G01*
X135325000Y-95725000D01*
G75*
G02*
X135250000Y-95650000I0J75000D01*
G01*
G37*
G36*
G01*
X134750000Y-95650000D02*
X134750000Y-94325000D01*
G75*
G02*
X134825000Y-94250000I75000J0D01*
G01*
X134975000Y-94250000D01*
G75*
G02*
X135050000Y-94325000I0J-75000D01*
G01*
X135050000Y-95650000D01*
G75*
G02*
X134975000Y-95725000I-75000J0D01*
G01*
X134825000Y-95725000D01*
G75*
G02*
X134750000Y-95650000I0J75000D01*
G01*
G37*
G36*
G01*
X134250000Y-95650000D02*
X134250000Y-94325000D01*
G75*
G02*
X134325000Y-94250000I75000J0D01*
G01*
X134475000Y-94250000D01*
G75*
G02*
X134550000Y-94325000I0J-75000D01*
G01*
X134550000Y-95650000D01*
G75*
G02*
X134475000Y-95725000I-75000J0D01*
G01*
X134325000Y-95725000D01*
G75*
G02*
X134250000Y-95650000I0J75000D01*
G01*
G37*
G36*
G01*
X133750000Y-95650000D02*
X133750000Y-94325000D01*
G75*
G02*
X133825000Y-94250000I75000J0D01*
G01*
X133975000Y-94250000D01*
G75*
G02*
X134050000Y-94325000I0J-75000D01*
G01*
X134050000Y-95650000D01*
G75*
G02*
X133975000Y-95725000I-75000J0D01*
G01*
X133825000Y-95725000D01*
G75*
G02*
X133750000Y-95650000I0J75000D01*
G01*
G37*
G36*
G01*
X133250000Y-95650000D02*
X133250000Y-94325000D01*
G75*
G02*
X133325000Y-94250000I75000J0D01*
G01*
X133475000Y-94250000D01*
G75*
G02*
X133550000Y-94325000I0J-75000D01*
G01*
X133550000Y-95650000D01*
G75*
G02*
X133475000Y-95725000I-75000J0D01*
G01*
X133325000Y-95725000D01*
G75*
G02*
X133250000Y-95650000I0J75000D01*
G01*
G37*
D25*
X165934000Y-90416000D03*
D26*
X172234000Y-90416000D03*
X172234000Y-88116000D03*
X172234000Y-92716000D03*
G36*
G01*
X161430000Y-93505000D02*
X161430000Y-94055000D01*
G75*
G02*
X161230000Y-94255000I-200000J0D01*
G01*
X160830000Y-94255000D01*
G75*
G02*
X160630000Y-94055000I0J200000D01*
G01*
X160630000Y-93505000D01*
G75*
G02*
X160830000Y-93305000I200000J0D01*
G01*
X161230000Y-93305000D01*
G75*
G02*
X161430000Y-93505000I0J-200000D01*
G01*
G37*
G36*
G01*
X159780000Y-93505000D02*
X159780000Y-94055000D01*
G75*
G02*
X159580000Y-94255000I-200000J0D01*
G01*
X159180000Y-94255000D01*
G75*
G02*
X158980000Y-94055000I0J200000D01*
G01*
X158980000Y-93505000D01*
G75*
G02*
X159180000Y-93305000I200000J0D01*
G01*
X159580000Y-93305000D01*
G75*
G02*
X159780000Y-93505000I0J-200000D01*
G01*
G37*
G36*
G01*
X152210000Y-94055000D02*
X152210000Y-93505000D01*
G75*
G02*
X152410000Y-93305000I200000J0D01*
G01*
X152810000Y-93305000D01*
G75*
G02*
X153010000Y-93505000I0J-200000D01*
G01*
X153010000Y-94055000D01*
G75*
G02*
X152810000Y-94255000I-200000J0D01*
G01*
X152410000Y-94255000D01*
G75*
G02*
X152210000Y-94055000I0J200000D01*
G01*
G37*
G36*
G01*
X153860000Y-94055000D02*
X153860000Y-93505000D01*
G75*
G02*
X154060000Y-93305000I200000J0D01*
G01*
X154460000Y-93305000D01*
G75*
G02*
X154660000Y-93505000I0J-200000D01*
G01*
X154660000Y-94055000D01*
G75*
G02*
X154460000Y-94255000I-200000J0D01*
G01*
X154060000Y-94255000D01*
G75*
G02*
X153860000Y-94055000I0J200000D01*
G01*
G37*
G36*
G01*
X153720000Y-97085000D02*
X153720000Y-96535000D01*
G75*
G02*
X153920000Y-96335000I200000J0D01*
G01*
X154320000Y-96335000D01*
G75*
G02*
X154520000Y-96535000I0J-200000D01*
G01*
X154520000Y-97085000D01*
G75*
G02*
X154320000Y-97285000I-200000J0D01*
G01*
X153920000Y-97285000D01*
G75*
G02*
X153720000Y-97085000I0J200000D01*
G01*
G37*
G36*
G01*
X155370000Y-97085000D02*
X155370000Y-96535000D01*
G75*
G02*
X155570000Y-96335000I200000J0D01*
G01*
X155970000Y-96335000D01*
G75*
G02*
X156170000Y-96535000I0J-200000D01*
G01*
X156170000Y-97085000D01*
G75*
G02*
X155970000Y-97285000I-200000J0D01*
G01*
X155570000Y-97285000D01*
G75*
G02*
X155370000Y-97085000I0J200000D01*
G01*
G37*
G36*
G01*
X155498000Y-93305000D02*
X156048000Y-93305000D01*
G75*
G02*
X156248000Y-93505000I0J-200000D01*
G01*
X156248000Y-93905000D01*
G75*
G02*
X156048000Y-94105000I-200000J0D01*
G01*
X155498000Y-94105000D01*
G75*
G02*
X155298000Y-93905000I0J200000D01*
G01*
X155298000Y-93505000D01*
G75*
G02*
X155498000Y-93305000I200000J0D01*
G01*
G37*
G36*
G01*
X155498000Y-94955000D02*
X156048000Y-94955000D01*
G75*
G02*
X156248000Y-95155000I0J-200000D01*
G01*
X156248000Y-95555000D01*
G75*
G02*
X156048000Y-95755000I-200000J0D01*
G01*
X155498000Y-95755000D01*
G75*
G02*
X155298000Y-95555000I0J200000D01*
G01*
X155298000Y-95155000D01*
G75*
G02*
X155498000Y-94955000I200000J0D01*
G01*
G37*
G36*
G01*
X157648000Y-93305000D02*
X158198000Y-93305000D01*
G75*
G02*
X158398000Y-93505000I0J-200000D01*
G01*
X158398000Y-93905000D01*
G75*
G02*
X158198000Y-94105000I-200000J0D01*
G01*
X157648000Y-94105000D01*
G75*
G02*
X157448000Y-93905000I0J200000D01*
G01*
X157448000Y-93505000D01*
G75*
G02*
X157648000Y-93305000I200000J0D01*
G01*
G37*
G36*
G01*
X157648000Y-94955000D02*
X158198000Y-94955000D01*
G75*
G02*
X158398000Y-95155000I0J-200000D01*
G01*
X158398000Y-95555000D01*
G75*
G02*
X158198000Y-95755000I-200000J0D01*
G01*
X157648000Y-95755000D01*
G75*
G02*
X157448000Y-95555000I0J200000D01*
G01*
X157448000Y-95155000D01*
G75*
G02*
X157648000Y-94955000I200000J0D01*
G01*
G37*
G36*
G01*
X134695000Y-91235000D02*
X135245000Y-91235000D01*
G75*
G02*
X135445000Y-91435000I0J-200000D01*
G01*
X135445000Y-91835000D01*
G75*
G02*
X135245000Y-92035000I-200000J0D01*
G01*
X134695000Y-92035000D01*
G75*
G02*
X134495000Y-91835000I0J200000D01*
G01*
X134495000Y-91435000D01*
G75*
G02*
X134695000Y-91235000I200000J0D01*
G01*
G37*
G36*
G01*
X134695000Y-92885000D02*
X135245000Y-92885000D01*
G75*
G02*
X135445000Y-93085000I0J-200000D01*
G01*
X135445000Y-93485000D01*
G75*
G02*
X135245000Y-93685000I-200000J0D01*
G01*
X134695000Y-93685000D01*
G75*
G02*
X134495000Y-93485000I0J200000D01*
G01*
X134495000Y-93085000D01*
G75*
G02*
X134695000Y-92885000I200000J0D01*
G01*
G37*
G36*
G01*
X178289000Y-99685500D02*
X177739000Y-99685500D01*
G75*
G02*
X177539000Y-99485500I0J200000D01*
G01*
X177539000Y-99085500D01*
G75*
G02*
X177739000Y-98885500I200000J0D01*
G01*
X178289000Y-98885500D01*
G75*
G02*
X178489000Y-99085500I0J-200000D01*
G01*
X178489000Y-99485500D01*
G75*
G02*
X178289000Y-99685500I-200000J0D01*
G01*
G37*
G36*
G01*
X178289000Y-98035500D02*
X177739000Y-98035500D01*
G75*
G02*
X177539000Y-97835500I0J200000D01*
G01*
X177539000Y-97435500D01*
G75*
G02*
X177739000Y-97235500I200000J0D01*
G01*
X178289000Y-97235500D01*
G75*
G02*
X178489000Y-97435500I0J-200000D01*
G01*
X178489000Y-97835500D01*
G75*
G02*
X178289000Y-98035500I-200000J0D01*
G01*
G37*
G36*
G01*
X125075000Y-99225000D02*
X125075000Y-99775000D01*
G75*
G02*
X124875000Y-99975000I-200000J0D01*
G01*
X124475000Y-99975000D01*
G75*
G02*
X124275000Y-99775000I0J200000D01*
G01*
X124275000Y-99225000D01*
G75*
G02*
X124475000Y-99025000I200000J0D01*
G01*
X124875000Y-99025000D01*
G75*
G02*
X125075000Y-99225000I0J-200000D01*
G01*
G37*
G36*
G01*
X123425000Y-99225000D02*
X123425000Y-99775000D01*
G75*
G02*
X123225000Y-99975000I-200000J0D01*
G01*
X122825000Y-99975000D01*
G75*
G02*
X122625000Y-99775000I0J200000D01*
G01*
X122625000Y-99225000D01*
G75*
G02*
X122825000Y-99025000I200000J0D01*
G01*
X123225000Y-99025000D01*
G75*
G02*
X123425000Y-99225000I0J-200000D01*
G01*
G37*
G36*
G01*
X127676000Y-110466000D02*
X128176000Y-110466000D01*
G75*
G02*
X128401000Y-110691000I0J-225000D01*
G01*
X128401000Y-111141000D01*
G75*
G02*
X128176000Y-111366000I-225000J0D01*
G01*
X127676000Y-111366000D01*
G75*
G02*
X127451000Y-111141000I0J225000D01*
G01*
X127451000Y-110691000D01*
G75*
G02*
X127676000Y-110466000I225000J0D01*
G01*
G37*
G36*
G01*
X127676000Y-112016000D02*
X128176000Y-112016000D01*
G75*
G02*
X128401000Y-112241000I0J-225000D01*
G01*
X128401000Y-112691000D01*
G75*
G02*
X128176000Y-112916000I-225000J0D01*
G01*
X127676000Y-112916000D01*
G75*
G02*
X127451000Y-112691000I0J225000D01*
G01*
X127451000Y-112241000D01*
G75*
G02*
X127676000Y-112016000I225000J0D01*
G01*
G37*
G36*
G01*
X140257500Y-91405000D02*
X140257500Y-91905000D01*
G75*
G02*
X140032500Y-92130000I-225000J0D01*
G01*
X139582500Y-92130000D01*
G75*
G02*
X139357500Y-91905000I0J225000D01*
G01*
X139357500Y-91405000D01*
G75*
G02*
X139582500Y-91180000I225000J0D01*
G01*
X140032500Y-91180000D01*
G75*
G02*
X140257500Y-91405000I0J-225000D01*
G01*
G37*
G36*
G01*
X138707500Y-91405000D02*
X138707500Y-91905000D01*
G75*
G02*
X138482500Y-92130000I-225000J0D01*
G01*
X138032500Y-92130000D01*
G75*
G02*
X137807500Y-91905000I0J225000D01*
G01*
X137807500Y-91405000D01*
G75*
G02*
X138032500Y-91180000I225000J0D01*
G01*
X138482500Y-91180000D01*
G75*
G02*
X138707500Y-91405000I0J-225000D01*
G01*
G37*
G36*
G01*
X119757142Y-110466000D02*
X120257142Y-110466000D01*
G75*
G02*
X120482142Y-110691000I0J-225000D01*
G01*
X120482142Y-111141000D01*
G75*
G02*
X120257142Y-111366000I-225000J0D01*
G01*
X119757142Y-111366000D01*
G75*
G02*
X119532142Y-111141000I0J225000D01*
G01*
X119532142Y-110691000D01*
G75*
G02*
X119757142Y-110466000I225000J0D01*
G01*
G37*
G36*
G01*
X119757142Y-112016000D02*
X120257142Y-112016000D01*
G75*
G02*
X120482142Y-112241000I0J-225000D01*
G01*
X120482142Y-112691000D01*
G75*
G02*
X120257142Y-112916000I-225000J0D01*
G01*
X119757142Y-112916000D01*
G75*
G02*
X119532142Y-112691000I0J225000D01*
G01*
X119532142Y-112241000D01*
G75*
G02*
X119757142Y-112016000I225000J0D01*
G01*
G37*
G36*
G01*
X142090000Y-103100000D02*
X142090000Y-103600000D01*
G75*
G02*
X141865000Y-103825000I-225000J0D01*
G01*
X141415000Y-103825000D01*
G75*
G02*
X141190000Y-103600000I0J225000D01*
G01*
X141190000Y-103100000D01*
G75*
G02*
X141415000Y-102875000I225000J0D01*
G01*
X141865000Y-102875000D01*
G75*
G02*
X142090000Y-103100000I0J-225000D01*
G01*
G37*
G36*
G01*
X140540000Y-103100000D02*
X140540000Y-103600000D01*
G75*
G02*
X140315000Y-103825000I-225000J0D01*
G01*
X139865000Y-103825000D01*
G75*
G02*
X139640000Y-103600000I0J225000D01*
G01*
X139640000Y-103100000D01*
G75*
G02*
X139865000Y-102875000I225000J0D01*
G01*
X140315000Y-102875000D01*
G75*
G02*
X140540000Y-103100000I0J-225000D01*
G01*
G37*
G36*
G01*
X144070000Y-95825000D02*
X144070000Y-96325000D01*
G75*
G02*
X143845000Y-96550000I-225000J0D01*
G01*
X143395000Y-96550000D01*
G75*
G02*
X143170000Y-96325000I0J225000D01*
G01*
X143170000Y-95825000D01*
G75*
G02*
X143395000Y-95600000I225000J0D01*
G01*
X143845000Y-95600000D01*
G75*
G02*
X144070000Y-95825000I0J-225000D01*
G01*
G37*
G36*
G01*
X142520000Y-95825000D02*
X142520000Y-96325000D01*
G75*
G02*
X142295000Y-96550000I-225000J0D01*
G01*
X141845000Y-96550000D01*
G75*
G02*
X141620000Y-96325000I0J225000D01*
G01*
X141620000Y-95825000D01*
G75*
G02*
X141845000Y-95600000I225000J0D01*
G01*
X142295000Y-95600000D01*
G75*
G02*
X142520000Y-95825000I0J-225000D01*
G01*
G37*
G36*
G01*
X116051714Y-110466000D02*
X116551714Y-110466000D01*
G75*
G02*
X116776714Y-110691000I0J-225000D01*
G01*
X116776714Y-111141000D01*
G75*
G02*
X116551714Y-111366000I-225000J0D01*
G01*
X116051714Y-111366000D01*
G75*
G02*
X115826714Y-111141000I0J225000D01*
G01*
X115826714Y-110691000D01*
G75*
G02*
X116051714Y-110466000I225000J0D01*
G01*
G37*
G36*
G01*
X116051714Y-112016000D02*
X116551714Y-112016000D01*
G75*
G02*
X116776714Y-112241000I0J-225000D01*
G01*
X116776714Y-112691000D01*
G75*
G02*
X116551714Y-112916000I-225000J0D01*
G01*
X116051714Y-112916000D01*
G75*
G02*
X115826714Y-112691000I0J225000D01*
G01*
X115826714Y-112241000D01*
G75*
G02*
X116051714Y-112016000I225000J0D01*
G01*
G37*
G36*
G01*
X176592000Y-99685500D02*
X176092000Y-99685500D01*
G75*
G02*
X175867000Y-99460500I0J225000D01*
G01*
X175867000Y-99010500D01*
G75*
G02*
X176092000Y-98785500I225000J0D01*
G01*
X176592000Y-98785500D01*
G75*
G02*
X176817000Y-99010500I0J-225000D01*
G01*
X176817000Y-99460500D01*
G75*
G02*
X176592000Y-99685500I-225000J0D01*
G01*
G37*
G36*
G01*
X176592000Y-98135500D02*
X176092000Y-98135500D01*
G75*
G02*
X175867000Y-97910500I0J225000D01*
G01*
X175867000Y-97460500D01*
G75*
G02*
X176092000Y-97235500I225000J0D01*
G01*
X176592000Y-97235500D01*
G75*
G02*
X176817000Y-97460500I0J-225000D01*
G01*
X176817000Y-97910500D01*
G75*
G02*
X176592000Y-98135500I-225000J0D01*
G01*
G37*
G36*
G01*
X128891000Y-103540000D02*
X128391000Y-103540000D01*
G75*
G02*
X128166000Y-103315000I0J225000D01*
G01*
X128166000Y-102865000D01*
G75*
G02*
X128391000Y-102640000I225000J0D01*
G01*
X128891000Y-102640000D01*
G75*
G02*
X129116000Y-102865000I0J-225000D01*
G01*
X129116000Y-103315000D01*
G75*
G02*
X128891000Y-103540000I-225000J0D01*
G01*
G37*
G36*
G01*
X128891000Y-101990000D02*
X128391000Y-101990000D01*
G75*
G02*
X128166000Y-101765000I0J225000D01*
G01*
X128166000Y-101315000D01*
G75*
G02*
X128391000Y-101090000I225000J0D01*
G01*
X128891000Y-101090000D01*
G75*
G02*
X129116000Y-101315000I0J-225000D01*
G01*
X129116000Y-101765000D01*
G75*
G02*
X128891000Y-101990000I-225000J0D01*
G01*
G37*
G36*
G01*
X123110000Y-96440000D02*
X122610000Y-96440000D01*
G75*
G02*
X122385000Y-96215000I0J225000D01*
G01*
X122385000Y-95765000D01*
G75*
G02*
X122610000Y-95540000I225000J0D01*
G01*
X123110000Y-95540000D01*
G75*
G02*
X123335000Y-95765000I0J-225000D01*
G01*
X123335000Y-96215000D01*
G75*
G02*
X123110000Y-96440000I-225000J0D01*
G01*
G37*
G36*
G01*
X123110000Y-94890000D02*
X122610000Y-94890000D01*
G75*
G02*
X122385000Y-94665000I0J225000D01*
G01*
X122385000Y-94215000D01*
G75*
G02*
X122610000Y-93990000I225000J0D01*
G01*
X123110000Y-93990000D01*
G75*
G02*
X123335000Y-94215000I0J-225000D01*
G01*
X123335000Y-94665000D01*
G75*
G02*
X123110000Y-94890000I-225000J0D01*
G01*
G37*
G36*
G01*
X176054000Y-92741000D02*
X175554000Y-92741000D01*
G75*
G02*
X175329000Y-92516000I0J225000D01*
G01*
X175329000Y-92066000D01*
G75*
G02*
X175554000Y-91841000I225000J0D01*
G01*
X176054000Y-91841000D01*
G75*
G02*
X176279000Y-92066000I0J-225000D01*
G01*
X176279000Y-92516000D01*
G75*
G02*
X176054000Y-92741000I-225000J0D01*
G01*
G37*
G36*
G01*
X176054000Y-91191000D02*
X175554000Y-91191000D01*
G75*
G02*
X175329000Y-90966000I0J225000D01*
G01*
X175329000Y-90516000D01*
G75*
G02*
X175554000Y-90291000I225000J0D01*
G01*
X176054000Y-90291000D01*
G75*
G02*
X176279000Y-90516000I0J-225000D01*
G01*
X176279000Y-90966000D01*
G75*
G02*
X176054000Y-91191000I-225000J0D01*
G01*
G37*
G36*
G01*
X174054000Y-90291000D02*
X174554000Y-90291000D01*
G75*
G02*
X174779000Y-90516000I0J-225000D01*
G01*
X174779000Y-90966000D01*
G75*
G02*
X174554000Y-91191000I-225000J0D01*
G01*
X174054000Y-91191000D01*
G75*
G02*
X173829000Y-90966000I0J225000D01*
G01*
X173829000Y-90516000D01*
G75*
G02*
X174054000Y-90291000I225000J0D01*
G01*
G37*
G36*
G01*
X174054000Y-91841000D02*
X174554000Y-91841000D01*
G75*
G02*
X174779000Y-92066000I0J-225000D01*
G01*
X174779000Y-92516000D01*
G75*
G02*
X174554000Y-92741000I-225000J0D01*
G01*
X174054000Y-92741000D01*
G75*
G02*
X173829000Y-92516000I0J225000D01*
G01*
X173829000Y-92066000D01*
G75*
G02*
X174054000Y-91841000I225000J0D01*
G01*
G37*
G36*
G01*
X129770000Y-93990000D02*
X130270000Y-93990000D01*
G75*
G02*
X130495000Y-94215000I0J-225000D01*
G01*
X130495000Y-94665000D01*
G75*
G02*
X130270000Y-94890000I-225000J0D01*
G01*
X129770000Y-94890000D01*
G75*
G02*
X129545000Y-94665000I0J225000D01*
G01*
X129545000Y-94215000D01*
G75*
G02*
X129770000Y-93990000I225000J0D01*
G01*
G37*
G36*
G01*
X129770000Y-95540000D02*
X130270000Y-95540000D01*
G75*
G02*
X130495000Y-95765000I0J-225000D01*
G01*
X130495000Y-96215000D01*
G75*
G02*
X130270000Y-96440000I-225000J0D01*
G01*
X129770000Y-96440000D01*
G75*
G02*
X129545000Y-96215000I0J225000D01*
G01*
X129545000Y-95765000D01*
G75*
G02*
X129770000Y-95540000I225000J0D01*
G01*
G37*
G36*
G01*
X126710000Y-104640000D02*
X126710000Y-105140000D01*
G75*
G02*
X126485000Y-105365000I-225000J0D01*
G01*
X126035000Y-105365000D01*
G75*
G02*
X125810000Y-105140000I0J225000D01*
G01*
X125810000Y-104640000D01*
G75*
G02*
X126035000Y-104415000I225000J0D01*
G01*
X126485000Y-104415000D01*
G75*
G02*
X126710000Y-104640000I0J-225000D01*
G01*
G37*
G36*
G01*
X125160000Y-104640000D02*
X125160000Y-105140000D01*
G75*
G02*
X124935000Y-105365000I-225000J0D01*
G01*
X124485000Y-105365000D01*
G75*
G02*
X124260000Y-105140000I0J225000D01*
G01*
X124260000Y-104640000D01*
G75*
G02*
X124485000Y-104415000I225000J0D01*
G01*
X124935000Y-104415000D01*
G75*
G02*
X125160000Y-104640000I0J-225000D01*
G01*
G37*
G36*
G01*
X176074000Y-89526000D02*
X175574000Y-89526000D01*
G75*
G02*
X175349000Y-89301000I0J225000D01*
G01*
X175349000Y-88851000D01*
G75*
G02*
X175574000Y-88626000I225000J0D01*
G01*
X176074000Y-88626000D01*
G75*
G02*
X176299000Y-88851000I0J-225000D01*
G01*
X176299000Y-89301000D01*
G75*
G02*
X176074000Y-89526000I-225000J0D01*
G01*
G37*
G36*
G01*
X176074000Y-87976000D02*
X175574000Y-87976000D01*
G75*
G02*
X175349000Y-87751000I0J225000D01*
G01*
X175349000Y-87301000D01*
G75*
G02*
X175574000Y-87076000I225000J0D01*
G01*
X176074000Y-87076000D01*
G75*
G02*
X176299000Y-87301000I0J-225000D01*
G01*
X176299000Y-87751000D01*
G75*
G02*
X176074000Y-87976000I-225000J0D01*
G01*
G37*
G36*
G01*
X123460000Y-104640000D02*
X123460000Y-105140000D01*
G75*
G02*
X123235000Y-105365000I-225000J0D01*
G01*
X122785000Y-105365000D01*
G75*
G02*
X122560000Y-105140000I0J225000D01*
G01*
X122560000Y-104640000D01*
G75*
G02*
X122785000Y-104415000I225000J0D01*
G01*
X123235000Y-104415000D01*
G75*
G02*
X123460000Y-104640000I0J-225000D01*
G01*
G37*
G36*
G01*
X121910000Y-104640000D02*
X121910000Y-105140000D01*
G75*
G02*
X121685000Y-105365000I-225000J0D01*
G01*
X121235000Y-105365000D01*
G75*
G02*
X121010000Y-105140000I0J225000D01*
G01*
X121010000Y-104640000D01*
G75*
G02*
X121235000Y-104415000I225000J0D01*
G01*
X121685000Y-104415000D01*
G75*
G02*
X121910000Y-104640000I0J-225000D01*
G01*
G37*
G36*
G01*
X174554000Y-89526000D02*
X174054000Y-89526000D01*
G75*
G02*
X173829000Y-89301000I0J225000D01*
G01*
X173829000Y-88851000D01*
G75*
G02*
X174054000Y-88626000I225000J0D01*
G01*
X174554000Y-88626000D01*
G75*
G02*
X174779000Y-88851000I0J-225000D01*
G01*
X174779000Y-89301000D01*
G75*
G02*
X174554000Y-89526000I-225000J0D01*
G01*
G37*
G36*
G01*
X174554000Y-87976000D02*
X174054000Y-87976000D01*
G75*
G02*
X173829000Y-87751000I0J225000D01*
G01*
X173829000Y-87301000D01*
G75*
G02*
X174054000Y-87076000I225000J0D01*
G01*
X174554000Y-87076000D01*
G75*
G02*
X174779000Y-87301000I0J-225000D01*
G01*
X174779000Y-87751000D01*
G75*
G02*
X174554000Y-87976000I-225000J0D01*
G01*
G37*
M02*
