M48
; DRILL file {KiCad (5.1.12)-1} date 01/22/24 15:17:32
; FORMAT={-:-/ absolute / metric / decimal}
; #@! TF.CreationDate,2024-01-22T15:17:32+02:00
; #@! TF.GenerationSoftware,Kicad,Pcbnew,(5.1.12)-1
; #@! TF.FileFunction,Plated,1,2,PTH
FMAT,2
METRIC
T1C0.300
T2C0.400
T3C0.600
T4C1.000
%
G90
G05
T1
X131.85Y-116.17
X133.06Y-117.47
X134.27Y-118.77
X135.4Y-120.07
X136.4Y-104.82
X136.63Y-116.82
X137.74Y-118.12
X138.95Y-119.42
X140.25Y-120.72
X141.45Y-116.17
X142.65Y-117.47
X143.85Y-118.77
X145.05Y-120.07
X146.25Y-116.82
X147.45Y-118.12
X148.65Y-119.42
X149.85Y-120.72
X151.05Y-116.17
X152.25Y-117.47
X153.45Y-118.77
X154.65Y-120.07
X155.85Y-116.82
X157.05Y-118.12
X158.25Y-119.42
X159.45Y-120.72
X160.65Y-116.17
X161.85Y-117.47
X163.05Y-118.77
X164.25Y-120.07
X165.45Y-116.82
X166.65Y-118.12
X167.85Y-119.42
X169.05Y-120.72
X170.25Y-116.17
X171.45Y-117.47
X172.65Y-118.77
X173.85Y-120.07
X175.05Y-116.82
X176.25Y-118.12
X177.45Y-119.42
X178.65Y-120.72
X179.85Y-116.17
X181.05Y-117.47
X182.25Y-118.77
X183.45Y-120.07
X184.65Y-116.82
X185.85Y-118.12
X187.05Y-119.42
X188.25Y-120.72
X189.45Y-116.17
X190.65Y-117.47
X191.85Y-118.77
X193.05Y-120.07
X194.25Y-116.82
X195.45Y-118.12
X196.65Y-119.42
X197.85Y-120.72
T2
X115.128Y-107.962
X117.384Y-112.466
X117.402Y-115.145
X117.414Y-110.916
X121.104Y-112.466
X121.224Y-110.916
X121.276Y-115.145
X122.87Y-93.28
X123.0Y-106.05
X124.7Y-106.07
X125.054Y-112.466
X125.151Y-115.145
X125.288Y-110.916
X127.388Y-100.02
X127.95Y-109.85
X128.52Y-104.11
X129.026Y-115.145
X129.162Y-112.466
X129.606Y-89.166
X130.03Y-93.31
X131.61Y-92.75
X132.2Y-103.24
X132.4Y-90.69
X133.416Y-98.31
X133.67Y-96.532
X133.67Y-100.596
X134.48Y-99.4
X135.194Y-100.596
X135.448Y-98.31
X137.655Y-93.305
X137.655Y-96.785
X137.86Y-100.69
X137.988Y-97.802
X138.9Y-101.97
X142.72Y-103.41
X143.288Y-101.9
X143.322Y-100.088
X143.4Y-88.55
X144.795Y-96.075
X145.1Y-99.326
X146.67Y-89.51
X146.69Y-87.67
X148.402Y-96.786
X149.64Y-87.63
X149.79Y-91.89
X149.81Y-90.68
X151.92Y-96.55
X169.09Y-89.23
X170.246Y-92.722
X173.798Y-100.342
X174.31Y-93.59
X175.072Y-97.685
X175.162Y-99.236
X175.834Y-93.59
X177.09Y-89.09
X177.104Y-87.782
X178.15Y-94.49
X179.05Y-93.61
X190.058Y-98.056
X192.084Y-99.84
X197.932Y-98.31
T4
X131.15Y-86.55
X131.15Y-89.09
X133.69Y-86.55
X133.69Y-89.09
X136.23Y-86.55
X136.23Y-89.09
X138.77Y-86.55
X138.77Y-89.09
X141.31Y-86.55
X141.31Y-89.09
X180.94Y-86.388
X180.94Y-90.52
X180.94Y-93.06
X180.94Y-95.6
X180.94Y-98.14
X183.48Y-86.388
X186.02Y-86.388
X188.56Y-86.388
T3
X152.528Y-86.96G85X152.528Y-86.36
G05
X152.528Y-91.39G85X152.528Y-90.29
G05
X161.168Y-86.96G85X161.168Y-86.36
G05
X161.168Y-91.39G85X161.168Y-90.29
G05
T0
M30
