%FSLAX45Y45*%
G04 Gerber Fmt 4.5, Leading zero omitted, Abs format (unit mm)*
G04 Created by KiCad (PCBNEW (5.1.12)-1) date 2024-06-07 21:14:00*
%MOMM*%
%LPD*%
G01*
G04 APERTURE LIST*
%TA.AperFunction,Profile*%
%ADD10C,0.050000*%
%TD*%
%ADD11C,0.200000*%
%ADD12C,0.300000*%
G04 APERTURE END LIST*
D10*
X19373500Y-12585600D02*
G75*
G03*
X19373500Y-12585600I-210000J0D01*
G01*
X12413500Y-12585600D02*
G75*
G03*
X12413500Y-12585600I-210000J0D01*
G01*
X11877000Y-8700000D02*
G75*
G03*
X11877000Y-8700000I-210000J0D01*
G01*
X19910000Y-8700000D02*
G75*
G03*
X19910000Y-8700000I-210000J0D01*
G01*
X20367000Y-12979400D02*
X20367000Y-8300000D01*
X11000000Y-8300000D02*
X20367000Y-8300000D01*
X11000000Y-12979400D02*
X11000000Y-8300000D01*
X20367000Y-12979400D02*
X11000000Y-12979400D01*
D11*
X13170000Y-11602000D02*
X13200000Y-11632000D01*
X13200000Y-11602000D02*
X13170000Y-11632000D01*
X13291000Y-11732000D02*
X13321000Y-11762000D01*
X13321000Y-11732000D02*
X13291000Y-11762000D01*
X13412000Y-11862000D02*
X13442000Y-11892000D01*
X13442000Y-11862000D02*
X13412000Y-11892000D01*
X13525000Y-11992000D02*
X13555000Y-12022000D01*
X13555000Y-11992000D02*
X13525000Y-12022000D01*
X13625000Y-10467000D02*
X13655000Y-10497000D01*
X13655000Y-10467000D02*
X13625000Y-10497000D01*
X13648000Y-11667000D02*
X13678000Y-11697000D01*
X13678000Y-11667000D02*
X13648000Y-11697000D01*
X13759000Y-11797000D02*
X13789000Y-11827000D01*
X13789000Y-11797000D02*
X13759000Y-11827000D01*
X13880000Y-11927000D02*
X13910000Y-11957000D01*
X13910000Y-11927000D02*
X13880000Y-11957000D01*
X14010000Y-12057000D02*
X14040000Y-12087000D01*
X14040000Y-12057000D02*
X14010000Y-12087000D01*
X14130000Y-11602000D02*
X14160000Y-11632000D01*
X14160000Y-11602000D02*
X14130000Y-11632000D01*
X14250000Y-11732000D02*
X14280000Y-11762000D01*
X14280000Y-11732000D02*
X14250000Y-11762000D01*
X14370000Y-11862000D02*
X14400000Y-11892000D01*
X14400000Y-11862000D02*
X14370000Y-11892000D01*
X14490000Y-11992000D02*
X14520000Y-12022000D01*
X14520000Y-11992000D02*
X14490000Y-12022000D01*
X14610000Y-11667000D02*
X14640000Y-11697000D01*
X14640000Y-11667000D02*
X14610000Y-11697000D01*
X14730000Y-11797000D02*
X14760000Y-11827000D01*
X14760000Y-11797000D02*
X14730000Y-11827000D01*
X14850000Y-11927000D02*
X14880000Y-11957000D01*
X14880000Y-11927000D02*
X14850000Y-11957000D01*
X14970000Y-12057000D02*
X15000000Y-12087000D01*
X15000000Y-12057000D02*
X14970000Y-12087000D01*
X15090000Y-11602000D02*
X15120000Y-11632000D01*
X15120000Y-11602000D02*
X15090000Y-11632000D01*
X15210000Y-11732000D02*
X15240000Y-11762000D01*
X15240000Y-11732000D02*
X15210000Y-11762000D01*
X15330000Y-11862000D02*
X15360000Y-11892000D01*
X15360000Y-11862000D02*
X15330000Y-11892000D01*
X15450000Y-11992000D02*
X15480000Y-12022000D01*
X15480000Y-11992000D02*
X15450000Y-12022000D01*
X15570000Y-11667000D02*
X15600000Y-11697000D01*
X15600000Y-11667000D02*
X15570000Y-11697000D01*
X15690000Y-11797000D02*
X15720000Y-11827000D01*
X15720000Y-11797000D02*
X15690000Y-11827000D01*
X15810000Y-11927000D02*
X15840000Y-11957000D01*
X15840000Y-11927000D02*
X15810000Y-11957000D01*
X15930000Y-12057000D02*
X15960000Y-12087000D01*
X15960000Y-12057000D02*
X15930000Y-12087000D01*
X16050000Y-11602000D02*
X16080000Y-11632000D01*
X16080000Y-11602000D02*
X16050000Y-11632000D01*
X16170000Y-11732000D02*
X16200000Y-11762000D01*
X16200000Y-11732000D02*
X16170000Y-11762000D01*
X16290000Y-11862000D02*
X16320000Y-11892000D01*
X16320000Y-11862000D02*
X16290000Y-11892000D01*
X16410000Y-11992000D02*
X16440000Y-12022000D01*
X16440000Y-11992000D02*
X16410000Y-12022000D01*
X16530000Y-11667000D02*
X16560000Y-11697000D01*
X16560000Y-11667000D02*
X16530000Y-11697000D01*
X16650000Y-11797000D02*
X16680000Y-11827000D01*
X16680000Y-11797000D02*
X16650000Y-11827000D01*
X16770000Y-11927000D02*
X16800000Y-11957000D01*
X16800000Y-11927000D02*
X16770000Y-11957000D01*
X16890000Y-12057000D02*
X16920000Y-12087000D01*
X16920000Y-12057000D02*
X16890000Y-12087000D01*
X17010000Y-11602000D02*
X17040000Y-11632000D01*
X17040000Y-11602000D02*
X17010000Y-11632000D01*
X17130000Y-11732000D02*
X17160000Y-11762000D01*
X17160000Y-11732000D02*
X17130000Y-11762000D01*
X17250000Y-11862000D02*
X17280000Y-11892000D01*
X17280000Y-11862000D02*
X17250000Y-11892000D01*
X17370000Y-11992000D02*
X17400000Y-12022000D01*
X17400000Y-11992000D02*
X17370000Y-12022000D01*
X17490000Y-11667000D02*
X17520000Y-11697000D01*
X17520000Y-11667000D02*
X17490000Y-11697000D01*
X17610000Y-11797000D02*
X17640000Y-11827000D01*
X17640000Y-11797000D02*
X17610000Y-11827000D01*
X17730000Y-11927000D02*
X17760000Y-11957000D01*
X17760000Y-11927000D02*
X17730000Y-11957000D01*
X17850000Y-12057000D02*
X17880000Y-12087000D01*
X17880000Y-12057000D02*
X17850000Y-12087000D01*
X17970000Y-11602000D02*
X18000000Y-11632000D01*
X18000000Y-11602000D02*
X17970000Y-11632000D01*
X18090000Y-11732000D02*
X18120000Y-11762000D01*
X18120000Y-11732000D02*
X18090000Y-11762000D01*
X18210000Y-11862000D02*
X18240000Y-11892000D01*
X18240000Y-11862000D02*
X18210000Y-11892000D01*
X18330000Y-11992000D02*
X18360000Y-12022000D01*
X18360000Y-11992000D02*
X18330000Y-12022000D01*
X18450000Y-11667000D02*
X18480000Y-11697000D01*
X18480000Y-11667000D02*
X18450000Y-11697000D01*
X18570000Y-11797000D02*
X18600000Y-11827000D01*
X18600000Y-11797000D02*
X18570000Y-11827000D01*
X18690000Y-11927000D02*
X18720000Y-11957000D01*
X18720000Y-11927000D02*
X18690000Y-11957000D01*
X18810000Y-12057000D02*
X18840000Y-12087000D01*
X18840000Y-12057000D02*
X18810000Y-12087000D01*
X18930000Y-11602000D02*
X18960000Y-11632000D01*
X18960000Y-11602000D02*
X18930000Y-11632000D01*
X19050000Y-11732000D02*
X19080000Y-11762000D01*
X19080000Y-11732000D02*
X19050000Y-11762000D01*
X19170000Y-11862000D02*
X19200000Y-11892000D01*
X19200000Y-11862000D02*
X19170000Y-11892000D01*
X19290000Y-11992000D02*
X19320000Y-12022000D01*
X19320000Y-11992000D02*
X19290000Y-12022000D01*
X19410000Y-11667000D02*
X19440000Y-11697000D01*
X19440000Y-11667000D02*
X19410000Y-11697000D01*
X19530000Y-11797000D02*
X19560000Y-11827000D01*
X19560000Y-11797000D02*
X19530000Y-11827000D01*
X19650000Y-11927000D02*
X19680000Y-11957000D01*
X19680000Y-11927000D02*
X19650000Y-11957000D01*
X19770000Y-12057000D02*
X19800000Y-12087000D01*
X19800000Y-12057000D02*
X19770000Y-12087000D01*
X11119800Y-9855200D02*
G75*
G03*
X11119800Y-9855200I-20000J0D01*
G01*
X11121000Y-8565000D02*
G75*
G03*
X11121000Y-8565000I-20000J0D01*
G01*
X11121000Y-8819000D02*
G75*
G03*
X11121000Y-8819000I-20000J0D01*
G01*
X11121000Y-9073000D02*
G75*
G03*
X11121000Y-9073000I-20000J0D01*
G01*
X11121000Y-9327000D02*
G75*
G03*
X11121000Y-9327000I-20000J0D01*
G01*
X11121000Y-10089000D02*
G75*
G03*
X11121000Y-10089000I-20000J0D01*
G01*
X11121000Y-10343000D02*
G75*
G03*
X11121000Y-10343000I-20000J0D01*
G01*
X11121000Y-10597000D02*
G75*
G03*
X11121000Y-10597000I-20000J0D01*
G01*
X11121000Y-10851000D02*
G75*
G03*
X11121000Y-10851000I-20000J0D01*
G01*
X11121000Y-11105000D02*
G75*
G03*
X11121000Y-11105000I-20000J0D01*
G01*
X11121000Y-11359000D02*
G75*
G03*
X11121000Y-11359000I-20000J0D01*
G01*
X11121000Y-11613000D02*
G75*
G03*
X11121000Y-11613000I-20000J0D01*
G01*
X11121000Y-11867000D02*
G75*
G03*
X11121000Y-11867000I-20000J0D01*
G01*
X11121000Y-12121000D02*
G75*
G03*
X11121000Y-12121000I-20000J0D01*
G01*
X11121000Y-12375000D02*
G75*
G03*
X11121000Y-12375000I-20000J0D01*
G01*
X11121000Y-12629000D02*
G75*
G03*
X11121000Y-12629000I-20000J0D01*
G01*
X11121000Y-12883000D02*
G75*
G03*
X11121000Y-12883000I-20000J0D01*
G01*
X11272200Y-9478500D02*
G75*
G03*
X11272200Y-9478500I-20000J0D01*
G01*
X11375000Y-12883000D02*
G75*
G03*
X11375000Y-12883000I-20000J0D01*
G01*
X11405600Y-10986000D02*
G75*
G03*
X11405600Y-10986000I-20000J0D01*
G01*
X11493000Y-9627000D02*
G75*
G03*
X11493000Y-9627000I-20000J0D01*
G01*
X11575600Y-10988000D02*
G75*
G03*
X11575600Y-10988000I-20000J0D01*
G01*
X11629000Y-12883000D02*
G75*
G03*
X11629000Y-12883000I-20000J0D01*
G01*
X11729400Y-9478500D02*
G75*
G03*
X11729400Y-9478500I-20000J0D01*
G01*
X11751000Y-10381000D02*
G75*
G03*
X11751000Y-10381000I-20000J0D01*
G01*
X11862000Y-10018000D02*
G75*
G03*
X11862000Y-10018000I-20000J0D01*
G01*
X11883000Y-12883000D02*
G75*
G03*
X11883000Y-12883000I-20000J0D01*
G01*
X11927000Y-10824000D02*
G75*
G03*
X11927000Y-10824000I-20000J0D01*
G01*
X12004000Y-9715000D02*
G75*
G03*
X12004000Y-9715000I-20000J0D01*
G01*
X12033000Y-10564000D02*
G75*
G03*
X12033000Y-10564000I-20000J0D01*
G01*
X12125100Y-9905900D02*
G75*
G03*
X12125100Y-9905900I-20000J0D01*
G01*
X12137000Y-12883000D02*
G75*
G03*
X12137000Y-12883000I-20000J0D01*
G01*
X12171000Y-10346000D02*
G75*
G03*
X12171000Y-10346000I-20000J0D01*
G01*
X12259000Y-9690000D02*
G75*
G03*
X12259000Y-9690000I-20000J0D01*
G01*
X12330000Y-9107000D02*
G75*
G03*
X12330000Y-9107000I-20000J0D01*
G01*
X12339000Y-9550400D02*
G75*
G03*
X12339000Y-9550400I-20000J0D01*
G01*
X12391000Y-12883000D02*
G75*
G03*
X12391000Y-12883000I-20000J0D01*
G01*
X12443000Y-8774000D02*
G75*
G03*
X12443000Y-8774000I-20000J0D01*
G01*
X12445600Y-10021000D02*
G75*
G03*
X12445600Y-10021000I-20000J0D01*
G01*
X12553600Y-10210800D02*
G75*
G03*
X12553600Y-10210800I-20000J0D01*
G01*
X12553600Y-10321000D02*
G75*
G03*
X12553600Y-10321000I-20000J0D01*
G01*
X12638000Y-10480000D02*
G75*
G03*
X12638000Y-10480000I-20000J0D01*
G01*
X12645000Y-12883000D02*
G75*
G03*
X12645000Y-12883000I-20000J0D01*
G01*
X12645600Y-9444400D02*
G75*
G03*
X12645600Y-9444400I-20000J0D01*
G01*
X12730000Y-9107000D02*
G75*
G03*
X12730000Y-9107000I-20000J0D01*
G01*
X12769000Y-9516000D02*
G75*
G03*
X12769000Y-9516000I-20000J0D01*
G01*
X12771000Y-9633000D02*
G75*
G03*
X12771000Y-9633000I-20000J0D01*
G01*
X12812000Y-10475000D02*
G75*
G03*
X12812000Y-10475000I-20000J0D01*
G01*
X12888000Y-9633000D02*
G75*
G03*
X12888000Y-9633000I-20000J0D01*
G01*
X12890000Y-9436000D02*
G75*
G03*
X12890000Y-9436000I-20000J0D01*
G01*
X12895000Y-10848000D02*
G75*
G03*
X12895000Y-10848000I-20000J0D01*
G01*
X12897800Y-10221000D02*
G75*
G03*
X12897800Y-10221000I-20000J0D01*
G01*
X12899000Y-12883000D02*
G75*
G03*
X12899000Y-12883000I-20000J0D01*
G01*
X12920000Y-9729000D02*
G75*
G03*
X12920000Y-9729000I-20000J0D01*
G01*
X12989000Y-11166000D02*
G75*
G03*
X12989000Y-11166000I-20000J0D01*
G01*
X12995600Y-10171000D02*
G75*
G03*
X12995600Y-10171000I-20000J0D01*
G01*
X12995600Y-10271000D02*
G75*
G03*
X12995600Y-10271000I-20000J0D01*
G01*
X12995600Y-10471000D02*
G75*
G03*
X12995600Y-10471000I-20000J0D01*
G01*
X12995600Y-10577400D02*
G75*
G03*
X12995600Y-10577400I-20000J0D01*
G01*
X13084000Y-9734000D02*
G75*
G03*
X13084000Y-9734000I-20000J0D01*
G01*
X13136850Y-9943000D02*
G75*
G03*
X13136850Y-9943000I-20000J0D01*
G01*
X13153000Y-12883000D02*
G75*
G03*
X13153000Y-12883000I-20000J0D01*
G01*
X13253400Y-10896600D02*
G75*
G03*
X13253400Y-10896600I-20000J0D01*
G01*
X13264000Y-9191000D02*
G75*
G03*
X13264000Y-9191000I-20000J0D01*
G01*
X13282000Y-10221000D02*
G75*
G03*
X13282000Y-10221000I-20000J0D01*
G01*
X13282000Y-10321000D02*
G75*
G03*
X13282000Y-10321000I-20000J0D01*
G01*
X13317000Y-9733000D02*
G75*
G03*
X13317000Y-9733000I-20000J0D01*
G01*
X13407000Y-12883000D02*
G75*
G03*
X13407000Y-12883000I-20000J0D01*
G01*
X13413000Y-10712250D02*
G75*
G03*
X13413000Y-10712250I-20000J0D01*
G01*
X13467000Y-9729000D02*
G75*
G03*
X13467000Y-9729000I-20000J0D01*
G01*
X13661000Y-12883000D02*
G75*
G03*
X13661000Y-12883000I-20000J0D01*
G01*
X13695000Y-9158000D02*
G75*
G03*
X13695000Y-9158000I-20000J0D01*
G01*
X13863000Y-9575800D02*
G75*
G03*
X13863000Y-9575800I-20000J0D01*
G01*
X13865000Y-10100000D02*
G75*
G03*
X13865000Y-10100000I-20000J0D01*
G01*
X13915000Y-12883000D02*
G75*
G03*
X13915000Y-12883000I-20000J0D01*
G01*
X13957000Y-9308000D02*
G75*
G03*
X13957000Y-9308000I-20000J0D01*
G01*
X14008000Y-10366000D02*
G75*
G03*
X14008000Y-10366000I-20000J0D01*
G01*
X14040800Y-9575800D02*
G75*
G03*
X14040800Y-9575800I-20000J0D01*
G01*
X14169000Y-12883000D02*
G75*
G03*
X14169000Y-12883000I-20000J0D01*
G01*
X14246000Y-8533000D02*
G75*
G03*
X14246000Y-8533000I-20000J0D01*
G01*
X14266000Y-9308000D02*
G75*
G03*
X14266000Y-9308000I-20000J0D01*
G01*
X14423000Y-12883000D02*
G75*
G03*
X14423000Y-12883000I-20000J0D01*
G01*
X14430000Y-10363200D02*
G75*
G03*
X14430000Y-10363200I-20000J0D01*
G01*
X14575000Y-9308000D02*
G75*
G03*
X14575000Y-9308000I-20000J0D01*
G01*
X14576000Y-8948000D02*
G75*
G03*
X14576000Y-8948000I-20000J0D01*
G01*
X14677000Y-12883000D02*
G75*
G03*
X14677000Y-12883000I-20000J0D01*
G01*
X14739000Y-9092000D02*
G75*
G03*
X14739000Y-9092000I-20000J0D01*
G01*
X14802800Y-9567000D02*
G75*
G03*
X14802800Y-9567000I-20000J0D01*
G01*
X14931000Y-12883000D02*
G75*
G03*
X14931000Y-12883000I-20000J0D01*
G01*
X14980600Y-9567000D02*
G75*
G03*
X14980600Y-9567000I-20000J0D01*
G01*
X14980600Y-10236200D02*
G75*
G03*
X14980600Y-10236200I-20000J0D01*
G01*
X15102000Y-8754000D02*
G75*
G03*
X15102000Y-8754000I-20000J0D01*
G01*
X15132000Y-9158000D02*
G75*
G03*
X15132000Y-9158000I-20000J0D01*
G01*
X15158400Y-9567000D02*
G75*
G03*
X15158400Y-9567000I-20000J0D01*
G01*
X15185000Y-12883000D02*
G75*
G03*
X15185000Y-12883000I-20000J0D01*
G01*
X15277000Y-10121000D02*
G75*
G03*
X15277000Y-10121000I-20000J0D01*
G01*
X15439000Y-12883000D02*
G75*
G03*
X15439000Y-12883000I-20000J0D01*
G01*
X15629800Y-9575000D02*
G75*
G03*
X15629800Y-9575000I-20000J0D01*
G01*
X15693000Y-12883000D02*
G75*
G03*
X15693000Y-12883000I-20000J0D01*
G01*
X15779800Y-9661000D02*
G75*
G03*
X15779800Y-9661000I-20000J0D01*
G01*
X15834500Y-10292000D02*
G75*
G03*
X15834500Y-10292000I-20000J0D01*
G01*
X15920400Y-9575800D02*
G75*
G03*
X15920400Y-9575800I-20000J0D01*
G01*
X15947000Y-12883000D02*
G75*
G03*
X15947000Y-12883000I-20000J0D01*
G01*
X16152000Y-9257000D02*
G75*
G03*
X16152000Y-9257000I-20000J0D01*
G01*
X16199800Y-9626600D02*
G75*
G03*
X16199800Y-9626600I-20000J0D01*
G01*
X16201000Y-12883000D02*
G75*
G03*
X16201000Y-12883000I-20000J0D01*
G01*
X16403000Y-9271000D02*
G75*
G03*
X16403000Y-9271000I-20000J0D01*
G01*
X16420000Y-8615000D02*
G75*
G03*
X16420000Y-8615000I-20000J0D01*
G01*
X16431000Y-8893000D02*
G75*
G03*
X16431000Y-8893000I-20000J0D01*
G01*
X16455000Y-12883000D02*
G75*
G03*
X16455000Y-12883000I-20000J0D01*
G01*
X16506000Y-10292000D02*
G75*
G03*
X16506000Y-10292000I-20000J0D01*
G01*
X16555400Y-9626600D02*
G75*
G03*
X16555400Y-9626600I-20000J0D01*
G01*
X16603000Y-9280000D02*
G75*
G03*
X16603000Y-9280000I-20000J0D01*
G01*
X16631000Y-8983000D02*
G75*
G03*
X16631000Y-8983000I-20000J0D01*
G01*
X16709000Y-12883000D02*
G75*
G03*
X16709000Y-12883000I-20000J0D01*
G01*
X16755000Y-9482000D02*
G75*
G03*
X16755000Y-9482000I-20000J0D01*
G01*
X16843000Y-9401000D02*
G75*
G03*
X16843000Y-9401000I-20000J0D01*
G01*
X16885600Y-9652000D02*
G75*
G03*
X16885600Y-9652000I-20000J0D01*
G01*
X16963000Y-12883000D02*
G75*
G03*
X16963000Y-12883000I-20000J0D01*
G01*
X16987000Y-8517000D02*
G75*
G03*
X16987000Y-8517000I-20000J0D01*
G01*
X16987200Y-9042400D02*
G75*
G03*
X16987200Y-9042400I-20000J0D01*
G01*
X17039000Y-9482000D02*
G75*
G03*
X17039000Y-9482000I-20000J0D01*
G01*
X17121000Y-9785000D02*
G75*
G03*
X17121000Y-9785000I-20000J0D01*
G01*
X17215800Y-8610600D02*
G75*
G03*
X17215800Y-8610600I-20000J0D01*
G01*
X17217000Y-12883000D02*
G75*
G03*
X17217000Y-12883000I-20000J0D01*
G01*
X17290000Y-10140000D02*
G75*
G03*
X17290000Y-10140000I-20000J0D01*
G01*
X17298000Y-9646000D02*
G75*
G03*
X17298000Y-9646000I-20000J0D01*
G01*
X17310000Y-8746000D02*
G75*
G03*
X17310000Y-8746000I-20000J0D01*
G01*
X17393600Y-8610600D02*
G75*
G03*
X17393600Y-8610600I-20000J0D01*
G01*
X17425000Y-9791000D02*
G75*
G03*
X17425000Y-9791000I-20000J0D01*
G01*
X17471000Y-12883000D02*
G75*
G03*
X17471000Y-12883000I-20000J0D01*
G01*
X17612500Y-9511250D02*
G75*
G03*
X17612500Y-9511250I-20000J0D01*
G01*
X17725000Y-12883000D02*
G75*
G03*
X17725000Y-12883000I-20000J0D01*
G01*
X17770000Y-9904000D02*
G75*
G03*
X17770000Y-9904000I-20000J0D01*
G01*
X17800000Y-8610600D02*
G75*
G03*
X17800000Y-8610600I-20000J0D01*
G01*
X17925000Y-10312000D02*
G75*
G03*
X17925000Y-10312000I-20000J0D01*
G01*
X17979000Y-12883000D02*
G75*
G03*
X17979000Y-12883000I-20000J0D01*
G01*
X18155600Y-8610600D02*
G75*
G03*
X18155600Y-8610600I-20000J0D01*
G01*
X18185000Y-9883000D02*
G75*
G03*
X18185000Y-9883000I-20000J0D01*
G01*
X18231800Y-9169400D02*
G75*
G03*
X18231800Y-9169400I-20000J0D01*
G01*
X18231800Y-9398000D02*
G75*
G03*
X18231800Y-9398000I-20000J0D01*
G01*
X18233000Y-12883000D02*
G75*
G03*
X18233000Y-12883000I-20000J0D01*
G01*
X18246000Y-9765250D02*
G75*
G03*
X18246000Y-9765250I-20000J0D01*
G01*
X18343000Y-10153000D02*
G75*
G03*
X18343000Y-10153000I-20000J0D01*
G01*
X18487000Y-12883000D02*
G75*
G03*
X18487000Y-12883000I-20000J0D01*
G01*
X18494000Y-9891000D02*
G75*
G03*
X18494000Y-9891000I-20000J0D01*
G01*
X18676000Y-9606000D02*
G75*
G03*
X18676000Y-9606000I-20000J0D01*
G01*
X18741000Y-12883000D02*
G75*
G03*
X18741000Y-12883000I-20000J0D01*
G01*
X18768000Y-8447000D02*
G75*
G03*
X18768000Y-8447000I-20000J0D01*
G01*
X18874000Y-9720000D02*
G75*
G03*
X18874000Y-9720000I-20000J0D01*
G01*
X18995000Y-12883000D02*
G75*
G03*
X18995000Y-12883000I-20000J0D01*
G01*
X19186000Y-9287000D02*
G75*
G03*
X19186000Y-9287000I-20000J0D01*
G01*
X19186000Y-10208000D02*
G75*
G03*
X19186000Y-10208000I-20000J0D01*
G01*
X19249000Y-12883000D02*
G75*
G03*
X19249000Y-12883000I-20000J0D01*
G01*
X19286000Y-8907000D02*
G75*
G03*
X19286000Y-8907000I-20000J0D01*
G01*
X19349000Y-9693000D02*
G75*
G03*
X19349000Y-9693000I-20000J0D01*
G01*
X19462000Y-8943000D02*
G75*
G03*
X19462000Y-8943000I-20000J0D01*
G01*
X19503000Y-12883000D02*
G75*
G03*
X19503000Y-12883000I-20000J0D01*
G01*
X19567000Y-10202000D02*
G75*
G03*
X19567000Y-10202000I-20000J0D01*
G01*
X19582000Y-9321000D02*
G75*
G03*
X19582000Y-9321000I-20000J0D01*
G01*
X19639000Y-10771000D02*
G75*
G03*
X19639000Y-10771000I-20000J0D01*
G01*
X19757000Y-12883000D02*
G75*
G03*
X19757000Y-12883000I-20000J0D01*
G01*
X19801833Y-9729167D02*
G75*
G03*
X19801833Y-9729167I-20000J0D01*
G01*
X19986000Y-10078000D02*
G75*
G03*
X19986000Y-10078000I-20000J0D01*
G01*
X19993000Y-10571000D02*
G75*
G03*
X19993000Y-10571000I-20000J0D01*
G01*
X20011000Y-12883000D02*
G75*
G03*
X20011000Y-12883000I-20000J0D01*
G01*
X20265000Y-8565000D02*
G75*
G03*
X20265000Y-8565000I-20000J0D01*
G01*
X20265000Y-8819000D02*
G75*
G03*
X20265000Y-8819000I-20000J0D01*
G01*
X20265000Y-9073000D02*
G75*
G03*
X20265000Y-9073000I-20000J0D01*
G01*
X20265000Y-9327000D02*
G75*
G03*
X20265000Y-9327000I-20000J0D01*
G01*
X20265000Y-9581000D02*
G75*
G03*
X20265000Y-9581000I-20000J0D01*
G01*
X20265000Y-9835000D02*
G75*
G03*
X20265000Y-9835000I-20000J0D01*
G01*
X20265000Y-10089000D02*
G75*
G03*
X20265000Y-10089000I-20000J0D01*
G01*
X20265000Y-10343000D02*
G75*
G03*
X20265000Y-10343000I-20000J0D01*
G01*
X20265000Y-10597000D02*
G75*
G03*
X20265000Y-10597000I-20000J0D01*
G01*
X20265000Y-10851000D02*
G75*
G03*
X20265000Y-10851000I-20000J0D01*
G01*
X20265000Y-11105000D02*
G75*
G03*
X20265000Y-11105000I-20000J0D01*
G01*
X20265000Y-11359000D02*
G75*
G03*
X20265000Y-11359000I-20000J0D01*
G01*
X20265000Y-11613000D02*
G75*
G03*
X20265000Y-11613000I-20000J0D01*
G01*
X20265000Y-11867000D02*
G75*
G03*
X20265000Y-11867000I-20000J0D01*
G01*
X20265000Y-12121000D02*
G75*
G03*
X20265000Y-12121000I-20000J0D01*
G01*
X20265000Y-12375000D02*
G75*
G03*
X20265000Y-12375000I-20000J0D01*
G01*
X20265000Y-12629000D02*
G75*
G03*
X20265000Y-12629000I-20000J0D01*
G01*
X20265000Y-12883000D02*
G75*
G03*
X20265000Y-12883000I-20000J0D01*
G01*
X15252800Y-8526400D02*
X15252800Y-8586400D01*
X15222800Y-8556400D02*
X15282800Y-8556400D01*
X15272800Y-8586400D02*
X15272800Y-8526400D01*
X15232800Y-8586400D02*
X15232800Y-8526400D01*
X15272800Y-8526400D02*
G75*
G03*
X15232800Y-8526400I-20000J0D01*
G01*
X15232800Y-8586400D02*
G75*
G03*
X15272800Y-8586400I20000J0D01*
G01*
X15252800Y-8944400D02*
X15252800Y-9004400D01*
X15222800Y-8974400D02*
X15282800Y-8974400D01*
X15272800Y-9029400D02*
X15272800Y-8919400D01*
X15232800Y-9029400D02*
X15232800Y-8919400D01*
X15272800Y-8919400D02*
G75*
G03*
X15232800Y-8919400I-20000J0D01*
G01*
X15232800Y-9029400D02*
G75*
G03*
X15272800Y-9029400I20000J0D01*
G01*
X16116800Y-8526400D02*
X16116800Y-8586400D01*
X16086800Y-8556400D02*
X16146800Y-8556400D01*
X16136800Y-8586400D02*
X16136800Y-8526400D01*
X16096800Y-8586400D02*
X16096800Y-8526400D01*
X16136800Y-8526400D02*
G75*
G03*
X16096800Y-8526400I-20000J0D01*
G01*
X16096800Y-8586400D02*
G75*
G03*
X16136800Y-8586400I20000J0D01*
G01*
X16116800Y-8944400D02*
X16116800Y-9004400D01*
X16086800Y-8974400D02*
X16146800Y-8974400D01*
X16136800Y-9029400D02*
X16136800Y-8919400D01*
X16096800Y-9029400D02*
X16096800Y-8919400D01*
X16136800Y-8919400D02*
G75*
G03*
X16096800Y-8919400I-20000J0D01*
G01*
X16096800Y-9029400D02*
G75*
G03*
X16136800Y-9029400I20000J0D01*
G01*
X12938556Y-8722156D02*
X12938556Y-8651444D01*
X12867844Y-8651444D01*
X12867844Y-8722156D01*
X12938556Y-8722156D01*
X12938556Y-8976156D02*
X12938556Y-8905444D01*
X12867844Y-8905444D01*
X12867844Y-8976156D01*
X12938556Y-8976156D01*
X13192556Y-8722156D02*
X13192556Y-8651444D01*
X13121844Y-8651444D01*
X13121844Y-8722156D01*
X13192556Y-8722156D01*
X13192556Y-8976156D02*
X13192556Y-8905444D01*
X13121844Y-8905444D01*
X13121844Y-8976156D01*
X13192556Y-8976156D01*
X13446556Y-8722156D02*
X13446556Y-8651444D01*
X13375844Y-8651444D01*
X13375844Y-8722156D01*
X13446556Y-8722156D01*
X13446556Y-8976156D02*
X13446556Y-8905444D01*
X13375844Y-8905444D01*
X13375844Y-8976156D01*
X13446556Y-8976156D01*
X13700556Y-8722156D02*
X13700556Y-8651444D01*
X13629844Y-8651444D01*
X13629844Y-8722156D01*
X13700556Y-8722156D01*
X13700556Y-8976156D02*
X13700556Y-8905444D01*
X13629844Y-8905444D01*
X13629844Y-8976156D01*
X13700556Y-8976156D01*
X13954556Y-8722156D02*
X13954556Y-8651444D01*
X13883844Y-8651444D01*
X13883844Y-8722156D01*
X13954556Y-8722156D01*
X13954556Y-8976156D02*
X13954556Y-8905444D01*
X13883844Y-8905444D01*
X13883844Y-8976156D01*
X13954556Y-8976156D01*
X17973356Y-8918356D02*
X17973356Y-8847644D01*
X17902644Y-8847644D01*
X17902644Y-8918356D01*
X17973356Y-8918356D01*
X17973356Y-9172356D02*
X17973356Y-9101644D01*
X17902644Y-9101644D01*
X17902644Y-9172356D01*
X17973356Y-9172356D01*
X17973356Y-9426356D02*
X17973356Y-9355644D01*
X17902644Y-9355644D01*
X17902644Y-9426356D01*
X17973356Y-9426356D01*
X17973356Y-9680356D02*
X17973356Y-9609644D01*
X17902644Y-9609644D01*
X17902644Y-9680356D01*
X17973356Y-9680356D01*
X18407356Y-8730356D02*
X18407356Y-8659644D01*
X18336644Y-8659644D01*
X18336644Y-8730356D01*
X18407356Y-8730356D01*
X18661356Y-8730356D02*
X18661356Y-8659644D01*
X18590644Y-8659644D01*
X18590644Y-8730356D01*
X18661356Y-8730356D01*
X18915356Y-8730356D02*
X18915356Y-8659644D01*
X18844644Y-8659644D01*
X18844644Y-8730356D01*
X18915356Y-8730356D01*
X19169356Y-8730356D02*
X19169356Y-8659644D01*
X19098644Y-8659644D01*
X19098644Y-8730356D01*
X19169356Y-8730356D01*
D12*
X11283928Y-13447614D02*
X11283928Y-13147614D01*
X11355357Y-13147614D01*
X11398214Y-13161900D01*
X11426786Y-13190471D01*
X11441071Y-13219043D01*
X11455357Y-13276186D01*
X11455357Y-13319043D01*
X11441071Y-13376186D01*
X11426786Y-13404757D01*
X11398214Y-13433329D01*
X11355357Y-13447614D01*
X11283928Y-13447614D01*
X11583928Y-13447614D02*
X11583928Y-13247614D01*
X11583928Y-13304757D02*
X11598214Y-13276186D01*
X11612500Y-13261900D01*
X11641071Y-13247614D01*
X11669643Y-13247614D01*
X11769643Y-13447614D02*
X11769643Y-13247614D01*
X11769643Y-13147614D02*
X11755357Y-13161900D01*
X11769643Y-13176186D01*
X11783928Y-13161900D01*
X11769643Y-13147614D01*
X11769643Y-13176186D01*
X11955357Y-13447614D02*
X11926786Y-13433329D01*
X11912500Y-13404757D01*
X11912500Y-13147614D01*
X12112500Y-13447614D02*
X12083928Y-13433329D01*
X12069643Y-13404757D01*
X12069643Y-13147614D01*
X12455357Y-13447614D02*
X12455357Y-13147614D01*
X12555357Y-13361900D01*
X12655357Y-13147614D01*
X12655357Y-13447614D01*
X12926786Y-13447614D02*
X12926786Y-13290471D01*
X12912500Y-13261900D01*
X12883928Y-13247614D01*
X12826786Y-13247614D01*
X12798214Y-13261900D01*
X12926786Y-13433329D02*
X12898214Y-13447614D01*
X12826786Y-13447614D01*
X12798214Y-13433329D01*
X12783928Y-13404757D01*
X12783928Y-13376186D01*
X12798214Y-13347614D01*
X12826786Y-13333329D01*
X12898214Y-13333329D01*
X12926786Y-13319043D01*
X13069643Y-13247614D02*
X13069643Y-13547614D01*
X13069643Y-13261900D02*
X13098214Y-13247614D01*
X13155357Y-13247614D01*
X13183928Y-13261900D01*
X13198214Y-13276186D01*
X13212500Y-13304757D01*
X13212500Y-13390471D01*
X13198214Y-13419043D01*
X13183928Y-13433329D01*
X13155357Y-13447614D01*
X13098214Y-13447614D01*
X13069643Y-13433329D01*
X13341071Y-13419043D02*
X13355357Y-13433329D01*
X13341071Y-13447614D01*
X13326786Y-13433329D01*
X13341071Y-13419043D01*
X13341071Y-13447614D01*
X13341071Y-13261900D02*
X13355357Y-13276186D01*
X13341071Y-13290471D01*
X13326786Y-13276186D01*
X13341071Y-13261900D01*
X13341071Y-13290471D01*
X10967500Y-13926900D02*
X10997500Y-13956900D01*
X10997500Y-13926900D02*
X10967500Y-13956900D01*
X11341071Y-13777614D02*
X11369643Y-13777614D01*
X11398214Y-13791900D01*
X11412500Y-13806186D01*
X11426786Y-13834757D01*
X11441071Y-13891900D01*
X11441071Y-13963329D01*
X11426786Y-14020471D01*
X11412500Y-14049043D01*
X11398214Y-14063329D01*
X11369643Y-14077614D01*
X11341071Y-14077614D01*
X11312500Y-14063329D01*
X11298214Y-14049043D01*
X11283928Y-14020471D01*
X11269643Y-13963329D01*
X11269643Y-13891900D01*
X11283928Y-13834757D01*
X11298214Y-13806186D01*
X11312500Y-13791900D01*
X11341071Y-13777614D01*
X11569643Y-14049043D02*
X11583928Y-14063329D01*
X11569643Y-14077614D01*
X11555357Y-14063329D01*
X11569643Y-14049043D01*
X11569643Y-14077614D01*
X11683928Y-13777614D02*
X11869643Y-13777614D01*
X11769643Y-13891900D01*
X11812500Y-13891900D01*
X11841071Y-13906186D01*
X11855357Y-13920471D01*
X11869643Y-13949043D01*
X11869643Y-14020471D01*
X11855357Y-14049043D01*
X11841071Y-14063329D01*
X11812500Y-14077614D01*
X11726786Y-14077614D01*
X11698214Y-14063329D01*
X11683928Y-14049043D01*
X12055357Y-13777614D02*
X12083928Y-13777614D01*
X12112500Y-13791900D01*
X12126786Y-13806186D01*
X12141071Y-13834757D01*
X12155357Y-13891900D01*
X12155357Y-13963329D01*
X12141071Y-14020471D01*
X12126786Y-14049043D01*
X12112500Y-14063329D01*
X12083928Y-14077614D01*
X12055357Y-14077614D01*
X12026786Y-14063329D01*
X12012500Y-14049043D01*
X11998214Y-14020471D01*
X11983928Y-13963329D01*
X11983928Y-13891900D01*
X11998214Y-13834757D01*
X12012500Y-13806186D01*
X12026786Y-13791900D01*
X12055357Y-13777614D01*
X12341071Y-13777614D02*
X12369643Y-13777614D01*
X12398214Y-13791900D01*
X12412500Y-13806186D01*
X12426786Y-13834757D01*
X12441071Y-13891900D01*
X12441071Y-13963329D01*
X12426786Y-14020471D01*
X12412500Y-14049043D01*
X12398214Y-14063329D01*
X12369643Y-14077614D01*
X12341071Y-14077614D01*
X12312500Y-14063329D01*
X12298214Y-14049043D01*
X12283928Y-14020471D01*
X12269643Y-13963329D01*
X12269643Y-13891900D01*
X12283928Y-13834757D01*
X12298214Y-13806186D01*
X12312500Y-13791900D01*
X12341071Y-13777614D01*
X12569643Y-14077614D02*
X12569643Y-13877614D01*
X12569643Y-13906186D02*
X12583928Y-13891900D01*
X12612500Y-13877614D01*
X12655357Y-13877614D01*
X12683928Y-13891900D01*
X12698214Y-13920471D01*
X12698214Y-14077614D01*
X12698214Y-13920471D02*
X12712500Y-13891900D01*
X12741071Y-13877614D01*
X12783928Y-13877614D01*
X12812500Y-13891900D01*
X12826786Y-13920471D01*
X12826786Y-14077614D01*
X12969643Y-14077614D02*
X12969643Y-13877614D01*
X12969643Y-13906186D02*
X12983928Y-13891900D01*
X13012500Y-13877614D01*
X13055357Y-13877614D01*
X13083928Y-13891900D01*
X13098214Y-13920471D01*
X13098214Y-14077614D01*
X13098214Y-13920471D02*
X13112500Y-13891900D01*
X13141071Y-13877614D01*
X13183928Y-13877614D01*
X13212500Y-13891900D01*
X13226786Y-13920471D01*
X13226786Y-14077614D01*
X13812500Y-13763329D02*
X13555357Y-14149043D01*
X14198214Y-13777614D02*
X14226786Y-13777614D01*
X14255357Y-13791900D01*
X14269643Y-13806186D01*
X14283928Y-13834757D01*
X14298214Y-13891900D01*
X14298214Y-13963329D01*
X14283928Y-14020471D01*
X14269643Y-14049043D01*
X14255357Y-14063329D01*
X14226786Y-14077614D01*
X14198214Y-14077614D01*
X14169643Y-14063329D01*
X14155357Y-14049043D01*
X14141071Y-14020471D01*
X14126786Y-13963329D01*
X14126786Y-13891900D01*
X14141071Y-13834757D01*
X14155357Y-13806186D01*
X14169643Y-13791900D01*
X14198214Y-13777614D01*
X14426786Y-14049043D02*
X14441071Y-14063329D01*
X14426786Y-14077614D01*
X14412500Y-14063329D01*
X14426786Y-14049043D01*
X14426786Y-14077614D01*
X14626786Y-13777614D02*
X14655357Y-13777614D01*
X14683928Y-13791900D01*
X14698214Y-13806186D01*
X14712500Y-13834757D01*
X14726786Y-13891900D01*
X14726786Y-13963329D01*
X14712500Y-14020471D01*
X14698214Y-14049043D01*
X14683928Y-14063329D01*
X14655357Y-14077614D01*
X14626786Y-14077614D01*
X14598214Y-14063329D01*
X14583928Y-14049043D01*
X14569643Y-14020471D01*
X14555357Y-13963329D01*
X14555357Y-13891900D01*
X14569643Y-13834757D01*
X14583928Y-13806186D01*
X14598214Y-13791900D01*
X14626786Y-13777614D01*
X15012500Y-14077614D02*
X14841071Y-14077614D01*
X14926786Y-14077614D02*
X14926786Y-13777614D01*
X14898214Y-13820471D01*
X14869643Y-13849043D01*
X14841071Y-13863329D01*
X15298214Y-14077614D02*
X15126786Y-14077614D01*
X15212500Y-14077614D02*
X15212500Y-13777614D01*
X15183928Y-13820471D01*
X15155357Y-13849043D01*
X15126786Y-13863329D01*
X15469643Y-13906186D02*
X15441071Y-13891900D01*
X15426786Y-13877614D01*
X15412500Y-13849043D01*
X15412500Y-13834757D01*
X15426786Y-13806186D01*
X15441071Y-13791900D01*
X15469643Y-13777614D01*
X15526786Y-13777614D01*
X15555357Y-13791900D01*
X15569643Y-13806186D01*
X15583928Y-13834757D01*
X15583928Y-13849043D01*
X15569643Y-13877614D01*
X15555357Y-13891900D01*
X15526786Y-13906186D01*
X15469643Y-13906186D01*
X15441071Y-13920471D01*
X15426786Y-13934757D01*
X15412500Y-13963329D01*
X15412500Y-14020471D01*
X15426786Y-14049043D01*
X15441071Y-14063329D01*
X15469643Y-14077614D01*
X15526786Y-14077614D01*
X15555357Y-14063329D01*
X15569643Y-14049043D01*
X15583928Y-14020471D01*
X15583928Y-13963329D01*
X15569643Y-13934757D01*
X15555357Y-13920471D01*
X15526786Y-13906186D01*
X15698214Y-13777614D02*
X15698214Y-13834757D01*
X15812500Y-13777614D02*
X15812500Y-13834757D01*
X16255357Y-14191900D02*
X16241071Y-14177614D01*
X16212500Y-14134757D01*
X16198214Y-14106186D01*
X16183928Y-14063329D01*
X16169643Y-13991900D01*
X16169643Y-13934757D01*
X16183928Y-13863329D01*
X16198214Y-13820471D01*
X16212500Y-13791900D01*
X16241071Y-13749043D01*
X16255357Y-13734757D01*
X16512500Y-13777614D02*
X16369643Y-13777614D01*
X16355357Y-13920471D01*
X16369643Y-13906186D01*
X16398214Y-13891900D01*
X16469643Y-13891900D01*
X16498214Y-13906186D01*
X16512500Y-13920471D01*
X16526786Y-13949043D01*
X16526786Y-14020471D01*
X16512500Y-14049043D01*
X16498214Y-14063329D01*
X16469643Y-14077614D01*
X16398214Y-14077614D01*
X16369643Y-14063329D01*
X16355357Y-14049043D01*
X16626786Y-13777614D02*
X16826786Y-13777614D01*
X16698214Y-14077614D01*
X17169643Y-14077614D02*
X17169643Y-13777614D01*
X17298214Y-14077614D02*
X17298214Y-13920471D01*
X17283928Y-13891900D01*
X17255357Y-13877614D01*
X17212500Y-13877614D01*
X17183928Y-13891900D01*
X17169643Y-13906186D01*
X17483928Y-14077614D02*
X17455357Y-14063329D01*
X17441071Y-14049043D01*
X17426786Y-14020471D01*
X17426786Y-13934757D01*
X17441071Y-13906186D01*
X17455357Y-13891900D01*
X17483928Y-13877614D01*
X17526786Y-13877614D01*
X17555357Y-13891900D01*
X17569643Y-13906186D01*
X17583928Y-13934757D01*
X17583928Y-14020471D01*
X17569643Y-14049043D01*
X17555357Y-14063329D01*
X17526786Y-14077614D01*
X17483928Y-14077614D01*
X17755357Y-14077614D02*
X17726786Y-14063329D01*
X17712500Y-14034757D01*
X17712500Y-13777614D01*
X17983928Y-14063329D02*
X17955357Y-14077614D01*
X17898214Y-14077614D01*
X17869643Y-14063329D01*
X17855357Y-14034757D01*
X17855357Y-13920471D01*
X17869643Y-13891900D01*
X17898214Y-13877614D01*
X17955357Y-13877614D01*
X17983928Y-13891900D01*
X17998214Y-13920471D01*
X17998214Y-13949043D01*
X17855357Y-13977614D01*
X18112500Y-14063329D02*
X18141071Y-14077614D01*
X18198214Y-14077614D01*
X18226786Y-14063329D01*
X18241071Y-14034757D01*
X18241071Y-14020471D01*
X18226786Y-13991900D01*
X18198214Y-13977614D01*
X18155357Y-13977614D01*
X18126786Y-13963329D01*
X18112500Y-13934757D01*
X18112500Y-13920471D01*
X18126786Y-13891900D01*
X18155357Y-13877614D01*
X18198214Y-13877614D01*
X18226786Y-13891900D01*
X18341071Y-14191900D02*
X18355357Y-14177614D01*
X18383928Y-14134757D01*
X18398214Y-14106186D01*
X18412500Y-14063329D01*
X18426786Y-13991900D01*
X18426786Y-13934757D01*
X18412500Y-13863329D01*
X18398214Y-13820471D01*
X18383928Y-13791900D01*
X18355357Y-13749043D01*
X18341071Y-13734757D01*
X10997500Y-14337900D02*
G75*
G03*
X10997500Y-14337900I-20000J0D01*
G01*
X11341071Y-14173614D02*
X11369643Y-14173614D01*
X11398214Y-14187900D01*
X11412500Y-14202186D01*
X11426786Y-14230757D01*
X11441071Y-14287900D01*
X11441071Y-14359329D01*
X11426786Y-14416471D01*
X11412500Y-14445043D01*
X11398214Y-14459329D01*
X11369643Y-14473614D01*
X11341071Y-14473614D01*
X11312500Y-14459329D01*
X11298214Y-14445043D01*
X11283928Y-14416471D01*
X11269643Y-14359329D01*
X11269643Y-14287900D01*
X11283928Y-14230757D01*
X11298214Y-14202186D01*
X11312500Y-14187900D01*
X11341071Y-14173614D01*
X11569643Y-14445043D02*
X11583928Y-14459329D01*
X11569643Y-14473614D01*
X11555357Y-14459329D01*
X11569643Y-14445043D01*
X11569643Y-14473614D01*
X11841071Y-14273614D02*
X11841071Y-14473614D01*
X11769643Y-14159329D02*
X11698214Y-14373614D01*
X11883928Y-14373614D01*
X12055357Y-14173614D02*
X12083928Y-14173614D01*
X12112500Y-14187900D01*
X12126786Y-14202186D01*
X12141071Y-14230757D01*
X12155357Y-14287900D01*
X12155357Y-14359329D01*
X12141071Y-14416471D01*
X12126786Y-14445043D01*
X12112500Y-14459329D01*
X12083928Y-14473614D01*
X12055357Y-14473614D01*
X12026786Y-14459329D01*
X12012500Y-14445043D01*
X11998214Y-14416471D01*
X11983928Y-14359329D01*
X11983928Y-14287900D01*
X11998214Y-14230757D01*
X12012500Y-14202186D01*
X12026786Y-14187900D01*
X12055357Y-14173614D01*
X12341071Y-14173614D02*
X12369643Y-14173614D01*
X12398214Y-14187900D01*
X12412500Y-14202186D01*
X12426786Y-14230757D01*
X12441071Y-14287900D01*
X12441071Y-14359329D01*
X12426786Y-14416471D01*
X12412500Y-14445043D01*
X12398214Y-14459329D01*
X12369643Y-14473614D01*
X12341071Y-14473614D01*
X12312500Y-14459329D01*
X12298214Y-14445043D01*
X12283928Y-14416471D01*
X12269643Y-14359329D01*
X12269643Y-14287900D01*
X12283928Y-14230757D01*
X12298214Y-14202186D01*
X12312500Y-14187900D01*
X12341071Y-14173614D01*
X12569643Y-14473614D02*
X12569643Y-14273614D01*
X12569643Y-14302186D02*
X12583928Y-14287900D01*
X12612500Y-14273614D01*
X12655357Y-14273614D01*
X12683928Y-14287900D01*
X12698214Y-14316471D01*
X12698214Y-14473614D01*
X12698214Y-14316471D02*
X12712500Y-14287900D01*
X12741071Y-14273614D01*
X12783928Y-14273614D01*
X12812500Y-14287900D01*
X12826786Y-14316471D01*
X12826786Y-14473614D01*
X12969643Y-14473614D02*
X12969643Y-14273614D01*
X12969643Y-14302186D02*
X12983928Y-14287900D01*
X13012500Y-14273614D01*
X13055357Y-14273614D01*
X13083928Y-14287900D01*
X13098214Y-14316471D01*
X13098214Y-14473614D01*
X13098214Y-14316471D02*
X13112500Y-14287900D01*
X13141071Y-14273614D01*
X13183928Y-14273614D01*
X13212500Y-14287900D01*
X13226786Y-14316471D01*
X13226786Y-14473614D01*
X13812500Y-14159329D02*
X13555357Y-14545043D01*
X14198214Y-14173614D02*
X14226786Y-14173614D01*
X14255357Y-14187900D01*
X14269643Y-14202186D01*
X14283928Y-14230757D01*
X14298214Y-14287900D01*
X14298214Y-14359329D01*
X14283928Y-14416471D01*
X14269643Y-14445043D01*
X14255357Y-14459329D01*
X14226786Y-14473614D01*
X14198214Y-14473614D01*
X14169643Y-14459329D01*
X14155357Y-14445043D01*
X14141071Y-14416471D01*
X14126786Y-14359329D01*
X14126786Y-14287900D01*
X14141071Y-14230757D01*
X14155357Y-14202186D01*
X14169643Y-14187900D01*
X14198214Y-14173614D01*
X14426786Y-14445043D02*
X14441071Y-14459329D01*
X14426786Y-14473614D01*
X14412500Y-14459329D01*
X14426786Y-14445043D01*
X14426786Y-14473614D01*
X14626786Y-14173614D02*
X14655357Y-14173614D01*
X14683928Y-14187900D01*
X14698214Y-14202186D01*
X14712500Y-14230757D01*
X14726786Y-14287900D01*
X14726786Y-14359329D01*
X14712500Y-14416471D01*
X14698214Y-14445043D01*
X14683928Y-14459329D01*
X14655357Y-14473614D01*
X14626786Y-14473614D01*
X14598214Y-14459329D01*
X14583928Y-14445043D01*
X14569643Y-14416471D01*
X14555357Y-14359329D01*
X14555357Y-14287900D01*
X14569643Y-14230757D01*
X14583928Y-14202186D01*
X14598214Y-14187900D01*
X14626786Y-14173614D01*
X15012500Y-14473614D02*
X14841071Y-14473614D01*
X14926786Y-14473614D02*
X14926786Y-14173614D01*
X14898214Y-14216471D01*
X14869643Y-14245043D01*
X14841071Y-14259329D01*
X15283928Y-14173614D02*
X15141071Y-14173614D01*
X15126786Y-14316471D01*
X15141071Y-14302186D01*
X15169643Y-14287900D01*
X15241071Y-14287900D01*
X15269643Y-14302186D01*
X15283928Y-14316471D01*
X15298214Y-14345043D01*
X15298214Y-14416471D01*
X15283928Y-14445043D01*
X15269643Y-14459329D01*
X15241071Y-14473614D01*
X15169643Y-14473614D01*
X15141071Y-14459329D01*
X15126786Y-14445043D01*
X15398214Y-14173614D02*
X15598214Y-14173614D01*
X15469643Y-14473614D01*
X15698214Y-14173614D02*
X15698214Y-14230757D01*
X15812500Y-14173614D02*
X15812500Y-14230757D01*
X16255357Y-14587900D02*
X16241071Y-14573614D01*
X16212500Y-14530757D01*
X16198214Y-14502186D01*
X16183928Y-14459329D01*
X16169643Y-14387900D01*
X16169643Y-14330757D01*
X16183928Y-14259329D01*
X16198214Y-14216471D01*
X16212500Y-14187900D01*
X16241071Y-14145043D01*
X16255357Y-14130757D01*
X16526786Y-14473614D02*
X16355357Y-14473614D01*
X16441071Y-14473614D02*
X16441071Y-14173614D01*
X16412500Y-14216471D01*
X16383928Y-14245043D01*
X16355357Y-14259329D01*
X16698214Y-14302186D02*
X16669643Y-14287900D01*
X16655357Y-14273614D01*
X16641071Y-14245043D01*
X16641071Y-14230757D01*
X16655357Y-14202186D01*
X16669643Y-14187900D01*
X16698214Y-14173614D01*
X16755357Y-14173614D01*
X16783928Y-14187900D01*
X16798214Y-14202186D01*
X16812500Y-14230757D01*
X16812500Y-14245043D01*
X16798214Y-14273614D01*
X16783928Y-14287900D01*
X16755357Y-14302186D01*
X16698214Y-14302186D01*
X16669643Y-14316471D01*
X16655357Y-14330757D01*
X16641071Y-14359329D01*
X16641071Y-14416471D01*
X16655357Y-14445043D01*
X16669643Y-14459329D01*
X16698214Y-14473614D01*
X16755357Y-14473614D01*
X16783928Y-14459329D01*
X16798214Y-14445043D01*
X16812500Y-14416471D01*
X16812500Y-14359329D01*
X16798214Y-14330757D01*
X16783928Y-14316471D01*
X16755357Y-14302186D01*
X17069643Y-14273614D02*
X17069643Y-14473614D01*
X16998214Y-14159329D02*
X16926786Y-14373614D01*
X17112500Y-14373614D01*
X17455357Y-14473614D02*
X17455357Y-14173614D01*
X17583928Y-14473614D02*
X17583928Y-14316471D01*
X17569643Y-14287900D01*
X17541071Y-14273614D01*
X17498214Y-14273614D01*
X17469643Y-14287900D01*
X17455357Y-14302186D01*
X17769643Y-14473614D02*
X17741071Y-14459329D01*
X17726786Y-14445043D01*
X17712500Y-14416471D01*
X17712500Y-14330757D01*
X17726786Y-14302186D01*
X17741071Y-14287900D01*
X17769643Y-14273614D01*
X17812500Y-14273614D01*
X17841071Y-14287900D01*
X17855357Y-14302186D01*
X17869643Y-14330757D01*
X17869643Y-14416471D01*
X17855357Y-14445043D01*
X17841071Y-14459329D01*
X17812500Y-14473614D01*
X17769643Y-14473614D01*
X18041071Y-14473614D02*
X18012500Y-14459329D01*
X17998214Y-14430757D01*
X17998214Y-14173614D01*
X18269643Y-14459329D02*
X18241071Y-14473614D01*
X18183928Y-14473614D01*
X18155357Y-14459329D01*
X18141071Y-14430757D01*
X18141071Y-14316471D01*
X18155357Y-14287900D01*
X18183928Y-14273614D01*
X18241071Y-14273614D01*
X18269643Y-14287900D01*
X18283928Y-14316471D01*
X18283928Y-14345043D01*
X18141071Y-14373614D01*
X18398214Y-14459329D02*
X18426786Y-14473614D01*
X18483928Y-14473614D01*
X18512500Y-14459329D01*
X18526786Y-14430757D01*
X18526786Y-14416471D01*
X18512500Y-14387900D01*
X18483928Y-14373614D01*
X18441071Y-14373614D01*
X18412500Y-14359329D01*
X18398214Y-14330757D01*
X18398214Y-14316471D01*
X18412500Y-14287900D01*
X18441071Y-14273614D01*
X18483928Y-14273614D01*
X18512500Y-14287900D01*
X18626786Y-14587900D02*
X18641071Y-14573614D01*
X18669643Y-14530757D01*
X18683928Y-14502186D01*
X18698214Y-14459329D01*
X18712500Y-14387900D01*
X18712500Y-14330757D01*
X18698214Y-14259329D01*
X18683928Y-14216471D01*
X18669643Y-14187900D01*
X18641071Y-14145043D01*
X18626786Y-14130757D01*
X10967500Y-14703900D02*
X10967500Y-14763900D01*
X10937500Y-14733900D02*
X10997500Y-14733900D01*
X11341071Y-14569614D02*
X11369643Y-14569614D01*
X11398214Y-14583900D01*
X11412500Y-14598186D01*
X11426786Y-14626757D01*
X11441071Y-14683900D01*
X11441071Y-14755329D01*
X11426786Y-14812471D01*
X11412500Y-14841043D01*
X11398214Y-14855329D01*
X11369643Y-14869614D01*
X11341071Y-14869614D01*
X11312500Y-14855329D01*
X11298214Y-14841043D01*
X11283928Y-14812471D01*
X11269643Y-14755329D01*
X11269643Y-14683900D01*
X11283928Y-14626757D01*
X11298214Y-14598186D01*
X11312500Y-14583900D01*
X11341071Y-14569614D01*
X11569643Y-14841043D02*
X11583928Y-14855329D01*
X11569643Y-14869614D01*
X11555357Y-14855329D01*
X11569643Y-14841043D01*
X11569643Y-14869614D01*
X11841071Y-14569614D02*
X11783928Y-14569614D01*
X11755357Y-14583900D01*
X11741071Y-14598186D01*
X11712500Y-14641043D01*
X11698214Y-14698186D01*
X11698214Y-14812471D01*
X11712500Y-14841043D01*
X11726786Y-14855329D01*
X11755357Y-14869614D01*
X11812500Y-14869614D01*
X11841071Y-14855329D01*
X11855357Y-14841043D01*
X11869643Y-14812471D01*
X11869643Y-14741043D01*
X11855357Y-14712471D01*
X11841071Y-14698186D01*
X11812500Y-14683900D01*
X11755357Y-14683900D01*
X11726786Y-14698186D01*
X11712500Y-14712471D01*
X11698214Y-14741043D01*
X12055357Y-14569614D02*
X12083928Y-14569614D01*
X12112500Y-14583900D01*
X12126786Y-14598186D01*
X12141071Y-14626757D01*
X12155357Y-14683900D01*
X12155357Y-14755329D01*
X12141071Y-14812471D01*
X12126786Y-14841043D01*
X12112500Y-14855329D01*
X12083928Y-14869614D01*
X12055357Y-14869614D01*
X12026786Y-14855329D01*
X12012500Y-14841043D01*
X11998214Y-14812471D01*
X11983928Y-14755329D01*
X11983928Y-14683900D01*
X11998214Y-14626757D01*
X12012500Y-14598186D01*
X12026786Y-14583900D01*
X12055357Y-14569614D01*
X12341071Y-14569614D02*
X12369643Y-14569614D01*
X12398214Y-14583900D01*
X12412500Y-14598186D01*
X12426786Y-14626757D01*
X12441071Y-14683900D01*
X12441071Y-14755329D01*
X12426786Y-14812471D01*
X12412500Y-14841043D01*
X12398214Y-14855329D01*
X12369643Y-14869614D01*
X12341071Y-14869614D01*
X12312500Y-14855329D01*
X12298214Y-14841043D01*
X12283928Y-14812471D01*
X12269643Y-14755329D01*
X12269643Y-14683900D01*
X12283928Y-14626757D01*
X12298214Y-14598186D01*
X12312500Y-14583900D01*
X12341071Y-14569614D01*
X12569643Y-14869614D02*
X12569643Y-14669614D01*
X12569643Y-14698186D02*
X12583928Y-14683900D01*
X12612500Y-14669614D01*
X12655357Y-14669614D01*
X12683928Y-14683900D01*
X12698214Y-14712471D01*
X12698214Y-14869614D01*
X12698214Y-14712471D02*
X12712500Y-14683900D01*
X12741071Y-14669614D01*
X12783928Y-14669614D01*
X12812500Y-14683900D01*
X12826786Y-14712471D01*
X12826786Y-14869614D01*
X12969643Y-14869614D02*
X12969643Y-14669614D01*
X12969643Y-14698186D02*
X12983928Y-14683900D01*
X13012500Y-14669614D01*
X13055357Y-14669614D01*
X13083928Y-14683900D01*
X13098214Y-14712471D01*
X13098214Y-14869614D01*
X13098214Y-14712471D02*
X13112500Y-14683900D01*
X13141071Y-14669614D01*
X13183928Y-14669614D01*
X13212500Y-14683900D01*
X13226786Y-14712471D01*
X13226786Y-14869614D01*
X13812500Y-14555329D02*
X13555357Y-14941043D01*
X14198214Y-14569614D02*
X14226786Y-14569614D01*
X14255357Y-14583900D01*
X14269643Y-14598186D01*
X14283928Y-14626757D01*
X14298214Y-14683900D01*
X14298214Y-14755329D01*
X14283928Y-14812471D01*
X14269643Y-14841043D01*
X14255357Y-14855329D01*
X14226786Y-14869614D01*
X14198214Y-14869614D01*
X14169643Y-14855329D01*
X14155357Y-14841043D01*
X14141071Y-14812471D01*
X14126786Y-14755329D01*
X14126786Y-14683900D01*
X14141071Y-14626757D01*
X14155357Y-14598186D01*
X14169643Y-14583900D01*
X14198214Y-14569614D01*
X14426786Y-14841043D02*
X14441071Y-14855329D01*
X14426786Y-14869614D01*
X14412500Y-14855329D01*
X14426786Y-14841043D01*
X14426786Y-14869614D01*
X14626786Y-14569614D02*
X14655357Y-14569614D01*
X14683928Y-14583900D01*
X14698214Y-14598186D01*
X14712500Y-14626757D01*
X14726786Y-14683900D01*
X14726786Y-14755329D01*
X14712500Y-14812471D01*
X14698214Y-14841043D01*
X14683928Y-14855329D01*
X14655357Y-14869614D01*
X14626786Y-14869614D01*
X14598214Y-14855329D01*
X14583928Y-14841043D01*
X14569643Y-14812471D01*
X14555357Y-14755329D01*
X14555357Y-14683900D01*
X14569643Y-14626757D01*
X14583928Y-14598186D01*
X14598214Y-14583900D01*
X14626786Y-14569614D01*
X14841071Y-14598186D02*
X14855357Y-14583900D01*
X14883928Y-14569614D01*
X14955357Y-14569614D01*
X14983928Y-14583900D01*
X14998214Y-14598186D01*
X15012500Y-14626757D01*
X15012500Y-14655329D01*
X14998214Y-14698186D01*
X14826786Y-14869614D01*
X15012500Y-14869614D01*
X15112500Y-14569614D02*
X15298214Y-14569614D01*
X15198214Y-14683900D01*
X15241071Y-14683900D01*
X15269643Y-14698186D01*
X15283928Y-14712471D01*
X15298214Y-14741043D01*
X15298214Y-14812471D01*
X15283928Y-14841043D01*
X15269643Y-14855329D01*
X15241071Y-14869614D01*
X15155357Y-14869614D01*
X15126786Y-14855329D01*
X15112500Y-14841043D01*
X15555357Y-14569614D02*
X15498214Y-14569614D01*
X15469643Y-14583900D01*
X15455357Y-14598186D01*
X15426786Y-14641043D01*
X15412500Y-14698186D01*
X15412500Y-14812471D01*
X15426786Y-14841043D01*
X15441071Y-14855329D01*
X15469643Y-14869614D01*
X15526786Y-14869614D01*
X15555357Y-14855329D01*
X15569643Y-14841043D01*
X15583928Y-14812471D01*
X15583928Y-14741043D01*
X15569643Y-14712471D01*
X15555357Y-14698186D01*
X15526786Y-14683900D01*
X15469643Y-14683900D01*
X15441071Y-14698186D01*
X15426786Y-14712471D01*
X15412500Y-14741043D01*
X15698214Y-14569614D02*
X15698214Y-14626757D01*
X15812500Y-14569614D02*
X15812500Y-14626757D01*
X16255357Y-14983900D02*
X16241071Y-14969614D01*
X16212500Y-14926757D01*
X16198214Y-14898186D01*
X16183928Y-14855329D01*
X16169643Y-14783900D01*
X16169643Y-14726757D01*
X16183928Y-14655329D01*
X16198214Y-14612471D01*
X16212500Y-14583900D01*
X16241071Y-14541043D01*
X16255357Y-14526757D01*
X16426786Y-14569614D02*
X16455357Y-14569614D01*
X16483928Y-14583900D01*
X16498214Y-14598186D01*
X16512500Y-14626757D01*
X16526786Y-14683900D01*
X16526786Y-14755329D01*
X16512500Y-14812471D01*
X16498214Y-14841043D01*
X16483928Y-14855329D01*
X16455357Y-14869614D01*
X16426786Y-14869614D01*
X16398214Y-14855329D01*
X16383928Y-14841043D01*
X16369643Y-14812471D01*
X16355357Y-14755329D01*
X16355357Y-14683900D01*
X16369643Y-14626757D01*
X16383928Y-14598186D01*
X16398214Y-14583900D01*
X16426786Y-14569614D01*
X16883928Y-14869614D02*
X16883928Y-14569614D01*
X17012500Y-14869614D02*
X17012500Y-14712471D01*
X16998214Y-14683900D01*
X16969643Y-14669614D01*
X16926786Y-14669614D01*
X16898214Y-14683900D01*
X16883928Y-14698186D01*
X17198214Y-14869614D02*
X17169643Y-14855329D01*
X17155357Y-14841043D01*
X17141071Y-14812471D01*
X17141071Y-14726757D01*
X17155357Y-14698186D01*
X17169643Y-14683900D01*
X17198214Y-14669614D01*
X17241071Y-14669614D01*
X17269643Y-14683900D01*
X17283928Y-14698186D01*
X17298214Y-14726757D01*
X17298214Y-14812471D01*
X17283928Y-14841043D01*
X17269643Y-14855329D01*
X17241071Y-14869614D01*
X17198214Y-14869614D01*
X17469643Y-14869614D02*
X17441071Y-14855329D01*
X17426786Y-14826757D01*
X17426786Y-14569614D01*
X17698214Y-14855329D02*
X17669643Y-14869614D01*
X17612500Y-14869614D01*
X17583928Y-14855329D01*
X17569643Y-14826757D01*
X17569643Y-14712471D01*
X17583928Y-14683900D01*
X17612500Y-14669614D01*
X17669643Y-14669614D01*
X17698214Y-14683900D01*
X17712500Y-14712471D01*
X17712500Y-14741043D01*
X17569643Y-14769614D01*
X17826786Y-14855329D02*
X17855357Y-14869614D01*
X17912500Y-14869614D01*
X17941071Y-14855329D01*
X17955357Y-14826757D01*
X17955357Y-14812471D01*
X17941071Y-14783900D01*
X17912500Y-14769614D01*
X17869643Y-14769614D01*
X17841071Y-14755329D01*
X17826786Y-14726757D01*
X17826786Y-14712471D01*
X17841071Y-14683900D01*
X17869643Y-14669614D01*
X17912500Y-14669614D01*
X17941071Y-14683900D01*
X18312500Y-14755329D02*
X18541071Y-14755329D01*
X18426786Y-14869614D02*
X18426786Y-14641043D01*
X19041071Y-14669614D02*
X19041071Y-14869614D01*
X18969643Y-14555329D02*
X18898214Y-14769614D01*
X19083928Y-14769614D01*
X19412500Y-14855329D02*
X19441071Y-14869614D01*
X19498214Y-14869614D01*
X19526786Y-14855329D01*
X19541071Y-14826757D01*
X19541071Y-14812471D01*
X19526786Y-14783900D01*
X19498214Y-14769614D01*
X19455357Y-14769614D01*
X19426786Y-14755329D01*
X19412500Y-14726757D01*
X19412500Y-14712471D01*
X19426786Y-14683900D01*
X19455357Y-14669614D01*
X19498214Y-14669614D01*
X19526786Y-14683900D01*
X19712500Y-14869614D02*
X19683928Y-14855329D01*
X19669643Y-14826757D01*
X19669643Y-14569614D01*
X19869643Y-14869614D02*
X19841071Y-14855329D01*
X19826786Y-14841043D01*
X19812500Y-14812471D01*
X19812500Y-14726757D01*
X19826786Y-14698186D01*
X19841071Y-14683900D01*
X19869643Y-14669614D01*
X19912500Y-14669614D01*
X19941071Y-14683900D01*
X19955357Y-14698186D01*
X19969643Y-14726757D01*
X19969643Y-14812471D01*
X19955357Y-14841043D01*
X19941071Y-14855329D01*
X19912500Y-14869614D01*
X19869643Y-14869614D01*
X20055357Y-14669614D02*
X20169643Y-14669614D01*
X20098214Y-14569614D02*
X20098214Y-14826757D01*
X20112500Y-14855329D01*
X20141071Y-14869614D01*
X20169643Y-14869614D01*
X20255357Y-14855329D02*
X20283928Y-14869614D01*
X20341071Y-14869614D01*
X20369643Y-14855329D01*
X20383928Y-14826757D01*
X20383928Y-14812471D01*
X20369643Y-14783900D01*
X20341071Y-14769614D01*
X20298214Y-14769614D01*
X20269643Y-14755329D01*
X20255357Y-14726757D01*
X20255357Y-14712471D01*
X20269643Y-14683900D01*
X20298214Y-14669614D01*
X20341071Y-14669614D01*
X20369643Y-14683900D01*
X20483928Y-14983900D02*
X20498214Y-14969614D01*
X20526786Y-14926757D01*
X20541071Y-14898186D01*
X20555357Y-14855329D01*
X20569643Y-14783900D01*
X20569643Y-14726757D01*
X20555357Y-14655329D01*
X20541071Y-14612471D01*
X20526786Y-14583900D01*
X20498214Y-14541043D01*
X20483928Y-14526757D01*
X10982856Y-15165256D02*
X10982856Y-15094544D01*
X10912144Y-15094544D01*
X10912144Y-15165256D01*
X10982856Y-15165256D01*
X11441071Y-15265614D02*
X11269643Y-15265614D01*
X11355357Y-15265614D02*
X11355357Y-14965614D01*
X11326786Y-15008471D01*
X11298214Y-15037043D01*
X11269643Y-15051329D01*
X11569643Y-15237043D02*
X11583928Y-15251329D01*
X11569643Y-15265614D01*
X11555357Y-15251329D01*
X11569643Y-15237043D01*
X11569643Y-15265614D01*
X11769643Y-14965614D02*
X11798214Y-14965614D01*
X11826786Y-14979900D01*
X11841071Y-14994186D01*
X11855357Y-15022757D01*
X11869643Y-15079900D01*
X11869643Y-15151329D01*
X11855357Y-15208471D01*
X11841071Y-15237043D01*
X11826786Y-15251329D01*
X11798214Y-15265614D01*
X11769643Y-15265614D01*
X11741071Y-15251329D01*
X11726786Y-15237043D01*
X11712500Y-15208471D01*
X11698214Y-15151329D01*
X11698214Y-15079900D01*
X11712500Y-15022757D01*
X11726786Y-14994186D01*
X11741071Y-14979900D01*
X11769643Y-14965614D01*
X12055357Y-14965614D02*
X12083928Y-14965614D01*
X12112500Y-14979900D01*
X12126786Y-14994186D01*
X12141071Y-15022757D01*
X12155357Y-15079900D01*
X12155357Y-15151329D01*
X12141071Y-15208471D01*
X12126786Y-15237043D01*
X12112500Y-15251329D01*
X12083928Y-15265614D01*
X12055357Y-15265614D01*
X12026786Y-15251329D01*
X12012500Y-15237043D01*
X11998214Y-15208471D01*
X11983928Y-15151329D01*
X11983928Y-15079900D01*
X11998214Y-15022757D01*
X12012500Y-14994186D01*
X12026786Y-14979900D01*
X12055357Y-14965614D01*
X12341071Y-14965614D02*
X12369643Y-14965614D01*
X12398214Y-14979900D01*
X12412500Y-14994186D01*
X12426786Y-15022757D01*
X12441071Y-15079900D01*
X12441071Y-15151329D01*
X12426786Y-15208471D01*
X12412500Y-15237043D01*
X12398214Y-15251329D01*
X12369643Y-15265614D01*
X12341071Y-15265614D01*
X12312500Y-15251329D01*
X12298214Y-15237043D01*
X12283928Y-15208471D01*
X12269643Y-15151329D01*
X12269643Y-15079900D01*
X12283928Y-15022757D01*
X12298214Y-14994186D01*
X12312500Y-14979900D01*
X12341071Y-14965614D01*
X12569643Y-15265614D02*
X12569643Y-15065614D01*
X12569643Y-15094186D02*
X12583928Y-15079900D01*
X12612500Y-15065614D01*
X12655357Y-15065614D01*
X12683928Y-15079900D01*
X12698214Y-15108471D01*
X12698214Y-15265614D01*
X12698214Y-15108471D02*
X12712500Y-15079900D01*
X12741071Y-15065614D01*
X12783928Y-15065614D01*
X12812500Y-15079900D01*
X12826786Y-15108471D01*
X12826786Y-15265614D01*
X12969643Y-15265614D02*
X12969643Y-15065614D01*
X12969643Y-15094186D02*
X12983928Y-15079900D01*
X13012500Y-15065614D01*
X13055357Y-15065614D01*
X13083928Y-15079900D01*
X13098214Y-15108471D01*
X13098214Y-15265614D01*
X13098214Y-15108471D02*
X13112500Y-15079900D01*
X13141071Y-15065614D01*
X13183928Y-15065614D01*
X13212500Y-15079900D01*
X13226786Y-15108471D01*
X13226786Y-15265614D01*
X13812500Y-14951329D02*
X13555357Y-15337043D01*
X14198214Y-14965614D02*
X14226786Y-14965614D01*
X14255357Y-14979900D01*
X14269643Y-14994186D01*
X14283928Y-15022757D01*
X14298214Y-15079900D01*
X14298214Y-15151329D01*
X14283928Y-15208471D01*
X14269643Y-15237043D01*
X14255357Y-15251329D01*
X14226786Y-15265614D01*
X14198214Y-15265614D01*
X14169643Y-15251329D01*
X14155357Y-15237043D01*
X14141071Y-15208471D01*
X14126786Y-15151329D01*
X14126786Y-15079900D01*
X14141071Y-15022757D01*
X14155357Y-14994186D01*
X14169643Y-14979900D01*
X14198214Y-14965614D01*
X14426786Y-15237043D02*
X14441071Y-15251329D01*
X14426786Y-15265614D01*
X14412500Y-15251329D01*
X14426786Y-15237043D01*
X14426786Y-15265614D01*
X14626786Y-14965614D02*
X14655357Y-14965614D01*
X14683928Y-14979900D01*
X14698214Y-14994186D01*
X14712500Y-15022757D01*
X14726786Y-15079900D01*
X14726786Y-15151329D01*
X14712500Y-15208471D01*
X14698214Y-15237043D01*
X14683928Y-15251329D01*
X14655357Y-15265614D01*
X14626786Y-15265614D01*
X14598214Y-15251329D01*
X14583928Y-15237043D01*
X14569643Y-15208471D01*
X14555357Y-15151329D01*
X14555357Y-15079900D01*
X14569643Y-15022757D01*
X14583928Y-14994186D01*
X14598214Y-14979900D01*
X14626786Y-14965614D01*
X14826786Y-14965614D02*
X15012500Y-14965614D01*
X14912500Y-15079900D01*
X14955357Y-15079900D01*
X14983928Y-15094186D01*
X14998214Y-15108471D01*
X15012500Y-15137043D01*
X15012500Y-15208471D01*
X14998214Y-15237043D01*
X14983928Y-15251329D01*
X14955357Y-15265614D01*
X14869643Y-15265614D01*
X14841071Y-15251329D01*
X14826786Y-15237043D01*
X15155357Y-15265614D02*
X15212500Y-15265614D01*
X15241071Y-15251329D01*
X15255357Y-15237043D01*
X15283928Y-15194186D01*
X15298214Y-15137043D01*
X15298214Y-15022757D01*
X15283928Y-14994186D01*
X15269643Y-14979900D01*
X15241071Y-14965614D01*
X15183928Y-14965614D01*
X15155357Y-14979900D01*
X15141071Y-14994186D01*
X15126786Y-15022757D01*
X15126786Y-15094186D01*
X15141071Y-15122757D01*
X15155357Y-15137043D01*
X15183928Y-15151329D01*
X15241071Y-15151329D01*
X15269643Y-15137043D01*
X15283928Y-15122757D01*
X15298214Y-15094186D01*
X15555357Y-15065614D02*
X15555357Y-15265614D01*
X15483928Y-14951329D02*
X15412500Y-15165614D01*
X15598214Y-15165614D01*
X15698214Y-14965614D02*
X15698214Y-15022757D01*
X15812500Y-14965614D02*
X15812500Y-15022757D01*
X16255357Y-15379900D02*
X16241071Y-15365614D01*
X16212500Y-15322757D01*
X16198214Y-15294186D01*
X16183928Y-15251329D01*
X16169643Y-15179900D01*
X16169643Y-15122757D01*
X16183928Y-15051329D01*
X16198214Y-15008471D01*
X16212500Y-14979900D01*
X16241071Y-14937043D01*
X16255357Y-14922757D01*
X16526786Y-15265614D02*
X16355357Y-15265614D01*
X16441071Y-15265614D02*
X16441071Y-14965614D01*
X16412500Y-15008471D01*
X16383928Y-15037043D01*
X16355357Y-15051329D01*
X16698214Y-15094186D02*
X16669643Y-15079900D01*
X16655357Y-15065614D01*
X16641071Y-15037043D01*
X16641071Y-15022757D01*
X16655357Y-14994186D01*
X16669643Y-14979900D01*
X16698214Y-14965614D01*
X16755357Y-14965614D01*
X16783928Y-14979900D01*
X16798214Y-14994186D01*
X16812500Y-15022757D01*
X16812500Y-15037043D01*
X16798214Y-15065614D01*
X16783928Y-15079900D01*
X16755357Y-15094186D01*
X16698214Y-15094186D01*
X16669643Y-15108471D01*
X16655357Y-15122757D01*
X16641071Y-15151329D01*
X16641071Y-15208471D01*
X16655357Y-15237043D01*
X16669643Y-15251329D01*
X16698214Y-15265614D01*
X16755357Y-15265614D01*
X16783928Y-15251329D01*
X16798214Y-15237043D01*
X16812500Y-15208471D01*
X16812500Y-15151329D01*
X16798214Y-15122757D01*
X16783928Y-15108471D01*
X16755357Y-15094186D01*
X17169643Y-15265614D02*
X17169643Y-14965614D01*
X17298214Y-15265614D02*
X17298214Y-15108471D01*
X17283928Y-15079900D01*
X17255357Y-15065614D01*
X17212500Y-15065614D01*
X17183928Y-15079900D01*
X17169643Y-15094186D01*
X17483928Y-15265614D02*
X17455357Y-15251329D01*
X17441071Y-15237043D01*
X17426786Y-15208471D01*
X17426786Y-15122757D01*
X17441071Y-15094186D01*
X17455357Y-15079900D01*
X17483928Y-15065614D01*
X17526786Y-15065614D01*
X17555357Y-15079900D01*
X17569643Y-15094186D01*
X17583928Y-15122757D01*
X17583928Y-15208471D01*
X17569643Y-15237043D01*
X17555357Y-15251329D01*
X17526786Y-15265614D01*
X17483928Y-15265614D01*
X17755357Y-15265614D02*
X17726786Y-15251329D01*
X17712500Y-15222757D01*
X17712500Y-14965614D01*
X17983928Y-15251329D02*
X17955357Y-15265614D01*
X17898214Y-15265614D01*
X17869643Y-15251329D01*
X17855357Y-15222757D01*
X17855357Y-15108471D01*
X17869643Y-15079900D01*
X17898214Y-15065614D01*
X17955357Y-15065614D01*
X17983928Y-15079900D01*
X17998214Y-15108471D01*
X17998214Y-15137043D01*
X17855357Y-15165614D01*
X18112500Y-15251329D02*
X18141071Y-15265614D01*
X18198214Y-15265614D01*
X18226786Y-15251329D01*
X18241071Y-15222757D01*
X18241071Y-15208471D01*
X18226786Y-15179900D01*
X18198214Y-15165614D01*
X18155357Y-15165614D01*
X18126786Y-15151329D01*
X18112500Y-15122757D01*
X18112500Y-15108471D01*
X18126786Y-15079900D01*
X18155357Y-15065614D01*
X18198214Y-15065614D01*
X18226786Y-15079900D01*
X18341071Y-15379900D02*
X18355357Y-15365614D01*
X18383928Y-15322757D01*
X18398214Y-15294186D01*
X18412500Y-15251329D01*
X18426786Y-15179900D01*
X18426786Y-15122757D01*
X18412500Y-15051329D01*
X18398214Y-15008471D01*
X18383928Y-14979900D01*
X18355357Y-14937043D01*
X18341071Y-14922757D01*
M02*
