G04 #@! TF.GenerationSoftware,KiCad,Pcbnew,(5.1.12)-1*
G04 #@! TF.CreationDate,2024-06-07T21:14:04+03:00*
G04 #@! TF.ProjectId,CaliperPCB,43616c69-7065-4725-9043-422e6b696361,rev?*
G04 #@! TF.SameCoordinates,Original*
G04 #@! TF.FileFunction,Legend,Bot*
G04 #@! TF.FilePolarity,Positive*
%FSLAX46Y46*%
G04 Gerber Fmt 4.6, Leading zero omitted, Abs format (unit mm)*
G04 Created by KiCad (PCBNEW (5.1.12)-1) date 2024-06-07 21:14:04*
%MOMM*%
%LPD*%
G01*
G04 APERTURE LIST*
%ADD10C,0.150000*%
%ADD11C,0.120000*%
%ADD12O,1.700000X1.700000*%
%ADD13R,1.700000X1.700000*%
%ADD14R,1.000000X1.500000*%
%ADD15C,0.100000*%
%ADD16O,1.000000X1.600000*%
%ADD17C,0.650000*%
%ADD18O,1.000000X2.100000*%
G04 APERTURE END LIST*
D10*
X122305476Y-91722380D02*
X122781666Y-91722380D01*
X122781666Y-90722380D01*
X127221476Y-91722380D02*
X127697666Y-91722380D01*
X127697666Y-90722380D01*
X123018572Y-94928571D02*
X122875715Y-94976190D01*
X122828096Y-95023809D01*
X122780477Y-95119047D01*
X122780477Y-95261904D01*
X122828096Y-95357142D01*
X122875715Y-95404761D01*
X122970953Y-95452380D01*
X123351905Y-95452380D01*
X123351905Y-94452380D01*
X123018572Y-94452380D01*
X122923334Y-94500000D01*
X122875715Y-94547619D01*
X122828096Y-94642857D01*
X122828096Y-94738095D01*
X122875715Y-94833333D01*
X122923334Y-94880952D01*
X123018572Y-94928571D01*
X123351905Y-94928571D01*
X122161429Y-94452380D02*
X121970953Y-94452380D01*
X121875715Y-94500000D01*
X121780477Y-94595238D01*
X121732858Y-94785714D01*
X121732858Y-95119047D01*
X121780477Y-95309523D01*
X121875715Y-95404761D01*
X121970953Y-95452380D01*
X122161429Y-95452380D01*
X122256667Y-95404761D01*
X122351905Y-95309523D01*
X122399524Y-95119047D01*
X122399524Y-94785714D01*
X122351905Y-94595238D01*
X122256667Y-94500000D01*
X122161429Y-94452380D01*
X121113810Y-94452380D02*
X120923334Y-94452380D01*
X120828096Y-94500000D01*
X120732858Y-94595238D01*
X120685239Y-94785714D01*
X120685239Y-95119047D01*
X120732858Y-95309523D01*
X120828096Y-95404761D01*
X120923334Y-95452380D01*
X121113810Y-95452380D01*
X121209048Y-95404761D01*
X121304286Y-95309523D01*
X121351905Y-95119047D01*
X121351905Y-94785714D01*
X121304286Y-94595238D01*
X121209048Y-94500000D01*
X121113810Y-94452380D01*
X120399524Y-94452380D02*
X119828096Y-94452380D01*
X120113810Y-95452380D02*
X120113810Y-94452380D01*
X119304286Y-94452380D02*
X119209048Y-94452380D01*
X119113810Y-94500000D01*
X119066191Y-94547619D01*
X119018572Y-94642857D01*
X118970953Y-94833333D01*
X118970953Y-95071428D01*
X119018572Y-95261904D01*
X119066191Y-95357142D01*
X119113810Y-95404761D01*
X119209048Y-95452380D01*
X119304286Y-95452380D01*
X119399524Y-95404761D01*
X119447143Y-95357142D01*
X119494762Y-95261904D01*
X119542381Y-95071428D01*
X119542381Y-94833333D01*
X119494762Y-94642857D01*
X119447143Y-94547619D01*
X119399524Y-94500000D01*
X119304286Y-94452380D01*
X128244094Y-94938571D02*
X128101237Y-94986190D01*
X128053618Y-95033809D01*
X128005999Y-95129047D01*
X128005999Y-95271904D01*
X128053618Y-95367142D01*
X128101237Y-95414761D01*
X128196475Y-95462380D01*
X128577427Y-95462380D01*
X128577427Y-94462380D01*
X128244094Y-94462380D01*
X128148856Y-94510000D01*
X128101237Y-94557619D01*
X128053618Y-94652857D01*
X128053618Y-94748095D01*
X128101237Y-94843333D01*
X128148856Y-94890952D01*
X128244094Y-94938571D01*
X128577427Y-94938571D01*
X127386951Y-94462380D02*
X127196475Y-94462380D01*
X127101237Y-94510000D01*
X127005999Y-94605238D01*
X126958380Y-94795714D01*
X126958380Y-95129047D01*
X127005999Y-95319523D01*
X127101237Y-95414761D01*
X127196475Y-95462380D01*
X127386951Y-95462380D01*
X127482189Y-95414761D01*
X127577427Y-95319523D01*
X127625046Y-95129047D01*
X127625046Y-94795714D01*
X127577427Y-94605238D01*
X127482189Y-94510000D01*
X127386951Y-94462380D01*
X126339332Y-94462380D02*
X126148856Y-94462380D01*
X126053618Y-94510000D01*
X125958380Y-94605238D01*
X125910761Y-94795714D01*
X125910761Y-95129047D01*
X125958380Y-95319523D01*
X126053618Y-95414761D01*
X126148856Y-95462380D01*
X126339332Y-95462380D01*
X126434570Y-95414761D01*
X126529808Y-95319523D01*
X126577427Y-95129047D01*
X126577427Y-94795714D01*
X126529808Y-94605238D01*
X126434570Y-94510000D01*
X126339332Y-94462380D01*
X125625046Y-94462380D02*
X125053618Y-94462380D01*
X125339332Y-95462380D02*
X125339332Y-94462380D01*
X124196475Y-95462380D02*
X124767903Y-95462380D01*
X124482189Y-95462380D02*
X124482189Y-94462380D01*
X124577427Y-94605238D01*
X124672665Y-94700476D01*
X124767903Y-94748095D01*
X127255833Y-114857261D02*
X127351071Y-114904880D01*
X127541547Y-114904880D01*
X127636785Y-114857261D01*
X127684404Y-114809642D01*
X127732023Y-114714404D01*
X127732023Y-114428690D01*
X127684404Y-114333452D01*
X127636785Y-114285833D01*
X127541547Y-114238214D01*
X127351071Y-114238214D01*
X127255833Y-114285833D01*
X126684404Y-114904880D02*
X126779642Y-114857261D01*
X126827261Y-114809642D01*
X126874880Y-114714404D01*
X126874880Y-114428690D01*
X126827261Y-114333452D01*
X126779642Y-114285833D01*
X126684404Y-114238214D01*
X126541547Y-114238214D01*
X126446309Y-114285833D01*
X126398690Y-114333452D01*
X126351071Y-114428690D01*
X126351071Y-114714404D01*
X126398690Y-114809642D01*
X126446309Y-114857261D01*
X126541547Y-114904880D01*
X126684404Y-114904880D01*
X125922500Y-114238214D02*
X125922500Y-114904880D01*
X125922500Y-114333452D02*
X125874880Y-114285833D01*
X125779642Y-114238214D01*
X125636785Y-114238214D01*
X125541547Y-114285833D01*
X125493928Y-114381071D01*
X125493928Y-114904880D01*
X125160595Y-114238214D02*
X124779642Y-114238214D01*
X125017738Y-113904880D02*
X125017738Y-114762023D01*
X124970119Y-114857261D01*
X124874880Y-114904880D01*
X124779642Y-114904880D01*
X124446309Y-114904880D02*
X124446309Y-114238214D01*
X124446309Y-114428690D02*
X124398690Y-114333452D01*
X124351071Y-114285833D01*
X124255833Y-114238214D01*
X124160595Y-114238214D01*
X123827261Y-114904880D02*
X123827261Y-114238214D01*
X123827261Y-113904880D02*
X123874880Y-113952500D01*
X123827261Y-114000119D01*
X123779642Y-113952500D01*
X123827261Y-113904880D01*
X123827261Y-114000119D01*
X123351071Y-114904880D02*
X123351071Y-113904880D01*
X123351071Y-114285833D02*
X123255833Y-114238214D01*
X123065357Y-114238214D01*
X122970119Y-114285833D01*
X122922500Y-114333452D01*
X122874880Y-114428690D01*
X122874880Y-114714404D01*
X122922500Y-114809642D01*
X122970119Y-114857261D01*
X123065357Y-114904880D01*
X123255833Y-114904880D01*
X123351071Y-114857261D01*
X122017738Y-114238214D02*
X122017738Y-114904880D01*
X122446309Y-114238214D02*
X122446309Y-114762023D01*
X122398690Y-114857261D01*
X122303452Y-114904880D01*
X122160595Y-114904880D01*
X122065357Y-114857261D01*
X122017738Y-114809642D01*
X121684404Y-114238214D02*
X121303452Y-114238214D01*
X121541547Y-113904880D02*
X121541547Y-114762023D01*
X121493928Y-114857261D01*
X121398690Y-114904880D01*
X121303452Y-114904880D01*
X120827261Y-114904880D02*
X120922500Y-114857261D01*
X120970119Y-114809642D01*
X121017738Y-114714404D01*
X121017738Y-114428690D01*
X120970119Y-114333452D01*
X120922500Y-114285833D01*
X120827261Y-114238214D01*
X120684404Y-114238214D01*
X120589166Y-114285833D01*
X120541547Y-114333452D01*
X120493928Y-114428690D01*
X120493928Y-114714404D01*
X120541547Y-114809642D01*
X120589166Y-114857261D01*
X120684404Y-114904880D01*
X120827261Y-114904880D01*
X120065357Y-114904880D02*
X120065357Y-114238214D01*
X120065357Y-114428690D02*
X120017738Y-114333452D01*
X119970119Y-114285833D01*
X119874880Y-114238214D01*
X119779642Y-114238214D01*
X119493928Y-114857261D02*
X119398690Y-114904880D01*
X119208214Y-114904880D01*
X119112976Y-114857261D01*
X119065357Y-114762023D01*
X119065357Y-114714404D01*
X119112976Y-114619166D01*
X119208214Y-114571547D01*
X119351071Y-114571547D01*
X119446309Y-114523928D01*
X119493928Y-114428690D01*
X119493928Y-114381071D01*
X119446309Y-114285833D01*
X119351071Y-114238214D01*
X119208214Y-114238214D01*
X119112976Y-114285833D01*
X127684404Y-116554880D02*
X127684404Y-115554880D01*
X127446309Y-115554880D01*
X127303452Y-115602500D01*
X127208214Y-115697738D01*
X127160595Y-115792976D01*
X127112976Y-115983452D01*
X127112976Y-116126309D01*
X127160595Y-116316785D01*
X127208214Y-116412023D01*
X127303452Y-116507261D01*
X127446309Y-116554880D01*
X127684404Y-116554880D01*
X126684404Y-116554880D02*
X126684404Y-115888214D01*
X126684404Y-115554880D02*
X126732023Y-115602500D01*
X126684404Y-115650119D01*
X126636785Y-115602500D01*
X126684404Y-115554880D01*
X126684404Y-115650119D01*
X126208214Y-116554880D02*
X126208214Y-115888214D01*
X126208214Y-115983452D02*
X126160595Y-115935833D01*
X126065357Y-115888214D01*
X125922500Y-115888214D01*
X125827261Y-115935833D01*
X125779642Y-116031071D01*
X125779642Y-116554880D01*
X125779642Y-116031071D02*
X125732023Y-115935833D01*
X125636785Y-115888214D01*
X125493928Y-115888214D01*
X125398690Y-115935833D01*
X125351071Y-116031071D01*
X125351071Y-116554880D01*
X124874880Y-116554880D02*
X124874880Y-115888214D01*
X124874880Y-115554880D02*
X124922500Y-115602500D01*
X124874880Y-115650119D01*
X124827261Y-115602500D01*
X124874880Y-115554880D01*
X124874880Y-115650119D01*
X124541547Y-115888214D02*
X124160595Y-115888214D01*
X124398690Y-115554880D02*
X124398690Y-116412023D01*
X124351071Y-116507261D01*
X124255833Y-116554880D01*
X124160595Y-116554880D01*
X123398690Y-116554880D02*
X123398690Y-116031071D01*
X123446309Y-115935833D01*
X123541547Y-115888214D01*
X123732023Y-115888214D01*
X123827261Y-115935833D01*
X123398690Y-116507261D02*
X123493928Y-116554880D01*
X123732023Y-116554880D01*
X123827261Y-116507261D01*
X123874880Y-116412023D01*
X123874880Y-116316785D01*
X123827261Y-116221547D01*
X123732023Y-116173928D01*
X123493928Y-116173928D01*
X123398690Y-116126309D01*
X122922500Y-116554880D02*
X122922500Y-115888214D01*
X122922500Y-116078690D02*
X122874880Y-115983452D01*
X122827261Y-115935833D01*
X122732023Y-115888214D01*
X122636785Y-115888214D01*
X121541547Y-116554880D02*
X121541547Y-115554880D01*
X121303452Y-115554880D01*
X121160595Y-115602500D01*
X121065357Y-115697738D01*
X121017738Y-115792976D01*
X120970119Y-115983452D01*
X120970119Y-116126309D01*
X121017738Y-116316785D01*
X121065357Y-116412023D01*
X121160595Y-116507261D01*
X121303452Y-116554880D01*
X121541547Y-116554880D01*
X120636785Y-115888214D02*
X120398690Y-116554880D01*
X120160595Y-115888214D02*
X120398690Y-116554880D01*
X120493928Y-116792976D01*
X120541547Y-116840595D01*
X120636785Y-116888214D01*
X119351071Y-116554880D02*
X119351071Y-116031071D01*
X119398690Y-115935833D01*
X119493928Y-115888214D01*
X119684404Y-115888214D01*
X119779642Y-115935833D01*
X119351071Y-116507261D02*
X119446309Y-116554880D01*
X119684404Y-116554880D01*
X119779642Y-116507261D01*
X119827261Y-116412023D01*
X119827261Y-116316785D01*
X119779642Y-116221547D01*
X119684404Y-116173928D01*
X119446309Y-116173928D01*
X119351071Y-116126309D01*
X118874880Y-116554880D02*
X118874880Y-115554880D01*
X118779642Y-116173928D02*
X118493928Y-116554880D01*
X118493928Y-115888214D02*
X118874880Y-116269166D01*
X117922500Y-116554880D02*
X118017738Y-116507261D01*
X118065357Y-116459642D01*
X118112976Y-116364404D01*
X118112976Y-116078690D01*
X118065357Y-115983452D01*
X118017738Y-115935833D01*
X117922500Y-115888214D01*
X117779642Y-115888214D01*
X117684404Y-115935833D01*
X117636785Y-115983452D01*
X117589166Y-116078690D01*
X117589166Y-116364404D01*
X117636785Y-116459642D01*
X117684404Y-116507261D01*
X117779642Y-116554880D01*
X117922500Y-116554880D01*
X117255833Y-115888214D02*
X117017738Y-116554880D01*
X116779642Y-115888214D01*
X127112976Y-118204880D02*
X127446309Y-117728690D01*
X127684404Y-118204880D02*
X127684404Y-117204880D01*
X127303452Y-117204880D01*
X127208214Y-117252500D01*
X127160595Y-117300119D01*
X127112976Y-117395357D01*
X127112976Y-117538214D01*
X127160595Y-117633452D01*
X127208214Y-117681071D01*
X127303452Y-117728690D01*
X127684404Y-117728690D01*
X126779642Y-117538214D02*
X126541547Y-118204880D01*
X126303452Y-117538214D02*
X126541547Y-118204880D01*
X126636785Y-118442976D01*
X126684404Y-118490595D01*
X126779642Y-118538214D01*
X125493928Y-118204880D02*
X125493928Y-117681071D01*
X125541547Y-117585833D01*
X125636785Y-117538214D01*
X125827261Y-117538214D01*
X125922500Y-117585833D01*
X125493928Y-118157261D02*
X125589166Y-118204880D01*
X125827261Y-118204880D01*
X125922500Y-118157261D01*
X125970119Y-118062023D01*
X125970119Y-117966785D01*
X125922500Y-117871547D01*
X125827261Y-117823928D01*
X125589166Y-117823928D01*
X125493928Y-117776309D01*
X125017738Y-117538214D02*
X125017738Y-118204880D01*
X125017738Y-117633452D02*
X124970119Y-117585833D01*
X124874880Y-117538214D01*
X124732023Y-117538214D01*
X124636785Y-117585833D01*
X124589166Y-117681071D01*
X124589166Y-118204880D01*
X123398690Y-118157261D02*
X123255833Y-118204880D01*
X123017738Y-118204880D01*
X122922500Y-118157261D01*
X122874880Y-118109642D01*
X122827261Y-118014404D01*
X122827261Y-117919166D01*
X122874880Y-117823928D01*
X122922500Y-117776309D01*
X123017738Y-117728690D01*
X123208214Y-117681071D01*
X123303452Y-117633452D01*
X123351071Y-117585833D01*
X123398690Y-117490595D01*
X123398690Y-117395357D01*
X123351071Y-117300119D01*
X123303452Y-117252500D01*
X123208214Y-117204880D01*
X122970119Y-117204880D01*
X122827261Y-117252500D01*
X122398690Y-118204880D02*
X122398690Y-117204880D01*
X121970119Y-118204880D02*
X121970119Y-117681071D01*
X122017738Y-117585833D01*
X122112976Y-117538214D01*
X122255833Y-117538214D01*
X122351071Y-117585833D01*
X122398690Y-117633452D01*
X121065357Y-118204880D02*
X121065357Y-117681071D01*
X121112976Y-117585833D01*
X121208214Y-117538214D01*
X121398690Y-117538214D01*
X121493928Y-117585833D01*
X121065357Y-118157261D02*
X121160595Y-118204880D01*
X121398690Y-118204880D01*
X121493928Y-118157261D01*
X121541547Y-118062023D01*
X121541547Y-117966785D01*
X121493928Y-117871547D01*
X121398690Y-117823928D01*
X121160595Y-117823928D01*
X121065357Y-117776309D01*
X120684404Y-117538214D02*
X120493928Y-118204880D01*
X120303452Y-117728690D01*
X120112976Y-118204880D01*
X119922500Y-117538214D01*
D11*
X119940000Y-94070000D02*
X122740000Y-94070000D01*
X123390000Y-93370000D02*
X123390000Y-92770000D01*
X122740000Y-92070000D02*
X119940000Y-92070000D01*
X119290000Y-92770000D02*
X119290000Y-93370000D01*
X120140000Y-91870000D02*
X119840000Y-91570000D01*
X119840000Y-91570000D02*
X120440000Y-91570000D01*
X120140000Y-91870000D02*
X120440000Y-91570000D01*
X119290000Y-93370000D02*
G75*
G03*
X119990000Y-94070000I700000J0D01*
G01*
X119990000Y-92070000D02*
G75*
G03*
X119290000Y-92770000I0J-700000D01*
G01*
X123390000Y-92770000D02*
G75*
G03*
X122690000Y-92070000I-700000J0D01*
G01*
X122690000Y-94070000D02*
G75*
G03*
X123390000Y-93370000I0J700000D01*
G01*
X124856000Y-94070000D02*
X127656000Y-94070000D01*
X128306000Y-93370000D02*
X128306000Y-92770000D01*
X127656000Y-92070000D02*
X124856000Y-92070000D01*
X124206000Y-92770000D02*
X124206000Y-93370000D01*
X125056000Y-91870000D02*
X124756000Y-91570000D01*
X124756000Y-91570000D02*
X125356000Y-91570000D01*
X125056000Y-91870000D02*
X125356000Y-91570000D01*
X124206000Y-93370000D02*
G75*
G03*
X124906000Y-94070000I700000J0D01*
G01*
X124906000Y-92070000D02*
G75*
G03*
X124206000Y-92770000I0J-700000D01*
G01*
X128306000Y-92770000D02*
G75*
G03*
X127606000Y-92070000I-700000J0D01*
G01*
X127606000Y-94070000D02*
G75*
G03*
X128306000Y-93370000I0J700000D01*
G01*
%LPC*%
D12*
X139192000Y-89408000D03*
X139192000Y-86868000D03*
X136652000Y-89408000D03*
X136652000Y-86868000D03*
X134112000Y-89408000D03*
X134112000Y-86868000D03*
X131572000Y-89408000D03*
X131572000Y-86868000D03*
X129032000Y-89408000D03*
D13*
X129032000Y-86868000D03*
D12*
X179380000Y-96450000D03*
X179380000Y-93910000D03*
X179380000Y-91370000D03*
D13*
X179380000Y-88830000D03*
D14*
X121340000Y-93070000D03*
D15*
G36*
X122640000Y-92320602D02*
G01*
X122664534Y-92320602D01*
X122713365Y-92325412D01*
X122761490Y-92334984D01*
X122808445Y-92349228D01*
X122853778Y-92368005D01*
X122897051Y-92391136D01*
X122937850Y-92418396D01*
X122975779Y-92449524D01*
X123010476Y-92484221D01*
X123041604Y-92522150D01*
X123068864Y-92562949D01*
X123091995Y-92606222D01*
X123110772Y-92651555D01*
X123125016Y-92698510D01*
X123134588Y-92746635D01*
X123139398Y-92795466D01*
X123139398Y-92820000D01*
X123140000Y-92820000D01*
X123140000Y-93320000D01*
X123139398Y-93320000D01*
X123139398Y-93344534D01*
X123134588Y-93393365D01*
X123125016Y-93441490D01*
X123110772Y-93488445D01*
X123091995Y-93533778D01*
X123068864Y-93577051D01*
X123041604Y-93617850D01*
X123010476Y-93655779D01*
X122975779Y-93690476D01*
X122937850Y-93721604D01*
X122897051Y-93748864D01*
X122853778Y-93771995D01*
X122808445Y-93790772D01*
X122761490Y-93805016D01*
X122713365Y-93814588D01*
X122664534Y-93819398D01*
X122640000Y-93819398D01*
X122640000Y-93820000D01*
X122090000Y-93820000D01*
X122090000Y-92320000D01*
X122640000Y-92320000D01*
X122640000Y-92320602D01*
G37*
G36*
X120590000Y-93820000D02*
G01*
X120040000Y-93820000D01*
X120040000Y-93819398D01*
X120015466Y-93819398D01*
X119966635Y-93814588D01*
X119918510Y-93805016D01*
X119871555Y-93790772D01*
X119826222Y-93771995D01*
X119782949Y-93748864D01*
X119742150Y-93721604D01*
X119704221Y-93690476D01*
X119669524Y-93655779D01*
X119638396Y-93617850D01*
X119611136Y-93577051D01*
X119588005Y-93533778D01*
X119569228Y-93488445D01*
X119554984Y-93441490D01*
X119545412Y-93393365D01*
X119540602Y-93344534D01*
X119540602Y-93320000D01*
X119540000Y-93320000D01*
X119540000Y-92820000D01*
X119540602Y-92820000D01*
X119540602Y-92795466D01*
X119545412Y-92746635D01*
X119554984Y-92698510D01*
X119569228Y-92651555D01*
X119588005Y-92606222D01*
X119611136Y-92562949D01*
X119638396Y-92522150D01*
X119669524Y-92484221D01*
X119704221Y-92449524D01*
X119742150Y-92418396D01*
X119782949Y-92391136D01*
X119826222Y-92368005D01*
X119871555Y-92349228D01*
X119918510Y-92334984D01*
X119966635Y-92325412D01*
X120015466Y-92320602D01*
X120040000Y-92320602D01*
X120040000Y-92320000D01*
X120590000Y-92320000D01*
X120590000Y-93820000D01*
G37*
D14*
X126256000Y-93070000D03*
D15*
G36*
X127556000Y-92320602D02*
G01*
X127580534Y-92320602D01*
X127629365Y-92325412D01*
X127677490Y-92334984D01*
X127724445Y-92349228D01*
X127769778Y-92368005D01*
X127813051Y-92391136D01*
X127853850Y-92418396D01*
X127891779Y-92449524D01*
X127926476Y-92484221D01*
X127957604Y-92522150D01*
X127984864Y-92562949D01*
X128007995Y-92606222D01*
X128026772Y-92651555D01*
X128041016Y-92698510D01*
X128050588Y-92746635D01*
X128055398Y-92795466D01*
X128055398Y-92820000D01*
X128056000Y-92820000D01*
X128056000Y-93320000D01*
X128055398Y-93320000D01*
X128055398Y-93344534D01*
X128050588Y-93393365D01*
X128041016Y-93441490D01*
X128026772Y-93488445D01*
X128007995Y-93533778D01*
X127984864Y-93577051D01*
X127957604Y-93617850D01*
X127926476Y-93655779D01*
X127891779Y-93690476D01*
X127853850Y-93721604D01*
X127813051Y-93748864D01*
X127769778Y-93771995D01*
X127724445Y-93790772D01*
X127677490Y-93805016D01*
X127629365Y-93814588D01*
X127580534Y-93819398D01*
X127556000Y-93819398D01*
X127556000Y-93820000D01*
X127006000Y-93820000D01*
X127006000Y-92320000D01*
X127556000Y-92320000D01*
X127556000Y-92320602D01*
G37*
G36*
X125506000Y-93820000D02*
G01*
X124956000Y-93820000D01*
X124956000Y-93819398D01*
X124931466Y-93819398D01*
X124882635Y-93814588D01*
X124834510Y-93805016D01*
X124787555Y-93790772D01*
X124742222Y-93771995D01*
X124698949Y-93748864D01*
X124658150Y-93721604D01*
X124620221Y-93690476D01*
X124585524Y-93655779D01*
X124554396Y-93617850D01*
X124527136Y-93577051D01*
X124504005Y-93533778D01*
X124485228Y-93488445D01*
X124470984Y-93441490D01*
X124461412Y-93393365D01*
X124456602Y-93344534D01*
X124456602Y-93320000D01*
X124456000Y-93320000D01*
X124456000Y-92820000D01*
X124456602Y-92820000D01*
X124456602Y-92795466D01*
X124461412Y-92746635D01*
X124470984Y-92698510D01*
X124485228Y-92651555D01*
X124504005Y-92606222D01*
X124527136Y-92562949D01*
X124554396Y-92522150D01*
X124585524Y-92484221D01*
X124620221Y-92449524D01*
X124658150Y-92418396D01*
X124698949Y-92391136D01*
X124742222Y-92368005D01*
X124787555Y-92349228D01*
X124834510Y-92334984D01*
X124882635Y-92325412D01*
X124931466Y-92320602D01*
X124956000Y-92320602D01*
X124956000Y-92320000D01*
X125506000Y-92320000D01*
X125506000Y-93820000D01*
G37*
D13*
X183720000Y-86950000D03*
D12*
X186260000Y-86950000D03*
X188800000Y-86950000D03*
X191340000Y-86950000D03*
D16*
X152528000Y-85564000D03*
D17*
X153958000Y-89214000D03*
D16*
X161168000Y-85564000D03*
D17*
X159738000Y-89214000D03*
D18*
X161168000Y-89744000D03*
X152528000Y-89744000D03*
M02*
